<svg width="1128" height="181" viewBox="0 0 1128 181" fill="none" xmlns="http://www.w3.org/2000/svg">
<path d="M1128 93.9017C1128 141.082 1088.1 178.444 1041.01 175.461C682.218 152.736 450.047 140.86 90.5496 172.406C42.114 176.657 0 138.759 0 90.1377V90.1377C0 41.7768 41.6433 3.9272 89.8096 8.26092C469.366 42.4112 702.84 51.9559 1034.78 12.1172C1084.05 6.20436 1128 44.2816 1128 93.9017V93.9017Z" fill="#65789D"/>
<path d="M75.364 88.738C78.08 89.074 80.152 89.998 81.58 91.51C83.008 93.022 83.722 94.912 83.722 97.18C83.722 98.888 83.288 100.442 82.42 101.842C81.552 103.242 80.236 104.362 78.472 105.202C76.736 106.014 74.608 106.42 72.088 106.42C69.988 106.42 67.958 106.126 65.998 105.538C64.066 104.922 62.414 104.082 61.042 103.018L63.394 98.776C64.458 99.672 65.746 100.386 67.258 100.918C68.798 101.422 70.38 101.674 72.004 101.674C73.936 101.674 75.448 101.282 76.54 100.498C77.66 99.686 78.22 98.594 78.22 97.222C78.22 95.85 77.688 94.786 76.624 94.03C75.588 93.246 73.992 92.854 71.836 92.854H69.148V89.116L75.826 81.178H62.47V76.6H82.504V80.254L75.364 88.738ZM90.5693 106.294C89.6173 106.294 88.8053 105.972 88.1333 105.328C87.4613 104.656 87.1253 103.816 87.1253 102.808C87.1253 101.772 87.4473 100.932 88.0913 100.288C88.7633 99.644 89.5893 99.322 90.5693 99.322C91.5493 99.322 92.3613 99.644 93.0053 100.288C93.6773 100.932 94.0133 101.772 94.0133 102.808C94.0133 103.816 93.6773 104.656 93.0053 105.328C92.3333 105.972 91.5213 106.294 90.5693 106.294ZM123.897 106.42C119.837 106.42 116.673 105.286 114.405 103.018C112.137 100.722 111.003 97.446 111.003 93.19V76.6H116.463V92.98C116.463 98.748 118.955 101.632 123.939 101.632C128.895 101.632 131.373 98.748 131.373 92.98V76.6H136.749V93.19C136.749 97.446 135.615 100.722 133.347 103.018C131.107 105.286 127.957 106.42 123.897 106.42ZM156.323 83.32C158.507 83.32 160.453 83.796 162.161 84.748C163.897 85.7 165.255 87.044 166.235 88.78C167.215 90.516 167.705 92.518 167.705 94.786C167.705 97.054 167.215 99.07 166.235 100.834C165.255 102.57 163.897 103.914 162.161 104.866C160.453 105.818 158.507 106.294 156.323 106.294C153.299 106.294 150.905 105.286 149.141 103.27V114.148H143.891V83.572H148.889V86.512C149.757 85.448 150.821 84.65 152.081 84.118C153.369 83.586 154.783 83.32 156.323 83.32ZM155.735 101.8C157.667 101.8 159.249 101.156 160.481 99.868C161.741 98.58 162.371 96.886 162.371 94.786C162.371 92.686 161.741 90.992 160.481 89.704C159.249 88.416 157.667 87.772 155.735 87.772C154.475 87.772 153.341 88.066 152.333 88.654C151.325 89.214 150.527 90.026 149.939 91.09C149.351 92.154 149.057 93.386 149.057 94.786C149.057 96.186 149.351 97.418 149.939 98.482C150.527 99.546 151.325 100.372 152.333 100.96C153.341 101.52 154.475 101.8 155.735 101.8ZM172.684 74.836H177.934V106H172.684V74.836ZM194.905 106.294C192.637 106.294 190.593 105.804 188.773 104.824C186.953 103.844 185.525 102.486 184.489 100.75C183.481 98.986 182.977 96.998 182.977 94.786C182.977 92.574 183.481 90.6 184.489 88.864C185.525 87.128 186.953 85.77 188.773 84.79C190.593 83.81 192.637 83.32 194.905 83.32C197.201 83.32 199.259 83.81 201.079 84.79C202.899 85.77 204.313 87.128 205.321 88.864C206.357 90.6 206.875 92.574 206.875 94.786C206.875 96.998 206.357 98.986 205.321 100.75C204.313 102.486 202.899 103.844 201.079 104.824C199.259 105.804 197.201 106.294 194.905 106.294ZM194.905 101.8C196.837 101.8 198.433 101.156 199.693 99.868C200.953 98.58 201.583 96.886 201.583 94.786C201.583 92.686 200.953 90.992 199.693 89.704C198.433 88.416 196.837 87.772 194.905 87.772C192.973 87.772 191.377 88.416 190.117 89.704C188.885 90.992 188.269 92.686 188.269 94.786C188.269 96.886 188.885 98.58 190.117 99.868C191.377 101.156 192.973 101.8 194.905 101.8ZM233.609 83.572V106H228.611V103.144C227.771 104.152 226.721 104.936 225.461 105.496C224.201 106.028 222.843 106.294 221.387 106.294C218.391 106.294 216.025 105.468 214.289 103.816C212.581 102.136 211.727 99.658 211.727 96.382V83.572H216.977V95.668C216.977 97.684 217.425 99.196 218.321 100.204C219.245 101.184 220.547 101.674 222.227 101.674C224.103 101.674 225.587 101.1 226.679 99.952C227.799 98.776 228.359 97.096 228.359 94.912V83.572H233.609ZM262.449 74.836V106H257.409V103.102C256.541 104.166 255.463 104.964 254.175 105.496C252.915 106.028 251.515 106.294 249.975 106.294C247.819 106.294 245.873 105.818 244.137 104.866C242.429 103.914 241.085 102.57 240.105 100.834C239.125 99.07 238.635 97.054 238.635 94.786C238.635 92.518 239.125 90.516 240.105 88.78C241.085 87.044 242.429 85.7 244.137 84.748C245.873 83.796 247.819 83.32 249.975 83.32C251.459 83.32 252.817 83.572 254.049 84.076C255.281 84.58 256.331 85.336 257.199 86.344V74.836H262.449ZM250.605 101.8C251.865 101.8 252.999 101.52 254.007 100.96C255.015 100.372 255.813 99.546 256.401 98.482C256.989 97.418 257.283 96.186 257.283 94.786C257.283 93.386 256.989 92.154 256.401 91.09C255.813 90.026 255.015 89.214 254.007 88.654C252.999 88.066 251.865 87.772 250.605 87.772C249.345 87.772 248.211 88.066 247.203 88.654C246.195 89.214 245.397 90.026 244.809 91.09C244.221 92.154 243.927 93.386 243.927 94.786C243.927 96.186 244.221 97.418 244.809 98.482C245.397 99.546 246.195 100.372 247.203 100.96C248.211 101.52 249.345 101.8 250.605 101.8ZM302.26 90.712C303.884 91.244 305.172 92.14 306.124 93.4C307.076 94.632 307.552 96.172 307.552 98.02C307.552 100.568 306.572 102.542 304.612 103.942C302.652 105.314 299.796 106 296.044 106H281.428V76.6H295.204C298.676 76.6 301.35 77.286 303.226 78.658C305.102 80.002 306.04 81.864 306.04 84.244C306.04 85.7 305.704 86.988 305.032 88.108C304.36 89.228 303.436 90.096 302.26 90.712ZM286.888 80.884V88.99H294.616C296.52 88.99 297.976 88.654 298.984 87.982C300.02 87.282 300.538 86.274 300.538 84.958C300.538 83.614 300.02 82.606 298.984 81.934C297.976 81.234 296.52 80.884 294.616 80.884H286.888ZM295.708 101.716C299.936 101.716 302.05 100.302 302.05 97.474C302.05 94.646 299.936 93.232 295.708 93.232H286.888V101.716H295.708ZM334.59 83.572V106H329.592V103.144C328.752 104.152 327.702 104.936 326.442 105.496C325.182 106.028 323.824 106.294 322.368 106.294C319.372 106.294 317.006 105.468 315.27 103.816C313.562 102.136 312.708 99.658 312.708 96.382V83.572H317.958V95.668C317.958 97.684 318.406 99.196 319.302 100.204C320.226 101.184 321.528 101.674 323.208 101.674C325.084 101.674 326.568 101.1 327.66 99.952C328.78 98.776 329.34 97.096 329.34 94.912V83.572H334.59ZM350.62 96.382L346.714 100.078V106H341.464V74.836H346.714V93.652L357.592 83.572H363.892L354.526 92.98L364.774 106H358.39L350.62 96.382ZM381.647 104.782C381.031 105.286 380.275 105.664 379.379 105.916C378.511 106.168 377.587 106.294 376.607 106.294C374.143 106.294 372.239 105.65 370.895 104.362C369.551 103.074 368.879 101.198 368.879 98.734V87.94H365.183V83.74H368.879V78.616H374.129V83.74H380.135V87.94H374.129V98.608C374.129 99.7 374.395 100.54 374.927 101.128C375.459 101.688 376.229 101.968 377.237 101.968C378.413 101.968 379.393 101.66 380.177 101.044L381.647 104.782ZM385.965 83.572H391.215V106H385.965V83.572ZM388.611 79.876C387.659 79.876 386.861 79.582 386.217 78.994C385.573 78.378 385.251 77.622 385.251 76.726C385.251 75.83 385.573 75.088 386.217 74.5C386.861 73.884 387.659 73.576 388.611 73.576C389.563 73.576 390.361 73.87 391.005 74.458C391.649 75.018 391.971 75.732 391.971 76.6C391.971 77.524 391.649 78.308 391.005 78.952C390.389 79.568 389.591 79.876 388.611 79.876ZM422.314 76.6C424.862 76.6 427.074 77.02 428.95 77.86C430.854 78.7 432.31 79.904 433.318 81.472C434.326 83.04 434.83 84.902 434.83 87.058C434.83 89.186 434.326 91.048 433.318 92.644C432.31 94.212 430.854 95.416 428.95 96.256C427.074 97.096 424.862 97.516 422.314 97.516H415.678V106H410.218V76.6H422.314ZM422.062 92.896C424.442 92.896 426.248 92.392 427.48 91.384C428.712 90.376 429.328 88.934 429.328 87.058C429.328 85.182 428.712 83.74 427.48 82.732C426.248 81.724 424.442 81.22 422.062 81.22H415.678V92.896H422.062ZM460.78 94.912C460.78 95.276 460.752 95.794 460.696 96.466H443.098C443.406 98.118 444.204 99.434 445.492 100.414C446.808 101.366 448.432 101.842 450.364 101.842C452.828 101.842 454.858 101.03 456.454 99.406L459.268 102.64C458.26 103.844 456.986 104.754 455.446 105.37C453.906 105.986 452.17 106.294 450.238 106.294C447.774 106.294 445.604 105.804 443.728 104.824C441.852 103.844 440.396 102.486 439.36 100.75C438.352 98.986 437.848 96.998 437.848 94.786C437.848 92.602 438.338 90.642 439.318 88.906C440.326 87.142 441.712 85.77 443.476 84.79C445.24 83.81 447.228 83.32 449.44 83.32C451.624 83.32 453.57 83.81 455.278 84.79C457.014 85.742 458.358 87.1 459.31 88.864C460.29 90.6 460.78 92.616 460.78 94.912ZM449.44 87.52C447.76 87.52 446.332 88.024 445.156 89.032C444.008 90.012 443.308 91.328 443.056 92.98H455.782C455.558 91.356 454.872 90.04 453.724 89.032C452.576 88.024 451.148 87.52 449.44 87.52ZM494.131 83.32C496.959 83.32 499.199 84.146 500.851 85.798C502.503 87.422 503.329 89.872 503.329 93.148V106H498.079V93.82C498.079 91.86 497.645 90.39 496.777 89.41C495.909 88.402 494.663 87.898 493.039 87.898C491.275 87.898 489.861 88.486 488.797 89.662C487.733 90.81 487.201 92.462 487.201 94.618V106H481.951V93.82C481.951 91.86 481.517 90.39 480.649 89.41C479.781 88.402 478.535 87.898 476.911 87.898C475.119 87.898 473.691 88.472 472.627 89.62C471.591 90.768 471.073 92.434 471.073 94.618V106H465.823V83.572H470.821V86.428C471.661 85.42 472.711 84.65 473.971 84.118C475.231 83.586 476.631 83.32 478.171 83.32C479.851 83.32 481.335 83.642 482.623 84.286C483.939 84.902 484.975 85.826 485.731 87.058C486.655 85.882 487.845 84.972 489.301 84.328C490.757 83.656 492.367 83.32 494.131 83.32ZM522.47 83.32C524.654 83.32 526.6 83.796 528.308 84.748C530.044 85.7 531.402 87.044 532.382 88.78C533.362 90.516 533.852 92.518 533.852 94.786C533.852 97.054 533.362 99.07 532.382 100.834C531.402 102.57 530.044 103.914 528.308 104.866C526.6 105.818 524.654 106.294 522.47 106.294C520.93 106.294 519.516 106.028 518.228 105.496C516.968 104.964 515.904 104.166 515.036 103.102V106H510.038V74.836H515.288V86.302C516.184 85.322 517.234 84.58 518.438 84.076C519.67 83.572 521.014 83.32 522.47 83.32ZM521.882 101.8C523.814 101.8 525.396 101.156 526.628 99.868C527.888 98.58 528.518 96.886 528.518 94.786C528.518 92.686 527.888 90.992 526.628 89.704C525.396 88.416 523.814 87.772 521.882 87.772C520.622 87.772 519.488 88.066 518.48 88.654C517.472 89.214 516.674 90.026 516.086 91.09C515.498 92.154 515.204 93.386 515.204 94.786C515.204 96.186 515.498 97.418 516.086 98.482C516.674 99.546 517.472 100.372 518.48 100.96C519.488 101.52 520.622 101.8 521.882 101.8ZM547.112 83.32C550.416 83.32 552.936 84.118 554.672 85.714C556.436 87.282 557.318 89.662 557.318 92.854V106H552.362V103.27C551.718 104.25 550.794 105.006 549.59 105.538C548.414 106.042 546.986 106.294 545.306 106.294C543.626 106.294 542.156 106.014 540.896 105.454C539.636 104.866 538.656 104.068 537.956 103.06C537.284 102.024 536.948 100.862 536.948 99.574C536.948 97.558 537.69 95.948 539.174 94.744C540.686 93.512 543.052 92.896 546.272 92.896H552.068V92.56C552.068 90.992 551.592 89.788 550.64 88.948C549.716 88.108 548.33 87.688 546.482 87.688C545.222 87.688 543.976 87.884 542.744 88.276C541.54 88.668 540.518 89.214 539.678 89.914L537.62 86.092C538.796 85.196 540.21 84.51 541.862 84.034C543.514 83.558 545.264 83.32 547.112 83.32ZM546.398 102.472C547.714 102.472 548.876 102.178 549.884 101.59C550.92 100.974 551.648 100.106 552.068 98.986V96.382H546.65C543.626 96.382 542.114 97.376 542.114 99.364C542.114 100.316 542.492 101.072 543.248 101.632C544.004 102.192 545.054 102.472 546.398 102.472ZM584.645 83.572L574.145 107.806C573.165 110.242 571.975 111.95 570.575 112.93C569.175 113.938 567.481 114.442 565.493 114.442C564.373 114.442 563.267 114.26 562.175 113.896C561.083 113.532 560.187 113.028 559.487 112.384L561.587 108.52C562.091 108.996 562.679 109.374 563.351 109.654C564.051 109.934 564.751 110.074 565.451 110.074C566.375 110.074 567.131 109.836 567.719 109.36C568.335 108.884 568.895 108.086 569.399 106.966L569.777 106.084L559.991 83.572H565.451L572.507 100.162L579.605 83.572H584.645ZM595.797 83.32C599.101 83.32 601.621 84.118 603.357 85.714C605.121 87.282 606.003 89.662 606.003 92.854V106H601.047V103.27C600.403 104.25 599.479 105.006 598.275 105.538C597.099 106.042 595.671 106.294 593.991 106.294C592.311 106.294 590.841 106.014 589.581 105.454C588.321 104.866 587.341 104.068 586.641 103.06C585.969 102.024 585.633 100.862 585.633 99.574C585.633 97.558 586.375 95.948 587.859 94.744C589.371 93.512 591.737 92.896 594.957 92.896H600.753V92.56C600.753 90.992 600.277 89.788 599.325 88.948C598.401 88.108 597.015 87.688 595.167 87.688C593.907 87.688 592.661 87.884 591.429 88.276C590.225 88.668 589.203 89.214 588.363 89.914L586.305 86.092C587.481 85.196 588.895 84.51 590.547 84.034C592.199 83.558 593.949 83.32 595.797 83.32ZM595.083 102.472C596.399 102.472 597.561 102.178 598.569 101.59C599.605 100.974 600.333 100.106 600.753 98.986V96.382H595.335C592.311 96.382 590.799 97.376 590.799 99.364C590.799 100.316 591.177 101.072 591.933 101.632C592.689 102.192 593.739 102.472 595.083 102.472ZM617.739 86.848C619.251 84.496 621.911 83.32 625.719 83.32V88.318C625.271 88.234 624.865 88.192 624.501 88.192C622.457 88.192 620.861 88.794 619.713 89.998C618.565 91.174 617.991 92.882 617.991 95.122V106H612.741V83.572H617.739V86.848ZM638.617 83.32C641.921 83.32 644.441 84.118 646.177 85.714C647.941 87.282 648.823 89.662 648.823 92.854V106H643.867V103.27C643.223 104.25 642.299 105.006 641.095 105.538C639.919 106.042 638.491 106.294 636.811 106.294C635.131 106.294 633.661 106.014 632.401 105.454C631.141 104.866 630.161 104.068 629.461 103.06C628.789 102.024 628.453 100.862 628.453 99.574C628.453 97.558 629.195 95.948 630.679 94.744C632.191 93.512 634.557 92.896 637.777 92.896H643.573V92.56C643.573 90.992 643.097 89.788 642.145 88.948C641.221 88.108 639.835 87.688 637.987 87.688C636.727 87.688 635.481 87.884 634.249 88.276C633.045 88.668 632.023 89.214 631.183 89.914L629.125 86.092C630.301 85.196 631.715 84.51 633.367 84.034C635.019 83.558 636.769 83.32 638.617 83.32ZM637.903 102.472C639.219 102.472 640.381 102.178 641.389 101.59C642.425 100.974 643.153 100.106 643.573 98.986V96.382H638.155C635.131 96.382 633.619 97.376 633.619 99.364C633.619 100.316 633.997 101.072 634.753 101.632C635.509 102.192 636.559 102.472 637.903 102.472ZM668.287 83.32C671.115 83.32 673.383 84.146 675.091 85.798C676.799 87.45 677.653 89.9 677.653 93.148V106H672.403V93.82C672.403 91.86 671.941 90.39 671.017 89.41C670.093 88.402 668.777 87.898 667.069 87.898C665.137 87.898 663.611 88.486 662.491 89.662C661.371 90.81 660.811 92.476 660.811 94.66V106H655.561V83.572H660.559V86.47C661.427 85.434 662.519 84.65 663.835 84.118C665.151 83.586 666.635 83.32 668.287 83.32Z" fill="#FFEFEF"/>
</svg>
