<svg width="88" height="88" viewBox="0 0 88 88" fill="none" xmlns="http://www.w3.org/2000/svg">
<g filter="url(#filter0_i)">
<circle cx="44" cy="44" r="44" transform="rotate(-90 44 44)" fill="#574292"/>
</g>
<g filter="url(#filter1_i)">
<path d="M26.8955 36.0738C27.5773 35.3783 28.6442 35.3151 29.396 35.8841L29.6114 36.0738L44.9997 51.7713L60.3879 36.0738C61.0697 35.3783 62.1366 35.3151 62.8885 35.8841L63.1039 36.0738C63.7857 36.7692 63.8476 37.8575 63.2898 38.6244L63.1039 38.8441L46.3576 55.9262C45.6758 56.6217 44.6089 56.6849 43.8571 56.1159L43.6417 55.9262L26.8955 38.8441C26.1455 38.0791 26.1455 36.8388 26.8955 36.0738Z" fill="white" stroke="white" stroke-width="3"/>
</g>
<defs>
<filter id="filter0_i" x="0" y="0" width="88" height="92" filterUnits="userSpaceOnUse" color-interpolation-filters="sRGB">
<feFlood flood-opacity="0" result="BackgroundImageFix"/>
<feBlend mode="normal" in="SourceGraphic" in2="BackgroundImageFix" result="shape"/>
<feColorMatrix in="SourceAlpha" type="matrix" values="0 0 0 0 0 0 0 0 0 0 0 0 0 0 0 0 0 0 127 0" result="hardAlpha"/>
<feOffset dy="4"/>
<feGaussianBlur stdDeviation="2"/>
<feComposite in2="hardAlpha" operator="arithmetic" k2="-1" k3="1"/>
<feColorMatrix type="matrix" values="0 0 0 0 0 0 0 0 0 0 0 0 0 0 0 0 0 0 0.25 0"/>
<feBlend mode="normal" in2="shape" result="effect1_innerShadow"/>
</filter>
<filter id="filter1_i" x="24.833" y="34" width="40.3332" height="27.9999" filterUnits="userSpaceOnUse" color-interpolation-filters="sRGB">
<feFlood flood-opacity="0" result="BackgroundImageFix"/>
<feBlend mode="normal" in="SourceGraphic" in2="BackgroundImageFix" result="shape"/>
<feColorMatrix in="SourceAlpha" type="matrix" values="0 0 0 0 0 0 0 0 0 0 0 0 0 0 0 0 0 0 127 0" result="hardAlpha"/>
<feOffset dy="4"/>
<feGaussianBlur stdDeviation="2"/>
<feComposite in2="hardAlpha" operator="arithmetic" k2="-1" k3="1"/>
<feColorMatrix type="matrix" values="0 0 0 0 0 0 0 0 0 0 0 0 0 0 0 0 0 0 0.25 0"/>
<feBlend mode="normal" in2="shape" result="effect1_innerShadow"/>
</filter>
</defs>
</svg>
