<svg width="324" height="531" viewBox="0 0 324 531" fill="none" xmlns="http://www.w3.org/2000/svg">
<rect y="531" width="415" height="323.571" rx="85" transform="rotate(-90 0 531)" fill="#3787D0"/>
<g filter="url(#filter0_i)">
<g filter="url(#filter1_i)">
<circle cx="161.785" cy="87.5" r="87.5" transform="rotate(-90 161.785 87.5)" fill="#E0473F"/>
</g>
</g>
<g filter="url(#filter2_i)">
<path d="M134.124 101.552V110H100.268V103.28L117.548 86.96C119.383 85.2107 120.62 83.7173 121.26 82.48C121.9 81.2 122.22 79.9413 122.22 78.704C122.22 76.912 121.602 75.5467 120.364 74.608C119.17 73.6267 117.399 73.136 115.052 73.136C113.09 73.136 111.319 73.52 109.74 74.288C108.162 75.0133 106.839 76.1227 105.772 77.616L98.2203 72.752C99.9696 70.1493 102.38 68.1227 105.452 66.672C108.524 65.1787 112.044 64.432 116.012 64.432C119.34 64.432 122.242 64.9867 124.716 66.096C127.234 67.1627 129.175 68.6987 130.54 70.704C131.948 72.6667 132.652 74.992 132.652 77.68C132.652 80.112 132.14 82.3947 131.116 84.528C130.092 86.6613 128.108 89.0933 125.164 91.824L114.86 101.552H134.124ZM161.442 75.056C165.709 75.056 169.144 76.336 171.746 78.896C174.392 81.456 175.714 85.2533 175.714 90.288V110H165.73V91.824C165.73 89.0933 165.133 87.0667 163.938 85.744C162.744 84.3787 161.016 83.696 158.754 83.696C156.237 83.696 154.232 84.4853 152.738 86.064C151.245 87.6 150.498 89.904 150.498 92.976V110H140.514V75.568H150.05V79.6C151.373 78.1493 153.016 77.04 154.978 76.272C156.941 75.4613 159.096 75.056 161.442 75.056ZM220.211 62.512V110H210.675V106.032C208.201 109.019 204.617 110.512 199.923 110.512C196.681 110.512 193.737 109.787 191.091 108.336C188.489 106.885 186.441 104.816 184.947 102.128C183.454 99.44 182.707 96.3253 182.707 92.784C182.707 89.2427 183.454 86.128 184.947 83.44C186.441 80.752 188.489 78.6827 191.091 77.232C193.737 75.7813 196.681 75.056 199.923 75.056C204.318 75.056 207.753 76.4427 210.227 79.216V62.512H220.211ZM201.651 102.32C204.169 102.32 206.259 101.467 207.923 99.76C209.587 98.0107 210.419 95.6853 210.419 92.784C210.419 89.8827 209.587 87.5787 207.923 85.872C206.259 84.1227 204.169 83.248 201.651 83.248C199.091 83.248 196.979 84.1227 195.315 85.872C193.651 87.5787 192.819 89.8827 192.819 92.784C192.819 95.6853 193.651 98.0107 195.315 99.76C196.979 101.467 199.091 102.32 201.651 102.32Z" fill="#FFEFEF"/>
</g>
<path d="M22.2768 262.3C19.3768 262.3 17.1168 261.49 15.4968 259.87C13.8768 258.23 13.0668 255.89 13.0668 252.85V241H16.9668V252.7C16.9668 256.82 18.7468 258.88 22.3068 258.88C25.8468 258.88 27.6168 256.82 27.6168 252.7V241H31.4568V252.85C31.4568 255.89 30.6468 258.23 29.0268 259.87C27.4268 261.49 25.1768 262.3 22.2768 262.3ZM42.6786 245.8C45.0386 245.8 46.8386 246.37 48.0786 247.51C49.3386 248.63 49.9686 250.33 49.9686 252.61V262H46.4286V260.05C45.9686 260.75 45.3086 261.29 44.4486 261.67C43.6086 262.03 42.5886 262.21 41.3886 262.21C40.1886 262.21 39.1386 262.01 38.2386 261.61C37.3386 261.19 36.6386 260.62 36.1386 259.9C35.6586 259.16 35.4186 258.33 35.4186 257.41C35.4186 255.97 35.9486 254.82 37.0086 253.96C38.0886 253.08 39.7786 252.64 42.0786 252.64H46.2186V252.4C46.2186 251.28 45.8786 250.42 45.1986 249.82C44.5386 249.22 43.5486 248.92 42.2286 248.92C41.3286 248.92 40.4386 249.06 39.5586 249.34C38.6986 249.62 37.9686 250.01 37.3686 250.51L35.8986 247.78C36.7386 247.14 37.7486 246.65 38.9286 246.31C40.1086 245.97 41.3586 245.8 42.6786 245.8ZM42.1686 259.48C43.1086 259.48 43.9386 259.27 44.6586 258.85C45.3986 258.41 45.9186 257.79 46.2186 256.99V255.13H42.3486C40.1886 255.13 39.1086 255.84 39.1086 257.26C39.1086 257.94 39.3786 258.48 39.9186 258.88C40.4586 259.28 41.2086 259.48 42.1686 259.48ZM63.8713 245.8C65.8913 245.8 67.5113 246.39 68.7313 247.57C69.9513 248.75 70.5613 250.5 70.5613 252.82V262H66.8113V253.3C66.8113 251.9 66.4813 250.85 65.8213 250.15C65.1613 249.43 64.2213 249.07 63.0013 249.07C61.6213 249.07 60.5313 249.49 59.7313 250.33C58.9313 251.15 58.5313 252.34 58.5313 253.9V262H54.7813V245.98H58.3513V248.05C58.9713 247.31 59.7513 246.75 60.6913 246.37C61.6313 245.99 62.6913 245.8 63.8713 245.8ZM91.3649 245.98V259.57C91.3649 265.21 88.4849 268.03 82.7249 268.03C81.1849 268.03 79.7249 267.83 78.3449 267.43C76.9649 267.05 75.8249 266.49 74.9249 265.75L76.6049 262.93C77.3049 263.51 78.1849 263.97 79.2449 264.31C80.3249 264.67 81.4149 264.85 82.5149 264.85C84.2749 264.85 85.5649 264.45 86.3849 263.65C87.2049 262.85 87.6149 261.63 87.6149 259.99V259.15C86.9749 259.85 86.1949 260.38 85.2749 260.74C84.3549 261.1 83.3449 261.28 82.2449 261.28C80.7249 261.28 79.3449 260.96 78.1049 260.32C76.8849 259.66 75.9149 258.74 75.1949 257.56C74.4949 256.38 74.1449 255.03 74.1449 253.51C74.1449 251.99 74.4949 250.65 75.1949 249.49C75.9149 248.31 76.8849 247.4 78.1049 246.76C79.3449 246.12 80.7249 245.8 82.2449 245.8C83.4049 245.8 84.4549 245.99 85.3949 246.37C86.3549 246.75 87.1549 247.33 87.7949 248.11V245.98H91.3649ZM82.8149 258.1C84.2349 258.1 85.3949 257.68 86.2949 256.84C87.2149 255.98 87.6749 254.87 87.6749 253.51C87.6749 252.17 87.2149 251.08 86.2949 250.24C85.3949 249.4 84.2349 248.98 82.8149 248.98C81.3749 248.98 80.1949 249.4 79.2749 250.24C78.3749 251.08 77.9249 252.17 77.9249 253.51C77.9249 254.87 78.3749 255.98 79.2749 256.84C80.1949 257.68 81.3749 258.1 82.8149 258.1ZM114.216 261.13C113.776 261.49 113.236 261.76 112.596 261.94C111.976 262.12 111.316 262.21 110.616 262.21C108.856 262.21 107.496 261.75 106.536 260.83C105.576 259.91 105.096 258.57 105.096 256.81V249.1H102.456V246.1H105.096V242.44H108.846V246.1H113.136V249.1H108.846V256.72C108.846 257.5 109.036 258.1 109.416 258.52C109.796 258.92 110.346 259.12 111.066 259.12C111.906 259.12 112.606 258.9 113.166 258.46L114.216 261.13ZM132.811 245.98V262H129.241V259.96C128.641 260.68 127.891 261.24 126.991 261.64C126.091 262.02 125.121 262.21 124.081 262.21C121.941 262.21 120.251 261.62 119.011 260.44C117.791 259.24 117.181 257.47 117.181 255.13V245.98H120.931V254.62C120.931 256.06 121.251 257.14 121.891 257.86C122.551 258.56 123.481 258.91 124.681 258.91C126.021 258.91 127.081 258.5 127.861 257.68C128.661 256.84 129.061 255.64 129.061 254.08V245.98H132.811ZM146.811 245.8C148.831 245.8 150.451 246.39 151.671 247.57C152.891 248.75 153.501 250.5 153.501 252.82V262H149.751V253.3C149.751 251.9 149.421 250.85 148.761 250.15C148.101 249.43 147.161 249.07 145.941 249.07C144.561 249.07 143.471 249.49 142.671 250.33C141.871 251.15 141.471 252.34 141.471 253.9V262H137.721V245.98H141.291V248.05C141.911 247.31 142.691 246.75 143.631 246.37C144.571 245.99 145.631 245.8 146.811 245.8ZM164.378 245.8C166.738 245.8 168.538 246.37 169.778 247.51C171.038 248.63 171.668 250.33 171.668 252.61V262H168.128V260.05C167.668 260.75 167.008 261.29 166.148 261.67C165.308 262.03 164.288 262.21 163.088 262.21C161.888 262.21 160.838 262.01 159.938 261.61C159.038 261.19 158.338 260.62 157.838 259.9C157.358 259.16 157.118 258.33 157.118 257.41C157.118 255.97 157.648 254.82 158.708 253.96C159.788 253.08 161.478 252.64 163.778 252.64H167.918V252.4C167.918 251.28 167.578 250.42 166.898 249.82C166.238 249.22 165.248 248.92 163.928 248.92C163.028 248.92 162.138 249.06 161.258 249.34C160.398 249.62 159.668 250.01 159.068 250.51L157.598 247.78C158.438 247.14 159.448 246.65 160.628 246.31C161.808 245.97 163.058 245.8 164.378 245.8ZM163.868 259.48C164.808 259.48 165.638 259.27 166.358 258.85C167.098 258.41 167.618 257.79 167.918 256.99V255.13H164.048C161.888 255.13 160.808 255.84 160.808 257.26C160.808 257.94 161.078 258.48 161.618 258.88C162.158 259.28 162.908 259.48 163.868 259.48ZM176.481 245.98H180.231V262H176.481V245.98ZM178.371 243.34C177.691 243.34 177.121 243.13 176.661 242.71C176.201 242.27 175.971 241.73 175.971 241.09C175.971 240.45 176.201 239.92 176.661 239.5C177.121 239.06 177.691 238.84 178.371 238.84C179.051 238.84 179.621 239.05 180.081 239.47C180.541 239.87 180.771 240.38 180.771 241C180.771 241.66 180.541 242.22 180.081 242.68C179.641 243.12 179.071 243.34 178.371 243.34ZM198.393 262.21C197.093 262.21 195.823 262.04 194.583 261.7C193.343 261.36 192.353 260.93 191.613 260.41L193.053 257.56C193.773 258.04 194.633 258.43 195.633 258.73C196.653 259.01 197.653 259.15 198.633 259.15C200.873 259.15 201.993 258.56 201.993 257.38C201.993 256.82 201.703 256.43 201.123 256.21C200.563 255.99 199.653 255.78 198.393 255.58C197.073 255.38 195.993 255.15 195.153 254.89C194.333 254.63 193.613 254.18 192.993 253.54C192.393 252.88 192.093 251.97 192.093 250.81C192.093 249.29 192.723 248.08 193.983 247.18C195.263 246.26 196.983 245.8 199.143 245.8C200.243 245.8 201.343 245.93 202.443 246.19C203.543 246.43 204.443 246.76 205.143 247.18L203.703 250.03C202.343 249.23 200.813 248.83 199.113 248.83C198.013 248.83 197.173 249 196.593 249.34C196.033 249.66 195.753 250.09 195.753 250.63C195.753 251.23 196.053 251.66 196.653 251.92C197.273 252.16 198.223 252.39 199.503 252.61C200.783 252.81 201.833 253.04 202.653 253.3C203.473 253.56 204.173 254 204.753 254.62C205.353 255.24 205.653 256.12 205.653 257.26C205.653 258.76 205.003 259.96 203.703 260.86C202.403 261.76 200.633 262.21 198.393 262.21ZM223.943 254.08C223.943 254.34 223.923 254.71 223.883 255.19H211.313C211.533 256.37 212.103 257.31 213.023 258.01C213.963 258.69 215.123 259.03 216.503 259.03C218.263 259.03 219.713 258.45 220.853 257.29L222.863 259.6C222.143 260.46 221.233 261.11 220.133 261.55C219.033 261.99 217.793 262.21 216.413 262.21C214.653 262.21 213.103 261.86 211.763 261.16C210.423 260.46 209.383 259.49 208.643 258.25C207.923 256.99 207.563 255.57 207.563 253.99C207.563 252.43 207.913 251.03 208.613 249.79C209.333 248.53 210.323 247.55 211.583 246.85C212.843 246.15 214.263 245.8 215.843 245.8C217.403 245.8 218.793 246.15 220.013 246.85C221.253 247.53 222.213 248.5 222.893 249.76C223.593 251 223.943 252.44 223.943 254.08ZM215.843 248.8C214.643 248.8 213.623 249.16 212.783 249.88C211.963 250.58 211.463 251.52 211.283 252.7H220.373C220.213 251.54 219.723 250.6 218.903 249.88C218.083 249.16 217.063 248.8 215.843 248.8ZM236.425 245.8C237.985 245.8 239.375 246.14 240.595 246.82C241.835 247.5 242.805 248.46 243.505 249.7C244.205 250.94 244.555 252.37 244.555 253.99C244.555 255.61 244.205 257.05 243.505 258.31C242.805 259.55 241.835 260.51 240.595 261.19C239.375 261.87 237.985 262.21 236.425 262.21C235.325 262.21 234.315 262.02 233.395 261.64C232.495 261.26 231.735 260.69 231.115 259.93V262H227.545V239.74H231.295V247.93C231.935 247.23 232.685 246.7 233.545 246.34C234.425 245.98 235.385 245.8 236.425 245.8ZM236.005 259C237.385 259 238.515 258.54 239.395 257.62C240.295 256.7 240.745 255.49 240.745 253.99C240.745 252.49 240.295 251.28 239.395 250.36C238.515 249.44 237.385 248.98 236.005 248.98C235.105 248.98 234.295 249.19 233.575 249.61C232.855 250.01 232.285 250.59 231.865 251.35C231.445 252.11 231.235 252.99 231.235 253.99C231.235 254.99 231.445 255.87 231.865 256.63C232.285 257.39 232.855 257.98 233.575 258.4C234.295 258.8 235.105 259 236.005 259ZM263.171 254.08C263.171 254.34 263.151 254.71 263.111 255.19H250.541C250.761 256.37 251.331 257.31 252.251 258.01C253.191 258.69 254.351 259.03 255.731 259.03C257.491 259.03 258.941 258.45 260.081 257.29L262.091 259.6C261.371 260.46 260.461 261.11 259.361 261.55C258.261 261.99 257.021 262.21 255.641 262.21C253.881 262.21 252.331 261.86 250.991 261.16C249.651 260.46 248.611 259.49 247.871 258.25C247.151 256.99 246.791 255.57 246.791 253.99C246.791 252.43 247.141 251.03 247.841 249.79C248.561 248.53 249.551 247.55 250.811 246.85C252.071 246.15 253.491 245.8 255.071 245.8C256.631 245.8 258.021 246.15 259.241 246.85C260.481 247.53 261.441 248.5 262.121 249.76C262.821 251 263.171 252.44 263.171 254.08ZM255.071 248.8C253.871 248.8 252.851 249.16 252.011 249.88C251.191 250.58 250.691 251.52 250.511 252.7H259.601C259.441 251.54 258.951 250.6 258.131 249.88C257.311 249.16 256.291 248.8 255.071 248.8ZM271.723 262.21C270.423 262.21 269.153 262.04 267.913 261.7C266.673 261.36 265.683 260.93 264.943 260.41L266.383 257.56C267.103 258.04 267.963 258.43 268.963 258.73C269.983 259.01 270.983 259.15 271.963 259.15C274.203 259.15 275.323 258.56 275.323 257.38C275.323 256.82 275.033 256.43 274.453 256.21C273.893 255.99 272.983 255.78 271.723 255.58C270.403 255.38 269.323 255.15 268.483 254.89C267.663 254.63 266.943 254.18 266.323 253.54C265.723 252.88 265.423 251.97 265.423 250.81C265.423 249.29 266.053 248.08 267.313 247.18C268.593 246.26 270.313 245.8 272.473 245.8C273.573 245.8 274.673 245.93 275.773 246.19C276.873 246.43 277.773 246.76 278.473 247.18L277.033 250.03C275.673 249.23 274.143 248.83 272.443 248.83C271.343 248.83 270.503 249 269.923 249.34C269.363 249.66 269.083 250.09 269.083 250.63C269.083 251.23 269.383 251.66 269.983 251.92C270.603 252.16 271.553 252.39 272.833 252.61C274.113 252.81 275.163 253.04 275.983 253.3C276.803 253.56 277.503 254 278.083 254.62C278.683 255.24 278.983 256.12 278.983 257.26C278.983 258.76 278.333 259.96 277.033 260.86C275.733 261.76 273.963 262.21 271.723 262.21ZM288.333 245.8C290.693 245.8 292.493 246.37 293.733 247.51C294.993 248.63 295.623 250.33 295.623 252.61V262H292.083V260.05C291.623 260.75 290.963 261.29 290.103 261.67C289.263 262.03 288.243 262.21 287.043 262.21C285.843 262.21 284.793 262.01 283.893 261.61C282.993 261.19 282.293 260.62 281.793 259.9C281.313 259.16 281.073 258.33 281.073 257.41C281.073 255.97 281.603 254.82 282.663 253.96C283.743 253.08 285.433 252.64 287.733 252.64H291.873V252.4C291.873 251.28 291.533 250.42 290.853 249.82C290.193 249.22 289.203 248.92 287.883 248.92C286.983 248.92 286.093 249.06 285.213 249.34C284.353 249.62 283.623 250.01 283.023 250.51L281.553 247.78C282.393 247.14 283.403 246.65 284.583 246.31C285.763 245.97 287.013 245.8 288.333 245.8ZM287.823 259.48C288.763 259.48 289.593 259.27 290.313 258.85C291.053 258.41 291.573 257.79 291.873 256.99V255.13H288.003C285.843 255.13 284.763 255.84 284.763 257.26C284.763 257.94 285.033 258.48 285.573 258.88C286.113 259.28 286.863 259.48 287.823 259.48ZM304.006 248.32C305.086 246.64 306.986 245.8 309.706 245.8V249.37C309.386 249.31 309.096 249.28 308.836 249.28C307.376 249.28 306.236 249.71 305.416 250.57C304.596 251.41 304.186 252.63 304.186 254.23V262H300.436V245.98H304.006V248.32ZM78.52 299L74.23 292.85C74.05 292.87 73.78 292.88 73.42 292.88H68.68V299H64.78V278H73.42C75.24 278 76.82 278.3 78.16 278.9C79.52 279.5 80.56 280.36 81.28 281.48C82 282.6 82.36 283.93 82.36 285.47C82.36 287.05 81.97 288.41 81.19 289.55C80.43 290.69 79.33 291.54 77.89 292.1L82.72 299H78.52ZM78.43 285.47C78.43 284.13 77.99 283.1 77.11 282.38C76.23 281.66 74.94 281.3 73.24 281.3H68.68V289.67H73.24C74.94 289.67 76.23 289.31 77.11 288.59C77.99 287.85 78.43 286.81 78.43 285.47ZM95.2433 282.8C96.8033 282.8 98.1933 283.14 99.4133 283.82C100.653 284.5 101.623 285.46 102.323 286.7C103.023 287.94 103.373 289.37 103.373 290.99C103.373 292.61 103.023 294.05 102.323 295.31C101.623 296.55 100.653 297.51 99.4133 298.19C98.1933 298.87 96.8033 299.21 95.2433 299.21C93.0833 299.21 91.3733 298.49 90.1133 297.05V304.82H86.3633V282.98H89.9333V285.08C90.5533 284.32 91.3133 283.75 92.2133 283.37C93.1333 282.99 94.1433 282.8 95.2433 282.8ZM94.8233 296C96.2033 296 97.3333 295.54 98.2133 294.62C99.1133 293.7 99.5633 292.49 99.5633 290.99C99.5633 289.49 99.1133 288.28 98.2133 287.36C97.3333 286.44 96.2033 285.98 94.8233 285.98C93.9233 285.98 93.1133 286.19 92.3933 286.61C91.6733 287.01 91.1033 287.59 90.6833 288.35C90.2633 289.11 90.0533 289.99 90.0533 290.99C90.0533 291.99 90.2633 292.87 90.6833 293.63C91.1033 294.39 91.6733 294.98 92.3933 295.4C93.1133 295.8 93.9233 296 94.8233 296ZM119.41 287.96C120.51 288.46 121.35 289.14 121.93 290C122.53 290.84 122.83 291.83 122.83 292.97C122.83 294.25 122.47 295.37 121.75 296.33C121.05 297.29 120.05 298.03 118.75 298.55C117.45 299.05 115.94 299.3 114.22 299.3C112.5 299.3 110.99 299.05 109.69 298.55C108.41 298.03 107.42 297.29 106.72 296.33C106.02 295.37 105.67 294.25 105.67 292.97C105.67 291.83 105.96 290.84 106.54 290C107.12 289.14 107.95 288.46 109.03 287.96C108.19 287.5 107.54 286.9 107.08 286.16C106.64 285.4 106.42 284.53 106.42 283.55C106.42 282.37 106.74 281.34 107.38 280.46C108.04 279.58 108.96 278.9 110.14 278.42C111.32 277.94 112.68 277.7 114.22 277.7C115.78 277.7 117.15 277.94 118.33 278.42C119.51 278.9 120.43 279.58 121.09 280.46C121.75 281.34 122.08 282.37 122.08 283.55C122.08 284.53 121.85 285.39 121.39 286.13C120.93 286.87 120.27 287.48 119.41 287.96ZM114.22 280.76C113 280.76 112.03 281.02 111.31 281.54C110.61 282.06 110.26 282.79 110.26 283.73C110.26 284.63 110.61 285.35 111.31 285.89C112.03 286.41 113 286.67 114.22 286.67C115.46 286.67 116.44 286.41 117.16 285.89C117.88 285.35 118.24 284.63 118.24 283.73C118.24 282.79 117.87 282.06 117.13 281.54C116.41 281.02 115.44 280.76 114.22 280.76ZM114.22 296.24C115.66 296.24 116.8 295.94 117.64 295.34C118.48 294.74 118.9 293.91 118.9 292.85C118.9 291.81 118.48 290.99 117.64 290.39C116.8 289.79 115.66 289.49 114.22 289.49C112.78 289.49 111.65 289.79 110.83 290.39C110.01 290.99 109.6 291.81 109.6 292.85C109.6 293.91 110.01 294.74 110.83 295.34C111.65 295.94 112.78 296.24 114.22 296.24ZM127.993 299.21C127.313 299.21 126.733 298.98 126.253 298.52C125.773 298.04 125.533 297.44 125.533 296.72C125.533 295.98 125.763 295.38 126.223 294.92C126.703 294.46 127.293 294.23 127.993 294.23C128.693 294.23 129.273 294.46 129.733 294.92C130.213 295.38 130.453 295.98 130.453 296.72C130.453 297.44 130.213 298.04 129.733 298.52C129.253 298.98 128.673 299.21 127.993 299.21ZM141.386 299.3C139.706 299.3 138.206 298.88 136.886 298.04C135.566 297.18 134.526 295.94 133.766 294.32C133.006 292.68 132.626 290.74 132.626 288.5C132.626 286.26 133.006 284.33 133.766 282.71C134.526 281.07 135.566 279.83 136.886 278.99C138.206 278.13 139.706 277.7 141.386 277.7C143.066 277.7 144.566 278.13 145.886 278.99C147.226 279.83 148.276 281.07 149.036 282.71C149.796 284.33 150.176 286.26 150.176 288.5C150.176 290.74 149.796 292.68 149.036 294.32C148.276 295.94 147.226 297.18 145.886 298.04C144.566 298.88 143.066 299.3 141.386 299.3ZM141.386 295.91C142.886 295.91 144.066 295.29 144.926 294.05C145.806 292.81 146.246 290.96 146.246 288.5C146.246 286.04 145.806 284.19 144.926 282.95C144.066 281.71 142.886 281.09 141.386 281.09C139.906 281.09 138.726 281.71 137.846 282.95C136.986 284.19 136.556 286.04 136.556 288.5C136.556 290.96 136.986 292.81 137.846 294.05C138.726 295.29 139.906 295.91 141.386 295.91ZM161.571 299.3C159.891 299.3 158.391 298.88 157.071 298.04C155.751 297.18 154.711 295.94 153.951 294.32C153.191 292.68 152.811 290.74 152.811 288.5C152.811 286.26 153.191 284.33 153.951 282.71C154.711 281.07 155.751 279.83 157.071 278.99C158.391 278.13 159.891 277.7 161.571 277.7C163.251 277.7 164.751 278.13 166.071 278.99C167.411 279.83 168.461 281.07 169.221 282.71C169.981 284.33 170.361 286.26 170.361 288.5C170.361 290.74 169.981 292.68 169.221 294.32C168.461 295.94 167.411 297.18 166.071 298.04C164.751 298.88 163.251 299.3 161.571 299.3ZM161.571 295.91C163.071 295.91 164.251 295.29 165.111 294.05C165.991 292.81 166.431 290.96 166.431 288.5C166.431 286.04 165.991 284.19 165.111 282.95C164.251 281.71 163.071 281.09 161.571 281.09C160.091 281.09 158.911 281.71 158.031 282.95C157.171 284.19 156.741 286.04 156.741 288.5C156.741 290.96 157.171 292.81 158.031 294.05C158.911 295.29 160.091 295.91 161.571 295.91ZM181.757 299.3C180.077 299.3 178.577 298.88 177.257 298.04C175.937 297.18 174.897 295.94 174.137 294.32C173.377 292.68 172.997 290.74 172.997 288.5C172.997 286.26 173.377 284.33 174.137 282.71C174.897 281.07 175.937 279.83 177.257 278.99C178.577 278.13 180.077 277.7 181.757 277.7C183.437 277.7 184.937 278.13 186.257 278.99C187.597 279.83 188.647 281.07 189.407 282.71C190.167 284.33 190.547 286.26 190.547 288.5C190.547 290.74 190.167 292.68 189.407 294.32C188.647 295.94 187.597 297.18 186.257 298.04C184.937 298.88 183.437 299.3 181.757 299.3ZM181.757 295.91C183.257 295.91 184.437 295.29 185.297 294.05C186.177 292.81 186.617 290.96 186.617 288.5C186.617 286.04 186.177 284.19 185.297 282.95C184.437 281.71 183.257 281.09 181.757 281.09C180.277 281.09 179.097 281.71 178.217 282.95C177.357 284.19 176.927 286.04 176.927 288.5C176.927 290.96 177.357 292.81 178.217 294.05C179.097 295.29 180.277 295.91 181.757 295.91ZM195.171 299.21C194.491 299.21 193.911 298.98 193.431 298.52C192.951 298.04 192.711 297.44 192.711 296.72C192.711 295.98 192.941 295.38 193.401 294.92C193.881 294.46 194.471 294.23 195.171 294.23C195.871 294.23 196.451 294.46 196.911 294.92C197.391 295.38 197.631 295.98 197.631 296.72C197.631 297.44 197.391 298.04 196.911 298.52C196.431 298.98 195.851 299.21 195.171 299.21ZM208.563 299.3C206.883 299.3 205.383 298.88 204.063 298.04C202.743 297.18 201.703 295.94 200.943 294.32C200.183 292.68 199.803 290.74 199.803 288.5C199.803 286.26 200.183 284.33 200.943 282.71C201.703 281.07 202.743 279.83 204.063 278.99C205.383 278.13 206.883 277.7 208.563 277.7C210.243 277.7 211.743 278.13 213.063 278.99C214.403 279.83 215.453 281.07 216.213 282.71C216.973 284.33 217.353 286.26 217.353 288.5C217.353 290.74 216.973 292.68 216.213 294.32C215.453 295.94 214.403 297.18 213.063 298.04C211.743 298.88 210.243 299.3 208.563 299.3ZM208.563 295.91C210.063 295.91 211.243 295.29 212.103 294.05C212.983 292.81 213.423 290.96 213.423 288.5C213.423 286.04 212.983 284.19 212.103 282.95C211.243 281.71 210.063 281.09 208.563 281.09C207.083 281.09 205.903 281.71 205.023 282.95C204.163 284.19 203.733 286.04 203.733 288.5C203.733 290.96 204.163 292.81 205.023 294.05C205.903 295.29 207.083 295.91 208.563 295.91ZM228.749 299.3C227.069 299.3 225.569 298.88 224.249 298.04C222.929 297.18 221.889 295.94 221.129 294.32C220.369 292.68 219.989 290.74 219.989 288.5C219.989 286.26 220.369 284.33 221.129 282.71C221.889 281.07 222.929 279.83 224.249 278.99C225.569 278.13 227.069 277.7 228.749 277.7C230.429 277.7 231.929 278.13 233.249 278.99C234.589 279.83 235.639 281.07 236.399 282.71C237.159 284.33 237.539 286.26 237.539 288.5C237.539 290.74 237.159 292.68 236.399 294.32C235.639 295.94 234.589 297.18 233.249 298.04C231.929 298.88 230.429 299.3 228.749 299.3ZM228.749 295.91C230.249 295.91 231.429 295.29 232.289 294.05C233.169 292.81 233.609 290.96 233.609 288.5C233.609 286.04 233.169 284.19 232.289 282.95C231.429 281.71 230.249 281.09 228.749 281.09C227.269 281.09 226.089 281.71 225.209 282.95C224.349 284.19 223.919 286.04 223.919 288.5C223.919 290.96 224.349 292.81 225.209 294.05C226.089 295.29 227.269 295.91 228.749 295.91ZM248.934 299.3C247.254 299.3 245.754 298.88 244.434 298.04C243.114 297.18 242.074 295.94 241.314 294.32C240.554 292.68 240.174 290.74 240.174 288.5C240.174 286.26 240.554 284.33 241.314 282.71C242.074 281.07 243.114 279.83 244.434 278.99C245.754 278.13 247.254 277.7 248.934 277.7C250.614 277.7 252.114 278.13 253.434 278.99C254.774 279.83 255.824 281.07 256.584 282.71C257.344 284.33 257.724 286.26 257.724 288.5C257.724 290.74 257.344 292.68 256.584 294.32C255.824 295.94 254.774 297.18 253.434 298.04C252.114 298.88 250.614 299.3 248.934 299.3ZM248.934 295.91C250.434 295.91 251.614 295.29 252.474 294.05C253.354 292.81 253.794 290.96 253.794 288.5C253.794 286.04 253.354 284.19 252.474 282.95C251.614 281.71 250.434 281.09 248.934 281.09C247.454 281.09 246.274 281.71 245.394 282.95C244.534 284.19 244.104 286.04 244.104 288.5C244.104 290.96 244.534 292.81 245.394 294.05C246.274 295.29 247.454 295.91 248.934 295.91ZM82.7516 373L82.7216 359.08L75.8216 370.6H74.0816L67.1816 359.26V373H63.4616V352H66.6716L75.0116 365.92L83.2016 352H86.4116L86.4416 373H82.7516ZM106.814 365.08C106.814 365.34 106.794 365.71 106.754 366.19H94.1839C94.4039 367.37 94.9739 368.31 95.8939 369.01C96.8339 369.69 97.9939 370.03 99.3739 370.03C101.134 370.03 102.584 369.45 103.724 368.29L105.734 370.6C105.014 371.46 104.104 372.11 103.004 372.55C101.904 372.99 100.664 373.21 99.2839 373.21C97.5239 373.21 95.9739 372.86 94.6339 372.16C93.2939 371.46 92.2539 370.49 91.5139 369.25C90.7939 367.99 90.4339 366.57 90.4339 364.99C90.4339 363.43 90.7839 362.03 91.4839 360.79C92.2039 359.53 93.1939 358.55 94.4539 357.85C95.7139 357.15 97.1339 356.8 98.7139 356.8C100.274 356.8 101.664 357.15 102.884 357.85C104.124 358.53 105.084 359.5 105.764 360.76C106.464 362 106.814 363.44 106.814 365.08ZM98.7139 359.8C97.5139 359.8 96.4939 360.16 95.6539 360.88C94.8339 361.58 94.3339 362.52 94.1539 363.7H103.244C103.084 362.54 102.594 361.6 101.774 360.88C100.954 360.16 99.9339 359.8 98.7139 359.8ZM113.986 359.32C115.066 357.64 116.966 356.8 119.686 356.8V360.37C119.366 360.31 119.076 360.28 118.816 360.28C117.356 360.28 116.216 360.71 115.396 361.57C114.576 362.41 114.166 363.63 114.166 365.23V373H110.416V356.98H113.986V359.32ZM130.071 373.21C128.411 373.21 126.921 372.86 125.601 372.16C124.281 371.46 123.251 370.49 122.511 369.25C121.771 367.99 121.401 366.57 121.401 364.99C121.401 363.41 121.771 362 122.511 360.76C123.251 359.52 124.271 358.55 125.571 357.85C126.891 357.15 128.391 356.8 130.071 356.8C131.651 356.8 133.031 357.12 134.211 357.76C135.411 358.4 136.311 359.32 136.911 360.52L134.031 362.2C133.571 361.46 132.991 360.91 132.291 360.55C131.611 360.17 130.861 359.98 130.041 359.98C128.641 359.98 127.481 360.44 126.561 361.36C125.641 362.26 125.181 363.47 125.181 364.99C125.181 366.51 125.631 367.73 126.531 368.65C127.451 369.55 128.621 370 130.041 370C130.861 370 131.611 369.82 132.291 369.46C132.991 369.08 133.571 368.52 134.031 367.78L136.911 369.46C136.291 370.66 135.381 371.59 134.181 372.25C133.001 372.89 131.631 373.21 130.071 373.21ZM149.096 356.8C151.116 356.8 152.736 357.39 153.956 358.57C155.176 359.75 155.786 361.5 155.786 363.82V373H152.036V364.3C152.036 362.9 151.706 361.85 151.046 361.15C150.386 360.43 149.446 360.07 148.226 360.07C146.846 360.07 145.756 360.49 144.956 361.33C144.156 362.15 143.756 363.34 143.756 364.9V373H140.006V350.74H143.756V358.84C144.376 358.18 145.136 357.68 146.036 357.34C146.956 356.98 147.976 356.8 149.096 356.8ZM166.663 356.8C169.023 356.8 170.823 357.37 172.063 358.51C173.323 359.63 173.953 361.33 173.953 363.61V373H170.413V371.05C169.953 371.75 169.293 372.29 168.433 372.67C167.593 373.03 166.573 373.21 165.373 373.21C164.173 373.21 163.123 373.01 162.223 372.61C161.323 372.19 160.623 371.62 160.123 370.9C159.643 370.16 159.403 369.33 159.403 368.41C159.403 366.97 159.933 365.82 160.993 364.96C162.073 364.08 163.763 363.64 166.063 363.64H170.203V363.4C170.203 362.28 169.863 361.42 169.183 360.82C168.523 360.22 167.533 359.92 166.213 359.92C165.313 359.92 164.423 360.06 163.543 360.34C162.683 360.62 161.953 361.01 161.353 361.51L159.883 358.78C160.723 358.14 161.733 357.65 162.913 357.31C164.093 356.97 165.343 356.8 166.663 356.8ZM166.153 370.48C167.093 370.48 167.923 370.27 168.643 369.85C169.383 369.41 169.903 368.79 170.203 367.99V366.13H166.333C164.173 366.13 163.093 366.84 163.093 368.26C163.093 368.94 163.363 369.48 163.903 369.88C164.443 370.28 165.193 370.48 166.153 370.48ZM187.856 356.8C189.876 356.8 191.496 357.39 192.716 358.57C193.936 359.75 194.546 361.5 194.546 363.82V373H190.796V364.3C190.796 362.9 190.466 361.85 189.806 361.15C189.146 360.43 188.206 360.07 186.986 360.07C185.606 360.07 184.516 360.49 183.716 361.33C182.916 362.15 182.516 363.34 182.516 364.9V373H178.766V356.98H182.336V359.05C182.956 358.31 183.736 357.75 184.676 357.37C185.616 356.99 186.676 356.8 187.856 356.8ZM215.139 350.74V373H211.539V370.93C210.919 371.69 210.149 372.26 209.229 372.64C208.329 373.02 207.329 373.21 206.229 373.21C204.689 373.21 203.299 372.87 202.059 372.19C200.839 371.51 199.879 370.55 199.179 369.31C198.479 368.05 198.129 366.61 198.129 364.99C198.129 363.37 198.479 361.94 199.179 360.7C199.879 359.46 200.839 358.5 202.059 357.82C203.299 357.14 204.689 356.8 206.229 356.8C207.289 356.8 208.259 356.98 209.139 357.34C210.019 357.7 210.769 358.24 211.389 358.96V350.74H215.139ZM206.679 370C207.579 370 208.389 369.8 209.109 369.4C209.829 368.98 210.399 368.39 210.819 367.63C211.239 366.87 211.449 365.99 211.449 364.99C211.449 363.99 211.239 363.11 210.819 362.35C210.399 361.59 209.829 361.01 209.109 360.61C208.389 360.19 207.579 359.98 206.679 359.98C205.779 359.98 204.969 360.19 204.249 360.61C203.529 361.01 202.959 361.59 202.539 362.35C202.119 363.11 201.909 363.99 201.909 364.99C201.909 365.99 202.119 366.87 202.539 367.63C202.959 368.39 203.529 368.98 204.249 369.4C204.969 369.8 205.779 370 206.679 370ZM220.045 356.98H223.795V373H220.045V356.98ZM221.935 354.34C221.255 354.34 220.685 354.13 220.225 353.71C219.765 353.27 219.535 352.73 219.535 352.09C219.535 351.45 219.765 350.92 220.225 350.5C220.685 350.06 221.255 349.84 221.935 349.84C222.615 349.84 223.185 350.05 223.645 350.47C224.105 350.87 224.335 351.38 224.335 352C224.335 352.66 224.105 353.22 223.645 353.68C223.205 354.12 222.635 354.34 221.935 354.34ZM233.667 373.21C232.367 373.21 231.097 373.04 229.857 372.7C228.617 372.36 227.627 371.93 226.887 371.41L228.327 368.56C229.047 369.04 229.907 369.43 230.907 369.73C231.927 370.01 232.927 370.15 233.907 370.15C236.147 370.15 237.267 369.56 237.267 368.38C237.267 367.82 236.977 367.43 236.397 367.21C235.837 366.99 234.927 366.78 233.667 366.58C232.347 366.38 231.267 366.15 230.427 365.89C229.607 365.63 228.887 365.18 228.267 364.54C227.667 363.88 227.367 362.97 227.367 361.81C227.367 360.29 227.997 359.08 229.257 358.18C230.537 357.26 232.257 356.8 234.417 356.8C235.517 356.8 236.617 356.93 237.717 357.19C238.817 357.43 239.717 357.76 240.417 358.18L238.977 361.03C237.617 360.23 236.087 359.83 234.387 359.83C233.287 359.83 232.447 360 231.867 360.34C231.307 360.66 231.027 361.09 231.027 361.63C231.027 362.23 231.327 362.66 231.927 362.92C232.547 363.16 233.497 363.39 234.777 363.61C236.057 363.81 237.107 364.04 237.927 364.3C238.747 364.56 239.447 365 240.027 365.62C240.627 366.24 240.927 367.12 240.927 368.26C240.927 369.76 240.277 370.96 238.977 371.86C237.677 372.76 235.907 373.21 233.667 373.21ZM259.216 365.08C259.216 365.34 259.196 365.71 259.156 366.19H246.586C246.806 367.37 247.376 368.31 248.296 369.01C249.236 369.69 250.396 370.03 251.776 370.03C253.536 370.03 254.986 369.45 256.126 368.29L258.136 370.6C257.416 371.46 256.506 372.11 255.406 372.55C254.306 372.99 253.066 373.21 251.686 373.21C249.926 373.21 248.376 372.86 247.036 372.16C245.696 371.46 244.656 370.49 243.916 369.25C243.196 367.99 242.836 366.57 242.836 364.99C242.836 363.43 243.186 362.03 243.886 360.79C244.606 359.53 245.596 358.55 246.856 357.85C248.116 357.15 249.536 356.8 251.116 356.8C252.676 356.8 254.066 357.15 255.286 357.85C256.526 358.53 257.486 359.5 258.166 360.76C258.866 362 259.216 363.44 259.216 365.08ZM251.116 359.8C249.916 359.8 248.896 360.16 248.056 360.88C247.236 361.58 246.736 362.52 246.556 363.7H255.646C255.486 362.54 254.996 361.6 254.176 360.88C253.356 360.16 252.336 359.8 251.116 359.8ZM97.9208 447.3C96.3008 447.3 94.7308 447.07 93.2108 446.61C91.7108 446.15 90.5208 445.54 89.6408 444.78L90.9908 441.75C91.8508 442.43 92.9008 442.99 94.1408 443.43C95.4008 443.85 96.6608 444.06 97.9208 444.06C99.4808 444.06 100.641 443.81 101.401 443.31C102.181 442.81 102.571 442.15 102.571 441.33C102.571 440.73 102.351 440.24 101.911 439.86C101.491 439.46 100.951 439.15 100.291 438.93C99.6308 438.71 98.7308 438.46 97.5908 438.18C95.9908 437.8 94.6908 437.42 93.6908 437.04C92.7108 436.66 91.8608 436.07 91.1408 435.27C90.4408 434.45 90.0908 433.35 90.0908 431.97C90.0908 430.81 90.4008 429.76 91.0208 428.82C91.6608 427.86 92.6108 427.1 93.8708 426.54C95.1508 425.98 96.7108 425.7 98.5508 425.7C99.8308 425.7 101.091 425.86 102.331 426.18C103.571 426.5 104.641 426.96 105.541 427.56L104.311 430.59C103.391 430.05 102.431 429.64 101.431 429.36C100.431 429.08 99.4608 428.94 98.5208 428.94C96.9808 428.94 95.8308 429.2 95.0708 429.72C94.3308 430.24 93.9608 430.93 93.9608 431.79C93.9608 432.39 94.1708 432.88 94.5908 433.26C95.0308 433.64 95.5808 433.94 96.2408 434.16C96.9008 434.38 97.8008 434.63 98.9408 434.91C100.501 435.27 101.781 435.65 102.781 436.05C103.781 436.43 104.631 437.02 105.331 437.82C106.051 438.62 106.411 439.7 106.411 441.06C106.411 442.22 106.091 443.27 105.451 444.21C104.831 445.15 103.881 445.9 102.601 446.46C101.321 447.02 99.7608 447.3 97.9208 447.3ZM124.978 439.08C124.978 439.34 124.958 439.71 124.918 440.19H112.348C112.568 441.37 113.138 442.31 114.058 443.01C114.998 443.69 116.158 444.03 117.538 444.03C119.298 444.03 120.748 443.45 121.888 442.29L123.898 444.6C123.178 445.46 122.268 446.11 121.168 446.55C120.068 446.99 118.828 447.21 117.448 447.21C115.688 447.21 114.138 446.86 112.798 446.16C111.458 445.46 110.418 444.49 109.678 443.25C108.958 441.99 108.598 440.57 108.598 438.99C108.598 437.43 108.948 436.03 109.648 434.79C110.368 433.53 111.358 432.55 112.618 431.85C113.878 431.15 115.298 430.8 116.878 430.8C118.438 430.8 119.828 431.15 121.048 431.85C122.288 432.53 123.248 433.5 123.928 434.76C124.628 436 124.978 437.44 124.978 439.08ZM116.878 433.8C115.678 433.8 114.658 434.16 113.818 434.88C112.998 435.58 112.498 436.52 112.318 437.7H121.408C121.248 436.54 120.758 435.6 119.938 434.88C119.118 434.16 118.098 433.8 116.878 433.8ZM132.15 433.32C133.23 431.64 135.13 430.8 137.85 430.8V434.37C137.53 434.31 137.24 434.28 136.98 434.28C135.52 434.28 134.38 434.71 133.56 435.57C132.74 436.41 132.33 437.63 132.33 439.23V447H128.58V430.98H132.15V433.32ZM151.247 446.13C150.807 446.49 150.267 446.76 149.627 446.94C149.007 447.12 148.347 447.21 147.647 447.21C145.887 447.21 144.527 446.75 143.567 445.83C142.607 444.91 142.127 443.57 142.127 441.81V434.1H139.487V431.1H142.127V427.44H145.877V431.1H150.167V434.1H145.877V441.72C145.877 442.5 146.067 443.1 146.447 443.52C146.827 443.92 147.377 444.12 148.097 444.12C148.937 444.12 149.637 443.9 150.197 443.46L151.247 446.13ZM154.332 430.98H158.082V447H154.332V430.98ZM156.222 428.34C155.542 428.34 154.972 428.13 154.512 427.71C154.052 427.27 153.822 426.73 153.822 426.09C153.822 425.45 154.052 424.92 154.512 424.5C154.972 424.06 155.542 423.84 156.222 423.84C156.902 423.84 157.472 424.05 157.932 424.47C158.392 424.87 158.622 425.38 158.622 426C158.622 426.66 158.392 427.22 157.932 427.68C157.492 428.12 156.922 428.34 156.222 428.34ZM169.514 427.56C167.934 427.56 167.144 428.42 167.144 430.14V431.1H171.554V434.1H167.264V447H163.514V434.1H160.874V431.1H163.514V430.08C163.514 428.36 164.014 427.01 165.014 426.03C166.014 425.03 167.424 424.53 169.244 424.53C170.684 424.53 171.814 424.82 172.634 425.4L171.584 428.22C170.944 427.78 170.254 427.56 169.514 427.56ZM176.474 430.98H180.224V447H176.474V430.98ZM178.364 428.34C177.684 428.34 177.114 428.13 176.654 427.71C176.194 427.27 175.964 426.73 175.964 426.09C175.964 425.45 176.194 424.92 176.654 424.5C177.114 424.06 177.684 423.84 178.364 423.84C179.044 423.84 179.614 424.05 180.074 424.47C180.534 424.87 180.764 425.38 180.764 426C180.764 426.66 180.534 427.22 180.074 427.68C179.634 428.12 179.064 428.34 178.364 428.34ZM191.692 440.13L188.902 442.77V447H185.152V424.74H188.902V438.18L196.672 430.98H201.172L194.482 437.7L201.802 447H197.242L191.692 440.13ZM210.052 430.8C212.412 430.8 214.212 431.37 215.452 432.51C216.712 433.63 217.342 435.33 217.342 437.61V447H213.802V445.05C213.342 445.75 212.682 446.29 211.822 446.67C210.982 447.03 209.962 447.21 208.762 447.21C207.562 447.21 206.512 447.01 205.612 446.61C204.712 446.19 204.012 445.62 203.512 444.9C203.032 444.16 202.792 443.33 202.792 442.41C202.792 440.97 203.322 439.82 204.382 438.96C205.462 438.08 207.152 437.64 209.452 437.64H213.592V437.4C213.592 436.28 213.252 435.42 212.572 434.82C211.912 434.22 210.922 433.92 209.602 433.92C208.702 433.92 207.812 434.06 206.932 434.34C206.072 434.62 205.342 435.01 204.742 435.51L203.272 432.78C204.112 432.14 205.122 431.65 206.302 431.31C207.482 430.97 208.732 430.8 210.052 430.8ZM209.542 444.48C210.482 444.48 211.312 444.27 212.032 443.85C212.772 443.41 213.292 442.79 213.592 441.99V440.13H209.722C207.562 440.13 206.482 440.84 206.482 442.26C206.482 442.94 206.752 443.48 207.292 443.88C207.832 444.28 208.582 444.48 209.542 444.48ZM231.784 446.13C231.344 446.49 230.804 446.76 230.164 446.94C229.544 447.12 228.884 447.21 228.184 447.21C226.424 447.21 225.064 446.75 224.104 445.83C223.144 444.91 222.664 443.57 222.664 441.81V434.1H220.024V431.1H222.664V427.44H226.414V431.1H230.704V434.1H226.414V441.72C226.414 442.5 226.604 443.1 226.984 443.52C227.364 443.92 227.914 444.12 228.634 444.12C229.474 444.12 230.174 443.9 230.734 443.46L231.784 446.13Z" fill="#FFEFEF"/>
<defs>
<filter id="filter0_i" x="74.2852" y="0" width="175" height="179" filterUnits="userSpaceOnUse" color-interpolation-filters="sRGB">
<feFlood flood-opacity="0" result="BackgroundImageFix"/>
<feBlend mode="normal" in="SourceGraphic" in2="BackgroundImageFix" result="shape"/>
<feColorMatrix in="SourceAlpha" type="matrix" values="0 0 0 0 0 0 0 0 0 0 0 0 0 0 0 0 0 0 127 0" result="hardAlpha"/>
<feOffset dy="4"/>
<feGaussianBlur stdDeviation="2"/>
<feComposite in2="hardAlpha" operator="arithmetic" k2="-1" k3="1"/>
<feColorMatrix type="matrix" values="0 0 0 0 0 0 0 0 0 0 0 0 0 0 0 0 0 0 0.25 0"/>
<feBlend mode="normal" in2="shape" result="effect1_innerShadow"/>
</filter>
<filter id="filter1_i" x="74.2852" y="0" width="175" height="179" filterUnits="userSpaceOnUse" color-interpolation-filters="sRGB">
<feFlood flood-opacity="0" result="BackgroundImageFix"/>
<feBlend mode="normal" in="SourceGraphic" in2="BackgroundImageFix" result="shape"/>
<feColorMatrix in="SourceAlpha" type="matrix" values="0 0 0 0 0 0 0 0 0 0 0 0 0 0 0 0 0 0 127 0" result="hardAlpha"/>
<feOffset dy="4"/>
<feGaussianBlur stdDeviation="2"/>
<feComposite in2="hardAlpha" operator="arithmetic" k2="-1" k3="1"/>
<feColorMatrix type="matrix" values="0 0 0 0 0 0 0 0 0 0 0 0 0 0 0 0 0 0 0.25 0"/>
<feBlend mode="normal" in2="shape" result="effect1_innerShadow"/>
</filter>
<filter id="filter2_i" x="98.2202" y="62.5122" width="121.991" height="52" filterUnits="userSpaceOnUse" color-interpolation-filters="sRGB">
<feFlood flood-opacity="0" result="BackgroundImageFix"/>
<feBlend mode="normal" in="SourceGraphic" in2="BackgroundImageFix" result="shape"/>
<feColorMatrix in="SourceAlpha" type="matrix" values="0 0 0 0 0 0 0 0 0 0 0 0 0 0 0 0 0 0 127 0" result="hardAlpha"/>
<feOffset dy="4"/>
<feGaussianBlur stdDeviation="2"/>
<feComposite in2="hardAlpha" operator="arithmetic" k2="-1" k3="1"/>
<feColorMatrix type="matrix" values="0 0 0 0 0 0 0 0 0 0 0 0 0 0 0 0 0 0 0.25 0"/>
<feBlend mode="normal" in2="shape" result="effect1_innerShadow"/>
</filter>
</defs>
</svg>
