<svg width="324" height="531" viewBox="0 0 324 531" fill="none" xmlns="http://www.w3.org/2000/svg">
<rect y="531" width="415" height="323.571" rx="85" transform="rotate(-90 0 531)" fill="#3787D0"/>
<g filter="url(#filter0_i)">
<g filter="url(#filter1_i)">
<circle cx="161.07" cy="87.5" r="87.5" transform="rotate(-90 161.07 87.5)" fill="#E0473F"/>
</g>
</g>
<g filter="url(#filter2_i)">
<path d="M130.83 86.44C134.756 87.08 137.764 88.552 139.854 90.856C141.945 93.1173 142.99 95.9333 142.99 99.304C142.99 101.907 142.308 104.317 140.942 106.536C139.577 108.712 137.486 110.461 134.67 111.784C131.897 113.107 128.484 113.768 124.43 113.768C121.273 113.768 118.158 113.363 115.086 112.552C112.057 111.699 109.476 110.504 107.342 108.968L111.374 101.032C113.081 102.312 115.044 103.315 117.262 104.04C119.524 104.723 121.828 105.064 124.174 105.064C126.777 105.064 128.825 104.573 130.318 103.592C131.812 102.568 132.558 101.139 132.558 99.304C132.558 95.6347 129.764 93.8 124.174 93.8H119.438V86.952L128.654 76.52H109.582V68.2H140.942V74.92L130.83 86.44ZM159.425 83.112C160.62 81.448 162.22 80.1893 164.225 79.336C166.273 78.4827 168.62 78.056 171.265 78.056V87.272C170.156 87.1867 169.409 87.144 169.025 87.144C166.167 87.144 163.927 87.9547 162.305 89.576C160.684 91.1547 159.873 93.544 159.873 96.744V113H149.889V78.568H159.425V83.112ZM211.961 65.512V113H202.425V109.032C199.951 112.019 196.367 113.512 191.673 113.512C188.431 113.512 185.487 112.787 182.841 111.336C180.239 109.885 178.191 107.816 176.697 105.128C175.204 102.44 174.457 99.3253 174.457 95.784C174.457 92.2427 175.204 89.128 176.697 86.44C178.191 83.752 180.239 81.6827 182.841 80.232C185.487 78.7813 188.431 78.056 191.673 78.056C196.068 78.056 199.503 79.4427 201.977 82.216V65.512H211.961ZM193.401 105.32C195.919 105.32 198.009 104.467 199.673 102.76C201.337 101.011 202.169 98.6853 202.169 95.784C202.169 92.8827 201.337 90.5787 199.673 88.872C198.009 87.1227 195.919 86.248 193.401 86.248C190.841 86.248 188.729 87.1227 187.065 88.872C185.401 90.5787 184.569 92.8827 184.569 95.784C184.569 98.6853 185.401 101.011 187.065 102.76C188.729 104.467 190.841 105.32 193.401 105.32Z" fill="#FFEFEF"/>
</g>
<path d="M22.2768 265.3C19.3768 265.3 17.1168 264.49 15.4968 262.87C13.8768 261.23 13.0668 258.89 13.0668 255.85V244H16.9668V255.7C16.9668 259.82 18.7468 261.88 22.3068 261.88C25.8468 261.88 27.6168 259.82 27.6168 255.7V244H31.4568V255.85C31.4568 258.89 30.6468 261.23 29.0268 262.87C27.4268 264.49 25.1768 265.3 22.2768 265.3ZM42.6786 248.8C45.0386 248.8 46.8386 249.37 48.0786 250.51C49.3386 251.63 49.9686 253.33 49.9686 255.61V265H46.4286V263.05C45.9686 263.75 45.3086 264.29 44.4486 264.67C43.6086 265.03 42.5886 265.21 41.3886 265.21C40.1886 265.21 39.1386 265.01 38.2386 264.61C37.3386 264.19 36.6386 263.62 36.1386 262.9C35.6586 262.16 35.4186 261.33 35.4186 260.41C35.4186 258.97 35.9486 257.82 37.0086 256.96C38.0886 256.08 39.7786 255.64 42.0786 255.64H46.2186V255.4C46.2186 254.28 45.8786 253.42 45.1986 252.82C44.5386 252.22 43.5486 251.92 42.2286 251.92C41.3286 251.92 40.4386 252.06 39.5586 252.34C38.6986 252.62 37.9686 253.01 37.3686 253.51L35.8986 250.78C36.7386 250.14 37.7486 249.65 38.9286 249.31C40.1086 248.97 41.3586 248.8 42.6786 248.8ZM42.1686 262.48C43.1086 262.48 43.9386 262.27 44.6586 261.85C45.3986 261.41 45.9186 260.79 46.2186 259.99V258.13H42.3486C40.1886 258.13 39.1086 258.84 39.1086 260.26C39.1086 260.94 39.3786 261.48 39.9186 261.88C40.4586 262.28 41.2086 262.48 42.1686 262.48ZM63.8713 248.8C65.8913 248.8 67.5113 249.39 68.7313 250.57C69.9513 251.75 70.5613 253.5 70.5613 255.82V265H66.8113V256.3C66.8113 254.9 66.4813 253.85 65.8213 253.15C65.1613 252.43 64.2213 252.07 63.0013 252.07C61.6213 252.07 60.5313 252.49 59.7313 253.33C58.9313 254.15 58.5313 255.34 58.5313 256.9V265H54.7813V248.98H58.3513V251.05C58.9713 250.31 59.7513 249.75 60.6913 249.37C61.6313 248.99 62.6913 248.8 63.8713 248.8ZM91.3649 248.98V262.57C91.3649 268.21 88.4849 271.03 82.7249 271.03C81.1849 271.03 79.7249 270.83 78.3449 270.43C76.9649 270.05 75.8249 269.49 74.9249 268.75L76.6049 265.93C77.3049 266.51 78.1849 266.97 79.2449 267.31C80.3249 267.67 81.4149 267.85 82.5149 267.85C84.2749 267.85 85.5649 267.45 86.3849 266.65C87.2049 265.85 87.6149 264.63 87.6149 262.99V262.15C86.9749 262.85 86.1949 263.38 85.2749 263.74C84.3549 264.1 83.3449 264.28 82.2449 264.28C80.7249 264.28 79.3449 263.96 78.1049 263.32C76.8849 262.66 75.9149 261.74 75.1949 260.56C74.4949 259.38 74.1449 258.03 74.1449 256.51C74.1449 254.99 74.4949 253.65 75.1949 252.49C75.9149 251.31 76.8849 250.4 78.1049 249.76C79.3449 249.12 80.7249 248.8 82.2449 248.8C83.4049 248.8 84.4549 248.99 85.3949 249.37C86.3549 249.75 87.1549 250.33 87.7949 251.11V248.98H91.3649ZM82.8149 261.1C84.2349 261.1 85.3949 260.68 86.2949 259.84C87.2149 258.98 87.6749 257.87 87.6749 256.51C87.6749 255.17 87.2149 254.08 86.2949 253.24C85.3949 252.4 84.2349 251.98 82.8149 251.98C81.3749 251.98 80.1949 252.4 79.2749 253.24C78.3749 254.08 77.9249 255.17 77.9249 256.51C77.9249 257.87 78.3749 258.98 79.2749 259.84C80.1949 260.68 81.3749 261.1 82.8149 261.1ZM114.216 264.13C113.776 264.49 113.236 264.76 112.596 264.94C111.976 265.12 111.316 265.21 110.616 265.21C108.856 265.21 107.496 264.75 106.536 263.83C105.576 262.91 105.096 261.57 105.096 259.81V252.1H102.456V249.1H105.096V245.44H108.846V249.1H113.136V252.1H108.846V259.72C108.846 260.5 109.036 261.1 109.416 261.52C109.796 261.92 110.346 262.12 111.066 262.12C111.906 262.12 112.606 261.9 113.166 261.46L114.216 264.13ZM132.811 248.98V265H129.241V262.96C128.641 263.68 127.891 264.24 126.991 264.64C126.091 265.02 125.121 265.21 124.081 265.21C121.941 265.21 120.251 264.62 119.011 263.44C117.791 262.24 117.181 260.47 117.181 258.13V248.98H120.931V257.62C120.931 259.06 121.251 260.14 121.891 260.86C122.551 261.56 123.481 261.91 124.681 261.91C126.021 261.91 127.081 261.5 127.861 260.68C128.661 259.84 129.061 258.64 129.061 257.08V248.98H132.811ZM146.811 248.8C148.831 248.8 150.451 249.39 151.671 250.57C152.891 251.75 153.501 253.5 153.501 255.82V265H149.751V256.3C149.751 254.9 149.421 253.85 148.761 253.15C148.101 252.43 147.161 252.07 145.941 252.07C144.561 252.07 143.471 252.49 142.671 253.33C141.871 254.15 141.471 255.34 141.471 256.9V265H137.721V248.98H141.291V251.05C141.911 250.31 142.691 249.75 143.631 249.37C144.571 248.99 145.631 248.8 146.811 248.8ZM164.378 248.8C166.738 248.8 168.538 249.37 169.778 250.51C171.038 251.63 171.668 253.33 171.668 255.61V265H168.128V263.05C167.668 263.75 167.008 264.29 166.148 264.67C165.308 265.03 164.288 265.21 163.088 265.21C161.888 265.21 160.838 265.01 159.938 264.61C159.038 264.19 158.338 263.62 157.838 262.9C157.358 262.16 157.118 261.33 157.118 260.41C157.118 258.97 157.648 257.82 158.708 256.96C159.788 256.08 161.478 255.64 163.778 255.64H167.918V255.4C167.918 254.28 167.578 253.42 166.898 252.82C166.238 252.22 165.248 251.92 163.928 251.92C163.028 251.92 162.138 252.06 161.258 252.34C160.398 252.62 159.668 253.01 159.068 253.51L157.598 250.78C158.438 250.14 159.448 249.65 160.628 249.31C161.808 248.97 163.058 248.8 164.378 248.8ZM163.868 262.48C164.808 262.48 165.638 262.27 166.358 261.85C167.098 261.41 167.618 260.79 167.918 259.99V258.13H164.048C161.888 258.13 160.808 258.84 160.808 260.26C160.808 260.94 161.078 261.48 161.618 261.88C162.158 262.28 162.908 262.48 163.868 262.48ZM176.481 248.98H180.231V265H176.481V248.98ZM178.371 246.34C177.691 246.34 177.121 246.13 176.661 245.71C176.201 245.27 175.971 244.73 175.971 244.09C175.971 243.45 176.201 242.92 176.661 242.5C177.121 242.06 177.691 241.84 178.371 241.84C179.051 241.84 179.621 242.05 180.081 242.47C180.541 242.87 180.771 243.38 180.771 244C180.771 244.66 180.541 245.22 180.081 245.68C179.641 246.12 179.071 246.34 178.371 246.34ZM198.393 265.21C197.093 265.21 195.823 265.04 194.583 264.7C193.343 264.36 192.353 263.93 191.613 263.41L193.053 260.56C193.773 261.04 194.633 261.43 195.633 261.73C196.653 262.01 197.653 262.15 198.633 262.15C200.873 262.15 201.993 261.56 201.993 260.38C201.993 259.82 201.703 259.43 201.123 259.21C200.563 258.99 199.653 258.78 198.393 258.58C197.073 258.38 195.993 258.15 195.153 257.89C194.333 257.63 193.613 257.18 192.993 256.54C192.393 255.88 192.093 254.97 192.093 253.81C192.093 252.29 192.723 251.08 193.983 250.18C195.263 249.26 196.983 248.8 199.143 248.8C200.243 248.8 201.343 248.93 202.443 249.19C203.543 249.43 204.443 249.76 205.143 250.18L203.703 253.03C202.343 252.23 200.813 251.83 199.113 251.83C198.013 251.83 197.173 252 196.593 252.34C196.033 252.66 195.753 253.09 195.753 253.63C195.753 254.23 196.053 254.66 196.653 254.92C197.273 255.16 198.223 255.39 199.503 255.61C200.783 255.81 201.833 256.04 202.653 256.3C203.473 256.56 204.173 257 204.753 257.62C205.353 258.24 205.653 259.12 205.653 260.26C205.653 261.76 205.003 262.96 203.703 263.86C202.403 264.76 200.633 265.21 198.393 265.21ZM223.943 257.08C223.943 257.34 223.923 257.71 223.883 258.19H211.313C211.533 259.37 212.103 260.31 213.023 261.01C213.963 261.69 215.123 262.03 216.503 262.03C218.263 262.03 219.713 261.45 220.853 260.29L222.863 262.6C222.143 263.46 221.233 264.11 220.133 264.55C219.033 264.99 217.793 265.21 216.413 265.21C214.653 265.21 213.103 264.86 211.763 264.16C210.423 263.46 209.383 262.49 208.643 261.25C207.923 259.99 207.563 258.57 207.563 256.99C207.563 255.43 207.913 254.03 208.613 252.79C209.333 251.53 210.323 250.55 211.583 249.85C212.843 249.15 214.263 248.8 215.843 248.8C217.403 248.8 218.793 249.15 220.013 249.85C221.253 250.53 222.213 251.5 222.893 252.76C223.593 254 223.943 255.44 223.943 257.08ZM215.843 251.8C214.643 251.8 213.623 252.16 212.783 252.88C211.963 253.58 211.463 254.52 211.283 255.7H220.373C220.213 254.54 219.723 253.6 218.903 252.88C218.083 252.16 217.063 251.8 215.843 251.8ZM236.425 248.8C237.985 248.8 239.375 249.14 240.595 249.82C241.835 250.5 242.805 251.46 243.505 252.7C244.205 253.94 244.555 255.37 244.555 256.99C244.555 258.61 244.205 260.05 243.505 261.31C242.805 262.55 241.835 263.51 240.595 264.19C239.375 264.87 237.985 265.21 236.425 265.21C235.325 265.21 234.315 265.02 233.395 264.64C232.495 264.26 231.735 263.69 231.115 262.93V265H227.545V242.74H231.295V250.93C231.935 250.23 232.685 249.7 233.545 249.34C234.425 248.98 235.385 248.8 236.425 248.8ZM236.005 262C237.385 262 238.515 261.54 239.395 260.62C240.295 259.7 240.745 258.49 240.745 256.99C240.745 255.49 240.295 254.28 239.395 253.36C238.515 252.44 237.385 251.98 236.005 251.98C235.105 251.98 234.295 252.19 233.575 252.61C232.855 253.01 232.285 253.59 231.865 254.35C231.445 255.11 231.235 255.99 231.235 256.99C231.235 257.99 231.445 258.87 231.865 259.63C232.285 260.39 232.855 260.98 233.575 261.4C234.295 261.8 235.105 262 236.005 262ZM263.171 257.08C263.171 257.34 263.151 257.71 263.111 258.19H250.541C250.761 259.37 251.331 260.31 252.251 261.01C253.191 261.69 254.351 262.03 255.731 262.03C257.491 262.03 258.941 261.45 260.081 260.29L262.091 262.6C261.371 263.46 260.461 264.11 259.361 264.55C258.261 264.99 257.021 265.21 255.641 265.21C253.881 265.21 252.331 264.86 250.991 264.16C249.651 263.46 248.611 262.49 247.871 261.25C247.151 259.99 246.791 258.57 246.791 256.99C246.791 255.43 247.141 254.03 247.841 252.79C248.561 251.53 249.551 250.55 250.811 249.85C252.071 249.15 253.491 248.8 255.071 248.8C256.631 248.8 258.021 249.15 259.241 249.85C260.481 250.53 261.441 251.5 262.121 252.76C262.821 254 263.171 255.44 263.171 257.08ZM255.071 251.8C253.871 251.8 252.851 252.16 252.011 252.88C251.191 253.58 250.691 254.52 250.511 255.7H259.601C259.441 254.54 258.951 253.6 258.131 252.88C257.311 252.16 256.291 251.8 255.071 251.8ZM271.723 265.21C270.423 265.21 269.153 265.04 267.913 264.7C266.673 264.36 265.683 263.93 264.943 263.41L266.383 260.56C267.103 261.04 267.963 261.43 268.963 261.73C269.983 262.01 270.983 262.15 271.963 262.15C274.203 262.15 275.323 261.56 275.323 260.38C275.323 259.82 275.033 259.43 274.453 259.21C273.893 258.99 272.983 258.78 271.723 258.58C270.403 258.38 269.323 258.15 268.483 257.89C267.663 257.63 266.943 257.18 266.323 256.54C265.723 255.88 265.423 254.97 265.423 253.81C265.423 252.29 266.053 251.08 267.313 250.18C268.593 249.26 270.313 248.8 272.473 248.8C273.573 248.8 274.673 248.93 275.773 249.19C276.873 249.43 277.773 249.76 278.473 250.18L277.033 253.03C275.673 252.23 274.143 251.83 272.443 251.83C271.343 251.83 270.503 252 269.923 252.34C269.363 252.66 269.083 253.09 269.083 253.63C269.083 254.23 269.383 254.66 269.983 254.92C270.603 255.16 271.553 255.39 272.833 255.61C274.113 255.81 275.163 256.04 275.983 256.3C276.803 256.56 277.503 257 278.083 257.62C278.683 258.24 278.983 259.12 278.983 260.26C278.983 261.76 278.333 262.96 277.033 263.86C275.733 264.76 273.963 265.21 271.723 265.21ZM288.333 248.8C290.693 248.8 292.493 249.37 293.733 250.51C294.993 251.63 295.623 253.33 295.623 255.61V265H292.083V263.05C291.623 263.75 290.963 264.29 290.103 264.67C289.263 265.03 288.243 265.21 287.043 265.21C285.843 265.21 284.793 265.01 283.893 264.61C282.993 264.19 282.293 263.62 281.793 262.9C281.313 262.16 281.073 261.33 281.073 260.41C281.073 258.97 281.603 257.82 282.663 256.96C283.743 256.08 285.433 255.64 287.733 255.64H291.873V255.4C291.873 254.28 291.533 253.42 290.853 252.82C290.193 252.22 289.203 251.92 287.883 251.92C286.983 251.92 286.093 252.06 285.213 252.34C284.353 252.62 283.623 253.01 283.023 253.51L281.553 250.78C282.393 250.14 283.403 249.65 284.583 249.31C285.763 248.97 287.013 248.8 288.333 248.8ZM287.823 262.48C288.763 262.48 289.593 262.27 290.313 261.85C291.053 261.41 291.573 260.79 291.873 259.99V258.13H288.003C285.843 258.13 284.763 258.84 284.763 260.26C284.763 260.94 285.033 261.48 285.573 261.88C286.113 262.28 286.863 262.48 287.823 262.48ZM304.006 251.32C305.086 249.64 306.986 248.8 309.706 248.8V252.37C309.386 252.31 309.096 252.28 308.836 252.28C307.376 252.28 306.236 252.71 305.416 253.57C304.596 254.41 304.186 255.63 304.186 257.23V265H300.436V248.98H304.006V251.32ZM79.6918 302L75.4018 295.85C75.2218 295.87 74.9518 295.88 74.5918 295.88H69.8518V302H65.9518V281H74.5918C76.4118 281 77.9918 281.3 79.3318 281.9C80.6918 282.5 81.7318 283.36 82.4518 284.48C83.1718 285.6 83.5318 286.93 83.5318 288.47C83.5318 290.05 83.1418 291.41 82.3618 292.55C81.6018 293.69 80.5018 294.54 79.0618 295.1L83.8918 302H79.6918ZM79.6018 288.47C79.6018 287.13 79.1618 286.1 78.2818 285.38C77.4018 284.66 76.1118 284.3 74.4118 284.3H69.8518V292.67H74.4118C76.1118 292.67 77.4018 292.31 78.2818 291.59C79.1618 290.85 79.6018 289.81 79.6018 288.47ZM96.4152 285.8C97.9752 285.8 99.3652 286.14 100.585 286.82C101.825 287.5 102.795 288.46 103.495 289.7C104.195 290.94 104.545 292.37 104.545 293.99C104.545 295.61 104.195 297.05 103.495 298.31C102.795 299.55 101.825 300.51 100.585 301.19C99.3652 301.87 97.9752 302.21 96.4152 302.21C94.2552 302.21 92.5452 301.49 91.2852 300.05V307.82H87.5352V285.98H91.1052V288.08C91.7252 287.32 92.4852 286.75 93.3852 286.37C94.3052 285.99 95.3152 285.8 96.4152 285.8ZM95.9952 299C97.3752 299 98.5052 298.54 99.3852 297.62C100.285 296.7 100.735 295.49 100.735 293.99C100.735 292.49 100.285 291.28 99.3852 290.36C98.5052 289.44 97.3752 288.98 95.9952 288.98C95.0952 288.98 94.2852 289.19 93.5652 289.61C92.8452 290.01 92.2752 290.59 91.8552 291.35C91.4352 292.11 91.2252 292.99 91.2252 293.99C91.2252 294.99 91.4352 295.87 91.8552 296.63C92.2752 297.39 92.8452 297.98 93.5652 298.4C94.2852 298.8 95.0952 299 95.9952 299ZM113.532 289.13C116.492 289.13 118.682 289.71 120.102 290.87C121.522 292.01 122.232 293.57 122.232 295.55C122.232 296.81 121.922 297.95 121.302 298.97C120.682 299.99 119.752 300.8 118.512 301.4C117.272 302 115.742 302.3 113.922 302.3C112.422 302.3 110.972 302.09 109.572 301.67C108.172 301.23 106.992 300.63 106.032 299.87L107.682 296.84C108.462 297.48 109.392 297.99 110.472 298.37C111.572 298.73 112.702 298.91 113.862 298.91C115.242 298.91 116.322 298.63 117.102 298.07C117.902 297.49 118.302 296.7 118.302 295.7C118.302 294.62 117.872 293.81 117.012 293.27C116.172 292.71 114.722 292.43 112.662 292.43H107.592L108.672 281H121.002V284.27H111.972L111.522 289.13H113.532ZM126.821 302.21C126.141 302.21 125.561 301.98 125.081 301.52C124.601 301.04 124.361 300.44 124.361 299.72C124.361 298.98 124.591 298.38 125.051 297.92C125.531 297.46 126.121 297.23 126.821 297.23C127.521 297.23 128.101 297.46 128.561 297.92C129.041 298.38 129.281 298.98 129.281 299.72C129.281 300.44 129.041 301.04 128.561 301.52C128.081 301.98 127.501 302.21 126.821 302.21ZM140.214 302.3C138.534 302.3 137.034 301.88 135.714 301.04C134.394 300.18 133.354 298.94 132.594 297.32C131.834 295.68 131.454 293.74 131.454 291.5C131.454 289.26 131.834 287.33 132.594 285.71C133.354 284.07 134.394 282.83 135.714 281.99C137.034 281.13 138.534 280.7 140.214 280.7C141.894 280.7 143.394 281.13 144.714 281.99C146.054 282.83 147.104 284.07 147.864 285.71C148.624 287.33 149.004 289.26 149.004 291.5C149.004 293.74 148.624 295.68 147.864 297.32C147.104 298.94 146.054 300.18 144.714 301.04C143.394 301.88 141.894 302.3 140.214 302.3ZM140.214 298.91C141.714 298.91 142.894 298.29 143.754 297.05C144.634 295.81 145.074 293.96 145.074 291.5C145.074 289.04 144.634 287.19 143.754 285.95C142.894 284.71 141.714 284.09 140.214 284.09C138.734 284.09 137.554 284.71 136.674 285.95C135.814 287.19 135.384 289.04 135.384 291.5C135.384 293.96 135.814 295.81 136.674 297.05C137.554 298.29 138.734 298.91 140.214 298.91ZM160.399 302.3C158.719 302.3 157.219 301.88 155.899 301.04C154.579 300.18 153.539 298.94 152.779 297.32C152.019 295.68 151.639 293.74 151.639 291.5C151.639 289.26 152.019 287.33 152.779 285.71C153.539 284.07 154.579 282.83 155.899 281.99C157.219 281.13 158.719 280.7 160.399 280.7C162.079 280.7 163.579 281.13 164.899 281.99C166.239 282.83 167.289 284.07 168.049 285.71C168.809 287.33 169.189 289.26 169.189 291.5C169.189 293.74 168.809 295.68 168.049 297.32C167.289 298.94 166.239 300.18 164.899 301.04C163.579 301.88 162.079 302.3 160.399 302.3ZM160.399 298.91C161.899 298.91 163.079 298.29 163.939 297.05C164.819 295.81 165.259 293.96 165.259 291.5C165.259 289.04 164.819 287.19 163.939 285.95C163.079 284.71 161.899 284.09 160.399 284.09C158.919 284.09 157.739 284.71 156.859 285.95C155.999 287.19 155.569 289.04 155.569 291.5C155.569 293.96 155.999 295.81 156.859 297.05C157.739 298.29 158.919 298.91 160.399 298.91ZM180.585 302.3C178.905 302.3 177.405 301.88 176.085 301.04C174.765 300.18 173.725 298.94 172.965 297.32C172.205 295.68 171.825 293.74 171.825 291.5C171.825 289.26 172.205 287.33 172.965 285.71C173.725 284.07 174.765 282.83 176.085 281.99C177.405 281.13 178.905 280.7 180.585 280.7C182.265 280.7 183.765 281.13 185.085 281.99C186.425 282.83 187.475 284.07 188.235 285.71C188.995 287.33 189.375 289.26 189.375 291.5C189.375 293.74 188.995 295.68 188.235 297.32C187.475 298.94 186.425 300.18 185.085 301.04C183.765 301.88 182.265 302.3 180.585 302.3ZM180.585 298.91C182.085 298.91 183.265 298.29 184.125 297.05C185.005 295.81 185.445 293.96 185.445 291.5C185.445 289.04 185.005 287.19 184.125 285.95C183.265 284.71 182.085 284.09 180.585 284.09C179.105 284.09 177.925 284.71 177.045 285.95C176.185 287.19 175.755 289.04 175.755 291.5C175.755 293.96 176.185 295.81 177.045 297.05C177.925 298.29 179.105 298.91 180.585 298.91ZM193.999 302.21C193.319 302.21 192.739 301.98 192.259 301.52C191.779 301.04 191.539 300.44 191.539 299.72C191.539 298.98 191.769 298.38 192.229 297.92C192.709 297.46 193.299 297.23 193.999 297.23C194.699 297.23 195.279 297.46 195.739 297.92C196.219 298.38 196.459 298.98 196.459 299.72C196.459 300.44 196.219 301.04 195.739 301.52C195.259 301.98 194.679 302.21 193.999 302.21ZM207.392 302.3C205.712 302.3 204.212 301.88 202.892 301.04C201.572 300.18 200.532 298.94 199.772 297.32C199.012 295.68 198.632 293.74 198.632 291.5C198.632 289.26 199.012 287.33 199.772 285.71C200.532 284.07 201.572 282.83 202.892 281.99C204.212 281.13 205.712 280.7 207.392 280.7C209.072 280.7 210.572 281.13 211.892 281.99C213.232 282.83 214.282 284.07 215.042 285.71C215.802 287.33 216.182 289.26 216.182 291.5C216.182 293.74 215.802 295.68 215.042 297.32C214.282 298.94 213.232 300.18 211.892 301.04C210.572 301.88 209.072 302.3 207.392 302.3ZM207.392 298.91C208.892 298.91 210.072 298.29 210.932 297.05C211.812 295.81 212.252 293.96 212.252 291.5C212.252 289.04 211.812 287.19 210.932 285.95C210.072 284.71 208.892 284.09 207.392 284.09C205.912 284.09 204.732 284.71 203.852 285.95C202.992 287.19 202.562 289.04 202.562 291.5C202.562 293.96 202.992 295.81 203.852 297.05C204.732 298.29 205.912 298.91 207.392 298.91ZM227.577 302.3C225.897 302.3 224.397 301.88 223.077 301.04C221.757 300.18 220.717 298.94 219.957 297.32C219.197 295.68 218.817 293.74 218.817 291.5C218.817 289.26 219.197 287.33 219.957 285.71C220.717 284.07 221.757 282.83 223.077 281.99C224.397 281.13 225.897 280.7 227.577 280.7C229.257 280.7 230.757 281.13 232.077 281.99C233.417 282.83 234.467 284.07 235.227 285.71C235.987 287.33 236.367 289.26 236.367 291.5C236.367 293.74 235.987 295.68 235.227 297.32C234.467 298.94 233.417 300.18 232.077 301.04C230.757 301.88 229.257 302.3 227.577 302.3ZM227.577 298.91C229.077 298.91 230.257 298.29 231.117 297.05C231.997 295.81 232.437 293.96 232.437 291.5C232.437 289.04 231.997 287.19 231.117 285.95C230.257 284.71 229.077 284.09 227.577 284.09C226.097 284.09 224.917 284.71 224.037 285.95C223.177 287.19 222.747 289.04 222.747 291.5C222.747 293.96 223.177 295.81 224.037 297.05C224.917 298.29 226.097 298.91 227.577 298.91ZM247.763 302.3C246.083 302.3 244.583 301.88 243.263 301.04C241.943 300.18 240.903 298.94 240.143 297.32C239.383 295.68 239.003 293.74 239.003 291.5C239.003 289.26 239.383 287.33 240.143 285.71C240.903 284.07 241.943 282.83 243.263 281.99C244.583 281.13 246.083 280.7 247.763 280.7C249.443 280.7 250.943 281.13 252.263 281.99C253.603 282.83 254.653 284.07 255.413 285.71C256.173 287.33 256.553 289.26 256.553 291.5C256.553 293.74 256.173 295.68 255.413 297.32C254.653 298.94 253.603 300.18 252.263 301.04C250.943 301.88 249.443 302.3 247.763 302.3ZM247.763 298.91C249.263 298.91 250.443 298.29 251.303 297.05C252.183 295.81 252.623 293.96 252.623 291.5C252.623 289.04 252.183 287.19 251.303 285.95C250.443 284.71 249.263 284.09 247.763 284.09C246.283 284.09 245.103 284.71 244.223 285.95C243.363 287.19 242.933 289.04 242.933 291.5C242.933 293.96 243.363 295.81 244.223 297.05C245.103 298.29 246.283 298.91 247.763 298.91ZM82.7516 376L82.7216 362.08L75.8216 373.6H74.0816L67.1816 362.26V376H63.4616V355H66.6716L75.0116 368.92L83.2016 355H86.4116L86.4416 376H82.7516ZM106.814 368.08C106.814 368.34 106.794 368.71 106.754 369.19H94.1839C94.4039 370.37 94.9739 371.31 95.8939 372.01C96.8339 372.69 97.9939 373.03 99.3739 373.03C101.134 373.03 102.584 372.45 103.724 371.29L105.734 373.6C105.014 374.46 104.104 375.11 103.004 375.55C101.904 375.99 100.664 376.21 99.2839 376.21C97.5239 376.21 95.9739 375.86 94.6339 375.16C93.2939 374.46 92.2539 373.49 91.5139 372.25C90.7939 370.99 90.4339 369.57 90.4339 367.99C90.4339 366.43 90.7839 365.03 91.4839 363.79C92.2039 362.53 93.1939 361.55 94.4539 360.85C95.7139 360.15 97.1339 359.8 98.7139 359.8C100.274 359.8 101.664 360.15 102.884 360.85C104.124 361.53 105.084 362.5 105.764 363.76C106.464 365 106.814 366.44 106.814 368.08ZM98.7139 362.8C97.5139 362.8 96.4939 363.16 95.6539 363.88C94.8339 364.58 94.3339 365.52 94.1539 366.7H103.244C103.084 365.54 102.594 364.6 101.774 363.88C100.954 363.16 99.9339 362.8 98.7139 362.8ZM113.986 362.32C115.066 360.64 116.966 359.8 119.686 359.8V363.37C119.366 363.31 119.076 363.28 118.816 363.28C117.356 363.28 116.216 363.71 115.396 364.57C114.576 365.41 114.166 366.63 114.166 368.23V376H110.416V359.98H113.986V362.32ZM130.071 376.21C128.411 376.21 126.921 375.86 125.601 375.16C124.281 374.46 123.251 373.49 122.511 372.25C121.771 370.99 121.401 369.57 121.401 367.99C121.401 366.41 121.771 365 122.511 363.76C123.251 362.52 124.271 361.55 125.571 360.85C126.891 360.15 128.391 359.8 130.071 359.8C131.651 359.8 133.031 360.12 134.211 360.76C135.411 361.4 136.311 362.32 136.911 363.52L134.031 365.2C133.571 364.46 132.991 363.91 132.291 363.55C131.611 363.17 130.861 362.98 130.041 362.98C128.641 362.98 127.481 363.44 126.561 364.36C125.641 365.26 125.181 366.47 125.181 367.99C125.181 369.51 125.631 370.73 126.531 371.65C127.451 372.55 128.621 373 130.041 373C130.861 373 131.611 372.82 132.291 372.46C132.991 372.08 133.571 371.52 134.031 370.78L136.911 372.46C136.291 373.66 135.381 374.59 134.181 375.25C133.001 375.89 131.631 376.21 130.071 376.21ZM149.096 359.8C151.116 359.8 152.736 360.39 153.956 361.57C155.176 362.75 155.786 364.5 155.786 366.82V376H152.036V367.3C152.036 365.9 151.706 364.85 151.046 364.15C150.386 363.43 149.446 363.07 148.226 363.07C146.846 363.07 145.756 363.49 144.956 364.33C144.156 365.15 143.756 366.34 143.756 367.9V376H140.006V353.74H143.756V361.84C144.376 361.18 145.136 360.68 146.036 360.34C146.956 359.98 147.976 359.8 149.096 359.8ZM166.663 359.8C169.023 359.8 170.823 360.37 172.063 361.51C173.323 362.63 173.953 364.33 173.953 366.61V376H170.413V374.05C169.953 374.75 169.293 375.29 168.433 375.67C167.593 376.03 166.573 376.21 165.373 376.21C164.173 376.21 163.123 376.01 162.223 375.61C161.323 375.19 160.623 374.62 160.123 373.9C159.643 373.16 159.403 372.33 159.403 371.41C159.403 369.97 159.933 368.82 160.993 367.96C162.073 367.08 163.763 366.64 166.063 366.64H170.203V366.4C170.203 365.28 169.863 364.42 169.183 363.82C168.523 363.22 167.533 362.92 166.213 362.92C165.313 362.92 164.423 363.06 163.543 363.34C162.683 363.62 161.953 364.01 161.353 364.51L159.883 361.78C160.723 361.14 161.733 360.65 162.913 360.31C164.093 359.97 165.343 359.8 166.663 359.8ZM166.153 373.48C167.093 373.48 167.923 373.27 168.643 372.85C169.383 372.41 169.903 371.79 170.203 370.99V369.13H166.333C164.173 369.13 163.093 369.84 163.093 371.26C163.093 371.94 163.363 372.48 163.903 372.88C164.443 373.28 165.193 373.48 166.153 373.48ZM187.856 359.8C189.876 359.8 191.496 360.39 192.716 361.57C193.936 362.75 194.546 364.5 194.546 366.82V376H190.796V367.3C190.796 365.9 190.466 364.85 189.806 364.15C189.146 363.43 188.206 363.07 186.986 363.07C185.606 363.07 184.516 363.49 183.716 364.33C182.916 365.15 182.516 366.34 182.516 367.9V376H178.766V359.98H182.336V362.05C182.956 361.31 183.736 360.75 184.676 360.37C185.616 359.99 186.676 359.8 187.856 359.8ZM215.139 353.74V376H211.539V373.93C210.919 374.69 210.149 375.26 209.229 375.64C208.329 376.02 207.329 376.21 206.229 376.21C204.689 376.21 203.299 375.87 202.059 375.19C200.839 374.51 199.879 373.55 199.179 372.31C198.479 371.05 198.129 369.61 198.129 367.99C198.129 366.37 198.479 364.94 199.179 363.7C199.879 362.46 200.839 361.5 202.059 360.82C203.299 360.14 204.689 359.8 206.229 359.8C207.289 359.8 208.259 359.98 209.139 360.34C210.019 360.7 210.769 361.24 211.389 361.96V353.74H215.139ZM206.679 373C207.579 373 208.389 372.8 209.109 372.4C209.829 371.98 210.399 371.39 210.819 370.63C211.239 369.87 211.449 368.99 211.449 367.99C211.449 366.99 211.239 366.11 210.819 365.35C210.399 364.59 209.829 364.01 209.109 363.61C208.389 363.19 207.579 362.98 206.679 362.98C205.779 362.98 204.969 363.19 204.249 363.61C203.529 364.01 202.959 364.59 202.539 365.35C202.119 366.11 201.909 366.99 201.909 367.99C201.909 368.99 202.119 369.87 202.539 370.63C202.959 371.39 203.529 371.98 204.249 372.4C204.969 372.8 205.779 373 206.679 373ZM220.045 359.98H223.795V376H220.045V359.98ZM221.935 357.34C221.255 357.34 220.685 357.13 220.225 356.71C219.765 356.27 219.535 355.73 219.535 355.09C219.535 354.45 219.765 353.92 220.225 353.5C220.685 353.06 221.255 352.84 221.935 352.84C222.615 352.84 223.185 353.05 223.645 353.47C224.105 353.87 224.335 354.38 224.335 355C224.335 355.66 224.105 356.22 223.645 356.68C223.205 357.12 222.635 357.34 221.935 357.34ZM233.667 376.21C232.367 376.21 231.097 376.04 229.857 375.7C228.617 375.36 227.627 374.93 226.887 374.41L228.327 371.56C229.047 372.04 229.907 372.43 230.907 372.73C231.927 373.01 232.927 373.15 233.907 373.15C236.147 373.15 237.267 372.56 237.267 371.38C237.267 370.82 236.977 370.43 236.397 370.21C235.837 369.99 234.927 369.78 233.667 369.58C232.347 369.38 231.267 369.15 230.427 368.89C229.607 368.63 228.887 368.18 228.267 367.54C227.667 366.88 227.367 365.97 227.367 364.81C227.367 363.29 227.997 362.08 229.257 361.18C230.537 360.26 232.257 359.8 234.417 359.8C235.517 359.8 236.617 359.93 237.717 360.19C238.817 360.43 239.717 360.76 240.417 361.18L238.977 364.03C237.617 363.23 236.087 362.83 234.387 362.83C233.287 362.83 232.447 363 231.867 363.34C231.307 363.66 231.027 364.09 231.027 364.63C231.027 365.23 231.327 365.66 231.927 365.92C232.547 366.16 233.497 366.39 234.777 366.61C236.057 366.81 237.107 367.04 237.927 367.3C238.747 367.56 239.447 368 240.027 368.62C240.627 369.24 240.927 370.12 240.927 371.26C240.927 372.76 240.277 373.96 238.977 374.86C237.677 375.76 235.907 376.21 233.667 376.21ZM259.216 368.08C259.216 368.34 259.196 368.71 259.156 369.19H246.586C246.806 370.37 247.376 371.31 248.296 372.01C249.236 372.69 250.396 373.03 251.776 373.03C253.536 373.03 254.986 372.45 256.126 371.29L258.136 373.6C257.416 374.46 256.506 375.11 255.406 375.55C254.306 375.99 253.066 376.21 251.686 376.21C249.926 376.21 248.376 375.86 247.036 375.16C245.696 374.46 244.656 373.49 243.916 372.25C243.196 370.99 242.836 369.57 242.836 367.99C242.836 366.43 243.186 365.03 243.886 363.79C244.606 362.53 245.596 361.55 246.856 360.85C248.116 360.15 249.536 359.8 251.116 359.8C252.676 359.8 254.066 360.15 255.286 360.85C256.526 361.53 257.486 362.5 258.166 363.76C258.866 365 259.216 366.44 259.216 368.08ZM251.116 362.8C249.916 362.8 248.896 363.16 248.056 363.88C247.236 364.58 246.736 365.52 246.556 366.7H255.646C255.486 365.54 254.996 364.6 254.176 363.88C253.356 363.16 252.336 362.8 251.116 362.8ZM97.9208 450.3C96.3008 450.3 94.7308 450.07 93.2108 449.61C91.7108 449.15 90.5208 448.54 89.6408 447.78L90.9908 444.75C91.8508 445.43 92.9008 445.99 94.1408 446.43C95.4008 446.85 96.6608 447.06 97.9208 447.06C99.4808 447.06 100.641 446.81 101.401 446.31C102.181 445.81 102.571 445.15 102.571 444.33C102.571 443.73 102.351 443.24 101.911 442.86C101.491 442.46 100.951 442.15 100.291 441.93C99.6308 441.71 98.7308 441.46 97.5908 441.18C95.9908 440.8 94.6908 440.42 93.6908 440.04C92.7108 439.66 91.8608 439.07 91.1408 438.27C90.4408 437.45 90.0908 436.35 90.0908 434.97C90.0908 433.81 90.4008 432.76 91.0208 431.82C91.6608 430.86 92.6108 430.1 93.8708 429.54C95.1508 428.98 96.7108 428.7 98.5508 428.7C99.8308 428.7 101.091 428.86 102.331 429.18C103.571 429.5 104.641 429.96 105.541 430.56L104.311 433.59C103.391 433.05 102.431 432.64 101.431 432.36C100.431 432.08 99.4608 431.94 98.5208 431.94C96.9808 431.94 95.8308 432.2 95.0708 432.72C94.3308 433.24 93.9608 433.93 93.9608 434.79C93.9608 435.39 94.1708 435.88 94.5908 436.26C95.0308 436.64 95.5808 436.94 96.2408 437.16C96.9008 437.38 97.8008 437.63 98.9408 437.91C100.501 438.27 101.781 438.65 102.781 439.05C103.781 439.43 104.631 440.02 105.331 440.82C106.051 441.62 106.411 442.7 106.411 444.06C106.411 445.22 106.091 446.27 105.451 447.21C104.831 448.15 103.881 448.9 102.601 449.46C101.321 450.02 99.7608 450.3 97.9208 450.3ZM124.978 442.08C124.978 442.34 124.958 442.71 124.918 443.19H112.348C112.568 444.37 113.138 445.31 114.058 446.01C114.998 446.69 116.158 447.03 117.538 447.03C119.298 447.03 120.748 446.45 121.888 445.29L123.898 447.6C123.178 448.46 122.268 449.11 121.168 449.55C120.068 449.99 118.828 450.21 117.448 450.21C115.688 450.21 114.138 449.86 112.798 449.16C111.458 448.46 110.418 447.49 109.678 446.25C108.958 444.99 108.598 443.57 108.598 441.99C108.598 440.43 108.948 439.03 109.648 437.79C110.368 436.53 111.358 435.55 112.618 434.85C113.878 434.15 115.298 433.8 116.878 433.8C118.438 433.8 119.828 434.15 121.048 434.85C122.288 435.53 123.248 436.5 123.928 437.76C124.628 439 124.978 440.44 124.978 442.08ZM116.878 436.8C115.678 436.8 114.658 437.16 113.818 437.88C112.998 438.58 112.498 439.52 112.318 440.7H121.408C121.248 439.54 120.758 438.6 119.938 437.88C119.118 437.16 118.098 436.8 116.878 436.8ZM132.15 436.32C133.23 434.64 135.13 433.8 137.85 433.8V437.37C137.53 437.31 137.24 437.28 136.98 437.28C135.52 437.28 134.38 437.71 133.56 438.57C132.74 439.41 132.33 440.63 132.33 442.23V450H128.58V433.98H132.15V436.32ZM151.247 449.13C150.807 449.49 150.267 449.76 149.627 449.94C149.007 450.12 148.347 450.21 147.647 450.21C145.887 450.21 144.527 449.75 143.567 448.83C142.607 447.91 142.127 446.57 142.127 444.81V437.1H139.487V434.1H142.127V430.44H145.877V434.1H150.167V437.1H145.877V444.72C145.877 445.5 146.067 446.1 146.447 446.52C146.827 446.92 147.377 447.12 148.097 447.12C148.937 447.12 149.637 446.9 150.197 446.46L151.247 449.13ZM154.332 433.98H158.082V450H154.332V433.98ZM156.222 431.34C155.542 431.34 154.972 431.13 154.512 430.71C154.052 430.27 153.822 429.73 153.822 429.09C153.822 428.45 154.052 427.92 154.512 427.5C154.972 427.06 155.542 426.84 156.222 426.84C156.902 426.84 157.472 427.05 157.932 427.47C158.392 427.87 158.622 428.38 158.622 429C158.622 429.66 158.392 430.22 157.932 430.68C157.492 431.12 156.922 431.34 156.222 431.34ZM169.514 430.56C167.934 430.56 167.144 431.42 167.144 433.14V434.1H171.554V437.1H167.264V450H163.514V437.1H160.874V434.1H163.514V433.08C163.514 431.36 164.014 430.01 165.014 429.03C166.014 428.03 167.424 427.53 169.244 427.53C170.684 427.53 171.814 427.82 172.634 428.4L171.584 431.22C170.944 430.78 170.254 430.56 169.514 430.56ZM176.474 433.98H180.224V450H176.474V433.98ZM178.364 431.34C177.684 431.34 177.114 431.13 176.654 430.71C176.194 430.27 175.964 429.73 175.964 429.09C175.964 428.45 176.194 427.92 176.654 427.5C177.114 427.06 177.684 426.84 178.364 426.84C179.044 426.84 179.614 427.05 180.074 427.47C180.534 427.87 180.764 428.38 180.764 429C180.764 429.66 180.534 430.22 180.074 430.68C179.634 431.12 179.064 431.34 178.364 431.34ZM191.692 443.13L188.902 445.77V450H185.152V427.74H188.902V441.18L196.672 433.98H201.172L194.482 440.7L201.802 450H197.242L191.692 443.13ZM210.052 433.8C212.412 433.8 214.212 434.37 215.452 435.51C216.712 436.63 217.342 438.33 217.342 440.61V450H213.802V448.05C213.342 448.75 212.682 449.29 211.822 449.67C210.982 450.03 209.962 450.21 208.762 450.21C207.562 450.21 206.512 450.01 205.612 449.61C204.712 449.19 204.012 448.62 203.512 447.9C203.032 447.16 202.792 446.33 202.792 445.41C202.792 443.97 203.322 442.82 204.382 441.96C205.462 441.08 207.152 440.64 209.452 440.64H213.592V440.4C213.592 439.28 213.252 438.42 212.572 437.82C211.912 437.22 210.922 436.92 209.602 436.92C208.702 436.92 207.812 437.06 206.932 437.34C206.072 437.62 205.342 438.01 204.742 438.51L203.272 435.78C204.112 435.14 205.122 434.65 206.302 434.31C207.482 433.97 208.732 433.8 210.052 433.8ZM209.542 447.48C210.482 447.48 211.312 447.27 212.032 446.85C212.772 446.41 213.292 445.79 213.592 444.99V443.13H209.722C207.562 443.13 206.482 443.84 206.482 445.26C206.482 445.94 206.752 446.48 207.292 446.88C207.832 447.28 208.582 447.48 209.542 447.48ZM231.784 449.13C231.344 449.49 230.804 449.76 230.164 449.94C229.544 450.12 228.884 450.21 228.184 450.21C226.424 450.21 225.064 449.75 224.104 448.83C223.144 447.91 222.664 446.57 222.664 444.81V437.1H220.024V434.1H222.664V430.44H226.414V434.1H230.704V437.1H226.414V444.72C226.414 445.5 226.604 446.1 226.984 446.52C227.364 446.92 227.914 447.12 228.634 447.12C229.474 447.12 230.174 446.9 230.734 446.46L231.784 449.13Z" fill="#FFEFEF"/>
<defs>
<filter id="filter0_i" x="73.5703" y="0" width="175" height="179" filterUnits="userSpaceOnUse" color-interpolation-filters="sRGB">
<feFlood flood-opacity="0" result="BackgroundImageFix"/>
<feBlend mode="normal" in="SourceGraphic" in2="BackgroundImageFix" result="shape"/>
<feColorMatrix in="SourceAlpha" type="matrix" values="0 0 0 0 0 0 0 0 0 0 0 0 0 0 0 0 0 0 127 0" result="hardAlpha"/>
<feOffset dy="4"/>
<feGaussianBlur stdDeviation="2"/>
<feComposite in2="hardAlpha" operator="arithmetic" k2="-1" k3="1"/>
<feColorMatrix type="matrix" values="0 0 0 0 0 0 0 0 0 0 0 0 0 0 0 0 0 0 0.25 0"/>
<feBlend mode="normal" in2="shape" result="effect1_innerShadow"/>
</filter>
<filter id="filter1_i" x="73.5703" y="0" width="175" height="179" filterUnits="userSpaceOnUse" color-interpolation-filters="sRGB">
<feFlood flood-opacity="0" result="BackgroundImageFix"/>
<feBlend mode="normal" in="SourceGraphic" in2="BackgroundImageFix" result="shape"/>
<feColorMatrix in="SourceAlpha" type="matrix" values="0 0 0 0 0 0 0 0 0 0 0 0 0 0 0 0 0 0 127 0" result="hardAlpha"/>
<feOffset dy="4"/>
<feGaussianBlur stdDeviation="2"/>
<feComposite in2="hardAlpha" operator="arithmetic" k2="-1" k3="1"/>
<feColorMatrix type="matrix" values="0 0 0 0 0 0 0 0 0 0 0 0 0 0 0 0 0 0 0.25 0"/>
<feBlend mode="normal" in2="shape" result="effect1_innerShadow"/>
</filter>
<filter id="filter2_i" x="107.342" y="65.5122" width="104.619" height="52.256" filterUnits="userSpaceOnUse" color-interpolation-filters="sRGB">
<feFlood flood-opacity="0" result="BackgroundImageFix"/>
<feBlend mode="normal" in="SourceGraphic" in2="BackgroundImageFix" result="shape"/>
<feColorMatrix in="SourceAlpha" type="matrix" values="0 0 0 0 0 0 0 0 0 0 0 0 0 0 0 0 0 0 127 0" result="hardAlpha"/>
<feOffset dy="4"/>
<feGaussianBlur stdDeviation="2"/>
<feComposite in2="hardAlpha" operator="arithmetic" k2="-1" k3="1"/>
<feColorMatrix type="matrix" values="0 0 0 0 0 0 0 0 0 0 0 0 0 0 0 0 0 0 0.25 0"/>
<feBlend mode="normal" in2="shape" result="effect1_innerShadow"/>
</filter>
</defs>
</svg>
