<svg width="324" height="531" viewBox="0 0 324 531" fill="none" xmlns="http://www.w3.org/2000/svg">
<rect y="531.001" width="415" height="323.571" rx="85" transform="rotate(-90 0 531.001)" fill="#3787D0"/>
<g filter="url(#filter0_i)">
<g filter="url(#filter1_i)">
<g filter="url(#filter2_i)">
<circle cx="161.5" cy="87.5" r="87.5" transform="rotate(-90 161.5 87.5)" fill="#E0473F"/>
</g>
</g>
</g>
<g filter="url(#filter3_i)">
<path d="M136.839 62.2V107H126.47V70.52H117.511V62.2H136.839ZM158.317 107.512C155.458 107.512 152.664 107.171 149.933 106.488C147.202 105.763 145.026 104.867 143.405 103.8L146.733 96.632C148.269 97.6133 150.125 98.424 152.301 99.064C154.477 99.6613 156.61 99.96 158.701 99.96C162.925 99.96 165.037 98.9147 165.037 96.824C165.037 95.8427 164.461 95.1387 163.309 94.712C162.157 94.2853 160.386 93.9227 157.997 93.624C155.181 93.1973 152.856 92.7067 151.021 92.152C149.186 91.5973 147.586 90.616 146.221 89.208C144.898 87.8 144.237 85.7947 144.237 83.192C144.237 81.016 144.856 79.096 146.093 77.432C147.373 75.7253 149.208 74.4027 151.597 73.464C154.029 72.5253 156.888 72.056 160.173 72.056C162.605 72.056 165.016 72.3333 167.405 72.888C169.837 73.4 171.842 74.1253 173.421 75.064L170.093 82.168C167.064 80.4613 163.757 79.608 160.173 79.608C158.04 79.608 156.44 79.9067 155.373 80.504C154.306 81.1013 153.773 81.8693 153.773 82.808C153.773 83.8747 154.349 84.6213 155.501 85.048C156.653 85.4747 158.488 85.88 161.005 86.264C163.821 86.7333 166.125 87.2453 167.917 87.8C169.709 88.312 171.266 89.272 172.589 90.68C173.912 92.088 174.573 94.0507 174.573 96.568C174.573 98.7013 173.933 100.6 172.653 102.264C171.373 103.928 169.496 105.229 167.021 106.168C164.589 107.064 161.688 107.512 158.317 107.512ZM202.941 105.336C201.96 106.061 200.744 106.616 199.293 107C197.885 107.341 196.392 107.512 194.813 107.512C190.717 107.512 187.538 106.467 185.277 104.376C183.058 102.285 181.949 99.2133 181.949 95.16V81.016H176.637V73.336H181.949V64.952H191.933V73.336H200.509V81.016H191.933V95.032C191.933 96.4827 192.296 97.6133 193.021 98.424C193.789 99.192 194.856 99.576 196.221 99.576C197.8 99.576 199.144 99.1493 200.253 98.296L202.941 105.336Z" fill="#FFEFEF"/>
</g>
<path d="M22.2768 262.3C19.3768 262.3 17.1168 261.49 15.4968 259.87C13.8768 258.23 13.0668 255.89 13.0668 252.85V241H16.9668V252.7C16.9668 256.82 18.7468 258.88 22.3068 258.88C25.8468 258.88 27.6168 256.82 27.6168 252.7V241H31.4568V252.85C31.4568 255.89 30.6468 258.23 29.0268 259.87C27.4268 261.49 25.1768 262.3 22.2768 262.3ZM42.6786 245.8C45.0386 245.8 46.8386 246.37 48.0786 247.51C49.3386 248.63 49.9686 250.33 49.9686 252.61V262H46.4286V260.05C45.9686 260.75 45.3086 261.29 44.4486 261.67C43.6086 262.03 42.5886 262.21 41.3886 262.21C40.1886 262.21 39.1386 262.01 38.2386 261.61C37.3386 261.19 36.6386 260.62 36.1386 259.9C35.6586 259.16 35.4186 258.33 35.4186 257.41C35.4186 255.97 35.9486 254.82 37.0086 253.96C38.0886 253.08 39.7786 252.64 42.0786 252.64H46.2186V252.4C46.2186 251.28 45.8786 250.42 45.1986 249.82C44.5386 249.22 43.5486 248.92 42.2286 248.92C41.3286 248.92 40.4386 249.06 39.5586 249.34C38.6986 249.62 37.9686 250.01 37.3686 250.51L35.8986 247.78C36.7386 247.14 37.7486 246.65 38.9286 246.31C40.1086 245.97 41.3586 245.8 42.6786 245.8ZM42.1686 259.48C43.1086 259.48 43.9386 259.27 44.6586 258.85C45.3986 258.41 45.9186 257.79 46.2186 256.99V255.13H42.3486C40.1886 255.13 39.1086 255.84 39.1086 257.26C39.1086 257.94 39.3786 258.48 39.9186 258.88C40.4586 259.28 41.2086 259.48 42.1686 259.48ZM63.8713 245.8C65.8913 245.8 67.5113 246.39 68.7313 247.57C69.9513 248.75 70.5613 250.5 70.5613 252.82V262H66.8113V253.3C66.8113 251.9 66.4813 250.85 65.8213 250.15C65.1613 249.43 64.2213 249.07 63.0013 249.07C61.6213 249.07 60.5313 249.49 59.7313 250.33C58.9313 251.15 58.5313 252.34 58.5313 253.9V262H54.7813V245.98H58.3513V248.05C58.9713 247.31 59.7513 246.75 60.6913 246.37C61.6313 245.99 62.6913 245.8 63.8713 245.8ZM91.3649 245.98V259.57C91.3649 265.21 88.4849 268.03 82.7249 268.03C81.1849 268.03 79.7249 267.83 78.3449 267.43C76.9649 267.05 75.8249 266.49 74.9249 265.75L76.6049 262.93C77.3049 263.51 78.1849 263.97 79.2449 264.31C80.3249 264.67 81.4149 264.85 82.5149 264.85C84.2749 264.85 85.5649 264.45 86.3849 263.65C87.2049 262.85 87.6149 261.63 87.6149 259.99V259.15C86.9749 259.85 86.1949 260.38 85.2749 260.74C84.3549 261.1 83.3449 261.28 82.2449 261.28C80.7249 261.28 79.3449 260.96 78.1049 260.32C76.8849 259.66 75.9149 258.74 75.1949 257.56C74.4949 256.38 74.1449 255.03 74.1449 253.51C74.1449 251.99 74.4949 250.65 75.1949 249.49C75.9149 248.31 76.8849 247.4 78.1049 246.76C79.3449 246.12 80.7249 245.8 82.2449 245.8C83.4049 245.8 84.4549 245.99 85.3949 246.37C86.3549 246.75 87.1549 247.33 87.7949 248.11V245.98H91.3649ZM82.8149 258.1C84.2349 258.1 85.3949 257.68 86.2949 256.84C87.2149 255.98 87.6749 254.87 87.6749 253.51C87.6749 252.17 87.2149 251.08 86.2949 250.24C85.3949 249.4 84.2349 248.98 82.8149 248.98C81.3749 248.98 80.1949 249.4 79.2749 250.24C78.3749 251.08 77.9249 252.17 77.9249 253.51C77.9249 254.87 78.3749 255.98 79.2749 256.84C80.1949 257.68 81.3749 258.1 82.8149 258.1ZM114.216 261.13C113.776 261.49 113.236 261.76 112.596 261.94C111.976 262.12 111.316 262.21 110.616 262.21C108.856 262.21 107.496 261.75 106.536 260.83C105.576 259.91 105.096 258.57 105.096 256.81V249.1H102.456V246.1H105.096V242.44H108.846V246.1H113.136V249.1H108.846V256.72C108.846 257.5 109.036 258.1 109.416 258.52C109.796 258.92 110.346 259.12 111.066 259.12C111.906 259.12 112.606 258.9 113.166 258.46L114.216 261.13ZM132.811 245.98V262H129.241V259.96C128.641 260.68 127.891 261.24 126.991 261.64C126.091 262.02 125.121 262.21 124.081 262.21C121.941 262.21 120.251 261.62 119.011 260.44C117.791 259.24 117.181 257.47 117.181 255.13V245.98H120.931V254.62C120.931 256.06 121.251 257.14 121.891 257.86C122.551 258.56 123.481 258.91 124.681 258.91C126.021 258.91 127.081 258.5 127.861 257.68C128.661 256.84 129.061 255.64 129.061 254.08V245.98H132.811ZM146.811 245.8C148.831 245.8 150.451 246.39 151.671 247.57C152.891 248.75 153.501 250.5 153.501 252.82V262H149.751V253.3C149.751 251.9 149.421 250.85 148.761 250.15C148.101 249.43 147.161 249.07 145.941 249.07C144.561 249.07 143.471 249.49 142.671 250.33C141.871 251.15 141.471 252.34 141.471 253.9V262H137.721V245.98H141.291V248.05C141.911 247.31 142.691 246.75 143.631 246.37C144.571 245.99 145.631 245.8 146.811 245.8ZM164.378 245.8C166.738 245.8 168.538 246.37 169.778 247.51C171.038 248.63 171.668 250.33 171.668 252.61V262H168.128V260.05C167.668 260.75 167.008 261.29 166.148 261.67C165.308 262.03 164.288 262.21 163.088 262.21C161.888 262.21 160.838 262.01 159.938 261.61C159.038 261.19 158.338 260.62 157.838 259.9C157.358 259.16 157.118 258.33 157.118 257.41C157.118 255.97 157.648 254.82 158.708 253.96C159.788 253.08 161.478 252.64 163.778 252.64H167.918V252.4C167.918 251.28 167.578 250.42 166.898 249.82C166.238 249.22 165.248 248.92 163.928 248.92C163.028 248.92 162.138 249.06 161.258 249.34C160.398 249.62 159.668 250.01 159.068 250.51L157.598 247.78C158.438 247.14 159.448 246.65 160.628 246.31C161.808 245.97 163.058 245.8 164.378 245.8ZM163.868 259.48C164.808 259.48 165.638 259.27 166.358 258.85C167.098 258.41 167.618 257.79 167.918 256.99V255.13H164.048C161.888 255.13 160.808 255.84 160.808 257.26C160.808 257.94 161.078 258.48 161.618 258.88C162.158 259.28 162.908 259.48 163.868 259.48ZM176.481 245.98H180.231V262H176.481V245.98ZM178.371 243.34C177.691 243.34 177.121 243.13 176.661 242.71C176.201 242.27 175.971 241.73 175.971 241.09C175.971 240.45 176.201 239.92 176.661 239.5C177.121 239.06 177.691 238.84 178.371 238.84C179.051 238.84 179.621 239.05 180.081 239.47C180.541 239.87 180.771 240.38 180.771 241C180.771 241.66 180.541 242.22 180.081 242.68C179.641 243.12 179.071 243.34 178.371 243.34ZM198.393 262.21C197.093 262.21 195.823 262.04 194.583 261.7C193.343 261.36 192.353 260.93 191.613 260.41L193.053 257.56C193.773 258.04 194.633 258.43 195.633 258.73C196.653 259.01 197.653 259.15 198.633 259.15C200.873 259.15 201.993 258.56 201.993 257.38C201.993 256.82 201.703 256.43 201.123 256.21C200.563 255.99 199.653 255.78 198.393 255.58C197.073 255.38 195.993 255.15 195.153 254.89C194.333 254.63 193.613 254.18 192.993 253.54C192.393 252.88 192.093 251.97 192.093 250.81C192.093 249.29 192.723 248.08 193.983 247.18C195.263 246.26 196.983 245.8 199.143 245.8C200.243 245.8 201.343 245.93 202.443 246.19C203.543 246.43 204.443 246.76 205.143 247.18L203.703 250.03C202.343 249.23 200.813 248.83 199.113 248.83C198.013 248.83 197.173 249 196.593 249.34C196.033 249.66 195.753 250.09 195.753 250.63C195.753 251.23 196.053 251.66 196.653 251.92C197.273 252.16 198.223 252.39 199.503 252.61C200.783 252.81 201.833 253.04 202.653 253.3C203.473 253.56 204.173 254 204.753 254.62C205.353 255.24 205.653 256.12 205.653 257.26C205.653 258.76 205.003 259.96 203.703 260.86C202.403 261.76 200.633 262.21 198.393 262.21ZM223.943 254.08C223.943 254.34 223.923 254.71 223.883 255.19H211.313C211.533 256.37 212.103 257.31 213.023 258.01C213.963 258.69 215.123 259.03 216.503 259.03C218.263 259.03 219.713 258.45 220.853 257.29L222.863 259.6C222.143 260.46 221.233 261.11 220.133 261.55C219.033 261.99 217.793 262.21 216.413 262.21C214.653 262.21 213.103 261.86 211.763 261.16C210.423 260.46 209.383 259.49 208.643 258.25C207.923 256.99 207.563 255.57 207.563 253.99C207.563 252.43 207.913 251.03 208.613 249.79C209.333 248.53 210.323 247.55 211.583 246.85C212.843 246.15 214.263 245.8 215.843 245.8C217.403 245.8 218.793 246.15 220.013 246.85C221.253 247.53 222.213 248.5 222.893 249.76C223.593 251 223.943 252.44 223.943 254.08ZM215.843 248.8C214.643 248.8 213.623 249.16 212.783 249.88C211.963 250.58 211.463 251.52 211.283 252.7H220.373C220.213 251.54 219.723 250.6 218.903 249.88C218.083 249.16 217.063 248.8 215.843 248.8ZM236.425 245.8C237.985 245.8 239.375 246.14 240.595 246.82C241.835 247.5 242.805 248.46 243.505 249.7C244.205 250.94 244.555 252.37 244.555 253.99C244.555 255.61 244.205 257.05 243.505 258.31C242.805 259.55 241.835 260.51 240.595 261.19C239.375 261.87 237.985 262.21 236.425 262.21C235.325 262.21 234.315 262.02 233.395 261.64C232.495 261.26 231.735 260.69 231.115 259.93V262H227.545V239.74H231.295V247.93C231.935 247.23 232.685 246.7 233.545 246.34C234.425 245.98 235.385 245.8 236.425 245.8ZM236.005 259C237.385 259 238.515 258.54 239.395 257.62C240.295 256.7 240.745 255.49 240.745 253.99C240.745 252.49 240.295 251.28 239.395 250.36C238.515 249.44 237.385 248.98 236.005 248.98C235.105 248.98 234.295 249.19 233.575 249.61C232.855 250.01 232.285 250.59 231.865 251.35C231.445 252.11 231.235 252.99 231.235 253.99C231.235 254.99 231.445 255.87 231.865 256.63C232.285 257.39 232.855 257.98 233.575 258.4C234.295 258.8 235.105 259 236.005 259ZM263.171 254.08C263.171 254.34 263.151 254.71 263.111 255.19H250.541C250.761 256.37 251.331 257.31 252.251 258.01C253.191 258.69 254.351 259.03 255.731 259.03C257.491 259.03 258.941 258.45 260.081 257.29L262.091 259.6C261.371 260.46 260.461 261.11 259.361 261.55C258.261 261.99 257.021 262.21 255.641 262.21C253.881 262.21 252.331 261.86 250.991 261.16C249.651 260.46 248.611 259.49 247.871 258.25C247.151 256.99 246.791 255.57 246.791 253.99C246.791 252.43 247.141 251.03 247.841 249.79C248.561 248.53 249.551 247.55 250.811 246.85C252.071 246.15 253.491 245.8 255.071 245.8C256.631 245.8 258.021 246.15 259.241 246.85C260.481 247.53 261.441 248.5 262.121 249.76C262.821 251 263.171 252.44 263.171 254.08ZM255.071 248.8C253.871 248.8 252.851 249.16 252.011 249.88C251.191 250.58 250.691 251.52 250.511 252.7H259.601C259.441 251.54 258.951 250.6 258.131 249.88C257.311 249.16 256.291 248.8 255.071 248.8ZM271.723 262.21C270.423 262.21 269.153 262.04 267.913 261.7C266.673 261.36 265.683 260.93 264.943 260.41L266.383 257.56C267.103 258.04 267.963 258.43 268.963 258.73C269.983 259.01 270.983 259.15 271.963 259.15C274.203 259.15 275.323 258.56 275.323 257.38C275.323 256.82 275.033 256.43 274.453 256.21C273.893 255.99 272.983 255.78 271.723 255.58C270.403 255.38 269.323 255.15 268.483 254.89C267.663 254.63 266.943 254.18 266.323 253.54C265.723 252.88 265.423 251.97 265.423 250.81C265.423 249.29 266.053 248.08 267.313 247.18C268.593 246.26 270.313 245.8 272.473 245.8C273.573 245.8 274.673 245.93 275.773 246.19C276.873 246.43 277.773 246.76 278.473 247.18L277.033 250.03C275.673 249.23 274.143 248.83 272.443 248.83C271.343 248.83 270.503 249 269.923 249.34C269.363 249.66 269.083 250.09 269.083 250.63C269.083 251.23 269.383 251.66 269.983 251.92C270.603 252.16 271.553 252.39 272.833 252.61C274.113 252.81 275.163 253.04 275.983 253.3C276.803 253.56 277.503 254 278.083 254.62C278.683 255.24 278.983 256.12 278.983 257.26C278.983 258.76 278.333 259.96 277.033 260.86C275.733 261.76 273.963 262.21 271.723 262.21ZM288.333 245.8C290.693 245.8 292.493 246.37 293.733 247.51C294.993 248.63 295.623 250.33 295.623 252.61V262H292.083V260.05C291.623 260.75 290.963 261.29 290.103 261.67C289.263 262.03 288.243 262.21 287.043 262.21C285.843 262.21 284.793 262.01 283.893 261.61C282.993 261.19 282.293 260.62 281.793 259.9C281.313 259.16 281.073 258.33 281.073 257.41C281.073 255.97 281.603 254.82 282.663 253.96C283.743 253.08 285.433 252.64 287.733 252.64H291.873V252.4C291.873 251.28 291.533 250.42 290.853 249.82C290.193 249.22 289.203 248.92 287.883 248.92C286.983 248.92 286.093 249.06 285.213 249.34C284.353 249.62 283.623 250.01 283.023 250.51L281.553 247.78C282.393 247.14 283.403 246.65 284.583 246.31C285.763 245.97 287.013 245.8 288.333 245.8ZM287.823 259.48C288.763 259.48 289.593 259.27 290.313 258.85C291.053 258.41 291.573 257.79 291.873 256.99V255.13H288.003C285.843 255.13 284.763 255.84 284.763 257.26C284.763 257.94 285.033 258.48 285.573 258.88C286.113 259.28 286.863 259.48 287.823 259.48ZM304.006 248.32C305.086 246.64 306.986 245.8 309.706 245.8V249.37C309.386 249.31 309.096 249.28 308.836 249.28C307.376 249.28 306.236 249.71 305.416 250.57C304.596 251.41 304.186 252.63 304.186 254.23V262H300.436V245.98H304.006V248.32ZM73.2026 299L68.9126 292.85C68.7326 292.87 68.4626 292.88 68.1026 292.88H63.3626V299H59.4626V278H68.1026C69.9226 278 71.5026 278.3 72.8426 278.9C74.2026 279.5 75.2426 280.36 75.9626 281.48C76.6826 282.6 77.0426 283.93 77.0426 285.47C77.0426 287.05 76.6526 288.41 75.8726 289.55C75.1126 290.69 74.0126 291.54 72.5726 292.1L77.4026 299H73.2026ZM73.1126 285.47C73.1126 284.13 72.6726 283.1 71.7926 282.38C70.9126 281.66 69.6226 281.3 67.9226 281.3H63.3626V289.67H67.9226C69.6226 289.67 70.9126 289.31 71.7926 288.59C72.6726 287.85 73.1126 286.81 73.1126 285.47ZM89.9259 282.8C91.4859 282.8 92.8759 283.14 94.0959 283.82C95.3359 284.5 96.3059 285.46 97.0059 286.7C97.7059 287.94 98.0559 289.37 98.0559 290.99C98.0559 292.61 97.7059 294.05 97.0059 295.31C96.3059 296.55 95.3359 297.51 94.0959 298.19C92.8759 298.87 91.4859 299.21 89.9259 299.21C87.7659 299.21 86.0559 298.49 84.7959 297.05V304.82H81.0459V282.98H84.6159V285.08C85.2359 284.32 85.9959 283.75 86.8959 283.37C87.8159 282.99 88.8259 282.8 89.9259 282.8ZM89.5059 296C90.8859 296 92.0159 295.54 92.8959 294.62C93.7959 293.7 94.2459 292.49 94.2459 290.99C94.2459 289.49 93.7959 288.28 92.8959 287.36C92.0159 286.44 90.8859 285.98 89.5059 285.98C88.6059 285.98 87.7959 286.19 87.0759 286.61C86.3559 287.01 85.7859 287.59 85.3659 288.35C84.9459 289.11 84.7359 289.99 84.7359 290.99C84.7359 291.99 84.9459 292.87 85.3659 293.63C85.7859 294.39 86.3559 294.98 87.0759 295.4C87.7959 295.8 88.6059 296 89.5059 296ZM106.971 278V299H103.071V281.27H98.6306V278H106.971ZM119.896 299.3C118.216 299.3 116.716 298.88 115.396 298.04C114.076 297.18 113.036 295.94 112.276 294.32C111.516 292.68 111.136 290.74 111.136 288.5C111.136 286.26 111.516 284.33 112.276 282.71C113.036 281.07 114.076 279.83 115.396 278.99C116.716 278.13 118.216 277.7 119.896 277.7C121.576 277.7 123.076 278.13 124.396 278.99C125.736 279.83 126.786 281.07 127.546 282.71C128.306 284.33 128.686 286.26 128.686 288.5C128.686 290.74 128.306 292.68 127.546 294.32C126.786 295.94 125.736 297.18 124.396 298.04C123.076 298.88 121.576 299.3 119.896 299.3ZM119.896 295.91C121.396 295.91 122.576 295.29 123.436 294.05C124.316 292.81 124.756 290.96 124.756 288.5C124.756 286.04 124.316 284.19 123.436 282.95C122.576 281.71 121.396 281.09 119.896 281.09C118.416 281.09 117.236 281.71 116.356 282.95C115.496 284.19 115.066 286.04 115.066 288.5C115.066 290.96 115.496 292.81 116.356 294.05C117.236 295.29 118.416 295.91 119.896 295.91ZM133.31 299.21C132.63 299.21 132.05 298.98 131.57 298.52C131.09 298.04 130.85 297.44 130.85 296.72C130.85 295.98 131.08 295.38 131.54 294.92C132.02 294.46 132.61 294.23 133.31 294.23C134.01 294.23 134.59 294.46 135.05 294.92C135.53 295.38 135.77 295.98 135.77 296.72C135.77 297.44 135.53 298.04 135.05 298.52C134.57 298.98 133.99 299.21 133.31 299.21ZM146.703 299.3C145.023 299.3 143.523 298.88 142.203 298.04C140.883 297.18 139.843 295.94 139.083 294.32C138.323 292.68 137.943 290.74 137.943 288.5C137.943 286.26 138.323 284.33 139.083 282.71C139.843 281.07 140.883 279.83 142.203 278.99C143.523 278.13 145.023 277.7 146.703 277.7C148.383 277.7 149.883 278.13 151.203 278.99C152.543 279.83 153.593 281.07 154.353 282.71C155.113 284.33 155.493 286.26 155.493 288.5C155.493 290.74 155.113 292.68 154.353 294.32C153.593 295.94 152.543 297.18 151.203 298.04C149.883 298.88 148.383 299.3 146.703 299.3ZM146.703 295.91C148.203 295.91 149.383 295.29 150.243 294.05C151.123 292.81 151.563 290.96 151.563 288.5C151.563 286.04 151.123 284.19 150.243 282.95C149.383 281.71 148.203 281.09 146.703 281.09C145.223 281.09 144.043 281.71 143.163 282.95C142.303 284.19 141.873 286.04 141.873 288.5C141.873 290.96 142.303 292.81 143.163 294.05C144.043 295.29 145.223 295.91 146.703 295.91ZM166.889 299.3C165.209 299.3 163.709 298.88 162.389 298.04C161.069 297.18 160.029 295.94 159.269 294.32C158.509 292.68 158.129 290.74 158.129 288.5C158.129 286.26 158.509 284.33 159.269 282.71C160.029 281.07 161.069 279.83 162.389 278.99C163.709 278.13 165.209 277.7 166.889 277.7C168.569 277.7 170.069 278.13 171.389 278.99C172.729 279.83 173.779 281.07 174.539 282.71C175.299 284.33 175.679 286.26 175.679 288.5C175.679 290.74 175.299 292.68 174.539 294.32C173.779 295.94 172.729 297.18 171.389 298.04C170.069 298.88 168.569 299.3 166.889 299.3ZM166.889 295.91C168.389 295.91 169.569 295.29 170.429 294.05C171.309 292.81 171.749 290.96 171.749 288.5C171.749 286.04 171.309 284.19 170.429 282.95C169.569 281.71 168.389 281.09 166.889 281.09C165.409 281.09 164.229 281.71 163.349 282.95C162.489 284.19 162.059 286.04 162.059 288.5C162.059 290.96 162.489 292.81 163.349 294.05C164.229 295.29 165.409 295.91 166.889 295.91ZM187.074 299.3C185.394 299.3 183.894 298.88 182.574 298.04C181.254 297.18 180.214 295.94 179.454 294.32C178.694 292.68 178.314 290.74 178.314 288.5C178.314 286.26 178.694 284.33 179.454 282.71C180.214 281.07 181.254 279.83 182.574 278.99C183.894 278.13 185.394 277.7 187.074 277.7C188.754 277.7 190.254 278.13 191.574 278.99C192.914 279.83 193.964 281.07 194.724 282.71C195.484 284.33 195.864 286.26 195.864 288.5C195.864 290.74 195.484 292.68 194.724 294.32C193.964 295.94 192.914 297.18 191.574 298.04C190.254 298.88 188.754 299.3 187.074 299.3ZM187.074 295.91C188.574 295.91 189.754 295.29 190.614 294.05C191.494 292.81 191.934 290.96 191.934 288.5C191.934 286.04 191.494 284.19 190.614 282.95C189.754 281.71 188.574 281.09 187.074 281.09C185.594 281.09 184.414 281.71 183.534 282.95C182.674 284.19 182.244 286.04 182.244 288.5C182.244 290.96 182.674 292.81 183.534 294.05C184.414 295.29 185.594 295.91 187.074 295.91ZM200.488 299.21C199.808 299.21 199.228 298.98 198.748 298.52C198.268 298.04 198.028 297.44 198.028 296.72C198.028 295.98 198.258 295.38 198.718 294.92C199.198 294.46 199.788 294.23 200.488 294.23C201.188 294.23 201.768 294.46 202.228 294.92C202.708 295.38 202.948 295.98 202.948 296.72C202.948 297.44 202.708 298.04 202.228 298.52C201.748 298.98 201.168 299.21 200.488 299.21ZM213.881 299.3C212.201 299.3 210.701 298.88 209.381 298.04C208.061 297.18 207.021 295.94 206.261 294.32C205.501 292.68 205.121 290.74 205.121 288.5C205.121 286.26 205.501 284.33 206.261 282.71C207.021 281.07 208.061 279.83 209.381 278.99C210.701 278.13 212.201 277.7 213.881 277.7C215.561 277.7 217.061 278.13 218.381 278.99C219.721 279.83 220.771 281.07 221.531 282.71C222.291 284.33 222.671 286.26 222.671 288.5C222.671 290.74 222.291 292.68 221.531 294.32C220.771 295.94 219.721 297.18 218.381 298.04C217.061 298.88 215.561 299.3 213.881 299.3ZM213.881 295.91C215.381 295.91 216.561 295.29 217.421 294.05C218.301 292.81 218.741 290.96 218.741 288.5C218.741 286.04 218.301 284.19 217.421 282.95C216.561 281.71 215.381 281.09 213.881 281.09C212.401 281.09 211.221 281.71 210.341 282.95C209.481 284.19 209.051 286.04 209.051 288.5C209.051 290.96 209.481 292.81 210.341 294.05C211.221 295.29 212.401 295.91 213.881 295.91ZM234.066 299.3C232.386 299.3 230.886 298.88 229.566 298.04C228.246 297.18 227.206 295.94 226.446 294.32C225.686 292.68 225.306 290.74 225.306 288.5C225.306 286.26 225.686 284.33 226.446 282.71C227.206 281.07 228.246 279.83 229.566 278.99C230.886 278.13 232.386 277.7 234.066 277.7C235.746 277.7 237.246 278.13 238.566 278.99C239.906 279.83 240.956 281.07 241.716 282.71C242.476 284.33 242.856 286.26 242.856 288.5C242.856 290.74 242.476 292.68 241.716 294.32C240.956 295.94 239.906 297.18 238.566 298.04C237.246 298.88 235.746 299.3 234.066 299.3ZM234.066 295.91C235.566 295.91 236.746 295.29 237.606 294.05C238.486 292.81 238.926 290.96 238.926 288.5C238.926 286.04 238.486 284.19 237.606 282.95C236.746 281.71 235.566 281.09 234.066 281.09C232.586 281.09 231.406 281.71 230.526 282.95C229.666 284.19 229.236 286.04 229.236 288.5C229.236 290.96 229.666 292.81 230.526 294.05C231.406 295.29 232.586 295.91 234.066 295.91ZM254.252 299.3C252.572 299.3 251.072 298.88 249.752 298.04C248.432 297.18 247.392 295.94 246.632 294.32C245.872 292.68 245.492 290.74 245.492 288.5C245.492 286.26 245.872 284.33 246.632 282.71C247.392 281.07 248.432 279.83 249.752 278.99C251.072 278.13 252.572 277.7 254.252 277.7C255.932 277.7 257.432 278.13 258.752 278.99C260.092 279.83 261.142 281.07 261.902 282.71C262.662 284.33 263.042 286.26 263.042 288.5C263.042 290.74 262.662 292.68 261.902 294.32C261.142 295.94 260.092 297.18 258.752 298.04C257.432 298.88 255.932 299.3 254.252 299.3ZM254.252 295.91C255.752 295.91 256.932 295.29 257.792 294.05C258.672 292.81 259.112 290.96 259.112 288.5C259.112 286.04 258.672 284.19 257.792 282.95C256.932 281.71 255.752 281.09 254.252 281.09C252.772 281.09 251.592 281.71 250.712 282.95C249.852 284.19 249.422 286.04 249.422 288.5C249.422 290.96 249.852 292.81 250.712 294.05C251.592 295.29 252.772 295.91 254.252 295.91ZM82.7516 373L82.7216 359.08L75.8216 370.6H74.0816L67.1816 359.26V373H63.4616V352H66.6716L75.0116 365.92L83.2016 352H86.4116L86.4416 373H82.7516ZM106.814 365.08C106.814 365.34 106.794 365.71 106.754 366.19H94.1839C94.4039 367.37 94.9739 368.31 95.8939 369.01C96.8339 369.69 97.9939 370.03 99.3739 370.03C101.134 370.03 102.584 369.45 103.724 368.29L105.734 370.6C105.014 371.46 104.104 372.11 103.004 372.55C101.904 372.99 100.664 373.21 99.2839 373.21C97.5239 373.21 95.9739 372.86 94.6339 372.16C93.2939 371.46 92.2539 370.49 91.5139 369.25C90.7939 367.99 90.4339 366.57 90.4339 364.99C90.4339 363.43 90.7839 362.03 91.4839 360.79C92.2039 359.53 93.1939 358.55 94.4539 357.85C95.7139 357.15 97.1339 356.8 98.7139 356.8C100.274 356.8 101.664 357.15 102.884 357.85C104.124 358.53 105.084 359.5 105.764 360.76C106.464 362 106.814 363.44 106.814 365.08ZM98.7139 359.8C97.5139 359.8 96.4939 360.16 95.6539 360.88C94.8339 361.58 94.3339 362.52 94.1539 363.7H103.244C103.084 362.54 102.594 361.6 101.774 360.88C100.954 360.16 99.9339 359.8 98.7139 359.8ZM113.986 359.32C115.066 357.64 116.966 356.8 119.686 356.8V360.37C119.366 360.31 119.076 360.28 118.816 360.28C117.356 360.28 116.216 360.71 115.396 361.57C114.576 362.41 114.166 363.63 114.166 365.23V373H110.416V356.98H113.986V359.32ZM130.071 373.21C128.411 373.21 126.921 372.86 125.601 372.16C124.281 371.46 123.251 370.49 122.511 369.25C121.771 367.99 121.401 366.57 121.401 364.99C121.401 363.41 121.771 362 122.511 360.76C123.251 359.52 124.271 358.55 125.571 357.85C126.891 357.15 128.391 356.8 130.071 356.8C131.651 356.8 133.031 357.12 134.211 357.76C135.411 358.4 136.311 359.32 136.911 360.52L134.031 362.2C133.571 361.46 132.991 360.91 132.291 360.55C131.611 360.17 130.861 359.98 130.041 359.98C128.641 359.98 127.481 360.44 126.561 361.36C125.641 362.26 125.181 363.47 125.181 364.99C125.181 366.51 125.631 367.73 126.531 368.65C127.451 369.55 128.621 370 130.041 370C130.861 370 131.611 369.82 132.291 369.46C132.991 369.08 133.571 368.52 134.031 367.78L136.911 369.46C136.291 370.66 135.381 371.59 134.181 372.25C133.001 372.89 131.631 373.21 130.071 373.21ZM149.096 356.8C151.116 356.8 152.736 357.39 153.956 358.57C155.176 359.75 155.786 361.5 155.786 363.82V373H152.036V364.3C152.036 362.9 151.706 361.85 151.046 361.15C150.386 360.43 149.446 360.07 148.226 360.07C146.846 360.07 145.756 360.49 144.956 361.33C144.156 362.15 143.756 363.34 143.756 364.9V373H140.006V350.74H143.756V358.84C144.376 358.18 145.136 357.68 146.036 357.34C146.956 356.98 147.976 356.8 149.096 356.8ZM166.663 356.8C169.023 356.8 170.823 357.37 172.063 358.51C173.323 359.63 173.953 361.33 173.953 363.61V373H170.413V371.05C169.953 371.75 169.293 372.29 168.433 372.67C167.593 373.03 166.573 373.21 165.373 373.21C164.173 373.21 163.123 373.01 162.223 372.61C161.323 372.19 160.623 371.62 160.123 370.9C159.643 370.16 159.403 369.33 159.403 368.41C159.403 366.97 159.933 365.82 160.993 364.96C162.073 364.08 163.763 363.64 166.063 363.64H170.203V363.4C170.203 362.28 169.863 361.42 169.183 360.82C168.523 360.22 167.533 359.92 166.213 359.92C165.313 359.92 164.423 360.06 163.543 360.34C162.683 360.62 161.953 361.01 161.353 361.51L159.883 358.78C160.723 358.14 161.733 357.65 162.913 357.31C164.093 356.97 165.343 356.8 166.663 356.8ZM166.153 370.48C167.093 370.48 167.923 370.27 168.643 369.85C169.383 369.41 169.903 368.79 170.203 367.99V366.13H166.333C164.173 366.13 163.093 366.84 163.093 368.26C163.093 368.94 163.363 369.48 163.903 369.88C164.443 370.28 165.193 370.48 166.153 370.48ZM187.856 356.8C189.876 356.8 191.496 357.39 192.716 358.57C193.936 359.75 194.546 361.5 194.546 363.82V373H190.796V364.3C190.796 362.9 190.466 361.85 189.806 361.15C189.146 360.43 188.206 360.07 186.986 360.07C185.606 360.07 184.516 360.49 183.716 361.33C182.916 362.15 182.516 363.34 182.516 364.9V373H178.766V356.98H182.336V359.05C182.956 358.31 183.736 357.75 184.676 357.37C185.616 356.99 186.676 356.8 187.856 356.8ZM215.139 350.74V373H211.539V370.93C210.919 371.69 210.149 372.26 209.229 372.64C208.329 373.02 207.329 373.21 206.229 373.21C204.689 373.21 203.299 372.87 202.059 372.19C200.839 371.51 199.879 370.55 199.179 369.31C198.479 368.05 198.129 366.61 198.129 364.99C198.129 363.37 198.479 361.94 199.179 360.7C199.879 359.46 200.839 358.5 202.059 357.82C203.299 357.14 204.689 356.8 206.229 356.8C207.289 356.8 208.259 356.98 209.139 357.34C210.019 357.7 210.769 358.24 211.389 358.96V350.74H215.139ZM206.679 370C207.579 370 208.389 369.8 209.109 369.4C209.829 368.98 210.399 368.39 210.819 367.63C211.239 366.87 211.449 365.99 211.449 364.99C211.449 363.99 211.239 363.11 210.819 362.35C210.399 361.59 209.829 361.01 209.109 360.61C208.389 360.19 207.579 359.98 206.679 359.98C205.779 359.98 204.969 360.19 204.249 360.61C203.529 361.01 202.959 361.59 202.539 362.35C202.119 363.11 201.909 363.99 201.909 364.99C201.909 365.99 202.119 366.87 202.539 367.63C202.959 368.39 203.529 368.98 204.249 369.4C204.969 369.8 205.779 370 206.679 370ZM220.045 356.98H223.795V373H220.045V356.98ZM221.935 354.34C221.255 354.34 220.685 354.13 220.225 353.71C219.765 353.27 219.535 352.73 219.535 352.09C219.535 351.45 219.765 350.92 220.225 350.5C220.685 350.06 221.255 349.84 221.935 349.84C222.615 349.84 223.185 350.05 223.645 350.47C224.105 350.87 224.335 351.38 224.335 352C224.335 352.66 224.105 353.22 223.645 353.68C223.205 354.12 222.635 354.34 221.935 354.34ZM233.667 373.21C232.367 373.21 231.097 373.04 229.857 372.7C228.617 372.36 227.627 371.93 226.887 371.41L228.327 368.56C229.047 369.04 229.907 369.43 230.907 369.73C231.927 370.01 232.927 370.15 233.907 370.15C236.147 370.15 237.267 369.56 237.267 368.38C237.267 367.82 236.977 367.43 236.397 367.21C235.837 366.99 234.927 366.78 233.667 366.58C232.347 366.38 231.267 366.15 230.427 365.89C229.607 365.63 228.887 365.18 228.267 364.54C227.667 363.88 227.367 362.97 227.367 361.81C227.367 360.29 227.997 359.08 229.257 358.18C230.537 357.26 232.257 356.8 234.417 356.8C235.517 356.8 236.617 356.93 237.717 357.19C238.817 357.43 239.717 357.76 240.417 358.18L238.977 361.03C237.617 360.23 236.087 359.83 234.387 359.83C233.287 359.83 232.447 360 231.867 360.34C231.307 360.66 231.027 361.09 231.027 361.63C231.027 362.23 231.327 362.66 231.927 362.92C232.547 363.16 233.497 363.39 234.777 363.61C236.057 363.81 237.107 364.04 237.927 364.3C238.747 364.56 239.447 365 240.027 365.62C240.627 366.24 240.927 367.12 240.927 368.26C240.927 369.76 240.277 370.96 238.977 371.86C237.677 372.76 235.907 373.21 233.667 373.21ZM259.216 365.08C259.216 365.34 259.196 365.71 259.156 366.19H246.586C246.806 367.37 247.376 368.31 248.296 369.01C249.236 369.69 250.396 370.03 251.776 370.03C253.536 370.03 254.986 369.45 256.126 368.29L258.136 370.6C257.416 371.46 256.506 372.11 255.406 372.55C254.306 372.99 253.066 373.21 251.686 373.21C249.926 373.21 248.376 372.86 247.036 372.16C245.696 371.46 244.656 370.49 243.916 369.25C243.196 367.99 242.836 366.57 242.836 364.99C242.836 363.43 243.186 362.03 243.886 360.79C244.606 359.53 245.596 358.55 246.856 357.85C248.116 357.15 249.536 356.8 251.116 356.8C252.676 356.8 254.066 357.15 255.286 357.85C256.526 358.53 257.486 359.5 258.166 360.76C258.866 362 259.216 363.44 259.216 365.08ZM251.116 359.8C249.916 359.8 248.896 360.16 248.056 360.88C247.236 361.58 246.736 362.52 246.556 363.7H255.646C255.486 362.54 254.996 361.6 254.176 360.88C253.356 360.16 252.336 359.8 251.116 359.8ZM97.9208 447.3C96.3008 447.3 94.7308 447.07 93.2108 446.61C91.7108 446.15 90.5208 445.54 89.6408 444.78L90.9908 441.75C91.8508 442.43 92.9008 442.99 94.1408 443.43C95.4008 443.85 96.6608 444.06 97.9208 444.06C99.4808 444.06 100.641 443.81 101.401 443.31C102.181 442.81 102.571 442.15 102.571 441.33C102.571 440.73 102.351 440.24 101.911 439.86C101.491 439.46 100.951 439.15 100.291 438.93C99.6308 438.71 98.7308 438.46 97.5908 438.18C95.9908 437.8 94.6908 437.42 93.6908 437.04C92.7108 436.66 91.8608 436.07 91.1408 435.27C90.4408 434.45 90.0908 433.35 90.0908 431.97C90.0908 430.81 90.4008 429.76 91.0208 428.82C91.6608 427.86 92.6108 427.1 93.8708 426.54C95.1508 425.98 96.7108 425.7 98.5508 425.7C99.8308 425.7 101.091 425.86 102.331 426.18C103.571 426.5 104.641 426.96 105.541 427.56L104.311 430.59C103.391 430.05 102.431 429.64 101.431 429.36C100.431 429.08 99.4608 428.94 98.5208 428.94C96.9808 428.94 95.8308 429.2 95.0708 429.72C94.3308 430.24 93.9608 430.93 93.9608 431.79C93.9608 432.39 94.1708 432.88 94.5908 433.26C95.0308 433.64 95.5808 433.94 96.2408 434.16C96.9008 434.38 97.8008 434.63 98.9408 434.91C100.501 435.27 101.781 435.65 102.781 436.05C103.781 436.43 104.631 437.02 105.331 437.82C106.051 438.62 106.411 439.7 106.411 441.06C106.411 442.22 106.091 443.27 105.451 444.21C104.831 445.15 103.881 445.9 102.601 446.46C101.321 447.02 99.7608 447.3 97.9208 447.3ZM124.978 439.08C124.978 439.34 124.958 439.71 124.918 440.19H112.348C112.568 441.37 113.138 442.31 114.058 443.01C114.998 443.69 116.158 444.03 117.538 444.03C119.298 444.03 120.748 443.45 121.888 442.29L123.898 444.6C123.178 445.46 122.268 446.11 121.168 446.55C120.068 446.99 118.828 447.21 117.448 447.21C115.688 447.21 114.138 446.86 112.798 446.16C111.458 445.46 110.418 444.49 109.678 443.25C108.958 441.99 108.598 440.57 108.598 438.99C108.598 437.43 108.948 436.03 109.648 434.79C110.368 433.53 111.358 432.55 112.618 431.85C113.878 431.15 115.298 430.8 116.878 430.8C118.438 430.8 119.828 431.15 121.048 431.85C122.288 432.53 123.248 433.5 123.928 434.76C124.628 436 124.978 437.44 124.978 439.08ZM116.878 433.8C115.678 433.8 114.658 434.16 113.818 434.88C112.998 435.58 112.498 436.52 112.318 437.7H121.408C121.248 436.54 120.758 435.6 119.938 434.88C119.118 434.16 118.098 433.8 116.878 433.8ZM132.15 433.32C133.23 431.64 135.13 430.8 137.85 430.8V434.37C137.53 434.31 137.24 434.28 136.98 434.28C135.52 434.28 134.38 434.71 133.56 435.57C132.74 436.41 132.33 437.63 132.33 439.23V447H128.58V430.98H132.15V433.32ZM151.247 446.13C150.807 446.49 150.267 446.76 149.627 446.94C149.007 447.12 148.347 447.21 147.647 447.21C145.887 447.21 144.527 446.75 143.567 445.83C142.607 444.91 142.127 443.57 142.127 441.81V434.1H139.487V431.1H142.127V427.44H145.877V431.1H150.167V434.1H145.877V441.72C145.877 442.5 146.067 443.1 146.447 443.52C146.827 443.92 147.377 444.12 148.097 444.12C148.937 444.12 149.637 443.9 150.197 443.46L151.247 446.13ZM154.332 430.98H158.082V447H154.332V430.98ZM156.222 428.34C155.542 428.34 154.972 428.13 154.512 427.71C154.052 427.27 153.822 426.73 153.822 426.09C153.822 425.45 154.052 424.92 154.512 424.5C154.972 424.06 155.542 423.84 156.222 423.84C156.902 423.84 157.472 424.05 157.932 424.47C158.392 424.87 158.622 425.38 158.622 426C158.622 426.66 158.392 427.22 157.932 427.68C157.492 428.12 156.922 428.34 156.222 428.34ZM169.514 427.56C167.934 427.56 167.144 428.42 167.144 430.14V431.1H171.554V434.1H167.264V447H163.514V434.1H160.874V431.1H163.514V430.08C163.514 428.36 164.014 427.01 165.014 426.03C166.014 425.03 167.424 424.53 169.244 424.53C170.684 424.53 171.814 424.82 172.634 425.4L171.584 428.22C170.944 427.78 170.254 427.56 169.514 427.56ZM176.474 430.98H180.224V447H176.474V430.98ZM178.364 428.34C177.684 428.34 177.114 428.13 176.654 427.71C176.194 427.27 175.964 426.73 175.964 426.09C175.964 425.45 176.194 424.92 176.654 424.5C177.114 424.06 177.684 423.84 178.364 423.84C179.044 423.84 179.614 424.05 180.074 424.47C180.534 424.87 180.764 425.38 180.764 426C180.764 426.66 180.534 427.22 180.074 427.68C179.634 428.12 179.064 428.34 178.364 428.34ZM191.692 440.13L188.902 442.77V447H185.152V424.74H188.902V438.18L196.672 430.98H201.172L194.482 437.7L201.802 447H197.242L191.692 440.13ZM210.052 430.8C212.412 430.8 214.212 431.37 215.452 432.51C216.712 433.63 217.342 435.33 217.342 437.61V447H213.802V445.05C213.342 445.75 212.682 446.29 211.822 446.67C210.982 447.03 209.962 447.21 208.762 447.21C207.562 447.21 206.512 447.01 205.612 446.61C204.712 446.19 204.012 445.62 203.512 444.9C203.032 444.16 202.792 443.33 202.792 442.41C202.792 440.97 203.322 439.82 204.382 438.96C205.462 438.08 207.152 437.64 209.452 437.64H213.592V437.4C213.592 436.28 213.252 435.42 212.572 434.82C211.912 434.22 210.922 433.92 209.602 433.92C208.702 433.92 207.812 434.06 206.932 434.34C206.072 434.62 205.342 435.01 204.742 435.51L203.272 432.78C204.112 432.14 205.122 431.65 206.302 431.31C207.482 430.97 208.732 430.8 210.052 430.8ZM209.542 444.48C210.482 444.48 211.312 444.27 212.032 443.85C212.772 443.41 213.292 442.79 213.592 441.99V440.13H209.722C207.562 440.13 206.482 440.84 206.482 442.26C206.482 442.94 206.752 443.48 207.292 443.88C207.832 444.28 208.582 444.48 209.542 444.48ZM231.784 446.13C231.344 446.49 230.804 446.76 230.164 446.94C229.544 447.12 228.884 447.21 228.184 447.21C226.424 447.21 225.064 446.75 224.104 445.83C223.144 444.91 222.664 443.57 222.664 441.81V434.1H220.024V431.1H222.664V427.44H226.414V431.1H230.704V434.1H226.414V441.72C226.414 442.5 226.604 443.1 226.984 443.52C227.364 443.92 227.914 444.12 228.634 444.12C229.474 444.12 230.174 443.9 230.734 443.46L231.784 446.13Z" fill="#FFEFEF"/>
<defs>
<filter id="filter0_i" x="74" y="0" width="175" height="179" filterUnits="userSpaceOnUse" color-interpolation-filters="sRGB">
<feFlood flood-opacity="0" result="BackgroundImageFix"/>
<feBlend mode="normal" in="SourceGraphic" in2="BackgroundImageFix" result="shape"/>
<feColorMatrix in="SourceAlpha" type="matrix" values="0 0 0 0 0 0 0 0 0 0 0 0 0 0 0 0 0 0 127 0" result="hardAlpha"/>
<feOffset dy="4"/>
<feGaussianBlur stdDeviation="2"/>
<feComposite in2="hardAlpha" operator="arithmetic" k2="-1" k3="1"/>
<feColorMatrix type="matrix" values="0 0 0 0 0 0 0 0 0 0 0 0 0 0 0 0 0 0 0.25 0"/>
<feBlend mode="normal" in2="shape" result="effect1_innerShadow"/>
</filter>
<filter id="filter1_i" x="74" y="0" width="175" height="179" filterUnits="userSpaceOnUse" color-interpolation-filters="sRGB">
<feFlood flood-opacity="0" result="BackgroundImageFix"/>
<feBlend mode="normal" in="SourceGraphic" in2="BackgroundImageFix" result="shape"/>
<feColorMatrix in="SourceAlpha" type="matrix" values="0 0 0 0 0 0 0 0 0 0 0 0 0 0 0 0 0 0 127 0" result="hardAlpha"/>
<feOffset dy="4"/>
<feGaussianBlur stdDeviation="2"/>
<feComposite in2="hardAlpha" operator="arithmetic" k2="-1" k3="1"/>
<feColorMatrix type="matrix" values="0 0 0 0 0 0 0 0 0 0 0 0 0 0 0 0 0 0 0.25 0"/>
<feBlend mode="normal" in2="shape" result="effect1_innerShadow"/>
</filter>
<filter id="filter2_i" x="74" y="0" width="175" height="179" filterUnits="userSpaceOnUse" color-interpolation-filters="sRGB">
<feFlood flood-opacity="0" result="BackgroundImageFix"/>
<feBlend mode="normal" in="SourceGraphic" in2="BackgroundImageFix" result="shape"/>
<feColorMatrix in="SourceAlpha" type="matrix" values="0 0 0 0 0 0 0 0 0 0 0 0 0 0 0 0 0 0 127 0" result="hardAlpha"/>
<feOffset dy="4"/>
<feGaussianBlur stdDeviation="2"/>
<feComposite in2="hardAlpha" operator="arithmetic" k2="-1" k3="1"/>
<feColorMatrix type="matrix" values="0 0 0 0 0 0 0 0 0 0 0 0 0 0 0 0 0 0 0.25 0"/>
<feBlend mode="normal" in2="shape" result="effect1_innerShadow"/>
</filter>
<filter id="filter3_i" x="117.511" y="62.2002" width="85.4305" height="49.312" filterUnits="userSpaceOnUse" color-interpolation-filters="sRGB">
<feFlood flood-opacity="0" result="BackgroundImageFix"/>
<feBlend mode="normal" in="SourceGraphic" in2="BackgroundImageFix" result="shape"/>
<feColorMatrix in="SourceAlpha" type="matrix" values="0 0 0 0 0 0 0 0 0 0 0 0 0 0 0 0 0 0 127 0" result="hardAlpha"/>
<feOffset dy="4"/>
<feGaussianBlur stdDeviation="2"/>
<feComposite in2="hardAlpha" operator="arithmetic" k2="-1" k3="1"/>
<feColorMatrix type="matrix" values="0 0 0 0 0 0 0 0 0 0 0 0 0 0 0 0 0 0 0.25 0"/>
<feBlend mode="normal" in2="shape" result="effect1_innerShadow"/>
</filter>
</defs>
</svg>
