<svg width="777" height="202" viewBox="0 0 777 202" fill="none" xmlns="http://www.w3.org/2000/svg">
<path d="M82.6243 202C36.9922 202 0 165.008 0 119.376V119.376C0 81.2118 26.182 47.8455 63.4637 39.6873C307.974 -13.818 468.824 -12.712 713.286 39.9154C750.663 47.9619 777 81.3345 777 119.568V119.568C777 165.094 740.094 202 694.568 202L82.6243 202Z" fill="#412E77"/>
<g filter="url(#filter0_i)">
<g filter="url(#filter1_i)">
<g filter="url(#filter2_i)">
<circle cx="387.818" cy="64" r="56" transform="rotate(-90 387.818 64)" fill="#E0473F"/>
</g>
</g>
</g>
<g filter="url(#filter3_d)">
<path d="M58.9132 172.432C56.3452 172.432 54.0172 171.88 51.9292 170.776C49.8652 169.648 48.2332 168.1 47.0332 166.132C45.8572 164.14 45.2692 161.896 45.2692 159.4C45.2692 156.904 45.8572 154.672 47.0332 152.704C48.2332 150.712 49.8652 149.164 51.9292 148.06C54.0172 146.932 56.3572 146.368 58.9492 146.368C61.1332 146.368 63.1012 146.752 64.8532 147.52C66.6292 148.288 68.1172 149.392 69.3172 150.832L65.5732 154.288C63.8692 152.32 61.7572 151.336 59.2372 151.336C57.6772 151.336 56.2852 151.684 55.0612 152.38C53.8372 153.052 52.8772 154 52.1812 155.224C51.5092 156.448 51.1732 157.84 51.1732 159.4C51.1732 160.96 51.5092 162.352 52.1812 163.576C52.8772 164.8 53.8372 165.76 55.0612 166.456C56.2852 167.128 57.6772 167.464 59.2372 167.464C61.7572 167.464 63.8692 166.468 65.5732 164.476L69.3172 167.932C68.1172 169.396 66.6292 170.512 64.8532 171.28C63.0772 172.048 61.0972 172.432 58.9132 172.432ZM72.8596 145.288H78.4756V172H72.8596V145.288ZM92.9037 172.288C90.8637 172.288 89.0277 171.868 87.3957 171.028C85.7877 170.164 84.5277 168.976 83.6157 167.464C82.7037 165.952 82.2477 164.236 82.2477 162.316C82.2477 160.396 82.7037 158.68 83.6157 157.168C84.5277 155.656 85.7877 154.48 87.3957 153.64C89.0277 152.776 90.8637 152.344 92.9037 152.344C94.9437 152.344 96.7677 152.776 98.3757 153.64C99.9837 154.48 101.244 155.656 102.156 157.168C103.068 158.68 103.524 160.396 103.524 162.316C103.524 164.236 103.068 165.952 102.156 167.464C101.244 168.976 99.9837 170.164 98.3757 171.028C96.7677 171.868 94.9437 172.288 92.9037 172.288ZM92.9037 167.68C94.3437 167.68 95.5197 167.2 96.4317 166.24C97.3677 165.256 97.8357 163.948 97.8357 162.316C97.8357 160.684 97.3677 159.388 96.4317 158.428C95.5197 157.444 94.3437 156.952 92.9037 156.952C91.4637 156.952 90.2757 157.444 89.3397 158.428C88.4037 159.388 87.9357 160.684 87.9357 162.316C87.9357 163.948 88.4037 165.256 89.3397 166.24C90.2757 167.2 91.4637 167.68 92.9037 167.68ZM113.794 172.288C112.186 172.288 110.614 172.096 109.078 171.712C107.542 171.304 106.318 170.8 105.406 170.2L107.278 166.168C108.142 166.72 109.186 167.176 110.41 167.536C111.634 167.872 112.834 168.04 114.01 168.04C116.386 168.04 117.574 167.452 117.574 166.276C117.574 165.724 117.25 165.328 116.602 165.088C115.954 164.848 114.958 164.644 113.614 164.476C112.03 164.236 110.722 163.96 109.69 163.648C108.658 163.336 107.758 162.784 106.99 161.992C106.246 161.2 105.874 160.072 105.874 158.608C105.874 157.384 106.222 156.304 106.918 155.368C107.638 154.408 108.67 153.664 110.014 153.136C111.382 152.608 112.99 152.344 114.838 152.344C116.206 152.344 117.562 152.5 118.906 152.812C120.274 153.1 121.402 153.508 122.29 154.036L120.418 158.032C118.714 157.072 116.854 156.592 114.838 156.592C113.638 156.592 112.738 156.76 112.138 157.096C111.538 157.432 111.238 157.864 111.238 158.392C111.238 158.992 111.562 159.412 112.21 159.652C112.858 159.892 113.89 160.12 115.306 160.336C116.89 160.6 118.186 160.888 119.194 161.2C120.202 161.488 121.078 162.028 121.822 162.82C122.566 163.612 122.938 164.716 122.938 166.132C122.938 167.332 122.578 168.4 121.858 169.336C121.138 170.272 120.082 171.004 118.69 171.532C117.322 172.036 115.69 172.288 113.794 172.288ZM145.375 162.388C145.375 162.46 145.339 162.964 145.267 163.9H130.615C130.879 165.1 131.503 166.048 132.487 166.744C133.471 167.44 134.695 167.788 136.159 167.788C137.167 167.788 138.055 167.644 138.823 167.356C139.615 167.044 140.347 166.564 141.019 165.916L144.007 169.156C142.183 171.244 139.519 172.288 136.015 172.288C133.831 172.288 131.899 171.868 130.219 171.028C128.539 170.164 127.243 168.976 126.331 167.464C125.419 165.952 124.963 164.236 124.963 162.316C124.963 160.42 125.407 158.716 126.295 157.204C127.207 155.668 128.443 154.48 130.003 153.64C131.587 152.776 133.351 152.344 135.295 152.344C137.191 152.344 138.907 152.752 140.443 153.568C141.979 154.384 143.179 155.56 144.043 157.096C144.931 158.608 145.375 160.372 145.375 162.388ZM135.331 156.592C134.059 156.592 132.991 156.952 132.127 157.672C131.263 158.392 130.735 159.376 130.543 160.624H140.083C139.891 159.4 139.363 158.428 138.499 157.708C137.635 156.964 136.579 156.592 135.331 156.592ZM175.761 172L170.901 164.98H170.613H165.537V172H159.705V146.8H170.613C172.845 146.8 174.777 147.172 176.409 147.916C178.065 148.66 179.337 149.716 180.225 151.084C181.113 152.452 181.557 154.072 181.557 155.944C181.557 157.816 181.101 159.436 180.189 160.804C179.301 162.148 178.029 163.18 176.373 163.9L182.025 172H175.761ZM175.653 155.944C175.653 154.528 175.197 153.448 174.285 152.704C173.373 151.936 172.041 151.552 170.289 151.552H165.537V160.336H170.289C172.041 160.336 173.373 159.952 174.285 159.184C175.197 158.416 175.653 157.336 175.653 155.944ZM204.753 162.388C204.753 162.46 204.717 162.964 204.645 163.9H189.993C190.257 165.1 190.881 166.048 191.865 166.744C192.849 167.44 194.073 167.788 195.537 167.788C196.545 167.788 197.433 167.644 198.201 167.356C198.993 167.044 199.725 166.564 200.397 165.916L203.385 169.156C201.561 171.244 198.897 172.288 195.393 172.288C193.209 172.288 191.277 171.868 189.597 171.028C187.917 170.164 186.621 168.976 185.709 167.464C184.797 165.952 184.341 164.236 184.341 162.316C184.341 160.42 184.785 158.716 185.673 157.204C186.585 155.668 187.821 154.48 189.381 153.64C190.965 152.776 192.729 152.344 194.673 152.344C196.569 152.344 198.285 152.752 199.821 153.568C201.357 154.384 202.557 155.56 203.421 157.096C204.309 158.608 204.753 160.372 204.753 162.388ZM194.709 156.592C193.437 156.592 192.369 156.952 191.505 157.672C190.641 158.392 190.113 159.376 189.921 160.624H199.461C199.269 159.4 198.741 158.428 197.877 157.708C197.013 156.964 195.957 156.592 194.709 156.592ZM228.472 152.632V168.76C228.472 172.312 227.548 174.952 225.7 176.68C223.852 178.408 221.152 179.272 217.6 179.272C215.728 179.272 213.952 179.044 212.272 178.588C210.592 178.132 209.2 177.472 208.096 176.608L210.328 172.576C211.144 173.248 212.176 173.776 213.424 174.16C214.672 174.568 215.92 174.772 217.168 174.772C219.112 174.772 220.54 174.328 221.452 173.44C222.388 172.576 222.856 171.256 222.856 169.48V168.652C221.392 170.26 219.352 171.064 216.736 171.064C214.96 171.064 213.328 170.68 211.84 169.912C210.376 169.12 209.212 168.016 208.348 166.6C207.484 165.184 207.052 163.552 207.052 161.704C207.052 159.856 207.484 158.224 208.348 156.808C209.212 155.392 210.376 154.3 211.84 153.532C213.328 152.74 214.96 152.344 216.736 152.344C219.544 152.344 221.68 153.268 223.144 155.116V152.632H228.472ZM217.852 166.456C219.34 166.456 220.552 166.024 221.488 165.16C222.448 164.272 222.928 163.12 222.928 161.704C222.928 160.288 222.448 159.148 221.488 158.284C220.552 157.396 219.34 156.952 217.852 156.952C216.364 156.952 215.14 157.396 214.18 158.284C213.22 159.148 212.74 160.288 212.74 161.704C212.74 163.12 213.22 164.272 214.18 165.16C215.14 166.024 216.364 166.456 217.852 166.456ZM233.699 152.632H239.315V172H233.699V152.632ZM236.507 149.932C235.475 149.932 234.635 149.632 233.987 149.032C233.339 148.432 233.015 147.688 233.015 146.8C233.015 145.912 233.339 145.168 233.987 144.568C234.635 143.968 235.475 143.668 236.507 143.668C237.539 143.668 238.379 143.956 239.027 144.532C239.675 145.108 239.999 145.828 239.999 146.692C239.999 147.628 239.675 148.408 239.027 149.032C238.379 149.632 237.539 149.932 236.507 149.932ZM251.044 172.288C249.436 172.288 247.864 172.096 246.328 171.712C244.792 171.304 243.568 170.8 242.656 170.2L244.528 166.168C245.392 166.72 246.436 167.176 247.66 167.536C248.884 167.872 250.084 168.04 251.26 168.04C253.636 168.04 254.824 167.452 254.824 166.276C254.824 165.724 254.5 165.328 253.852 165.088C253.204 164.848 252.208 164.644 250.864 164.476C249.28 164.236 247.972 163.96 246.94 163.648C245.908 163.336 245.008 162.784 244.24 161.992C243.496 161.2 243.124 160.072 243.124 158.608C243.124 157.384 243.472 156.304 244.168 155.368C244.888 154.408 245.92 153.664 247.264 153.136C248.632 152.608 250.24 152.344 252.088 152.344C253.456 152.344 254.812 152.5 256.156 152.812C257.524 153.1 258.652 153.508 259.54 154.036L257.668 158.032C255.964 157.072 254.104 156.592 252.088 156.592C250.888 156.592 249.988 156.76 249.388 157.096C248.788 157.432 248.488 157.864 248.488 158.392C248.488 158.992 248.812 159.412 249.46 159.652C250.108 159.892 251.14 160.12 252.556 160.336C254.14 160.6 255.436 160.888 256.444 161.2C257.452 161.488 258.328 162.028 259.072 162.82C259.816 163.612 260.188 164.716 260.188 166.132C260.188 167.332 259.828 168.4 259.108 169.336C258.388 170.272 257.332 171.004 255.94 171.532C254.572 172.036 252.94 172.288 251.044 172.288ZM276.145 171.064C275.593 171.472 274.909 171.784 274.093 172C273.301 172.192 272.461 172.288 271.573 172.288C269.269 172.288 267.481 171.7 266.209 170.524C264.961 169.348 264.337 167.62 264.337 165.34V157.384H261.349V153.064H264.337V148.348H269.953V153.064H274.777V157.384H269.953V165.268C269.953 166.084 270.157 166.72 270.565 167.176C270.997 167.608 271.597 167.824 272.365 167.824C273.253 167.824 274.009 167.584 274.633 167.104L276.145 171.064ZM284.661 155.188C285.333 154.252 286.233 153.544 287.361 153.064C288.513 152.584 289.833 152.344 291.321 152.344V157.528C290.697 157.48 290.277 157.456 290.061 157.456C288.453 157.456 287.193 157.912 286.281 158.824C285.369 159.712 284.913 161.056 284.913 162.856V172H279.297V152.632H284.661V155.188ZM302.367 152.344C305.367 152.344 307.671 153.064 309.279 154.504C310.887 155.92 311.691 158.068 311.691 160.948V172H306.435V169.588C305.379 171.388 303.411 172.288 300.531 172.288C299.043 172.288 297.747 172.036 296.643 171.532C295.563 171.028 294.735 170.332 294.159 169.444C293.583 168.556 293.295 167.548 293.295 166.42C293.295 164.62 293.967 163.204 295.311 162.172C296.679 161.14 298.779 160.624 301.611 160.624H306.075C306.075 159.4 305.703 158.464 304.959 157.816C304.215 157.144 303.099 156.808 301.611 156.808C300.579 156.808 299.559 156.976 298.551 157.312C297.567 157.624 296.727 158.056 296.031 158.608L294.015 154.684C295.071 153.94 296.331 153.364 297.795 152.956C299.283 152.548 300.807 152.344 302.367 152.344ZM301.935 168.508C302.895 168.508 303.747 168.292 304.491 167.86C305.235 167.404 305.763 166.744 306.075 165.88V163.9H302.223C299.919 163.9 298.767 164.656 298.767 166.168C298.767 166.888 299.043 167.464 299.595 167.896C300.171 168.304 300.951 168.508 301.935 168.508ZM329.266 171.064C328.714 171.472 328.03 171.784 327.214 172C326.422 172.192 325.582 172.288 324.694 172.288C322.39 172.288 320.602 171.7 319.33 170.524C318.082 169.348 317.458 167.62 317.458 165.34V157.384H314.47V153.064H317.458V148.348H323.074V153.064H327.898V157.384H323.074V165.268C323.074 166.084 323.278 166.72 323.686 167.176C324.118 167.608 324.718 167.824 325.486 167.824C326.374 167.824 327.13 167.584 327.754 167.104L329.266 171.064ZM332.418 152.632H338.034V172H332.418V152.632ZM335.226 149.932C334.194 149.932 333.354 149.632 332.706 149.032C332.058 148.432 331.734 147.688 331.734 146.8C331.734 145.912 332.058 145.168 332.706 144.568C333.354 143.968 334.194 143.668 335.226 143.668C336.258 143.668 337.098 143.956 337.746 144.532C338.394 145.108 338.718 145.828 338.718 146.692C338.718 147.628 338.394 148.408 337.746 149.032C337.098 149.632 336.258 149.932 335.226 149.932ZM352.462 172.288C350.422 172.288 348.586 171.868 346.954 171.028C345.346 170.164 344.086 168.976 343.174 167.464C342.262 165.952 341.806 164.236 341.806 162.316C341.806 160.396 342.262 158.68 343.174 157.168C344.086 155.656 345.346 154.48 346.954 153.64C348.586 152.776 350.422 152.344 352.462 152.344C354.502 152.344 356.326 152.776 357.934 153.64C359.542 154.48 360.802 155.656 361.714 157.168C362.626 158.68 363.082 160.396 363.082 162.316C363.082 164.236 362.626 165.952 361.714 167.464C360.802 168.976 359.542 170.164 357.934 171.028C356.326 171.868 354.502 172.288 352.462 172.288ZM352.462 167.68C353.902 167.68 355.078 167.2 355.99 166.24C356.926 165.256 357.394 163.948 357.394 162.316C357.394 160.684 356.926 159.388 355.99 158.428C355.078 157.444 353.902 156.952 352.462 156.952C351.022 156.952 349.834 157.444 348.898 158.428C347.962 159.388 347.494 160.684 347.494 162.316C347.494 163.948 347.962 165.256 348.898 166.24C349.834 167.2 351.022 167.68 352.462 167.68ZM378.608 152.344C381.008 152.344 382.94 153.064 384.404 154.504C385.892 155.944 386.636 158.08 386.636 160.912V172H381.02V161.776C381.02 160.24 380.684 159.1 380.012 158.356C379.34 157.588 378.368 157.204 377.096 157.204C375.68 157.204 374.552 157.648 373.712 158.536C372.872 159.4 372.452 160.696 372.452 162.424V172H366.836V152.632H372.2V154.9C372.944 154.084 373.868 153.46 374.972 153.028C376.076 152.572 377.288 152.344 378.608 152.344Z" fill="#FFEFEF"/>
</g>
<g filter="url(#filter4_i)">
<path d="M450.02 157.06C452.228 157.42 453.92 158.248 455.096 159.544C456.272 160.816 456.86 162.4 456.86 164.296C456.86 165.76 456.476 167.116 455.708 168.364C454.94 169.588 453.764 170.572 452.18 171.316C450.62 172.06 448.7 172.432 446.42 172.432C444.644 172.432 442.892 172.204 441.164 171.748C439.46 171.268 438.008 170.596 436.808 169.732L439.076 165.268C440.036 165.988 441.14 166.552 442.388 166.96C443.66 167.344 444.956 167.536 446.276 167.536C447.74 167.536 448.892 167.26 449.732 166.708C450.572 166.132 450.992 165.328 450.992 164.296C450.992 162.232 449.42 161.2 446.276 161.2H443.612V157.348L448.796 151.48H438.068V146.8H455.708V150.58L450.02 157.06ZM483.536 172.432C480.92 172.432 478.556 171.868 476.444 170.74C474.356 169.612 472.712 168.064 471.512 166.096C470.336 164.104 469.748 161.872 469.748 159.4C469.748 156.928 470.336 154.708 471.512 152.74C472.712 150.748 474.356 149.188 476.444 148.06C478.556 146.932 480.92 146.368 483.536 146.368C486.152 146.368 488.504 146.932 490.592 148.06C492.68 149.188 494.324 150.748 495.524 152.74C496.724 154.708 497.324 156.928 497.324 159.4C497.324 161.872 496.724 164.104 495.524 166.096C494.324 168.064 492.68 169.612 490.592 170.74C488.504 171.868 486.152 172.432 483.536 172.432ZM483.536 167.464C485.024 167.464 486.368 167.128 487.568 166.456C488.768 165.76 489.704 164.8 490.376 163.576C491.072 162.352 491.42 160.96 491.42 159.4C491.42 157.84 491.072 156.448 490.376 155.224C489.704 154 488.768 153.052 487.568 152.38C486.368 151.684 485.024 151.336 483.536 151.336C482.048 151.336 480.704 151.684 479.504 152.38C478.304 153.052 477.356 154 476.66 155.224C475.988 156.448 475.652 157.84 475.652 159.4C475.652 160.96 475.988 162.352 476.66 163.576C477.356 164.8 478.304 165.76 479.504 166.456C480.704 167.128 482.048 167.464 483.536 167.464ZM510.671 172.288C508.607 172.288 506.747 171.868 505.091 171.028C503.459 170.164 502.175 168.976 501.239 167.464C500.327 165.952 499.871 164.236 499.871 162.316C499.871 160.396 500.327 158.68 501.239 157.168C502.175 155.656 503.459 154.48 505.091 153.64C506.747 152.776 508.607 152.344 510.671 152.344C512.711 152.344 514.487 152.776 515.999 153.64C517.535 154.48 518.651 155.692 519.347 157.276L514.991 159.616C513.983 157.84 512.531 156.952 510.635 156.952C509.171 156.952 507.959 157.432 506.999 158.392C506.039 159.352 505.559 160.66 505.559 162.316C505.559 163.972 506.039 165.28 506.999 166.24C507.959 167.2 509.171 167.68 510.635 167.68C512.555 167.68 514.007 166.792 514.991 165.016L519.347 167.392C518.651 168.928 517.535 170.128 515.999 170.992C514.487 171.856 512.711 172.288 510.671 172.288ZM535.354 171.064C534.802 171.472 534.118 171.784 533.302 172C532.51 172.192 531.67 172.288 530.782 172.288C528.478 172.288 526.69 171.7 525.418 170.524C524.17 169.348 523.546 167.62 523.546 165.34V157.384H520.558V153.064H523.546V148.348H529.162V153.064H533.986V157.384H529.162V165.268C529.162 166.084 529.366 166.72 529.774 167.176C530.206 167.608 530.806 167.824 531.574 167.824C532.462 167.824 533.218 167.584 533.842 167.104L535.354 171.064ZM547.124 172.288C545.084 172.288 543.248 171.868 541.616 171.028C540.008 170.164 538.748 168.976 537.836 167.464C536.924 165.952 536.468 164.236 536.468 162.316C536.468 160.396 536.924 158.68 537.836 157.168C538.748 155.656 540.008 154.48 541.616 153.64C543.248 152.776 545.084 152.344 547.124 152.344C549.164 152.344 550.988 152.776 552.596 153.64C554.204 154.48 555.464 155.656 556.376 157.168C557.288 158.68 557.744 160.396 557.744 162.316C557.744 164.236 557.288 165.952 556.376 167.464C555.464 168.976 554.204 170.164 552.596 171.028C550.988 171.868 549.164 172.288 547.124 172.288ZM547.124 167.68C548.564 167.68 549.74 167.2 550.652 166.24C551.588 165.256 552.056 163.948 552.056 162.316C552.056 160.684 551.588 159.388 550.652 158.428C549.74 157.444 548.564 156.952 547.124 156.952C545.684 156.952 544.496 157.444 543.56 158.428C542.624 159.388 542.156 160.684 542.156 162.316C542.156 163.948 542.624 165.256 543.56 166.24C544.496 167.2 545.684 167.68 547.124 167.68ZM572.946 152.344C574.746 152.344 576.378 152.764 577.842 153.604C579.33 154.42 580.494 155.584 581.334 157.096C582.174 158.584 582.594 160.324 582.594 162.316C582.594 164.308 582.174 166.06 581.334 167.572C580.494 169.06 579.33 170.224 577.842 171.064C576.378 171.88 574.746 172.288 572.946 172.288C570.282 172.288 568.254 171.448 566.862 169.768V172H561.498V145.288H567.114V154.684C568.53 153.124 570.474 152.344 572.946 152.344ZM571.974 167.68C573.414 167.68 574.59 167.2 575.502 166.24C576.438 165.256 576.906 163.948 576.906 162.316C576.906 160.684 576.438 159.388 575.502 158.428C574.59 157.444 573.414 156.952 571.974 156.952C570.534 156.952 569.346 157.444 568.41 158.428C567.498 159.388 567.042 160.684 567.042 162.316C567.042 163.948 567.498 165.256 568.41 166.24C569.346 167.2 570.534 167.68 571.974 167.68ZM605.326 162.388C605.326 162.46 605.29 162.964 605.218 163.9H590.566C590.83 165.1 591.454 166.048 592.438 166.744C593.422 167.44 594.646 167.788 596.11 167.788C597.118 167.788 598.006 167.644 598.774 167.356C599.566 167.044 600.298 166.564 600.97 165.916L603.958 169.156C602.134 171.244 599.47 172.288 595.966 172.288C593.782 172.288 591.85 171.868 590.17 171.028C588.49 170.164 587.194 168.976 586.282 167.464C585.37 165.952 584.914 164.236 584.914 162.316C584.914 160.42 585.358 158.716 586.246 157.204C587.158 155.668 588.394 154.48 589.954 153.64C591.538 152.776 593.302 152.344 595.246 152.344C597.142 152.344 598.858 152.752 600.394 153.568C601.93 154.384 603.13 155.56 603.994 157.096C604.882 158.608 605.326 160.372 605.326 162.388ZM595.282 156.592C594.01 156.592 592.942 156.952 592.078 157.672C591.214 158.392 590.686 159.376 590.494 160.624H600.034C599.842 159.4 599.314 158.428 598.45 157.708C597.586 156.964 596.53 156.592 595.282 156.592ZM614.429 155.188C615.101 154.252 616.001 153.544 617.129 153.064C618.281 152.584 619.601 152.344 621.089 152.344V157.528C620.465 157.48 620.045 157.456 619.829 157.456C618.221 157.456 616.961 157.912 616.049 158.824C615.137 159.712 614.681 161.056 614.681 162.856V172H609.065V152.632H614.429V155.188ZM652.404 167.248V172H633.36V168.22L643.08 159.04C644.112 158.056 644.808 157.216 645.168 156.52C645.528 155.8 645.708 155.092 645.708 154.396C645.708 153.388 645.36 152.62 644.664 152.092C643.992 151.54 642.996 151.264 641.676 151.264C640.572 151.264 639.576 151.48 638.688 151.912C637.8 152.32 637.056 152.944 636.456 153.784L632.208 151.048C633.192 149.584 634.548 148.444 636.276 147.628C638.004 146.788 639.984 146.368 642.216 146.368C644.088 146.368 645.72 146.68 647.112 147.304C648.528 147.904 649.62 148.768 650.388 149.896C651.18 151 651.576 152.308 651.576 153.82C651.576 155.188 651.288 156.472 650.712 157.672C650.136 158.872 649.02 160.24 647.364 161.776L641.568 167.248H652.404ZM665.54 172.432C663.452 172.432 661.592 171.916 659.96 170.884C658.328 169.852 657.044 168.364 656.108 166.42C655.196 164.452 654.74 162.112 654.74 159.4C654.74 156.688 655.196 154.36 656.108 152.416C657.044 150.448 658.328 148.948 659.96 147.916C661.592 146.884 663.452 146.368 665.54 146.368C667.628 146.368 669.488 146.884 671.12 147.916C672.752 148.948 674.024 150.448 674.936 152.416C675.872 154.36 676.34 156.688 676.34 159.4C676.34 162.112 675.872 164.452 674.936 166.42C674.024 168.364 672.752 169.852 671.12 170.884C669.488 171.916 667.628 172.432 665.54 172.432ZM665.54 167.5C667.076 167.5 668.276 166.84 669.14 165.52C670.028 164.2 670.472 162.16 670.472 159.4C670.472 156.64 670.028 154.6 669.14 153.28C668.276 151.96 667.076 151.3 665.54 151.3C664.028 151.3 662.828 151.96 661.94 153.28C661.076 154.6 660.644 156.64 660.644 159.4C660.644 162.16 661.076 164.2 661.94 165.52C662.828 166.84 664.028 167.5 665.54 167.5ZM697.791 167.248V172H678.747V168.22L688.467 159.04C689.499 158.056 690.195 157.216 690.555 156.52C690.915 155.8 691.095 155.092 691.095 154.396C691.095 153.388 690.747 152.62 690.051 152.092C689.379 151.54 688.383 151.264 687.063 151.264C685.959 151.264 684.963 151.48 684.075 151.912C683.187 152.32 682.443 152.944 681.843 153.784L677.595 151.048C678.579 149.584 679.935 148.444 681.663 147.628C683.391 146.788 685.371 146.368 687.603 146.368C689.475 146.368 691.107 146.68 692.499 147.304C693.915 147.904 695.007 148.768 695.775 149.896C696.567 151 696.963 152.308 696.963 153.82C696.963 155.188 696.675 156.472 696.099 157.672C695.523 158.872 694.407 160.24 692.751 161.776L686.955 167.248H697.791ZM710.927 172.432C708.839 172.432 706.979 171.916 705.347 170.884C703.715 169.852 702.431 168.364 701.495 166.42C700.583 164.452 700.127 162.112 700.127 159.4C700.127 156.688 700.583 154.36 701.495 152.416C702.431 150.448 703.715 148.948 705.347 147.916C706.979 146.884 708.839 146.368 710.927 146.368C713.015 146.368 714.875 146.884 716.507 147.916C718.139 148.948 719.411 150.448 720.323 152.416C721.259 154.36 721.727 156.688 721.727 159.4C721.727 162.112 721.259 164.452 720.323 166.42C719.411 168.364 718.139 169.852 716.507 170.884C714.875 171.916 713.015 172.432 710.927 172.432ZM710.927 167.5C712.463 167.5 713.663 166.84 714.527 165.52C715.415 164.2 715.859 162.16 715.859 159.4C715.859 156.64 715.415 154.6 714.527 153.28C713.663 151.96 712.463 151.3 710.927 151.3C709.415 151.3 708.215 151.96 707.327 153.28C706.463 154.6 706.031 156.64 706.031 159.4C706.031 162.16 706.463 164.2 707.327 165.52C708.215 166.84 709.415 167.5 710.927 167.5Z" fill="#FFEFEF"/>
</g>
<path fill-rule="evenodd" clip-rule="evenodd" d="M401.202 32.7951L420.216 50.0577C420.719 50.5158 421 51.1244 421 51.7591V82.1913C421 90.3547 413.46 97 404.186 97H374.205C364.394 97 357 90.6328 357 82.1913V73.9918C357 72.6373 358.261 71.5379 359.815 71.5379C361.369 71.5379 362.63 72.6373 362.63 73.9918V82.1913C362.63 87.927 367.498 92.0921 374.205 92.0921H404.186C410.356 92.0921 415.37 87.6488 415.37 82.1913V52.744L400.999 39.6988V43.9785C400.999 47.2635 404.065 49.9399 407.834 49.9465C409.388 49.9498 410.645 51.0491 410.641 52.407C410.637 53.7583 409.38 54.8544 407.826 54.8544H407.822C400.958 54.8413 395.369 49.9629 395.369 43.9785V36.9471H374.205C367.929 36.9471 362.63 41.41 362.63 46.6942V60.6522C362.63 62.0068 361.369 63.1062 359.815 63.1062C358.261 63.1062 357 62.0068 357 60.6522V46.6942C357 38.75 364.878 32.0393 374.205 32.0393H397.966C398.003 32.0363 398.035 32.0278 398.068 32.0195C398.106 32.0096 398.143 32 398.184 32C398.228 32 398.267 32.0102 398.306 32.0203C398.338 32.0283 398.369 32.0364 398.402 32.0393H399.171C399.937 32.0393 400.669 32.3108 401.202 32.7951ZM385.496 59.6946C385.496 58.3401 386.757 57.2407 388.311 57.2407C389.865 57.2407 391.126 58.3401 391.126 59.6946V65.2602H397.51C399.064 65.2602 400.325 66.3595 400.325 67.7141C400.325 69.0687 399.064 70.168 397.51 70.168H391.126V75.7303C391.126 77.0849 389.865 78.1843 388.311 78.1843C386.757 78.1843 385.496 77.0849 385.496 75.7303V70.168H379.116C377.562 70.168 376.301 69.0687 376.301 67.7141C376.301 66.3595 377.562 65.2602 379.116 65.2602H385.496V59.6946Z" fill="#FFEFEF"/>
<defs>
<filter id="filter0_i" x="331.818" y="8" width="112" height="116" filterUnits="userSpaceOnUse" color-interpolation-filters="sRGB">
<feFlood flood-opacity="0" result="BackgroundImageFix"/>
<feBlend mode="normal" in="SourceGraphic" in2="BackgroundImageFix" result="shape"/>
<feColorMatrix in="SourceAlpha" type="matrix" values="0 0 0 0 0 0 0 0 0 0 0 0 0 0 0 0 0 0 127 0" result="hardAlpha"/>
<feOffset dy="4"/>
<feGaussianBlur stdDeviation="2"/>
<feComposite in2="hardAlpha" operator="arithmetic" k2="-1" k3="1"/>
<feColorMatrix type="matrix" values="0 0 0 0 0 0 0 0 0 0 0 0 0 0 0 0 0 0 0.25 0"/>
<feBlend mode="normal" in2="shape" result="effect1_innerShadow"/>
</filter>
<filter id="filter1_i" x="331.818" y="8" width="112" height="116" filterUnits="userSpaceOnUse" color-interpolation-filters="sRGB">
<feFlood flood-opacity="0" result="BackgroundImageFix"/>
<feBlend mode="normal" in="SourceGraphic" in2="BackgroundImageFix" result="shape"/>
<feColorMatrix in="SourceAlpha" type="matrix" values="0 0 0 0 0 0 0 0 0 0 0 0 0 0 0 0 0 0 127 0" result="hardAlpha"/>
<feOffset dy="4"/>
<feGaussianBlur stdDeviation="2"/>
<feComposite in2="hardAlpha" operator="arithmetic" k2="-1" k3="1"/>
<feColorMatrix type="matrix" values="0 0 0 0 0 0 0 0 0 0 0 0 0 0 0 0 0 0 0.25 0"/>
<feBlend mode="normal" in2="shape" result="effect1_innerShadow"/>
</filter>
<filter id="filter2_i" x="331.818" y="8" width="112" height="116" filterUnits="userSpaceOnUse" color-interpolation-filters="sRGB">
<feFlood flood-opacity="0" result="BackgroundImageFix"/>
<feBlend mode="normal" in="SourceGraphic" in2="BackgroundImageFix" result="shape"/>
<feColorMatrix in="SourceAlpha" type="matrix" values="0 0 0 0 0 0 0 0 0 0 0 0 0 0 0 0 0 0 127 0" result="hardAlpha"/>
<feOffset dy="4"/>
<feGaussianBlur stdDeviation="2"/>
<feComposite in2="hardAlpha" operator="arithmetic" k2="-1" k3="1"/>
<feColorMatrix type="matrix" values="0 0 0 0 0 0 0 0 0 0 0 0 0 0 0 0 0 0 0.25 0"/>
<feBlend mode="normal" in2="shape" result="effect1_innerShadow"/>
</filter>
<filter id="filter3_d" x="41.2695" y="143.668" width="349.367" height="43.604" filterUnits="userSpaceOnUse" color-interpolation-filters="sRGB">
<feFlood flood-opacity="0" result="BackgroundImageFix"/>
<feColorMatrix in="SourceAlpha" type="matrix" values="0 0 0 0 0 0 0 0 0 0 0 0 0 0 0 0 0 0 127 0"/>
<feOffset dy="4"/>
<feGaussianBlur stdDeviation="2"/>
<feColorMatrix type="matrix" values="0 0 0 0 0 0 0 0 0 0 0 0 0 0 0 0 0 0 0.25 0"/>
<feBlend mode="normal" in2="BackgroundImageFix" result="effect1_dropShadow"/>
<feBlend mode="normal" in="SourceGraphic" in2="effect1_dropShadow" result="shape"/>
</filter>
<filter id="filter4_i" x="436.808" y="145.288" width="284.919" height="31.144" filterUnits="userSpaceOnUse" color-interpolation-filters="sRGB">
<feFlood flood-opacity="0" result="BackgroundImageFix"/>
<feBlend mode="normal" in="SourceGraphic" in2="BackgroundImageFix" result="shape"/>
<feColorMatrix in="SourceAlpha" type="matrix" values="0 0 0 0 0 0 0 0 0 0 0 0 0 0 0 0 0 0 127 0" result="hardAlpha"/>
<feOffset dy="4"/>
<feGaussianBlur stdDeviation="2"/>
<feComposite in2="hardAlpha" operator="arithmetic" k2="-1" k3="1"/>
<feColorMatrix type="matrix" values="0 0 0 0 0 0 0 0 0 0 0 0 0 0 0 0 0 0 0.25 0"/>
<feBlend mode="normal" in2="shape" result="effect1_innerShadow"/>
</filter>
</defs>
</svg>
