<svg width="324" height="429" viewBox="0 0 324 429" fill="none" xmlns="http://www.w3.org/2000/svg">
<rect y="429" width="313" height="324" rx="85" transform="rotate(-90 0 429)" fill="#583AA7"/>
<g filter="url(#filter0_i)">
<g filter="url(#filter1_i)">
<g filter="url(#filter2_i)">
<circle cx="161.5" cy="87.5" r="87.5" transform="rotate(-90 161.5 87.5)" fill="#E0473F"/>
</g>
</g>
</g>
<g filter="url(#filter3_i)">
<path fill-rule="evenodd" clip-rule="evenodd" d="M181.828 30.4311L212.725 61.5039C213.543 62.3284 214 63.4239 214 64.5664V119.344C214 134.039 201.747 146 186.677 146H138.598C122.564 146 110 134.292 110 119.344V104.585C110 102.147 112.049 100.168 114.574 100.168C117.099 100.168 119.148 102.147 119.148 104.585V119.344C119.148 129.504 127.51 137.166 138.598 137.166H186.677C196.703 137.166 204.852 129.168 204.852 119.344V66.3392L181.498 42.8579V50.5613C181.498 56.4743 186.481 61.2919 192.605 61.3037C195.13 61.3096 197.173 63.2884 197.167 65.7326C197.161 68.1649 195.118 70.1379 192.593 70.1379H192.586C181.431 70.1143 172.35 61.3331 172.35 50.5613V37.9049H137.311C127.297 37.9049 119.148 45.7732 119.148 55.4496V80.574C119.148 83.0122 117.099 84.9911 114.574 84.9911C112.049 84.9911 110 83.0122 110 80.574V55.4496C110 40.9026 122.253 29.0707 137.311 29.0707H176.577C176.631 29.0654 176.683 29.0506 176.733 29.0359C176.795 29.0178 176.857 29 176.924 29C176.996 29 177.059 29.0183 177.123 29.0365C177.174 29.051 177.224 29.0655 177.278 29.0707H178.528C179.772 29.0707 180.962 29.5595 181.828 30.4311ZM150.317 107.908C149.146 107.908 147.975 107.472 147.084 106.612C145.297 104.886 145.297 102.089 147.084 100.363L154.421 93.2841L147.084 86.199C145.297 84.4734 145.297 81.6818 147.084 79.9562C148.871 78.2306 151.768 78.2306 153.555 79.9562L160.886 87.0412L168.223 79.9562C170.01 78.2306 172.901 78.2306 174.688 79.9562C176.475 81.6818 176.475 84.4734 174.688 86.199L167.357 93.2841L174.688 100.363C176.475 102.089 176.475 104.886 174.688 106.612C173.798 107.472 172.627 107.908 171.456 107.908C170.285 107.908 169.114 107.472 168.223 106.612L160.886 99.5328L153.555 106.612C152.659 107.472 151.488 107.908 150.317 107.908Z" fill="white"/>
</g>
<g filter="url(#filter4_i)">
<path d="M124.72 228.432C122.152 228.432 119.824 227.88 117.736 226.776C115.672 225.648 114.04 224.1 112.84 222.132C111.664 220.14 111.076 217.896 111.076 215.4C111.076 212.904 111.664 210.672 112.84 208.704C114.04 206.712 115.672 205.164 117.736 204.06C119.824 202.932 122.164 202.368 124.756 202.368C126.94 202.368 128.908 202.752 130.66 203.52C132.436 204.288 133.924 205.392 135.124 206.832L131.38 210.288C129.676 208.32 127.564 207.336 125.044 207.336C123.484 207.336 122.092 207.684 120.868 208.38C119.644 209.052 118.684 210 117.988 211.224C117.316 212.448 116.98 213.84 116.98 215.4C116.98 216.96 117.316 218.352 117.988 219.576C118.684 220.8 119.644 221.76 120.868 222.456C122.092 223.128 123.484 223.464 125.044 223.464C127.564 223.464 129.676 222.468 131.38 220.476L135.124 223.932C133.924 225.396 132.436 226.512 130.66 227.28C128.884 228.048 126.904 228.432 124.72 228.432ZM138.666 201.288H144.282V228H138.666V201.288ZM158.71 228.288C156.67 228.288 154.834 227.868 153.202 227.028C151.594 226.164 150.334 224.976 149.422 223.464C148.51 221.952 148.054 220.236 148.054 218.316C148.054 216.396 148.51 214.68 149.422 213.168C150.334 211.656 151.594 210.48 153.202 209.64C154.834 208.776 156.67 208.344 158.71 208.344C160.75 208.344 162.574 208.776 164.182 209.64C165.79 210.48 167.05 211.656 167.962 213.168C168.874 214.68 169.33 216.396 169.33 218.316C169.33 220.236 168.874 221.952 167.962 223.464C167.05 224.976 165.79 226.164 164.182 227.028C162.574 227.868 160.75 228.288 158.71 228.288ZM158.71 223.68C160.15 223.68 161.326 223.2 162.238 222.24C163.174 221.256 163.642 219.948 163.642 218.316C163.642 216.684 163.174 215.388 162.238 214.428C161.326 213.444 160.15 212.952 158.71 212.952C157.27 212.952 156.082 213.444 155.146 214.428C154.21 215.388 153.742 216.684 153.742 218.316C153.742 219.948 154.21 221.256 155.146 222.24C156.082 223.2 157.27 223.68 158.71 223.68ZM179.6 228.288C177.992 228.288 176.42 228.096 174.884 227.712C173.348 227.304 172.124 226.8 171.212 226.2L173.084 222.168C173.948 222.72 174.992 223.176 176.216 223.536C177.44 223.872 178.64 224.04 179.816 224.04C182.192 224.04 183.38 223.452 183.38 222.276C183.38 221.724 183.056 221.328 182.408 221.088C181.76 220.848 180.764 220.644 179.42 220.476C177.836 220.236 176.528 219.96 175.496 219.648C174.464 219.336 173.564 218.784 172.796 217.992C172.052 217.2 171.68 216.072 171.68 214.608C171.68 213.384 172.028 212.304 172.724 211.368C173.444 210.408 174.476 209.664 175.82 209.136C177.188 208.608 178.796 208.344 180.644 208.344C182.012 208.344 183.368 208.5 184.712 208.812C186.08 209.1 187.208 209.508 188.096 210.036L186.224 214.032C184.52 213.072 182.66 212.592 180.644 212.592C179.444 212.592 178.544 212.76 177.944 213.096C177.344 213.432 177.044 213.864 177.044 214.392C177.044 214.992 177.368 215.412 178.016 215.652C178.664 215.892 179.696 216.12 181.112 216.336C182.696 216.6 183.992 216.888 185 217.2C186.008 217.488 186.884 218.028 187.628 218.82C188.372 219.612 188.744 220.716 188.744 222.132C188.744 223.332 188.384 224.4 187.664 225.336C186.944 226.272 185.888 227.004 184.496 227.532C183.128 228.036 181.496 228.288 179.6 228.288ZM211.181 218.388C211.181 218.46 211.145 218.964 211.073 219.9H196.421C196.685 221.1 197.309 222.048 198.293 222.744C199.277 223.44 200.501 223.788 201.965 223.788C202.973 223.788 203.861 223.644 204.629 223.356C205.421 223.044 206.153 222.564 206.825 221.916L209.813 225.156C207.989 227.244 205.325 228.288 201.821 228.288C199.637 228.288 197.705 227.868 196.025 227.028C194.345 226.164 193.049 224.976 192.137 223.464C191.225 221.952 190.769 220.236 190.769 218.316C190.769 216.42 191.213 214.716 192.101 213.204C193.013 211.668 194.249 210.48 195.809 209.64C197.393 208.776 199.157 208.344 201.101 208.344C202.997 208.344 204.713 208.752 206.249 209.568C207.785 210.384 208.985 211.56 209.849 213.096C210.737 214.608 211.181 216.372 211.181 218.388ZM201.137 212.592C199.865 212.592 198.797 212.952 197.933 213.672C197.069 214.392 196.541 215.376 196.349 216.624H205.889C205.697 215.4 205.169 214.428 204.305 213.708C203.441 212.964 202.385 212.592 201.137 212.592ZM63.835 272L58.975 264.98H58.687H53.611V272H47.779V246.8H58.687C60.919 246.8 62.851 247.172 64.483 247.916C66.139 248.66 67.411 249.716 68.299 251.084C69.187 252.452 69.631 254.072 69.631 255.944C69.631 257.816 69.175 259.436 68.263 260.804C67.375 262.148 66.103 263.18 64.447 263.9L70.099 272H63.835ZM63.727 255.944C63.727 254.528 63.271 253.448 62.359 252.704C61.447 251.936 60.115 251.552 58.363 251.552H53.611V260.336H58.363C60.115 260.336 61.447 259.952 62.359 259.184C63.271 258.416 63.727 257.336 63.727 255.944ZM92.8277 262.388C92.8277 262.46 92.7917 262.964 92.7197 263.9H78.0677C78.3317 265.1 78.9557 266.048 79.9397 266.744C80.9237 267.44 82.1477 267.788 83.6117 267.788C84.6197 267.788 85.5077 267.644 86.2757 267.356C87.0677 267.044 87.7997 266.564 88.4717 265.916L91.4597 269.156C89.6357 271.244 86.9717 272.288 83.4677 272.288C81.2837 272.288 79.3517 271.868 77.6717 271.028C75.9917 270.164 74.6957 268.976 73.7837 267.464C72.8717 265.952 72.4157 264.236 72.4157 262.316C72.4157 260.42 72.8597 258.716 73.7477 257.204C74.6597 255.668 75.8957 254.48 77.4557 253.64C79.0397 252.776 80.8037 252.344 82.7477 252.344C84.6437 252.344 86.3597 252.752 87.8957 253.568C89.4317 254.384 90.6317 255.56 91.4957 257.096C92.3837 258.608 92.8277 260.372 92.8277 262.388ZM82.7837 256.592C81.5117 256.592 80.4437 256.952 79.5797 257.672C78.7157 258.392 78.1877 259.376 77.9957 260.624H87.5357C87.3437 259.4 86.8157 258.428 85.9517 257.708C85.0877 256.964 84.0317 256.592 82.7837 256.592ZM116.547 252.632V268.76C116.547 272.312 115.623 274.952 113.775 276.68C111.927 278.408 109.227 279.272 105.675 279.272C103.803 279.272 102.027 279.044 100.347 278.588C98.6666 278.132 97.2746 277.472 96.1706 276.608L98.4026 272.576C99.2186 273.248 100.251 273.776 101.499 274.16C102.747 274.568 103.995 274.772 105.243 274.772C107.187 274.772 108.615 274.328 109.527 273.44C110.463 272.576 110.931 271.256 110.931 269.48V268.652C109.467 270.26 107.427 271.064 104.811 271.064C103.035 271.064 101.403 270.68 99.9146 269.912C98.4506 269.12 97.2866 268.016 96.4226 266.6C95.5586 265.184 95.1266 263.552 95.1266 261.704C95.1266 259.856 95.5586 258.224 96.4226 256.808C97.2866 255.392 98.4506 254.3 99.9146 253.532C101.403 252.74 103.035 252.344 104.811 252.344C107.619 252.344 109.755 253.268 111.219 255.116V252.632H116.547ZM105.927 266.456C107.415 266.456 108.627 266.024 109.563 265.16C110.523 264.272 111.003 263.12 111.003 261.704C111.003 260.288 110.523 259.148 109.563 258.284C108.627 257.396 107.415 256.952 105.927 256.952C104.439 256.952 103.215 257.396 102.255 258.284C101.295 259.148 100.815 260.288 100.815 261.704C100.815 263.12 101.295 264.272 102.255 265.16C103.215 266.024 104.439 266.456 105.927 266.456ZM121.774 252.632H127.39V272H121.774V252.632ZM124.582 249.932C123.55 249.932 122.71 249.632 122.062 249.032C121.414 248.432 121.09 247.688 121.09 246.8C121.09 245.912 121.414 245.168 122.062 244.568C122.71 243.968 123.55 243.668 124.582 243.668C125.614 243.668 126.454 243.956 127.102 244.532C127.75 245.108 128.074 245.828 128.074 246.692C128.074 247.628 127.75 248.408 127.102 249.032C126.454 249.632 125.614 249.932 124.582 249.932ZM139.118 272.288C137.51 272.288 135.938 272.096 134.402 271.712C132.866 271.304 131.642 270.8 130.73 270.2L132.602 266.168C133.466 266.72 134.51 267.176 135.734 267.536C136.958 267.872 138.158 268.04 139.334 268.04C141.71 268.04 142.898 267.452 142.898 266.276C142.898 265.724 142.574 265.328 141.926 265.088C141.278 264.848 140.282 264.644 138.938 264.476C137.354 264.236 136.046 263.96 135.014 263.648C133.982 263.336 133.082 262.784 132.314 261.992C131.57 261.2 131.198 260.072 131.198 258.608C131.198 257.384 131.546 256.304 132.242 255.368C132.962 254.408 133.994 253.664 135.338 253.136C136.706 252.608 138.314 252.344 140.162 252.344C141.53 252.344 142.886 252.5 144.23 252.812C145.598 253.1 146.726 253.508 147.614 254.036L145.742 258.032C144.038 257.072 142.178 256.592 140.162 256.592C138.962 256.592 138.062 256.76 137.462 257.096C136.862 257.432 136.562 257.864 136.562 258.392C136.562 258.992 136.886 259.412 137.534 259.652C138.182 259.892 139.214 260.12 140.63 260.336C142.214 260.6 143.51 260.888 144.518 261.2C145.526 261.488 146.402 262.028 147.146 262.82C147.89 263.612 148.262 264.716 148.262 266.132C148.262 267.332 147.902 268.4 147.182 269.336C146.462 270.272 145.406 271.004 144.014 271.532C142.646 272.036 141.014 272.288 139.118 272.288ZM164.219 271.064C163.667 271.472 162.983 271.784 162.167 272C161.375 272.192 160.535 272.288 159.647 272.288C157.343 272.288 155.555 271.7 154.283 270.524C153.035 269.348 152.411 267.62 152.411 265.34V257.384H149.423V253.064H152.411V248.348H158.027V253.064H162.851V257.384H158.027V265.268C158.027 266.084 158.231 266.72 158.639 267.176C159.071 267.608 159.671 267.824 160.439 267.824C161.327 267.824 162.083 267.584 162.707 267.104L164.219 271.064ZM172.735 255.188C173.407 254.252 174.307 253.544 175.435 253.064C176.587 252.584 177.907 252.344 179.395 252.344V257.528C178.771 257.48 178.351 257.456 178.135 257.456C176.527 257.456 175.267 257.912 174.355 258.824C173.443 259.712 172.987 261.056 172.987 262.856V272H167.371V252.632H172.735V255.188ZM190.441 252.344C193.441 252.344 195.745 253.064 197.353 254.504C198.961 255.92 199.765 258.068 199.765 260.948V272H194.509V269.588C193.453 271.388 191.485 272.288 188.605 272.288C187.117 272.288 185.821 272.036 184.717 271.532C183.637 271.028 182.809 270.332 182.233 269.444C181.657 268.556 181.369 267.548 181.369 266.42C181.369 264.62 182.041 263.204 183.385 262.172C184.753 261.14 186.853 260.624 189.685 260.624H194.149C194.149 259.4 193.777 258.464 193.033 257.816C192.289 257.144 191.173 256.808 189.685 256.808C188.653 256.808 187.633 256.976 186.625 257.312C185.641 257.624 184.801 258.056 184.105 258.608L182.089 254.684C183.145 253.94 184.405 253.364 185.869 252.956C187.357 252.548 188.881 252.344 190.441 252.344ZM190.009 268.508C190.969 268.508 191.821 268.292 192.565 267.86C193.309 267.404 193.837 266.744 194.149 265.88V263.9H190.297C187.993 263.9 186.841 264.656 186.841 266.168C186.841 266.888 187.117 267.464 187.669 267.896C188.245 268.304 189.025 268.508 190.009 268.508ZM217.34 271.064C216.788 271.472 216.104 271.784 215.288 272C214.496 272.192 213.656 272.288 212.768 272.288C210.464 272.288 208.676 271.7 207.404 270.524C206.156 269.348 205.532 267.62 205.532 265.34V257.384H202.544V253.064H205.532V248.348H211.148V253.064H215.972V257.384H211.148V265.268C211.148 266.084 211.352 266.72 211.76 267.176C212.192 267.608 212.792 267.824 213.56 267.824C214.448 267.824 215.204 267.584 215.828 267.104L217.34 271.064ZM220.492 252.632H226.108V272H220.492V252.632ZM223.3 249.932C222.268 249.932 221.428 249.632 220.78 249.032C220.132 248.432 219.808 247.688 219.808 246.8C219.808 245.912 220.132 245.168 220.78 244.568C221.428 243.968 222.268 243.668 223.3 243.668C224.332 243.668 225.172 243.956 225.82 244.532C226.468 245.108 226.792 245.828 226.792 246.692C226.792 247.628 226.468 248.408 225.82 249.032C225.172 249.632 224.332 249.932 223.3 249.932ZM240.537 272.288C238.497 272.288 236.661 271.868 235.029 271.028C233.421 270.164 232.161 268.976 231.249 267.464C230.337 265.952 229.881 264.236 229.881 262.316C229.881 260.396 230.337 258.68 231.249 257.168C232.161 255.656 233.421 254.48 235.029 253.64C236.661 252.776 238.497 252.344 240.537 252.344C242.577 252.344 244.401 252.776 246.009 253.64C247.617 254.48 248.877 255.656 249.789 257.168C250.701 258.68 251.157 260.396 251.157 262.316C251.157 264.236 250.701 265.952 249.789 267.464C248.877 268.976 247.617 270.164 246.009 271.028C244.401 271.868 242.577 272.288 240.537 272.288ZM240.537 267.68C241.977 267.68 243.153 267.2 244.065 266.24C245.001 265.256 245.469 263.948 245.469 262.316C245.469 260.684 245.001 259.388 244.065 258.428C243.153 257.444 241.977 256.952 240.537 256.952C239.097 256.952 237.909 257.444 236.973 258.428C236.037 259.388 235.569 260.684 235.569 262.316C235.569 263.948 236.037 265.256 236.973 266.24C237.909 267.2 239.097 267.68 240.537 267.68ZM266.682 252.344C269.082 252.344 271.014 253.064 272.478 254.504C273.966 255.944 274.71 258.08 274.71 260.912V272H269.094V261.776C269.094 260.24 268.758 259.1 268.086 258.356C267.414 257.588 266.442 257.204 265.17 257.204C263.754 257.204 262.626 257.648 261.786 258.536C260.946 259.4 260.526 260.696 260.526 262.424V272H254.91V252.632H260.274V254.9C261.018 254.084 261.942 253.46 263.046 253.028C264.15 252.572 265.362 252.344 266.682 252.344Z" fill="#FFEFEF"/>
</g>
<g filter="url(#filter5_i)">
<path d="M35.5198 343.06C37.7278 343.42 39.4198 344.248 40.5958 345.544C41.7718 346.816 42.3598 348.4 42.3598 350.296C42.3598 351.76 41.9758 353.116 41.2078 354.364C40.4398 355.588 39.2638 356.572 37.6798 357.316C36.1198 358.06 34.1998 358.432 31.9198 358.432C30.1438 358.432 28.3918 358.204 26.6638 357.748C24.9598 357.268 23.5078 356.596 22.3077 355.732L24.5758 351.268C25.5358 351.988 26.6398 352.552 27.8878 352.96C29.1598 353.344 30.4558 353.536 31.7758 353.536C33.2398 353.536 34.3918 353.26 35.2318 352.708C36.0718 352.132 36.4918 351.328 36.4918 350.296C36.4918 348.232 34.9198 347.2 31.7758 347.2H29.1118V343.348L34.2958 337.48H23.5678V332.8H41.2078V336.58L35.5198 343.06ZM69.0358 358.432C66.4198 358.432 64.0558 357.868 61.9438 356.74C59.8558 355.612 58.2118 354.064 57.0118 352.096C55.8358 350.104 55.2478 347.872 55.2478 345.4C55.2478 342.928 55.8358 340.708 57.0118 338.74C58.2118 336.748 59.8558 335.188 61.9438 334.06C64.0558 332.932 66.4198 332.368 69.0358 332.368C71.6518 332.368 74.0038 332.932 76.0918 334.06C78.1798 335.188 79.8238 336.748 81.0238 338.74C82.2238 340.708 82.8238 342.928 82.8238 345.4C82.8238 347.872 82.2238 350.104 81.0238 352.096C79.8238 354.064 78.1798 355.612 76.0918 356.74C74.0038 357.868 71.6518 358.432 69.0358 358.432ZM69.0358 353.464C70.5238 353.464 71.8678 353.128 73.0678 352.456C74.2678 351.76 75.2038 350.8 75.8758 349.576C76.5718 348.352 76.9198 346.96 76.9198 345.4C76.9198 343.84 76.5718 342.448 75.8758 341.224C75.2038 340 74.2678 339.052 73.0678 338.38C71.8678 337.684 70.5238 337.336 69.0358 337.336C67.5478 337.336 66.2038 337.684 65.0038 338.38C63.8038 339.052 62.8558 340 62.1598 341.224C61.4878 342.448 61.1518 343.84 61.1518 345.4C61.1518 346.96 61.4878 348.352 62.1598 349.576C62.8558 350.8 63.8038 351.76 65.0038 352.456C66.2038 353.128 67.5478 353.464 69.0358 353.464ZM96.1708 358.288C94.1068 358.288 92.2468 357.868 90.5908 357.028C88.9588 356.164 87.6748 354.976 86.7388 353.464C85.8268 351.952 85.3708 350.236 85.3708 348.316C85.3708 346.396 85.8268 344.68 86.7388 343.168C87.6748 341.656 88.9588 340.48 90.5908 339.64C92.2468 338.776 94.1068 338.344 96.1708 338.344C98.2108 338.344 99.9868 338.776 101.499 339.64C103.035 340.48 104.151 341.692 104.847 343.276L100.491 345.616C99.4828 343.84 98.0308 342.952 96.1348 342.952C94.6708 342.952 93.4588 343.432 92.4988 344.392C91.5388 345.352 91.0588 346.66 91.0588 348.316C91.0588 349.972 91.5388 351.28 92.4988 352.24C93.4588 353.2 94.6708 353.68 96.1348 353.68C98.0548 353.68 99.5068 352.792 100.491 351.016L104.847 353.392C104.151 354.928 103.035 356.128 101.499 356.992C99.9868 357.856 98.2108 358.288 96.1708 358.288ZM120.854 357.064C120.302 357.472 119.618 357.784 118.802 358C118.01 358.192 117.17 358.288 116.282 358.288C113.978 358.288 112.19 357.7 110.918 356.524C109.67 355.348 109.046 353.62 109.046 351.34V343.384H106.058V339.064H109.046V334.348H114.662V339.064H119.486V343.384H114.662V351.268C114.662 352.084 114.866 352.72 115.274 353.176C115.706 353.608 116.306 353.824 117.074 353.824C117.962 353.824 118.718 353.584 119.342 353.104L120.854 357.064ZM132.624 358.288C130.584 358.288 128.748 357.868 127.116 357.028C125.508 356.164 124.248 354.976 123.336 353.464C122.424 351.952 121.968 350.236 121.968 348.316C121.968 346.396 122.424 344.68 123.336 343.168C124.248 341.656 125.508 340.48 127.116 339.64C128.748 338.776 130.584 338.344 132.624 338.344C134.664 338.344 136.488 338.776 138.096 339.64C139.704 340.48 140.964 341.656 141.876 343.168C142.788 344.68 143.244 346.396 143.244 348.316C143.244 350.236 142.788 351.952 141.876 353.464C140.964 354.976 139.704 356.164 138.096 357.028C136.488 357.868 134.664 358.288 132.624 358.288ZM132.624 353.68C134.064 353.68 135.24 353.2 136.152 352.24C137.088 351.256 137.556 349.948 137.556 348.316C137.556 346.684 137.088 345.388 136.152 344.428C135.24 343.444 134.064 342.952 132.624 342.952C131.184 342.952 129.996 343.444 129.06 344.428C128.124 345.388 127.656 346.684 127.656 348.316C127.656 349.948 128.124 351.256 129.06 352.24C129.996 353.2 131.184 353.68 132.624 353.68ZM158.446 338.344C160.246 338.344 161.878 338.764 163.342 339.604C164.83 340.42 165.994 341.584 166.834 343.096C167.674 344.584 168.094 346.324 168.094 348.316C168.094 350.308 167.674 352.06 166.834 353.572C165.994 355.06 164.83 356.224 163.342 357.064C161.878 357.88 160.246 358.288 158.446 358.288C155.782 358.288 153.754 357.448 152.362 355.768V358H146.998V331.288H152.614V340.684C154.03 339.124 155.974 338.344 158.446 338.344ZM157.474 353.68C158.914 353.68 160.09 353.2 161.002 352.24C161.938 351.256 162.406 349.948 162.406 348.316C162.406 346.684 161.938 345.388 161.002 344.428C160.09 343.444 158.914 342.952 157.474 342.952C156.034 342.952 154.846 343.444 153.91 344.428C152.998 345.388 152.542 346.684 152.542 348.316C152.542 349.948 152.998 351.256 153.91 352.24C154.846 353.2 156.034 353.68 157.474 353.68ZM190.826 348.388C190.826 348.46 190.79 348.964 190.718 349.9H176.066C176.33 351.1 176.954 352.048 177.938 352.744C178.922 353.44 180.146 353.788 181.61 353.788C182.618 353.788 183.506 353.644 184.274 353.356C185.066 353.044 185.798 352.564 186.47 351.916L189.458 355.156C187.634 357.244 184.97 358.288 181.466 358.288C179.282 358.288 177.35 357.868 175.67 357.028C173.99 356.164 172.694 354.976 171.782 353.464C170.87 351.952 170.414 350.236 170.414 348.316C170.414 346.42 170.858 344.716 171.746 343.204C172.658 341.668 173.894 340.48 175.454 339.64C177.038 338.776 178.802 338.344 180.746 338.344C182.642 338.344 184.358 338.752 185.894 339.568C187.43 340.384 188.63 341.56 189.494 343.096C190.382 344.608 190.826 346.372 190.826 348.388ZM180.782 342.592C179.51 342.592 178.442 342.952 177.578 343.672C176.714 344.392 176.186 345.376 175.994 346.624H185.534C185.342 345.4 184.814 344.428 183.95 343.708C183.086 342.964 182.03 342.592 180.782 342.592ZM199.929 341.188C200.601 340.252 201.501 339.544 202.629 339.064C203.781 338.584 205.101 338.344 206.589 338.344V343.528C205.965 343.48 205.545 343.456 205.329 343.456C203.721 343.456 202.461 343.912 201.549 344.824C200.637 345.712 200.181 347.056 200.181 348.856V358H194.565V338.632H199.929V341.188ZM237.904 353.248V358H218.86V354.22L228.58 345.04C229.612 344.056 230.308 343.216 230.668 342.52C231.028 341.8 231.208 341.092 231.208 340.396C231.208 339.388 230.86 338.62 230.164 338.092C229.492 337.54 228.496 337.264 227.176 337.264C226.072 337.264 225.076 337.48 224.188 337.912C223.3 338.32 222.556 338.944 221.956 339.784L217.708 337.048C218.692 335.584 220.048 334.444 221.776 333.628C223.504 332.788 225.484 332.368 227.716 332.368C229.588 332.368 231.22 332.68 232.612 333.304C234.028 333.904 235.12 334.768 235.888 335.896C236.68 337 237.076 338.308 237.076 339.82C237.076 341.188 236.788 342.472 236.212 343.672C235.636 344.872 234.52 346.24 232.864 347.776L227.068 353.248H237.904ZM251.04 358.432C248.952 358.432 247.092 357.916 245.46 356.884C243.828 355.852 242.544 354.364 241.608 352.42C240.696 350.452 240.24 348.112 240.24 345.4C240.24 342.688 240.696 340.36 241.608 338.416C242.544 336.448 243.828 334.948 245.46 333.916C247.092 332.884 248.952 332.368 251.04 332.368C253.128 332.368 254.988 332.884 256.62 333.916C258.252 334.948 259.524 336.448 260.436 338.416C261.372 340.36 261.84 342.688 261.84 345.4C261.84 348.112 261.372 350.452 260.436 352.42C259.524 354.364 258.252 355.852 256.62 356.884C254.988 357.916 253.128 358.432 251.04 358.432ZM251.04 353.5C252.576 353.5 253.776 352.84 254.64 351.52C255.528 350.2 255.972 348.16 255.972 345.4C255.972 342.64 255.528 340.6 254.64 339.28C253.776 337.96 252.576 337.3 251.04 337.3C249.528 337.3 248.328 337.96 247.44 339.28C246.576 340.6 246.144 342.64 246.144 345.4C246.144 348.16 246.576 350.2 247.44 351.52C248.328 352.84 249.528 353.5 251.04 353.5ZM283.291 353.248V358H264.247V354.22L273.967 345.04C274.999 344.056 275.695 343.216 276.055 342.52C276.415 341.8 276.595 341.092 276.595 340.396C276.595 339.388 276.247 338.62 275.551 338.092C274.879 337.54 273.883 337.264 272.563 337.264C271.459 337.264 270.463 337.48 269.575 337.912C268.687 338.32 267.943 338.944 267.343 339.784L263.095 337.048C264.079 335.584 265.435 334.444 267.163 333.628C268.891 332.788 270.871 332.368 273.103 332.368C274.975 332.368 276.607 332.68 277.999 333.304C279.415 333.904 280.507 334.768 281.275 335.896C282.067 337 282.463 338.308 282.463 339.82C282.463 341.188 282.175 342.472 281.599 343.672C281.023 344.872 279.907 346.24 278.251 347.776L272.455 353.248H283.291ZM296.427 358.432C294.339 358.432 292.479 357.916 290.847 356.884C289.215 355.852 287.931 354.364 286.995 352.42C286.083 350.452 285.627 348.112 285.627 345.4C285.627 342.688 286.083 340.36 286.995 338.416C287.931 336.448 289.215 334.948 290.847 333.916C292.479 332.884 294.339 332.368 296.427 332.368C298.515 332.368 300.375 332.884 302.007 333.916C303.639 334.948 304.911 336.448 305.823 338.416C306.759 340.36 307.227 342.688 307.227 345.4C307.227 348.112 306.759 350.452 305.823 352.42C304.911 354.364 303.639 355.852 302.007 356.884C300.375 357.916 298.515 358.432 296.427 358.432ZM296.427 353.5C297.963 353.5 299.163 352.84 300.027 351.52C300.915 350.2 301.359 348.16 301.359 345.4C301.359 342.64 300.915 340.6 300.027 339.28C299.163 337.96 297.963 337.3 296.427 337.3C294.915 337.3 293.715 337.96 292.827 339.28C291.963 340.6 291.531 342.64 291.531 345.4C291.531 348.16 291.963 350.2 292.827 351.52C293.715 352.84 294.915 353.5 296.427 353.5Z" fill="#FFEFEF"/>
</g>
<defs>
<filter id="filter0_i" x="74" y="0" width="175" height="179" filterUnits="userSpaceOnUse" color-interpolation-filters="sRGB">
<feFlood flood-opacity="0" result="BackgroundImageFix"/>
<feBlend mode="normal" in="SourceGraphic" in2="BackgroundImageFix" result="shape"/>
<feColorMatrix in="SourceAlpha" type="matrix" values="0 0 0 0 0 0 0 0 0 0 0 0 0 0 0 0 0 0 127 0" result="hardAlpha"/>
<feOffset dy="4"/>
<feGaussianBlur stdDeviation="2"/>
<feComposite in2="hardAlpha" operator="arithmetic" k2="-1" k3="1"/>
<feColorMatrix type="matrix" values="0 0 0 0 0 0 0 0 0 0 0 0 0 0 0 0 0 0 0.25 0"/>
<feBlend mode="normal" in2="shape" result="effect1_innerShadow"/>
</filter>
<filter id="filter1_i" x="74" y="0" width="175" height="179" filterUnits="userSpaceOnUse" color-interpolation-filters="sRGB">
<feFlood flood-opacity="0" result="BackgroundImageFix"/>
<feBlend mode="normal" in="SourceGraphic" in2="BackgroundImageFix" result="shape"/>
<feColorMatrix in="SourceAlpha" type="matrix" values="0 0 0 0 0 0 0 0 0 0 0 0 0 0 0 0 0 0 127 0" result="hardAlpha"/>
<feOffset dy="4"/>
<feGaussianBlur stdDeviation="2"/>
<feComposite in2="hardAlpha" operator="arithmetic" k2="-1" k3="1"/>
<feColorMatrix type="matrix" values="0 0 0 0 0 0 0 0 0 0 0 0 0 0 0 0 0 0 0.25 0"/>
<feBlend mode="normal" in2="shape" result="effect1_innerShadow"/>
</filter>
<filter id="filter2_i" x="74" y="0" width="175" height="179" filterUnits="userSpaceOnUse" color-interpolation-filters="sRGB">
<feFlood flood-opacity="0" result="BackgroundImageFix"/>
<feBlend mode="normal" in="SourceGraphic" in2="BackgroundImageFix" result="shape"/>
<feColorMatrix in="SourceAlpha" type="matrix" values="0 0 0 0 0 0 0 0 0 0 0 0 0 0 0 0 0 0 127 0" result="hardAlpha"/>
<feOffset dy="4"/>
<feGaussianBlur stdDeviation="2"/>
<feComposite in2="hardAlpha" operator="arithmetic" k2="-1" k3="1"/>
<feColorMatrix type="matrix" values="0 0 0 0 0 0 0 0 0 0 0 0 0 0 0 0 0 0 0.25 0"/>
<feBlend mode="normal" in2="shape" result="effect1_innerShadow"/>
</filter>
<filter id="filter3_i" x="110" y="29" width="104" height="121" filterUnits="userSpaceOnUse" color-interpolation-filters="sRGB">
<feFlood flood-opacity="0" result="BackgroundImageFix"/>
<feBlend mode="normal" in="SourceGraphic" in2="BackgroundImageFix" result="shape"/>
<feColorMatrix in="SourceAlpha" type="matrix" values="0 0 0 0 0 0 0 0 0 0 0 0 0 0 0 0 0 0 127 0" result="hardAlpha"/>
<feOffset dy="4"/>
<feGaussianBlur stdDeviation="2"/>
<feComposite in2="hardAlpha" operator="arithmetic" k2="-1" k3="1"/>
<feColorMatrix type="matrix" values="0 0 0 0 0 0 0 0 0 0 0 0 0 0 0 0 0 0 0.25 0"/>
<feBlend mode="normal" in2="shape" result="effect1_innerShadow"/>
</filter>
<filter id="filter4_i" x="47.7793" y="201.288" width="226.931" height="81.984" filterUnits="userSpaceOnUse" color-interpolation-filters="sRGB">
<feFlood flood-opacity="0" result="BackgroundImageFix"/>
<feBlend mode="normal" in="SourceGraphic" in2="BackgroundImageFix" result="shape"/>
<feColorMatrix in="SourceAlpha" type="matrix" values="0 0 0 0 0 0 0 0 0 0 0 0 0 0 0 0 0 0 127 0" result="hardAlpha"/>
<feOffset dy="4"/>
<feGaussianBlur stdDeviation="2"/>
<feComposite in2="hardAlpha" operator="arithmetic" k2="-1" k3="1"/>
<feColorMatrix type="matrix" values="0 0 0 0 0 0 0 0 0 0 0 0 0 0 0 0 0 0 0.25 0"/>
<feBlend mode="normal" in2="shape" result="effect1_innerShadow"/>
</filter>
<filter id="filter5_i" x="22.3076" y="331.288" width="284.919" height="31.144" filterUnits="userSpaceOnUse" color-interpolation-filters="sRGB">
<feFlood flood-opacity="0" result="BackgroundImageFix"/>
<feBlend mode="normal" in="SourceGraphic" in2="BackgroundImageFix" result="shape"/>
<feColorMatrix in="SourceAlpha" type="matrix" values="0 0 0 0 0 0 0 0 0 0 0 0 0 0 0 0 0 0 127 0" result="hardAlpha"/>
<feOffset dy="4"/>
<feGaussianBlur stdDeviation="2"/>
<feComposite in2="hardAlpha" operator="arithmetic" k2="-1" k3="1"/>
<feColorMatrix type="matrix" values="0 0 0 0 0 0 0 0 0 0 0 0 0 0 0 0 0 0 0.25 0"/>
<feBlend mode="normal" in2="shape" result="effect1_innerShadow"/>
</filter>
</defs>
</svg>
