<svg width="799" height="202" viewBox="0 0 799 202" fill="none" xmlns="http://www.w3.org/2000/svg">
<path d="M122.827 202C77.0828 202 40 164.917 40 119.173V119.173C40 81.083 66.0243 47.7263 103.198 39.4179C340.963 -13.7237 497.831 -12.6274 735.547 39.6478C772.818 47.844 799 81.2078 799 119.37V119.37C799 165.005 762.005 202 716.37 202L122.827 202Z" fill="#412E77"/>
<g filter="url(#filter0_i)">
<g filter="url(#filter1_i)">
<g filter="url(#filter2_i)">
<circle cx="420.132" cy="64" r="56" transform="rotate(-90 420.132 64)" fill="#E0473F"/>
</g>
</g>
</g>
<g filter="url(#filter3_d)">
<path d="M79.3507 173.432C76.7827 173.432 74.4547 172.88 72.3667 171.776C70.3027 170.648 68.6707 169.1 67.4707 167.132C66.2947 165.14 65.7067 162.896 65.7067 160.4C65.7067 157.904 66.2947 155.672 67.4707 153.704C68.6707 151.712 70.3027 150.164 72.3667 149.06C74.4547 147.932 76.7947 147.368 79.3867 147.368C81.5707 147.368 83.5387 147.752 85.2907 148.52C87.0667 149.288 88.5547 150.392 89.7547 151.832L86.0107 155.288C84.3067 153.32 82.1947 152.336 79.6747 152.336C78.1147 152.336 76.7227 152.684 75.4987 153.38C74.2747 154.052 73.3147 155 72.6187 156.224C71.9467 157.448 71.6107 158.84 71.6107 160.4C71.6107 161.96 71.9467 163.352 72.6187 164.576C73.3147 165.8 74.2747 166.76 75.4987 167.456C76.7227 168.128 78.1147 168.464 79.6747 168.464C82.1947 168.464 84.3067 167.468 86.0107 165.476L89.7547 168.932C88.5547 170.396 87.0667 171.512 85.2907 172.28C83.5147 173.048 81.5347 173.432 79.3507 173.432ZM101.845 173.288C99.8051 173.288 97.9691 172.868 96.3371 172.028C94.7291 171.164 93.4691 169.976 92.5571 168.464C91.6451 166.952 91.1891 165.236 91.1891 163.316C91.1891 161.396 91.6451 159.68 92.5571 158.168C93.4691 156.656 94.7291 155.48 96.3371 154.64C97.9691 153.776 99.8051 153.344 101.845 153.344C103.885 153.344 105.709 153.776 107.317 154.64C108.925 155.48 110.185 156.656 111.097 158.168C112.009 159.68 112.465 161.396 112.465 163.316C112.465 165.236 112.009 166.952 111.097 168.464C110.185 169.976 108.925 171.164 107.317 172.028C105.709 172.868 103.885 173.288 101.845 173.288ZM101.845 168.68C103.285 168.68 104.461 168.2 105.373 167.24C106.309 166.256 106.777 164.948 106.777 163.316C106.777 161.684 106.309 160.388 105.373 159.428C104.461 158.444 103.285 157.952 101.845 157.952C100.405 157.952 99.2171 158.444 98.2811 159.428C97.3451 160.388 96.8771 161.684 96.8771 163.316C96.8771 164.948 97.3451 166.256 98.2811 167.24C99.2171 168.2 100.405 168.68 101.845 168.68ZM141.023 153.344C143.447 153.344 145.367 154.064 146.783 155.504C148.223 156.92 148.943 159.056 148.943 161.912V173H143.327V162.776C143.327 161.24 143.003 160.1 142.355 159.356C141.731 158.588 140.831 158.204 139.655 158.204C138.335 158.204 137.291 158.636 136.523 159.5C135.755 160.34 135.371 161.6 135.371 163.28V173H129.755V162.776C129.755 159.728 128.531 158.204 126.083 158.204C124.787 158.204 123.755 158.636 122.987 159.5C122.219 160.34 121.835 161.6 121.835 163.28V173H116.219V153.632H121.583V155.864C122.303 155.048 123.179 154.424 124.211 153.992C125.267 153.56 126.419 153.344 127.667 153.344C129.035 153.344 130.271 153.62 131.375 154.172C132.479 154.7 133.367 155.48 134.039 156.512C134.831 155.504 135.827 154.724 137.027 154.172C138.251 153.62 139.583 153.344 141.023 153.344ZM165.425 153.344C167.225 153.344 168.857 153.764 170.321 154.604C171.809 155.42 172.973 156.584 173.813 158.096C174.653 159.584 175.073 161.324 175.073 163.316C175.073 165.308 174.653 167.06 173.813 168.572C172.973 170.06 171.809 171.224 170.321 172.064C168.857 172.88 167.225 173.288 165.425 173.288C162.953 173.288 161.009 172.508 159.593 170.948V179.984H153.977V153.632H159.341V155.864C160.733 154.184 162.761 153.344 165.425 153.344ZM164.453 168.68C165.893 168.68 167.069 168.2 167.981 167.24C168.917 166.256 169.385 164.948 169.385 163.316C169.385 161.684 168.917 160.388 167.981 159.428C167.069 158.444 165.893 157.952 164.453 157.952C163.013 157.952 161.825 158.444 160.889 159.428C159.977 160.388 159.521 161.684 159.521 163.316C159.521 164.948 159.977 166.256 160.889 167.24C161.825 168.2 163.013 168.68 164.453 168.68ZM197.804 163.388C197.804 163.46 197.768 163.964 197.696 164.9H183.044C183.308 166.1 183.932 167.048 184.916 167.744C185.9 168.44 187.124 168.788 188.588 168.788C189.596 168.788 190.484 168.644 191.252 168.356C192.044 168.044 192.776 167.564 193.448 166.916L196.436 170.156C194.612 172.244 191.948 173.288 188.444 173.288C186.26 173.288 184.328 172.868 182.648 172.028C180.968 171.164 179.672 169.976 178.76 168.464C177.848 166.952 177.392 165.236 177.392 163.316C177.392 161.42 177.836 159.716 178.724 158.204C179.636 156.668 180.872 155.48 182.432 154.64C184.016 153.776 185.78 153.344 187.724 153.344C189.62 153.344 191.336 153.752 192.872 154.568C194.408 155.384 195.608 156.56 196.472 158.096C197.36 159.608 197.804 161.372 197.804 163.388ZM187.76 157.592C186.488 157.592 185.42 157.952 184.556 158.672C183.692 159.392 183.164 160.376 182.972 161.624H192.512C192.32 160.4 191.792 159.428 190.928 158.708C190.064 157.964 189.008 157.592 187.76 157.592ZM214.035 172.064C213.483 172.472 212.799 172.784 211.983 173C211.191 173.192 210.351 173.288 209.463 173.288C207.159 173.288 205.371 172.7 204.099 171.524C202.851 170.348 202.227 168.62 202.227 166.34V158.384H199.239V154.064H202.227V149.348H207.843V154.064H212.667V158.384H207.843V166.268C207.843 167.084 208.047 167.72 208.455 168.176C208.887 168.608 209.487 168.824 210.255 168.824C211.143 168.824 211.899 168.584 212.523 168.104L214.035 172.064ZM217.188 153.632H222.804V173H217.188V153.632ZM219.996 150.932C218.964 150.932 218.124 150.632 217.476 150.032C216.828 149.432 216.504 148.688 216.504 147.8C216.504 146.912 216.828 146.168 217.476 145.568C218.124 144.968 218.964 144.668 219.996 144.668C221.028 144.668 221.868 144.956 222.516 145.532C223.164 146.108 223.488 146.828 223.488 147.692C223.488 148.628 223.164 149.408 222.516 150.032C221.868 150.632 221.028 150.932 219.996 150.932ZM240.508 172.064C239.956 172.472 239.272 172.784 238.456 173C237.664 173.192 236.824 173.288 235.936 173.288C233.632 173.288 231.844 172.7 230.572 171.524C229.324 170.348 228.7 168.62 228.7 166.34V158.384H225.712V154.064H228.7V149.348H234.316V154.064H239.14V158.384H234.316V166.268C234.316 167.084 234.52 167.72 234.928 168.176C235.36 168.608 235.96 168.824 236.728 168.824C237.616 168.824 238.372 168.584 238.996 168.104L240.508 172.064ZM243.66 153.632H249.276V173H243.66V153.632ZM246.468 150.932C245.436 150.932 244.596 150.632 243.948 150.032C243.3 149.432 242.976 148.688 242.976 147.8C242.976 146.912 243.3 146.168 243.948 145.568C244.596 144.968 245.436 144.668 246.468 144.668C247.5 144.668 248.34 144.956 248.988 145.532C249.636 146.108 249.96 146.828 249.96 147.692C249.96 148.628 249.636 149.408 248.988 150.032C248.34 150.632 247.5 150.932 246.468 150.932ZM263.704 173.288C261.664 173.288 259.828 172.868 258.196 172.028C256.588 171.164 255.328 169.976 254.416 168.464C253.504 166.952 253.048 165.236 253.048 163.316C253.048 161.396 253.504 159.68 254.416 158.168C255.328 156.656 256.588 155.48 258.196 154.64C259.828 153.776 261.664 153.344 263.704 153.344C265.744 153.344 267.568 153.776 269.176 154.64C270.784 155.48 272.044 156.656 272.956 158.168C273.868 159.68 274.324 161.396 274.324 163.316C274.324 165.236 273.868 166.952 272.956 168.464C272.044 169.976 270.784 171.164 269.176 172.028C267.568 172.868 265.744 173.288 263.704 173.288ZM263.704 168.68C265.144 168.68 266.32 168.2 267.232 167.24C268.168 166.256 268.636 164.948 268.636 163.316C268.636 161.684 268.168 160.388 267.232 159.428C266.32 158.444 265.144 157.952 263.704 157.952C262.264 157.952 261.076 158.444 260.14 159.428C259.204 160.388 258.736 161.684 258.736 163.316C258.736 164.948 259.204 166.256 260.14 167.24C261.076 168.2 262.264 168.68 263.704 168.68ZM289.85 153.344C292.25 153.344 294.182 154.064 295.646 155.504C297.134 156.944 297.878 159.08 297.878 161.912V173H292.262V162.776C292.262 161.24 291.926 160.1 291.254 159.356C290.582 158.588 289.61 158.204 288.338 158.204C286.922 158.204 285.794 158.648 284.954 159.536C284.114 160.4 283.694 161.696 283.694 163.424V173H278.078V153.632H283.442V155.9C284.186 155.084 285.11 154.46 286.214 154.028C287.318 153.572 288.53 153.344 289.85 153.344ZM313.56 147.8H325.008C327.744 147.8 330.156 148.328 332.244 149.384C334.356 150.416 335.988 151.88 337.14 153.776C338.316 155.672 338.904 157.88 338.904 160.4C338.904 162.92 338.316 165.128 337.14 167.024C335.988 168.92 334.356 170.396 332.244 171.452C330.156 172.484 327.744 173 325.008 173H313.56V147.8ZM324.72 168.212C327.24 168.212 329.244 167.516 330.732 166.124C332.244 164.708 333 162.8 333 160.4C333 158 332.244 156.104 330.732 154.712C329.244 153.296 327.24 152.588 324.72 152.588H319.392V168.212H324.72ZM350.718 153.344C353.718 153.344 356.022 154.064 357.63 155.504C359.238 156.92 360.042 159.068 360.042 161.948V173H354.786V170.588C353.73 172.388 351.762 173.288 348.882 173.288C347.394 173.288 346.098 173.036 344.994 172.532C343.914 172.028 343.086 171.332 342.51 170.444C341.934 169.556 341.646 168.548 341.646 167.42C341.646 165.62 342.318 164.204 343.662 163.172C345.03 162.14 347.13 161.624 349.962 161.624H354.426C354.426 160.4 354.054 159.464 353.31 158.816C352.566 158.144 351.45 157.808 349.962 157.808C348.93 157.808 347.91 157.976 346.902 158.312C345.918 158.624 345.078 159.056 344.382 159.608L342.366 155.684C343.422 154.94 344.682 154.364 346.146 153.956C347.634 153.548 349.158 153.344 350.718 153.344ZM350.286 169.508C351.246 169.508 352.098 169.292 352.842 168.86C353.586 168.404 354.114 167.744 354.426 166.88V164.9H350.574C348.27 164.9 347.118 165.656 347.118 167.168C347.118 167.888 347.394 168.464 347.946 168.896C348.522 169.304 349.302 169.508 350.286 169.508ZM383.998 153.632L375.25 174.188C374.362 176.42 373.258 177.992 371.938 178.904C370.642 179.816 369.07 180.272 367.222 180.272C366.214 180.272 365.218 180.116 364.234 179.804C363.25 179.492 362.446 179.06 361.822 178.508L363.874 174.512C364.306 174.896 364.798 175.196 365.35 175.412C365.926 175.628 366.49 175.736 367.042 175.736C367.81 175.736 368.434 175.544 368.914 175.16C369.394 174.8 369.826 174.188 370.21 173.324L370.282 173.144L361.894 153.632H367.69L373.126 166.772L378.598 153.632H383.998Z" fill="#FFEFEF"/>
</g>
<g filter="url(#filter4_i)">
<path d="M434.062 147.8V173H428.229V152.48H423.19V147.8H434.062ZM449.239 173.432C447.151 173.432 445.291 172.916 443.659 171.884C442.027 170.852 440.743 169.364 439.807 167.42C438.895 165.452 438.439 163.112 438.439 160.4C438.439 157.688 438.895 155.36 439.807 153.416C440.743 151.448 442.027 149.948 443.659 148.916C445.291 147.884 447.151 147.368 449.239 147.368C451.327 147.368 453.187 147.884 454.819 148.916C456.451 149.948 457.723 151.448 458.635 153.416C459.571 155.36 460.039 157.688 460.039 160.4C460.039 163.112 459.571 165.452 458.635 167.42C457.723 169.364 456.451 170.852 454.819 171.884C453.187 172.916 451.327 173.432 449.239 173.432ZM449.239 168.5C450.775 168.5 451.975 167.84 452.839 166.52C453.727 165.2 454.171 163.16 454.171 160.4C454.171 157.64 453.727 155.6 452.839 154.28C451.975 152.96 450.775 152.3 449.239 152.3C447.727 152.3 446.527 152.96 445.639 154.28C444.775 155.6 444.343 157.64 444.343 160.4C444.343 163.16 444.775 165.2 445.639 166.52C446.527 167.84 447.727 168.5 449.239 168.5ZM463.481 160.616H473.669V165.116H463.481V160.616ZM485.847 147.8V173H480.015V152.48H474.975V147.8H485.847ZM509.052 168.248V173H490.008V169.22L499.728 160.04C500.76 159.056 501.456 158.216 501.816 157.52C502.176 156.8 502.356 156.092 502.356 155.396C502.356 154.388 502.008 153.62 501.312 153.092C500.64 152.54 499.644 152.264 498.324 152.264C497.22 152.264 496.224 152.48 495.336 152.912C494.448 153.32 493.704 153.944 493.104 154.784L488.856 152.048C489.84 150.584 491.196 149.444 492.924 148.628C494.652 147.788 496.632 147.368 498.864 147.368C500.736 147.368 502.368 147.68 503.76 148.304C505.176 148.904 506.268 149.768 507.036 150.896C507.828 152 508.224 153.308 508.224 154.82C508.224 156.188 507.936 157.472 507.36 158.672C506.784 159.872 505.668 161.24 504.012 162.776L498.216 168.248H509.052ZM535.442 173.432C532.826 173.432 530.462 172.868 528.35 171.74C526.262 170.612 524.618 169.064 523.418 167.096C522.242 165.104 521.654 162.872 521.654 160.4C521.654 157.928 522.242 155.708 523.418 153.74C524.618 151.748 526.262 150.188 528.35 149.06C530.462 147.932 532.826 147.368 535.442 147.368C538.058 147.368 540.41 147.932 542.498 149.06C544.586 150.188 546.23 151.748 547.43 153.74C548.63 155.708 549.23 157.928 549.23 160.4C549.23 162.872 548.63 165.104 547.43 167.096C546.23 169.064 544.586 170.612 542.498 171.74C540.41 172.868 538.058 173.432 535.442 173.432ZM535.442 168.464C536.93 168.464 538.274 168.128 539.474 167.456C540.674 166.76 541.61 165.8 542.282 164.576C542.978 163.352 543.326 161.96 543.326 160.4C543.326 158.84 542.978 157.448 542.282 156.224C541.61 155 540.674 154.052 539.474 153.38C538.274 152.684 536.93 152.336 535.442 152.336C533.954 152.336 532.61 152.684 531.41 153.38C530.21 154.052 529.262 155 528.566 156.224C527.894 157.448 527.558 158.84 527.558 160.4C527.558 161.96 527.894 163.352 528.566 164.576C529.262 165.8 530.21 166.76 531.41 167.456C532.61 168.128 533.954 168.464 535.442 168.464ZM562.577 173.288C560.513 173.288 558.653 172.868 556.997 172.028C555.365 171.164 554.081 169.976 553.145 168.464C552.233 166.952 551.777 165.236 551.777 163.316C551.777 161.396 552.233 159.68 553.145 158.168C554.081 156.656 555.365 155.48 556.997 154.64C558.653 153.776 560.513 153.344 562.577 153.344C564.617 153.344 566.393 153.776 567.905 154.64C569.441 155.48 570.557 156.692 571.253 158.276L566.897 160.616C565.889 158.84 564.437 157.952 562.541 157.952C561.077 157.952 559.865 158.432 558.905 159.392C557.945 160.352 557.465 161.66 557.465 163.316C557.465 164.972 557.945 166.28 558.905 167.24C559.865 168.2 561.077 168.68 562.541 168.68C564.461 168.68 565.913 167.792 566.897 166.016L571.253 168.392C570.557 169.928 569.441 171.128 567.905 171.992C566.393 172.856 564.617 173.288 562.577 173.288ZM587.26 172.064C586.708 172.472 586.024 172.784 585.208 173C584.416 173.192 583.576 173.288 582.688 173.288C580.384 173.288 578.596 172.7 577.324 171.524C576.076 170.348 575.452 168.62 575.452 166.34V158.384H572.464V154.064H575.452V149.348H581.068V154.064H585.892V158.384H581.068V166.268C581.068 167.084 581.272 167.72 581.68 168.176C582.112 168.608 582.712 168.824 583.48 168.824C584.368 168.824 585.124 168.584 585.748 168.104L587.26 172.064ZM599.031 173.288C596.991 173.288 595.155 172.868 593.523 172.028C591.915 171.164 590.655 169.976 589.743 168.464C588.831 166.952 588.375 165.236 588.375 163.316C588.375 161.396 588.831 159.68 589.743 158.168C590.655 156.656 591.915 155.48 593.523 154.64C595.155 153.776 596.991 153.344 599.031 153.344C601.071 153.344 602.895 153.776 604.503 154.64C606.111 155.48 607.371 156.656 608.283 158.168C609.195 159.68 609.651 161.396 609.651 163.316C609.651 165.236 609.195 166.952 608.283 168.464C607.371 169.976 606.111 171.164 604.503 172.028C602.895 172.868 601.071 173.288 599.031 173.288ZM599.031 168.68C600.471 168.68 601.647 168.2 602.559 167.24C603.495 166.256 603.963 164.948 603.963 163.316C603.963 161.684 603.495 160.388 602.559 159.428C601.647 158.444 600.471 157.952 599.031 157.952C597.591 157.952 596.403 158.444 595.467 159.428C594.531 160.388 594.063 161.684 594.063 163.316C594.063 164.948 594.531 166.256 595.467 167.24C596.403 168.2 597.591 168.68 599.031 168.68ZM624.853 153.344C626.653 153.344 628.285 153.764 629.749 154.604C631.237 155.42 632.401 156.584 633.241 158.096C634.081 159.584 634.501 161.324 634.501 163.316C634.501 165.308 634.081 167.06 633.241 168.572C632.401 170.06 631.237 171.224 629.749 172.064C628.285 172.88 626.653 173.288 624.853 173.288C622.189 173.288 620.161 172.448 618.769 170.768V173H613.405V146.288H619.021V155.684C620.437 154.124 622.381 153.344 624.853 153.344ZM623.881 168.68C625.321 168.68 626.497 168.2 627.409 167.24C628.345 166.256 628.812 164.948 628.812 163.316C628.812 161.684 628.345 160.388 627.409 159.428C626.497 158.444 625.321 157.952 623.881 157.952C622.441 157.952 621.253 158.444 620.316 159.428C619.405 160.388 618.949 161.684 618.949 163.316C618.949 164.948 619.405 166.256 620.316 167.24C621.253 168.2 622.441 168.68 623.881 168.68ZM657.232 163.388C657.232 163.46 657.196 163.964 657.124 164.9H642.472C642.736 166.1 643.36 167.048 644.344 167.744C645.328 168.44 646.552 168.788 648.016 168.788C649.024 168.788 649.912 168.644 650.68 168.356C651.472 168.044 652.204 167.564 652.876 166.916L655.864 170.156C654.04 172.244 651.376 173.288 647.872 173.288C645.688 173.288 643.756 172.868 642.076 172.028C640.396 171.164 639.1 169.976 638.188 168.464C637.276 166.952 636.82 165.236 636.82 163.316C636.82 161.42 637.264 159.716 638.152 158.204C639.064 156.668 640.3 155.48 641.86 154.64C643.444 153.776 645.208 153.344 647.152 153.344C649.048 153.344 650.764 153.752 652.3 154.568C653.836 155.384 655.036 156.56 655.9 158.096C656.788 159.608 657.232 161.372 657.232 163.388ZM647.188 157.592C645.916 157.592 644.848 157.952 643.984 158.672C643.12 159.392 642.592 160.376 642.4 161.624H651.94C651.748 160.4 651.22 159.428 650.356 158.708C649.492 157.964 648.436 157.592 647.188 157.592ZM666.335 156.188C667.007 155.252 667.907 154.544 669.035 154.064C670.187 153.584 671.507 153.344 672.995 153.344V158.528C672.371 158.48 671.951 158.456 671.735 158.456C670.127 158.456 668.867 158.912 667.955 159.824C667.043 160.712 666.587 162.056 666.587 163.856V173H660.971V153.632H666.335V156.188ZM704.31 168.248V173H685.266V169.22L694.986 160.04C696.018 159.056 696.714 158.216 697.074 157.52C697.434 156.8 697.614 156.092 697.614 155.396C697.614 154.388 697.266 153.62 696.57 153.092C695.898 152.54 694.902 152.264 693.582 152.264C692.478 152.264 691.482 152.48 690.594 152.912C689.706 153.32 688.962 153.944 688.362 154.784L684.114 152.048C685.098 150.584 686.454 149.444 688.182 148.628C689.91 147.788 691.89 147.368 694.122 147.368C695.994 147.368 697.626 147.68 699.018 148.304C700.434 148.904 701.526 149.768 702.294 150.896C703.086 152 703.482 153.308 703.482 154.82C703.482 156.188 703.194 157.472 702.618 158.672C702.042 159.872 700.926 161.24 699.27 162.776L693.474 168.248H704.31ZM717.446 173.432C715.358 173.432 713.498 172.916 711.866 171.884C710.234 170.852 708.95 169.364 708.014 167.42C707.102 165.452 706.646 163.112 706.646 160.4C706.646 157.688 707.102 155.36 708.014 153.416C708.95 151.448 710.234 149.948 711.866 148.916C713.498 147.884 715.358 147.368 717.446 147.368C719.534 147.368 721.394 147.884 723.026 148.916C724.658 149.948 725.93 151.448 726.842 153.416C727.778 155.36 728.246 157.688 728.246 160.4C728.246 163.112 727.778 165.452 726.842 167.42C725.93 169.364 724.658 170.852 723.026 171.884C721.394 172.916 719.534 173.432 717.446 173.432ZM717.446 168.5C718.982 168.5 720.182 167.84 721.046 166.52C721.934 165.2 722.378 163.16 722.378 160.4C722.378 157.64 721.934 155.6 721.046 154.28C720.182 152.96 718.982 152.3 717.446 152.3C715.934 152.3 714.734 152.96 713.846 154.28C712.982 155.6 712.55 157.64 712.55 160.4C712.55 163.16 712.982 165.2 713.846 166.52C714.734 167.84 715.934 168.5 717.446 168.5ZM749.697 168.248V173H730.653V169.22L740.373 160.04C741.405 159.056 742.101 158.216 742.461 157.52C742.821 156.8 743.001 156.092 743.001 155.396C743.001 154.388 742.653 153.62 741.957 153.092C741.285 152.54 740.289 152.264 738.969 152.264C737.865 152.264 736.869 152.48 735.981 152.912C735.093 153.32 734.349 153.944 733.749 154.784L729.501 152.048C730.485 150.584 731.841 149.444 733.569 148.628C735.297 147.788 737.277 147.368 739.509 147.368C741.381 147.368 743.013 147.68 744.405 148.304C745.821 148.904 746.913 149.768 747.681 150.896C748.473 152 748.869 153.308 748.869 154.82C748.869 156.188 748.581 157.472 748.005 158.672C747.429 159.872 746.313 161.24 744.657 162.776L738.861 168.248H749.697ZM762.833 173.432C760.745 173.432 758.885 172.916 757.253 171.884C755.621 170.852 754.337 169.364 753.401 167.42C752.489 165.452 752.033 163.112 752.033 160.4C752.033 157.688 752.489 155.36 753.401 153.416C754.337 151.448 755.621 149.948 757.253 148.916C758.885 147.884 760.745 147.368 762.833 147.368C764.921 147.368 766.781 147.884 768.413 148.916C770.045 149.948 771.317 151.448 772.229 153.416C773.165 155.36 773.633 157.688 773.633 160.4C773.633 163.112 773.165 165.452 772.229 167.42C771.317 169.364 770.045 170.852 768.413 171.884C766.781 172.916 764.921 173.432 762.833 173.432ZM762.833 168.5C764.369 168.5 765.569 167.84 766.433 166.52C767.321 165.2 767.765 163.16 767.765 160.4C767.765 157.64 767.321 155.6 766.433 154.28C765.569 152.96 764.369 152.3 762.833 152.3C761.321 152.3 760.121 152.96 759.233 154.28C758.369 155.6 757.937 157.64 757.937 160.4C757.937 163.16 758.369 165.2 759.233 166.52C760.121 167.84 761.321 168.5 762.833 168.5Z" fill="#FFEFEF"/>
</g>
<g filter="url(#filter5_i)">
<path fill-rule="evenodd" clip-rule="evenodd" d="M398.105 32C399.966 32 401.474 33.4327 401.474 35.2V36.8H421.684C422.14 36.8 422.592 36.888 423.011 37.0587L434.165 41.6H445.263C448.984 41.6 452 44.4653 452 48V75.2C452 78.7347 448.984 81.6 445.263 81.6H433.474C433.018 81.6 432.566 81.512 432.147 81.3413L420.993 76.8H401.474V89.6H404.842C406.702 89.6 408.211 91.0327 408.211 92.8C408.211 94.5673 406.702 96 404.842 96H391.368C389.508 96 388 94.5673 388 92.8C388 91.0327 389.508 89.6 391.368 89.6H394.737V35.2C394.737 33.4327 396.245 32 398.105 32ZM401.474 70.4V43.2H420.993L432.147 47.7413C432.566 47.912 433.018 48 433.474 48H445.263V75.2H434.165L423.011 70.6587C422.592 70.488 422.14 70.4 421.684 70.4H401.474Z" fill="#FFEFEF"/>
</g>
<defs>
<filter id="filter0_i" x="364.132" y="8" width="112" height="116" filterUnits="userSpaceOnUse" color-interpolation-filters="sRGB">
<feFlood flood-opacity="0" result="BackgroundImageFix"/>
<feBlend mode="normal" in="SourceGraphic" in2="BackgroundImageFix" result="shape"/>
<feColorMatrix in="SourceAlpha" type="matrix" values="0 0 0 0 0 0 0 0 0 0 0 0 0 0 0 0 0 0 127 0" result="hardAlpha"/>
<feOffset dy="4"/>
<feGaussianBlur stdDeviation="2"/>
<feComposite in2="hardAlpha" operator="arithmetic" k2="-1" k3="1"/>
<feColorMatrix type="matrix" values="0 0 0 0 0 0 0 0 0 0 0 0 0 0 0 0 0 0 0.25 0"/>
<feBlend mode="normal" in2="shape" result="effect1_innerShadow"/>
</filter>
<filter id="filter1_i" x="364.132" y="8" width="112" height="116" filterUnits="userSpaceOnUse" color-interpolation-filters="sRGB">
<feFlood flood-opacity="0" result="BackgroundImageFix"/>
<feBlend mode="normal" in="SourceGraphic" in2="BackgroundImageFix" result="shape"/>
<feColorMatrix in="SourceAlpha" type="matrix" values="0 0 0 0 0 0 0 0 0 0 0 0 0 0 0 0 0 0 127 0" result="hardAlpha"/>
<feOffset dy="4"/>
<feGaussianBlur stdDeviation="2"/>
<feComposite in2="hardAlpha" operator="arithmetic" k2="-1" k3="1"/>
<feColorMatrix type="matrix" values="0 0 0 0 0 0 0 0 0 0 0 0 0 0 0 0 0 0 0.25 0"/>
<feBlend mode="normal" in2="shape" result="effect1_innerShadow"/>
</filter>
<filter id="filter2_i" x="364.132" y="8" width="112" height="116" filterUnits="userSpaceOnUse" color-interpolation-filters="sRGB">
<feFlood flood-opacity="0" result="BackgroundImageFix"/>
<feBlend mode="normal" in="SourceGraphic" in2="BackgroundImageFix" result="shape"/>
<feColorMatrix in="SourceAlpha" type="matrix" values="0 0 0 0 0 0 0 0 0 0 0 0 0 0 0 0 0 0 127 0" result="hardAlpha"/>
<feOffset dy="4"/>
<feGaussianBlur stdDeviation="2"/>
<feComposite in2="hardAlpha" operator="arithmetic" k2="-1" k3="1"/>
<feColorMatrix type="matrix" values="0 0 0 0 0 0 0 0 0 0 0 0 0 0 0 0 0 0 0.25 0"/>
<feBlend mode="normal" in2="shape" result="effect1_innerShadow"/>
</filter>
<filter id="filter3_d" x="61.707" y="144.668" width="326.291" height="43.604" filterUnits="userSpaceOnUse" color-interpolation-filters="sRGB">
<feFlood flood-opacity="0" result="BackgroundImageFix"/>
<feColorMatrix in="SourceAlpha" type="matrix" values="0 0 0 0 0 0 0 0 0 0 0 0 0 0 0 0 0 0 127 0"/>
<feOffset dy="4"/>
<feGaussianBlur stdDeviation="2"/>
<feColorMatrix type="matrix" values="0 0 0 0 0 0 0 0 0 0 0 0 0 0 0 0 0 0 0.25 0"/>
<feBlend mode="normal" in2="BackgroundImageFix" result="effect1_dropShadow"/>
<feBlend mode="normal" in="SourceGraphic" in2="effect1_dropShadow" result="shape"/>
</filter>
<filter id="filter4_i" x="423.189" y="146.288" width="350.443" height="31.144" filterUnits="userSpaceOnUse" color-interpolation-filters="sRGB">
<feFlood flood-opacity="0" result="BackgroundImageFix"/>
<feBlend mode="normal" in="SourceGraphic" in2="BackgroundImageFix" result="shape"/>
<feColorMatrix in="SourceAlpha" type="matrix" values="0 0 0 0 0 0 0 0 0 0 0 0 0 0 0 0 0 0 127 0" result="hardAlpha"/>
<feOffset dy="4"/>
<feGaussianBlur stdDeviation="2"/>
<feComposite in2="hardAlpha" operator="arithmetic" k2="-1" k3="1"/>
<feColorMatrix type="matrix" values="0 0 0 0 0 0 0 0 0 0 0 0 0 0 0 0 0 0 0.25 0"/>
<feBlend mode="normal" in2="shape" result="effect1_innerShadow"/>
</filter>
<filter id="filter5_i" x="388" y="32" width="64" height="68" filterUnits="userSpaceOnUse" color-interpolation-filters="sRGB">
<feFlood flood-opacity="0" result="BackgroundImageFix"/>
<feBlend mode="normal" in="SourceGraphic" in2="BackgroundImageFix" result="shape"/>
<feColorMatrix in="SourceAlpha" type="matrix" values="0 0 0 0 0 0 0 0 0 0 0 0 0 0 0 0 0 0 127 0" result="hardAlpha"/>
<feOffset dy="4"/>
<feGaussianBlur stdDeviation="2"/>
<feComposite in2="hardAlpha" operator="arithmetic" k2="-1" k3="1"/>
<feColorMatrix type="matrix" values="0 0 0 0 0 0 0 0 0 0 0 0 0 0 0 0 0 0 0.25 0"/>
<feBlend mode="normal" in2="shape" result="effect1_innerShadow"/>
</filter>
</defs>
</svg>
