<svg width="335" height="429" viewBox="0 0 335 429" fill="none" xmlns="http://www.w3.org/2000/svg">
<rect x="7" y="429" width="313" height="324" rx="85" transform="rotate(-90 7 429)" fill="#583AA7"/>
<g filter="url(#filter0_i)">
<g filter="url(#filter1_i)">
<g filter="url(#filter2_i)">
<circle cx="168.5" cy="87.5" r="87.5" transform="rotate(-90 168.5 87.5)" fill="#E0473F"/>
</g>
</g>
</g>
<g filter="url(#filter3_i)">
<path d="M65.0109 228.432C62.4429 228.432 60.1149 227.88 58.0269 226.776C55.9629 225.648 54.3309 224.1 53.1309 222.132C51.9549 220.14 51.3669 217.896 51.3669 215.4C51.3669 212.904 51.9549 210.672 53.1309 208.704C54.3309 206.712 55.9629 205.164 58.0269 204.06C60.1149 202.932 62.4549 202.368 65.0469 202.368C67.2309 202.368 69.1989 202.752 70.9509 203.52C72.7269 204.288 74.2149 205.392 75.4149 206.832L71.6709 210.288C69.9669 208.32 67.8549 207.336 65.3349 207.336C63.7749 207.336 62.3829 207.684 61.1589 208.38C59.9349 209.052 58.9749 210 58.2789 211.224C57.6069 212.448 57.2709 213.84 57.2709 215.4C57.2709 216.96 57.6069 218.352 58.2789 219.576C58.9749 220.8 59.9349 221.76 61.1589 222.456C62.3829 223.128 63.7749 223.464 65.3349 223.464C67.8549 223.464 69.9669 222.468 71.6709 220.476L75.4149 223.932C74.2149 225.396 72.7269 226.512 70.9509 227.28C69.1749 228.048 67.1949 228.432 65.0109 228.432ZM87.5053 228.288C85.4653 228.288 83.6293 227.868 81.9973 227.028C80.3893 226.164 79.1293 224.976 78.2173 223.464C77.3053 221.952 76.8493 220.236 76.8493 218.316C76.8493 216.396 77.3053 214.68 78.2173 213.168C79.1293 211.656 80.3893 210.48 81.9973 209.64C83.6293 208.776 85.4653 208.344 87.5053 208.344C89.5453 208.344 91.3693 208.776 92.9773 209.64C94.5853 210.48 95.8453 211.656 96.7573 213.168C97.6693 214.68 98.1253 216.396 98.1253 218.316C98.1253 220.236 97.6693 221.952 96.7573 223.464C95.8453 224.976 94.5853 226.164 92.9773 227.028C91.3693 227.868 89.5453 228.288 87.5053 228.288ZM87.5053 223.68C88.9453 223.68 90.1213 223.2 91.0333 222.24C91.9693 221.256 92.4373 219.948 92.4373 218.316C92.4373 216.684 91.9693 215.388 91.0333 214.428C90.1213 213.444 88.9453 212.952 87.5053 212.952C86.0653 212.952 84.8773 213.444 83.9413 214.428C83.0053 215.388 82.5373 216.684 82.5373 218.316C82.5373 219.948 83.0053 221.256 83.9413 222.24C84.8773 223.2 86.0653 223.68 87.5053 223.68ZM126.683 208.344C129.107 208.344 131.027 209.064 132.443 210.504C133.883 211.92 134.603 214.056 134.603 216.912V228H128.987V217.776C128.987 216.24 128.663 215.1 128.015 214.356C127.391 213.588 126.491 213.204 125.315 213.204C123.995 213.204 122.951 213.636 122.183 214.5C121.415 215.34 121.031 216.6 121.031 218.28V228H115.415V217.776C115.415 214.728 114.191 213.204 111.743 213.204C110.447 213.204 109.415 213.636 108.647 214.5C107.879 215.34 107.495 216.6 107.495 218.28V228H101.879V208.632H107.243V210.864C107.963 210.048 108.839 209.424 109.871 208.992C110.927 208.56 112.079 208.344 113.327 208.344C114.695 208.344 115.931 208.62 117.035 209.172C118.139 209.7 119.027 210.48 119.699 211.512C120.491 210.504 121.487 209.724 122.687 209.172C123.911 208.62 125.243 208.344 126.683 208.344ZM151.085 208.344C152.885 208.344 154.517 208.764 155.981 209.604C157.469 210.42 158.633 211.584 159.473 213.096C160.313 214.584 160.733 216.324 160.733 218.316C160.733 220.308 160.313 222.06 159.473 223.572C158.633 225.06 157.469 226.224 155.981 227.064C154.517 227.88 152.885 228.288 151.085 228.288C148.613 228.288 146.669 227.508 145.253 225.948V234.984H139.637V208.632H145.001V210.864C146.393 209.184 148.421 208.344 151.085 208.344ZM150.113 223.68C151.553 223.68 152.729 223.2 153.641 222.24C154.577 221.256 155.045 219.948 155.045 218.316C155.045 216.684 154.577 215.388 153.641 214.428C152.729 213.444 151.553 212.952 150.113 212.952C148.673 212.952 147.485 213.444 146.549 214.428C145.637 215.388 145.181 216.684 145.181 218.316C145.181 219.948 145.637 221.256 146.549 222.24C147.485 223.2 148.673 223.68 150.113 223.68ZM183.464 218.388C183.464 218.46 183.428 218.964 183.356 219.9H168.704C168.968 221.1 169.592 222.048 170.576 222.744C171.56 223.44 172.784 223.788 174.248 223.788C175.256 223.788 176.144 223.644 176.912 223.356C177.704 223.044 178.436 222.564 179.108 221.916L182.096 225.156C180.272 227.244 177.608 228.288 174.104 228.288C171.92 228.288 169.988 227.868 168.308 227.028C166.628 226.164 165.332 224.976 164.42 223.464C163.508 221.952 163.052 220.236 163.052 218.316C163.052 216.42 163.496 214.716 164.384 213.204C165.296 211.668 166.532 210.48 168.092 209.64C169.676 208.776 171.44 208.344 173.384 208.344C175.28 208.344 176.996 208.752 178.532 209.568C180.068 210.384 181.268 211.56 182.132 213.096C183.02 214.608 183.464 216.372 183.464 218.388ZM173.42 212.592C172.148 212.592 171.08 212.952 170.216 213.672C169.352 214.392 168.824 215.376 168.632 216.624H178.172C177.98 215.4 177.452 214.428 176.588 213.708C175.724 212.964 174.668 212.592 173.42 212.592ZM199.695 227.064C199.143 227.472 198.459 227.784 197.643 228C196.851 228.192 196.011 228.288 195.123 228.288C192.819 228.288 191.031 227.7 189.759 226.524C188.511 225.348 187.887 223.62 187.887 221.34V213.384H184.899V209.064H187.887V204.348H193.503V209.064H198.327V213.384H193.503V221.268C193.503 222.084 193.707 222.72 194.115 223.176C194.547 223.608 195.147 223.824 195.915 223.824C196.803 223.824 197.559 223.584 198.183 223.104L199.695 227.064ZM202.848 208.632H208.464V228H202.848V208.632ZM205.656 205.932C204.624 205.932 203.784 205.632 203.136 205.032C202.488 204.432 202.164 203.688 202.164 202.8C202.164 201.912 202.488 201.168 203.136 200.568C203.784 199.968 204.624 199.668 205.656 199.668C206.688 199.668 207.528 199.956 208.176 200.532C208.824 201.108 209.148 201.828 209.148 202.692C209.148 203.628 208.824 204.408 208.176 205.032C207.528 205.632 206.688 205.932 205.656 205.932ZM226.168 227.064C225.616 227.472 224.932 227.784 224.116 228C223.324 228.192 222.484 228.288 221.596 228.288C219.292 228.288 217.504 227.7 216.232 226.524C214.984 225.348 214.36 223.62 214.36 221.34V213.384H211.372V209.064H214.36V204.348H219.976V209.064H224.8V213.384H219.976V221.268C219.976 222.084 220.18 222.72 220.588 223.176C221.02 223.608 221.62 223.824 222.388 223.824C223.276 223.824 224.032 223.584 224.656 223.104L226.168 227.064ZM229.321 208.632H234.937V228H229.321V208.632ZM232.129 205.932C231.097 205.932 230.257 205.632 229.609 205.032C228.961 204.432 228.637 203.688 228.637 202.8C228.637 201.912 228.961 201.168 229.609 200.568C230.257 199.968 231.097 199.668 232.129 199.668C233.161 199.668 234.001 199.956 234.649 200.532C235.297 201.108 235.621 201.828 235.621 202.692C235.621 203.628 235.297 204.408 234.649 205.032C234.001 205.632 233.161 205.932 232.129 205.932ZM249.365 228.288C247.325 228.288 245.489 227.868 243.857 227.028C242.249 226.164 240.989 224.976 240.077 223.464C239.165 221.952 238.709 220.236 238.709 218.316C238.709 216.396 239.165 214.68 240.077 213.168C240.989 211.656 242.249 210.48 243.857 209.64C245.489 208.776 247.325 208.344 249.365 208.344C251.405 208.344 253.229 208.776 254.837 209.64C256.445 210.48 257.705 211.656 258.617 213.168C259.529 214.68 259.985 216.396 259.985 218.316C259.985 220.236 259.529 221.952 258.617 223.464C257.705 224.976 256.445 226.164 254.837 227.028C253.229 227.868 251.405 228.288 249.365 228.288ZM249.365 223.68C250.805 223.68 251.981 223.2 252.893 222.24C253.829 221.256 254.297 219.948 254.297 218.316C254.297 216.684 253.829 215.388 252.893 214.428C251.981 213.444 250.805 212.952 249.365 212.952C247.925 212.952 246.737 213.444 245.801 214.428C244.865 215.388 244.397 216.684 244.397 218.316C244.397 219.948 244.865 221.256 245.801 222.24C246.737 223.2 247.925 223.68 249.365 223.68ZM275.51 208.344C277.91 208.344 279.842 209.064 281.306 210.504C282.794 211.944 283.538 214.08 283.538 216.912V228H277.922V217.776C277.922 216.24 277.586 215.1 276.914 214.356C276.242 213.588 275.27 213.204 273.998 213.204C272.582 213.204 271.454 213.648 270.614 214.536C269.774 215.4 269.354 216.696 269.354 218.424V228H263.738V208.632H269.102V210.9C269.846 210.084 270.77 209.46 271.874 209.028C272.978 208.572 274.19 208.344 275.51 208.344ZM134.426 246.8H145.874C148.61 246.8 151.022 247.328 153.11 248.384C155.222 249.416 156.854 250.88 158.006 252.776C159.182 254.672 159.77 256.88 159.77 259.4C159.77 261.92 159.182 264.128 158.006 266.024C156.854 267.92 155.222 269.396 153.11 270.452C151.022 271.484 148.61 272 145.874 272H134.426V246.8ZM145.586 267.212C148.106 267.212 150.11 266.516 151.598 265.124C153.11 263.708 153.866 261.8 153.866 259.4C153.866 257 153.11 255.104 151.598 253.712C150.11 252.296 148.106 251.588 145.586 251.588H140.258V267.212H145.586ZM171.584 252.344C174.584 252.344 176.888 253.064 178.496 254.504C180.104 255.92 180.908 258.068 180.908 260.948V272H175.652V269.588C174.596 271.388 172.628 272.288 169.748 272.288C168.26 272.288 166.964 272.036 165.86 271.532C164.78 271.028 163.952 270.332 163.376 269.444C162.8 268.556 162.512 267.548 162.512 266.42C162.512 264.62 163.184 263.204 164.528 262.172C165.896 261.14 167.996 260.624 170.828 260.624H175.292C175.292 259.4 174.92 258.464 174.176 257.816C173.432 257.144 172.316 256.808 170.828 256.808C169.796 256.808 168.776 256.976 167.768 257.312C166.784 257.624 165.944 258.056 165.248 258.608L163.232 254.684C164.288 253.94 165.548 253.364 167.012 252.956C168.5 252.548 170.024 252.344 171.584 252.344ZM171.152 268.508C172.112 268.508 172.964 268.292 173.708 267.86C174.452 267.404 174.98 266.744 175.292 265.88V263.9H171.44C169.136 263.9 167.984 264.656 167.984 266.168C167.984 266.888 168.26 267.464 168.812 267.896C169.388 268.304 170.168 268.508 171.152 268.508ZM204.863 252.632L196.115 273.188C195.227 275.42 194.123 276.992 192.803 277.904C191.507 278.816 189.935 279.272 188.087 279.272C187.079 279.272 186.083 279.116 185.099 278.804C184.115 278.492 183.311 278.06 182.687 277.508L184.739 273.512C185.171 273.896 185.663 274.196 186.215 274.412C186.791 274.628 187.355 274.736 187.907 274.736C188.675 274.736 189.299 274.544 189.779 274.16C190.259 273.8 190.691 273.188 191.075 272.324L191.147 272.144L182.759 252.632H188.555L193.991 265.772L199.463 252.632H204.863Z" fill="#FFEFEF"/>
</g>
<g filter="url(#filter4_i)">
<path d="M53.1513 332.8V358H47.3193V337.48H42.2793V332.8H53.1513ZM68.329 358.432C66.241 358.432 64.381 357.916 62.749 356.884C61.117 355.852 59.833 354.364 58.897 352.42C57.985 350.452 57.529 348.112 57.529 345.4C57.529 342.688 57.985 340.36 58.897 338.416C59.833 336.448 61.117 334.948 62.749 333.916C64.381 332.884 66.241 332.368 68.329 332.368C70.417 332.368 72.277 332.884 73.909 333.916C75.541 334.948 76.813 336.448 77.725 338.416C78.661 340.36 79.129 342.688 79.129 345.4C79.129 348.112 78.661 350.452 77.725 352.42C76.813 354.364 75.541 355.852 73.909 356.884C72.277 357.916 70.417 358.432 68.329 358.432ZM68.329 353.5C69.865 353.5 71.065 352.84 71.929 351.52C72.817 350.2 73.261 348.16 73.261 345.4C73.261 342.64 72.817 340.6 71.929 339.28C71.065 337.96 69.865 337.3 68.329 337.3C66.817 337.3 65.617 337.96 64.729 339.28C63.865 340.6 63.433 342.64 63.433 345.4C63.433 348.16 63.865 350.2 64.729 351.52C65.617 352.84 66.817 353.5 68.329 353.5ZM82.5712 345.616H92.7592V350.116H82.5712V345.616ZM104.937 332.8V358H99.1045V337.48H94.0645V332.8H104.937ZM128.142 353.248V358H109.098V354.22L118.818 345.04C119.85 344.056 120.546 343.216 120.906 342.52C121.266 341.8 121.446 341.092 121.446 340.396C121.446 339.388 121.098 338.62 120.402 338.092C119.73 337.54 118.734 337.264 117.414 337.264C116.31 337.264 115.314 337.48 114.426 337.912C113.538 338.32 112.794 338.944 112.194 339.784L107.946 337.048C108.93 335.584 110.286 334.444 112.014 333.628C113.742 332.788 115.722 332.368 117.954 332.368C119.826 332.368 121.458 332.68 122.85 333.304C124.266 333.904 125.358 334.768 126.126 335.896C126.918 337 127.314 338.308 127.314 339.82C127.314 341.188 127.026 342.472 126.45 343.672C125.874 344.872 124.758 346.24 123.102 347.776L117.306 353.248H128.142ZM154.532 358.432C151.916 358.432 149.552 357.868 147.44 356.74C145.352 355.612 143.708 354.064 142.508 352.096C141.332 350.104 140.744 347.872 140.744 345.4C140.744 342.928 141.332 340.708 142.508 338.74C143.708 336.748 145.352 335.188 147.44 334.06C149.552 332.932 151.916 332.368 154.532 332.368C157.148 332.368 159.5 332.932 161.588 334.06C163.676 335.188 165.32 336.748 166.52 338.74C167.72 340.708 168.32 342.928 168.32 345.4C168.32 347.872 167.72 350.104 166.52 352.096C165.32 354.064 163.676 355.612 161.588 356.74C159.5 357.868 157.148 358.432 154.532 358.432ZM154.532 353.464C156.02 353.464 157.364 353.128 158.564 352.456C159.764 351.76 160.7 350.8 161.372 349.576C162.068 348.352 162.416 346.96 162.416 345.4C162.416 343.84 162.068 342.448 161.372 341.224C160.7 340 159.764 339.052 158.564 338.38C157.364 337.684 156.02 337.336 154.532 337.336C153.044 337.336 151.7 337.684 150.5 338.38C149.3 339.052 148.352 340 147.656 341.224C146.984 342.448 146.648 343.84 146.648 345.4C146.648 346.96 146.984 348.352 147.656 349.576C148.352 350.8 149.3 351.76 150.5 352.456C151.7 353.128 153.044 353.464 154.532 353.464ZM181.667 358.288C179.603 358.288 177.743 357.868 176.087 357.028C174.455 356.164 173.171 354.976 172.235 353.464C171.323 351.952 170.867 350.236 170.867 348.316C170.867 346.396 171.323 344.68 172.235 343.168C173.171 341.656 174.455 340.48 176.087 339.64C177.743 338.776 179.603 338.344 181.667 338.344C183.707 338.344 185.483 338.776 186.995 339.64C188.531 340.48 189.647 341.692 190.343 343.276L185.987 345.616C184.979 343.84 183.527 342.952 181.631 342.952C180.167 342.952 178.955 343.432 177.995 344.392C177.035 345.352 176.555 346.66 176.555 348.316C176.555 349.972 177.035 351.28 177.995 352.24C178.955 353.2 180.167 353.68 181.631 353.68C183.551 353.68 185.003 352.792 185.987 351.016L190.343 353.392C189.647 354.928 188.531 356.128 186.995 356.992C185.483 357.856 183.707 358.288 181.667 358.288ZM206.35 357.064C205.798 357.472 205.114 357.784 204.298 358C203.506 358.192 202.666 358.288 201.778 358.288C199.474 358.288 197.686 357.7 196.414 356.524C195.166 355.348 194.542 353.62 194.542 351.34V343.384H191.554V339.064H194.542V334.348H200.158V339.064H204.982V343.384H200.158V351.268C200.158 352.084 200.362 352.72 200.77 353.176C201.202 353.608 201.802 353.824 202.57 353.824C203.458 353.824 204.214 353.584 204.838 353.104L206.35 357.064ZM218.121 358.288C216.081 358.288 214.245 357.868 212.613 357.028C211.005 356.164 209.745 354.976 208.833 353.464C207.921 351.952 207.465 350.236 207.465 348.316C207.465 346.396 207.921 344.68 208.833 343.168C209.745 341.656 211.005 340.48 212.613 339.64C214.245 338.776 216.081 338.344 218.121 338.344C220.161 338.344 221.985 338.776 223.593 339.64C225.201 340.48 226.461 341.656 227.373 343.168C228.285 344.68 228.741 346.396 228.741 348.316C228.741 350.236 228.285 351.952 227.373 353.464C226.461 354.976 225.201 356.164 223.593 357.028C221.985 357.868 220.161 358.288 218.121 358.288ZM218.121 353.68C219.561 353.68 220.737 353.2 221.649 352.24C222.585 351.256 223.053 349.948 223.053 348.316C223.053 346.684 222.585 345.388 221.649 344.428C220.737 343.444 219.561 342.952 218.121 342.952C216.681 342.952 215.493 343.444 214.557 344.428C213.621 345.388 213.153 346.684 213.153 348.316C213.153 349.948 213.621 351.256 214.557 352.24C215.493 353.2 216.681 353.68 218.121 353.68ZM243.942 338.344C245.742 338.344 247.374 338.764 248.838 339.604C250.326 340.42 251.49 341.584 252.33 343.096C253.17 344.584 253.59 346.324 253.59 348.316C253.59 350.308 253.17 352.06 252.33 353.572C251.49 355.06 250.326 356.224 248.838 357.064C247.374 357.88 245.742 358.288 243.942 358.288C241.278 358.288 239.25 357.448 237.858 355.768V358H232.494V331.288H238.11V340.684C239.526 339.124 241.47 338.344 243.942 338.344ZM242.97 353.68C244.41 353.68 245.586 353.2 246.498 352.24C247.434 351.256 247.902 349.948 247.902 348.316C247.902 346.684 247.434 345.388 246.498 344.428C245.586 343.444 244.41 342.952 242.97 342.952C241.53 342.952 240.342 343.444 239.406 344.428C238.494 345.388 238.038 346.684 238.038 348.316C238.038 349.948 238.494 351.256 239.406 352.24C240.342 353.2 241.53 353.68 242.97 353.68ZM276.322 348.388C276.322 348.46 276.286 348.964 276.214 349.9H261.562C261.826 351.1 262.45 352.048 263.434 352.744C264.418 353.44 265.642 353.788 267.106 353.788C268.114 353.788 269.002 353.644 269.77 353.356C270.562 353.044 271.294 352.564 271.966 351.916L274.954 355.156C273.13 357.244 270.466 358.288 266.962 358.288C264.778 358.288 262.846 357.868 261.166 357.028C259.486 356.164 258.19 354.976 257.278 353.464C256.366 351.952 255.91 350.236 255.91 348.316C255.91 346.42 256.354 344.716 257.242 343.204C258.154 341.668 259.39 340.48 260.95 339.64C262.534 338.776 264.298 338.344 266.242 338.344C268.138 338.344 269.854 338.752 271.39 339.568C272.926 340.384 274.126 341.56 274.99 343.096C275.878 344.608 276.322 346.372 276.322 348.388ZM266.278 342.592C265.006 342.592 263.938 342.952 263.074 343.672C262.21 344.392 261.682 345.376 261.49 346.624H271.03C270.838 345.4 270.31 344.428 269.446 343.708C268.582 342.964 267.526 342.592 266.278 342.592ZM285.425 341.188C286.097 340.252 286.997 339.544 288.125 339.064C289.277 338.584 290.597 338.344 292.085 338.344V343.528C291.461 343.48 291.041 343.456 290.825 343.456C289.217 343.456 287.957 343.912 287.045 344.824C286.133 345.712 285.677 347.056 285.677 348.856V358H280.061V338.632H285.425V341.188ZM142.24 397.248V402H123.196V398.22L132.916 389.04C133.948 388.056 134.644 387.216 135.004 386.52C135.364 385.8 135.544 385.092 135.544 384.396C135.544 383.388 135.196 382.62 134.5 382.092C133.828 381.54 132.832 381.264 131.512 381.264C130.408 381.264 129.412 381.48 128.524 381.912C127.636 382.32 126.892 382.944 126.292 383.784L122.044 381.048C123.028 379.584 124.384 378.444 126.112 377.628C127.84 376.788 129.82 376.368 132.052 376.368C133.924 376.368 135.556 376.68 136.948 377.304C138.364 377.904 139.456 378.768 140.224 379.896C141.016 381 141.412 382.308 141.412 383.82C141.412 385.188 141.124 386.472 140.548 387.672C139.972 388.872 138.856 390.24 137.2 391.776L131.404 397.248H142.24ZM155.376 402.432C153.288 402.432 151.428 401.916 149.796 400.884C148.164 399.852 146.88 398.364 145.944 396.42C145.032 394.452 144.576 392.112 144.576 389.4C144.576 386.688 145.032 384.36 145.944 382.416C146.88 380.448 148.164 378.948 149.796 377.916C151.428 376.884 153.288 376.368 155.376 376.368C157.464 376.368 159.324 376.884 160.956 377.916C162.588 378.948 163.86 380.448 164.772 382.416C165.708 384.36 166.176 386.688 166.176 389.4C166.176 392.112 165.708 394.452 164.772 396.42C163.86 398.364 162.588 399.852 160.956 400.884C159.324 401.916 157.464 402.432 155.376 402.432ZM155.376 397.5C156.912 397.5 158.112 396.84 158.976 395.52C159.864 394.2 160.308 392.16 160.308 389.4C160.308 386.64 159.864 384.6 158.976 383.28C158.112 381.96 156.912 381.3 155.376 381.3C153.864 381.3 152.664 381.96 151.776 383.28C150.912 384.6 150.48 386.64 150.48 389.4C150.48 392.16 150.912 394.2 151.776 395.52C152.664 396.84 153.864 397.5 155.376 397.5ZM187.627 397.248V402H168.583V398.22L178.303 389.04C179.335 388.056 180.031 387.216 180.391 386.52C180.751 385.8 180.931 385.092 180.931 384.396C180.931 383.388 180.583 382.62 179.887 382.092C179.215 381.54 178.219 381.264 176.899 381.264C175.795 381.264 174.799 381.48 173.911 381.912C173.023 382.32 172.279 382.944 171.679 383.784L167.431 381.048C168.415 379.584 169.771 378.444 171.499 377.628C173.227 376.788 175.207 376.368 177.439 376.368C179.311 376.368 180.943 376.68 182.335 377.304C183.751 377.904 184.843 378.768 185.611 379.896C186.403 381 186.799 382.308 186.799 383.82C186.799 385.188 186.511 386.472 185.935 387.672C185.359 388.872 184.243 390.24 182.587 391.776L176.791 397.248H187.627ZM200.763 402.432C198.675 402.432 196.815 401.916 195.183 400.884C193.551 399.852 192.267 398.364 191.331 396.42C190.419 394.452 189.963 392.112 189.963 389.4C189.963 386.688 190.419 384.36 191.331 382.416C192.267 380.448 193.551 378.948 195.183 377.916C196.815 376.884 198.675 376.368 200.763 376.368C202.851 376.368 204.711 376.884 206.343 377.916C207.975 378.948 209.247 380.448 210.159 382.416C211.095 384.36 211.563 386.688 211.563 389.4C211.563 392.112 211.095 394.452 210.159 396.42C209.247 398.364 207.975 399.852 206.343 400.884C204.711 401.916 202.851 402.432 200.763 402.432ZM200.763 397.5C202.299 397.5 203.499 396.84 204.363 395.52C205.251 394.2 205.695 392.16 205.695 389.4C205.695 386.64 205.251 384.6 204.363 383.28C203.499 381.96 202.299 381.3 200.763 381.3C199.251 381.3 198.051 381.96 197.163 383.28C196.299 384.6 195.867 386.64 195.867 389.4C195.867 392.16 196.299 394.2 197.163 395.52C198.051 396.84 199.251 397.5 200.763 397.5Z" fill="#FFEFEF"/>
</g>
<g filter="url(#filter5_i)">
<path fill-rule="evenodd" clip-rule="evenodd" d="M139.421 41C141.892 41 143.895 43.0595 143.895 45.6V47.9H170.737C171.343 47.9 171.942 48.0265 172.499 48.2719L187.313 54.8H202.053C206.994 54.8 211 58.9189 211 64V103.1C211 108.181 206.994 112.3 202.053 112.3H186.395C185.789 112.3 185.189 112.173 184.632 111.928L169.819 105.4H143.895V123.8H148.368C150.839 123.8 152.842 125.859 152.842 128.4C152.842 130.941 150.839 133 148.368 133H130.474C128.003 133 126 130.941 126 128.4C126 125.859 128.003 123.8 130.474 123.8H134.947V45.6C134.947 43.0595 136.95 41 139.421 41ZM143.895 96.2V57.1H169.819L184.632 63.6281C185.189 63.8735 185.789 64 186.395 64H202.053V103.1H187.313L172.499 96.5719C171.942 96.3265 171.343 96.2 170.737 96.2H143.895Z" fill="#FFEFEF"/>
</g>
<defs>
<filter id="filter0_i" x="81" y="0" width="175" height="179" filterUnits="userSpaceOnUse" color-interpolation-filters="sRGB">
<feFlood flood-opacity="0" result="BackgroundImageFix"/>
<feBlend mode="normal" in="SourceGraphic" in2="BackgroundImageFix" result="shape"/>
<feColorMatrix in="SourceAlpha" type="matrix" values="0 0 0 0 0 0 0 0 0 0 0 0 0 0 0 0 0 0 127 0" result="hardAlpha"/>
<feOffset dy="4"/>
<feGaussianBlur stdDeviation="2"/>
<feComposite in2="hardAlpha" operator="arithmetic" k2="-1" k3="1"/>
<feColorMatrix type="matrix" values="0 0 0 0 0 0 0 0 0 0 0 0 0 0 0 0 0 0 0.25 0"/>
<feBlend mode="normal" in2="shape" result="effect1_innerShadow"/>
</filter>
<filter id="filter1_i" x="81" y="0" width="175" height="179" filterUnits="userSpaceOnUse" color-interpolation-filters="sRGB">
<feFlood flood-opacity="0" result="BackgroundImageFix"/>
<feBlend mode="normal" in="SourceGraphic" in2="BackgroundImageFix" result="shape"/>
<feColorMatrix in="SourceAlpha" type="matrix" values="0 0 0 0 0 0 0 0 0 0 0 0 0 0 0 0 0 0 127 0" result="hardAlpha"/>
<feOffset dy="4"/>
<feGaussianBlur stdDeviation="2"/>
<feComposite in2="hardAlpha" operator="arithmetic" k2="-1" k3="1"/>
<feColorMatrix type="matrix" values="0 0 0 0 0 0 0 0 0 0 0 0 0 0 0 0 0 0 0.25 0"/>
<feBlend mode="normal" in2="shape" result="effect1_innerShadow"/>
</filter>
<filter id="filter2_i" x="81" y="0" width="175" height="179" filterUnits="userSpaceOnUse" color-interpolation-filters="sRGB">
<feFlood flood-opacity="0" result="BackgroundImageFix"/>
<feBlend mode="normal" in="SourceGraphic" in2="BackgroundImageFix" result="shape"/>
<feColorMatrix in="SourceAlpha" type="matrix" values="0 0 0 0 0 0 0 0 0 0 0 0 0 0 0 0 0 0 127 0" result="hardAlpha"/>
<feOffset dy="4"/>
<feGaussianBlur stdDeviation="2"/>
<feComposite in2="hardAlpha" operator="arithmetic" k2="-1" k3="1"/>
<feColorMatrix type="matrix" values="0 0 0 0 0 0 0 0 0 0 0 0 0 0 0 0 0 0 0.25 0"/>
<feBlend mode="normal" in2="shape" result="effect1_innerShadow"/>
</filter>
<filter id="filter3_i" x="51.3672" y="199.668" width="232.172" height="83.604" filterUnits="userSpaceOnUse" color-interpolation-filters="sRGB">
<feFlood flood-opacity="0" result="BackgroundImageFix"/>
<feBlend mode="normal" in="SourceGraphic" in2="BackgroundImageFix" result="shape"/>
<feColorMatrix in="SourceAlpha" type="matrix" values="0 0 0 0 0 0 0 0 0 0 0 0 0 0 0 0 0 0 127 0" result="hardAlpha"/>
<feOffset dy="4"/>
<feGaussianBlur stdDeviation="2"/>
<feComposite in2="hardAlpha" operator="arithmetic" k2="-1" k3="1"/>
<feColorMatrix type="matrix" values="0 0 0 0 0 0 0 0 0 0 0 0 0 0 0 0 0 0 0.25 0"/>
<feBlend mode="normal" in2="shape" result="effect1_innerShadow"/>
</filter>
<filter id="filter4_i" x="42.2793" y="331.288" width="249.805" height="75.144" filterUnits="userSpaceOnUse" color-interpolation-filters="sRGB">
<feFlood flood-opacity="0" result="BackgroundImageFix"/>
<feBlend mode="normal" in="SourceGraphic" in2="BackgroundImageFix" result="shape"/>
<feColorMatrix in="SourceAlpha" type="matrix" values="0 0 0 0 0 0 0 0 0 0 0 0 0 0 0 0 0 0 127 0" result="hardAlpha"/>
<feOffset dy="4"/>
<feGaussianBlur stdDeviation="2"/>
<feComposite in2="hardAlpha" operator="arithmetic" k2="-1" k3="1"/>
<feColorMatrix type="matrix" values="0 0 0 0 0 0 0 0 0 0 0 0 0 0 0 0 0 0 0.25 0"/>
<feBlend mode="normal" in2="shape" result="effect1_innerShadow"/>
</filter>
<filter id="filter5_i" x="126" y="41" width="85" height="96" filterUnits="userSpaceOnUse" color-interpolation-filters="sRGB">
<feFlood flood-opacity="0" result="BackgroundImageFix"/>
<feBlend mode="normal" in="SourceGraphic" in2="BackgroundImageFix" result="shape"/>
<feColorMatrix in="SourceAlpha" type="matrix" values="0 0 0 0 0 0 0 0 0 0 0 0 0 0 0 0 0 0 127 0" result="hardAlpha"/>
<feOffset dy="4"/>
<feGaussianBlur stdDeviation="2"/>
<feComposite in2="hardAlpha" operator="arithmetic" k2="-1" k3="1"/>
<feColorMatrix type="matrix" values="0 0 0 0 0 0 0 0 0 0 0 0 0 0 0 0 0 0 0.25 0"/>
<feBlend mode="normal" in2="shape" result="effect1_innerShadow"/>
</filter>
</defs>
</svg>
