<svg width="87" height="85" viewBox="0 0 87 85" fill="none" xmlns="http://www.w3.org/2000/svg">
<g opacity="0.9">
<g filter="url(#filter0_d)">
<ellipse cx="43.2565" cy="38.5" rx="39.2565" ry="38.5" fill="#D24139"/>
</g>
</g>
<g filter="url(#filter1_i)">
<path d="M58.8506 32.0752C58.8506 32.0752 57.6007 48.1922 56.8756 54.9813C56.5304 58.2238 54.6038 60.1239 51.448 60.1837C45.4425 60.2962 39.4302 60.3034 33.4271 60.1717C30.391 60.1071 28.4966 58.1831 28.1582 54.998C27.4285 48.1492 26.1855 32.0752 26.1855 32.0752" stroke="white" stroke-width="3.5" stroke-linecap="round" stroke-linejoin="round"/>
<path d="M62.0342 24.3493H23" stroke="white" stroke-width="3.5" stroke-linecap="round" stroke-linejoin="round"/>
<path d="M54.5123 24.3493C52.7054 24.3493 51.1494 23.0211 50.7949 21.1809L50.2356 18.271C49.8903 16.9285 48.721 16 47.3882 16H37.6446C36.3119 16 35.1426 16.9285 34.7973 18.271L34.2379 21.1809C33.8835 23.0211 32.3274 24.3493 30.5205 24.3493" stroke="white" stroke-width="3.5" stroke-linecap="round" stroke-linejoin="round"/>
</g>
<defs>
<filter id="filter0_d" x="0" y="0" width="86.5131" height="85" filterUnits="userSpaceOnUse" color-interpolation-filters="sRGB">
<feFlood flood-opacity="0" result="BackgroundImageFix"/>
<feColorMatrix in="SourceAlpha" type="matrix" values="0 0 0 0 0 0 0 0 0 0 0 0 0 0 0 0 0 0 127 0"/>
<feOffset dy="4"/>
<feGaussianBlur stdDeviation="2"/>
<feColorMatrix type="matrix" values="0 0 0 0 0 0 0 0 0 0 0 0 0 0 0 0 0 0 0.25 0"/>
<feBlend mode="normal" in2="BackgroundImageFix" result="effect1_dropShadow"/>
<feBlend mode="normal" in="SourceGraphic" in2="effect1_dropShadow" result="shape"/>
</filter>
<filter id="filter1_i" x="21.25" y="14.25" width="42.5342" height="51.7694" filterUnits="userSpaceOnUse" color-interpolation-filters="sRGB">
<feFlood flood-opacity="0" result="BackgroundImageFix"/>
<feBlend mode="normal" in="SourceGraphic" in2="BackgroundImageFix" result="shape"/>
<feColorMatrix in="SourceAlpha" type="matrix" values="0 0 0 0 0 0 0 0 0 0 0 0 0 0 0 0 0 0 127 0" result="hardAlpha"/>
<feOffset dy="4"/>
<feGaussianBlur stdDeviation="2"/>
<feComposite in2="hardAlpha" operator="arithmetic" k2="-1" k3="1"/>
<feColorMatrix type="matrix" values="0 0 0 0 0 0 0 0 0 0 0 0 0 0 0 0 0 0 0.25 0"/>
<feBlend mode="normal" in2="shape" result="effect1_innerShadow"/>
</filter>
</defs>
</svg>
