<svg width="331" height="429" viewBox="0 0 331 429" fill="none" xmlns="http://www.w3.org/2000/svg">
<rect x="7" y="429" width="313" height="324" rx="85" transform="rotate(-90 7 429)" fill="#583AA7"/>
<g filter="url(#filter0_i)">
<g filter="url(#filter1_i)">
<g filter="url(#filter2_i)">
<circle cx="168.5" cy="87.5" r="87.5" transform="rotate(-90 168.5 87.5)" fill="#E0473F"/>
</g>
</g>
</g>
<g filter="url(#filter3_i)">
<path fill-rule="evenodd" clip-rule="evenodd" d="M188.828 30.4311L219.725 61.5039C220.543 62.3284 221 63.4239 221 64.5664V119.344C221 134.039 208.747 146 193.677 146H145.598C129.564 146 117 134.292 117 119.344V104.585C117 102.147 119.049 100.168 121.574 100.168C124.099 100.168 126.148 102.147 126.148 104.585V119.344C126.148 129.504 134.51 137.166 145.598 137.166H193.677C203.703 137.166 211.852 129.168 211.852 119.344V66.3392L188.498 42.8579V50.5613C188.498 56.4743 193.481 61.2919 199.605 61.3037C202.13 61.3096 204.173 63.2884 204.167 65.7326C204.161 68.1649 202.118 70.1379 199.593 70.1379H199.586C188.431 70.1143 179.35 61.3331 179.35 50.5613V37.9049H144.311C134.297 37.9049 126.148 45.7732 126.148 55.4496V80.574C126.148 83.0122 124.099 84.9911 121.574 84.9911C119.049 84.9911 117 83.0122 117 80.574V55.4496C117 40.9026 129.253 29.0707 144.311 29.0707H183.577C183.631 29.0654 183.683 29.0506 183.733 29.0359C183.795 29.0178 183.857 29 183.924 29C183.996 29 184.059 29.0183 184.123 29.0365C184.174 29.051 184.224 29.0655 184.278 29.0707H185.528C186.772 29.0707 187.962 29.5595 188.828 30.4311ZM157.317 107.908C156.146 107.908 154.975 107.472 154.084 106.612C152.297 104.886 152.297 102.089 154.084 100.363L161.421 93.2841L154.084 86.199C152.297 84.4734 152.297 81.6818 154.084 79.9562C155.871 78.2306 158.768 78.2306 160.555 79.9562L167.886 87.0412L175.223 79.9562C177.01 78.2306 179.901 78.2306 181.688 79.9562C183.475 81.6818 183.475 84.4734 181.688 86.199L174.357 93.2841L181.688 100.363C183.475 102.089 183.475 104.886 181.688 106.612C180.798 107.472 179.627 107.908 178.456 107.908C177.285 107.908 176.114 107.472 175.223 106.612L167.886 99.5328L160.555 106.612C159.659 107.472 158.488 107.908 157.317 107.908Z" fill="white"/>
</g>
<g filter="url(#filter4_i)">
<path d="M131.72 228.432C129.152 228.432 126.824 227.88 124.736 226.776C122.672 225.648 121.04 224.1 119.84 222.132C118.664 220.14 118.076 217.896 118.076 215.4C118.076 212.904 118.664 210.672 119.84 208.704C121.04 206.712 122.672 205.164 124.736 204.06C126.824 202.932 129.164 202.368 131.756 202.368C133.94 202.368 135.908 202.752 137.66 203.52C139.436 204.288 140.924 205.392 142.124 206.832L138.38 210.288C136.676 208.32 134.564 207.336 132.044 207.336C130.484 207.336 129.092 207.684 127.868 208.38C126.644 209.052 125.684 210 124.988 211.224C124.316 212.448 123.98 213.84 123.98 215.4C123.98 216.96 124.316 218.352 124.988 219.576C125.684 220.8 126.644 221.76 127.868 222.456C129.092 223.128 130.484 223.464 132.044 223.464C134.564 223.464 136.676 222.468 138.38 220.476L142.124 223.932C140.924 225.396 139.436 226.512 137.66 227.28C135.884 228.048 133.904 228.432 131.72 228.432ZM145.666 201.288H151.282V228H145.666V201.288ZM165.71 228.288C163.67 228.288 161.834 227.868 160.202 227.028C158.594 226.164 157.334 224.976 156.422 223.464C155.51 221.952 155.054 220.236 155.054 218.316C155.054 216.396 155.51 214.68 156.422 213.168C157.334 211.656 158.594 210.48 160.202 209.64C161.834 208.776 163.67 208.344 165.71 208.344C167.75 208.344 169.574 208.776 171.182 209.64C172.79 210.48 174.05 211.656 174.962 213.168C175.874 214.68 176.33 216.396 176.33 218.316C176.33 220.236 175.874 221.952 174.962 223.464C174.05 224.976 172.79 226.164 171.182 227.028C169.574 227.868 167.75 228.288 165.71 228.288ZM165.71 223.68C167.15 223.68 168.326 223.2 169.238 222.24C170.174 221.256 170.642 219.948 170.642 218.316C170.642 216.684 170.174 215.388 169.238 214.428C168.326 213.444 167.15 212.952 165.71 212.952C164.27 212.952 163.082 213.444 162.146 214.428C161.21 215.388 160.742 216.684 160.742 218.316C160.742 219.948 161.21 221.256 162.146 222.24C163.082 223.2 164.27 223.68 165.71 223.68ZM186.6 228.288C184.992 228.288 183.42 228.096 181.884 227.712C180.348 227.304 179.124 226.8 178.212 226.2L180.084 222.168C180.948 222.72 181.992 223.176 183.216 223.536C184.44 223.872 185.64 224.04 186.816 224.04C189.192 224.04 190.38 223.452 190.38 222.276C190.38 221.724 190.056 221.328 189.408 221.088C188.76 220.848 187.764 220.644 186.42 220.476C184.836 220.236 183.528 219.96 182.496 219.648C181.464 219.336 180.564 218.784 179.796 217.992C179.052 217.2 178.68 216.072 178.68 214.608C178.68 213.384 179.028 212.304 179.724 211.368C180.444 210.408 181.476 209.664 182.82 209.136C184.188 208.608 185.796 208.344 187.644 208.344C189.012 208.344 190.368 208.5 191.712 208.812C193.08 209.1 194.208 209.508 195.096 210.036L193.224 214.032C191.52 213.072 189.66 212.592 187.644 212.592C186.444 212.592 185.544 212.76 184.944 213.096C184.344 213.432 184.044 213.864 184.044 214.392C184.044 214.992 184.368 215.412 185.016 215.652C185.664 215.892 186.696 216.12 188.112 216.336C189.696 216.6 190.992 216.888 192 217.2C193.008 217.488 193.884 218.028 194.628 218.82C195.372 219.612 195.744 220.716 195.744 222.132C195.744 223.332 195.384 224.4 194.664 225.336C193.944 226.272 192.888 227.004 191.496 227.532C190.128 228.036 188.496 228.288 186.6 228.288ZM218.181 218.388C218.181 218.46 218.145 218.964 218.073 219.9H203.421C203.685 221.1 204.309 222.048 205.293 222.744C206.277 223.44 207.501 223.788 208.965 223.788C209.973 223.788 210.861 223.644 211.629 223.356C212.421 223.044 213.153 222.564 213.825 221.916L216.813 225.156C214.989 227.244 212.325 228.288 208.821 228.288C206.637 228.288 204.705 227.868 203.025 227.028C201.345 226.164 200.049 224.976 199.137 223.464C198.225 221.952 197.769 220.236 197.769 218.316C197.769 216.42 198.213 214.716 199.101 213.204C200.013 211.668 201.249 210.48 202.809 209.64C204.393 208.776 206.157 208.344 208.101 208.344C209.997 208.344 211.713 208.752 213.249 209.568C214.785 210.384 215.985 211.56 216.849 213.096C217.737 214.608 218.181 216.372 218.181 218.388ZM208.137 212.592C206.865 212.592 205.797 212.952 204.933 213.672C204.069 214.392 203.541 215.376 203.349 216.624H212.889C212.697 215.4 212.169 214.428 211.305 213.708C210.441 212.964 209.385 212.592 208.137 212.592ZM70.835 272L65.975 264.98H65.687H60.611V272H54.779V246.8H65.687C67.919 246.8 69.851 247.172 71.483 247.916C73.139 248.66 74.411 249.716 75.299 251.084C76.187 252.452 76.631 254.072 76.631 255.944C76.631 257.816 76.175 259.436 75.263 260.804C74.375 262.148 73.103 263.18 71.447 263.9L77.099 272H70.835ZM70.727 255.944C70.727 254.528 70.271 253.448 69.359 252.704C68.447 251.936 67.115 251.552 65.363 251.552H60.611V260.336H65.363C67.115 260.336 68.447 259.952 69.359 259.184C70.271 258.416 70.727 257.336 70.727 255.944ZM99.8277 262.388C99.8277 262.46 99.7917 262.964 99.7197 263.9H85.0677C85.3317 265.1 85.9557 266.048 86.9397 266.744C87.9237 267.44 89.1477 267.788 90.6117 267.788C91.6197 267.788 92.5077 267.644 93.2757 267.356C94.0677 267.044 94.7997 266.564 95.4717 265.916L98.4597 269.156C96.6357 271.244 93.9717 272.288 90.4677 272.288C88.2837 272.288 86.3517 271.868 84.6717 271.028C82.9917 270.164 81.6957 268.976 80.7837 267.464C79.8717 265.952 79.4157 264.236 79.4157 262.316C79.4157 260.42 79.8597 258.716 80.7477 257.204C81.6597 255.668 82.8957 254.48 84.4557 253.64C86.0397 252.776 87.8037 252.344 89.7477 252.344C91.6437 252.344 93.3597 252.752 94.8957 253.568C96.4317 254.384 97.6317 255.56 98.4957 257.096C99.3837 258.608 99.8277 260.372 99.8277 262.388ZM89.7837 256.592C88.5117 256.592 87.4437 256.952 86.5797 257.672C85.7157 258.392 85.1877 259.376 84.9957 260.624H94.5357C94.3437 259.4 93.8157 258.428 92.9517 257.708C92.0877 256.964 91.0317 256.592 89.7837 256.592ZM123.547 252.632V268.76C123.547 272.312 122.623 274.952 120.775 276.68C118.927 278.408 116.227 279.272 112.675 279.272C110.803 279.272 109.027 279.044 107.347 278.588C105.667 278.132 104.275 277.472 103.171 276.608L105.403 272.576C106.219 273.248 107.251 273.776 108.499 274.16C109.747 274.568 110.995 274.772 112.243 274.772C114.187 274.772 115.615 274.328 116.527 273.44C117.463 272.576 117.931 271.256 117.931 269.48V268.652C116.467 270.26 114.427 271.064 111.811 271.064C110.035 271.064 108.403 270.68 106.915 269.912C105.451 269.12 104.287 268.016 103.423 266.6C102.559 265.184 102.127 263.552 102.127 261.704C102.127 259.856 102.559 258.224 103.423 256.808C104.287 255.392 105.451 254.3 106.915 253.532C108.403 252.74 110.035 252.344 111.811 252.344C114.619 252.344 116.755 253.268 118.219 255.116V252.632H123.547ZM112.927 266.456C114.415 266.456 115.627 266.024 116.563 265.16C117.523 264.272 118.003 263.12 118.003 261.704C118.003 260.288 117.523 259.148 116.563 258.284C115.627 257.396 114.415 256.952 112.927 256.952C111.439 256.952 110.215 257.396 109.255 258.284C108.295 259.148 107.815 260.288 107.815 261.704C107.815 263.12 108.295 264.272 109.255 265.16C110.215 266.024 111.439 266.456 112.927 266.456ZM128.774 252.632H134.39V272H128.774V252.632ZM131.582 249.932C130.55 249.932 129.71 249.632 129.062 249.032C128.414 248.432 128.09 247.688 128.09 246.8C128.09 245.912 128.414 245.168 129.062 244.568C129.71 243.968 130.55 243.668 131.582 243.668C132.614 243.668 133.454 243.956 134.102 244.532C134.75 245.108 135.074 245.828 135.074 246.692C135.074 247.628 134.75 248.408 134.102 249.032C133.454 249.632 132.614 249.932 131.582 249.932ZM146.118 272.288C144.51 272.288 142.938 272.096 141.402 271.712C139.866 271.304 138.642 270.8 137.73 270.2L139.602 266.168C140.466 266.72 141.51 267.176 142.734 267.536C143.958 267.872 145.158 268.04 146.334 268.04C148.71 268.04 149.898 267.452 149.898 266.276C149.898 265.724 149.574 265.328 148.926 265.088C148.278 264.848 147.282 264.644 145.938 264.476C144.354 264.236 143.046 263.96 142.014 263.648C140.982 263.336 140.082 262.784 139.314 261.992C138.57 261.2 138.198 260.072 138.198 258.608C138.198 257.384 138.546 256.304 139.242 255.368C139.962 254.408 140.994 253.664 142.338 253.136C143.706 252.608 145.314 252.344 147.162 252.344C148.53 252.344 149.886 252.5 151.23 252.812C152.598 253.1 153.726 253.508 154.614 254.036L152.742 258.032C151.038 257.072 149.178 256.592 147.162 256.592C145.962 256.592 145.062 256.76 144.462 257.096C143.862 257.432 143.562 257.864 143.562 258.392C143.562 258.992 143.886 259.412 144.534 259.652C145.182 259.892 146.214 260.12 147.63 260.336C149.214 260.6 150.51 260.888 151.518 261.2C152.526 261.488 153.402 262.028 154.146 262.82C154.89 263.612 155.262 264.716 155.262 266.132C155.262 267.332 154.902 268.4 154.182 269.336C153.462 270.272 152.406 271.004 151.014 271.532C149.646 272.036 148.014 272.288 146.118 272.288ZM171.219 271.064C170.667 271.472 169.983 271.784 169.167 272C168.375 272.192 167.535 272.288 166.647 272.288C164.343 272.288 162.555 271.7 161.283 270.524C160.035 269.348 159.411 267.62 159.411 265.34V257.384H156.423V253.064H159.411V248.348H165.027V253.064H169.851V257.384H165.027V265.268C165.027 266.084 165.231 266.72 165.639 267.176C166.071 267.608 166.671 267.824 167.439 267.824C168.327 267.824 169.083 267.584 169.707 267.104L171.219 271.064ZM179.735 255.188C180.407 254.252 181.307 253.544 182.435 253.064C183.587 252.584 184.907 252.344 186.395 252.344V257.528C185.771 257.48 185.351 257.456 185.135 257.456C183.527 257.456 182.267 257.912 181.355 258.824C180.443 259.712 179.987 261.056 179.987 262.856V272H174.371V252.632H179.735V255.188ZM197.441 252.344C200.441 252.344 202.745 253.064 204.353 254.504C205.961 255.92 206.765 258.068 206.765 260.948V272H201.509V269.588C200.453 271.388 198.485 272.288 195.605 272.288C194.117 272.288 192.821 272.036 191.717 271.532C190.637 271.028 189.809 270.332 189.233 269.444C188.657 268.556 188.369 267.548 188.369 266.42C188.369 264.62 189.041 263.204 190.385 262.172C191.753 261.14 193.853 260.624 196.685 260.624H201.149C201.149 259.4 200.777 258.464 200.033 257.816C199.289 257.144 198.173 256.808 196.685 256.808C195.653 256.808 194.633 256.976 193.625 257.312C192.641 257.624 191.801 258.056 191.105 258.608L189.089 254.684C190.145 253.94 191.405 253.364 192.869 252.956C194.357 252.548 195.881 252.344 197.441 252.344ZM197.009 268.508C197.969 268.508 198.821 268.292 199.565 267.86C200.309 267.404 200.837 266.744 201.149 265.88V263.9H197.297C194.993 263.9 193.841 264.656 193.841 266.168C193.841 266.888 194.117 267.464 194.669 267.896C195.245 268.304 196.025 268.508 197.009 268.508ZM224.34 271.064C223.788 271.472 223.104 271.784 222.288 272C221.496 272.192 220.656 272.288 219.768 272.288C217.464 272.288 215.676 271.7 214.404 270.524C213.156 269.348 212.532 267.62 212.532 265.34V257.384H209.544V253.064H212.532V248.348H218.148V253.064H222.972V257.384H218.148V265.268C218.148 266.084 218.352 266.72 218.76 267.176C219.192 267.608 219.792 267.824 220.56 267.824C221.448 267.824 222.204 267.584 222.828 267.104L224.34 271.064ZM227.492 252.632H233.108V272H227.492V252.632ZM230.3 249.932C229.268 249.932 228.428 249.632 227.78 249.032C227.132 248.432 226.808 247.688 226.808 246.8C226.808 245.912 227.132 245.168 227.78 244.568C228.428 243.968 229.268 243.668 230.3 243.668C231.332 243.668 232.172 243.956 232.82 244.532C233.468 245.108 233.792 245.828 233.792 246.692C233.792 247.628 233.468 248.408 232.82 249.032C232.172 249.632 231.332 249.932 230.3 249.932ZM247.537 272.288C245.497 272.288 243.661 271.868 242.029 271.028C240.421 270.164 239.161 268.976 238.249 267.464C237.337 265.952 236.881 264.236 236.881 262.316C236.881 260.396 237.337 258.68 238.249 257.168C239.161 255.656 240.421 254.48 242.029 253.64C243.661 252.776 245.497 252.344 247.537 252.344C249.577 252.344 251.401 252.776 253.009 253.64C254.617 254.48 255.877 255.656 256.789 257.168C257.701 258.68 258.157 260.396 258.157 262.316C258.157 264.236 257.701 265.952 256.789 267.464C255.877 268.976 254.617 270.164 253.009 271.028C251.401 271.868 249.577 272.288 247.537 272.288ZM247.537 267.68C248.977 267.68 250.153 267.2 251.065 266.24C252.001 265.256 252.469 263.948 252.469 262.316C252.469 260.684 252.001 259.388 251.065 258.428C250.153 257.444 248.977 256.952 247.537 256.952C246.097 256.952 244.909 257.444 243.973 258.428C243.037 259.388 242.569 260.684 242.569 262.316C242.569 263.948 243.037 265.256 243.973 266.24C244.909 267.2 246.097 267.68 247.537 267.68ZM273.682 252.344C276.082 252.344 278.014 253.064 279.478 254.504C280.966 255.944 281.71 258.08 281.71 260.912V272H276.094V261.776C276.094 260.24 275.758 259.1 275.086 258.356C274.414 257.588 273.442 257.204 272.17 257.204C270.754 257.204 269.626 257.648 268.786 258.536C267.946 259.4 267.526 260.696 267.526 262.424V272H261.91V252.632H267.274V254.9C268.018 254.084 268.942 253.46 270.046 253.028C271.15 252.572 272.362 252.344 273.682 252.344Z" fill="#FFEFEF"/>
</g>
<g filter="url(#filter5_i)">
<path d="M47.6526 343.06C49.8606 343.42 51.5526 344.248 52.7286 345.544C53.9046 346.816 54.4926 348.4 54.4926 350.296C54.4926 351.76 54.1086 353.116 53.3406 354.364C52.5726 355.588 51.3966 356.572 49.8126 357.316C48.2526 358.06 46.3326 358.432 44.0526 358.432C42.2766 358.432 40.5246 358.204 38.7966 357.748C37.0926 357.268 35.6406 356.596 34.4406 355.732L36.7086 351.268C37.6686 351.988 38.7726 352.552 40.0206 352.96C41.2926 353.344 42.5886 353.536 43.9086 353.536C45.3726 353.536 46.5246 353.26 47.3646 352.708C48.2046 352.132 48.6246 351.328 48.6246 350.296C48.6246 348.232 47.0526 347.2 43.9086 347.2H41.2446V343.348L46.4286 337.48H35.7006V332.8H53.3406V336.58L47.6526 343.06ZM81.1686 358.432C78.5526 358.432 76.1886 357.868 74.0766 356.74C71.9886 355.612 70.3446 354.064 69.1446 352.096C67.9686 350.104 67.3806 347.872 67.3806 345.4C67.3806 342.928 67.9686 340.708 69.1446 338.74C70.3446 336.748 71.9886 335.188 74.0766 334.06C76.1886 332.932 78.5526 332.368 81.1686 332.368C83.7846 332.368 86.1366 332.932 88.2246 334.06C90.3126 335.188 91.9566 336.748 93.1566 338.74C94.3566 340.708 94.9566 342.928 94.9566 345.4C94.9566 347.872 94.3566 350.104 93.1566 352.096C91.9566 354.064 90.3126 355.612 88.2246 356.74C86.1366 357.868 83.7846 358.432 81.1686 358.432ZM81.1686 353.464C82.6566 353.464 84.0006 353.128 85.2006 352.456C86.4006 351.76 87.3366 350.8 88.0086 349.576C88.7046 348.352 89.0526 346.96 89.0526 345.4C89.0526 343.84 88.7046 342.448 88.0086 341.224C87.3366 340 86.4006 339.052 85.2006 338.38C84.0006 337.684 82.6566 337.336 81.1686 337.336C79.6806 337.336 78.3366 337.684 77.1366 338.38C75.9366 339.052 74.9886 340 74.2926 341.224C73.6206 342.448 73.2846 343.84 73.2846 345.4C73.2846 346.96 73.6206 348.352 74.2926 349.576C74.9886 350.8 75.9366 351.76 77.1366 352.456C78.3366 353.128 79.6806 353.464 81.1686 353.464ZM108.304 358.288C106.24 358.288 104.38 357.868 102.724 357.028C101.092 356.164 99.8076 354.976 98.8716 353.464C97.9596 351.952 97.5036 350.236 97.5036 348.316C97.5036 346.396 97.9596 344.68 98.8716 343.168C99.8076 341.656 101.092 340.48 102.724 339.64C104.38 338.776 106.24 338.344 108.304 338.344C110.344 338.344 112.12 338.776 113.632 339.64C115.168 340.48 116.284 341.692 116.98 343.276L112.624 345.616C111.616 343.84 110.164 342.952 108.268 342.952C106.804 342.952 105.592 343.432 104.632 344.392C103.672 345.352 103.192 346.66 103.192 348.316C103.192 349.972 103.672 351.28 104.632 352.24C105.592 353.2 106.804 353.68 108.268 353.68C110.188 353.68 111.64 352.792 112.624 351.016L116.98 353.392C116.284 354.928 115.168 356.128 113.632 356.992C112.12 357.856 110.344 358.288 108.304 358.288ZM132.986 357.064C132.434 357.472 131.75 357.784 130.934 358C130.142 358.192 129.302 358.288 128.414 358.288C126.11 358.288 124.322 357.7 123.05 356.524C121.802 355.348 121.178 353.62 121.178 351.34V343.384H118.19V339.064H121.178V334.348H126.794V339.064H131.618V343.384H126.794V351.268C126.794 352.084 126.998 352.72 127.406 353.176C127.838 353.608 128.438 353.824 129.206 353.824C130.094 353.824 130.85 353.584 131.474 353.104L132.986 357.064ZM144.757 358.288C142.717 358.288 140.881 357.868 139.249 357.028C137.641 356.164 136.381 354.976 135.469 353.464C134.557 351.952 134.101 350.236 134.101 348.316C134.101 346.396 134.557 344.68 135.469 343.168C136.381 341.656 137.641 340.48 139.249 339.64C140.881 338.776 142.717 338.344 144.757 338.344C146.797 338.344 148.621 338.776 150.229 339.64C151.837 340.48 153.097 341.656 154.009 343.168C154.921 344.68 155.377 346.396 155.377 348.316C155.377 350.236 154.921 351.952 154.009 353.464C153.097 354.976 151.837 356.164 150.229 357.028C148.621 357.868 146.797 358.288 144.757 358.288ZM144.757 353.68C146.197 353.68 147.373 353.2 148.285 352.24C149.221 351.256 149.689 349.948 149.689 348.316C149.689 346.684 149.221 345.388 148.285 344.428C147.373 343.444 146.197 342.952 144.757 342.952C143.317 342.952 142.129 343.444 141.193 344.428C140.257 345.388 139.789 346.684 139.789 348.316C139.789 349.948 140.257 351.256 141.193 352.24C142.129 353.2 143.317 353.68 144.757 353.68ZM170.579 338.344C172.379 338.344 174.011 338.764 175.475 339.604C176.963 340.42 178.127 341.584 178.967 343.096C179.807 344.584 180.227 346.324 180.227 348.316C180.227 350.308 179.807 352.06 178.967 353.572C178.127 355.06 176.963 356.224 175.475 357.064C174.011 357.88 172.379 358.288 170.579 358.288C167.915 358.288 165.887 357.448 164.495 355.768V358H159.131V331.288H164.747V340.684C166.163 339.124 168.107 338.344 170.579 338.344ZM169.607 353.68C171.047 353.68 172.223 353.2 173.135 352.24C174.071 351.256 174.539 349.948 174.539 348.316C174.539 346.684 174.071 345.388 173.135 344.428C172.223 343.444 171.047 342.952 169.607 342.952C168.167 342.952 166.979 343.444 166.043 344.428C165.131 345.388 164.675 346.684 164.675 348.316C164.675 349.948 165.131 351.256 166.043 352.24C166.979 353.2 168.167 353.68 169.607 353.68ZM202.959 348.388C202.959 348.46 202.923 348.964 202.851 349.9H188.199C188.463 351.1 189.087 352.048 190.071 352.744C191.055 353.44 192.279 353.788 193.743 353.788C194.751 353.788 195.639 353.644 196.407 353.356C197.199 353.044 197.931 352.564 198.603 351.916L201.591 355.156C199.767 357.244 197.103 358.288 193.599 358.288C191.415 358.288 189.483 357.868 187.803 357.028C186.123 356.164 184.827 354.976 183.915 353.464C183.003 351.952 182.547 350.236 182.547 348.316C182.547 346.42 182.991 344.716 183.879 343.204C184.791 341.668 186.027 340.48 187.587 339.64C189.171 338.776 190.935 338.344 192.879 338.344C194.775 338.344 196.491 338.752 198.027 339.568C199.563 340.384 200.763 341.56 201.627 343.096C202.515 344.608 202.959 346.372 202.959 348.388ZM192.915 342.592C191.643 342.592 190.575 342.952 189.711 343.672C188.847 344.392 188.319 345.376 188.127 346.624H197.667C197.475 345.4 196.947 344.428 196.083 343.708C195.219 342.964 194.163 342.592 192.915 342.592ZM212.061 341.188C212.733 340.252 213.633 339.544 214.761 339.064C215.913 338.584 217.233 338.344 218.721 338.344V343.528C218.097 343.48 217.677 343.456 217.461 343.456C215.853 343.456 214.593 343.912 213.681 344.824C212.769 345.712 212.313 347.056 212.313 348.856V358H206.697V338.632H212.061V341.188ZM250.037 353.248V358H230.993V354.22L240.713 345.04C241.745 344.056 242.441 343.216 242.801 342.52C243.161 341.8 243.341 341.092 243.341 340.396C243.341 339.388 242.993 338.62 242.297 338.092C241.625 337.54 240.629 337.264 239.309 337.264C238.205 337.264 237.209 337.48 236.321 337.912C235.433 338.32 234.689 338.944 234.089 339.784L229.841 337.048C230.825 335.584 232.181 334.444 233.909 333.628C235.637 332.788 237.617 332.368 239.849 332.368C241.721 332.368 243.353 332.68 244.745 333.304C246.161 333.904 247.253 334.768 248.021 335.896C248.813 337 249.209 338.308 249.209 339.82C249.209 341.188 248.921 342.472 248.345 343.672C247.769 344.872 246.653 346.24 244.997 347.776L239.201 353.248H250.037ZM263.173 358.432C261.085 358.432 259.225 357.916 257.593 356.884C255.961 355.852 254.677 354.364 253.741 352.42C252.829 350.452 252.373 348.112 252.373 345.4C252.373 342.688 252.829 340.36 253.741 338.416C254.677 336.448 255.961 334.948 257.593 333.916C259.225 332.884 261.085 332.368 263.173 332.368C265.261 332.368 267.121 332.884 268.753 333.916C270.385 334.948 271.657 336.448 272.569 338.416C273.505 340.36 273.973 342.688 273.973 345.4C273.973 348.112 273.505 350.452 272.569 352.42C271.657 354.364 270.385 355.852 268.753 356.884C267.121 357.916 265.261 358.432 263.173 358.432ZM263.173 353.5C264.709 353.5 265.909 352.84 266.773 351.52C267.661 350.2 268.105 348.16 268.105 345.4C268.105 342.64 267.661 340.6 266.773 339.28C265.909 337.96 264.709 337.3 263.173 337.3C261.661 337.3 260.461 337.96 259.573 339.28C258.709 340.6 258.277 342.64 258.277 345.4C258.277 348.16 258.709 350.2 259.573 351.52C260.461 352.84 261.661 353.5 263.173 353.5ZM295.423 353.248V358H276.379V354.22L286.099 345.04C287.131 344.056 287.827 343.216 288.187 342.52C288.547 341.8 288.727 341.092 288.727 340.396C288.727 339.388 288.379 338.62 287.683 338.092C287.011 337.54 286.015 337.264 284.695 337.264C283.591 337.264 282.595 337.48 281.707 337.912C280.819 338.32 280.075 338.944 279.475 339.784L275.227 337.048C276.211 335.584 277.567 334.444 279.295 333.628C281.023 332.788 283.003 332.368 285.235 332.368C287.107 332.368 288.739 332.68 290.131 333.304C291.547 333.904 292.639 334.768 293.407 335.896C294.199 337 294.595 338.308 294.595 339.82C294.595 341.188 294.307 342.472 293.731 343.672C293.155 344.872 292.039 346.24 290.383 347.776L284.587 353.248H295.423ZM307.55 332.8V358H301.718V337.48H296.678V332.8H307.55Z" fill="#FFEFEF"/>
</g>
<defs>
<filter id="filter0_i" x="81" y="0" width="175" height="179" filterUnits="userSpaceOnUse" color-interpolation-filters="sRGB">
<feFlood flood-opacity="0" result="BackgroundImageFix"/>
<feBlend mode="normal" in="SourceGraphic" in2="BackgroundImageFix" result="shape"/>
<feColorMatrix in="SourceAlpha" type="matrix" values="0 0 0 0 0 0 0 0 0 0 0 0 0 0 0 0 0 0 127 0" result="hardAlpha"/>
<feOffset dy="4"/>
<feGaussianBlur stdDeviation="2"/>
<feComposite in2="hardAlpha" operator="arithmetic" k2="-1" k3="1"/>
<feColorMatrix type="matrix" values="0 0 0 0 0 0 0 0 0 0 0 0 0 0 0 0 0 0 0.25 0"/>
<feBlend mode="normal" in2="shape" result="effect1_innerShadow"/>
</filter>
<filter id="filter1_i" x="81" y="0" width="175" height="179" filterUnits="userSpaceOnUse" color-interpolation-filters="sRGB">
<feFlood flood-opacity="0" result="BackgroundImageFix"/>
<feBlend mode="normal" in="SourceGraphic" in2="BackgroundImageFix" result="shape"/>
<feColorMatrix in="SourceAlpha" type="matrix" values="0 0 0 0 0 0 0 0 0 0 0 0 0 0 0 0 0 0 127 0" result="hardAlpha"/>
<feOffset dy="4"/>
<feGaussianBlur stdDeviation="2"/>
<feComposite in2="hardAlpha" operator="arithmetic" k2="-1" k3="1"/>
<feColorMatrix type="matrix" values="0 0 0 0 0 0 0 0 0 0 0 0 0 0 0 0 0 0 0.25 0"/>
<feBlend mode="normal" in2="shape" result="effect1_innerShadow"/>
</filter>
<filter id="filter2_i" x="81" y="0" width="175" height="179" filterUnits="userSpaceOnUse" color-interpolation-filters="sRGB">
<feFlood flood-opacity="0" result="BackgroundImageFix"/>
<feBlend mode="normal" in="SourceGraphic" in2="BackgroundImageFix" result="shape"/>
<feColorMatrix in="SourceAlpha" type="matrix" values="0 0 0 0 0 0 0 0 0 0 0 0 0 0 0 0 0 0 127 0" result="hardAlpha"/>
<feOffset dy="4"/>
<feGaussianBlur stdDeviation="2"/>
<feComposite in2="hardAlpha" operator="arithmetic" k2="-1" k3="1"/>
<feColorMatrix type="matrix" values="0 0 0 0 0 0 0 0 0 0 0 0 0 0 0 0 0 0 0.25 0"/>
<feBlend mode="normal" in2="shape" result="effect1_innerShadow"/>
</filter>
<filter id="filter3_i" x="117" y="29" width="104" height="121" filterUnits="userSpaceOnUse" color-interpolation-filters="sRGB">
<feFlood flood-opacity="0" result="BackgroundImageFix"/>
<feBlend mode="normal" in="SourceGraphic" in2="BackgroundImageFix" result="shape"/>
<feColorMatrix in="SourceAlpha" type="matrix" values="0 0 0 0 0 0 0 0 0 0 0 0 0 0 0 0 0 0 127 0" result="hardAlpha"/>
<feOffset dy="4"/>
<feGaussianBlur stdDeviation="2"/>
<feComposite in2="hardAlpha" operator="arithmetic" k2="-1" k3="1"/>
<feColorMatrix type="matrix" values="0 0 0 0 0 0 0 0 0 0 0 0 0 0 0 0 0 0 0.25 0"/>
<feBlend mode="normal" in2="shape" result="effect1_innerShadow"/>
</filter>
<filter id="filter4_i" x="54.7793" y="201.288" width="226.931" height="81.984" filterUnits="userSpaceOnUse" color-interpolation-filters="sRGB">
<feFlood flood-opacity="0" result="BackgroundImageFix"/>
<feBlend mode="normal" in="SourceGraphic" in2="BackgroundImageFix" result="shape"/>
<feColorMatrix in="SourceAlpha" type="matrix" values="0 0 0 0 0 0 0 0 0 0 0 0 0 0 0 0 0 0 127 0" result="hardAlpha"/>
<feOffset dy="4"/>
<feGaussianBlur stdDeviation="2"/>
<feComposite in2="hardAlpha" operator="arithmetic" k2="-1" k3="1"/>
<feColorMatrix type="matrix" values="0 0 0 0 0 0 0 0 0 0 0 0 0 0 0 0 0 0 0.25 0"/>
<feBlend mode="normal" in2="shape" result="effect1_innerShadow"/>
</filter>
<filter id="filter5_i" x="34.4404" y="331.288" width="273.109" height="31.144" filterUnits="userSpaceOnUse" color-interpolation-filters="sRGB">
<feFlood flood-opacity="0" result="BackgroundImageFix"/>
<feBlend mode="normal" in="SourceGraphic" in2="BackgroundImageFix" result="shape"/>
<feColorMatrix in="SourceAlpha" type="matrix" values="0 0 0 0 0 0 0 0 0 0 0 0 0 0 0 0 0 0 127 0" result="hardAlpha"/>
<feOffset dy="4"/>
<feGaussianBlur stdDeviation="2"/>
<feComposite in2="hardAlpha" operator="arithmetic" k2="-1" k3="1"/>
<feColorMatrix type="matrix" values="0 0 0 0 0 0 0 0 0 0 0 0 0 0 0 0 0 0 0.25 0"/>
<feBlend mode="normal" in2="shape" result="effect1_innerShadow"/>
</filter>
</defs>
</svg>
