<svg width="324" height="429" viewBox="0 0 324 429" fill="none" xmlns="http://www.w3.org/2000/svg">
<rect y="429" width="313" height="324" rx="85" transform="rotate(-90 0 429)" fill="#583AA7"/>
<g filter="url(#filter0_i)">
<g filter="url(#filter1_i)">
<g filter="url(#filter2_i)">
<circle cx="161.5" cy="87.5" r="87.5" transform="rotate(-90 161.5 87.5)" fill="#E0473F"/>
</g>
</g>
</g>
<g filter="url(#filter3_i)">
<path d="M128.776 223.432C126.16 223.432 123.796 222.868 121.684 221.74C119.596 220.612 117.952 219.064 116.752 217.096C115.576 215.104 114.988 212.872 114.988 210.4C114.988 207.928 115.576 205.708 116.752 203.74C117.952 201.748 119.596 200.188 121.684 199.06C123.796 197.932 126.16 197.368 128.776 197.368C131.392 197.368 133.744 197.932 135.832 199.06C137.92 200.188 139.564 201.748 140.764 203.74C141.964 205.708 142.564 207.928 142.564 210.4C142.564 212.872 141.964 215.104 140.764 217.096C139.564 219.064 137.92 220.612 135.832 221.74C133.744 222.868 131.392 223.432 128.776 223.432ZM128.776 218.464C130.264 218.464 131.608 218.128 132.808 217.456C134.008 216.76 134.944 215.8 135.616 214.576C136.312 213.352 136.66 211.96 136.66 210.4C136.66 208.84 136.312 207.448 135.616 206.224C134.944 205 134.008 204.052 132.808 203.38C131.608 202.684 130.264 202.336 128.776 202.336C127.288 202.336 125.944 202.684 124.744 203.38C123.544 204.052 122.596 205 121.9 206.224C121.228 207.448 120.892 208.84 120.892 210.4C120.892 211.96 121.228 213.352 121.9 214.576C122.596 215.8 123.544 216.76 124.744 217.456C125.944 218.128 127.288 218.464 128.776 218.464ZM157.999 203.344C159.799 203.344 161.431 203.764 162.895 204.604C164.383 205.42 165.547 206.584 166.387 208.096C167.227 209.584 167.647 211.324 167.647 213.316C167.647 215.308 167.227 217.06 166.387 218.572C165.547 220.06 164.383 221.224 162.895 222.064C161.431 222.88 159.799 223.288 157.999 223.288C155.527 223.288 153.583 222.508 152.167 220.948V229.984H146.551V203.632H151.915V205.864C153.307 204.184 155.335 203.344 157.999 203.344ZM157.027 218.68C158.467 218.68 159.643 218.2 160.555 217.24C161.491 216.256 161.959 214.948 161.959 213.316C161.959 211.684 161.491 210.388 160.555 209.428C159.643 208.444 158.467 207.952 157.027 207.952C155.587 207.952 154.399 208.444 153.463 209.428C152.551 210.388 152.095 211.684 152.095 213.316C152.095 214.948 152.551 216.256 153.463 217.24C154.399 218.2 155.587 218.68 157.027 218.68ZM190.378 213.388C190.378 213.46 190.342 213.964 190.27 214.9H175.618C175.882 216.1 176.506 217.048 177.49 217.744C178.474 218.44 179.698 218.788 181.162 218.788C182.17 218.788 183.058 218.644 183.826 218.356C184.618 218.044 185.35 217.564 186.022 216.916L189.01 220.156C187.186 222.244 184.522 223.288 181.018 223.288C178.834 223.288 176.902 222.868 175.222 222.028C173.542 221.164 172.246 219.976 171.334 218.464C170.422 216.952 169.966 215.236 169.966 213.316C169.966 211.42 170.41 209.716 171.298 208.204C172.21 206.668 173.446 205.48 175.006 204.64C176.59 203.776 178.354 203.344 180.298 203.344C182.194 203.344 183.91 203.752 185.446 204.568C186.982 205.384 188.182 206.56 189.046 208.096C189.934 209.608 190.378 211.372 190.378 213.388ZM180.334 207.592C179.062 207.592 177.994 207.952 177.13 208.672C176.266 209.392 175.738 210.376 175.546 211.624H185.086C184.894 210.4 184.366 209.428 183.502 208.708C182.638 207.964 181.582 207.592 180.334 207.592ZM205.889 203.344C208.289 203.344 210.221 204.064 211.685 205.504C213.173 206.944 213.917 209.08 213.917 211.912V223H208.301V212.776C208.301 211.24 207.965 210.1 207.293 209.356C206.621 208.588 205.649 208.204 204.377 208.204C202.961 208.204 201.833 208.648 200.993 209.536C200.153 210.4 199.733 211.696 199.733 213.424V223H194.117V203.632H199.481V205.9C200.225 205.084 201.149 204.46 202.253 204.028C203.357 203.572 204.569 203.344 205.889 203.344ZM67.835 267L62.975 259.98H62.687H57.611V267H51.779V241.8H62.687C64.919 241.8 66.851 242.172 68.483 242.916C70.139 243.66 71.411 244.716 72.299 246.084C73.187 247.452 73.631 249.072 73.631 250.944C73.631 252.816 73.175 254.436 72.263 255.804C71.375 257.148 70.103 258.18 68.447 258.9L74.099 267H67.835ZM67.727 250.944C67.727 249.528 67.271 248.448 66.359 247.704C65.447 246.936 64.115 246.552 62.363 246.552H57.611V255.336H62.363C64.115 255.336 65.447 254.952 66.359 254.184C67.271 253.416 67.727 252.336 67.727 250.944ZM96.8277 257.388C96.8277 257.46 96.7917 257.964 96.7197 258.9H82.0677C82.3317 260.1 82.9557 261.048 83.9397 261.744C84.9237 262.44 86.1477 262.788 87.6117 262.788C88.6197 262.788 89.5077 262.644 90.2757 262.356C91.0677 262.044 91.7997 261.564 92.4717 260.916L95.4597 264.156C93.6357 266.244 90.9717 267.288 87.4677 267.288C85.2837 267.288 83.3517 266.868 81.6717 266.028C79.9917 265.164 78.6957 263.976 77.7837 262.464C76.8717 260.952 76.4157 259.236 76.4157 257.316C76.4157 255.42 76.8597 253.716 77.7477 252.204C78.6597 250.668 79.8957 249.48 81.4557 248.64C83.0397 247.776 84.8037 247.344 86.7477 247.344C88.6437 247.344 90.3597 247.752 91.8957 248.568C93.4317 249.384 94.6317 250.56 95.4957 252.096C96.3837 253.608 96.8277 255.372 96.8277 257.388ZM86.7837 251.592C85.5117 251.592 84.4437 251.952 83.5797 252.672C82.7157 253.392 82.1877 254.376 81.9957 255.624H91.5357C91.3437 254.4 90.8157 253.428 89.9517 252.708C89.0877 251.964 88.0317 251.592 86.7837 251.592ZM120.547 247.632V263.76C120.547 267.312 119.623 269.952 117.775 271.68C115.927 273.408 113.227 274.272 109.675 274.272C107.803 274.272 106.027 274.044 104.347 273.588C102.667 273.132 101.275 272.472 100.171 271.608L102.403 267.576C103.219 268.248 104.251 268.776 105.499 269.16C106.747 269.568 107.995 269.772 109.243 269.772C111.187 269.772 112.615 269.328 113.527 268.44C114.463 267.576 114.931 266.256 114.931 264.48V263.652C113.467 265.26 111.427 266.064 108.811 266.064C107.035 266.064 105.403 265.68 103.915 264.912C102.451 264.12 101.287 263.016 100.423 261.6C99.5586 260.184 99.1266 258.552 99.1266 256.704C99.1266 254.856 99.5586 253.224 100.423 251.808C101.287 250.392 102.451 249.3 103.915 248.532C105.403 247.74 107.035 247.344 108.811 247.344C111.619 247.344 113.755 248.268 115.219 250.116V247.632H120.547ZM109.927 261.456C111.415 261.456 112.627 261.024 113.563 260.16C114.523 259.272 115.003 258.12 115.003 256.704C115.003 255.288 114.523 254.148 113.563 253.284C112.627 252.396 111.415 251.952 109.927 251.952C108.439 251.952 107.215 252.396 106.255 253.284C105.295 254.148 104.815 255.288 104.815 256.704C104.815 258.12 105.295 259.272 106.255 260.16C107.215 261.024 108.439 261.456 109.927 261.456ZM125.774 247.632H131.39V267H125.774V247.632ZM128.582 244.932C127.55 244.932 126.71 244.632 126.062 244.032C125.414 243.432 125.09 242.688 125.09 241.8C125.09 240.912 125.414 240.168 126.062 239.568C126.71 238.968 127.55 238.668 128.582 238.668C129.614 238.668 130.454 238.956 131.102 239.532C131.75 240.108 132.074 240.828 132.074 241.692C132.074 242.628 131.75 243.408 131.102 244.032C130.454 244.632 129.614 244.932 128.582 244.932ZM143.118 267.288C141.51 267.288 139.938 267.096 138.402 266.712C136.866 266.304 135.642 265.8 134.73 265.2L136.602 261.168C137.466 261.72 138.51 262.176 139.734 262.536C140.958 262.872 142.158 263.04 143.334 263.04C145.71 263.04 146.898 262.452 146.898 261.276C146.898 260.724 146.574 260.328 145.926 260.088C145.278 259.848 144.282 259.644 142.938 259.476C141.354 259.236 140.046 258.96 139.014 258.648C137.982 258.336 137.082 257.784 136.314 256.992C135.57 256.2 135.198 255.072 135.198 253.608C135.198 252.384 135.546 251.304 136.242 250.368C136.962 249.408 137.994 248.664 139.338 248.136C140.706 247.608 142.314 247.344 144.162 247.344C145.53 247.344 146.886 247.5 148.23 247.812C149.598 248.1 150.726 248.508 151.614 249.036L149.742 253.032C148.038 252.072 146.178 251.592 144.162 251.592C142.962 251.592 142.062 251.76 141.462 252.096C140.862 252.432 140.562 252.864 140.562 253.392C140.562 253.992 140.886 254.412 141.534 254.652C142.182 254.892 143.214 255.12 144.63 255.336C146.214 255.6 147.51 255.888 148.518 256.2C149.526 256.488 150.402 257.028 151.146 257.82C151.89 258.612 152.262 259.716 152.262 261.132C152.262 262.332 151.902 263.4 151.182 264.336C150.462 265.272 149.406 266.004 148.014 266.532C146.646 267.036 145.014 267.288 143.118 267.288ZM168.219 266.064C167.667 266.472 166.983 266.784 166.167 267C165.375 267.192 164.535 267.288 163.647 267.288C161.343 267.288 159.555 266.7 158.283 265.524C157.035 264.348 156.411 262.62 156.411 260.34V252.384H153.423V248.064H156.411V243.348H162.027V248.064H166.851V252.384H162.027V260.268C162.027 261.084 162.231 261.72 162.639 262.176C163.071 262.608 163.671 262.824 164.439 262.824C165.327 262.824 166.083 262.584 166.707 262.104L168.219 266.064ZM176.735 250.188C177.407 249.252 178.307 248.544 179.435 248.064C180.587 247.584 181.907 247.344 183.395 247.344V252.528C182.771 252.48 182.351 252.456 182.135 252.456C180.527 252.456 179.267 252.912 178.355 253.824C177.443 254.712 176.987 256.056 176.987 257.856V267H171.371V247.632H176.735V250.188ZM194.441 247.344C197.441 247.344 199.745 248.064 201.353 249.504C202.961 250.92 203.765 253.068 203.765 255.948V267H198.509V264.588C197.453 266.388 195.485 267.288 192.605 267.288C191.117 267.288 189.821 267.036 188.717 266.532C187.637 266.028 186.809 265.332 186.233 264.444C185.657 263.556 185.369 262.548 185.369 261.42C185.369 259.62 186.041 258.204 187.385 257.172C188.753 256.14 190.853 255.624 193.685 255.624H198.149C198.149 254.4 197.777 253.464 197.033 252.816C196.289 252.144 195.173 251.808 193.685 251.808C192.653 251.808 191.633 251.976 190.625 252.312C189.641 252.624 188.801 253.056 188.105 253.608L186.089 249.684C187.145 248.94 188.405 248.364 189.869 247.956C191.357 247.548 192.881 247.344 194.441 247.344ZM194.009 263.508C194.969 263.508 195.821 263.292 196.565 262.86C197.309 262.404 197.837 261.744 198.149 260.88V258.9H194.297C191.993 258.9 190.841 259.656 190.841 261.168C190.841 261.888 191.117 262.464 191.669 262.896C192.245 263.304 193.025 263.508 194.009 263.508ZM221.34 266.064C220.788 266.472 220.104 266.784 219.288 267C218.496 267.192 217.656 267.288 216.768 267.288C214.464 267.288 212.676 266.7 211.404 265.524C210.156 264.348 209.532 262.62 209.532 260.34V252.384H206.544V248.064H209.532V243.348H215.148V248.064H219.972V252.384H215.148V260.268C215.148 261.084 215.352 261.72 215.76 262.176C216.192 262.608 216.792 262.824 217.56 262.824C218.448 262.824 219.204 262.584 219.828 262.104L221.34 266.064ZM224.492 247.632H230.108V267H224.492V247.632ZM227.3 244.932C226.268 244.932 225.428 244.632 224.78 244.032C224.132 243.432 223.808 242.688 223.808 241.8C223.808 240.912 224.132 240.168 224.78 239.568C225.428 238.968 226.268 238.668 227.3 238.668C228.332 238.668 229.172 238.956 229.82 239.532C230.468 240.108 230.792 240.828 230.792 241.692C230.792 242.628 230.468 243.408 229.82 244.032C229.172 244.632 228.332 244.932 227.3 244.932ZM244.537 267.288C242.497 267.288 240.661 266.868 239.029 266.028C237.421 265.164 236.161 263.976 235.249 262.464C234.337 260.952 233.881 259.236 233.881 257.316C233.881 255.396 234.337 253.68 235.249 252.168C236.161 250.656 237.421 249.48 239.029 248.64C240.661 247.776 242.497 247.344 244.537 247.344C246.577 247.344 248.401 247.776 250.009 248.64C251.617 249.48 252.877 250.656 253.789 252.168C254.701 253.68 255.157 255.396 255.157 257.316C255.157 259.236 254.701 260.952 253.789 262.464C252.877 263.976 251.617 265.164 250.009 266.028C248.401 266.868 246.577 267.288 244.537 267.288ZM244.537 262.68C245.977 262.68 247.153 262.2 248.065 261.24C249.001 260.256 249.469 258.948 249.469 257.316C249.469 255.684 249.001 254.388 248.065 253.428C247.153 252.444 245.977 251.952 244.537 251.952C243.097 251.952 241.909 252.444 240.973 253.428C240.037 254.388 239.569 255.684 239.569 257.316C239.569 258.948 240.037 260.256 240.973 261.24C241.909 262.2 243.097 262.68 244.537 262.68ZM270.682 247.344C273.082 247.344 275.014 248.064 276.478 249.504C277.966 250.944 278.71 253.08 278.71 255.912V267H273.094V256.776C273.094 255.24 272.758 254.1 272.086 253.356C271.414 252.588 270.442 252.204 269.17 252.204C267.754 252.204 266.626 252.648 265.786 253.536C264.946 254.4 264.526 255.696 264.526 257.424V267H258.91V247.632H264.274V249.9C265.018 249.084 265.942 248.46 267.046 248.028C268.15 247.572 269.362 247.344 270.682 247.344Z" fill="#FFEFEF"/>
</g>
<g filter="url(#filter4_i)">
<path d="M60.2867 348.248V353H41.2427V349.22L50.9627 340.04C51.9947 339.056 52.6907 338.216 53.0507 337.52C53.4107 336.8 53.5907 336.092 53.5907 335.396C53.5907 334.388 53.2427 333.62 52.5467 333.092C51.8747 332.54 50.8787 332.264 49.5587 332.264C48.4547 332.264 47.4587 332.48 46.5707 332.912C45.6827 333.32 44.9387 333.944 44.3387 334.784L40.0907 332.048C41.0747 330.584 42.4307 329.444 44.1587 328.628C45.8867 327.788 47.8667 327.368 50.0987 327.368C51.9707 327.368 53.6027 327.68 54.9947 328.304C56.4107 328.904 57.5027 329.768 58.2707 330.896C59.0627 332 59.4587 333.308 59.4587 334.82C59.4587 336.188 59.1707 337.472 58.5947 338.672C58.0187 339.872 56.9027 341.24 55.2467 342.776L49.4507 348.248H60.2867ZM85.4175 347.708H81.3135V353H75.6255V347.708H62.0535V343.784L73.9335 327.8H80.0535L69.0375 342.956H75.8055V338.24H81.3135V342.956H85.4175V347.708ZM115.537 347.6H103.837L101.605 353H95.6291L106.861 327.8H112.621L123.889 353H117.769L115.537 347.6ZM113.701 343.172L109.705 333.524L105.709 343.172H113.701ZM145.912 333.632V349.76C145.912 353.312 144.988 355.952 143.14 357.68C141.292 359.408 138.592 360.272 135.04 360.272C133.168 360.272 131.392 360.044 129.712 359.588C128.032 359.132 126.64 358.472 125.536 357.608L127.768 353.576C128.584 354.248 129.616 354.776 130.864 355.16C132.112 355.568 133.36 355.772 134.608 355.772C136.552 355.772 137.98 355.328 138.892 354.44C139.828 353.576 140.296 352.256 140.296 350.48V349.652C138.832 351.26 136.792 352.064 134.176 352.064C132.4 352.064 130.768 351.68 129.28 350.912C127.816 350.12 126.652 349.016 125.788 347.6C124.924 346.184 124.492 344.552 124.492 342.704C124.492 340.856 124.924 339.224 125.788 337.808C126.652 336.392 127.816 335.3 129.28 334.532C130.768 333.74 132.4 333.344 134.176 333.344C136.984 333.344 139.12 334.268 140.584 336.116V333.632H145.912ZM135.292 347.456C136.78 347.456 137.992 347.024 138.928 346.16C139.888 345.272 140.368 344.12 140.368 342.704C140.368 341.288 139.888 340.148 138.928 339.284C137.992 338.396 136.78 337.952 135.292 337.952C133.804 337.952 132.58 338.396 131.62 339.284C130.66 340.148 130.18 341.288 130.18 342.704C130.18 344.12 130.66 345.272 131.62 346.16C132.58 347.024 133.804 347.456 135.292 347.456ZM170.651 333.632V353H165.323V350.696C164.579 351.536 163.691 352.184 162.659 352.64C161.627 353.072 160.511 353.288 159.311 353.288C156.767 353.288 154.751 352.556 153.263 351.092C151.775 349.628 151.031 347.456 151.031 344.576V333.632H156.647V343.748C156.647 346.868 157.955 348.428 160.571 348.428C161.915 348.428 162.995 347.996 163.811 347.132C164.627 346.244 165.035 344.936 165.035 343.208V333.632H170.651ZM182.37 353.288C180.762 353.288 179.19 353.096 177.654 352.712C176.118 352.304 174.894 351.8 173.982 351.2L175.854 347.168C176.718 347.72 177.762 348.176 178.986 348.536C180.21 348.872 181.41 349.04 182.586 349.04C184.962 349.04 186.15 348.452 186.15 347.276C186.15 346.724 185.826 346.328 185.178 346.088C184.53 345.848 183.534 345.644 182.19 345.476C180.606 345.236 179.298 344.96 178.266 344.648C177.234 344.336 176.334 343.784 175.566 342.992C174.822 342.2 174.45 341.072 174.45 339.608C174.45 338.384 174.798 337.304 175.494 336.368C176.214 335.408 177.246 334.664 178.59 334.136C179.958 333.608 181.566 333.344 183.414 333.344C184.782 333.344 186.138 333.5 187.482 333.812C188.85 334.1 189.978 334.508 190.866 335.036L188.994 339.032C187.29 338.072 185.43 337.592 183.414 337.592C182.214 337.592 181.314 337.76 180.714 338.096C180.114 338.432 179.814 338.864 179.814 339.392C179.814 339.992 180.138 340.412 180.786 340.652C181.434 340.892 182.466 341.12 183.882 341.336C185.466 341.6 186.762 341.888 187.77 342.2C188.778 342.488 189.654 343.028 190.398 343.82C191.142 344.612 191.514 345.716 191.514 347.132C191.514 348.332 191.154 349.4 190.434 350.336C189.714 351.272 188.658 352.004 187.266 352.532C185.898 353.036 184.266 353.288 182.37 353.288ZM207.471 352.064C206.919 352.472 206.235 352.784 205.419 353C204.627 353.192 203.787 353.288 202.899 353.288C200.595 353.288 198.807 352.7 197.535 351.524C196.287 350.348 195.663 348.62 195.663 346.34V338.384H192.675V334.064H195.663V329.348H201.279V334.064H206.103V338.384H201.279V346.268C201.279 347.084 201.483 347.72 201.891 348.176C202.323 348.608 202.923 348.824 203.691 348.824C204.579 348.824 205.335 348.584 205.959 348.104L207.471 352.064ZM238.459 348.248V353H219.415V349.22L229.135 340.04C230.167 339.056 230.863 338.216 231.223 337.52C231.583 336.8 231.763 336.092 231.763 335.396C231.763 334.388 231.415 333.62 230.719 333.092C230.047 332.54 229.051 332.264 227.731 332.264C226.627 332.264 225.631 332.48 224.743 332.912C223.855 333.32 223.111 333.944 222.511 334.784L218.263 332.048C219.247 330.584 220.603 329.444 222.331 328.628C224.059 327.788 226.039 327.368 228.271 327.368C230.143 327.368 231.775 327.68 233.167 328.304C234.583 328.904 235.675 329.768 236.443 330.896C237.235 332 237.631 333.308 237.631 334.82C237.631 336.188 237.343 337.472 236.767 338.672C236.191 339.872 235.075 341.24 233.419 342.776L227.623 348.248H238.459ZM251.595 353.432C249.507 353.432 247.647 352.916 246.015 351.884C244.383 350.852 243.099 349.364 242.163 347.42C241.251 345.452 240.795 343.112 240.795 340.4C240.795 337.688 241.251 335.36 242.163 333.416C243.099 331.448 244.383 329.948 246.015 328.916C247.647 327.884 249.507 327.368 251.595 327.368C253.683 327.368 255.543 327.884 257.175 328.916C258.807 329.948 260.079 331.448 260.991 333.416C261.927 335.36 262.395 337.688 262.395 340.4C262.395 343.112 261.927 345.452 260.991 347.42C260.079 349.364 258.807 350.852 257.175 351.884C255.543 352.916 253.683 353.432 251.595 353.432ZM251.595 348.5C253.131 348.5 254.331 347.84 255.195 346.52C256.083 345.2 256.527 343.16 256.527 340.4C256.527 337.64 256.083 335.6 255.195 334.28C254.331 332.96 253.131 332.3 251.595 332.3C250.083 332.3 248.883 332.96 247.995 334.28C247.131 335.6 246.699 337.64 246.699 340.4C246.699 343.16 247.131 345.2 247.995 346.52C248.883 347.84 250.083 348.5 251.595 348.5ZM283.845 348.248V353H264.801V349.22L274.521 340.04C275.553 339.056 276.249 338.216 276.609 337.52C276.969 336.8 277.149 336.092 277.149 335.396C277.149 334.388 276.801 333.62 276.105 333.092C275.433 332.54 274.437 332.264 273.117 332.264C272.013 332.264 271.017 332.48 270.129 332.912C269.241 333.32 268.497 333.944 267.897 334.784L263.649 332.048C264.633 330.584 265.989 329.444 267.717 328.628C269.445 327.788 271.425 327.368 273.657 327.368C275.529 327.368 277.161 327.68 278.553 328.304C279.969 328.904 281.061 329.768 281.829 330.896C282.621 332 283.017 333.308 283.017 334.82C283.017 336.188 282.729 337.472 282.153 338.672C281.577 339.872 280.461 341.24 278.805 342.776L273.009 348.248H283.845ZM295.972 327.8V353H290.14V332.48H285.1V327.8H295.972Z" fill="#FFEFEF"/>
</g>
<g filter="url(#filter5_i)">
<path fill-rule="evenodd" clip-rule="evenodd" d="M184.257 29.3743L215.823 61.0225C216.658 61.8623 217.125 62.978 217.125 64.1417V119.934C217.125 134.9 204.607 147.083 189.21 147.083H139.438C123.15 147.083 110.875 135.41 110.875 119.934V104.902C110.875 102.418 112.969 100.403 115.548 100.403C118.128 100.403 120.221 102.418 120.221 104.902V119.934C120.221 130.449 128.303 138.086 139.438 138.086H189.21C199.454 138.086 207.779 129.94 207.779 119.934V65.9473L183.92 42.0312V49.8772C183.92 55.8997 189.011 60.8065 195.267 60.8185C197.846 60.8245 199.934 62.84 199.928 65.3294C199.921 67.8068 197.834 69.8163 195.254 69.8163H195.248C183.852 69.7923 174.574 60.8485 174.574 49.8772V36.9864H139.438C129.02 36.9864 120.221 45.1684 120.221 54.856V80.4457C120.221 82.9291 118.128 84.9446 115.548 84.9446C112.969 84.9446 110.875 82.9291 110.875 80.4457V54.856C110.875 40.2916 123.954 27.9886 139.438 27.9886H178.886C178.946 27.9831 179 27.9676 179.054 27.9523C179.117 27.9343 179.18 27.9166 179.247 27.9166C179.32 27.9166 179.385 27.9352 179.45 27.9538C179.502 27.9686 179.553 27.9833 179.609 27.9886H180.886C182.157 27.9886 183.372 28.4865 184.257 29.3743ZM158.187 78.69C158.187 76.2066 160.281 74.1911 162.86 74.1911C165.44 74.1911 167.534 76.2066 167.534 78.69V88.8935H178.132C180.712 88.8935 182.806 90.909 182.806 93.3924C182.806 95.8758 180.712 97.8913 178.132 97.8913H167.534V108.089C167.534 110.572 165.44 112.588 162.86 112.588C160.281 112.588 158.187 110.572 158.187 108.089V97.8913H147.595C145.015 97.8913 142.921 95.8758 142.921 93.3924C142.921 90.909 145.015 88.8935 147.595 88.8935H158.187V78.69Z" fill="white"/>
</g>
<defs>
<filter id="filter0_i" x="74" y="0" width="175" height="179" filterUnits="userSpaceOnUse" color-interpolation-filters="sRGB">
<feFlood flood-opacity="0" result="BackgroundImageFix"/>
<feBlend mode="normal" in="SourceGraphic" in2="BackgroundImageFix" result="shape"/>
<feColorMatrix in="SourceAlpha" type="matrix" values="0 0 0 0 0 0 0 0 0 0 0 0 0 0 0 0 0 0 127 0" result="hardAlpha"/>
<feOffset dy="4"/>
<feGaussianBlur stdDeviation="2"/>
<feComposite in2="hardAlpha" operator="arithmetic" k2="-1" k3="1"/>
<feColorMatrix type="matrix" values="0 0 0 0 0 0 0 0 0 0 0 0 0 0 0 0 0 0 0.25 0"/>
<feBlend mode="normal" in2="shape" result="effect1_innerShadow"/>
</filter>
<filter id="filter1_i" x="74" y="0" width="175" height="179" filterUnits="userSpaceOnUse" color-interpolation-filters="sRGB">
<feFlood flood-opacity="0" result="BackgroundImageFix"/>
<feBlend mode="normal" in="SourceGraphic" in2="BackgroundImageFix" result="shape"/>
<feColorMatrix in="SourceAlpha" type="matrix" values="0 0 0 0 0 0 0 0 0 0 0 0 0 0 0 0 0 0 127 0" result="hardAlpha"/>
<feOffset dy="4"/>
<feGaussianBlur stdDeviation="2"/>
<feComposite in2="hardAlpha" operator="arithmetic" k2="-1" k3="1"/>
<feColorMatrix type="matrix" values="0 0 0 0 0 0 0 0 0 0 0 0 0 0 0 0 0 0 0.25 0"/>
<feBlend mode="normal" in2="shape" result="effect1_innerShadow"/>
</filter>
<filter id="filter2_i" x="74" y="0" width="175" height="179" filterUnits="userSpaceOnUse" color-interpolation-filters="sRGB">
<feFlood flood-opacity="0" result="BackgroundImageFix"/>
<feBlend mode="normal" in="SourceGraphic" in2="BackgroundImageFix" result="shape"/>
<feColorMatrix in="SourceAlpha" type="matrix" values="0 0 0 0 0 0 0 0 0 0 0 0 0 0 0 0 0 0 127 0" result="hardAlpha"/>
<feOffset dy="4"/>
<feGaussianBlur stdDeviation="2"/>
<feComposite in2="hardAlpha" operator="arithmetic" k2="-1" k3="1"/>
<feColorMatrix type="matrix" values="0 0 0 0 0 0 0 0 0 0 0 0 0 0 0 0 0 0 0.25 0"/>
<feBlend mode="normal" in2="shape" result="effect1_innerShadow"/>
</filter>
<filter id="filter3_i" x="51.7793" y="197.368" width="226.931" height="80.904" filterUnits="userSpaceOnUse" color-interpolation-filters="sRGB">
<feFlood flood-opacity="0" result="BackgroundImageFix"/>
<feBlend mode="normal" in="SourceGraphic" in2="BackgroundImageFix" result="shape"/>
<feColorMatrix in="SourceAlpha" type="matrix" values="0 0 0 0 0 0 0 0 0 0 0 0 0 0 0 0 0 0 127 0" result="hardAlpha"/>
<feOffset dy="4"/>
<feGaussianBlur stdDeviation="2"/>
<feComposite in2="hardAlpha" operator="arithmetic" k2="-1" k3="1"/>
<feColorMatrix type="matrix" values="0 0 0 0 0 0 0 0 0 0 0 0 0 0 0 0 0 0 0.25 0"/>
<feBlend mode="normal" in2="shape" result="effect1_innerShadow"/>
</filter>
<filter id="filter4_i" x="40.0908" y="327.368" width="255.881" height="36.904" filterUnits="userSpaceOnUse" color-interpolation-filters="sRGB">
<feFlood flood-opacity="0" result="BackgroundImageFix"/>
<feBlend mode="normal" in="SourceGraphic" in2="BackgroundImageFix" result="shape"/>
<feColorMatrix in="SourceAlpha" type="matrix" values="0 0 0 0 0 0 0 0 0 0 0 0 0 0 0 0 0 0 127 0" result="hardAlpha"/>
<feOffset dy="4"/>
<feGaussianBlur stdDeviation="2"/>
<feComposite in2="hardAlpha" operator="arithmetic" k2="-1" k3="1"/>
<feColorMatrix type="matrix" values="0 0 0 0 0 0 0 0 0 0 0 0 0 0 0 0 0 0 0.25 0"/>
<feBlend mode="normal" in2="shape" result="effect1_innerShadow"/>
</filter>
<filter id="filter5_i" x="89" y="16" width="150" height="147" filterUnits="userSpaceOnUse" color-interpolation-filters="sRGB">
<feFlood flood-opacity="0" result="BackgroundImageFix"/>
<feBlend mode="normal" in="SourceGraphic" in2="BackgroundImageFix" result="shape"/>
<feColorMatrix in="SourceAlpha" type="matrix" values="0 0 0 0 0 0 0 0 0 0 0 0 0 0 0 0 0 0 127 0" result="hardAlpha"/>
<feOffset dy="4"/>
<feGaussianBlur stdDeviation="2"/>
<feComposite in2="hardAlpha" operator="arithmetic" k2="-1" k3="1"/>
<feColorMatrix type="matrix" values="0 0 0 0 0 0 0 0 0 0 0 0 0 0 0 0 0 0 0.25 0"/>
<feBlend mode="normal" in2="shape" result="effect1_innerShadow"/>
</filter>
</defs>
</svg>
