<svg width="324" height="429" viewBox="0 0 324 429" fill="none" xmlns="http://www.w3.org/2000/svg">
<rect y="429" width="313" height="324" rx="85" transform="rotate(-90 0 429)" fill="#65789D"/>
<g filter="url(#filter0_i)">
<g filter="url(#filter1_i)">
<g filter="url(#filter2_i)">
<circle cx="161.5" cy="87.5" r="87.5" transform="rotate(-90 161.5 87.5)" fill="#583AA7"/>
</g>
</g>
</g>
<g filter="url(#filter3_i)">
<path d="M79.6826 207.552H71.6186V202.8H93.5786V207.552H85.5146V228H79.6826V207.552ZM113.324 218.388C113.324 218.46 113.288 218.964 113.216 219.9H98.5638C98.8278 221.1 99.4518 222.048 100.436 222.744C101.42 223.44 102.644 223.788 104.108 223.788C105.116 223.788 106.004 223.644 106.772 223.356C107.564 223.044 108.296 222.564 108.968 221.916L111.956 225.156C110.132 227.244 107.468 228.288 103.964 228.288C101.78 228.288 99.8478 227.868 98.1678 227.028C96.4878 226.164 95.1918 224.976 94.2798 223.464C93.3678 221.952 92.9118 220.236 92.9118 218.316C92.9118 216.42 93.3558 214.716 94.2438 213.204C95.1558 211.668 96.3918 210.48 97.9518 209.64C99.5358 208.776 101.3 208.344 103.244 208.344C105.14 208.344 106.856 208.752 108.392 209.568C109.928 210.384 111.128 211.56 111.992 213.096C112.88 214.608 113.324 216.372 113.324 218.388ZM103.28 212.592C102.008 212.592 100.94 212.952 100.076 213.672C99.2118 214.392 98.6838 215.376 98.4918 216.624H108.032C107.84 215.4 107.312 214.428 106.448 213.708C105.584 212.964 104.528 212.592 103.28 212.592ZM126.423 228.288C124.359 228.288 122.499 227.868 120.843 227.028C119.211 226.164 117.927 224.976 116.991 223.464C116.079 221.952 115.623 220.236 115.623 218.316C115.623 216.396 116.079 214.68 116.991 213.168C117.927 211.656 119.211 210.48 120.843 209.64C122.499 208.776 124.359 208.344 126.423 208.344C128.463 208.344 130.239 208.776 131.751 209.64C133.287 210.48 134.403 211.692 135.099 213.276L130.743 215.616C129.735 213.84 128.283 212.952 126.387 212.952C124.923 212.952 123.711 213.432 122.751 214.392C121.791 215.352 121.311 216.66 121.311 218.316C121.311 219.972 121.791 221.28 122.751 222.24C123.711 223.2 124.923 223.68 126.387 223.68C128.307 223.68 129.759 222.792 130.743 221.016L135.099 223.392C134.403 224.928 133.287 226.128 131.751 226.992C130.239 227.856 128.463 228.288 126.423 228.288ZM149.964 208.344C152.364 208.344 154.296 209.064 155.76 210.504C157.248 211.944 157.992 214.08 157.992 216.912V228H152.376V217.776C152.376 216.24 152.04 215.1 151.368 214.356C150.696 213.588 149.724 213.204 148.452 213.204C147.036 213.204 145.908 213.648 145.068 214.536C144.228 215.4 143.808 216.696 143.808 218.424V228H138.192V201.288H143.808V210.648C144.552 209.904 145.452 209.34 146.508 208.956C147.564 208.548 148.716 208.344 149.964 208.344ZM174.854 208.344C177.254 208.344 179.186 209.064 180.65 210.504C182.138 211.944 182.882 214.08 182.882 216.912V228H177.266V217.776C177.266 216.24 176.93 215.1 176.258 214.356C175.586 213.588 174.614 213.204 173.342 213.204C171.926 213.204 170.798 213.648 169.958 214.536C169.118 215.4 168.698 216.696 168.698 218.424V228H163.082V208.632H168.446V210.9C169.19 210.084 170.114 209.46 171.218 209.028C172.322 208.572 173.534 208.344 174.854 208.344ZM187.973 208.632H193.589V228H187.973V208.632ZM190.781 205.932C189.749 205.932 188.909 205.632 188.261 205.032C187.613 204.432 187.289 203.688 187.289 202.8C187.289 201.912 187.613 201.168 188.261 200.568C188.909 199.968 189.749 199.668 190.781 199.668C191.813 199.668 192.653 199.956 193.301 200.532C193.949 201.108 194.273 201.828 194.273 202.692C194.273 203.628 193.949 204.408 193.301 205.032C192.653 205.632 191.813 205.932 190.781 205.932ZM208.161 228.288C206.097 228.288 204.237 227.868 202.581 227.028C200.949 226.164 199.665 224.976 198.729 223.464C197.817 221.952 197.361 220.236 197.361 218.316C197.361 216.396 197.817 214.68 198.729 213.168C199.665 211.656 200.949 210.48 202.581 209.64C204.237 208.776 206.097 208.344 208.161 208.344C210.201 208.344 211.977 208.776 213.489 209.64C215.025 210.48 216.141 211.692 216.837 213.276L212.481 215.616C211.473 213.84 210.021 212.952 208.125 212.952C206.661 212.952 205.449 213.432 204.489 214.392C203.529 215.352 203.049 216.66 203.049 218.316C203.049 219.972 203.529 221.28 204.489 222.24C205.449 223.2 206.661 223.68 208.125 223.68C210.045 223.68 211.497 222.792 212.481 221.016L216.837 223.392C216.141 224.928 215.025 226.128 213.489 226.992C211.977 227.856 210.201 228.288 208.161 228.288ZM227.883 208.344C230.883 208.344 233.187 209.064 234.795 210.504C236.403 211.92 237.207 214.068 237.207 216.948V228H231.951V225.588C230.895 227.388 228.927 228.288 226.047 228.288C224.559 228.288 223.263 228.036 222.159 227.532C221.079 227.028 220.251 226.332 219.675 225.444C219.099 224.556 218.811 223.548 218.811 222.42C218.811 220.62 219.483 219.204 220.827 218.172C222.195 217.14 224.295 216.624 227.127 216.624H231.591C231.591 215.4 231.219 214.464 230.475 213.816C229.731 213.144 228.615 212.808 227.127 212.808C226.095 212.808 225.075 212.976 224.067 213.312C223.083 213.624 222.243 214.056 221.547 214.608L219.531 210.684C220.587 209.94 221.847 209.364 223.311 208.956C224.799 208.548 226.323 208.344 227.883 208.344ZM227.451 224.508C228.411 224.508 229.263 224.292 230.007 223.86C230.751 223.404 231.279 222.744 231.591 221.88V219.9H227.739C225.435 219.9 224.283 220.656 224.283 222.168C224.283 222.888 224.559 223.464 225.111 223.896C225.687 224.304 226.467 224.508 227.451 224.508ZM242.289 201.288H247.905V228H242.289V201.288ZM108.627 272L108.591 256.88L101.175 269.336H98.547L91.167 257.204V272H85.695V246.8H90.519L99.951 262.46L109.239 246.8H114.027L114.099 272H108.627ZM138.654 262.388C138.654 262.46 138.618 262.964 138.546 263.9H123.894C124.158 265.1 124.782 266.048 125.766 266.744C126.75 267.44 127.974 267.788 129.438 267.788C130.446 267.788 131.334 267.644 132.102 267.356C132.894 267.044 133.626 266.564 134.298 265.916L137.286 269.156C135.462 271.244 132.798 272.288 129.294 272.288C127.11 272.288 125.178 271.868 123.498 271.028C121.818 270.164 120.522 268.976 119.61 267.464C118.698 265.952 118.242 264.236 118.242 262.316C118.242 260.42 118.686 258.716 119.574 257.204C120.486 255.668 121.722 254.48 123.282 253.64C124.866 252.776 126.63 252.344 128.574 252.344C130.47 252.344 132.186 252.752 133.722 253.568C135.258 254.384 136.458 255.56 137.322 257.096C138.21 258.608 138.654 260.372 138.654 262.388ZM128.61 256.592C127.338 256.592 126.27 256.952 125.406 257.672C124.542 258.392 124.014 259.376 123.822 260.624H133.362C133.17 259.4 132.642 258.428 131.778 257.708C130.914 256.964 129.858 256.592 128.61 256.592ZM161.365 262.388C161.365 262.46 161.329 262.964 161.257 263.9H146.605C146.869 265.1 147.493 266.048 148.477 266.744C149.461 267.44 150.685 267.788 152.149 267.788C153.157 267.788 154.045 267.644 154.813 267.356C155.605 267.044 156.337 266.564 157.009 265.916L159.997 269.156C158.173 271.244 155.509 272.288 152.005 272.288C149.821 272.288 147.889 271.868 146.209 271.028C144.529 270.164 143.233 268.976 142.321 267.464C141.409 265.952 140.953 264.236 140.953 262.316C140.953 260.42 141.397 258.716 142.285 257.204C143.197 255.668 144.433 254.48 145.993 253.64C147.577 252.776 149.341 252.344 151.285 252.344C153.181 252.344 154.897 252.752 156.433 253.568C157.969 254.384 159.169 255.56 160.033 257.096C160.921 258.608 161.365 260.372 161.365 262.388ZM151.321 256.592C150.049 256.592 148.981 256.952 148.117 257.672C147.253 258.392 146.725 259.376 146.533 260.624H156.073C155.881 259.4 155.353 258.428 154.489 257.708C153.625 256.964 152.569 256.592 151.321 256.592ZM177.596 271.064C177.044 271.472 176.36 271.784 175.544 272C174.752 272.192 173.912 272.288 173.024 272.288C170.72 272.288 168.932 271.7 167.66 270.524C166.412 269.348 165.788 267.62 165.788 265.34V257.384H162.8V253.064H165.788V248.348H171.404V253.064H176.228V257.384H171.404V265.268C171.404 266.084 171.608 266.72 172.016 267.176C172.448 267.608 173.048 267.824 173.816 267.824C174.704 267.824 175.46 267.584 176.084 267.104L177.596 271.064ZM180.748 252.632H186.364V272H180.748V252.632ZM183.556 249.932C182.524 249.932 181.684 249.632 181.036 249.032C180.388 248.432 180.064 247.688 180.064 246.8C180.064 245.912 180.388 245.168 181.036 244.568C181.684 243.968 182.524 243.668 183.556 243.668C184.588 243.668 185.428 243.956 186.076 244.532C186.724 245.108 187.048 245.828 187.048 246.692C187.048 247.628 186.724 248.408 186.076 249.032C185.428 249.632 184.588 249.932 183.556 249.932ZM203.348 252.344C205.748 252.344 207.68 253.064 209.144 254.504C210.632 255.944 211.376 258.08 211.376 260.912V272H205.76V261.776C205.76 260.24 205.424 259.1 204.752 258.356C204.08 257.588 203.108 257.204 201.836 257.204C200.42 257.204 199.292 257.648 198.452 258.536C197.612 259.4 197.192 260.696 197.192 262.424V272H191.576V252.632H196.94V254.9C197.684 254.084 198.608 253.46 199.712 253.028C200.816 252.572 202.028 252.344 203.348 252.344ZM236.658 252.632V268.76C236.658 272.312 235.734 274.952 233.886 276.68C232.038 278.408 229.338 279.272 225.786 279.272C223.914 279.272 222.138 279.044 220.458 278.588C218.778 278.132 217.386 277.472 216.282 276.608L218.514 272.576C219.33 273.248 220.362 273.776 221.61 274.16C222.858 274.568 224.106 274.772 225.354 274.772C227.298 274.772 228.726 274.328 229.638 273.44C230.574 272.576 231.042 271.256 231.042 269.48V268.652C229.578 270.26 227.538 271.064 224.922 271.064C223.146 271.064 221.514 270.68 220.026 269.912C218.562 269.12 217.398 268.016 216.534 266.6C215.67 265.184 215.238 263.552 215.238 261.704C215.238 259.856 215.67 258.224 216.534 256.808C217.398 255.392 218.562 254.3 220.026 253.532C221.514 252.74 223.146 252.344 224.922 252.344C227.73 252.344 229.866 253.268 231.33 255.116V252.632H236.658ZM226.038 266.456C227.526 266.456 228.738 266.024 229.674 265.16C230.634 264.272 231.114 263.12 231.114 261.704C231.114 260.288 230.634 259.148 229.674 258.284C228.738 257.396 227.526 256.952 226.038 256.952C224.55 256.952 223.326 257.396 222.366 258.284C221.406 259.148 220.926 260.288 220.926 261.704C220.926 263.12 221.406 264.272 222.366 265.16C223.326 266.024 224.55 266.456 226.038 266.456Z" fill="#FFEFEF"/>
</g>
<g filter="url(#filter4_i)">
<path d="M47.5988 332.8V336.58L38.2388 358H31.9028L40.9388 337.552H32.5868V341.656H27.4028V332.8H47.5988ZM74.1783 358.432C71.5623 358.432 69.1983 357.868 67.0863 356.74C64.9983 355.612 63.3543 354.064 62.1543 352.096C60.9783 350.104 60.3903 347.872 60.3903 345.4C60.3903 342.928 60.9783 340.708 62.1543 338.74C63.3543 336.748 64.9983 335.188 67.0863 334.06C69.1983 332.932 71.5623 332.368 74.1783 332.368C76.7943 332.368 79.1463 332.932 81.2343 334.06C83.3223 335.188 84.9663 336.748 86.1663 338.74C87.3663 340.708 87.9663 342.928 87.9663 345.4C87.9663 347.872 87.3663 350.104 86.1663 352.096C84.9663 354.064 83.3223 355.612 81.2343 356.74C79.1463 357.868 76.7943 358.432 74.1783 358.432ZM74.1783 353.464C75.6663 353.464 77.0103 353.128 78.2103 352.456C79.4103 351.76 80.3463 350.8 81.0183 349.576C81.7143 348.352 82.0623 346.96 82.0623 345.4C82.0623 343.84 81.7143 342.448 81.0183 341.224C80.3463 340 79.4103 339.052 78.2103 338.38C77.0103 337.684 75.6663 337.336 74.1783 337.336C72.6903 337.336 71.3463 337.684 70.1463 338.38C68.9463 339.052 67.9983 340 67.3023 341.224C66.6303 342.448 66.2943 343.84 66.2943 345.4C66.2943 346.96 66.6303 348.352 67.3023 349.576C67.9983 350.8 68.9463 351.76 70.1463 352.456C71.3463 353.128 72.6903 353.464 74.1783 353.464ZM101.313 358.288C99.2493 358.288 97.3893 357.868 95.7333 357.028C94.1013 356.164 92.8173 354.976 91.8813 353.464C90.9693 351.952 90.5133 350.236 90.5133 348.316C90.5133 346.396 90.9693 344.68 91.8813 343.168C92.8173 341.656 94.1013 340.48 95.7333 339.64C97.3893 338.776 99.2493 338.344 101.313 338.344C103.353 338.344 105.129 338.776 106.641 339.64C108.177 340.48 109.293 341.692 109.989 343.276L105.633 345.616C104.625 343.84 103.173 342.952 101.277 342.952C99.8133 342.952 98.6013 343.432 97.6413 344.392C96.6813 345.352 96.2013 346.66 96.2013 348.316C96.2013 349.972 96.6813 351.28 97.6413 352.24C98.6013 353.2 99.8133 353.68 101.277 353.68C103.197 353.68 104.649 352.792 105.633 351.016L109.989 353.392C109.293 354.928 108.177 356.128 106.641 356.992C105.129 357.856 103.353 358.288 101.313 358.288ZM125.996 357.064C125.444 357.472 124.76 357.784 123.944 358C123.152 358.192 122.312 358.288 121.424 358.288C119.12 358.288 117.332 357.7 116.06 356.524C114.812 355.348 114.188 353.62 114.188 351.34V343.384H111.2V339.064H114.188V334.348H119.804V339.064H124.628V343.384H119.804V351.268C119.804 352.084 120.008 352.72 120.416 353.176C120.848 353.608 121.448 353.824 122.216 353.824C123.104 353.824 123.86 353.584 124.484 353.104L125.996 357.064ZM137.767 358.288C135.727 358.288 133.891 357.868 132.259 357.028C130.651 356.164 129.391 354.976 128.479 353.464C127.567 351.952 127.111 350.236 127.111 348.316C127.111 346.396 127.567 344.68 128.479 343.168C129.391 341.656 130.651 340.48 132.259 339.64C133.891 338.776 135.727 338.344 137.767 338.344C139.807 338.344 141.631 338.776 143.239 339.64C144.847 340.48 146.107 341.656 147.019 343.168C147.931 344.68 148.387 346.396 148.387 348.316C148.387 350.236 147.931 351.952 147.019 353.464C146.107 354.976 144.847 356.164 143.239 357.028C141.631 357.868 139.807 358.288 137.767 358.288ZM137.767 353.68C139.207 353.68 140.383 353.2 141.295 352.24C142.231 351.256 142.699 349.948 142.699 348.316C142.699 346.684 142.231 345.388 141.295 344.428C140.383 343.444 139.207 342.952 137.767 342.952C136.327 342.952 135.139 343.444 134.203 344.428C133.267 345.388 132.799 346.684 132.799 348.316C132.799 349.948 133.267 351.256 134.203 352.24C135.139 353.2 136.327 353.68 137.767 353.68ZM163.589 338.344C165.389 338.344 167.021 338.764 168.485 339.604C169.973 340.42 171.137 341.584 171.977 343.096C172.817 344.584 173.237 346.324 173.237 348.316C173.237 350.308 172.817 352.06 171.977 353.572C171.137 355.06 169.973 356.224 168.485 357.064C167.021 357.88 165.389 358.288 163.589 358.288C160.925 358.288 158.897 357.448 157.505 355.768V358H152.141V331.288H157.757V340.684C159.173 339.124 161.117 338.344 163.589 338.344ZM162.617 353.68C164.057 353.68 165.233 353.2 166.145 352.24C167.081 351.256 167.549 349.948 167.549 348.316C167.549 346.684 167.081 345.388 166.145 344.428C165.233 343.444 164.057 342.952 162.617 342.952C161.177 342.952 159.989 343.444 159.053 344.428C158.141 345.388 157.685 346.684 157.685 348.316C157.685 349.948 158.141 351.256 159.053 352.24C159.989 353.2 161.177 353.68 162.617 353.68ZM195.968 348.388C195.968 348.46 195.932 348.964 195.86 349.9H181.208C181.472 351.1 182.096 352.048 183.08 352.744C184.064 353.44 185.288 353.788 186.752 353.788C187.76 353.788 188.648 353.644 189.416 353.356C190.208 353.044 190.94 352.564 191.612 351.916L194.6 355.156C192.776 357.244 190.112 358.288 186.608 358.288C184.424 358.288 182.492 357.868 180.812 357.028C179.132 356.164 177.836 354.976 176.924 353.464C176.012 351.952 175.556 350.236 175.556 348.316C175.556 346.42 176 344.716 176.888 343.204C177.8 341.668 179.036 340.48 180.596 339.64C182.18 338.776 183.944 338.344 185.888 338.344C187.784 338.344 189.5 338.752 191.036 339.568C192.572 340.384 193.772 341.56 194.636 343.096C195.524 344.608 195.968 346.372 195.968 348.388ZM185.924 342.592C184.652 342.592 183.584 342.952 182.72 343.672C181.856 344.392 181.328 345.376 181.136 346.624H190.676C190.484 345.4 189.956 344.428 189.092 343.708C188.228 342.964 187.172 342.592 185.924 342.592ZM205.071 341.188C205.743 340.252 206.643 339.544 207.771 339.064C208.923 338.584 210.243 338.344 211.731 338.344V343.528C211.107 343.48 210.687 343.456 210.471 343.456C208.863 343.456 207.603 343.912 206.691 344.824C205.779 345.712 205.323 347.056 205.323 348.856V358H199.707V338.632H205.071V341.188ZM243.046 353.248V358H224.002V354.22L233.722 345.04C234.754 344.056 235.45 343.216 235.81 342.52C236.17 341.8 236.35 341.092 236.35 340.396C236.35 339.388 236.002 338.62 235.306 338.092C234.634 337.54 233.638 337.264 232.318 337.264C231.214 337.264 230.218 337.48 229.33 337.912C228.442 338.32 227.698 338.944 227.098 339.784L222.85 337.048C223.834 335.584 225.19 334.444 226.918 333.628C228.646 332.788 230.626 332.368 232.858 332.368C234.73 332.368 236.362 332.68 237.754 333.304C239.17 333.904 240.262 334.768 241.03 335.896C241.822 337 242.218 338.308 242.218 339.82C242.218 341.188 241.93 342.472 241.354 343.672C240.778 344.872 239.662 346.24 238.006 347.776L232.21 353.248H243.046ZM256.183 358.432C254.095 358.432 252.235 357.916 250.603 356.884C248.971 355.852 247.687 354.364 246.751 352.42C245.839 350.452 245.383 348.112 245.383 345.4C245.383 342.688 245.839 340.36 246.751 338.416C247.687 336.448 248.971 334.948 250.603 333.916C252.235 332.884 254.095 332.368 256.183 332.368C258.271 332.368 260.131 332.884 261.763 333.916C263.395 334.948 264.667 336.448 265.579 338.416C266.515 340.36 266.983 342.688 266.983 345.4C266.983 348.112 266.515 350.452 265.579 352.42C264.667 354.364 263.395 355.852 261.763 356.884C260.131 357.916 258.271 358.432 256.183 358.432ZM256.183 353.5C257.719 353.5 258.919 352.84 259.783 351.52C260.671 350.2 261.115 348.16 261.115 345.4C261.115 342.64 260.671 340.6 259.783 339.28C258.919 337.96 257.719 337.3 256.183 337.3C254.671 337.3 253.471 337.96 252.583 339.28C251.719 340.6 251.287 342.64 251.287 345.4C251.287 348.16 251.719 350.2 252.583 351.52C253.471 352.84 254.671 353.5 256.183 353.5ZM288.433 353.248V358H269.389V354.22L279.109 345.04C280.141 344.056 280.837 343.216 281.197 342.52C281.557 341.8 281.737 341.092 281.737 340.396C281.737 339.388 281.389 338.62 280.693 338.092C280.021 337.54 279.025 337.264 277.705 337.264C276.601 337.264 275.605 337.48 274.717 337.912C273.829 338.32 273.085 338.944 272.485 339.784L268.237 337.048C269.221 335.584 270.577 334.444 272.305 333.628C274.033 332.788 276.013 332.368 278.245 332.368C280.117 332.368 281.749 332.68 283.141 333.304C284.557 333.904 285.649 334.768 286.417 335.896C287.209 337 287.605 338.308 287.605 339.82C287.605 341.188 287.317 342.472 286.741 343.672C286.165 344.872 285.049 346.24 283.393 347.776L277.597 353.248H288.433ZM300.56 332.8V358H294.728V337.48H289.688V332.8H300.56Z" fill="#FFEFEF"/>
</g>
<g filter="url(#filter5_i)">
<path d="M130.653 57.2H135.711C136.875 57.2 137.818 58.2277 137.818 59.4955V65.0045C137.818 66.2723 136.875 67.3 135.711 67.3H130.653C129.489 67.3 128.545 66.2723 128.545 65.0045V59.4955C128.545 58.2277 129.489 57.2 130.653 57.2Z" fill="#FFEFEF"/>
<path d="M130.653 74.875H135.711C136.875 74.875 137.818 75.9027 137.818 77.1705V82.6795C137.818 83.9473 136.875 84.975 135.711 84.975H130.653C129.489 84.975 128.545 83.9473 128.545 82.6795V77.1705C128.545 75.9027 129.489 74.875 130.653 74.875Z" fill="#FFEFEF"/>
<path d="M154.256 74.875H149.198C148.034 74.875 147.091 75.9027 147.091 77.1705V82.6795C147.091 83.9473 148.034 84.975 149.198 84.975H154.256C155.42 84.975 156.364 83.9473 156.364 82.6795V77.1705C156.364 75.9027 155.42 74.875 154.256 74.875Z" fill="#FFEFEF"/>
<path d="M149.198 57.2H154.256C155.42 57.2 156.364 58.2277 156.364 59.4955V65.0045C156.364 66.2723 155.42 67.3 154.256 67.3H149.198C148.034 67.3 147.091 66.2723 147.091 65.0045V59.4955C147.091 58.2277 148.034 57.2 149.198 57.2Z" fill="#FFEFEF"/>
<path d="M172.802 74.875H167.744C166.58 74.875 165.636 75.9027 165.636 77.1705V82.6795C165.636 83.9473 166.58 84.975 167.744 84.975H172.802C173.966 84.975 174.909 83.9473 174.909 82.6795V77.1705C174.909 75.9027 173.966 74.875 172.802 74.875Z" fill="#FFEFEF"/>
<path d="M167.744 57.2H172.802C173.966 57.2 174.909 58.2277 174.909 59.4955V65.0045C174.909 66.2723 173.966 67.3 172.802 67.3H167.744C166.58 67.3 165.636 66.2723 165.636 65.0045V59.4955C165.636 58.2277 166.58 57.2 167.744 57.2Z" fill="#FFEFEF"/>
<path d="M191.347 57.2H186.289C185.125 57.2 184.182 58.2277 184.182 59.4955V65.0045C184.182 66.2723 185.125 67.3 186.289 67.3H191.347C192.511 67.3 193.455 66.2723 193.455 65.0045V59.4955C193.455 58.2277 192.511 57.2 191.347 57.2Z" fill="#FFEFEF"/>
<path fill-rule="evenodd" clip-rule="evenodd" d="M114.636 37C112.076 37 110 39.261 110 42.05V117.8C110 120.589 112.076 122.85 114.636 122.85H143.984L138.848 129.777C137.725 131.29 137.501 133.371 138.271 135.127C139.041 136.882 140.668 138 142.455 138H179.545C181.332 138 182.959 136.882 183.729 135.127C184.499 133.371 184.275 131.29 183.152 129.777L178.016 122.85H207.364C209.924 122.85 212 120.589 212 117.8V42.05C212 39.261 209.924 37 207.364 37H114.636ZM168.346 112.75C168.321 112.75 168.296 112.75 168.27 112.75H153.73C153.704 112.75 153.679 112.75 153.654 112.75H119.273V107.7H202.727V112.75H168.346ZM155.904 122.85H166.096L169.841 127.9H152.159L155.904 122.85ZM119.273 97.6V47.1H202.727V97.6H119.273Z" fill="#FFEFEF"/>
</g>
<defs>
<filter id="filter0_i" x="74" y="0" width="175" height="179" filterUnits="userSpaceOnUse" color-interpolation-filters="sRGB">
<feFlood flood-opacity="0" result="BackgroundImageFix"/>
<feBlend mode="normal" in="SourceGraphic" in2="BackgroundImageFix" result="shape"/>
<feColorMatrix in="SourceAlpha" type="matrix" values="0 0 0 0 0 0 0 0 0 0 0 0 0 0 0 0 0 0 127 0" result="hardAlpha"/>
<feOffset dy="4"/>
<feGaussianBlur stdDeviation="2"/>
<feComposite in2="hardAlpha" operator="arithmetic" k2="-1" k3="1"/>
<feColorMatrix type="matrix" values="0 0 0 0 0 0 0 0 0 0 0 0 0 0 0 0 0 0 0.25 0"/>
<feBlend mode="normal" in2="shape" result="effect1_innerShadow"/>
</filter>
<filter id="filter1_i" x="74" y="0" width="175" height="179" filterUnits="userSpaceOnUse" color-interpolation-filters="sRGB">
<feFlood flood-opacity="0" result="BackgroundImageFix"/>
<feBlend mode="normal" in="SourceGraphic" in2="BackgroundImageFix" result="shape"/>
<feColorMatrix in="SourceAlpha" type="matrix" values="0 0 0 0 0 0 0 0 0 0 0 0 0 0 0 0 0 0 127 0" result="hardAlpha"/>
<feOffset dy="4"/>
<feGaussianBlur stdDeviation="2"/>
<feComposite in2="hardAlpha" operator="arithmetic" k2="-1" k3="1"/>
<feColorMatrix type="matrix" values="0 0 0 0 0 0 0 0 0 0 0 0 0 0 0 0 0 0 0.25 0"/>
<feBlend mode="normal" in2="shape" result="effect1_innerShadow"/>
</filter>
<filter id="filter2_i" x="74" y="0" width="175" height="179" filterUnits="userSpaceOnUse" color-interpolation-filters="sRGB">
<feFlood flood-opacity="0" result="BackgroundImageFix"/>
<feBlend mode="normal" in="SourceGraphic" in2="BackgroundImageFix" result="shape"/>
<feColorMatrix in="SourceAlpha" type="matrix" values="0 0 0 0 0 0 0 0 0 0 0 0 0 0 0 0 0 0 127 0" result="hardAlpha"/>
<feOffset dy="4"/>
<feGaussianBlur stdDeviation="2"/>
<feComposite in2="hardAlpha" operator="arithmetic" k2="-1" k3="1"/>
<feColorMatrix type="matrix" values="0 0 0 0 0 0 0 0 0 0 0 0 0 0 0 0 0 0 0.25 0"/>
<feBlend mode="normal" in2="shape" result="effect1_innerShadow"/>
</filter>
<filter id="filter3_i" x="71.6191" y="199.668" width="176.287" height="83.604" filterUnits="userSpaceOnUse" color-interpolation-filters="sRGB">
<feFlood flood-opacity="0" result="BackgroundImageFix"/>
<feBlend mode="normal" in="SourceGraphic" in2="BackgroundImageFix" result="shape"/>
<feColorMatrix in="SourceAlpha" type="matrix" values="0 0 0 0 0 0 0 0 0 0 0 0 0 0 0 0 0 0 127 0" result="hardAlpha"/>
<feOffset dy="4"/>
<feGaussianBlur stdDeviation="2"/>
<feComposite in2="hardAlpha" operator="arithmetic" k2="-1" k3="1"/>
<feColorMatrix type="matrix" values="0 0 0 0 0 0 0 0 0 0 0 0 0 0 0 0 0 0 0.25 0"/>
<feBlend mode="normal" in2="shape" result="effect1_innerShadow"/>
</filter>
<filter id="filter4_i" x="27.4023" y="331.288" width="273.157" height="31.144" filterUnits="userSpaceOnUse" color-interpolation-filters="sRGB">
<feFlood flood-opacity="0" result="BackgroundImageFix"/>
<feBlend mode="normal" in="SourceGraphic" in2="BackgroundImageFix" result="shape"/>
<feColorMatrix in="SourceAlpha" type="matrix" values="0 0 0 0 0 0 0 0 0 0 0 0 0 0 0 0 0 0 127 0" result="hardAlpha"/>
<feOffset dy="4"/>
<feGaussianBlur stdDeviation="2"/>
<feComposite in2="hardAlpha" operator="arithmetic" k2="-1" k3="1"/>
<feColorMatrix type="matrix" values="0 0 0 0 0 0 0 0 0 0 0 0 0 0 0 0 0 0 0.25 0"/>
<feBlend mode="normal" in2="shape" result="effect1_innerShadow"/>
</filter>
<filter id="filter5_i" x="110" y="37" width="102" height="105" filterUnits="userSpaceOnUse" color-interpolation-filters="sRGB">
<feFlood flood-opacity="0" result="BackgroundImageFix"/>
<feBlend mode="normal" in="SourceGraphic" in2="BackgroundImageFix" result="shape"/>
<feColorMatrix in="SourceAlpha" type="matrix" values="0 0 0 0 0 0 0 0 0 0 0 0 0 0 0 0 0 0 127 0" result="hardAlpha"/>
<feOffset dy="4"/>
<feGaussianBlur stdDeviation="2"/>
<feComposite in2="hardAlpha" operator="arithmetic" k2="-1" k3="1"/>
<feColorMatrix type="matrix" values="0 0 0 0 0 0 0 0 0 0 0 0 0 0 0 0 0 0 0.25 0"/>
<feBlend mode="normal" in2="shape" result="effect1_innerShadow"/>
</filter>
</defs>
</svg>
