<svg width="324" height="429" viewBox="0 0 324 429" fill="none" xmlns="http://www.w3.org/2000/svg">
<rect y="429" width="313" height="324" rx="85" transform="rotate(-90 0 429)" fill="#65789D"/>
<g filter="url(#filter0_i)">
<g filter="url(#filter1_i)">
<g filter="url(#filter2_i)">
<circle cx="161.5" cy="87.5" r="87.5" transform="rotate(-90 161.5 87.5)" fill="#583AA7"/>
</g>
</g>
</g>
<g filter="url(#filter3_i)">
<path fill-rule="evenodd" clip-rule="evenodd" d="M181.828 30.4311L212.725 61.5039C213.543 62.3284 214 63.4239 214 64.5664V119.344C214 134.039 201.747 146 186.677 146H138.598C122.564 146 110 134.292 110 119.344V104.585C110 102.147 112.049 100.168 114.574 100.168C117.099 100.168 119.148 102.147 119.148 104.585V119.344C119.148 129.504 127.51 137.166 138.598 137.166H186.677C196.703 137.166 204.852 129.168 204.852 119.344V66.3392L181.498 42.8579V50.5613C181.498 56.4743 186.481 61.2919 192.605 61.3037C195.13 61.3096 197.173 63.2884 197.167 65.7326C197.161 68.1649 195.118 70.1379 192.593 70.1379H192.586C181.431 70.1143 172.35 61.3331 172.35 50.5613V37.9049H137.311C127.297 37.9049 119.148 45.7732 119.148 55.4496V80.574C119.148 83.0122 117.099 84.9911 114.574 84.9911C112.049 84.9911 110 83.0122 110 80.574V55.4496C110 40.9026 122.253 29.0707 137.311 29.0707H176.577C176.631 29.0654 176.683 29.0506 176.733 29.0359C176.795 29.0178 176.857 29 176.924 29C176.996 29 177.059 29.0183 177.123 29.0365C177.174 29.051 177.224 29.0655 177.278 29.0707H178.528C179.772 29.0707 180.962 29.5595 181.828 30.4311ZM150.317 107.908C149.146 107.908 147.975 107.472 147.084 106.612C145.297 104.886 145.297 102.089 147.084 100.363L154.421 93.2841L147.084 86.199C145.297 84.4734 145.297 81.6818 147.084 79.9562C148.871 78.2306 151.768 78.2306 153.555 79.9562L160.886 87.0412L168.223 79.9562C170.01 78.2306 172.901 78.2306 174.688 79.9562C176.475 81.6818 176.475 84.4734 174.688 86.199L167.357 93.2841L174.688 100.363C176.475 102.089 176.475 104.886 174.688 106.612C173.798 107.472 172.627 107.908 171.456 107.908C170.285 107.908 169.114 107.472 168.223 106.612L160.886 99.5328L153.555 106.612C152.659 107.472 151.488 107.908 150.317 107.908Z" fill="white"/>
</g>
<g filter="url(#filter4_i)">
<path d="M124.72 228.432C122.152 228.432 119.824 227.88 117.736 226.776C115.672 225.648 114.04 224.1 112.84 222.132C111.664 220.14 111.076 217.896 111.076 215.4C111.076 212.904 111.664 210.672 112.84 208.704C114.04 206.712 115.672 205.164 117.736 204.06C119.824 202.932 122.164 202.368 124.756 202.368C126.94 202.368 128.908 202.752 130.66 203.52C132.436 204.288 133.924 205.392 135.124 206.832L131.38 210.288C129.676 208.32 127.564 207.336 125.044 207.336C123.484 207.336 122.092 207.684 120.868 208.38C119.644 209.052 118.684 210 117.988 211.224C117.316 212.448 116.98 213.84 116.98 215.4C116.98 216.96 117.316 218.352 117.988 219.576C118.684 220.8 119.644 221.76 120.868 222.456C122.092 223.128 123.484 223.464 125.044 223.464C127.564 223.464 129.676 222.468 131.38 220.476L135.124 223.932C133.924 225.396 132.436 226.512 130.66 227.28C128.884 228.048 126.904 228.432 124.72 228.432ZM138.666 201.288H144.282V228H138.666V201.288ZM158.71 228.288C156.67 228.288 154.834 227.868 153.202 227.028C151.594 226.164 150.334 224.976 149.422 223.464C148.51 221.952 148.054 220.236 148.054 218.316C148.054 216.396 148.51 214.68 149.422 213.168C150.334 211.656 151.594 210.48 153.202 209.64C154.834 208.776 156.67 208.344 158.71 208.344C160.75 208.344 162.574 208.776 164.182 209.64C165.79 210.48 167.05 211.656 167.962 213.168C168.874 214.68 169.33 216.396 169.33 218.316C169.33 220.236 168.874 221.952 167.962 223.464C167.05 224.976 165.79 226.164 164.182 227.028C162.574 227.868 160.75 228.288 158.71 228.288ZM158.71 223.68C160.15 223.68 161.326 223.2 162.238 222.24C163.174 221.256 163.642 219.948 163.642 218.316C163.642 216.684 163.174 215.388 162.238 214.428C161.326 213.444 160.15 212.952 158.71 212.952C157.27 212.952 156.082 213.444 155.146 214.428C154.21 215.388 153.742 216.684 153.742 218.316C153.742 219.948 154.21 221.256 155.146 222.24C156.082 223.2 157.27 223.68 158.71 223.68ZM179.6 228.288C177.992 228.288 176.42 228.096 174.884 227.712C173.348 227.304 172.124 226.8 171.212 226.2L173.084 222.168C173.948 222.72 174.992 223.176 176.216 223.536C177.44 223.872 178.64 224.04 179.816 224.04C182.192 224.04 183.38 223.452 183.38 222.276C183.38 221.724 183.056 221.328 182.408 221.088C181.76 220.848 180.764 220.644 179.42 220.476C177.836 220.236 176.528 219.96 175.496 219.648C174.464 219.336 173.564 218.784 172.796 217.992C172.052 217.2 171.68 216.072 171.68 214.608C171.68 213.384 172.028 212.304 172.724 211.368C173.444 210.408 174.476 209.664 175.82 209.136C177.188 208.608 178.796 208.344 180.644 208.344C182.012 208.344 183.368 208.5 184.712 208.812C186.08 209.1 187.208 209.508 188.096 210.036L186.224 214.032C184.52 213.072 182.66 212.592 180.644 212.592C179.444 212.592 178.544 212.76 177.944 213.096C177.344 213.432 177.044 213.864 177.044 214.392C177.044 214.992 177.368 215.412 178.016 215.652C178.664 215.892 179.696 216.12 181.112 216.336C182.696 216.6 183.992 216.888 185 217.2C186.008 217.488 186.884 218.028 187.628 218.82C188.372 219.612 188.744 220.716 188.744 222.132C188.744 223.332 188.384 224.4 187.664 225.336C186.944 226.272 185.888 227.004 184.496 227.532C183.128 228.036 181.496 228.288 179.6 228.288ZM211.181 218.388C211.181 218.46 211.145 218.964 211.073 219.9H196.421C196.685 221.1 197.309 222.048 198.293 222.744C199.277 223.44 200.501 223.788 201.965 223.788C202.973 223.788 203.861 223.644 204.629 223.356C205.421 223.044 206.153 222.564 206.825 221.916L209.813 225.156C207.989 227.244 205.325 228.288 201.821 228.288C199.637 228.288 197.705 227.868 196.025 227.028C194.345 226.164 193.049 224.976 192.137 223.464C191.225 221.952 190.769 220.236 190.769 218.316C190.769 216.42 191.213 214.716 192.101 213.204C193.013 211.668 194.249 210.48 195.809 209.64C197.393 208.776 199.157 208.344 201.101 208.344C202.997 208.344 204.713 208.752 206.249 209.568C207.785 210.384 208.985 211.56 209.849 213.096C210.737 214.608 211.181 216.372 211.181 218.388ZM201.137 212.592C199.865 212.592 198.797 212.952 197.933 213.672C197.069 214.392 196.541 215.376 196.349 216.624H205.889C205.697 215.4 205.169 214.428 204.305 213.708C203.441 212.964 202.385 212.592 201.137 212.592ZM63.835 272L58.975 264.98H58.687H53.611V272H47.779V246.8H58.687C60.919 246.8 62.851 247.172 64.483 247.916C66.139 248.66 67.411 249.716 68.299 251.084C69.187 252.452 69.631 254.072 69.631 255.944C69.631 257.816 69.175 259.436 68.263 260.804C67.375 262.148 66.103 263.18 64.447 263.9L70.099 272H63.835ZM63.727 255.944C63.727 254.528 63.271 253.448 62.359 252.704C61.447 251.936 60.115 251.552 58.363 251.552H53.611V260.336H58.363C60.115 260.336 61.447 259.952 62.359 259.184C63.271 258.416 63.727 257.336 63.727 255.944ZM92.8277 262.388C92.8277 262.46 92.7917 262.964 92.7197 263.9H78.0677C78.3317 265.1 78.9557 266.048 79.9397 266.744C80.9237 267.44 82.1477 267.788 83.6117 267.788C84.6197 267.788 85.5077 267.644 86.2757 267.356C87.0677 267.044 87.7997 266.564 88.4717 265.916L91.4597 269.156C89.6357 271.244 86.9717 272.288 83.4677 272.288C81.2837 272.288 79.3517 271.868 77.6717 271.028C75.9917 270.164 74.6957 268.976 73.7837 267.464C72.8717 265.952 72.4157 264.236 72.4157 262.316C72.4157 260.42 72.8597 258.716 73.7477 257.204C74.6597 255.668 75.8957 254.48 77.4557 253.64C79.0397 252.776 80.8037 252.344 82.7477 252.344C84.6437 252.344 86.3597 252.752 87.8957 253.568C89.4317 254.384 90.6317 255.56 91.4957 257.096C92.3837 258.608 92.8277 260.372 92.8277 262.388ZM82.7837 256.592C81.5117 256.592 80.4437 256.952 79.5797 257.672C78.7157 258.392 78.1877 259.376 77.9957 260.624H87.5357C87.3437 259.4 86.8157 258.428 85.9517 257.708C85.0877 256.964 84.0317 256.592 82.7837 256.592ZM116.547 252.632V268.76C116.547 272.312 115.623 274.952 113.775 276.68C111.927 278.408 109.227 279.272 105.675 279.272C103.803 279.272 102.027 279.044 100.347 278.588C98.6666 278.132 97.2746 277.472 96.1706 276.608L98.4026 272.576C99.2186 273.248 100.251 273.776 101.499 274.16C102.747 274.568 103.995 274.772 105.243 274.772C107.187 274.772 108.615 274.328 109.527 273.44C110.463 272.576 110.931 271.256 110.931 269.48V268.652C109.467 270.26 107.427 271.064 104.811 271.064C103.035 271.064 101.403 270.68 99.9146 269.912C98.4506 269.12 97.2866 268.016 96.4226 266.6C95.5586 265.184 95.1266 263.552 95.1266 261.704C95.1266 259.856 95.5586 258.224 96.4226 256.808C97.2866 255.392 98.4506 254.3 99.9146 253.532C101.403 252.74 103.035 252.344 104.811 252.344C107.619 252.344 109.755 253.268 111.219 255.116V252.632H116.547ZM105.927 266.456C107.415 266.456 108.627 266.024 109.563 265.16C110.523 264.272 111.003 263.12 111.003 261.704C111.003 260.288 110.523 259.148 109.563 258.284C108.627 257.396 107.415 256.952 105.927 256.952C104.439 256.952 103.215 257.396 102.255 258.284C101.295 259.148 100.815 260.288 100.815 261.704C100.815 263.12 101.295 264.272 102.255 265.16C103.215 266.024 104.439 266.456 105.927 266.456ZM121.774 252.632H127.39V272H121.774V252.632ZM124.582 249.932C123.55 249.932 122.71 249.632 122.062 249.032C121.414 248.432 121.09 247.688 121.09 246.8C121.09 245.912 121.414 245.168 122.062 244.568C122.71 243.968 123.55 243.668 124.582 243.668C125.614 243.668 126.454 243.956 127.102 244.532C127.75 245.108 128.074 245.828 128.074 246.692C128.074 247.628 127.75 248.408 127.102 249.032C126.454 249.632 125.614 249.932 124.582 249.932ZM139.118 272.288C137.51 272.288 135.938 272.096 134.402 271.712C132.866 271.304 131.642 270.8 130.73 270.2L132.602 266.168C133.466 266.72 134.51 267.176 135.734 267.536C136.958 267.872 138.158 268.04 139.334 268.04C141.71 268.04 142.898 267.452 142.898 266.276C142.898 265.724 142.574 265.328 141.926 265.088C141.278 264.848 140.282 264.644 138.938 264.476C137.354 264.236 136.046 263.96 135.014 263.648C133.982 263.336 133.082 262.784 132.314 261.992C131.57 261.2 131.198 260.072 131.198 258.608C131.198 257.384 131.546 256.304 132.242 255.368C132.962 254.408 133.994 253.664 135.338 253.136C136.706 252.608 138.314 252.344 140.162 252.344C141.53 252.344 142.886 252.5 144.23 252.812C145.598 253.1 146.726 253.508 147.614 254.036L145.742 258.032C144.038 257.072 142.178 256.592 140.162 256.592C138.962 256.592 138.062 256.76 137.462 257.096C136.862 257.432 136.562 257.864 136.562 258.392C136.562 258.992 136.886 259.412 137.534 259.652C138.182 259.892 139.214 260.12 140.63 260.336C142.214 260.6 143.51 260.888 144.518 261.2C145.526 261.488 146.402 262.028 147.146 262.82C147.89 263.612 148.262 264.716 148.262 266.132C148.262 267.332 147.902 268.4 147.182 269.336C146.462 270.272 145.406 271.004 144.014 271.532C142.646 272.036 141.014 272.288 139.118 272.288ZM164.219 271.064C163.667 271.472 162.983 271.784 162.167 272C161.375 272.192 160.535 272.288 159.647 272.288C157.343 272.288 155.555 271.7 154.283 270.524C153.035 269.348 152.411 267.62 152.411 265.34V257.384H149.423V253.064H152.411V248.348H158.027V253.064H162.851V257.384H158.027V265.268C158.027 266.084 158.231 266.72 158.639 267.176C159.071 267.608 159.671 267.824 160.439 267.824C161.327 267.824 162.083 267.584 162.707 267.104L164.219 271.064ZM172.735 255.188C173.407 254.252 174.307 253.544 175.435 253.064C176.587 252.584 177.907 252.344 179.395 252.344V257.528C178.771 257.48 178.351 257.456 178.135 257.456C176.527 257.456 175.267 257.912 174.355 258.824C173.443 259.712 172.987 261.056 172.987 262.856V272H167.371V252.632H172.735V255.188ZM190.441 252.344C193.441 252.344 195.745 253.064 197.353 254.504C198.961 255.92 199.765 258.068 199.765 260.948V272H194.509V269.588C193.453 271.388 191.485 272.288 188.605 272.288C187.117 272.288 185.821 272.036 184.717 271.532C183.637 271.028 182.809 270.332 182.233 269.444C181.657 268.556 181.369 267.548 181.369 266.42C181.369 264.62 182.041 263.204 183.385 262.172C184.753 261.14 186.853 260.624 189.685 260.624H194.149C194.149 259.4 193.777 258.464 193.033 257.816C192.289 257.144 191.173 256.808 189.685 256.808C188.653 256.808 187.633 256.976 186.625 257.312C185.641 257.624 184.801 258.056 184.105 258.608L182.089 254.684C183.145 253.94 184.405 253.364 185.869 252.956C187.357 252.548 188.881 252.344 190.441 252.344ZM190.009 268.508C190.969 268.508 191.821 268.292 192.565 267.86C193.309 267.404 193.837 266.744 194.149 265.88V263.9H190.297C187.993 263.9 186.841 264.656 186.841 266.168C186.841 266.888 187.117 267.464 187.669 267.896C188.245 268.304 189.025 268.508 190.009 268.508ZM217.34 271.064C216.788 271.472 216.104 271.784 215.288 272C214.496 272.192 213.656 272.288 212.768 272.288C210.464 272.288 208.676 271.7 207.404 270.524C206.156 269.348 205.532 267.62 205.532 265.34V257.384H202.544V253.064H205.532V248.348H211.148V253.064H215.972V257.384H211.148V265.268C211.148 266.084 211.352 266.72 211.76 267.176C212.192 267.608 212.792 267.824 213.56 267.824C214.448 267.824 215.204 267.584 215.828 267.104L217.34 271.064ZM220.492 252.632H226.108V272H220.492V252.632ZM223.3 249.932C222.268 249.932 221.428 249.632 220.78 249.032C220.132 248.432 219.808 247.688 219.808 246.8C219.808 245.912 220.132 245.168 220.78 244.568C221.428 243.968 222.268 243.668 223.3 243.668C224.332 243.668 225.172 243.956 225.82 244.532C226.468 245.108 226.792 245.828 226.792 246.692C226.792 247.628 226.468 248.408 225.82 249.032C225.172 249.632 224.332 249.932 223.3 249.932ZM240.537 272.288C238.497 272.288 236.661 271.868 235.029 271.028C233.421 270.164 232.161 268.976 231.249 267.464C230.337 265.952 229.881 264.236 229.881 262.316C229.881 260.396 230.337 258.68 231.249 257.168C232.161 255.656 233.421 254.48 235.029 253.64C236.661 252.776 238.497 252.344 240.537 252.344C242.577 252.344 244.401 252.776 246.009 253.64C247.617 254.48 248.877 255.656 249.789 257.168C250.701 258.68 251.157 260.396 251.157 262.316C251.157 264.236 250.701 265.952 249.789 267.464C248.877 268.976 247.617 270.164 246.009 271.028C244.401 271.868 242.577 272.288 240.537 272.288ZM240.537 267.68C241.977 267.68 243.153 267.2 244.065 266.24C245.001 265.256 245.469 263.948 245.469 262.316C245.469 260.684 245.001 259.388 244.065 258.428C243.153 257.444 241.977 256.952 240.537 256.952C239.097 256.952 237.909 257.444 236.973 258.428C236.037 259.388 235.569 260.684 235.569 262.316C235.569 263.948 236.037 265.256 236.973 266.24C237.909 267.2 239.097 267.68 240.537 267.68ZM266.682 252.344C269.082 252.344 271.014 253.064 272.478 254.504C273.966 255.944 274.71 258.08 274.71 260.912V272H269.094V261.776C269.094 260.24 268.758 259.1 268.086 258.356C267.414 257.588 266.442 257.204 265.17 257.204C263.754 257.204 262.626 257.648 261.786 258.536C260.946 259.4 260.526 260.696 260.526 262.424V272H254.91V252.632H260.274V254.9C261.018 254.084 261.942 253.46 263.046 253.028C264.15 252.572 265.362 252.344 266.682 252.344Z" fill="#FFEFEF"/>
</g>
<g filter="url(#filter5_i)">
<path d="M40.6526 343.06C42.8606 343.42 44.5526 344.248 45.7286 345.544C46.9046 346.816 47.4926 348.4 47.4926 350.296C47.4926 351.76 47.1086 353.116 46.3406 354.364C45.5726 355.588 44.3966 356.572 42.8126 357.316C41.2526 358.06 39.3326 358.432 37.0526 358.432C35.2766 358.432 33.5246 358.204 31.7966 357.748C30.0926 357.268 28.6406 356.596 27.4406 355.732L29.7086 351.268C30.6686 351.988 31.7726 352.552 33.0206 352.96C34.2926 353.344 35.5886 353.536 36.9086 353.536C38.3726 353.536 39.5246 353.26 40.3646 352.708C41.2046 352.132 41.6246 351.328 41.6246 350.296C41.6246 348.232 40.0526 347.2 36.9086 347.2H34.2446V343.348L39.4286 337.48H28.7006V332.8H46.3406V336.58L40.6526 343.06ZM74.1686 358.432C71.5526 358.432 69.1886 357.868 67.0766 356.74C64.9886 355.612 63.3446 354.064 62.1446 352.096C60.9686 350.104 60.3806 347.872 60.3806 345.4C60.3806 342.928 60.9686 340.708 62.1446 338.74C63.3446 336.748 64.9886 335.188 67.0766 334.06C69.1886 332.932 71.5526 332.368 74.1686 332.368C76.7846 332.368 79.1366 332.932 81.2246 334.06C83.3126 335.188 84.9566 336.748 86.1566 338.74C87.3566 340.708 87.9566 342.928 87.9566 345.4C87.9566 347.872 87.3566 350.104 86.1566 352.096C84.9566 354.064 83.3126 355.612 81.2246 356.74C79.1366 357.868 76.7846 358.432 74.1686 358.432ZM74.1686 353.464C75.6566 353.464 77.0006 353.128 78.2006 352.456C79.4006 351.76 80.3366 350.8 81.0086 349.576C81.7046 348.352 82.0526 346.96 82.0526 345.4C82.0526 343.84 81.7046 342.448 81.0086 341.224C80.3366 340 79.4006 339.052 78.2006 338.38C77.0006 337.684 75.6566 337.336 74.1686 337.336C72.6806 337.336 71.3366 337.684 70.1366 338.38C68.9366 339.052 67.9886 340 67.2926 341.224C66.6206 342.448 66.2846 343.84 66.2846 345.4C66.2846 346.96 66.6206 348.352 67.2926 349.576C67.9886 350.8 68.9366 351.76 70.1366 352.456C71.3366 353.128 72.6806 353.464 74.1686 353.464ZM101.304 358.288C99.2396 358.288 97.3796 357.868 95.7236 357.028C94.0916 356.164 92.8076 354.976 91.8716 353.464C90.9596 351.952 90.5036 350.236 90.5036 348.316C90.5036 346.396 90.9596 344.68 91.8716 343.168C92.8076 341.656 94.0916 340.48 95.7236 339.64C97.3796 338.776 99.2396 338.344 101.304 338.344C103.344 338.344 105.12 338.776 106.632 339.64C108.168 340.48 109.284 341.692 109.98 343.276L105.624 345.616C104.616 343.84 103.164 342.952 101.268 342.952C99.8036 342.952 98.5916 343.432 97.6316 344.392C96.6716 345.352 96.1916 346.66 96.1916 348.316C96.1916 349.972 96.6716 351.28 97.6316 352.24C98.5916 353.2 99.8036 353.68 101.268 353.68C103.188 353.68 104.64 352.792 105.624 351.016L109.98 353.392C109.284 354.928 108.168 356.128 106.632 356.992C105.12 357.856 103.344 358.288 101.304 358.288ZM125.986 357.064C125.434 357.472 124.75 357.784 123.934 358C123.142 358.192 122.302 358.288 121.414 358.288C119.11 358.288 117.322 357.7 116.05 356.524C114.802 355.348 114.178 353.62 114.178 351.34V343.384H111.19V339.064H114.178V334.348H119.794V339.064H124.618V343.384H119.794V351.268C119.794 352.084 119.998 352.72 120.406 353.176C120.838 353.608 121.438 353.824 122.206 353.824C123.094 353.824 123.85 353.584 124.474 353.104L125.986 357.064ZM137.757 358.288C135.717 358.288 133.881 357.868 132.249 357.028C130.641 356.164 129.381 354.976 128.469 353.464C127.557 351.952 127.101 350.236 127.101 348.316C127.101 346.396 127.557 344.68 128.469 343.168C129.381 341.656 130.641 340.48 132.249 339.64C133.881 338.776 135.717 338.344 137.757 338.344C139.797 338.344 141.621 338.776 143.229 339.64C144.837 340.48 146.097 341.656 147.009 343.168C147.921 344.68 148.377 346.396 148.377 348.316C148.377 350.236 147.921 351.952 147.009 353.464C146.097 354.976 144.837 356.164 143.229 357.028C141.621 357.868 139.797 358.288 137.757 358.288ZM137.757 353.68C139.197 353.68 140.373 353.2 141.285 352.24C142.221 351.256 142.689 349.948 142.689 348.316C142.689 346.684 142.221 345.388 141.285 344.428C140.373 343.444 139.197 342.952 137.757 342.952C136.317 342.952 135.129 343.444 134.193 344.428C133.257 345.388 132.789 346.684 132.789 348.316C132.789 349.948 133.257 351.256 134.193 352.24C135.129 353.2 136.317 353.68 137.757 353.68ZM163.579 338.344C165.379 338.344 167.011 338.764 168.475 339.604C169.963 340.42 171.127 341.584 171.967 343.096C172.807 344.584 173.227 346.324 173.227 348.316C173.227 350.308 172.807 352.06 171.967 353.572C171.127 355.06 169.963 356.224 168.475 357.064C167.011 357.88 165.379 358.288 163.579 358.288C160.915 358.288 158.887 357.448 157.495 355.768V358H152.131V331.288H157.747V340.684C159.163 339.124 161.107 338.344 163.579 338.344ZM162.607 353.68C164.047 353.68 165.223 353.2 166.135 352.24C167.071 351.256 167.539 349.948 167.539 348.316C167.539 346.684 167.071 345.388 166.135 344.428C165.223 343.444 164.047 342.952 162.607 342.952C161.167 342.952 159.979 343.444 159.043 344.428C158.131 345.388 157.675 346.684 157.675 348.316C157.675 349.948 158.131 351.256 159.043 352.24C159.979 353.2 161.167 353.68 162.607 353.68ZM195.959 348.388C195.959 348.46 195.923 348.964 195.851 349.9H181.199C181.463 351.1 182.087 352.048 183.071 352.744C184.055 353.44 185.279 353.788 186.743 353.788C187.751 353.788 188.639 353.644 189.407 353.356C190.199 353.044 190.931 352.564 191.603 351.916L194.591 355.156C192.767 357.244 190.103 358.288 186.599 358.288C184.415 358.288 182.483 357.868 180.803 357.028C179.123 356.164 177.827 354.976 176.915 353.464C176.003 351.952 175.547 350.236 175.547 348.316C175.547 346.42 175.991 344.716 176.879 343.204C177.791 341.668 179.027 340.48 180.587 339.64C182.171 338.776 183.935 338.344 185.879 338.344C187.775 338.344 189.491 338.752 191.027 339.568C192.563 340.384 193.763 341.56 194.627 343.096C195.515 344.608 195.959 346.372 195.959 348.388ZM185.915 342.592C184.643 342.592 183.575 342.952 182.711 343.672C181.847 344.392 181.319 345.376 181.127 346.624H190.667C190.475 345.4 189.947 344.428 189.083 343.708C188.219 342.964 187.163 342.592 185.915 342.592ZM205.061 341.188C205.733 340.252 206.633 339.544 207.761 339.064C208.913 338.584 210.233 338.344 211.721 338.344V343.528C211.097 343.48 210.677 343.456 210.461 343.456C208.853 343.456 207.593 343.912 206.681 344.824C205.769 345.712 205.313 347.056 205.313 348.856V358H199.697V338.632H205.061V341.188ZM243.037 353.248V358H223.993V354.22L233.713 345.04C234.745 344.056 235.441 343.216 235.801 342.52C236.161 341.8 236.341 341.092 236.341 340.396C236.341 339.388 235.993 338.62 235.297 338.092C234.625 337.54 233.629 337.264 232.309 337.264C231.205 337.264 230.209 337.48 229.321 337.912C228.433 338.32 227.689 338.944 227.089 339.784L222.841 337.048C223.825 335.584 225.181 334.444 226.909 333.628C228.637 332.788 230.617 332.368 232.849 332.368C234.721 332.368 236.353 332.68 237.745 333.304C239.161 333.904 240.253 334.768 241.021 335.896C241.813 337 242.209 338.308 242.209 339.82C242.209 341.188 241.921 342.472 241.345 343.672C240.769 344.872 239.653 346.24 237.997 347.776L232.201 353.248H243.037ZM256.173 358.432C254.085 358.432 252.225 357.916 250.593 356.884C248.961 355.852 247.677 354.364 246.741 352.42C245.829 350.452 245.373 348.112 245.373 345.4C245.373 342.688 245.829 340.36 246.741 338.416C247.677 336.448 248.961 334.948 250.593 333.916C252.225 332.884 254.085 332.368 256.173 332.368C258.261 332.368 260.121 332.884 261.753 333.916C263.385 334.948 264.657 336.448 265.569 338.416C266.505 340.36 266.973 342.688 266.973 345.4C266.973 348.112 266.505 350.452 265.569 352.42C264.657 354.364 263.385 355.852 261.753 356.884C260.121 357.916 258.261 358.432 256.173 358.432ZM256.173 353.5C257.709 353.5 258.909 352.84 259.773 351.52C260.661 350.2 261.105 348.16 261.105 345.4C261.105 342.64 260.661 340.6 259.773 339.28C258.909 337.96 257.709 337.3 256.173 337.3C254.661 337.3 253.461 337.96 252.573 339.28C251.709 340.6 251.277 342.64 251.277 345.4C251.277 348.16 251.709 350.2 252.573 351.52C253.461 352.84 254.661 353.5 256.173 353.5ZM288.423 353.248V358H269.379V354.22L279.099 345.04C280.131 344.056 280.827 343.216 281.187 342.52C281.547 341.8 281.727 341.092 281.727 340.396C281.727 339.388 281.379 338.62 280.683 338.092C280.011 337.54 279.015 337.264 277.695 337.264C276.591 337.264 275.595 337.48 274.707 337.912C273.819 338.32 273.075 338.944 272.475 339.784L268.227 337.048C269.211 335.584 270.567 334.444 272.295 333.628C274.023 332.788 276.003 332.368 278.235 332.368C280.107 332.368 281.739 332.68 283.131 333.304C284.547 333.904 285.639 334.768 286.407 335.896C287.199 337 287.595 338.308 287.595 339.82C287.595 341.188 287.307 342.472 286.731 343.672C286.155 344.872 285.039 346.24 283.383 347.776L277.587 353.248H288.423ZM300.55 332.8V358H294.718V337.48H289.678V332.8H300.55Z" fill="#FFEFEF"/>
</g>
<defs>
<filter id="filter0_i" x="74" y="0" width="175" height="179" filterUnits="userSpaceOnUse" color-interpolation-filters="sRGB">
<feFlood flood-opacity="0" result="BackgroundImageFix"/>
<feBlend mode="normal" in="SourceGraphic" in2="BackgroundImageFix" result="shape"/>
<feColorMatrix in="SourceAlpha" type="matrix" values="0 0 0 0 0 0 0 0 0 0 0 0 0 0 0 0 0 0 127 0" result="hardAlpha"/>
<feOffset dy="4"/>
<feGaussianBlur stdDeviation="2"/>
<feComposite in2="hardAlpha" operator="arithmetic" k2="-1" k3="1"/>
<feColorMatrix type="matrix" values="0 0 0 0 0 0 0 0 0 0 0 0 0 0 0 0 0 0 0.25 0"/>
<feBlend mode="normal" in2="shape" result="effect1_innerShadow"/>
</filter>
<filter id="filter1_i" x="74" y="0" width="175" height="179" filterUnits="userSpaceOnUse" color-interpolation-filters="sRGB">
<feFlood flood-opacity="0" result="BackgroundImageFix"/>
<feBlend mode="normal" in="SourceGraphic" in2="BackgroundImageFix" result="shape"/>
<feColorMatrix in="SourceAlpha" type="matrix" values="0 0 0 0 0 0 0 0 0 0 0 0 0 0 0 0 0 0 127 0" result="hardAlpha"/>
<feOffset dy="4"/>
<feGaussianBlur stdDeviation="2"/>
<feComposite in2="hardAlpha" operator="arithmetic" k2="-1" k3="1"/>
<feColorMatrix type="matrix" values="0 0 0 0 0 0 0 0 0 0 0 0 0 0 0 0 0 0 0.25 0"/>
<feBlend mode="normal" in2="shape" result="effect1_innerShadow"/>
</filter>
<filter id="filter2_i" x="74" y="0" width="175" height="179" filterUnits="userSpaceOnUse" color-interpolation-filters="sRGB">
<feFlood flood-opacity="0" result="BackgroundImageFix"/>
<feBlend mode="normal" in="SourceGraphic" in2="BackgroundImageFix" result="shape"/>
<feColorMatrix in="SourceAlpha" type="matrix" values="0 0 0 0 0 0 0 0 0 0 0 0 0 0 0 0 0 0 127 0" result="hardAlpha"/>
<feOffset dy="4"/>
<feGaussianBlur stdDeviation="2"/>
<feComposite in2="hardAlpha" operator="arithmetic" k2="-1" k3="1"/>
<feColorMatrix type="matrix" values="0 0 0 0 0 0 0 0 0 0 0 0 0 0 0 0 0 0 0.25 0"/>
<feBlend mode="normal" in2="shape" result="effect1_innerShadow"/>
</filter>
<filter id="filter3_i" x="110" y="29" width="104" height="121" filterUnits="userSpaceOnUse" color-interpolation-filters="sRGB">
<feFlood flood-opacity="0" result="BackgroundImageFix"/>
<feBlend mode="normal" in="SourceGraphic" in2="BackgroundImageFix" result="shape"/>
<feColorMatrix in="SourceAlpha" type="matrix" values="0 0 0 0 0 0 0 0 0 0 0 0 0 0 0 0 0 0 127 0" result="hardAlpha"/>
<feOffset dy="4"/>
<feGaussianBlur stdDeviation="2"/>
<feComposite in2="hardAlpha" operator="arithmetic" k2="-1" k3="1"/>
<feColorMatrix type="matrix" values="0 0 0 0 0 0 0 0 0 0 0 0 0 0 0 0 0 0 0.25 0"/>
<feBlend mode="normal" in2="shape" result="effect1_innerShadow"/>
</filter>
<filter id="filter4_i" x="47.7793" y="201.288" width="226.931" height="81.984" filterUnits="userSpaceOnUse" color-interpolation-filters="sRGB">
<feFlood flood-opacity="0" result="BackgroundImageFix"/>
<feBlend mode="normal" in="SourceGraphic" in2="BackgroundImageFix" result="shape"/>
<feColorMatrix in="SourceAlpha" type="matrix" values="0 0 0 0 0 0 0 0 0 0 0 0 0 0 0 0 0 0 127 0" result="hardAlpha"/>
<feOffset dy="4"/>
<feGaussianBlur stdDeviation="2"/>
<feComposite in2="hardAlpha" operator="arithmetic" k2="-1" k3="1"/>
<feColorMatrix type="matrix" values="0 0 0 0 0 0 0 0 0 0 0 0 0 0 0 0 0 0 0.25 0"/>
<feBlend mode="normal" in2="shape" result="effect1_innerShadow"/>
</filter>
<filter id="filter5_i" x="27.4414" y="331.288" width="273.109" height="31.144" filterUnits="userSpaceOnUse" color-interpolation-filters="sRGB">
<feFlood flood-opacity="0" result="BackgroundImageFix"/>
<feBlend mode="normal" in="SourceGraphic" in2="BackgroundImageFix" result="shape"/>
<feColorMatrix in="SourceAlpha" type="matrix" values="0 0 0 0 0 0 0 0 0 0 0 0 0 0 0 0 0 0 127 0" result="hardAlpha"/>
<feOffset dy="4"/>
<feGaussianBlur stdDeviation="2"/>
<feComposite in2="hardAlpha" operator="arithmetic" k2="-1" k3="1"/>
<feColorMatrix type="matrix" values="0 0 0 0 0 0 0 0 0 0 0 0 0 0 0 0 0 0 0.25 0"/>
<feBlend mode="normal" in2="shape" result="effect1_innerShadow"/>
</filter>
</defs>
</svg>
