<svg width="1159" height="644" viewBox="0 0 1159 644" fill="none" xmlns="http://www.w3.org/2000/svg">
<g filter="url(#filter0_d)">
<path d="M1114 509.733C1114 550.18 1085.47 585.154 1045.69 592.445C704.998 654.875 463.689 646.712 76.2384 590.1C34.7208 584.034 4.00003 548.282 4.00003 506.324V117.421C4.00003 74.7507 35.8388 38.6113 78.1889 33.3927C486.173 -16.881 642.693 -5.44727 1037.55 34.9827C1080.9 39.4209 1114 75.967 1114 119.54V509.733Z" fill="#65789D"/>
<path d="M221.76 184.64V189H200.76V161H221.2V165.36H205.96V172.64H219.48V176.92H205.96V184.64H221.76ZM235.042 167.4C238.188 167.4 240.588 168.16 242.242 169.68C243.922 171.173 244.762 173.44 244.762 176.48V189H240.042V186.4C239.428 187.333 238.548 188.053 237.402 188.56C236.282 189.04 234.922 189.28 233.322 189.28C231.722 189.28 230.322 189.013 229.122 188.48C227.922 187.92 226.988 187.16 226.322 186.2C225.682 185.213 225.362 184.107 225.362 182.88C225.362 180.96 226.068 179.427 227.482 178.28C228.922 177.107 231.175 176.52 234.242 176.52H239.762V176.2C239.762 174.707 239.308 173.56 238.402 172.76C237.522 171.96 236.202 171.56 234.442 171.56C233.242 171.56 232.055 171.747 230.882 172.12C229.735 172.493 228.762 173.013 227.962 173.68L226.002 170.04C227.122 169.187 228.468 168.533 230.042 168.08C231.615 167.627 233.282 167.4 235.042 167.4ZM234.362 185.64C235.615 185.64 236.722 185.36 237.682 184.8C238.668 184.213 239.362 183.387 239.762 182.32V179.84H234.602C231.722 179.84 230.282 180.787 230.282 182.68C230.282 183.587 230.642 184.307 231.362 184.84C232.082 185.373 233.082 185.64 234.362 185.64ZM255.938 170.76C257.378 168.52 259.912 167.4 263.538 167.4V172.16C263.112 172.08 262.725 172.04 262.378 172.04C260.432 172.04 258.912 172.613 257.818 173.76C256.725 174.88 256.178 176.507 256.178 178.64V189H251.178V167.64H255.938V170.76ZM267.78 159.32H272.78V189H267.78V159.32ZM299.343 167.64L289.343 190.72C288.409 193.04 287.276 194.667 285.943 195.6C284.609 196.56 282.996 197.04 281.103 197.04C280.036 197.04 278.983 196.867 277.943 196.52C276.903 196.173 276.049 195.693 275.382 195.08L277.382 191.4C277.863 191.853 278.423 192.213 279.063 192.48C279.729 192.747 280.396 192.88 281.062 192.88C281.943 192.88 282.663 192.653 283.223 192.2C283.809 191.747 284.343 190.987 284.823 189.92L285.183 189.08L275.862 167.64H281.062L287.783 183.44L294.543 167.64H299.343ZM333.842 174.44C335.389 174.947 336.616 175.8 337.522 177C338.429 178.173 338.882 179.64 338.882 181.4C338.882 183.827 337.949 185.707 336.082 187.04C334.216 188.347 331.496 189 327.922 189H314.002V161H327.122C330.429 161 332.976 161.653 334.762 162.96C336.549 164.24 337.442 166.013 337.442 168.28C337.442 169.667 337.122 170.893 336.482 171.96C335.842 173.027 334.962 173.853 333.842 174.44ZM319.202 165.08V172.8H326.562C328.376 172.8 329.762 172.48 330.722 171.84C331.709 171.173 332.202 170.213 332.202 168.96C332.202 167.68 331.709 166.72 330.722 166.08C329.762 165.413 328.376 165.08 326.562 165.08H319.202ZM327.602 184.92C331.629 184.92 333.642 183.573 333.642 180.88C333.642 178.187 331.629 176.84 327.602 176.84H319.202V184.92H327.602ZM343.952 167.64H348.952V189H343.952V167.64ZM346.472 164.12C345.565 164.12 344.805 163.84 344.192 163.28C343.579 162.693 343.272 161.973 343.272 161.12C343.272 160.267 343.579 159.56 344.192 159C344.805 158.413 345.565 158.12 346.472 158.12C347.379 158.12 348.139 158.4 348.752 158.96C349.365 159.493 349.672 160.173 349.672 161C349.672 161.88 349.365 162.627 348.752 163.24C348.165 163.827 347.405 164.12 346.472 164.12ZM360.274 170.76C361.714 168.52 364.248 167.4 367.874 167.4V172.16C367.448 172.08 367.061 172.04 366.714 172.04C364.768 172.04 363.248 172.613 362.154 173.76C361.061 174.88 360.514 176.507 360.514 178.64V189H355.514V167.64H360.274V170.76ZM392.841 159.32V189H388.041V186.24C387.214 187.253 386.187 188.013 384.961 188.52C383.761 189.027 382.427 189.28 380.961 189.28C378.907 189.28 377.054 188.827 375.401 187.92C373.774 187.013 372.494 185.733 371.561 184.08C370.627 182.4 370.161 180.48 370.161 178.32C370.161 176.16 370.627 174.253 371.561 172.6C372.494 170.947 373.774 169.667 375.401 168.76C377.054 167.853 378.907 167.4 380.961 167.4C382.374 167.4 383.667 167.64 384.841 168.12C386.014 168.6 387.014 169.32 387.841 170.28V159.32H392.841ZM381.561 185C382.761 185 383.841 184.733 384.801 184.2C385.761 183.64 386.521 182.853 387.081 181.84C387.641 180.827 387.921 179.653 387.921 178.32C387.921 176.987 387.641 175.813 387.081 174.8C386.521 173.787 385.761 173.013 384.801 172.48C383.841 171.92 382.761 171.64 381.561 171.64C380.361 171.64 379.281 171.92 378.321 172.48C377.361 173.013 376.601 173.787 376.041 174.8C375.481 175.813 375.201 176.987 375.201 178.32C375.201 179.653 375.481 180.827 376.041 181.84C376.601 182.853 377.361 183.64 378.321 184.2C379.281 184.733 380.361 185 381.561 185ZM415.396 196.76C413.823 194.333 412.61 191.52 411.756 188.32C410.93 185.12 410.516 181.693 410.516 178.04C410.516 174.387 410.93 170.96 411.756 167.76C412.61 164.533 413.823 161.72 415.396 159.32H420.156C418.53 162.2 417.33 165.173 416.556 168.24C415.81 171.28 415.436 174.547 415.436 178.04C415.436 181.533 415.81 184.813 416.556 187.88C417.33 190.92 418.53 193.88 420.156 196.76H415.396ZM443.063 184.6V189H422.423V185.52L433.543 174.96C434.797 173.76 435.637 172.72 436.063 171.84C436.517 170.933 436.743 170.04 436.743 169.16C436.743 167.853 436.303 166.853 435.423 166.16C434.543 165.467 433.25 165.12 431.543 165.12C428.69 165.12 426.503 166.093 424.983 168.04L421.343 165.24C422.437 163.773 423.903 162.64 425.743 161.84C427.61 161.013 429.69 160.6 431.983 160.6C435.023 160.6 437.45 161.32 439.263 162.76C441.077 164.2 441.983 166.16 441.983 168.64C441.983 170.16 441.663 171.587 441.023 172.92C440.383 174.253 439.157 175.773 437.343 177.48L429.863 184.6H443.063ZM470.439 182.64H465.479V189H460.439V182.64H445.079V179.04L458.879 161H464.439L451.439 178.24H460.599V172.6H465.479V178.24H470.439V182.64ZM503.842 182.52H489.842L487.082 189H481.722L494.322 161H499.442L512.082 189H506.642L503.842 182.52ZM502.122 178.44L496.842 166.2L491.602 178.44H502.122ZM536.168 167.64V185.76C536.168 193.28 532.328 197.04 524.648 197.04C522.594 197.04 520.648 196.773 518.808 196.24C516.968 195.733 515.448 194.987 514.248 194L516.488 190.24C517.421 191.013 518.594 191.627 520.008 192.08C521.448 192.56 522.901 192.8 524.368 192.8C526.714 192.8 528.434 192.267 529.528 191.2C530.621 190.133 531.168 188.507 531.168 186.32V185.2C530.314 186.133 529.274 186.84 528.048 187.32C526.821 187.8 525.474 188.04 524.008 188.04C521.981 188.04 520.141 187.613 518.488 186.76C516.861 185.88 515.568 184.653 514.608 183.08C513.674 181.507 513.208 179.707 513.208 177.68C513.208 175.653 513.674 173.867 514.608 172.32C515.568 170.747 516.861 169.533 518.488 168.68C520.141 167.827 521.981 167.4 524.008 167.4C525.554 167.4 526.954 167.653 528.208 168.16C529.488 168.667 530.554 169.44 531.408 170.48V167.64H536.168ZM524.768 183.8C526.661 183.8 528.208 183.24 529.408 182.12C530.634 180.973 531.248 179.493 531.248 177.68C531.248 175.893 530.634 174.44 529.408 173.32C528.208 172.2 526.661 171.64 524.768 171.64C522.848 171.64 521.274 172.2 520.048 173.32C518.848 174.44 518.248 175.893 518.248 177.68C518.248 179.493 518.848 180.973 520.048 182.12C521.274 183.24 522.848 183.8 524.768 183.8ZM563.421 167.64V189H558.661V186.28C557.861 187.24 556.861 187.987 555.661 188.52C554.461 189.027 553.168 189.28 551.781 189.28C548.928 189.28 546.674 188.493 545.021 186.92C543.394 185.32 542.581 182.96 542.581 179.84V167.64H547.581V179.16C547.581 181.08 548.008 182.52 548.861 183.48C549.741 184.413 550.981 184.88 552.581 184.88C554.368 184.88 555.781 184.333 556.821 183.24C557.888 182.12 558.421 180.52 558.421 178.44V167.64H563.421ZM576.568 189.28C574.834 189.28 573.141 189.053 571.488 188.6C569.834 188.147 568.514 187.573 567.528 186.88L569.448 183.08C570.408 183.72 571.554 184.24 572.888 184.64C574.248 185.013 575.581 185.2 576.888 185.2C579.874 185.2 581.368 184.413 581.368 182.84C581.368 182.093 580.981 181.573 580.208 181.28C579.461 180.987 578.248 180.707 576.568 180.44C574.808 180.173 573.368 179.867 572.248 179.52C571.154 179.173 570.194 178.573 569.368 177.72C568.568 176.84 568.168 175.627 568.168 174.08C568.168 172.053 569.008 170.44 570.688 169.24C572.394 168.013 574.688 167.4 577.568 167.4C579.034 167.4 580.501 167.573 581.968 167.92C583.434 168.24 584.634 168.68 585.568 169.24L583.648 173.04C581.834 171.973 579.794 171.44 577.528 171.44C576.061 171.44 574.941 171.667 574.168 172.12C573.421 172.547 573.048 173.12 573.048 173.84C573.048 174.64 573.448 175.213 574.248 175.56C575.074 175.88 576.341 176.187 578.048 176.48C579.754 176.747 581.154 177.053 582.248 177.4C583.341 177.747 584.274 178.333 585.048 179.16C585.848 179.987 586.248 181.16 586.248 182.68C586.248 184.68 585.381 186.28 583.648 187.48C581.914 188.68 579.554 189.28 576.568 189.28ZM603.393 187.84C602.807 188.32 602.087 188.68 601.233 188.92C600.407 189.16 599.527 189.28 598.593 189.28C596.247 189.28 594.433 188.667 593.153 187.44C591.873 186.213 591.233 184.427 591.233 182.08V171.8H587.713V167.8H591.233V162.92H596.233V167.8H601.953V171.8H596.233V181.96C596.233 183 596.487 183.8 596.993 184.36C597.5 184.893 598.233 185.16 599.193 185.16C600.313 185.16 601.247 184.867 601.993 184.28L603.393 187.84ZM628.187 167.64V189H623.427V186.28C622.627 187.24 621.627 187.987 620.427 188.52C619.227 189.027 617.933 189.28 616.547 189.28C613.693 189.28 611.44 188.493 609.787 186.92C608.16 185.32 607.347 182.96 607.347 179.84V167.64H612.347V179.16C612.347 181.08 612.773 182.52 613.627 183.48C614.507 184.413 615.747 184.88 617.347 184.88C619.133 184.88 620.547 184.333 621.587 183.24C622.653 182.12 623.187 180.52 623.187 178.44V167.64H628.187ZM641.333 189.28C639.6 189.28 637.906 189.053 636.253 188.6C634.6 188.147 633.28 187.573 632.293 186.88L634.213 183.08C635.173 183.72 636.32 184.24 637.653 184.64C639.013 185.013 640.346 185.2 641.653 185.2C644.64 185.2 646.133 184.413 646.133 182.84C646.133 182.093 645.746 181.573 644.973 181.28C644.226 180.987 643.013 180.707 641.333 180.44C639.573 180.173 638.133 179.867 637.013 179.52C635.92 179.173 634.96 178.573 634.133 177.72C633.333 176.84 632.933 175.627 632.933 174.08C632.933 172.053 633.773 170.44 635.453 169.24C637.16 168.013 639.453 167.4 642.333 167.4C643.8 167.4 645.266 167.573 646.733 167.92C648.2 168.24 649.4 168.68 650.333 169.24L648.413 173.04C646.6 171.973 644.56 171.44 642.293 171.44C640.826 171.44 639.706 171.667 638.933 172.12C638.186 172.547 637.813 173.12 637.813 173.84C637.813 174.64 638.213 175.213 639.013 175.56C639.84 175.88 641.106 176.187 642.813 176.48C644.52 176.747 645.92 177.053 647.013 177.4C648.106 177.747 649.04 178.333 649.813 179.16C650.613 179.987 651.013 181.16 651.013 182.68C651.013 184.68 650.146 186.28 648.413 187.48C646.68 188.68 644.32 189.28 641.333 189.28ZM685.134 184.6V189H664.494V185.52L675.614 174.96C676.867 173.76 677.707 172.72 678.134 171.84C678.587 170.933 678.814 170.04 678.814 169.16C678.814 167.853 678.374 166.853 677.494 166.16C676.614 165.467 675.32 165.12 673.614 165.12C670.76 165.12 668.574 166.093 667.054 168.04L663.414 165.24C664.507 163.773 665.974 162.64 667.814 161.84C669.68 161.013 671.76 160.6 674.054 160.6C677.094 160.6 679.52 161.32 681.334 162.76C683.147 164.2 684.054 166.16 684.054 168.64C684.054 170.16 683.734 171.587 683.094 172.92C682.454 174.253 681.227 175.773 679.414 177.48L671.934 184.6H685.134ZM699.698 189.4C697.458 189.4 695.458 188.84 693.698 187.72C691.938 186.573 690.551 184.92 689.538 182.76C688.524 180.573 688.018 177.987 688.018 175C688.018 172.013 688.524 169.44 689.538 167.28C690.551 165.093 691.938 163.44 693.698 162.32C695.458 161.173 697.458 160.6 699.698 160.6C701.938 160.6 703.938 161.173 705.698 162.32C707.484 163.44 708.884 165.093 709.898 167.28C710.911 169.44 711.418 172.013 711.418 175C711.418 177.987 710.911 180.573 709.898 182.76C708.884 184.92 707.484 186.573 705.698 187.72C703.938 188.84 701.938 189.4 699.698 189.4ZM699.698 184.88C701.698 184.88 703.271 184.053 704.418 182.4C705.591 180.747 706.178 178.28 706.178 175C706.178 171.72 705.591 169.253 704.418 167.6C703.271 165.947 701.698 165.12 699.698 165.12C697.724 165.12 696.151 165.947 694.978 167.6C693.831 169.253 693.258 171.72 693.258 175C693.258 178.28 693.831 180.747 694.978 182.4C696.151 184.053 697.724 184.88 699.698 184.88ZM735.017 184.6V189H714.377V185.52L725.497 174.96C726.75 173.76 727.59 172.72 728.017 171.84C728.47 170.933 728.697 170.04 728.697 169.16C728.697 167.853 728.257 166.853 727.377 166.16C726.497 165.467 725.203 165.12 723.497 165.12C720.643 165.12 718.457 166.093 716.937 168.04L713.297 165.24C714.39 163.773 715.857 162.64 717.697 161.84C719.563 161.013 721.643 160.6 723.937 160.6C726.977 160.6 729.403 161.32 731.217 162.76C733.03 164.2 733.937 166.16 733.937 168.64C733.937 170.16 733.617 171.587 732.977 172.92C732.337 174.253 731.11 175.773 729.297 177.48L721.817 184.6H735.017ZM747.698 161V189H742.498V165.36H736.578V161H747.698ZM777.947 167.4C780.64 167.4 782.8 168.187 784.427 169.76C786.054 171.333 786.867 173.667 786.867 176.76V189H781.867V177.4C781.867 175.533 781.427 174.133 780.547 173.2C779.667 172.24 778.414 171.76 776.787 171.76C774.947 171.76 773.494 172.32 772.427 173.44C771.36 174.533 770.827 176.12 770.827 178.2V189H765.827V159.32H770.827V170.12C771.654 169.24 772.667 168.573 773.867 168.12C775.094 167.64 776.454 167.4 777.947 167.4ZM793.21 167.64H798.21V189H793.21V167.64ZM795.73 164.12C794.823 164.12 794.063 163.84 793.45 163.28C792.836 162.693 792.53 161.973 792.53 161.12C792.53 160.267 792.836 159.56 793.45 159C794.063 158.413 794.823 158.12 795.73 158.12C796.636 158.12 797.396 158.4 798.01 158.96C798.623 159.493 798.93 160.173 798.93 161C798.93 161.88 798.623 162.627 798.01 163.24C797.423 163.827 796.663 164.12 795.73 164.12ZM816.892 167.4C819.586 167.4 821.746 168.187 823.372 169.76C824.999 171.333 825.812 173.667 825.812 176.76V189H820.812V177.4C820.812 175.533 820.372 174.133 819.492 173.2C818.612 172.24 817.359 171.76 815.732 171.76C813.892 171.76 812.439 172.32 811.372 173.44C810.306 174.533 809.772 176.12 809.772 178.2V189H804.772V167.64H809.532V170.4C810.359 169.413 811.399 168.667 812.652 168.16C813.906 167.653 815.319 167.4 816.892 167.4ZM853.55 167.64V185.76C853.55 193.28 849.71 197.04 842.03 197.04C839.977 197.04 838.03 196.773 836.19 196.24C834.35 195.733 832.83 194.987 831.63 194L833.87 190.24C834.804 191.013 835.977 191.627 837.39 192.08C838.83 192.56 840.284 192.8 841.75 192.8C844.097 192.8 845.817 192.267 846.91 191.2C848.004 190.133 848.55 188.507 848.55 186.32V185.2C847.697 186.133 846.657 186.84 845.43 187.32C844.204 187.8 842.857 188.04 841.39 188.04C839.364 188.04 837.524 187.613 835.87 186.76C834.244 185.88 832.95 184.653 831.99 183.08C831.057 181.507 830.59 179.707 830.59 177.68C830.59 175.653 831.057 173.867 831.99 172.32C832.95 170.747 834.244 169.533 835.87 168.68C837.524 167.827 839.364 167.4 841.39 167.4C842.937 167.4 844.337 167.653 845.59 168.16C846.87 168.667 847.937 169.44 848.79 170.48V167.64H853.55ZM842.15 183.8C844.044 183.8 845.59 183.24 846.79 182.12C848.017 180.973 848.63 179.493 848.63 177.68C848.63 175.893 848.017 174.44 846.79 173.32C845.59 172.2 844.044 171.64 842.15 171.64C840.23 171.64 838.657 172.2 837.43 173.32C836.23 174.44 835.63 175.893 835.63 177.68C835.63 179.493 836.23 180.973 837.43 182.12C838.657 183.24 840.23 183.8 842.15 183.8ZM881.324 167.64V185.76C881.324 193.28 877.484 197.04 869.804 197.04C867.75 197.04 865.804 196.773 863.964 196.24C862.124 195.733 860.604 194.987 859.404 194L861.644 190.24C862.577 191.013 863.75 191.627 865.164 192.08C866.604 192.56 868.057 192.8 869.524 192.8C871.87 192.8 873.59 192.267 874.684 191.2C875.777 190.133 876.324 188.507 876.324 186.32V185.2C875.47 186.133 874.43 186.84 873.204 187.32C871.977 187.8 870.63 188.04 869.164 188.04C867.137 188.04 865.297 187.613 863.644 186.76C862.017 185.88 860.724 184.653 859.764 183.08C858.83 181.507 858.364 179.707 858.364 177.68C858.364 175.653 858.83 173.867 859.764 172.32C860.724 170.747 862.017 169.533 863.644 168.68C865.297 167.827 867.137 167.4 869.164 167.4C870.71 167.4 872.11 167.653 873.364 168.16C874.644 168.667 875.71 169.44 876.564 170.48V167.64H881.324ZM869.924 183.8C871.817 183.8 873.364 183.24 874.564 182.12C875.79 180.973 876.404 179.493 876.404 177.68C876.404 175.893 875.79 174.44 874.564 173.32C873.364 172.2 871.817 171.64 869.924 171.64C868.004 171.64 866.43 172.2 865.204 173.32C864.004 174.44 863.404 175.893 863.404 177.68C863.404 179.493 864.004 180.973 865.204 182.12C866.43 183.24 868.004 183.8 869.924 183.8ZM896.057 167.4C899.204 167.4 901.604 168.16 903.257 169.68C904.937 171.173 905.777 173.44 905.777 176.48V189H901.057V186.4C900.444 187.333 899.564 188.053 898.417 188.56C897.297 189.04 895.937 189.28 894.337 189.28C892.737 189.28 891.337 189.013 890.137 188.48C888.937 187.92 888.004 187.16 887.337 186.2C886.697 185.213 886.377 184.107 886.377 182.88C886.377 180.96 887.084 179.427 888.497 178.28C889.937 177.107 892.191 176.52 895.257 176.52H900.777V176.2C900.777 174.707 900.324 173.56 899.417 172.76C898.537 171.96 897.217 171.56 895.457 171.56C894.257 171.56 893.071 171.747 891.897 172.12C890.751 172.493 889.777 173.013 888.977 173.68L887.017 170.04C888.137 169.187 889.484 168.533 891.057 168.08C892.631 167.627 894.297 167.4 896.057 167.4ZM895.377 185.64C896.631 185.64 897.737 185.36 898.697 184.8C899.684 184.213 900.377 183.387 900.777 182.32V179.84H895.617C892.737 179.84 891.297 180.787 891.297 182.68C891.297 183.587 891.657 184.307 892.377 184.84C893.097 185.373 894.097 185.64 895.377 185.64ZM931.409 161V189H926.209V165.36H920.289V161H931.409ZM945.723 171.84C949.67 171.84 952.59 172.613 954.483 174.16C956.376 175.68 957.323 177.76 957.323 180.4C957.323 182.08 956.91 183.6 956.083 184.96C955.256 186.32 954.016 187.4 952.363 188.2C950.71 189 948.67 189.4 946.243 189.4C944.243 189.4 942.31 189.12 940.443 188.56C938.576 187.973 937.003 187.173 935.723 186.16L937.923 182.12C938.963 182.973 940.203 183.653 941.643 184.16C943.11 184.64 944.616 184.88 946.163 184.88C948.003 184.88 949.443 184.507 950.483 183.76C951.55 182.987 952.083 181.933 952.083 180.6C952.083 179.16 951.51 178.08 950.363 177.36C949.243 176.613 947.31 176.24 944.563 176.24H937.803L939.243 161H955.683V165.36H943.643L943.043 171.84H945.723ZM209.44 238.4C207.28 238.4 205.187 238.093 203.16 237.48C201.16 236.867 199.573 236.053 198.4 235.04L200.2 231C201.347 231.907 202.747 232.653 204.4 233.24C206.08 233.8 207.76 234.08 209.44 234.08C211.52 234.08 213.067 233.747 214.08 233.08C215.12 232.413 215.64 231.533 215.64 230.44C215.64 229.64 215.347 228.987 214.76 228.48C214.2 227.947 213.48 227.533 212.6 227.24C211.72 226.947 210.52 226.613 209 226.24C206.867 225.733 205.133 225.227 203.8 224.72C202.493 224.213 201.36 223.427 200.4 222.36C199.467 221.267 199 219.8 199 217.96C199 216.413 199.413 215.013 200.24 213.76C201.093 212.48 202.36 211.467 204.04 210.72C205.747 209.973 207.827 209.6 210.28 209.6C211.987 209.6 213.667 209.813 215.32 210.24C216.973 210.667 218.4 211.28 219.6 212.08L217.96 216.12C216.733 215.4 215.453 214.853 214.12 214.48C212.787 214.107 211.493 213.92 210.24 213.92C208.187 213.92 206.653 214.267 205.64 214.96C204.653 215.653 204.16 216.573 204.16 217.72C204.16 218.52 204.44 219.173 205 219.68C205.587 220.187 206.32 220.587 207.2 220.88C208.08 221.173 209.28 221.507 210.8 221.88C212.88 222.36 214.587 222.867 215.92 223.4C217.253 223.907 218.387 224.693 219.32 225.76C220.28 226.827 220.76 228.267 220.76 230.08C220.76 231.627 220.333 233.027 219.48 234.28C218.653 235.533 217.387 236.533 215.68 237.28C213.973 238.027 211.893 238.4 209.44 238.4ZM245.516 227.44C245.516 227.787 245.49 228.28 245.436 228.92H228.676C228.97 230.493 229.73 231.747 230.956 232.68C232.21 233.587 233.756 234.04 235.596 234.04C237.943 234.04 239.876 233.267 241.396 231.72L244.076 234.8C243.116 235.947 241.903 236.813 240.436 237.4C238.97 237.987 237.316 238.28 235.476 238.28C233.13 238.28 231.063 237.813 229.276 236.88C227.49 235.947 226.103 234.653 225.116 233C224.156 231.32 223.676 229.427 223.676 227.32C223.676 225.24 224.143 223.373 225.076 221.72C226.036 220.04 227.356 218.733 229.036 217.8C230.716 216.867 232.61 216.4 234.716 216.4C236.796 216.4 238.65 216.867 240.276 217.8C241.93 218.707 243.21 220 244.116 221.68C245.05 223.333 245.516 225.253 245.516 227.44ZM234.716 220.4C233.116 220.4 231.756 220.88 230.636 221.84C229.543 222.773 228.876 224.027 228.636 225.6H240.756C240.543 224.053 239.89 222.8 238.796 221.84C237.703 220.88 236.343 220.4 234.716 220.4ZM262.159 216.4C264.239 216.4 266.092 216.853 267.719 217.76C269.372 218.667 270.666 219.947 271.599 221.6C272.532 223.253 272.999 225.16 272.999 227.32C272.999 229.48 272.532 231.4 271.599 233.08C270.666 234.733 269.372 236.013 267.719 236.92C266.092 237.827 264.239 238.28 262.159 238.28C259.279 238.28 256.999 237.32 255.319 235.4V245.76H250.319V216.64H255.079V219.44C255.906 218.427 256.919 217.667 258.119 217.16C259.346 216.653 260.692 216.4 262.159 216.4ZM261.599 234C263.439 234 264.946 233.387 266.119 232.16C267.319 230.933 267.919 229.32 267.919 227.32C267.919 225.32 267.319 223.707 266.119 222.48C264.946 221.253 263.439 220.64 261.599 220.64C260.399 220.64 259.319 220.92 258.359 221.48C257.399 222.013 256.639 222.787 256.079 223.8C255.519 224.813 255.239 225.987 255.239 227.32C255.239 228.653 255.519 229.827 256.079 230.84C256.639 231.853 257.399 232.64 258.359 233.2C259.319 233.733 260.399 234 261.599 234ZM290.581 236.84C289.994 237.32 289.274 237.68 288.421 237.92C287.594 238.16 286.714 238.28 285.781 238.28C283.434 238.28 281.621 237.667 280.341 236.44C279.061 235.213 278.421 233.427 278.421 231.08V220.8H274.901V216.8H278.421V211.92H283.421V216.8H289.141V220.8H283.421V230.96C283.421 232 283.674 232.8 284.181 233.36C284.688 233.893 285.421 234.16 286.381 234.16C287.501 234.16 288.434 233.867 289.181 233.28L290.581 236.84ZM314.071 227.44C314.071 227.787 314.044 228.28 313.991 228.92H297.231C297.524 230.493 298.284 231.747 299.511 232.68C300.764 233.587 302.311 234.04 304.151 234.04C306.498 234.04 308.431 233.267 309.951 231.72L312.631 234.8C311.671 235.947 310.458 236.813 308.991 237.4C307.524 237.987 305.871 238.28 304.031 238.28C301.684 238.28 299.618 237.813 297.831 236.88C296.044 235.947 294.658 234.653 293.671 233C292.711 231.32 292.231 229.427 292.231 227.32C292.231 225.24 292.698 223.373 293.631 221.72C294.591 220.04 295.911 218.733 297.591 217.8C299.271 216.867 301.164 216.4 303.271 216.4C305.351 216.4 307.204 216.867 308.831 217.8C310.484 218.707 311.764 220 312.671 221.68C313.604 223.333 314.071 225.253 314.071 227.44ZM303.271 220.4C301.671 220.4 300.311 220.88 299.191 221.84C298.098 222.773 297.431 224.027 297.191 225.6H309.311C309.098 224.053 308.444 222.8 307.351 221.84C306.258 220.88 304.898 220.4 303.271 220.4ZM345.834 216.4C348.527 216.4 350.66 217.187 352.234 218.76C353.807 220.307 354.594 222.64 354.594 225.76V238H349.594V226.4C349.594 224.533 349.18 223.133 348.354 222.2C347.527 221.24 346.34 220.76 344.794 220.76C343.114 220.76 341.767 221.32 340.754 222.44C339.74 223.533 339.234 225.107 339.234 227.16V238H334.234V226.4C334.234 224.533 333.82 223.133 332.994 222.2C332.167 221.24 330.98 220.76 329.434 220.76C327.727 220.76 326.367 221.307 325.354 222.4C324.367 223.493 323.874 225.08 323.874 227.16V238H318.874V216.64H323.634V219.36C324.434 218.4 325.434 217.667 326.634 217.16C327.834 216.653 329.167 216.4 330.634 216.4C332.234 216.4 333.647 216.707 334.874 217.32C336.127 217.907 337.114 218.787 337.834 219.96C338.714 218.84 339.847 217.973 341.234 217.36C342.62 216.72 344.154 216.4 345.834 216.4ZM372.823 216.4C374.903 216.4 376.756 216.853 378.383 217.76C380.036 218.667 381.33 219.947 382.263 221.6C383.196 223.253 383.663 225.16 383.663 227.32C383.663 229.48 383.196 231.4 382.263 233.08C381.33 234.733 380.036 236.013 378.383 236.92C376.756 237.827 374.903 238.28 372.823 238.28C371.356 238.28 370.01 238.027 368.783 237.52C367.583 237.013 366.57 236.253 365.743 235.24V238H360.983V208.32H365.983V219.24C366.836 218.307 367.836 217.6 368.983 217.12C370.156 216.64 371.436 216.4 372.823 216.4ZM372.263 234C374.103 234 375.61 233.387 376.783 232.16C377.983 230.933 378.583 229.32 378.583 227.32C378.583 225.32 377.983 223.707 376.783 222.48C375.61 221.253 374.103 220.64 372.263 220.64C371.063 220.64 369.983 220.92 369.023 221.48C368.063 222.013 367.303 222.787 366.743 223.8C366.183 224.813 365.903 225.987 365.903 227.32C365.903 228.653 366.183 229.827 366.743 230.84C367.303 231.853 368.063 232.64 369.023 233.2C369.983 233.733 371.063 234 372.263 234ZM408.485 227.44C408.485 227.787 408.458 228.28 408.405 228.92H391.645C391.938 230.493 392.698 231.747 393.925 232.68C395.178 233.587 396.725 234.04 398.565 234.04C400.912 234.04 402.845 233.267 404.365 231.72L407.045 234.8C406.085 235.947 404.872 236.813 403.405 237.4C401.938 237.987 400.285 238.28 398.445 238.28C396.098 238.28 394.032 237.813 392.245 236.88C390.458 235.947 389.072 234.653 388.085 233C387.125 231.32 386.645 229.427 386.645 227.32C386.645 225.24 387.112 223.373 388.045 221.72C389.005 220.04 390.325 218.733 392.005 217.8C393.685 216.867 395.578 216.4 397.685 216.4C399.765 216.4 401.618 216.867 403.245 217.8C404.898 218.707 406.178 220 407.085 221.68C408.018 223.333 408.485 225.253 408.485 227.44ZM397.685 220.4C396.085 220.4 394.725 220.88 393.605 221.84C392.512 222.773 391.845 224.027 391.605 225.6H403.725C403.512 224.053 402.858 222.8 401.765 221.84C400.672 220.88 399.312 220.4 397.685 220.4ZM418.048 219.76C419.488 217.52 422.021 216.4 425.648 216.4V221.16C425.221 221.08 424.834 221.04 424.488 221.04C422.541 221.04 421.021 221.613 419.928 222.76C418.834 223.88 418.288 225.507 418.288 227.64V238H413.288V216.64H418.048V219.76ZM459.899 233.6V238H439.259V234.52L450.379 223.96C451.633 222.76 452.473 221.72 452.899 220.84C453.353 219.933 453.579 219.04 453.579 218.16C453.579 216.853 453.139 215.853 452.259 215.16C451.379 214.467 450.086 214.12 448.379 214.12C445.526 214.12 443.339 215.093 441.819 217.04L438.179 214.24C439.273 212.773 440.739 211.64 442.579 210.84C444.446 210.013 446.526 209.6 448.819 209.6C451.859 209.6 454.286 210.32 456.099 211.76C457.913 213.2 458.819 215.16 458.819 217.64C458.819 219.16 458.499 220.587 457.859 221.92C457.219 223.253 455.993 224.773 454.179 226.48L446.699 233.6H459.899ZM474.463 238.4C472.223 238.4 470.223 237.84 468.463 236.72C466.703 235.573 465.317 233.92 464.303 231.76C463.29 229.573 462.783 226.987 462.783 224C462.783 221.013 463.29 218.44 464.303 216.28C465.317 214.093 466.703 212.44 468.463 211.32C470.223 210.173 472.223 209.6 474.463 209.6C476.703 209.6 478.703 210.173 480.463 211.32C482.25 212.44 483.65 214.093 484.663 216.28C485.677 218.44 486.183 221.013 486.183 224C486.183 226.987 485.677 229.573 484.663 231.76C483.65 233.92 482.25 235.573 480.463 236.72C478.703 237.84 476.703 238.4 474.463 238.4ZM474.463 233.88C476.463 233.88 478.037 233.053 479.183 231.4C480.357 229.747 480.943 227.28 480.943 224C480.943 220.72 480.357 218.253 479.183 216.6C478.037 214.947 476.463 214.12 474.463 214.12C472.49 214.12 470.917 214.947 469.743 216.6C468.597 218.253 468.023 220.72 468.023 224C468.023 227.28 468.597 229.747 469.743 231.4C470.917 233.053 472.49 233.88 474.463 233.88ZM509.782 233.6V238H489.142V234.52L500.262 223.96C501.516 222.76 502.356 221.72 502.782 220.84C503.236 219.933 503.462 219.04 503.462 218.16C503.462 216.853 503.022 215.853 502.142 215.16C501.262 214.467 499.969 214.12 498.262 214.12C495.409 214.12 493.222 215.093 491.702 217.04L488.062 214.24C489.156 212.773 490.622 211.64 492.462 210.84C494.329 210.013 496.409 209.6 498.702 209.6C501.742 209.6 504.169 210.32 505.982 211.76C507.796 213.2 508.702 215.16 508.702 217.64C508.702 219.16 508.382 220.587 507.742 221.92C507.102 223.253 505.876 224.773 504.062 226.48L496.582 233.6H509.782ZM522.463 210V238H517.263V214.36H511.343V210H522.463ZM527.138 245.76C528.764 242.88 529.964 239.907 530.738 236.84C531.511 233.773 531.898 230.507 531.898 227.04C531.898 223.573 531.511 220.307 530.738 217.24C529.964 214.173 528.764 211.2 527.138 208.32H531.898C533.471 210.693 534.671 213.493 535.498 216.72C536.351 219.92 536.778 223.36 536.778 227.04C536.778 230.72 536.351 234.16 535.498 237.36C534.671 240.533 533.471 243.333 531.898 245.76H527.138ZM545.044 223.04C544.137 223.04 543.364 222.733 542.724 222.12C542.084 221.48 541.764 220.68 541.764 219.72C541.764 218.733 542.071 217.933 542.684 217.32C543.324 216.707 544.111 216.4 545.044 216.4C545.977 216.4 546.751 216.707 547.364 217.32C548.004 217.933 548.324 218.733 548.324 219.72C548.324 220.68 548.004 221.48 547.364 222.12C546.724 222.733 545.951 223.04 545.044 223.04ZM545.044 238.28C544.137 238.28 543.364 237.973 542.724 237.36C542.084 236.72 541.764 235.92 541.764 234.96C541.764 233.973 542.071 233.173 542.684 232.56C543.324 231.947 544.111 231.64 545.044 231.64C545.977 231.64 546.751 231.947 547.364 232.56C548.004 233.173 548.324 233.973 548.324 234.96C548.324 235.92 548.004 236.72 547.364 237.36C546.724 237.973 545.951 238.28 545.044 238.28ZM583.064 238L577.344 229.8C577.104 229.827 576.744 229.84 576.264 229.84H569.944V238H564.744V210H576.264C578.691 210 580.798 210.4 582.584 211.2C584.398 212 585.784 213.147 586.744 214.64C587.704 216.133 588.184 217.907 588.184 219.96C588.184 222.067 587.664 223.88 586.624 225.4C585.611 226.92 584.144 228.053 582.224 228.8L588.664 238H583.064ZM582.944 219.96C582.944 218.173 582.358 216.8 581.184 215.84C580.011 214.88 578.291 214.4 576.024 214.4H569.944V225.56H576.024C578.291 225.56 580.011 225.08 581.184 224.12C582.358 223.133 582.944 221.747 582.944 219.96ZM605.362 216.4C607.442 216.4 609.296 216.853 610.922 217.76C612.576 218.667 613.869 219.947 614.802 221.6C615.736 223.253 616.202 225.16 616.202 227.32C616.202 229.48 615.736 231.4 614.802 233.08C613.869 234.733 612.576 236.013 610.922 236.92C609.296 237.827 607.442 238.28 605.362 238.28C602.482 238.28 600.202 237.32 598.522 235.4V245.76H593.522V216.64H598.282V219.44C599.109 218.427 600.122 217.667 601.322 217.16C602.549 216.653 603.896 216.4 605.362 216.4ZM604.802 234C606.642 234 608.149 233.387 609.322 232.16C610.522 230.933 611.122 229.32 611.122 227.32C611.122 225.32 610.522 223.707 609.322 222.48C608.149 221.253 606.642 220.64 604.802 220.64C603.602 220.64 602.522 220.92 601.562 221.48C600.602 222.013 599.842 222.787 599.282 223.8C598.722 224.813 598.442 225.987 598.442 227.32C598.442 228.653 598.722 229.827 599.282 230.84C599.842 231.853 600.602 232.64 601.562 233.2C602.522 233.733 603.602 234 604.802 234ZM643.199 220.72C645.039 220.72 646.692 221.08 648.159 221.8C649.625 222.493 650.772 223.493 651.599 224.8C652.425 226.107 652.839 227.613 652.839 229.32C652.839 231.133 652.385 232.733 651.479 234.12C650.572 235.48 649.345 236.533 647.799 237.28C646.252 238.027 644.519 238.4 642.599 238.4C638.759 238.4 635.772 237.2 633.639 234.8C631.532 232.4 630.479 228.96 630.479 224.48C630.479 221.333 631.052 218.653 632.199 216.44C633.345 214.2 634.945 212.507 636.999 211.36C639.079 210.187 641.479 209.6 644.199 209.6C645.639 209.6 646.985 209.76 648.239 210.08C649.519 210.373 650.625 210.813 651.559 211.4L649.639 215.32C648.252 214.413 646.479 213.96 644.319 213.96C641.625 213.96 639.519 214.787 637.999 216.44C636.479 218.093 635.719 220.48 635.719 223.6V223.64C636.545 222.68 637.599 221.96 638.879 221.48C640.159 220.973 641.599 220.72 643.199 220.72ZM642.319 234.32C643.945 234.32 645.265 233.893 646.279 233.04C647.292 232.16 647.799 231 647.799 229.56C647.799 228.093 647.292 226.933 646.279 226.08C645.265 225.227 643.905 224.8 642.199 224.8C640.519 224.8 639.145 225.253 638.079 226.16C637.039 227.067 636.519 228.213 636.519 229.6C636.519 230.96 637.025 232.093 638.039 233C639.079 233.88 640.505 234.32 642.319 234.32ZM667.237 238.4C664.997 238.4 662.997 237.84 661.237 236.72C659.477 235.573 658.09 233.92 657.077 231.76C656.064 229.573 655.557 226.987 655.557 224C655.557 221.013 656.064 218.44 657.077 216.28C658.09 214.093 659.477 212.44 661.237 211.32C662.997 210.173 664.997 209.6 667.237 209.6C669.477 209.6 671.477 210.173 673.237 211.32C675.024 212.44 676.424 214.093 677.437 216.28C678.45 218.44 678.957 221.013 678.957 224C678.957 226.987 678.45 229.573 677.437 231.76C676.424 233.92 675.024 235.573 673.237 236.72C671.477 237.84 669.477 238.4 667.237 238.4ZM667.237 233.88C669.237 233.88 670.81 233.053 671.957 231.4C673.13 229.747 673.717 227.28 673.717 224C673.717 220.72 673.13 218.253 671.957 216.6C670.81 214.947 669.237 214.12 667.237 214.12C665.264 214.12 663.69 214.947 662.517 216.6C661.37 218.253 660.797 220.72 660.797 224C660.797 227.28 661.37 229.747 662.517 231.4C663.69 233.053 665.264 233.88 667.237 233.88ZM685.122 238.28C684.216 238.28 683.442 237.973 682.802 237.36C682.162 236.72 681.842 235.92 681.842 234.96C681.842 233.973 682.149 233.173 682.762 232.56C683.402 231.947 684.189 231.64 685.122 231.64C686.056 231.64 686.829 231.947 687.442 232.56C688.082 233.173 688.402 233.973 688.402 234.96C688.402 235.92 688.082 236.72 687.442 237.36C686.802 237.973 686.029 238.28 685.122 238.28ZM702.979 238.4C700.739 238.4 698.739 237.84 696.979 236.72C695.219 235.573 693.832 233.92 692.819 231.76C691.806 229.573 691.299 226.987 691.299 224C691.299 221.013 691.806 218.44 692.819 216.28C693.832 214.093 695.219 212.44 696.979 211.32C698.739 210.173 700.739 209.6 702.979 209.6C705.219 209.6 707.219 210.173 708.979 211.32C710.766 212.44 712.166 214.093 713.179 216.28C714.192 218.44 714.699 221.013 714.699 224C714.699 226.987 714.192 229.573 713.179 231.76C712.166 233.92 710.766 235.573 708.979 236.72C707.219 237.84 705.219 238.4 702.979 238.4ZM702.979 233.88C704.979 233.88 706.552 233.053 707.699 231.4C708.872 229.747 709.459 227.28 709.459 224C709.459 220.72 708.872 218.253 707.699 216.6C706.552 214.947 704.979 214.12 702.979 214.12C701.006 214.12 699.432 214.947 698.259 216.6C697.112 218.253 696.539 220.72 696.539 224C696.539 227.28 697.112 229.747 698.259 231.4C699.432 233.053 701.006 233.88 702.979 233.88ZM729.893 238.4C727.653 238.4 725.653 237.84 723.893 236.72C722.133 235.573 720.746 233.92 719.733 231.76C718.72 229.573 718.213 226.987 718.213 224C718.213 221.013 718.72 218.44 719.733 216.28C720.746 214.093 722.133 212.44 723.893 211.32C725.653 210.173 727.653 209.6 729.893 209.6C732.133 209.6 734.133 210.173 735.893 211.32C737.68 212.44 739.08 214.093 740.093 216.28C741.106 218.44 741.613 221.013 741.613 224C741.613 226.987 741.106 229.573 740.093 231.76C739.08 233.92 737.68 235.573 735.893 236.72C734.133 237.84 732.133 238.4 729.893 238.4ZM729.893 233.88C731.893 233.88 733.466 233.053 734.613 231.4C735.786 229.747 736.373 227.28 736.373 224C736.373 220.72 735.786 218.253 734.613 216.6C733.466 214.947 731.893 214.12 729.893 214.12C727.92 214.12 726.346 214.947 725.173 216.6C724.026 218.253 723.453 220.72 723.453 224C723.453 227.28 724.026 229.747 725.173 231.4C726.346 233.053 727.92 233.88 729.893 233.88ZM756.807 238.4C754.567 238.4 752.567 237.84 750.807 236.72C749.047 235.573 747.661 233.92 746.647 231.76C745.634 229.573 745.127 226.987 745.127 224C745.127 221.013 745.634 218.44 746.647 216.28C747.661 214.093 749.047 212.44 750.807 211.32C752.567 210.173 754.567 209.6 756.807 209.6C759.047 209.6 761.047 210.173 762.807 211.32C764.594 212.44 765.994 214.093 767.007 216.28C768.021 218.44 768.527 221.013 768.527 224C768.527 226.987 768.021 229.573 767.007 231.76C765.994 233.92 764.594 235.573 762.807 236.72C761.047 237.84 759.047 238.4 756.807 238.4ZM756.807 233.88C758.807 233.88 760.381 233.053 761.527 231.4C762.701 229.747 763.287 227.28 763.287 224C763.287 220.72 762.701 218.253 761.527 216.6C760.381 214.947 758.807 214.12 756.807 214.12C754.834 214.12 753.261 214.947 752.087 216.6C750.941 218.253 750.367 220.72 750.367 224C750.367 227.28 750.941 229.747 752.087 231.4C753.261 233.053 754.834 233.88 756.807 233.88Z" fill="#FFEFEF"/>
<path d="M219.88 307.347H224.8V318.507C223.36 319.653 221.68 320.533 219.76 321.147C217.84 321.76 215.867 322.067 213.84 322.067C210.987 322.067 208.413 321.453 206.12 320.227C203.827 318.973 202.027 317.253 200.72 315.067C199.413 312.88 198.76 310.413 198.76 307.667C198.76 304.92 199.413 302.453 200.72 300.267C202.027 298.08 203.827 296.373 206.12 295.147C208.44 293.893 211.04 293.267 213.92 293.267C216.267 293.267 218.4 293.653 220.32 294.427C222.24 295.2 223.853 296.333 225.16 297.827L221.88 301.027C219.747 298.893 217.173 297.827 214.16 297.827C212.187 297.827 210.427 298.24 208.88 299.067C207.36 299.893 206.16 301.053 205.28 302.547C204.427 304.04 204 305.747 204 307.667C204 309.533 204.427 311.213 205.28 312.707C206.16 314.2 207.36 315.373 208.88 316.227C210.427 317.08 212.173 317.507 214.12 317.507C216.307 317.507 218.227 317.027 219.88 316.067V307.347ZM251.258 311.107C251.258 311.453 251.232 311.947 251.178 312.587H234.418C234.712 314.16 235.472 315.413 236.698 316.347C237.952 317.253 239.498 317.707 241.338 317.707C243.685 317.707 245.618 316.933 247.138 315.387L249.818 318.467C248.858 319.613 247.645 320.48 246.178 321.067C244.712 321.653 243.058 321.947 241.218 321.947C238.872 321.947 236.805 321.48 235.018 320.547C233.232 319.613 231.845 318.32 230.858 316.667C229.898 314.987 229.418 313.093 229.418 310.987C229.418 308.907 229.885 307.04 230.818 305.387C231.778 303.707 233.098 302.4 234.778 301.467C236.458 300.533 238.352 300.067 240.458 300.067C242.538 300.067 244.392 300.533 246.018 301.467C247.672 302.373 248.952 303.667 249.858 305.347C250.792 307 251.258 308.92 251.258 311.107ZM240.458 304.067C238.858 304.067 237.498 304.547 236.378 305.507C235.285 306.44 234.618 307.693 234.378 309.267H246.498C246.285 307.72 245.632 306.467 244.538 305.507C243.445 304.547 242.085 304.067 240.458 304.067ZM268.181 300.067C270.875 300.067 273.035 300.853 274.661 302.427C276.288 304 277.101 306.333 277.101 309.427V321.667H272.101V310.067C272.101 308.2 271.661 306.8 270.781 305.867C269.901 304.907 268.648 304.427 267.021 304.427C265.181 304.427 263.728 304.987 262.661 306.107C261.595 307.2 261.061 308.787 261.061 310.867V321.667H256.061V300.307H260.821V303.067C261.648 302.08 262.688 301.333 263.941 300.827C265.195 300.32 266.608 300.067 268.181 300.067ZM303.719 311.107C303.719 311.453 303.693 311.947 303.639 312.587H286.879C287.173 314.16 287.933 315.413 289.159 316.347C290.413 317.253 291.959 317.707 293.799 317.707C296.146 317.707 298.079 316.933 299.599 315.387L302.279 318.467C301.319 319.613 300.106 320.48 298.639 321.067C297.173 321.653 295.519 321.947 293.679 321.947C291.333 321.947 289.266 321.48 287.479 320.547C285.693 319.613 284.306 318.32 283.319 316.667C282.359 314.987 281.879 313.093 281.879 310.987C281.879 308.907 282.346 307.04 283.279 305.387C284.239 303.707 285.559 302.4 287.239 301.467C288.919 300.533 290.813 300.067 292.919 300.067C294.999 300.067 296.853 300.533 298.479 301.467C300.133 302.373 301.413 303.667 302.319 305.347C303.253 307 303.719 308.92 303.719 311.107ZM292.919 304.067C291.319 304.067 289.959 304.547 288.839 305.507C287.746 306.44 287.079 307.693 286.839 309.267H298.959C298.746 307.72 298.093 306.467 296.999 305.507C295.906 304.547 294.546 304.067 292.919 304.067ZM313.282 303.427C314.722 301.187 317.256 300.067 320.882 300.067V304.827C320.456 304.747 320.069 304.707 319.722 304.707C317.776 304.707 316.256 305.28 315.162 306.427C314.069 307.547 313.522 309.173 313.522 311.307V321.667H308.522V300.307H313.282V303.427ZM333.167 300.067C336.313 300.067 338.713 300.827 340.367 302.347C342.047 303.84 342.887 306.107 342.887 309.147V321.667H338.167V319.067C337.553 320 336.673 320.72 335.527 321.227C334.407 321.707 333.047 321.947 331.447 321.947C329.847 321.947 328.447 321.68 327.247 321.147C326.047 320.587 325.113 319.827 324.447 318.867C323.807 317.88 323.487 316.773 323.487 315.547C323.487 313.627 324.193 312.093 325.607 310.947C327.047 309.773 329.3 309.187 332.367 309.187H337.887V308.867C337.887 307.373 337.433 306.227 336.527 305.427C335.647 304.627 334.327 304.227 332.567 304.227C331.367 304.227 330.18 304.413 329.007 304.787C327.86 305.16 326.887 305.68 326.087 306.347L324.127 302.707C325.247 301.853 326.593 301.2 328.167 300.747C329.74 300.293 331.407 300.067 333.167 300.067ZM332.487 318.307C333.74 318.307 334.847 318.027 335.807 317.467C336.793 316.88 337.487 316.053 337.887 314.987V312.507H332.727C329.847 312.507 328.407 313.453 328.407 315.347C328.407 316.253 328.767 316.973 329.487 317.507C330.207 318.04 331.207 318.307 332.487 318.307ZM349.303 291.987H354.303V321.667H349.303V291.987ZM376.881 329.427C375.307 327 374.094 324.187 373.241 320.987C372.414 317.787 372.001 314.36 372.001 310.707C372.001 307.053 372.414 303.627 373.241 300.427C374.094 297.2 375.307 294.387 376.881 291.987H381.641C380.014 294.867 378.814 297.84 378.041 300.907C377.294 303.947 376.921 307.213 376.921 310.707C376.921 314.2 377.294 317.48 378.041 320.547C378.814 323.587 380.014 326.547 381.641 329.427H376.881ZM394.338 293.667V321.667H389.138V298.027H383.218V293.667H394.338ZM412.613 304.387C414.453 304.387 416.106 304.747 417.573 305.467C419.039 306.16 420.186 307.16 421.013 308.467C421.839 309.773 422.253 311.28 422.253 312.987C422.253 314.8 421.799 316.4 420.893 317.787C419.986 319.147 418.759 320.2 417.213 320.947C415.666 321.693 413.933 322.067 412.013 322.067C408.173 322.067 405.186 320.867 403.053 318.467C400.946 316.067 399.893 312.627 399.893 308.147C399.893 305 400.466 302.32 401.613 300.107C402.759 297.867 404.359 296.173 406.413 295.027C408.493 293.853 410.893 293.267 413.613 293.267C415.053 293.267 416.399 293.427 417.653 293.747C418.933 294.04 420.039 294.48 420.973 295.067L419.053 298.987C417.666 298.08 415.893 297.627 413.733 297.627C411.039 297.627 408.933 298.453 407.413 300.107C405.893 301.76 405.133 304.147 405.133 307.267V307.307C405.959 306.347 407.013 305.627 408.293 305.147C409.573 304.64 411.013 304.387 412.613 304.387ZM411.733 317.987C413.359 317.987 414.679 317.56 415.693 316.707C416.706 315.827 417.213 314.667 417.213 313.227C417.213 311.76 416.706 310.6 415.693 309.747C414.679 308.893 413.319 308.467 411.613 308.467C409.933 308.467 408.559 308.92 407.493 309.827C406.453 310.733 405.933 311.88 405.933 313.267C405.933 314.627 406.439 315.76 407.453 316.667C408.493 317.547 409.919 317.987 411.733 317.987ZM446.706 322.067C444.546 322.067 442.452 321.76 440.426 321.147C438.426 320.533 436.839 319.72 435.666 318.707L437.466 314.667C438.612 315.573 440.012 316.32 441.666 316.907C443.346 317.467 445.026 317.747 446.706 317.747C448.786 317.747 450.332 317.413 451.346 316.747C452.386 316.08 452.906 315.2 452.906 314.107C452.906 313.307 452.612 312.653 452.026 312.147C451.466 311.613 450.746 311.2 449.866 310.907C448.986 310.613 447.786 310.28 446.266 309.907C444.132 309.4 442.399 308.893 441.066 308.387C439.759 307.88 438.626 307.093 437.666 306.027C436.732 304.933 436.266 303.467 436.266 301.627C436.266 300.08 436.679 298.68 437.506 297.427C438.359 296.147 439.626 295.133 441.306 294.387C443.012 293.64 445.092 293.267 447.546 293.267C449.252 293.267 450.932 293.48 452.586 293.907C454.239 294.333 455.666 294.947 456.866 295.747L455.226 299.787C453.999 299.067 452.719 298.52 451.386 298.147C450.052 297.773 448.759 297.587 447.506 297.587C445.452 297.587 443.919 297.933 442.906 298.627C441.919 299.32 441.426 300.24 441.426 301.387C441.426 302.187 441.706 302.84 442.266 303.347C442.852 303.853 443.586 304.253 444.466 304.547C445.346 304.84 446.546 305.173 448.066 305.547C450.146 306.027 451.852 306.533 453.186 307.067C454.519 307.573 455.652 308.36 456.586 309.427C457.546 310.493 458.026 311.933 458.026 313.747C458.026 315.293 457.599 316.693 456.746 317.947C455.919 319.2 454.652 320.2 452.946 320.947C451.239 321.693 449.159 322.067 446.706 322.067ZM482.782 311.107C482.782 311.453 482.755 311.947 482.702 312.587H465.942C466.235 314.16 466.995 315.413 468.222 316.347C469.475 317.253 471.022 317.707 472.862 317.707C475.209 317.707 477.142 316.933 478.662 315.387L481.342 318.467C480.382 319.613 479.169 320.48 477.702 321.067C476.235 321.653 474.582 321.947 472.742 321.947C470.395 321.947 468.329 321.48 466.542 320.547C464.755 319.613 463.369 318.32 462.382 316.667C461.422 314.987 460.942 313.093 460.942 310.987C460.942 308.907 461.409 307.04 462.342 305.387C463.302 303.707 464.622 302.4 466.302 301.467C467.982 300.533 469.875 300.067 471.982 300.067C474.062 300.067 475.915 300.533 477.542 301.467C479.195 302.373 480.475 303.667 481.382 305.347C482.315 307 482.782 308.92 482.782 311.107ZM471.982 304.067C470.382 304.067 469.022 304.547 467.902 305.507C466.809 306.44 466.142 307.693 465.902 309.267H478.022C477.809 307.72 477.155 306.467 476.062 305.507C474.969 304.547 473.609 304.067 471.982 304.067ZM499.425 300.067C501.505 300.067 503.358 300.52 504.985 301.427C506.638 302.333 507.931 303.613 508.865 305.267C509.798 306.92 510.265 308.827 510.265 310.987C510.265 313.147 509.798 315.067 508.865 316.747C507.931 318.4 506.638 319.68 504.985 320.587C503.358 321.493 501.505 321.947 499.425 321.947C496.545 321.947 494.265 320.987 492.585 319.067V329.427H487.585V300.307H492.345V303.107C493.171 302.093 494.185 301.333 495.385 300.827C496.611 300.32 497.958 300.067 499.425 300.067ZM498.865 317.667C500.705 317.667 502.211 317.053 503.385 315.827C504.585 314.6 505.185 312.987 505.185 310.987C505.185 308.987 504.585 307.373 503.385 306.147C502.211 304.92 500.705 304.307 498.865 304.307C497.665 304.307 496.585 304.587 495.625 305.147C494.665 305.68 493.905 306.453 493.345 307.467C492.785 308.48 492.505 309.653 492.505 310.987C492.505 312.32 492.785 313.493 493.345 314.507C493.905 315.52 494.665 316.307 495.625 316.867C496.585 317.4 497.665 317.667 498.865 317.667ZM527.847 320.507C527.26 320.987 526.54 321.347 525.687 321.587C524.86 321.827 523.98 321.947 523.047 321.947C520.7 321.947 518.887 321.333 517.607 320.107C516.327 318.88 515.687 317.093 515.687 314.747V304.467H512.167V300.467H515.687V295.587H520.687V300.467H526.407V304.467H520.687V314.627C520.687 315.667 520.94 316.467 521.447 317.027C521.953 317.56 522.687 317.827 523.647 317.827C524.767 317.827 525.7 317.533 526.447 316.947L527.847 320.507ZM551.337 311.107C551.337 311.453 551.31 311.947 551.257 312.587H534.497C534.79 314.16 535.55 315.413 536.777 316.347C538.03 317.253 539.577 317.707 541.417 317.707C543.763 317.707 545.697 316.933 547.217 315.387L549.897 318.467C548.937 319.613 547.723 320.48 546.257 321.067C544.79 321.653 543.137 321.947 541.297 321.947C538.95 321.947 536.883 321.48 535.097 320.547C533.31 319.613 531.923 318.32 530.937 316.667C529.977 314.987 529.497 313.093 529.497 310.987C529.497 308.907 529.963 307.04 530.897 305.387C531.857 303.707 533.177 302.4 534.857 301.467C536.537 300.533 538.43 300.067 540.537 300.067C542.617 300.067 544.47 300.533 546.097 301.467C547.75 302.373 549.03 303.667 549.937 305.347C550.87 307 551.337 308.92 551.337 311.107ZM540.537 304.067C538.937 304.067 537.577 304.547 536.457 305.507C535.363 306.44 534.697 307.693 534.457 309.267H546.577C546.363 307.72 545.71 306.467 544.617 305.507C543.523 304.547 542.163 304.067 540.537 304.067ZM583.099 300.067C585.793 300.067 587.926 300.853 589.499 302.427C591.073 303.973 591.859 306.307 591.859 309.427V321.667H586.859V310.067C586.859 308.2 586.446 306.8 585.619 305.867C584.793 304.907 583.606 304.427 582.059 304.427C580.379 304.427 579.033 304.987 578.019 306.107C577.006 307.2 576.499 308.773 576.499 310.827V321.667H571.499V310.067C571.499 308.2 571.086 306.8 570.259 305.867C569.433 304.907 568.246 304.427 566.699 304.427C564.993 304.427 563.633 304.973 562.619 306.067C561.633 307.16 561.139 308.747 561.139 310.827V321.667H556.139V300.307H560.899V303.027C561.699 302.067 562.699 301.333 563.899 300.827C565.099 300.32 566.433 300.067 567.899 300.067C569.499 300.067 570.913 300.373 572.139 300.987C573.393 301.573 574.379 302.453 575.099 303.627C575.979 302.507 577.113 301.64 578.499 301.027C579.886 300.387 581.419 300.067 583.099 300.067ZM610.089 300.067C612.169 300.067 614.022 300.52 615.649 301.427C617.302 302.333 618.595 303.613 619.529 305.267C620.462 306.92 620.929 308.827 620.929 310.987C620.929 313.147 620.462 315.067 619.529 316.747C618.595 318.4 617.302 319.68 615.649 320.587C614.022 321.493 612.169 321.947 610.089 321.947C608.622 321.947 607.275 321.693 606.049 321.187C604.849 320.68 603.835 319.92 603.009 318.907V321.667H598.249V291.987H603.249V302.907C604.102 301.973 605.102 301.267 606.249 300.787C607.422 300.307 608.702 300.067 610.089 300.067ZM609.529 317.667C611.369 317.667 612.875 317.053 614.049 315.827C615.249 314.6 615.849 312.987 615.849 310.987C615.849 308.987 615.249 307.373 614.049 306.147C612.875 304.92 611.369 304.307 609.529 304.307C608.329 304.307 607.249 304.587 606.289 305.147C605.329 305.68 604.569 306.453 604.009 307.467C603.449 308.48 603.169 309.653 603.169 310.987C603.169 312.32 603.449 313.493 604.009 314.507C604.569 315.52 605.329 316.307 606.289 316.867C607.249 317.4 608.329 317.667 609.529 317.667ZM645.751 311.107C645.751 311.453 645.724 311.947 645.671 312.587H628.911C629.204 314.16 629.964 315.413 631.191 316.347C632.444 317.253 633.991 317.707 635.831 317.707C638.177 317.707 640.111 316.933 641.631 315.387L644.311 318.467C643.351 319.613 642.137 320.48 640.671 321.067C639.204 321.653 637.551 321.947 635.711 321.947C633.364 321.947 631.297 321.48 629.511 320.547C627.724 319.613 626.337 318.32 625.351 316.667C624.391 314.987 623.911 313.093 623.911 310.987C623.911 308.907 624.377 307.04 625.311 305.387C626.271 303.707 627.591 302.4 629.271 301.467C630.951 300.533 632.844 300.067 634.951 300.067C637.031 300.067 638.884 300.533 640.511 301.467C642.164 302.373 643.444 303.667 644.351 305.347C645.284 307 645.751 308.92 645.751 311.107ZM634.951 304.067C633.351 304.067 631.991 304.547 630.871 305.507C629.777 306.44 629.111 307.693 628.871 309.267H640.991C640.777 307.72 640.124 306.467 639.031 305.507C637.937 304.547 636.577 304.067 634.951 304.067ZM655.313 303.427C656.753 301.187 659.287 300.067 662.913 300.067V304.827C662.487 304.747 662.1 304.707 661.753 304.707C659.807 304.707 658.287 305.28 657.193 306.427C656.1 307.547 655.553 309.173 655.553 311.307V321.667H650.553V300.307H655.313V303.427ZM697.165 317.267V321.667H676.525V318.187L687.645 307.627C688.898 306.427 689.738 305.387 690.165 304.507C690.618 303.6 690.845 302.707 690.845 301.827C690.845 300.52 690.405 299.52 689.525 298.827C688.645 298.133 687.352 297.787 685.645 297.787C682.792 297.787 680.605 298.76 679.085 300.707L675.445 297.907C676.538 296.44 678.005 295.307 679.845 294.507C681.712 293.68 683.792 293.267 686.085 293.267C689.125 293.267 691.552 293.987 693.365 295.427C695.178 296.867 696.085 298.827 696.085 301.307C696.085 302.827 695.765 304.253 695.125 305.587C694.485 306.92 693.258 308.44 691.445 310.147L683.965 317.267H697.165ZM711.729 322.067C709.489 322.067 707.489 321.507 705.729 320.387C703.969 319.24 702.582 317.587 701.569 315.427C700.556 313.24 700.049 310.653 700.049 307.667C700.049 304.68 700.556 302.107 701.569 299.947C702.582 297.76 703.969 296.107 705.729 294.987C707.489 293.84 709.489 293.267 711.729 293.267C713.969 293.267 715.969 293.84 717.729 294.987C719.516 296.107 720.916 297.76 721.929 299.947C722.942 302.107 723.449 304.68 723.449 307.667C723.449 310.653 722.942 313.24 721.929 315.427C720.916 317.587 719.516 319.24 717.729 320.387C715.969 321.507 713.969 322.067 711.729 322.067ZM711.729 317.547C713.729 317.547 715.302 316.72 716.449 315.067C717.622 313.413 718.209 310.947 718.209 307.667C718.209 304.387 717.622 301.92 716.449 300.267C715.302 298.613 713.729 297.787 711.729 297.787C709.756 297.787 708.182 298.613 707.009 300.267C705.862 301.92 705.289 304.387 705.289 307.667C705.289 310.947 705.862 313.413 707.009 315.067C708.182 316.72 709.756 317.547 711.729 317.547ZM747.048 317.267V321.667H726.408V318.187L737.528 307.627C738.781 306.427 739.621 305.387 740.048 304.507C740.501 303.6 740.728 302.707 740.728 301.827C740.728 300.52 740.288 299.52 739.408 298.827C738.528 298.133 737.234 297.787 735.528 297.787C732.674 297.787 730.488 298.76 728.968 300.707L725.328 297.907C726.421 296.44 727.888 295.307 729.728 294.507C731.594 293.68 733.674 293.267 735.968 293.267C739.008 293.267 741.434 293.987 743.248 295.427C745.061 296.867 745.968 298.827 745.968 301.307C745.968 302.827 745.648 304.253 745.008 305.587C744.368 306.92 743.141 308.44 741.328 310.147L733.848 317.267H747.048ZM759.729 293.667V321.667H754.529V298.027H748.609V293.667H759.729ZM789.978 300.067C792.671 300.067 794.831 300.853 796.458 302.427C798.085 304 798.898 306.333 798.898 309.427V321.667H793.898V310.067C793.898 308.2 793.458 306.8 792.578 305.867C791.698 304.907 790.445 304.427 788.818 304.427C786.978 304.427 785.525 304.987 784.458 306.107C783.391 307.2 782.858 308.787 782.858 310.867V321.667H777.858V291.987H782.858V302.787C783.685 301.907 784.698 301.24 785.898 300.787C787.125 300.307 788.485 300.067 789.978 300.067ZM805.241 300.307H810.241V321.667H805.241V300.307ZM807.761 296.787C806.854 296.787 806.094 296.507 805.481 295.947C804.868 295.36 804.561 294.64 804.561 293.787C804.561 292.933 804.868 292.227 805.481 291.667C806.094 291.08 806.854 290.787 807.761 290.787C808.668 290.787 809.428 291.067 810.041 291.627C810.654 292.16 810.961 292.84 810.961 293.667C810.961 294.547 810.654 295.293 810.041 295.907C809.454 296.493 808.694 296.787 807.761 296.787ZM828.923 300.067C831.617 300.067 833.777 300.853 835.403 302.427C837.03 304 837.843 306.333 837.843 309.427V321.667H832.843V310.067C832.843 308.2 832.403 306.8 831.523 305.867C830.643 304.907 829.39 304.427 827.763 304.427C825.923 304.427 824.47 304.987 823.403 306.107C822.337 307.2 821.803 308.787 821.803 310.867V321.667H816.803V300.307H821.563V303.067C822.39 302.08 823.43 301.333 824.683 300.827C825.937 300.32 827.35 300.067 828.923 300.067ZM865.582 300.307V318.427C865.582 325.947 861.742 329.707 854.062 329.707C852.008 329.707 850.062 329.44 848.222 328.907C846.382 328.4 844.862 327.653 843.662 326.667L845.902 322.907C846.835 323.68 848.008 324.293 849.422 324.747C850.862 325.227 852.315 325.467 853.782 325.467C856.128 325.467 857.848 324.933 858.942 323.867C860.035 322.8 860.582 321.173 860.582 318.987V317.867C859.728 318.8 858.688 319.507 857.462 319.987C856.235 320.467 854.888 320.707 853.422 320.707C851.395 320.707 849.555 320.28 847.902 319.427C846.275 318.547 844.982 317.32 844.022 315.747C843.088 314.173 842.622 312.373 842.622 310.347C842.622 308.32 843.088 306.533 844.022 304.987C844.982 303.413 846.275 302.2 847.902 301.347C849.555 300.493 851.395 300.067 853.422 300.067C854.968 300.067 856.368 300.32 857.622 300.827C858.902 301.333 859.968 302.107 860.822 303.147V300.307H865.582ZM854.182 316.467C856.075 316.467 857.622 315.907 858.822 314.787C860.048 313.64 860.662 312.16 860.662 310.347C860.662 308.56 860.048 307.107 858.822 305.987C857.622 304.867 856.075 304.307 854.182 304.307C852.262 304.307 850.688 304.867 849.462 305.987C848.262 307.107 847.662 308.56 847.662 310.347C847.662 312.16 848.262 313.64 849.462 314.787C850.688 315.907 852.262 316.467 854.182 316.467ZM893.355 300.307V318.427C893.355 325.947 889.515 329.707 881.835 329.707C879.782 329.707 877.835 329.44 875.995 328.907C874.155 328.4 872.635 327.653 871.435 326.667L873.675 322.907C874.608 323.68 875.782 324.293 877.195 324.747C878.635 325.227 880.088 325.467 881.555 325.467C883.902 325.467 885.622 324.933 886.715 323.867C887.808 322.8 888.355 321.173 888.355 318.987V317.867C887.502 318.8 886.462 319.507 885.235 319.987C884.008 320.467 882.662 320.707 881.195 320.707C879.168 320.707 877.328 320.28 875.675 319.427C874.048 318.547 872.755 317.32 871.795 315.747C870.862 314.173 870.395 312.373 870.395 310.347C870.395 308.32 870.862 306.533 871.795 304.987C872.755 303.413 874.048 302.2 875.675 301.347C877.328 300.493 879.168 300.067 881.195 300.067C882.742 300.067 884.142 300.32 885.395 300.827C886.675 301.333 887.742 302.107 888.595 303.147V300.307H893.355ZM881.955 316.467C883.848 316.467 885.395 315.907 886.595 314.787C887.822 313.64 888.435 312.16 888.435 310.347C888.435 308.56 887.822 307.107 886.595 305.987C885.395 304.867 883.848 304.307 881.955 304.307C880.035 304.307 878.462 304.867 877.235 305.987C876.035 307.107 875.435 308.56 875.435 310.347C875.435 312.16 876.035 313.64 877.235 314.787C878.462 315.907 880.035 316.467 881.955 316.467ZM908.088 300.067C911.235 300.067 913.635 300.827 915.288 302.347C916.968 303.84 917.808 306.107 917.808 309.147V321.667H913.088V319.067C912.475 320 911.595 320.72 910.448 321.227C909.328 321.707 907.968 321.947 906.368 321.947C904.768 321.947 903.368 321.68 902.168 321.147C900.968 320.587 900.035 319.827 899.368 318.867C898.728 317.88 898.408 316.773 898.408 315.547C898.408 313.627 899.115 312.093 900.528 310.947C901.968 309.773 904.222 309.187 907.288 309.187H912.808V308.867C912.808 307.373 912.355 306.227 911.448 305.427C910.568 304.627 909.248 304.227 907.488 304.227C906.288 304.227 905.102 304.413 903.928 304.787C902.782 305.16 901.808 305.68 901.008 306.347L899.048 302.707C900.168 301.853 901.515 301.2 903.088 300.747C904.662 300.293 906.328 300.067 908.088 300.067ZM907.408 318.307C908.662 318.307 909.768 318.027 910.728 317.467C911.715 316.88 912.408 316.053 912.808 314.987V312.507H907.648C904.768 312.507 903.328 313.453 903.328 315.347C903.328 316.253 903.688 316.973 904.408 317.507C905.128 318.04 906.128 318.307 907.408 318.307ZM945.68 305.227C948.267 305.547 950.24 306.427 951.6 307.867C952.96 309.307 953.64 311.107 953.64 313.267C953.64 314.893 953.227 316.373 952.4 317.707C951.573 319.04 950.32 320.107 948.64 320.907C946.987 321.68 944.96 322.067 942.56 322.067C940.56 322.067 938.627 321.787 936.76 321.227C934.92 320.64 933.347 319.84 932.04 318.827L934.28 314.787C935.293 315.64 936.52 316.32 937.96 316.827C939.427 317.307 940.933 317.547 942.48 317.547C944.32 317.547 945.76 317.173 946.8 316.427C947.867 315.653 948.4 314.613 948.4 313.307C948.4 312 947.893 310.987 946.88 310.267C945.893 309.52 944.373 309.147 942.32 309.147H939.76V305.587L946.12 298.027H933.4V293.667H952.48V297.147L945.68 305.227ZM213.84 371.067C210.987 371.067 208.413 370.453 206.12 369.227C203.827 367.973 202.027 366.253 200.72 364.067C199.413 361.853 198.76 359.387 198.76 356.667C198.76 353.947 199.413 351.493 200.72 349.307C202.027 347.093 203.827 345.373 206.12 344.147C208.413 342.893 210.987 342.267 213.84 342.267C216.693 342.267 219.267 342.893 221.56 344.147C223.853 345.373 225.653 347.08 226.96 349.267C228.267 351.453 228.92 353.92 228.92 356.667C228.92 359.413 228.267 361.88 226.96 364.067C225.653 366.253 223.853 367.973 221.56 369.227C219.267 370.453 216.693 371.067 213.84 371.067ZM213.84 366.507C215.707 366.507 217.387 366.093 218.88 365.267C220.373 364.413 221.547 363.24 222.4 361.747C223.253 360.227 223.68 358.533 223.68 356.667C223.68 354.8 223.253 353.12 222.4 351.627C221.547 350.107 220.373 348.933 218.88 348.107C217.387 347.253 215.707 346.827 213.84 346.827C211.973 346.827 210.293 347.253 208.8 348.107C207.307 348.933 206.133 350.107 205.28 351.627C204.427 353.12 204 354.8 204 356.667C204 358.533 204.427 360.227 205.28 361.747C206.133 363.24 207.307 364.413 208.8 365.267C210.293 366.093 211.973 366.507 213.84 366.507ZM242.672 361.507L238.952 365.027V370.667H233.952V340.987H238.952V358.907L249.312 349.307H255.312L246.392 358.267L256.152 370.667H250.072L242.672 361.507ZM272.222 369.507C271.635 369.987 270.915 370.347 270.062 370.587C269.235 370.827 268.355 370.947 267.422 370.947C265.075 370.947 263.262 370.333 261.982 369.107C260.702 367.88 260.062 366.093 260.062 363.747V353.467H256.542V349.467H260.062V344.587H265.062V349.467H270.782V353.467H265.062V363.627C265.062 364.667 265.315 365.467 265.822 366.027C266.328 366.56 267.062 366.827 268.022 366.827C269.142 366.827 270.075 366.533 270.822 365.947L272.222 369.507ZM285.232 370.947C283.072 370.947 281.125 370.48 279.392 369.547C277.658 368.613 276.298 367.32 275.312 365.667C274.352 363.987 273.872 362.093 273.872 359.987C273.872 357.88 274.352 356 275.312 354.347C276.298 352.693 277.658 351.4 279.392 350.467C281.125 349.533 283.072 349.067 285.232 349.067C287.418 349.067 289.378 349.533 291.112 350.467C292.845 351.4 294.192 352.693 295.152 354.347C296.138 356 296.632 357.88 296.632 359.987C296.632 362.093 296.138 363.987 295.152 365.667C294.192 367.32 292.845 368.613 291.112 369.547C289.378 370.48 287.418 370.947 285.232 370.947ZM285.232 366.667C287.072 366.667 288.592 366.053 289.792 364.827C290.992 363.6 291.592 361.987 291.592 359.987C291.592 357.987 290.992 356.373 289.792 355.147C288.592 353.92 287.072 353.307 285.232 353.307C283.392 353.307 281.872 353.92 280.672 355.147C279.498 356.373 278.912 357.987 278.912 359.987C278.912 361.987 279.498 363.6 280.672 364.827C281.872 366.053 283.392 366.667 285.232 366.667ZM313.253 349.067C315.333 349.067 317.186 349.52 318.813 350.427C320.466 351.333 321.759 352.613 322.693 354.267C323.626 355.92 324.093 357.827 324.093 359.987C324.093 362.147 323.626 364.067 322.693 365.747C321.759 367.4 320.466 368.68 318.813 369.587C317.186 370.493 315.333 370.947 313.253 370.947C311.786 370.947 310.439 370.693 309.213 370.187C308.013 369.68 306.999 368.92 306.173 367.907V370.667H301.413V340.987H306.413V351.907C307.266 350.973 308.266 350.267 309.413 349.787C310.586 349.307 311.866 349.067 313.253 349.067ZM312.693 366.667C314.533 366.667 316.039 366.053 317.213 364.827C318.413 363.6 319.013 361.987 319.013 359.987C319.013 357.987 318.413 356.373 317.213 355.147C316.039 353.92 314.533 353.307 312.693 353.307C311.493 353.307 310.413 353.587 309.453 354.147C308.493 354.68 307.733 355.453 307.173 356.467C306.613 357.48 306.333 358.653 306.333 359.987C306.333 361.32 306.613 362.493 307.173 363.507C307.733 364.52 308.493 365.307 309.453 365.867C310.413 366.4 311.493 366.667 312.693 366.667ZM348.915 360.107C348.915 360.453 348.888 360.947 348.835 361.587H332.075C332.368 363.16 333.128 364.413 334.355 365.347C335.608 366.253 337.155 366.707 338.995 366.707C341.341 366.707 343.275 365.933 344.795 364.387L347.475 367.467C346.515 368.613 345.301 369.48 343.835 370.067C342.368 370.653 340.715 370.947 338.875 370.947C336.528 370.947 334.461 370.48 332.675 369.547C330.888 368.613 329.501 367.32 328.515 365.667C327.555 363.987 327.075 362.093 327.075 359.987C327.075 357.907 327.541 356.04 328.475 354.387C329.435 352.707 330.755 351.4 332.435 350.467C334.115 349.533 336.008 349.067 338.115 349.067C340.195 349.067 342.048 349.533 343.675 350.467C345.328 351.373 346.608 352.667 347.515 354.347C348.448 356 348.915 357.92 348.915 360.107ZM338.115 353.067C336.515 353.067 335.155 353.547 334.035 354.507C332.941 355.44 332.275 356.693 332.035 358.267H344.155C343.941 356.72 343.288 355.467 342.195 354.507C341.101 353.547 339.741 353.067 338.115 353.067ZM358.478 352.427C359.918 350.187 362.451 349.067 366.078 349.067V353.827C365.651 353.747 365.264 353.707 364.918 353.707C362.971 353.707 361.451 354.28 360.358 355.427C359.264 356.547 358.718 358.173 358.718 360.307V370.667H353.718V349.307H358.478V352.427ZM400.329 366.267V370.667H379.689V367.187L390.809 356.627C392.062 355.427 392.902 354.387 393.329 353.507C393.782 352.6 394.009 351.707 394.009 350.827C394.009 349.52 393.569 348.52 392.689 347.827C391.809 347.133 390.516 346.787 388.809 346.787C385.956 346.787 383.769 347.76 382.249 349.707L378.609 346.907C379.702 345.44 381.169 344.307 383.009 343.507C384.876 342.68 386.956 342.267 389.249 342.267C392.289 342.267 394.716 342.987 396.529 344.427C398.342 345.867 399.249 347.827 399.249 350.307C399.249 351.827 398.929 353.253 398.289 354.587C397.649 355.92 396.422 357.44 394.609 359.147L387.129 366.267H400.329ZM414.893 371.067C412.653 371.067 410.653 370.507 408.893 369.387C407.133 368.24 405.746 366.587 404.733 364.427C403.72 362.24 403.213 359.653 403.213 356.667C403.213 353.68 403.72 351.107 404.733 348.947C405.746 346.76 407.133 345.107 408.893 343.987C410.653 342.84 412.653 342.267 414.893 342.267C417.133 342.267 419.133 342.84 420.893 343.987C422.68 345.107 424.08 346.76 425.093 348.947C426.106 351.107 426.613 353.68 426.613 356.667C426.613 359.653 426.106 362.24 425.093 364.427C424.08 366.587 422.68 368.24 420.893 369.387C419.133 370.507 417.133 371.067 414.893 371.067ZM414.893 366.547C416.893 366.547 418.466 365.72 419.613 364.067C420.786 362.413 421.373 359.947 421.373 356.667C421.373 353.387 420.786 350.92 419.613 349.267C418.466 347.613 416.893 346.787 414.893 346.787C412.92 346.787 411.346 347.613 410.173 349.267C409.026 350.92 408.453 353.387 408.453 356.667C408.453 359.947 409.026 362.413 410.173 364.067C411.346 365.72 412.92 366.547 414.893 366.547ZM450.212 366.267V370.667H429.572V367.187L440.692 356.627C441.945 355.427 442.785 354.387 443.212 353.507C443.665 352.6 443.892 351.707 443.892 350.827C443.892 349.52 443.452 348.52 442.572 347.827C441.692 347.133 440.399 346.787 438.692 346.787C435.839 346.787 433.652 347.76 432.132 349.707L428.492 346.907C429.585 345.44 431.052 344.307 432.892 343.507C434.759 342.68 436.839 342.267 439.132 342.267C442.172 342.267 444.599 342.987 446.412 344.427C448.225 345.867 449.132 347.827 449.132 350.307C449.132 351.827 448.812 353.253 448.172 354.587C447.532 355.92 446.305 357.44 444.492 359.147L437.012 366.267H450.212ZM462.893 342.667V370.667H457.693V347.027H451.773V342.667H462.893ZM467.568 378.427C469.194 375.547 470.394 372.573 471.168 369.507C471.941 366.44 472.328 363.173 472.328 359.707C472.328 356.24 471.941 352.973 471.168 349.907C470.394 346.84 469.194 343.867 467.568 340.987H472.328C473.901 343.36 475.101 346.16 475.928 349.387C476.781 352.587 477.208 356.027 477.208 359.707C477.208 363.387 476.781 366.827 475.928 370.027C475.101 373.2 473.901 376 472.328 378.427H467.568Z" fill="#FFEFEF"/>
<path d="M311.2 425.913H322.2V430.073H311.2V425.913ZM359.045 424.553C360.592 425.059 361.819 425.913 362.725 427.113C363.632 428.286 364.085 429.753 364.085 431.513C364.085 433.939 363.152 435.819 361.285 437.153C359.419 438.459 356.699 439.113 353.125 439.113H339.205V411.113H352.325C355.632 411.113 358.179 411.766 359.965 413.073C361.752 414.353 362.645 416.126 362.645 418.393C362.645 419.779 362.325 421.006 361.685 422.073C361.045 423.139 360.165 423.966 359.045 424.553ZM344.405 415.193V422.913H351.765C353.579 422.913 354.965 422.593 355.925 421.953C356.912 421.286 357.405 420.326 357.405 419.073C357.405 417.793 356.912 416.833 355.925 416.193C354.965 415.526 353.579 415.193 351.765 415.193H344.405ZM352.805 435.033C356.832 435.033 358.845 433.686 358.845 430.993C358.845 428.299 356.832 426.953 352.805 426.953H344.405V435.033H352.805ZM369.155 417.753H374.155V439.113H369.155V417.753ZM371.675 414.233C370.768 414.233 370.008 413.953 369.395 413.393C368.782 412.806 368.475 412.086 368.475 411.233C368.475 410.379 368.782 409.673 369.395 409.113C370.008 408.526 370.768 408.233 371.675 408.233C372.582 408.233 373.342 408.513 373.955 409.073C374.568 409.606 374.875 410.286 374.875 411.113C374.875 411.993 374.568 412.739 373.955 413.353C373.368 413.939 372.608 414.233 371.675 414.233ZM392.838 417.513C395.531 417.513 397.691 418.299 399.318 419.873C400.944 421.446 401.758 423.779 401.758 426.873V439.113H396.758V427.513C396.758 425.646 396.318 424.246 395.438 423.313C394.558 422.353 393.304 421.873 391.678 421.873C389.838 421.873 388.384 422.433 387.318 423.553C386.251 424.646 385.718 426.233 385.718 428.313V439.113H380.718V417.753H385.478V420.513C386.304 419.526 387.344 418.779 388.598 418.273C389.851 417.766 391.264 417.513 392.838 417.513ZM428.78 417.753V439.113H424.02V436.393C423.22 437.353 422.22 438.099 421.02 438.633C419.82 439.139 418.527 439.393 417.14 439.393C414.287 439.393 412.034 438.606 410.38 437.033C408.754 435.433 407.94 433.073 407.94 429.953V417.753H412.94V429.273C412.94 431.193 413.367 432.633 414.22 433.593C415.1 434.526 416.34 434.993 417.94 434.993C419.727 434.993 421.14 434.446 422.18 433.353C423.247 432.233 423.78 430.633 423.78 428.553V417.753H428.78ZM441.927 439.393C440.194 439.393 438.5 439.166 436.847 438.713C435.194 438.259 433.874 437.686 432.887 436.993L434.807 433.193C435.767 433.833 436.914 434.353 438.247 434.753C439.607 435.126 440.94 435.313 442.247 435.313C445.234 435.313 446.727 434.526 446.727 432.953C446.727 432.206 446.34 431.686 445.567 431.393C444.82 431.099 443.607 430.819 441.927 430.553C440.167 430.286 438.727 429.979 437.607 429.633C436.514 429.286 435.554 428.686 434.727 427.833C433.927 426.953 433.527 425.739 433.527 424.193C433.527 422.166 434.367 420.553 436.047 419.353C437.754 418.126 440.047 417.513 442.927 417.513C444.394 417.513 445.86 417.686 447.327 418.033C448.794 418.353 449.994 418.793 450.927 419.353L449.007 423.153C447.194 422.086 445.154 421.553 442.887 421.553C441.42 421.553 440.3 421.779 439.527 422.233C438.78 422.659 438.407 423.233 438.407 423.953C438.407 424.753 438.807 425.326 439.607 425.673C440.434 425.993 441.7 426.299 443.407 426.593C445.114 426.859 446.514 427.166 447.607 427.513C448.7 427.859 449.634 428.446 450.407 429.273C451.207 430.099 451.607 431.273 451.607 432.793C451.607 434.793 450.74 436.393 449.007 437.593C447.274 438.793 444.914 439.393 441.927 439.393ZM455.913 417.753H460.913V439.113H455.913V417.753ZM458.433 414.233C457.526 414.233 456.766 413.953 456.153 413.393C455.539 412.806 455.233 412.086 455.233 411.233C455.233 410.379 455.539 409.673 456.153 409.113C456.766 408.526 457.526 408.233 458.433 408.233C459.339 408.233 460.099 408.513 460.713 409.073C461.326 409.606 461.633 410.286 461.633 411.113C461.633 411.993 461.326 412.739 460.713 413.353C460.126 413.939 459.366 414.233 458.433 414.233ZM475.635 417.513C478.782 417.513 481.182 418.273 482.835 419.793C484.515 421.286 485.355 423.553 485.355 426.593V439.113H480.635V436.513C480.022 437.446 479.142 438.166 477.995 438.673C476.875 439.153 475.515 439.393 473.915 439.393C472.315 439.393 470.915 439.126 469.715 438.593C468.515 438.033 467.582 437.273 466.915 436.313C466.275 435.326 465.955 434.219 465.955 432.993C465.955 431.073 466.662 429.539 468.075 428.393C469.515 427.219 471.769 426.633 474.835 426.633H480.355V426.313C480.355 424.819 479.902 423.673 478.995 422.873C478.115 422.073 476.795 421.673 475.035 421.673C473.835 421.673 472.649 421.859 471.475 422.233C470.329 422.606 469.355 423.126 468.555 423.793L466.595 420.153C467.715 419.299 469.062 418.646 470.635 418.193C472.209 417.739 473.875 417.513 475.635 417.513ZM474.955 435.753C476.209 435.753 477.315 435.473 478.275 434.913C479.262 434.326 479.955 433.499 480.355 432.433V429.953H475.195C472.315 429.953 470.875 430.899 470.875 432.793C470.875 433.699 471.235 434.419 471.955 434.953C472.675 435.486 473.675 435.753 474.955 435.753ZM503.892 417.513C506.586 417.513 508.746 418.299 510.372 419.873C511.999 421.446 512.812 423.779 512.812 426.873V439.113H507.812V427.513C507.812 425.646 507.372 424.246 506.492 423.313C505.612 422.353 504.359 421.873 502.732 421.873C500.892 421.873 499.439 422.433 498.372 423.553C497.306 424.646 496.772 426.233 496.772 428.313V439.113H491.772V417.753H496.532V420.513C497.359 419.526 498.399 418.779 499.652 418.273C500.906 417.766 502.319 417.513 503.892 417.513ZM520.755 424.153C519.848 424.153 519.075 423.846 518.435 423.233C517.795 422.593 517.475 421.793 517.475 420.833C517.475 419.846 517.782 419.046 518.395 418.433C519.035 417.819 519.822 417.513 520.755 417.513C521.688 417.513 522.462 417.819 523.075 418.433C523.715 419.046 524.035 419.846 524.035 420.833C524.035 421.793 523.715 422.593 523.075 423.233C522.435 423.846 521.662 424.153 520.755 424.153ZM520.755 439.393C519.848 439.393 519.075 439.086 518.435 438.473C517.795 437.833 517.475 437.033 517.475 436.073C517.475 435.086 517.782 434.286 518.395 433.673C519.035 433.059 519.822 432.753 520.755 432.753C521.688 432.753 522.462 433.059 523.075 433.673C523.715 434.286 524.035 435.086 524.035 436.073C524.035 437.033 523.715 437.833 523.075 438.473C522.435 439.086 521.662 439.393 520.755 439.393ZM558.775 439.113L553.055 430.913C552.815 430.939 552.455 430.953 551.975 430.953H545.655V439.113H540.455V411.113H551.975C554.402 411.113 556.509 411.513 558.295 412.313C560.109 413.113 561.495 414.259 562.455 415.753C563.415 417.246 563.895 419.019 563.895 421.073C563.895 423.179 563.375 424.993 562.335 426.513C561.322 428.033 559.855 429.166 557.935 429.913L564.375 439.113H558.775ZM558.655 421.073C558.655 419.286 558.069 417.913 556.895 416.953C555.722 415.993 554.002 415.513 551.735 415.513H545.655V426.673H551.735C554.002 426.673 555.722 426.193 556.895 425.233C558.069 424.246 558.655 422.859 558.655 421.073ZM581.073 417.513C583.153 417.513 585.006 417.966 586.633 418.873C588.286 419.779 589.58 421.059 590.513 422.713C591.446 424.366 591.913 426.273 591.913 428.433C591.913 430.593 591.446 432.513 590.513 434.193C589.58 435.846 588.286 437.126 586.633 438.033C585.006 438.939 583.153 439.393 581.073 439.393C578.193 439.393 575.913 438.433 574.233 436.513V446.873H569.233V417.753H573.993V420.553C574.82 419.539 575.833 418.779 577.033 418.273C578.26 417.766 579.606 417.513 581.073 417.513ZM580.513 435.113C582.353 435.113 583.86 434.499 585.033 433.273C586.233 432.046 586.833 430.433 586.833 428.433C586.833 426.433 586.233 424.819 585.033 423.593C583.86 422.366 582.353 421.753 580.513 421.753C579.313 421.753 578.233 422.033 577.273 422.593C576.313 423.126 575.553 423.899 574.993 424.913C574.433 425.926 574.153 427.099 574.153 428.433C574.153 429.766 574.433 430.939 574.993 431.953C575.553 432.966 576.313 433.753 577.273 434.313C578.233 434.846 579.313 435.113 580.513 435.113ZM624.35 424.393C625.816 425.059 626.936 425.966 627.71 427.113C628.51 428.233 628.91 429.553 628.91 431.073C628.91 432.779 628.43 434.273 627.47 435.553C626.536 436.833 625.203 437.819 623.47 438.513C621.736 439.179 619.723 439.513 617.43 439.513C615.136 439.513 613.123 439.179 611.39 438.513C609.683 437.819 608.363 436.833 607.43 435.553C606.496 434.273 606.03 432.779 606.03 431.073C606.03 429.553 606.416 428.233 607.19 427.113C607.963 425.966 609.07 425.059 610.51 424.393C609.39 423.779 608.523 422.979 607.91 421.993C607.323 420.979 607.03 419.819 607.03 418.513C607.03 416.939 607.456 415.566 608.31 414.393C609.19 413.219 610.416 412.313 611.99 411.673C613.563 411.033 615.376 410.713 617.43 410.713C619.51 410.713 621.336 411.033 622.91 411.673C624.483 412.313 625.71 413.219 626.59 414.393C627.47 415.566 627.91 416.939 627.91 418.513C627.91 419.819 627.603 420.966 626.99 421.953C626.376 422.939 625.496 423.753 624.35 424.393ZM617.43 414.793C615.803 414.793 614.51 415.139 613.55 415.833C612.616 416.526 612.15 417.499 612.15 418.753C612.15 419.953 612.616 420.913 613.55 421.633C614.51 422.326 615.803 422.673 617.43 422.673C619.083 422.673 620.39 422.326 621.35 421.633C622.31 420.913 622.79 419.953 622.79 418.753C622.79 417.499 622.296 416.526 621.31 415.833C620.35 415.139 619.056 414.793 617.43 414.793ZM617.43 435.433C619.35 435.433 620.87 435.033 621.99 434.233C623.11 433.433 623.67 432.326 623.67 430.913C623.67 429.526 623.11 428.433 621.99 427.633C620.87 426.833 619.35 426.433 617.43 426.433C615.51 426.433 614.003 426.833 612.91 427.633C611.816 428.433 611.27 429.526 611.27 430.913C611.27 432.326 611.816 433.433 612.91 434.233C614.003 435.033 615.51 435.433 617.43 435.433ZM643.963 439.513C641.723 439.513 639.723 438.953 637.963 437.833C636.203 436.686 634.817 435.033 633.803 432.873C632.79 430.686 632.283 428.099 632.283 425.113C632.283 422.126 632.79 419.553 633.803 417.393C634.817 415.206 636.203 413.553 637.963 412.433C639.723 411.286 641.723 410.713 643.963 410.713C646.203 410.713 648.203 411.286 649.963 412.433C651.75 413.553 653.15 415.206 654.163 417.393C655.177 419.553 655.683 422.126 655.683 425.113C655.683 428.099 655.177 430.686 654.163 432.873C653.15 435.033 651.75 436.686 649.963 437.833C648.203 438.953 646.203 439.513 643.963 439.513ZM643.963 434.993C645.963 434.993 647.537 434.166 648.683 432.513C649.857 430.859 650.443 428.393 650.443 425.113C650.443 421.833 649.857 419.366 648.683 417.713C647.537 416.059 645.963 415.233 643.963 415.233C641.99 415.233 640.417 416.059 639.243 417.713C638.097 419.366 637.523 421.833 637.523 425.113C637.523 428.393 638.097 430.859 639.243 432.513C640.417 434.166 641.99 434.993 643.963 434.993ZM661.849 439.393C660.942 439.393 660.169 439.086 659.529 438.473C658.889 437.833 658.569 437.033 658.569 436.073C658.569 435.086 658.875 434.286 659.489 433.673C660.129 433.059 660.915 432.753 661.849 432.753C662.782 432.753 663.555 433.059 664.169 433.673C664.809 434.286 665.129 435.086 665.129 436.073C665.129 437.033 664.809 437.833 664.169 438.473C663.529 439.086 662.755 439.393 661.849 439.393ZM679.706 439.513C677.466 439.513 675.466 438.953 673.706 437.833C671.946 436.686 670.559 435.033 669.546 432.873C668.532 430.686 668.026 428.099 668.026 425.113C668.026 422.126 668.532 419.553 669.546 417.393C670.559 415.206 671.946 413.553 673.706 412.433C675.466 411.286 677.466 410.713 679.706 410.713C681.946 410.713 683.946 411.286 685.706 412.433C687.492 413.553 688.892 415.206 689.906 417.393C690.919 419.553 691.426 422.126 691.426 425.113C691.426 428.099 690.919 430.686 689.906 432.873C688.892 435.033 687.492 436.686 685.706 437.833C683.946 438.953 681.946 439.513 679.706 439.513ZM679.706 434.993C681.706 434.993 683.279 434.166 684.426 432.513C685.599 430.859 686.186 428.393 686.186 425.113C686.186 421.833 685.599 419.366 684.426 417.713C683.279 416.059 681.706 415.233 679.706 415.233C677.732 415.233 676.159 416.059 674.986 417.713C673.839 419.366 673.266 421.833 673.266 425.113C673.266 428.393 673.839 430.859 674.986 432.513C676.159 434.166 677.732 434.993 679.706 434.993ZM706.62 439.513C704.38 439.513 702.38 438.953 700.62 437.833C698.86 436.686 697.473 435.033 696.46 432.873C695.446 430.686 694.94 428.099 694.94 425.113C694.94 422.126 695.446 419.553 696.46 417.393C697.473 415.206 698.86 413.553 700.62 412.433C702.38 411.286 704.38 410.713 706.62 410.713C708.86 410.713 710.86 411.286 712.62 412.433C714.406 413.553 715.806 415.206 716.82 417.393C717.833 419.553 718.34 422.126 718.34 425.113C718.34 428.099 717.833 430.686 716.82 432.873C715.806 435.033 714.406 436.686 712.62 437.833C710.86 438.953 708.86 439.513 706.62 439.513ZM706.62 434.993C708.62 434.993 710.193 434.166 711.34 432.513C712.513 430.859 713.1 428.393 713.1 425.113C713.1 421.833 712.513 419.366 711.34 417.713C710.193 416.059 708.62 415.233 706.62 415.233C704.646 415.233 703.073 416.059 701.9 417.713C700.753 419.366 700.18 421.833 700.18 425.113C700.18 428.393 700.753 430.859 701.9 432.513C703.073 434.166 704.646 434.993 706.62 434.993ZM733.534 439.513C731.294 439.513 729.294 438.953 727.534 437.833C725.774 436.686 724.387 435.033 723.374 432.873C722.36 430.686 721.854 428.099 721.854 425.113C721.854 422.126 722.36 419.553 723.374 417.393C724.387 415.206 725.774 413.553 727.534 412.433C729.294 411.286 731.294 410.713 733.534 410.713C735.774 410.713 737.774 411.286 739.534 412.433C741.32 413.553 742.72 415.206 743.734 417.393C744.747 419.553 745.254 422.126 745.254 425.113C745.254 428.099 744.747 430.686 743.734 432.873C742.72 435.033 741.32 436.686 739.534 437.833C737.774 438.953 735.774 439.513 733.534 439.513ZM733.534 434.993C735.534 434.993 737.107 434.166 738.254 432.513C739.427 430.859 740.014 428.393 740.014 425.113C740.014 421.833 739.427 419.366 738.254 417.713C737.107 416.059 735.534 415.233 733.534 415.233C731.56 415.233 729.987 416.059 728.814 417.713C727.667 419.366 727.094 421.833 727.094 425.113C727.094 428.393 727.667 430.859 728.814 432.513C729.987 434.166 731.56 434.993 733.534 434.993ZM311.2 474.913H322.2V479.073H311.2V474.913ZM364.085 460.113V488.113H359.805L344.365 469.153V488.113H339.205V460.113H343.485L358.925 479.073V460.113H364.085ZM380.708 488.393C378.548 488.393 376.601 487.926 374.868 486.993C373.135 486.059 371.775 484.766 370.788 483.113C369.828 481.433 369.348 479.539 369.348 477.433C369.348 475.326 369.828 473.446 370.788 471.793C371.775 470.139 373.135 468.846 374.868 467.913C376.601 466.979 378.548 466.513 380.708 466.513C382.895 466.513 384.855 466.979 386.588 467.913C388.321 468.846 389.668 470.139 390.628 471.793C391.615 473.446 392.108 475.326 392.108 477.433C392.108 479.539 391.615 481.433 390.628 483.113C389.668 484.766 388.321 486.059 386.588 486.993C384.855 487.926 382.895 488.393 380.708 488.393ZM380.708 484.113C382.548 484.113 384.068 483.499 385.268 482.273C386.468 481.046 387.068 479.433 387.068 477.433C387.068 475.433 386.468 473.819 385.268 472.593C384.068 471.366 382.548 470.753 380.708 470.753C378.868 470.753 377.348 471.366 376.148 472.593C374.975 473.819 374.388 475.433 374.388 477.433C374.388 479.433 374.975 481.046 376.148 482.273C377.348 483.499 378.868 484.113 380.708 484.113ZM409.009 466.513C411.703 466.513 413.863 467.299 415.489 468.873C417.116 470.446 417.929 472.779 417.929 475.873V488.113H412.929V476.513C412.929 474.646 412.489 473.246 411.609 472.313C410.729 471.353 409.476 470.873 407.849 470.873C406.009 470.873 404.556 471.433 403.489 472.553C402.423 473.646 401.889 475.233 401.889 477.313V488.113H396.889V466.753H401.649V469.513C402.476 468.526 403.516 467.779 404.769 467.273C406.023 466.766 407.436 466.513 409.009 466.513ZM423.192 474.913H434.192V479.073H423.192V474.913ZM459.983 473.553C461.529 474.059 462.756 474.913 463.663 476.113C464.569 477.286 465.023 478.753 465.023 480.513C465.023 482.939 464.089 484.819 462.223 486.153C460.356 487.459 457.636 488.113 454.063 488.113H440.143V460.113H453.263C456.569 460.113 459.116 460.766 460.903 462.073C462.689 463.353 463.583 465.126 463.583 467.393C463.583 468.779 463.263 470.006 462.623 471.073C461.983 472.139 461.103 472.966 459.983 473.553ZM445.343 464.193V471.913H452.703C454.516 471.913 455.903 471.593 456.863 470.953C457.849 470.286 458.343 469.326 458.343 468.073C458.343 466.793 457.849 465.833 456.863 465.193C455.903 464.526 454.516 464.193 452.703 464.193H445.343ZM453.743 484.033C457.769 484.033 459.783 482.686 459.783 479.993C459.783 477.299 457.769 475.953 453.743 475.953H445.343V484.033H453.743ZM470.093 466.753H475.093V488.113H470.093V466.753ZM472.613 463.233C471.706 463.233 470.946 462.953 470.333 462.393C469.719 461.806 469.413 461.086 469.413 460.233C469.413 459.379 469.719 458.673 470.333 458.113C470.946 457.526 471.706 457.233 472.613 457.233C473.519 457.233 474.279 457.513 474.893 458.073C475.506 458.606 475.813 459.286 475.813 460.113C475.813 460.993 475.506 461.739 474.893 462.353C474.306 462.939 473.546 463.233 472.613 463.233ZM493.775 466.513C496.468 466.513 498.628 467.299 500.255 468.873C501.882 470.446 502.695 472.779 502.695 475.873V488.113H497.695V476.513C497.695 474.646 497.255 473.246 496.375 472.313C495.495 471.353 494.242 470.873 492.615 470.873C490.775 470.873 489.322 471.433 488.255 472.553C487.188 473.646 486.655 475.233 486.655 477.313V488.113H481.655V466.753H486.415V469.513C487.242 468.526 488.282 467.779 489.535 467.273C490.788 466.766 492.202 466.513 493.775 466.513ZM529.718 466.753V488.113H524.958V485.393C524.158 486.353 523.158 487.099 521.958 487.633C520.758 488.139 519.464 488.393 518.078 488.393C515.224 488.393 512.971 487.606 511.318 486.033C509.691 484.433 508.878 482.073 508.878 478.953V466.753H513.878V478.273C513.878 480.193 514.304 481.633 515.158 482.593C516.038 483.526 517.278 483.993 518.878 483.993C520.664 483.993 522.078 483.446 523.118 482.353C524.184 481.233 524.718 479.633 524.718 477.553V466.753H529.718ZM542.864 488.393C541.131 488.393 539.438 488.166 537.784 487.713C536.131 487.259 534.811 486.686 533.824 485.993L535.744 482.193C536.704 482.833 537.851 483.353 539.184 483.753C540.544 484.126 541.878 484.313 543.184 484.313C546.171 484.313 547.664 483.526 547.664 481.953C547.664 481.206 547.278 480.686 546.504 480.393C545.758 480.099 544.544 479.819 542.864 479.553C541.104 479.286 539.664 478.979 538.544 478.633C537.451 478.286 536.491 477.686 535.664 476.833C534.864 475.953 534.464 474.739 534.464 473.193C534.464 471.166 535.304 469.553 536.984 468.353C538.691 467.126 540.984 466.513 543.864 466.513C545.331 466.513 546.798 466.686 548.264 467.033C549.731 467.353 550.931 467.793 551.864 468.353L549.944 472.153C548.131 471.086 546.091 470.553 543.824 470.553C542.358 470.553 541.238 470.779 540.464 471.233C539.718 471.659 539.344 472.233 539.344 472.953C539.344 473.753 539.744 474.326 540.544 474.673C541.371 474.993 542.638 475.299 544.344 475.593C546.051 475.859 547.451 476.166 548.544 476.513C549.638 476.859 550.571 477.446 551.344 478.273C552.144 479.099 552.544 480.273 552.544 481.793C552.544 483.793 551.678 485.393 549.944 486.593C548.211 487.793 545.851 488.393 542.864 488.393ZM556.85 466.753H561.85V488.113H556.85V466.753ZM559.37 463.233C558.464 463.233 557.704 462.953 557.09 462.393C556.477 461.806 556.17 461.086 556.17 460.233C556.17 459.379 556.477 458.673 557.09 458.113C557.704 457.526 558.464 457.233 559.37 457.233C560.277 457.233 561.037 457.513 561.65 458.073C562.264 458.606 562.57 459.286 562.57 460.113C562.57 460.993 562.264 461.739 561.65 462.353C561.064 462.939 560.304 463.233 559.37 463.233ZM576.573 466.513C579.719 466.513 582.119 467.273 583.773 468.793C585.453 470.286 586.293 472.553 586.293 475.593V488.113H581.573V485.513C580.959 486.446 580.079 487.166 578.933 487.673C577.813 488.153 576.453 488.393 574.853 488.393C573.253 488.393 571.853 488.126 570.653 487.593C569.453 487.033 568.519 486.273 567.853 485.313C567.213 484.326 566.893 483.219 566.893 481.993C566.893 480.073 567.599 478.539 569.013 477.393C570.453 476.219 572.706 475.633 575.773 475.633H581.293V475.313C581.293 473.819 580.839 472.673 579.933 471.873C579.053 471.073 577.733 470.673 575.973 470.673C574.773 470.673 573.586 470.859 572.413 471.233C571.266 471.606 570.293 472.126 569.493 472.793L567.533 469.153C568.653 468.299 569.999 467.646 571.573 467.193C573.146 466.739 574.813 466.513 576.573 466.513ZM575.893 484.753C577.146 484.753 578.253 484.473 579.213 483.913C580.199 483.326 580.893 482.499 581.293 481.433V478.953H576.133C573.253 478.953 571.813 479.899 571.813 481.793C571.813 482.699 572.173 483.419 572.893 483.953C573.613 484.486 574.613 484.753 575.893 484.753ZM604.83 466.513C607.523 466.513 609.683 467.299 611.31 468.873C612.936 470.446 613.75 472.779 613.75 475.873V488.113H608.75V476.513C608.75 474.646 608.31 473.246 607.43 472.313C606.55 471.353 605.296 470.873 603.67 470.873C601.83 470.873 600.376 471.433 599.31 472.553C598.243 473.646 597.71 475.233 597.71 477.313V488.113H592.71V466.753H597.47V469.513C598.296 468.526 599.336 467.779 600.59 467.273C601.843 466.766 603.256 466.513 604.83 466.513ZM621.693 473.153C620.786 473.153 620.013 472.846 619.373 472.233C618.733 471.593 618.413 470.793 618.413 469.833C618.413 468.846 618.719 468.046 619.333 467.433C619.973 466.819 620.759 466.513 621.693 466.513C622.626 466.513 623.399 466.819 624.013 467.433C624.653 468.046 624.973 468.846 624.973 469.833C624.973 470.793 624.653 471.593 624.013 472.233C623.373 472.846 622.599 473.153 621.693 473.153ZM621.693 488.393C620.786 488.393 620.013 488.086 619.373 487.473C618.733 486.833 618.413 486.033 618.413 485.073C618.413 484.086 618.719 483.286 619.333 482.673C619.973 482.059 620.759 481.753 621.693 481.753C622.626 481.753 623.399 482.059 624.013 482.673C624.653 483.286 624.973 484.086 624.973 485.073C624.973 486.033 624.653 486.833 624.013 487.473C623.373 488.086 622.599 488.393 621.693 488.393ZM659.713 488.113L653.993 479.913C653.753 479.939 653.393 479.953 652.913 479.953H646.593V488.113H641.393V460.113H652.913C655.339 460.113 657.446 460.513 659.233 461.313C661.046 462.113 662.433 463.259 663.393 464.753C664.353 466.246 664.833 468.019 664.833 470.073C664.833 472.179 664.313 473.993 663.273 475.513C662.259 477.033 660.793 478.166 658.873 478.913L665.313 488.113H659.713ZM659.593 470.073C659.593 468.286 659.006 466.913 657.833 465.953C656.659 464.993 654.939 464.513 652.673 464.513H646.593V475.673H652.673C654.939 475.673 656.659 475.193 657.833 474.233C659.006 473.246 659.593 471.859 659.593 470.073ZM682.011 466.513C684.091 466.513 685.944 466.966 687.571 467.873C689.224 468.779 690.517 470.059 691.451 471.713C692.384 473.366 692.851 475.273 692.851 477.433C692.851 479.593 692.384 481.513 691.451 483.193C690.517 484.846 689.224 486.126 687.571 487.033C685.944 487.939 684.091 488.393 682.011 488.393C679.131 488.393 676.851 487.433 675.171 485.513V495.873H670.171V466.753H674.931V469.553C675.757 468.539 676.771 467.779 677.971 467.273C679.197 466.766 680.544 466.513 682.011 466.513ZM681.451 484.113C683.291 484.113 684.797 483.499 685.971 482.273C687.171 481.046 687.771 479.433 687.771 477.433C687.771 475.433 687.171 473.819 685.971 472.593C684.797 471.366 683.291 470.753 681.451 470.753C680.251 470.753 679.171 471.033 678.211 471.593C677.251 472.126 676.491 472.899 675.931 473.913C675.371 474.926 675.091 476.099 675.091 477.433C675.091 478.766 675.371 479.939 675.931 480.953C676.491 481.966 677.251 482.753 678.211 483.313C679.171 483.846 680.251 484.113 681.451 484.113ZM716.807 460.113V488.113H711.607V464.473H705.687V460.113H716.807ZM734.042 488.513C731.802 488.513 729.802 487.953 728.042 486.833C726.282 485.686 724.895 484.033 723.882 481.873C722.868 479.686 722.362 477.099 722.362 474.113C722.362 471.126 722.868 468.553 723.882 466.393C724.895 464.206 726.282 462.553 728.042 461.433C729.802 460.286 731.802 459.713 734.042 459.713C736.282 459.713 738.282 460.286 740.042 461.433C741.828 462.553 743.228 464.206 744.242 466.393C745.255 468.553 745.762 471.126 745.762 474.113C745.762 477.099 745.255 479.686 744.242 481.873C743.228 484.033 741.828 485.686 740.042 486.833C738.282 487.953 736.282 488.513 734.042 488.513ZM734.042 483.993C736.042 483.993 737.615 483.166 738.762 481.513C739.935 479.859 740.522 477.393 740.522 474.113C740.522 470.833 739.935 468.366 738.762 466.713C737.615 465.059 736.042 464.233 734.042 464.233C732.068 464.233 730.495 465.059 729.322 466.713C728.175 468.366 727.602 470.833 727.602 474.113C727.602 477.393 728.175 479.859 729.322 481.513C730.495 483.166 732.068 483.993 734.042 483.993ZM760.956 488.513C758.716 488.513 756.716 487.953 754.956 486.833C753.196 485.686 751.809 484.033 750.796 481.873C749.782 479.686 749.276 477.099 749.276 474.113C749.276 471.126 749.782 468.553 750.796 466.393C751.809 464.206 753.196 462.553 754.956 461.433C756.716 460.286 758.716 459.713 760.956 459.713C763.196 459.713 765.196 460.286 766.956 461.433C768.742 462.553 770.142 464.206 771.156 466.393C772.169 468.553 772.676 471.126 772.676 474.113C772.676 477.099 772.169 479.686 771.156 481.873C770.142 484.033 768.742 485.686 766.956 486.833C765.196 487.953 763.196 488.513 760.956 488.513ZM760.956 483.993C762.956 483.993 764.529 483.166 765.676 481.513C766.849 479.859 767.436 477.393 767.436 474.113C767.436 470.833 766.849 468.366 765.676 466.713C764.529 465.059 762.956 464.233 760.956 464.233C758.982 464.233 757.409 465.059 756.236 466.713C755.089 468.366 754.516 470.833 754.516 474.113C754.516 477.393 755.089 479.859 756.236 481.513C757.409 483.166 758.982 483.993 760.956 483.993ZM778.841 488.393C777.934 488.393 777.161 488.086 776.521 487.473C775.881 486.833 775.561 486.033 775.561 485.073C775.561 484.086 775.868 483.286 776.481 482.673C777.121 482.059 777.908 481.753 778.841 481.753C779.774 481.753 780.548 482.059 781.161 482.673C781.801 483.286 782.121 484.086 782.121 485.073C782.121 486.033 781.801 486.833 781.161 487.473C780.521 488.086 779.748 488.393 778.841 488.393ZM796.698 488.513C794.458 488.513 792.458 487.953 790.698 486.833C788.938 485.686 787.551 484.033 786.538 481.873C785.524 479.686 785.018 477.099 785.018 474.113C785.018 471.126 785.524 468.553 786.538 466.393C787.551 464.206 788.938 462.553 790.698 461.433C792.458 460.286 794.458 459.713 796.698 459.713C798.938 459.713 800.938 460.286 802.698 461.433C804.484 462.553 805.884 464.206 806.898 466.393C807.911 468.553 808.418 471.126 808.418 474.113C808.418 477.099 807.911 479.686 806.898 481.873C805.884 484.033 804.484 485.686 802.698 486.833C800.938 487.953 798.938 488.513 796.698 488.513ZM796.698 483.993C798.698 483.993 800.271 483.166 801.418 481.513C802.591 479.859 803.178 477.393 803.178 474.113C803.178 470.833 802.591 468.366 801.418 466.713C800.271 465.059 798.698 464.233 796.698 464.233C794.724 464.233 793.151 465.059 791.978 466.713C790.831 468.366 790.258 470.833 790.258 474.113C790.258 477.393 790.831 479.859 791.978 481.513C793.151 483.166 794.724 483.993 796.698 483.993ZM823.612 488.513C821.372 488.513 819.372 487.953 817.612 486.833C815.852 485.686 814.465 484.033 813.452 481.873C812.439 479.686 811.932 477.099 811.932 474.113C811.932 471.126 812.439 468.553 813.452 466.393C814.465 464.206 815.852 462.553 817.612 461.433C819.372 460.286 821.372 459.713 823.612 459.713C825.852 459.713 827.852 460.286 829.612 461.433C831.399 462.553 832.799 464.206 833.812 466.393C834.825 468.553 835.332 471.126 835.332 474.113C835.332 477.099 834.825 479.686 833.812 481.873C832.799 484.033 831.399 485.686 829.612 486.833C827.852 487.953 825.852 488.513 823.612 488.513ZM823.612 483.993C825.612 483.993 827.185 483.166 828.332 481.513C829.505 479.859 830.092 477.393 830.092 474.113C830.092 470.833 829.505 468.366 828.332 466.713C827.185 465.059 825.612 464.233 823.612 464.233C821.639 464.233 820.065 465.059 818.892 466.713C817.745 468.366 817.172 470.833 817.172 474.113C817.172 477.393 817.745 479.859 818.892 481.513C820.065 483.166 821.639 483.993 823.612 483.993ZM850.526 488.513C848.286 488.513 846.286 487.953 844.526 486.833C842.766 485.686 841.379 484.033 840.366 481.873C839.353 479.686 838.846 477.099 838.846 474.113C838.846 471.126 839.353 468.553 840.366 466.393C841.379 464.206 842.766 462.553 844.526 461.433C846.286 460.286 848.286 459.713 850.526 459.713C852.766 459.713 854.766 460.286 856.526 461.433C858.313 462.553 859.713 464.206 860.726 466.393C861.739 468.553 862.246 471.126 862.246 474.113C862.246 477.099 861.739 479.686 860.726 481.873C859.713 484.033 858.313 485.686 856.526 486.833C854.766 487.953 852.766 488.513 850.526 488.513ZM850.526 483.993C852.526 483.993 854.099 483.166 855.246 481.513C856.419 479.859 857.006 477.393 857.006 474.113C857.006 470.833 856.419 468.366 855.246 466.713C854.099 465.059 852.526 464.233 850.526 464.233C848.553 464.233 846.979 465.059 845.806 466.713C844.659 468.366 844.086 470.833 844.086 474.113C844.086 477.393 844.659 479.859 845.806 481.513C846.979 483.166 848.553 483.993 850.526 483.993Z" fill="#E5E5E5"/>
<g filter="url(#filter1_i)">
<ellipse cx="101" cy="200.056" rx="15" ry="14.9296" fill="#C4C4C4"/>
</g>
<g filter="url(#filter2_i)">
<ellipse cx="101" cy="332.432" rx="15" ry="14.9296" fill="#C4C4C4"/>
</g>
</g>
<defs>
<filter id="filter0_d" x="0" y="0" width="1118" height="644" filterUnits="userSpaceOnUse" color-interpolation-filters="sRGB">
<feFlood flood-opacity="0" result="BackgroundImageFix"/>
<feColorMatrix in="SourceAlpha" type="matrix" values="0 0 0 0 0 0 0 0 0 0 0 0 0 0 0 0 0 0 127 0"/>
<feOffset dy="4"/>
<feGaussianBlur stdDeviation="2"/>
<feColorMatrix type="matrix" values="0 0 0 0 0 0 0 0 0 0 0 0 0 0 0 0 0 0 0.25 0"/>
<feBlend mode="normal" in2="BackgroundImageFix" result="effect1_dropShadow"/>
<feBlend mode="normal" in="SourceGraphic" in2="effect1_dropShadow" result="shape"/>
</filter>
<filter id="filter1_i" x="86" y="185.127" width="30" height="33.8592" filterUnits="userSpaceOnUse" color-interpolation-filters="sRGB">
<feFlood flood-opacity="0" result="BackgroundImageFix"/>
<feBlend mode="normal" in="SourceGraphic" in2="BackgroundImageFix" result="shape"/>
<feColorMatrix in="SourceAlpha" type="matrix" values="0 0 0 0 0 0 0 0 0 0 0 0 0 0 0 0 0 0 127 0" result="hardAlpha"/>
<feOffset dy="4"/>
<feGaussianBlur stdDeviation="2"/>
<feComposite in2="hardAlpha" operator="arithmetic" k2="-1" k3="1"/>
<feColorMatrix type="matrix" values="0 0 0 0 0 0 0 0 0 0 0 0 0 0 0 0 0 0 0.25 0"/>
<feBlend mode="normal" in2="shape" result="effect1_innerShadow"/>
</filter>
<filter id="filter2_i" x="86" y="317.502" width="30" height="33.8592" filterUnits="userSpaceOnUse" color-interpolation-filters="sRGB">
<feFlood flood-opacity="0" result="BackgroundImageFix"/>
<feBlend mode="normal" in="SourceGraphic" in2="BackgroundImageFix" result="shape"/>
<feColorMatrix in="SourceAlpha" type="matrix" values="0 0 0 0 0 0 0 0 0 0 0 0 0 0 0 0 0 0 127 0" result="hardAlpha"/>
<feOffset dy="4"/>
<feGaussianBlur stdDeviation="2"/>
<feComposite in2="hardAlpha" operator="arithmetic" k2="-1" k3="1"/>
<feColorMatrix type="matrix" values="0 0 0 0 0 0 0 0 0 0 0 0 0 0 0 0 0 0 0.25 0"/>
<feBlend mode="normal" in2="shape" result="effect1_innerShadow"/>
</filter>
</defs>
</svg>
