<svg width="52" height="52" viewBox="0 0 52 52" fill="none" xmlns="http://www.w3.org/2000/svg">
<ellipse cx="26.0002" cy="26.0002" rx="21.6667" ry="21.6667" fill="#5A3BAC"/>
<path d="M26 15.3423C29.4711 15.3423 29.8823 15.3556 31.2531 15.4181C32.5206 15.4759 33.2089 15.6877 33.667 15.8657C34.2738 16.1016 34.7069 16.3833 35.1618 16.8382C35.6167 17.2931 35.8984 17.7261 36.1342 18.333C36.3123 18.791 36.5241 19.4794 36.5819 20.7469C36.6444 22.1176 36.6577 22.5288 36.6577 25.9999C36.6577 29.4711 36.6444 29.8823 36.5819 31.253C36.5241 32.5205 36.3123 33.2089 36.1342 33.667C35.8984 34.2738 35.6167 34.7068 35.1618 35.1617C34.7069 35.6166 34.2738 35.8983 33.667 36.1342C33.2089 36.3122 32.5206 36.524 31.2531 36.5818C29.8825 36.6443 29.4714 36.6576 26 36.6576C22.5286 36.6576 22.1175 36.6443 20.7469 36.5818C19.4794 36.524 18.7911 36.3122 18.333 36.1342C17.7262 35.8983 17.2931 35.6166 16.8382 35.1617C16.3833 34.7068 16.1016 34.2738 15.8658 33.667C15.6877 33.2089 15.4759 32.5205 15.4181 31.253C15.3556 29.8823 15.3423 29.4711 15.3423 25.9999C15.3423 22.5288 15.3556 22.1176 15.4181 20.7469C15.4759 19.4794 15.6877 18.791 15.8658 18.333C16.1016 17.7261 16.3833 17.2931 16.8382 16.8382C17.2931 16.3833 17.7262 16.1016 18.333 15.8657C18.7911 15.6877 19.4794 15.4759 20.7469 15.4181C22.1177 15.3556 22.5289 15.3423 26 15.3423ZM26 13C22.4694 13 22.0267 13.015 20.6401 13.0782C19.2564 13.1413 18.3114 13.3611 17.4845 13.6825C16.6296 14.0147 15.9047 14.4592 15.1819 15.1819C14.4592 15.9047 14.0147 16.6296 13.6825 17.4845C13.3611 18.3114 13.1413 19.2564 13.0782 20.6401C13.015 22.0267 13 22.4694 13 25.9999C13 29.5305 13.015 29.9732 13.0782 31.3598C13.1413 32.7435 13.3611 33.6885 13.6825 34.5154C14.0147 35.3703 14.4592 36.0953 15.1819 36.818C15.9047 37.5407 16.6296 37.9852 17.4845 38.3174C18.3114 38.6388 19.2564 38.8586 20.6401 38.9217C22.0267 38.9849 22.4694 38.9999 26 38.9999C29.5306 38.9999 29.9733 38.9849 31.3599 38.9217C32.7436 38.8586 33.6886 38.6388 34.5155 38.3174C35.3704 37.9852 36.0953 37.5407 36.8181 36.818C37.5408 36.0953 37.9853 35.3703 38.3175 34.5154C38.6389 33.6885 38.8587 32.7435 38.9218 31.3598C38.985 29.9732 39 29.5305 39 25.9999C39 22.4694 38.985 22.0267 38.9218 20.6401C38.8587 19.2564 38.6389 18.3114 38.3175 17.4845C37.9853 16.6296 37.5408 15.9047 36.8181 15.1819C36.0953 14.4592 35.3704 14.0147 34.5155 13.6825C33.6886 13.3611 32.7436 13.1413 31.3599 13.0782C29.9733 13.015 29.5306 13 26 13Z" fill="white"/>
<path d="M26.0063 19.3306C22.3193 19.3306 19.3306 22.3193 19.3306 26.0062C19.3306 29.6931 22.3193 32.6819 26.0063 32.6819C29.6931 32.6819 32.6819 29.6931 32.6819 26.0062C32.6819 22.3193 29.6931 19.3306 26.0063 19.3306ZM26.0063 30.3395C23.613 30.3395 21.6729 28.3995 21.6729 26.0062C21.6729 23.613 23.613 21.6729 26.0063 21.6729C28.3995 21.6729 30.3396 23.613 30.3396 26.0062C30.3396 28.3995 28.3995 30.3395 26.0063 30.3395Z" fill="white"/>
<path d="M34.5053 19.0625C34.5053 19.924 33.8068 20.6224 32.9452 20.6224C32.0837 20.6224 31.3853 19.924 31.3853 19.0625C31.3853 18.2009 32.0837 17.5024 32.9452 17.5024C33.8068 17.5024 34.5053 18.2009 34.5053 19.0625Z" fill="white"/>
</svg>
