<svg width="541" height="623" viewBox="0 0 541 623" fill="none" xmlns="http://www.w3.org/2000/svg">
<g filter="url(#filter0_d)">
<rect x="4" width="533" height="615" rx="20" fill="#419EF9"/>
</g>
<g filter="url(#filter1_i)">
<path fill-rule="evenodd" clip-rule="evenodd" d="M198.629 236.825C198.629 226.706 206.692 218.465 216.592 218.465H312.465C322.326 218.465 330.35 226.706 330.35 236.825V261.144C317.613 269.266 302.929 274.954 287.469 277.746C283.221 268.94 274.382 263.164 264.451 263.164C254.605 263.164 245.728 268.916 241.355 277.674C225.989 274.898 211.359 269.234 198.629 261.144V236.825ZM254.48 197.933H274.498C279.708 197.933 284.072 201.6 285.367 206.532H243.602C244.905 201.6 249.262 197.933 254.48 197.933ZM244.247 290.219C247.193 290.641 249.884 288.779 250.659 285.884C252.388 279.424 257.931 275.096 264.451 275.096C270.902 275.096 276.499 279.519 278.065 285.852C278.732 288.525 281.073 290.354 283.702 290.354C283.965 290.354 284.237 290.338 284.5 290.299C304.417 287.467 323.389 280.235 339.375 269.385C341.003 268.271 341.98 266.41 341.98 264.405V236.825C341.98 220.119 328.738 206.532 312.465 206.532H297.137C295.688 194.989 286.144 186 274.499 186H254.481C242.836 186 233.3 194.981 231.843 206.532H216.593C200.273 206.532 187 220.119 187 236.825V264.405C187 266.41 187.977 268.279 189.613 269.385C205.576 280.188 224.47 287.387 244.247 290.219ZM258.676 292.471V302.765C258.676 306.059 261.281 308.731 264.49 308.731C267.7 308.731 270.305 306.059 270.305 302.765V292.471C270.305 289.178 267.7 286.505 264.49 286.505C261.281 286.505 258.676 289.178 258.676 292.471ZM330.495 292.732C330.727 289.677 333.154 287.243 336.201 287.243C339.403 287.243 342 289.908 342 293.193C342 293.244 341.907 294.469 341.77 296.288C341.436 300.722 340.835 308.684 340.659 311.753C340.217 319.214 337.395 326.827 333.107 332.125C327.138 339.508 319.532 342.96 309.19 342.984C304.391 342.992 284.559 343 264.719 343C244.887 343 225.048 342.992 220.256 342.984C209.906 342.96 202.301 339.508 196.331 332.117C192.051 326.827 189.222 319.214 188.788 311.753C188.609 308.728 188.021 300.952 187.683 296.483C187.538 294.558 187.439 293.246 187.439 293.193C187.439 289.908 190.036 287.243 193.238 287.243C196.285 287.243 198.711 289.677 198.944 292.732C198.944 292.732 200.138 306.645 200.394 311.037C200.68 315.897 202.603 321.187 205.286 324.496C209.085 329.198 213.287 331.036 220.272 331.051C229.855 331.067 299.576 331.067 309.166 331.051C316.16 331.036 320.362 329.198 324.153 324.504C326.843 321.187 328.766 315.897 329.053 311.037C329.301 306.645 330.495 292.732 330.495 292.732Z" fill="#FFEFEF"/>
</g>
<g filter="url(#filter2_d)">
<path d="M106.783 82.576C103.359 82.576 100.255 81.84 97.4708 80.368C94.7188 78.864 92.5428 76.8 90.9428 74.176C89.3748 71.52 88.5908 68.528 88.5908 65.2C88.5908 61.872 89.3748 58.896 90.9428 56.272C92.5428 53.616 94.7188 51.552 97.4708 50.08C100.255 48.576 103.375 47.824 106.831 47.824C109.743 47.824 112.367 48.336 114.703 49.36C117.071 50.384 119.055 51.856 120.655 53.776L115.663 58.384C113.391 55.76 110.575 54.448 107.215 54.448C105.135 54.448 103.279 54.912 101.647 55.84C100.015 56.736 98.7348 58 97.8068 59.632C96.9108 61.264 96.4628 63.12 96.4628 65.2C96.4628 67.28 96.9108 69.136 97.8068 70.768C98.7348 72.4 100.015 73.68 101.647 74.608C103.279 75.504 105.135 75.952 107.215 75.952C110.575 75.952 113.391 74.624 115.663 71.968L120.655 76.576C119.055 78.528 117.071 80.016 114.703 81.04C112.335 82.064 109.695 82.576 106.783 82.576ZM141.074 55.792C144.274 55.792 146.85 56.752 148.802 58.672C150.786 60.592 151.778 63.44 151.778 67.216V82H144.29V68.368C144.29 66.32 143.842 64.8 142.946 63.808C142.05 62.784 140.754 62.272 139.058 62.272C137.17 62.272 135.666 62.864 134.546 64.048C133.426 65.2 132.866 66.928 132.866 69.232V82H125.378V46.384H132.866V58.864C133.858 57.872 135.058 57.12 136.466 56.608C137.874 56.064 139.41 55.792 141.074 55.792ZM168.981 55.792C172.981 55.792 176.053 56.752 178.197 58.672C180.341 60.56 181.413 63.424 181.413 67.264V82H174.405V78.784C172.997 81.184 170.373 82.384 166.533 82.384C164.549 82.384 162.821 82.048 161.349 81.376C159.909 80.704 158.805 79.776 158.037 78.592C157.269 77.408 156.885 76.064 156.885 74.56C156.885 72.16 157.781 70.272 159.573 68.896C161.397 67.52 164.197 66.832 167.973 66.832H173.925C173.925 65.2 173.429 63.952 172.437 63.088C171.445 62.192 169.957 61.744 167.973 61.744C166.597 61.744 165.237 61.968 163.893 62.416C162.581 62.832 161.461 63.408 160.533 64.144L157.845 58.912C159.253 57.92 160.933 57.152 162.885 56.608C164.869 56.064 166.901 55.792 168.981 55.792ZM168.405 77.344C169.685 77.344 170.821 77.056 171.813 76.48C172.805 75.872 173.509 74.992 173.925 73.84V71.2H168.789C165.717 71.2 164.181 72.208 164.181 74.224C164.181 75.184 164.549 75.952 165.285 76.528C166.053 77.072 167.093 77.344 168.405 77.344ZM203.886 55.792C207.086 55.792 209.662 56.752 211.614 58.672C213.598 60.592 214.59 63.44 214.59 67.216V82H207.102V68.368C207.102 66.32 206.654 64.8 205.758 63.808C204.862 62.784 203.566 62.272 201.87 62.272C199.982 62.272 198.478 62.864 197.358 64.048C196.238 65.2 195.678 66.928 195.678 69.232V82H188.19V56.176H195.342V59.2C196.334 58.112 197.566 57.28 199.038 56.704C200.51 56.096 202.126 55.792 203.886 55.792ZM234.139 82.384C231.387 82.384 228.907 81.824 226.699 80.704C224.523 79.552 222.811 77.968 221.563 75.952C220.347 73.936 219.739 71.648 219.739 69.088C219.739 66.528 220.347 64.24 221.563 62.224C222.811 60.208 224.523 58.64 226.699 57.52C228.907 56.368 231.387 55.792 234.139 55.792C236.859 55.792 239.227 56.368 241.243 57.52C243.291 58.64 244.779 60.256 245.707 62.368L239.899 65.488C238.555 63.12 236.619 61.936 234.091 61.936C232.139 61.936 230.523 62.576 229.243 63.856C227.963 65.136 227.323 66.88 227.323 69.088C227.323 71.296 227.963 73.04 229.243 74.32C230.523 75.6 232.139 76.24 234.091 76.24C236.651 76.24 238.587 75.056 239.899 72.688L245.707 75.856C244.779 77.904 243.291 79.504 241.243 80.656C239.227 81.808 236.859 82.384 234.139 82.384ZM274.986 69.184C274.986 69.28 274.938 69.952 274.842 71.2H255.306C255.658 72.8 256.49 74.064 257.802 74.992C259.114 75.92 260.746 76.384 262.698 76.384C264.042 76.384 265.226 76.192 266.25 75.808C267.306 75.392 268.282 74.752 269.178 73.888L273.162 78.208C270.73 80.992 267.178 82.384 262.506 82.384C259.594 82.384 257.018 81.824 254.778 80.704C252.538 79.552 250.81 77.968 249.594 75.952C248.378 73.936 247.77 71.648 247.77 69.088C247.77 66.56 248.362 64.288 249.546 62.272C250.762 60.224 252.41 58.64 254.49 57.52C256.602 56.368 258.954 55.792 261.546 55.792C264.074 55.792 266.362 56.336 268.41 57.424C270.458 58.512 272.058 60.08 273.21 62.128C274.394 64.144 274.986 66.496 274.986 69.184ZM261.594 61.456C259.898 61.456 258.474 61.936 257.322 62.896C256.17 63.856 255.466 65.168 255.21 66.832H267.93C267.674 65.2 266.97 63.904 265.818 62.944C264.666 61.952 263.258 61.456 261.594 61.456ZM305.853 82.384C303.133 82.384 300.685 81.824 298.509 80.704C296.365 79.552 294.685 77.968 293.469 75.952C292.253 73.936 291.645 71.648 291.645 69.088C291.645 66.528 292.253 64.24 293.469 62.224C294.685 60.208 296.365 58.64 298.509 57.52C300.685 56.368 303.133 55.792 305.853 55.792C308.573 55.792 311.005 56.368 313.149 57.52C315.293 58.64 316.973 60.208 318.189 62.224C319.405 64.24 320.013 66.528 320.013 69.088C320.013 71.648 319.405 73.936 318.189 75.952C316.973 77.968 315.293 79.552 313.149 80.704C311.005 81.824 308.573 82.384 305.853 82.384ZM305.853 76.24C307.773 76.24 309.341 75.6 310.557 74.32C311.805 73.008 312.429 71.264 312.429 69.088C312.429 66.912 311.805 65.184 310.557 63.904C309.341 62.592 307.773 61.936 305.853 61.936C303.933 61.936 302.349 62.592 301.101 63.904C299.853 65.184 299.229 66.912 299.229 69.088C299.229 71.264 299.853 73.008 301.101 74.32C302.349 75.6 303.933 76.24 305.853 76.24ZM333.227 56.752H339.851V62.512H333.419V82H325.931V62.512H321.947V56.752H325.931V55.6C325.931 52.656 326.795 50.32 328.523 48.592C330.283 46.864 332.747 46 335.915 46C337.035 46 338.091 46.128 339.083 46.384C340.107 46.608 340.955 46.944 341.627 47.392L339.659 52.816C338.795 52.208 337.787 51.904 336.635 51.904C334.363 51.904 333.227 53.152 333.227 55.648V56.752ZM363.895 82.576C361.623 82.576 359.527 82.16 357.607 81.328C355.719 80.464 354.167 79.248 352.951 77.68L357.271 72.496C359.095 74.96 361.175 76.192 363.511 76.192C366.679 76.192 368.263 74.336 368.263 70.624V54.64H356.455V48.4H375.991V70.192C375.991 74.32 374.967 77.424 372.919 79.504C370.871 81.552 367.863 82.576 363.895 82.576ZM395.432 82.384C392.712 82.384 390.264 81.824 388.088 80.704C385.944 79.552 384.264 77.968 383.048 75.952C381.832 73.936 381.224 71.648 381.224 69.088C381.224 66.528 381.832 64.24 383.048 62.224C384.264 60.208 385.944 58.64 388.088 57.52C390.264 56.368 392.712 55.792 395.432 55.792C398.152 55.792 400.584 56.368 402.728 57.52C404.872 58.64 406.552 60.208 407.768 62.224C408.984 64.24 409.592 66.528 409.592 69.088C409.592 71.648 408.984 73.936 407.768 75.952C406.552 77.968 404.872 79.552 402.728 80.704C400.584 81.824 398.152 82.384 395.432 82.384ZM395.432 76.24C397.352 76.24 398.92 75.6 400.136 74.32C401.384 73.008 402.008 71.264 402.008 69.088C402.008 66.912 401.384 65.184 400.136 63.904C398.92 62.592 397.352 61.936 395.432 61.936C393.512 61.936 391.928 62.592 390.68 63.904C389.432 65.184 388.808 66.912 388.808 69.088C388.808 71.264 389.432 73.008 390.68 74.32C391.928 75.6 393.512 76.24 395.432 76.24ZM429.861 55.792C432.261 55.792 434.437 56.352 436.389 57.472C438.373 58.56 439.925 60.112 441.045 62.128C442.165 64.112 442.725 66.432 442.725 69.088C442.725 71.744 442.165 74.08 441.045 76.096C439.925 78.08 438.373 79.632 436.389 80.752C434.437 81.84 432.261 82.384 429.861 82.384C426.309 82.384 423.605 81.264 421.749 79.024V82H414.597V46.384H422.085V58.912C423.973 56.832 426.565 55.792 429.861 55.792ZM428.565 76.24C430.485 76.24 432.053 75.6 433.269 74.32C434.517 73.008 435.141 71.264 435.141 69.088C435.141 66.912 434.517 65.184 433.269 63.904C432.053 62.592 430.485 61.936 428.565 61.936C426.645 61.936 425.061 62.592 423.813 63.904C422.597 65.184 421.989 66.912 421.989 69.088C421.989 71.264 422.597 73.008 423.813 74.32C425.061 75.6 426.645 76.24 428.565 76.24ZM150.211 107.4H157.987V141H150.211V107.4ZM181.129 114.792C184.329 114.792 186.905 115.752 188.857 117.672C190.841 119.592 191.833 122.44 191.833 126.216V141H184.345V127.368C184.345 125.32 183.897 123.8 183.001 122.808C182.105 121.784 180.809 121.272 179.113 121.272C177.225 121.272 175.721 121.864 174.601 123.048C173.481 124.2 172.921 125.928 172.921 128.232V141H165.433V115.176H172.585V118.2C173.577 117.112 174.809 116.28 176.281 115.704C177.753 115.096 179.369 114.792 181.129 114.792ZM215.276 139.752C214.54 140.296 213.628 140.712 212.54 141C211.484 141.256 210.364 141.384 209.18 141.384C206.108 141.384 203.724 140.6 202.028 139.032C200.364 137.464 199.532 135.16 199.532 132.12V121.512H195.548V115.752H199.532V109.464H207.02V115.752H213.452V121.512H207.02V132.024C207.02 133.112 207.292 133.96 207.836 134.568C208.412 135.144 209.212 135.432 210.236 135.432C211.42 135.432 212.428 135.112 213.26 134.472L215.276 139.752ZM243.979 128.184C243.979 128.28 243.931 128.952 243.835 130.2H224.299C224.651 131.8 225.483 133.064 226.795 133.992C228.107 134.92 229.739 135.384 231.691 135.384C233.035 135.384 234.219 135.192 235.243 134.808C236.299 134.392 237.275 133.752 238.171 132.888L242.155 137.208C239.723 139.992 236.171 141.384 231.499 141.384C228.587 141.384 226.011 140.824 223.771 139.704C221.531 138.552 219.803 136.968 218.587 134.952C217.371 132.936 216.763 130.648 216.763 128.088C216.763 125.56 217.355 123.288 218.539 121.272C219.755 119.224 221.403 117.64 223.483 116.52C225.595 115.368 227.947 114.792 230.539 114.792C233.067 114.792 235.355 115.336 237.403 116.424C239.451 117.512 241.051 119.08 242.203 121.128C243.387 123.144 243.979 125.496 243.979 128.184ZM230.587 120.456C228.891 120.456 227.467 120.936 226.315 121.896C225.163 122.856 224.459 124.168 224.203 125.832H236.923C236.667 124.2 235.963 122.904 234.811 121.944C233.659 120.952 232.251 120.456 230.587 120.456ZM256.116 118.584C257.012 117.336 258.212 116.392 259.716 115.752C261.252 115.112 263.012 114.792 264.996 114.792V121.704C264.164 121.64 263.604 121.608 263.316 121.608C261.172 121.608 259.492 122.216 258.276 123.432C257.06 124.616 256.452 126.408 256.452 128.808V141H248.964V115.176H256.116V118.584ZM295.971 115.176L285.075 141H277.347L266.499 115.176H274.227L281.379 132.744L288.771 115.176H295.971ZM299.026 115.176H306.514V141H299.026V115.176ZM302.77 111.576C301.394 111.576 300.274 111.176 299.41 110.376C298.546 109.576 298.114 108.584 298.114 107.4C298.114 106.216 298.546 105.224 299.41 104.424C300.274 103.624 301.394 103.224 302.77 103.224C304.146 103.224 305.266 103.608 306.13 104.376C306.994 105.144 307.426 106.104 307.426 107.256C307.426 108.504 306.994 109.544 306.13 110.376C305.266 111.176 304.146 111.576 302.77 111.576ZM338.76 128.184C338.76 128.28 338.712 128.952 338.616 130.2H319.08C319.432 131.8 320.264 133.064 321.576 133.992C322.888 134.92 324.52 135.384 326.472 135.384C327.816 135.384 329 135.192 330.024 134.808C331.08 134.392 332.056 133.752 332.952 132.888L336.936 137.208C334.504 139.992 330.952 141.384 326.28 141.384C323.368 141.384 320.792 140.824 318.552 139.704C316.312 138.552 314.584 136.968 313.368 134.952C312.152 132.936 311.544 130.648 311.544 128.088C311.544 125.56 312.136 123.288 313.32 121.272C314.536 119.224 316.184 117.64 318.264 116.52C320.376 115.368 322.728 114.792 325.32 114.792C327.848 114.792 330.136 115.336 332.184 116.424C334.232 117.512 335.832 119.08 336.984 121.128C338.168 123.144 338.76 125.496 338.76 128.184ZM325.368 120.456C323.672 120.456 322.248 120.936 321.096 121.896C319.944 122.856 319.24 124.168 318.984 125.832H331.704C331.448 124.2 330.744 122.904 329.592 121.944C328.44 120.952 327.032 120.456 325.368 120.456ZM384.748 115.176L375.388 141H368.188L362.38 124.968L356.38 141H349.18L339.868 115.176H346.924L353.02 132.648L359.356 115.176H365.692L371.836 132.648L378.124 115.176H384.748Z" fill="#FFEFEF"/>
</g>
<g filter="url(#filter3_d)">
<path d="M71.0284 418.34C68.6257 418.34 66.4497 417.819 64.5004 416.776C62.5737 415.711 61.0551 414.249 59.9444 412.39C58.8564 410.531 58.3124 408.435 58.3124 406.1C58.3124 403.765 58.8677 401.669 59.9784 399.81C61.0891 397.951 62.6077 396.501 64.5344 395.458C66.4837 394.393 68.6597 393.86 71.0624 393.86C73.0117 393.86 74.7911 394.2 76.4004 394.88C78.0097 395.56 79.3697 396.546 80.4804 397.838L77.6244 400.524C75.9017 398.665 73.7824 397.736 71.2664 397.736C69.6344 397.736 68.1724 398.099 66.8804 398.824C65.5884 399.527 64.5797 400.513 63.8544 401.782C63.1291 403.051 62.7664 404.491 62.7664 406.1C62.7664 407.709 63.1291 409.149 63.8544 410.418C64.5797 411.687 65.5884 412.685 66.8804 413.41C68.1724 414.113 69.6344 414.464 71.2664 414.464C73.7824 414.464 75.9017 413.523 77.6244 411.642L80.4804 414.362C79.3697 415.654 77.9984 416.64 76.3664 417.32C74.7571 418 72.9777 418.34 71.0284 418.34ZM106.31 394.2L95.9395 418H91.5875L81.1835 394.2H85.9775L93.8995 412.56L101.89 394.2H106.31ZM136.09 392.772V418H132.01V415.654C131.307 416.515 130.434 417.161 129.392 417.592C128.372 418.023 127.238 418.238 125.992 418.238C124.246 418.238 122.671 417.853 121.266 417.082C119.883 416.311 118.795 415.223 118.002 413.818C117.208 412.39 116.812 410.758 116.812 408.922C116.812 407.086 117.208 405.465 118.002 404.06C118.795 402.655 119.883 401.567 121.266 400.796C122.671 400.025 124.246 399.64 125.992 399.64C127.193 399.64 128.292 399.844 129.29 400.252C130.287 400.66 131.137 401.272 131.84 402.088V392.772H136.09ZM126.502 414.6C127.522 414.6 128.44 414.373 129.256 413.92C130.072 413.444 130.718 412.775 131.194 411.914C131.67 411.053 131.908 410.055 131.908 408.922C131.908 407.789 131.67 406.791 131.194 405.93C130.718 405.069 130.072 404.411 129.256 403.958C128.44 403.482 127.522 403.244 126.502 403.244C125.482 403.244 124.564 403.482 123.748 403.958C122.932 404.411 122.286 405.069 121.81 405.93C121.334 406.791 121.096 407.789 121.096 408.922C121.096 410.055 121.334 411.053 121.81 411.914C122.286 412.775 122.932 413.444 123.748 413.92C124.564 414.373 125.482 414.6 126.502 414.6ZM148.585 399.64C151.26 399.64 153.3 400.286 154.705 401.578C156.133 402.847 156.847 404.774 156.847 407.358V418H152.835V415.79C152.314 416.583 151.566 417.195 150.591 417.626C149.639 418.034 148.483 418.238 147.123 418.238C145.763 418.238 144.573 418.011 143.553 417.558C142.533 417.082 141.74 416.436 141.173 415.62C140.629 414.781 140.357 413.841 140.357 412.798C140.357 411.166 140.958 409.863 142.159 408.888C143.383 407.891 145.299 407.392 147.905 407.392H152.597V407.12C152.597 405.851 152.212 404.876 151.441 404.196C150.693 403.516 149.571 403.176 148.075 403.176C147.055 403.176 146.047 403.335 145.049 403.652C144.075 403.969 143.247 404.411 142.567 404.978L140.901 401.884C141.853 401.159 142.998 400.603 144.335 400.218C145.673 399.833 147.089 399.64 148.585 399.64ZM148.007 415.144C149.073 415.144 150.013 414.906 150.829 414.43C151.668 413.931 152.257 413.229 152.597 412.322V410.214H148.211C145.763 410.214 144.539 411.019 144.539 412.628C144.539 413.399 144.845 414.011 145.457 414.464C146.069 414.917 146.919 415.144 148.007 415.144ZM166.348 402.496C167.572 400.592 169.725 399.64 172.808 399.64V403.686C172.445 403.618 172.116 403.584 171.822 403.584C170.167 403.584 168.875 404.071 167.946 405.046C167.016 405.998 166.552 407.381 166.552 409.194V418H162.302V399.844H166.348V402.496ZM176.413 399.844H180.663V418H176.413V399.844ZM178.555 396.852C177.784 396.852 177.138 396.614 176.617 396.138C176.096 395.639 175.835 395.027 175.835 394.302C175.835 393.577 176.096 392.976 176.617 392.5C177.138 392.001 177.784 391.752 178.555 391.752C179.326 391.752 179.972 391.99 180.493 392.466C181.014 392.919 181.275 393.497 181.275 394.2C181.275 394.948 181.014 395.583 180.493 396.104C179.994 396.603 179.348 396.852 178.555 396.852ZM205.702 399.64C207.47 399.64 209.045 400.025 210.428 400.796C211.833 401.567 212.932 402.655 213.726 404.06C214.519 405.465 214.916 407.086 214.916 408.922C214.916 410.758 214.519 412.39 213.726 413.818C212.932 415.223 211.833 416.311 210.428 417.082C209.045 417.853 207.47 418.238 205.702 418.238C203.254 418.238 201.316 417.422 199.888 415.79V424.596H195.638V399.844H199.684V402.224C200.386 401.363 201.248 400.717 202.268 400.286C203.31 399.855 204.455 399.64 205.702 399.64ZM205.226 414.6C206.79 414.6 208.07 414.079 209.068 413.036C210.088 411.993 210.598 410.622 210.598 408.922C210.598 407.222 210.088 405.851 209.068 404.808C208.07 403.765 206.79 403.244 205.226 403.244C204.206 403.244 203.288 403.482 202.472 403.958C201.656 404.411 201.01 405.069 200.534 405.93C200.058 406.791 199.82 407.789 199.82 408.922C199.82 410.055 200.058 411.053 200.534 411.914C201.01 412.775 201.656 413.444 202.472 413.92C203.288 414.373 204.206 414.6 205.226 414.6ZM225.65 399.64C228.324 399.64 230.364 400.286 231.77 401.578C233.198 402.847 233.912 404.774 233.912 407.358V418H229.9V415.79C229.378 416.583 228.63 417.195 227.656 417.626C226.704 418.034 225.548 418.238 224.188 418.238C222.828 418.238 221.638 418.011 220.618 417.558C219.598 417.082 218.804 416.436 218.238 415.62C217.694 414.781 217.422 413.841 217.422 412.798C217.422 411.166 218.022 409.863 219.224 408.888C220.448 407.891 222.363 407.392 224.97 407.392H229.662V407.12C229.662 405.851 229.276 404.876 228.506 404.196C227.758 403.516 226.636 403.176 225.14 403.176C224.12 403.176 223.111 403.335 222.114 403.652C221.139 403.969 220.312 404.411 219.632 404.978L217.966 401.884C218.918 401.159 220.062 400.603 221.4 400.218C222.737 399.833 224.154 399.64 225.65 399.64ZM225.072 415.144C226.137 415.144 227.078 414.906 227.894 414.43C228.732 413.931 229.322 413.229 229.662 412.322V410.214H225.276C222.828 410.214 221.604 411.019 221.604 412.628C221.604 413.399 221.91 414.011 222.522 414.464C223.134 414.917 223.984 415.144 225.072 415.144ZM243.412 402.496C244.636 400.592 246.789 399.64 249.872 399.64V403.686C249.509 403.618 249.181 403.584 248.886 403.584C247.231 403.584 245.939 404.071 245.01 405.046C244.081 405.998 243.616 407.381 243.616 409.194V418H239.366V399.844H243.412V402.496ZM260.314 399.64C262.989 399.64 265.029 400.286 266.434 401.578C267.862 402.847 268.576 404.774 268.576 407.358V418H264.564V415.79C264.043 416.583 263.295 417.195 262.32 417.626C261.368 418.034 260.212 418.238 258.852 418.238C257.492 418.238 256.302 418.011 255.282 417.558C254.262 417.082 253.469 416.436 252.902 415.62C252.358 414.781 252.086 413.841 252.086 412.798C252.086 411.166 252.687 409.863 253.888 408.888C255.112 407.891 257.027 407.392 259.634 407.392H264.326V407.12C264.326 405.851 263.941 404.876 263.17 404.196C262.422 403.516 261.3 403.176 259.804 403.176C258.784 403.176 257.775 403.335 256.778 403.652C255.803 403.969 254.976 404.411 254.296 404.978L252.63 401.884C253.582 401.159 254.727 400.603 256.064 400.218C257.401 399.833 258.818 399.64 260.314 399.64ZM259.736 415.144C260.801 415.144 261.742 414.906 262.558 414.43C263.397 413.931 263.986 413.229 264.326 412.322V410.214H259.94C257.492 410.214 256.268 411.019 256.268 412.628C256.268 413.399 256.574 414.011 257.186 414.464C257.798 414.917 258.648 415.144 259.736 415.144ZM293.491 399.64C295.259 399.64 296.834 400.025 298.217 400.796C299.622 401.567 300.721 402.655 301.515 404.06C302.308 405.465 302.705 407.086 302.705 408.922C302.705 410.758 302.308 412.39 301.515 413.818C300.721 415.223 299.622 416.311 298.217 417.082C296.834 417.853 295.259 418.238 293.491 418.238C291.043 418.238 289.105 417.422 287.677 415.79V424.596H283.427V399.844H287.473V402.224C288.175 401.363 289.037 400.717 290.057 400.286C291.099 399.855 292.244 399.64 293.491 399.64ZM293.015 414.6C294.579 414.6 295.859 414.079 296.857 413.036C297.877 411.993 298.387 410.622 298.387 408.922C298.387 407.222 297.877 405.851 296.857 404.808C295.859 403.765 294.579 403.244 293.015 403.244C291.995 403.244 291.077 403.482 290.261 403.958C289.445 404.411 288.799 405.069 288.323 405.93C287.847 406.791 287.609 407.789 287.609 408.922C287.609 410.055 287.847 411.053 288.323 411.914C288.799 412.775 289.445 413.444 290.261 413.92C291.077 414.373 291.995 414.6 293.015 414.6ZM323.803 409.024C323.803 409.319 323.781 409.738 323.735 410.282H309.489C309.739 411.619 310.385 412.685 311.427 413.478C312.493 414.249 313.807 414.634 315.371 414.634C317.366 414.634 319.009 413.977 320.301 412.662L322.579 415.28C321.763 416.255 320.732 416.991 319.485 417.49C318.239 417.989 316.833 418.238 315.269 418.238C313.275 418.238 311.518 417.841 309.999 417.048C308.481 416.255 307.302 415.155 306.463 413.75C305.647 412.322 305.239 410.713 305.239 408.922C305.239 407.154 305.636 405.567 306.429 404.162C307.245 402.734 308.367 401.623 309.795 400.83C311.223 400.037 312.833 399.64 314.623 399.64C316.391 399.64 317.967 400.037 319.349 400.83C320.755 401.601 321.843 402.7 322.613 404.128C323.407 405.533 323.803 407.165 323.803 409.024ZM314.623 403.04C313.263 403.04 312.107 403.448 311.155 404.264C310.226 405.057 309.659 406.123 309.455 407.46H319.757C319.576 406.145 319.021 405.08 318.091 404.264C317.162 403.448 316.006 403.04 314.623 403.04ZM350.802 399.64C353.091 399.64 354.904 400.309 356.242 401.646C357.579 402.961 358.248 404.944 358.248 407.596V418H353.998V408.14C353.998 406.553 353.646 405.363 352.944 404.57C352.241 403.754 351.232 403.346 349.918 403.346C348.49 403.346 347.345 403.822 346.484 404.774C345.622 405.703 345.192 407.041 345.192 408.786V418H340.942V408.14C340.942 406.553 340.59 405.363 339.888 404.57C339.185 403.754 338.176 403.346 336.862 403.346C335.411 403.346 334.255 403.811 333.394 404.74C332.555 405.669 332.136 407.018 332.136 408.786V418H327.886V399.844H331.932V402.156C332.612 401.34 333.462 400.717 334.482 400.286C335.502 399.855 336.635 399.64 337.882 399.64C339.242 399.64 340.443 399.901 341.486 400.422C342.551 400.921 343.39 401.669 344.002 402.666C344.75 401.714 345.713 400.977 346.892 400.456C348.07 399.912 349.374 399.64 350.802 399.64ZM380.913 409.024C380.913 409.319 380.89 409.738 380.845 410.282H366.599C366.848 411.619 367.494 412.685 368.537 413.478C369.602 414.249 370.917 414.634 372.481 414.634C374.475 414.634 376.119 413.977 377.411 412.662L379.689 415.28C378.873 416.255 377.841 416.991 376.595 417.49C375.348 417.989 373.943 418.238 372.379 418.238C370.384 418.238 368.627 417.841 367.109 417.048C365.59 416.255 364.411 415.155 363.573 413.75C362.757 412.322 362.349 410.713 362.349 408.922C362.349 407.154 362.745 405.567 363.539 404.162C364.355 402.734 365.477 401.623 366.905 400.83C368.333 400.037 369.942 399.64 371.733 399.64C373.501 399.64 375.076 400.037 376.459 400.83C377.864 401.601 378.952 402.7 379.723 404.128C380.516 405.533 380.913 407.165 380.913 409.024ZM371.733 403.04C370.373 403.04 369.217 403.448 368.265 404.264C367.335 405.057 366.769 406.123 366.565 407.46H376.867C376.685 406.145 376.13 405.08 375.201 404.264C374.271 403.448 373.115 403.04 371.733 403.04ZM395.297 399.64C397.586 399.64 399.422 400.309 400.805 401.646C402.188 402.983 402.879 404.967 402.879 407.596V418H398.629V408.14C398.629 406.553 398.255 405.363 397.507 404.57C396.759 403.754 395.694 403.346 394.311 403.346C392.747 403.346 391.512 403.822 390.605 404.774C389.698 405.703 389.245 407.052 389.245 408.82V418H384.995V399.844H389.041V402.19C389.744 401.351 390.628 400.717 391.693 400.286C392.758 399.855 393.96 399.64 395.297 399.64ZM415.206 399.64C417.881 399.64 419.921 400.286 421.326 401.578C422.754 402.847 423.468 404.774 423.468 407.358V418H419.456V415.79C418.935 416.583 418.187 417.195 417.212 417.626C416.26 418.034 415.104 418.238 413.744 418.238C412.384 418.238 411.194 418.011 410.174 417.558C409.154 417.082 408.361 416.436 407.794 415.62C407.25 414.781 406.978 413.841 406.978 412.798C406.978 411.166 407.579 409.863 408.78 408.888C410.004 407.891 411.92 407.392 414.526 407.392H419.218V407.12C419.218 405.851 418.833 404.876 418.062 404.196C417.314 403.516 416.192 403.176 414.696 403.176C413.676 403.176 412.668 403.335 411.67 403.652C410.696 403.969 409.868 404.411 409.188 404.978L407.522 401.884C408.474 401.159 409.619 400.603 410.956 400.218C412.294 399.833 413.71 399.64 415.206 399.64ZM414.628 415.144C415.694 415.144 416.634 414.906 417.45 414.43C418.289 413.931 418.878 413.229 419.218 412.322V410.214H414.832C412.384 410.214 411.16 411.019 411.16 412.628C411.16 413.399 411.466 414.011 412.078 414.464C412.69 414.917 413.54 415.144 414.628 415.144ZM439.225 399.64C441.514 399.64 443.35 400.309 444.733 401.646C446.115 402.983 446.807 404.967 446.807 407.596V418H442.557V408.14C442.557 406.553 442.183 405.363 441.435 404.57C440.687 403.754 439.621 403.346 438.239 403.346C436.675 403.346 435.439 403.822 434.533 404.774C433.626 405.703 433.173 407.052 433.173 408.82V418H428.923V399.844H432.969V402.19C433.671 401.351 434.555 400.717 435.621 400.286C436.686 399.855 437.887 399.64 439.225 399.64ZM470.384 399.844V415.246C470.384 421.638 467.12 424.834 460.592 424.834C458.847 424.834 457.192 424.607 455.628 424.154C454.064 423.723 452.772 423.089 451.752 422.25L453.656 419.054C454.45 419.711 455.447 420.233 456.648 420.618C457.872 421.026 459.108 421.23 460.354 421.23C462.349 421.23 463.811 420.777 464.74 419.87C465.67 418.963 466.134 417.581 466.134 415.722V414.77C465.409 415.563 464.525 416.164 463.482 416.572C462.44 416.98 461.295 417.184 460.048 417.184C458.326 417.184 456.762 416.821 455.356 416.096C453.974 415.348 452.874 414.305 452.058 412.968C451.265 411.631 450.868 410.101 450.868 408.378C450.868 406.655 451.265 405.137 452.058 403.822C452.874 402.485 453.974 401.453 455.356 400.728C456.762 400.003 458.326 399.64 460.048 399.64C461.363 399.64 462.553 399.855 463.618 400.286C464.706 400.717 465.613 401.374 466.338 402.258V399.844H470.384ZM460.694 413.58C462.304 413.58 463.618 413.104 464.638 412.152C465.681 411.177 466.202 409.919 466.202 408.378C466.202 406.859 465.681 405.624 464.638 404.672C463.618 403.72 462.304 403.244 460.694 403.244C459.062 403.244 457.725 403.72 456.682 404.672C455.662 405.624 455.152 406.859 455.152 408.378C455.152 409.919 455.662 411.177 456.682 412.152C457.725 413.104 459.062 413.58 460.694 413.58ZM115.277 435.2V459H110.857V448.8H98.5486V459H94.1286V435.2H98.5486V445.026H110.857V435.2H115.277ZM128.182 440.64C130.857 440.64 132.897 441.286 134.302 442.578C135.73 443.847 136.444 445.774 136.444 448.358V459H132.432V456.79C131.911 457.583 131.163 458.195 130.188 458.626C129.236 459.034 128.08 459.238 126.72 459.238C125.36 459.238 124.17 459.011 123.15 458.558C122.13 458.082 121.337 457.436 120.77 456.62C120.226 455.781 119.954 454.841 119.954 453.798C119.954 452.166 120.555 450.863 121.756 449.888C122.98 448.891 124.895 448.392 127.502 448.392H132.194V448.12C132.194 446.851 131.809 445.876 131.038 445.196C130.29 444.516 129.168 444.176 127.672 444.176C126.652 444.176 125.643 444.335 124.646 444.652C123.671 444.969 122.844 445.411 122.164 445.978L120.498 442.884C121.45 442.159 122.595 441.603 123.932 441.218C125.269 440.833 126.686 440.64 128.182 440.64ZM127.604 456.144C128.669 456.144 129.61 455.906 130.426 455.43C131.265 454.931 131.854 454.229 132.194 453.322V451.214H127.808C125.36 451.214 124.136 452.019 124.136 453.628C124.136 454.399 124.442 455.011 125.054 455.464C125.666 455.917 126.516 456.144 127.604 456.144ZM150.394 459.238C148.513 459.238 146.824 458.841 145.328 458.048C143.832 457.255 142.665 456.155 141.826 454.75C140.988 453.322 140.568 451.713 140.568 449.922C140.568 448.131 140.988 446.533 141.826 445.128C142.665 443.723 143.821 442.623 145.294 441.83C146.79 441.037 148.49 440.64 150.394 440.64C152.185 440.64 153.749 441.003 155.086 441.728C156.446 442.453 157.466 443.496 158.146 444.856L154.882 446.76C154.361 445.921 153.704 445.298 152.91 444.89C152.14 444.459 151.29 444.244 150.36 444.244C148.774 444.244 147.459 444.765 146.416 445.808C145.374 446.828 144.852 448.199 144.852 449.922C144.852 451.645 145.362 453.027 146.382 454.07C147.425 455.09 148.751 455.6 150.36 455.6C151.29 455.6 152.14 455.396 152.91 454.988C153.704 454.557 154.361 453.923 154.882 453.084L158.146 454.988C157.444 456.348 156.412 457.402 155.052 458.15C153.715 458.875 152.162 459.238 150.394 459.238ZM169.066 451.214L165.904 454.206V459H161.654V433.772H165.904V449.004L174.71 440.844H179.81L172.228 448.46L180.524 459H175.356L169.066 451.214ZM189.873 440.64C192.548 440.64 194.588 441.286 195.993 442.578C197.421 443.847 198.135 445.774 198.135 448.358V459H194.123V456.79C193.602 457.583 192.854 458.195 191.879 458.626C190.927 459.034 189.771 459.238 188.411 459.238C187.051 459.238 185.861 459.011 184.841 458.558C183.821 458.082 183.028 457.436 182.461 456.62C181.917 455.781 181.645 454.841 181.645 453.798C181.645 452.166 182.246 450.863 183.447 449.888C184.671 448.891 186.587 448.392 189.193 448.392H193.885V448.12C193.885 446.851 193.5 445.876 192.729 445.196C191.981 444.516 190.859 444.176 189.363 444.176C188.343 444.176 187.335 444.335 186.337 444.652C185.363 444.969 184.535 445.411 183.855 445.978L182.189 442.884C183.141 442.159 184.286 441.603 185.623 441.218C186.961 440.833 188.377 440.64 189.873 440.64ZM189.295 456.144C190.361 456.144 191.301 455.906 192.117 455.43C192.956 454.931 193.545 454.229 193.885 453.322V451.214H189.499C187.051 451.214 185.827 452.019 185.827 453.628C185.827 454.399 186.133 455.011 186.745 455.464C187.357 455.917 188.207 456.144 189.295 456.144ZM214.504 458.014C214.005 458.422 213.393 458.728 212.668 458.932C211.965 459.136 211.217 459.238 210.424 459.238C208.429 459.238 206.888 458.717 205.8 457.674C204.712 456.631 204.168 455.113 204.168 453.118V444.38H201.176V440.98H204.168V436.832H208.418V440.98H213.28V444.38H208.418V453.016C208.418 453.9 208.633 454.58 209.064 455.056C209.494 455.509 210.118 455.736 210.934 455.736C211.886 455.736 212.679 455.487 213.314 454.988L214.504 458.014ZM228.302 440.64C230.591 440.64 232.427 441.309 233.81 442.646C235.193 443.983 235.884 445.967 235.884 448.596V459H231.634V449.14C231.634 447.553 231.26 446.363 230.512 445.57C229.764 444.754 228.699 444.346 227.316 444.346C225.752 444.346 224.517 444.822 223.61 445.774C222.703 446.703 222.25 448.052 222.25 449.82V459H218V433.772H222.25V442.952C222.953 442.204 223.814 441.637 224.834 441.252C225.877 440.844 227.033 440.64 228.302 440.64ZM249.601 459.238C247.765 459.238 246.111 458.841 244.637 458.048C243.164 457.255 242.008 456.155 241.169 454.75C240.353 453.322 239.945 451.713 239.945 449.922C239.945 448.131 240.353 446.533 241.169 445.128C242.008 443.723 243.164 442.623 244.637 441.83C246.111 441.037 247.765 440.64 249.601 440.64C251.46 440.64 253.126 441.037 254.599 441.83C256.073 442.623 257.217 443.723 258.033 445.128C258.872 446.533 259.291 448.131 259.291 449.922C259.291 451.713 258.872 453.322 258.033 454.75C257.217 456.155 256.073 457.255 254.599 458.048C253.126 458.841 251.46 459.238 249.601 459.238ZM249.601 455.6C251.165 455.6 252.457 455.079 253.477 454.036C254.497 452.993 255.007 451.622 255.007 449.922C255.007 448.222 254.497 446.851 253.477 445.808C252.457 444.765 251.165 444.244 249.601 444.244C248.037 444.244 246.745 444.765 245.725 445.808C244.728 446.851 244.229 448.222 244.229 449.922C244.229 451.622 244.728 452.993 245.725 454.036C246.745 455.079 248.037 455.6 249.601 455.6ZM273.657 440.64C275.947 440.64 277.783 441.309 279.165 442.646C280.548 443.983 281.239 445.967 281.239 448.596V459H276.989V449.14C276.989 447.553 276.615 446.363 275.867 445.57C275.119 444.754 274.054 444.346 272.671 444.346C271.107 444.346 269.872 444.822 268.965 445.774C268.059 446.703 267.605 448.052 267.605 449.82V459H263.355V440.844H267.401V443.19C268.104 442.351 268.988 441.717 270.053 441.286C271.119 440.855 272.32 440.64 273.657 440.64ZM304.867 445.026C307.066 445.298 308.743 446.046 309.899 447.27C311.055 448.494 311.633 450.024 311.633 451.86C311.633 453.243 311.282 454.501 310.579 455.634C309.877 456.767 308.811 457.674 307.383 458.354C305.978 459.011 304.255 459.34 302.215 459.34C300.515 459.34 298.872 459.102 297.285 458.626C295.721 458.127 294.384 457.447 293.273 456.586L295.177 453.152C296.039 453.877 297.081 454.455 298.305 454.886C299.552 455.294 300.833 455.498 302.147 455.498C303.711 455.498 304.935 455.181 305.819 454.546C306.726 453.889 307.179 453.005 307.179 451.894C307.179 450.783 306.749 449.922 305.887 449.31C305.049 448.675 303.757 448.358 302.011 448.358H299.835V445.332L305.241 438.906H294.429V435.2H310.647V438.158L304.867 445.026ZM317.176 459.238C316.406 459.238 315.748 458.977 315.204 458.456C314.66 457.912 314.388 457.232 314.388 456.416C314.388 455.577 314.649 454.897 315.17 454.376C315.714 453.855 316.383 453.594 317.176 453.594C317.97 453.594 318.627 453.855 319.148 454.376C319.692 454.897 319.964 455.577 319.964 456.416C319.964 457.232 319.692 457.912 319.148 458.456C318.604 458.977 317.947 459.238 317.176 459.238ZM332.355 459.34C330.451 459.34 328.751 458.864 327.255 457.912C325.759 456.937 324.58 455.532 323.719 453.696C322.857 451.837 322.427 449.639 322.427 447.1C322.427 444.561 322.857 442.374 323.719 440.538C324.58 438.679 325.759 437.274 327.255 436.322C328.751 435.347 330.451 434.86 332.355 434.86C334.259 434.86 335.959 435.347 337.455 436.322C338.973 437.274 340.163 438.679 341.025 440.538C341.886 442.374 342.317 444.561 342.317 447.1C342.317 449.639 341.886 451.837 341.025 453.696C340.163 455.532 338.973 456.937 337.455 457.912C335.959 458.864 334.259 459.34 332.355 459.34ZM332.355 455.498C334.055 455.498 335.392 454.795 336.367 453.39C337.364 451.985 337.863 449.888 337.863 447.1C337.863 444.312 337.364 442.215 336.367 440.81C335.392 439.405 334.055 438.702 332.355 438.702C330.677 438.702 329.34 439.405 328.343 440.81C327.368 442.215 326.881 444.312 326.881 447.1C326.881 449.888 327.368 451.985 328.343 453.39C329.34 454.795 330.677 455.498 332.355 455.498ZM362.928 440.64C365.603 440.64 367.643 441.286 369.048 442.578C370.476 443.847 371.19 445.774 371.19 448.358V459H367.178V456.79C366.657 457.583 365.909 458.195 364.934 458.626C363.982 459.034 362.826 459.238 361.466 459.238C360.106 459.238 358.916 459.011 357.896 458.558C356.876 458.082 356.083 457.436 355.516 456.62C354.972 455.781 354.7 454.841 354.7 453.798C354.7 452.166 355.301 450.863 356.502 449.888C357.726 448.891 359.641 448.392 362.248 448.392H366.94V448.12C366.94 446.851 366.555 445.876 365.784 445.196C365.036 444.516 363.914 444.176 362.418 444.176C361.398 444.176 360.389 444.335 359.392 444.652C358.417 444.969 357.59 445.411 356.91 445.978L355.244 442.884C356.196 442.159 357.341 441.603 358.678 441.218C360.015 440.833 361.432 440.64 362.928 440.64ZM362.35 456.144C363.415 456.144 364.356 455.906 365.172 455.43C366.011 454.931 366.6 454.229 366.94 453.322V451.214H362.554C360.106 451.214 358.882 452.019 358.882 453.628C358.882 454.399 359.188 455.011 359.8 455.464C360.412 455.917 361.262 456.144 362.35 456.144ZM384.056 451.214L380.894 454.206V459H376.644V433.772H380.894V449.004L389.7 440.844H394.8L387.218 448.46L395.514 459H390.346L384.056 451.214ZM404.864 440.64C407.538 440.64 409.578 441.286 410.984 442.578C412.412 443.847 413.126 445.774 413.126 448.358V459H409.114V456.79C408.592 457.583 407.844 458.195 406.87 458.626C405.918 459.034 404.762 459.238 403.402 459.238C402.042 459.238 400.852 459.011 399.832 458.558C398.812 458.082 398.018 457.436 397.452 456.62C396.908 455.781 396.636 454.841 396.636 453.798C396.636 452.166 397.236 450.863 398.438 449.888C399.662 448.891 401.577 448.392 404.184 448.392H408.876V448.12C408.876 446.851 408.49 445.876 407.72 445.196C406.972 444.516 405.85 444.176 404.354 444.176C403.334 444.176 402.325 444.335 401.328 444.652C400.353 444.969 399.526 445.411 398.846 445.978L397.18 442.884C398.132 442.159 399.276 441.603 400.614 441.218C401.951 440.833 403.368 440.64 404.864 440.64ZM404.286 456.144C405.351 456.144 406.292 455.906 407.108 455.43C407.946 454.931 408.536 454.229 408.876 453.322V451.214H404.49C402.042 451.214 400.818 452.019 400.818 453.628C400.818 454.399 401.124 455.011 401.736 455.464C402.348 455.917 403.198 456.144 404.286 456.144ZM428.882 440.64C431.171 440.64 433.007 441.309 434.39 442.646C435.773 443.983 436.464 445.967 436.464 448.596V459H432.214V449.14C432.214 447.553 431.84 446.363 431.092 445.57C430.344 444.754 429.279 444.346 427.896 444.346C426.332 444.346 425.097 444.822 424.19 445.774C423.283 446.703 422.83 448.052 422.83 449.82V459H418.58V440.844H422.626V443.19C423.329 442.351 424.213 441.717 425.278 441.286C426.343 440.855 427.545 440.64 428.882 440.64ZM59.4235 474.772V500H55.3435V497.654C54.6408 498.515 53.7682 499.161 52.7255 499.592C51.7055 500.023 50.5722 500.238 49.3255 500.238C47.5802 500.238 46.0048 499.853 44.5995 499.082C43.2168 498.311 42.1288 497.223 41.3355 495.818C40.5422 494.39 40.1455 492.758 40.1455 490.922C40.1455 489.086 40.5422 487.465 41.3355 486.06C42.1288 484.655 43.2168 483.567 44.5995 482.796C46.0048 482.025 47.5802 481.64 49.3255 481.64C50.5268 481.64 51.6262 481.844 52.6235 482.252C53.6209 482.66 54.4708 483.272 55.1735 484.088V474.772H59.4235ZM49.8355 496.6C50.8555 496.6 51.7735 496.373 52.5895 495.92C53.4055 495.444 54.0515 494.775 54.5275 493.914C55.0035 493.053 55.2415 492.055 55.2415 490.922C55.2415 489.789 55.0035 488.791 54.5275 487.93C54.0515 487.069 53.4055 486.411 52.5895 485.958C51.7735 485.482 50.8555 485.244 49.8355 485.244C48.8155 485.244 47.8975 485.482 47.0815 485.958C46.2655 486.411 45.6195 487.069 45.1435 487.93C44.6675 488.791 44.4295 489.789 44.4295 490.922C44.4295 492.055 44.6675 493.053 45.1435 493.914C45.6195 494.775 46.2655 495.444 47.0815 495.92C47.8975 496.373 48.8155 496.6 49.8355 496.6ZM64.9833 481.844H69.2333V500H64.9833V481.844ZM67.1253 478.852C66.3546 478.852 65.7086 478.614 65.1873 478.138C64.666 477.639 64.4053 477.027 64.4053 476.302C64.4053 475.577 64.666 474.976 65.1873 474.5C65.7086 474.001 66.3546 473.752 67.1253 473.752C67.896 473.752 68.542 473.99 69.0633 474.466C69.5846 474.919 69.8453 475.497 69.8453 476.2C69.8453 476.948 69.5846 477.583 69.0633 478.104C68.5646 478.603 67.9186 478.852 67.1253 478.852ZM80.4214 500.238C78.9481 500.238 77.5088 500.045 76.1034 499.66C74.6981 499.275 73.5761 498.787 72.7374 498.198L74.3694 494.968C75.1854 495.512 76.1601 495.954 77.2934 496.294C78.4494 496.611 79.5828 496.77 80.6934 496.77C83.2321 496.77 84.5014 496.101 84.5014 494.764C84.5014 494.129 84.1728 493.687 83.5154 493.438C82.8808 493.189 81.8494 492.951 80.4214 492.724C78.9254 492.497 77.7014 492.237 76.7494 491.942C75.8201 491.647 75.0041 491.137 74.3014 490.412C73.6214 489.664 73.2814 488.633 73.2814 487.318C73.2814 485.595 73.9954 484.224 75.4234 483.204C76.8741 482.161 78.8234 481.64 81.2714 481.64C82.5181 481.64 83.7648 481.787 85.0114 482.082C86.2581 482.354 87.2781 482.728 88.0714 483.204L86.4394 486.434C84.8981 485.527 83.1641 485.074 81.2374 485.074C79.9908 485.074 79.0388 485.267 78.3814 485.652C77.7468 486.015 77.4294 486.502 77.4294 487.114C77.4294 487.794 77.7694 488.281 78.4494 488.576C79.1521 488.848 80.2288 489.109 81.6794 489.358C83.1301 489.585 84.3201 489.845 85.2494 490.14C86.1788 490.435 86.9721 490.933 87.6294 491.636C88.3094 492.339 88.6494 493.336 88.6494 494.628C88.6494 496.328 87.9128 497.688 86.4394 498.708C84.9661 499.728 82.9601 500.238 80.4214 500.238ZM99.2455 481.64C101.92 481.64 103.96 482.286 105.365 483.578C106.793 484.847 107.507 486.774 107.507 489.358V500H103.495V497.79C102.974 498.583 102.226 499.195 101.251 499.626C100.299 500.034 99.1435 500.238 97.7835 500.238C96.4235 500.238 95.2335 500.011 94.2135 499.558C93.1935 499.082 92.4002 498.436 91.8335 497.62C91.2895 496.781 91.0175 495.841 91.0175 494.798C91.0175 493.166 91.6182 491.863 92.8195 490.888C94.0435 489.891 95.9588 489.392 98.5655 489.392H103.257V489.12C103.257 487.851 102.872 486.876 102.101 486.196C101.353 485.516 100.231 485.176 98.7355 485.176C97.7155 485.176 96.7068 485.335 95.7095 485.652C94.7348 485.969 93.9075 486.411 93.2275 486.978L91.5615 483.884C92.5135 483.159 93.6582 482.603 94.9955 482.218C96.3328 481.833 97.7495 481.64 99.2455 481.64ZM98.6675 497.144C99.7328 497.144 100.673 496.906 101.489 496.43C102.328 495.931 102.917 495.229 103.257 494.322V492.214H98.8715C96.4235 492.214 95.1995 493.019 95.1995 494.628C95.1995 495.399 95.5055 496.011 96.1175 496.464C96.7295 496.917 97.5795 497.144 98.6675 497.144ZM112.962 474.772H117.212V500H112.962V474.772ZM140.368 481.844V500H136.322V497.688C135.642 498.504 134.792 499.139 133.772 499.592C132.752 500.023 131.653 500.238 130.474 500.238C128.049 500.238 126.133 499.569 124.728 498.232C123.345 496.872 122.654 494.866 122.654 492.214V481.844H126.904V491.636C126.904 493.268 127.267 494.492 127.992 495.308C128.74 496.101 129.794 496.498 131.154 496.498C132.673 496.498 133.874 496.033 134.758 495.104C135.665 494.152 136.118 492.792 136.118 491.024V481.844H140.368ZM149.979 484.496C151.203 482.592 153.356 481.64 156.439 481.64V485.686C156.076 485.618 155.747 485.584 155.453 485.584C153.798 485.584 152.506 486.071 151.577 487.046C150.647 487.998 150.183 489.381 150.183 491.194V500H145.933V481.844H149.979V484.496ZM167.456 492.214L164.294 495.206V500H160.044V474.772H164.294V490.004L173.1 481.844H178.2L170.618 489.46L178.914 500H173.746L167.456 492.214ZM188.263 481.64C190.938 481.64 192.978 482.286 194.383 483.578C195.811 484.847 196.525 486.774 196.525 489.358V500H192.513V497.79C191.992 498.583 191.244 499.195 190.269 499.626C189.317 500.034 188.161 500.238 186.801 500.238C185.441 500.238 184.251 500.011 183.231 499.558C182.211 499.082 181.418 498.436 180.851 497.62C180.307 496.781 180.035 495.841 180.035 494.798C180.035 493.166 180.636 491.863 181.837 490.888C183.061 489.891 184.976 489.392 187.583 489.392H192.275V489.12C192.275 487.851 191.89 486.876 191.119 486.196C190.371 485.516 189.249 485.176 187.753 485.176C186.733 485.176 185.724 485.335 184.727 485.652C183.752 485.969 182.925 486.411 182.245 486.978L180.579 483.884C181.531 483.159 182.676 482.603 184.013 482.218C185.35 481.833 186.767 481.64 188.263 481.64ZM187.685 497.144C188.75 497.144 189.691 496.906 190.507 496.43C191.346 495.931 191.935 495.229 192.275 494.322V492.214H187.889C185.441 492.214 184.217 493.019 184.217 494.628C184.217 495.399 184.523 496.011 185.135 496.464C185.747 496.917 186.597 497.144 187.685 497.144ZM212.281 481.64C214.571 481.64 216.407 482.309 217.789 483.646C219.172 484.983 219.863 486.967 219.863 489.596V500H215.613V490.14C215.613 488.553 215.239 487.363 214.491 486.57C213.743 485.754 212.678 485.346 211.295 485.346C209.731 485.346 208.496 485.822 207.589 486.774C206.683 487.703 206.229 489.052 206.229 490.82V500H201.979V481.844H206.025V484.19C206.728 483.351 207.612 482.717 208.677 482.286C209.743 481.855 210.944 481.64 212.281 481.64ZM242.063 492.214L238.901 495.206V500H234.651V474.772H238.901V490.004L247.707 481.844H252.807L245.225 489.46L253.521 500H248.353L242.063 492.214ZM272.571 491.024C272.571 491.319 272.548 491.738 272.503 492.282H258.257C258.506 493.619 259.152 494.685 260.195 495.478C261.26 496.249 262.575 496.634 264.139 496.634C266.134 496.634 267.777 495.977 269.069 494.662L271.347 497.28C270.531 498.255 269.5 498.991 268.253 499.49C267.006 499.989 265.601 500.238 264.037 500.238C262.042 500.238 260.286 499.841 258.767 499.048C257.248 498.255 256.07 497.155 255.231 495.75C254.415 494.322 254.007 492.713 254.007 490.922C254.007 489.154 254.404 487.567 255.197 486.162C256.013 484.734 257.135 483.623 258.563 482.83C259.991 482.037 261.6 481.64 263.391 481.64C265.159 481.64 266.734 482.037 268.117 482.83C269.522 483.601 270.61 484.7 271.381 486.128C272.174 487.533 272.571 489.165 272.571 491.024ZM263.391 485.04C262.031 485.04 260.875 485.448 259.923 486.264C258.994 487.057 258.427 488.123 258.223 489.46H268.525C268.344 488.145 267.788 487.08 266.859 486.264C265.93 485.448 264.774 485.04 263.391 485.04ZM296.114 481.64C297.882 481.64 299.457 482.025 300.84 482.796C302.245 483.567 303.344 484.655 304.138 486.06C304.931 487.465 305.328 489.086 305.328 490.922C305.328 492.758 304.931 494.39 304.138 495.818C303.344 497.223 302.245 498.311 300.84 499.082C299.457 499.853 297.882 500.238 296.114 500.238C293.666 500.238 291.728 499.422 290.3 497.79V506.596H286.05V481.844H290.096V484.224C290.798 483.363 291.66 482.717 292.68 482.286C293.722 481.855 294.867 481.64 296.114 481.64ZM295.638 496.6C297.202 496.6 298.482 496.079 299.48 495.036C300.5 493.993 301.01 492.622 301.01 490.922C301.01 489.222 300.5 487.851 299.48 486.808C298.482 485.765 297.202 485.244 295.638 485.244C294.618 485.244 293.7 485.482 292.884 485.958C292.068 486.411 291.422 487.069 290.946 487.93C290.47 488.791 290.232 489.789 290.232 490.922C290.232 492.055 290.47 493.053 290.946 493.914C291.422 494.775 292.068 495.444 292.884 495.92C293.7 496.373 294.618 496.6 295.638 496.6ZM326.426 491.024C326.426 491.319 326.404 491.738 326.358 492.282H312.112C312.362 493.619 313.008 494.685 314.05 495.478C315.116 496.249 316.43 496.634 317.994 496.634C319.989 496.634 321.632 495.977 322.924 494.662L325.202 497.28C324.386 498.255 323.355 498.991 322.108 499.49C320.862 499.989 319.456 500.238 317.892 500.238C315.898 500.238 314.141 499.841 312.622 499.048C311.104 498.255 309.925 497.155 309.086 495.75C308.27 494.322 307.862 492.713 307.862 490.922C307.862 489.154 308.259 487.567 309.052 486.162C309.868 484.734 310.99 483.623 312.418 482.83C313.846 482.037 315.456 481.64 317.246 481.64C319.014 481.64 320.59 482.037 321.972 482.83C323.378 483.601 324.466 484.7 325.236 486.128C326.03 487.533 326.426 489.165 326.426 491.024ZM317.246 485.04C315.886 485.04 314.73 485.448 313.778 486.264C312.849 487.057 312.282 488.123 312.078 489.46H322.38C322.199 488.145 321.644 487.08 320.714 486.264C319.785 485.448 318.629 485.04 317.246 485.04ZM334.555 484.496C335.779 482.592 337.932 481.64 341.015 481.64V485.686C340.652 485.618 340.323 485.584 340.029 485.584C338.374 485.584 337.082 486.071 336.153 487.046C335.223 487.998 334.759 489.381 334.759 491.194V500H330.509V481.844H334.555V484.496ZM362.364 481.844V500H358.318V497.688C357.638 498.504 356.788 499.139 355.768 499.592C354.748 500.023 353.649 500.238 352.47 500.238C350.045 500.238 348.129 499.569 346.724 498.232C345.341 496.872 344.65 494.866 344.65 492.214V481.844H348.9V491.636C348.9 493.268 349.263 494.492 349.988 495.308C350.736 496.101 351.79 496.498 353.15 496.498C354.669 496.498 355.87 496.033 356.754 495.104C357.661 494.152 358.114 492.792 358.114 491.024V481.844H362.364ZM373.539 500.238C372.065 500.238 370.626 500.045 369.221 499.66C367.815 499.275 366.693 498.787 365.855 498.198L367.487 494.968C368.303 495.512 369.277 495.954 370.411 496.294C371.567 496.611 372.7 496.77 373.811 496.77C376.349 496.77 377.619 496.101 377.619 494.764C377.619 494.129 377.29 493.687 376.633 493.438C375.998 493.189 374.967 492.951 373.539 492.724C372.043 492.497 370.819 492.237 369.867 491.942C368.937 491.647 368.121 491.137 367.419 490.412C366.739 489.664 366.399 488.633 366.399 487.318C366.399 485.595 367.113 484.224 368.541 483.204C369.991 482.161 371.941 481.64 374.389 481.64C375.635 481.64 376.882 481.787 378.129 482.082C379.375 482.354 380.395 482.728 381.189 483.204L379.557 486.434C378.015 485.527 376.281 485.074 374.355 485.074C373.108 485.074 372.156 485.267 371.499 485.652C370.864 486.015 370.547 486.502 370.547 487.114C370.547 487.794 370.887 488.281 371.567 488.576C372.269 488.848 373.346 489.109 374.797 489.358C376.247 489.585 377.437 489.845 378.367 490.14C379.296 490.435 380.089 490.933 380.747 491.636C381.427 492.339 381.767 493.336 381.767 494.628C381.767 496.328 381.03 497.688 379.557 498.708C378.083 499.728 376.077 500.238 373.539 500.238ZM392.363 481.64C395.037 481.64 397.077 482.286 398.483 483.578C399.911 484.847 400.625 486.774 400.625 489.358V500H396.613V497.79C396.091 498.583 395.343 499.195 394.369 499.626C393.417 500.034 392.261 500.238 390.901 500.238C389.541 500.238 388.351 500.011 387.331 499.558C386.311 499.082 385.517 498.436 384.951 497.62C384.407 496.781 384.135 495.841 384.135 494.798C384.135 493.166 384.735 491.863 385.937 490.888C387.161 489.891 389.076 489.392 391.683 489.392H396.375V489.12C396.375 487.851 395.989 486.876 395.219 486.196C394.471 485.516 393.349 485.176 391.853 485.176C390.833 485.176 389.824 485.335 388.827 485.652C387.852 485.969 387.025 486.411 386.345 486.978L384.679 483.884C385.631 483.159 386.775 482.603 388.113 482.218C389.45 481.833 390.867 481.64 392.363 481.64ZM391.785 497.144C392.85 497.144 393.791 496.906 394.607 496.43C395.445 495.931 396.035 495.229 396.375 494.322V492.214H391.989C389.541 492.214 388.317 493.019 388.317 494.628C388.317 495.399 388.623 496.011 389.235 496.464C389.847 496.917 390.697 497.144 391.785 497.144ZM416.381 481.64C418.67 481.64 420.506 482.309 421.889 483.646C423.272 484.983 423.963 486.967 423.963 489.596V500H419.713V490.14C419.713 488.553 419.339 487.363 418.591 486.57C417.843 485.754 416.778 485.346 415.395 485.346C413.831 485.346 412.596 485.822 411.689 486.774C410.782 487.703 410.329 489.052 410.329 490.82V500H406.079V474.772H410.329V483.952C411.032 483.204 411.893 482.637 412.913 482.252C413.956 481.844 415.112 481.64 416.381 481.64ZM436.29 481.64C438.965 481.64 441.005 482.286 442.41 483.578C443.838 484.847 444.552 486.774 444.552 489.358V500H440.54V497.79C440.019 498.583 439.271 499.195 438.296 499.626C437.344 500.034 436.188 500.238 434.828 500.238C433.468 500.238 432.278 500.011 431.258 499.558C430.238 499.082 429.445 498.436 428.878 497.62C428.334 496.781 428.062 495.841 428.062 494.798C428.062 493.166 428.663 491.863 429.864 490.888C431.088 489.891 433.004 489.392 435.61 489.392H440.302V489.12C440.302 487.851 439.917 486.876 439.146 486.196C438.398 485.516 437.276 485.176 435.78 485.176C434.76 485.176 433.752 485.335 432.754 485.652C431.78 485.969 430.952 486.411 430.272 486.978L428.606 483.884C429.558 483.159 430.703 482.603 432.04 482.218C433.378 481.833 434.794 481.64 436.29 481.64ZM435.712 497.144C436.778 497.144 437.718 496.906 438.534 496.43C439.373 495.931 439.962 495.229 440.302 494.322V492.214H435.916C433.468 492.214 432.244 493.019 432.244 494.628C432.244 495.399 432.55 496.011 433.162 496.464C433.774 496.917 434.624 497.144 435.712 497.144ZM456.943 481.64C459.617 481.64 461.657 482.286 463.063 483.578C464.491 484.847 465.205 486.774 465.205 489.358V500H461.193V497.79C460.671 498.583 459.923 499.195 458.949 499.626C457.997 500.034 456.841 500.238 455.481 500.238C454.121 500.238 452.931 500.011 451.911 499.558C450.891 499.082 450.097 498.436 449.531 497.62C448.987 496.781 448.715 495.841 448.715 494.798C448.715 493.166 449.315 491.863 450.517 490.888C451.741 489.891 453.656 489.392 456.263 489.392H460.955V489.12C460.955 487.851 460.569 486.876 459.799 486.196C459.051 485.516 457.929 485.176 456.433 485.176C455.413 485.176 454.404 485.335 453.407 485.652C452.432 485.969 451.605 486.411 450.925 486.978L449.259 483.884C450.211 483.159 451.355 482.603 452.693 482.218C454.03 481.833 455.447 481.64 456.943 481.64ZM456.365 497.144C457.43 497.144 458.371 496.906 459.187 496.43C460.025 495.931 460.615 495.229 460.955 494.322V492.214H456.569C454.121 492.214 452.897 493.019 452.897 494.628C452.897 495.399 453.203 496.011 453.815 496.464C454.427 496.917 455.277 497.144 456.365 497.144ZM480.961 481.64C483.25 481.64 485.086 482.309 486.469 483.646C487.852 484.983 488.543 486.967 488.543 489.596V500H484.293V490.14C484.293 488.553 483.919 487.363 483.171 486.57C482.423 485.754 481.358 485.346 479.975 485.346C478.411 485.346 477.176 485.822 476.269 486.774C475.362 487.703 474.909 489.052 474.909 490.82V500H470.659V481.844H474.705V484.19C475.408 483.351 476.292 482.717 477.357 482.286C478.422 481.855 479.624 481.64 480.961 481.64ZM63.7369 541.238C62.2635 541.238 60.8242 541.045 59.4189 540.66C58.0135 540.275 56.8915 539.787 56.0529 539.198L57.6849 535.968C58.5009 536.512 59.4755 536.954 60.6089 537.294C61.7649 537.611 62.8982 537.77 64.0089 537.77C66.5475 537.77 67.8169 537.101 67.8169 535.764C67.8169 535.129 67.4882 534.687 66.8309 534.438C66.1962 534.189 65.1649 533.951 63.7369 533.724C62.2409 533.497 61.0169 533.237 60.0649 532.942C59.1355 532.647 58.3195 532.137 57.6169 531.412C56.9369 530.664 56.5969 529.633 56.5969 528.318C56.5969 526.595 57.3109 525.224 58.7389 524.204C60.1895 523.161 62.1389 522.64 64.5869 522.64C65.8335 522.64 67.0802 522.787 68.3269 523.082C69.5735 523.354 70.5935 523.728 71.3869 524.204L69.7549 527.434C68.2135 526.527 66.4795 526.074 64.5529 526.074C63.3062 526.074 62.3542 526.267 61.6969 526.652C61.0622 527.015 60.7449 527.502 60.7449 528.114C60.7449 528.794 61.0849 529.281 61.7649 529.576C62.4675 529.848 63.5442 530.109 64.9949 530.358C66.4455 530.585 67.6355 530.845 68.5649 531.14C69.4942 531.435 70.2875 531.933 70.9449 532.636C71.6249 533.339 71.9649 534.336 71.9649 535.628C71.9649 537.328 71.2282 538.688 69.7549 539.708C68.2815 540.728 66.2755 541.238 63.7369 541.238ZM85.6889 522.64C87.4569 522.64 89.0322 523.025 90.4149 523.796C91.8202 524.567 92.9196 525.655 93.7129 527.06C94.5062 528.465 94.9029 530.086 94.9029 531.922C94.9029 533.758 94.5062 535.39 93.7129 536.818C92.9196 538.223 91.8202 539.311 90.4149 540.082C89.0322 540.853 87.4569 541.238 85.6889 541.238C83.2409 541.238 81.3029 540.422 79.8749 538.79V547.596H75.6249V522.844H79.6709V525.224C80.3736 524.363 81.2349 523.717 82.2549 523.286C83.2976 522.855 84.4422 522.64 85.6889 522.64ZM85.2129 537.6C86.7769 537.6 88.0576 537.079 89.0549 536.036C90.0749 534.993 90.5849 533.622 90.5849 531.922C90.5849 530.222 90.0749 528.851 89.0549 527.808C88.0576 526.765 86.7769 526.244 85.2129 526.244C84.1929 526.244 83.2749 526.482 82.4589 526.958C81.6429 527.411 80.9969 528.069 80.5209 528.93C80.0449 529.791 79.8069 530.789 79.8069 531.922C79.8069 533.055 80.0449 534.053 80.5209 534.914C80.9969 535.775 81.6429 536.444 82.4589 536.92C83.2749 537.373 84.1929 537.6 85.2129 537.6ZM107.094 541.238C105.258 541.238 103.603 540.841 102.13 540.048C100.656 539.255 99.5002 538.155 98.6615 536.75C97.8455 535.322 97.4375 533.713 97.4375 531.922C97.4375 530.131 97.8455 528.533 98.6615 527.128C99.5002 525.723 100.656 524.623 102.13 523.83C103.603 523.037 105.258 522.64 107.094 522.64C108.952 522.64 110.618 523.037 112.092 523.83C113.565 524.623 114.71 525.723 115.526 527.128C116.364 528.533 116.784 530.131 116.784 531.922C116.784 533.713 116.364 535.322 115.526 536.75C114.71 538.155 113.565 539.255 112.092 540.048C110.618 540.841 108.952 541.238 107.094 541.238ZM107.094 537.6C108.658 537.6 109.95 537.079 110.97 536.036C111.99 534.993 112.5 533.622 112.5 531.922C112.5 530.222 111.99 528.851 110.97 527.808C109.95 526.765 108.658 526.244 107.094 526.244C105.53 526.244 104.238 526.765 103.218 527.808C102.22 528.851 101.722 530.222 101.722 531.922C101.722 533.622 102.22 534.993 103.218 536.036C104.238 537.079 105.53 537.6 107.094 537.6ZM131.15 522.64C133.439 522.64 135.275 523.309 136.658 524.646C138.04 525.983 138.732 527.967 138.732 530.596V541H134.482V531.14C134.482 529.553 134.108 528.363 133.36 527.57C132.612 526.754 131.546 526.346 130.164 526.346C128.6 526.346 127.364 526.822 126.458 527.774C125.551 528.703 125.098 530.052 125.098 531.82V541H120.848V522.844H124.894V525.19C125.596 524.351 126.48 523.717 127.546 523.286C128.611 522.855 129.812 522.64 131.15 522.64ZM149.733 541.238C148.26 541.238 146.82 541.045 145.415 540.66C144.01 540.275 142.888 539.787 142.049 539.198L143.681 535.968C144.497 536.512 145.472 536.954 146.605 537.294C147.761 537.611 148.894 537.77 150.005 537.77C152.544 537.77 153.813 537.101 153.813 535.764C153.813 535.129 153.484 534.687 152.827 534.438C152.192 534.189 151.161 533.951 149.733 533.724C148.237 533.497 147.013 533.237 146.061 532.942C145.132 532.647 144.316 532.137 143.613 531.412C142.933 530.664 142.593 529.633 142.593 528.318C142.593 526.595 143.307 525.224 144.735 524.204C146.186 523.161 148.135 522.64 150.583 522.64C151.83 522.64 153.076 522.787 154.323 523.082C155.57 523.354 156.59 523.728 157.383 524.204L155.751 527.434C154.21 526.527 152.476 526.074 150.549 526.074C149.302 526.074 148.35 526.267 147.693 526.652C147.058 527.015 146.741 527.502 146.741 528.114C146.741 528.794 147.081 529.281 147.761 529.576C148.464 529.848 149.54 530.109 150.991 530.358C152.442 530.585 153.632 530.845 154.561 531.14C155.49 531.435 156.284 531.933 156.941 532.636C157.621 533.339 157.961 534.336 157.961 535.628C157.961 537.328 157.224 538.688 155.751 539.708C154.278 540.728 152.272 541.238 149.733 541.238ZM169.781 541.238C167.945 541.238 166.29 540.841 164.817 540.048C163.344 539.255 162.188 538.155 161.349 536.75C160.533 535.322 160.125 533.713 160.125 531.922C160.125 530.131 160.533 528.533 161.349 527.128C162.188 525.723 163.344 524.623 164.817 523.83C166.29 523.037 167.945 522.64 169.781 522.64C171.64 522.64 173.306 523.037 174.779 523.83C176.252 524.623 177.397 525.723 178.213 527.128C179.052 528.533 179.471 530.131 179.471 531.922C179.471 533.713 179.052 535.322 178.213 536.75C177.397 538.155 176.252 539.255 174.779 540.048C173.306 540.841 171.64 541.238 169.781 541.238ZM169.781 537.6C171.345 537.6 172.637 537.079 173.657 536.036C174.677 534.993 175.187 533.622 175.187 531.922C175.187 530.222 174.677 528.851 173.657 527.808C172.637 526.765 171.345 526.244 169.781 526.244C168.217 526.244 166.925 526.765 165.905 527.808C164.908 528.851 164.409 530.222 164.409 531.922C164.409 533.622 164.908 534.993 165.905 536.036C166.925 537.079 168.217 537.6 169.781 537.6ZM187.581 525.496C188.805 523.592 190.958 522.64 194.041 522.64V526.686C193.678 526.618 193.35 526.584 193.055 526.584C191.4 526.584 190.108 527.071 189.179 528.046C188.25 528.998 187.785 530.381 187.785 532.194V541H183.535V522.844H187.581V525.496ZM224.991 515.772V541H220.911V538.654C220.208 539.515 219.336 540.161 218.293 540.592C217.273 541.023 216.14 541.238 214.893 541.238C213.148 541.238 211.572 540.853 210.167 540.082C208.784 539.311 207.696 538.223 206.903 536.818C206.11 535.39 205.713 533.758 205.713 531.922C205.713 530.086 206.11 528.465 206.903 527.06C207.696 525.655 208.784 524.567 210.167 523.796C211.572 523.025 213.148 522.64 214.893 522.64C216.094 522.64 217.194 522.844 218.191 523.252C219.188 523.66 220.038 524.272 220.741 525.088V515.772H224.991ZM215.403 537.6C216.423 537.6 217.341 537.373 218.157 536.92C218.973 536.444 219.619 535.775 220.095 534.914C220.571 534.053 220.809 533.055 220.809 531.922C220.809 530.789 220.571 529.791 220.095 528.93C219.619 528.069 218.973 527.411 218.157 526.958C217.341 526.482 216.423 526.244 215.403 526.244C214.383 526.244 213.465 526.482 212.649 526.958C211.833 527.411 211.187 528.069 210.711 528.93C210.235 529.791 209.997 530.789 209.997 531.922C209.997 533.055 210.235 534.053 210.711 534.914C211.187 535.775 211.833 536.444 212.649 536.92C213.465 537.373 214.383 537.6 215.403 537.6ZM237.487 522.64C240.161 522.64 242.201 523.286 243.607 524.578C245.035 525.847 245.749 527.774 245.749 530.358V541H241.737V538.79C241.215 539.583 240.467 540.195 239.493 540.626C238.541 541.034 237.385 541.238 236.025 541.238C234.665 541.238 233.475 541.011 232.455 540.558C231.435 540.082 230.641 539.436 230.075 538.62C229.531 537.781 229.259 536.841 229.259 535.798C229.259 534.166 229.859 532.863 231.061 531.888C232.285 530.891 234.2 530.392 236.807 530.392H241.499V530.12C241.499 528.851 241.113 527.876 240.343 527.196C239.595 526.516 238.473 526.176 236.977 526.176C235.957 526.176 234.948 526.335 233.951 526.652C232.976 526.969 232.149 527.411 231.469 527.978L229.803 524.884C230.755 524.159 231.899 523.603 233.237 523.218C234.574 522.833 235.991 522.64 237.487 522.64ZM236.909 538.144C237.974 538.144 238.915 537.906 239.731 537.43C240.569 536.931 241.159 536.229 241.499 535.322V533.214H237.113C234.665 533.214 233.441 534.019 233.441 535.628C233.441 536.399 233.747 537.011 234.359 537.464C234.971 537.917 235.821 538.144 236.909 538.144ZM255.249 525.496C256.473 523.592 258.626 522.64 261.709 522.64V526.686C261.346 526.618 261.018 526.584 260.723 526.584C259.068 526.584 257.776 527.071 256.847 528.046C255.918 528.998 255.453 530.381 255.453 532.194V541H251.203V522.844H255.249V525.496ZM265.314 522.844H269.564V541H265.314V522.844ZM267.456 519.852C266.686 519.852 266.04 519.614 265.518 519.138C264.997 518.639 264.736 518.027 264.736 517.302C264.736 516.577 264.997 515.976 265.518 515.5C266.04 515.001 266.686 514.752 267.456 514.752C268.227 514.752 268.873 514.99 269.394 515.466C269.916 515.919 270.176 516.497 270.176 517.2C270.176 517.948 269.916 518.583 269.394 519.104C268.896 519.603 268.25 519.852 267.456 519.852ZM306.095 517.2V541H301.675V530.8H289.367V541H284.947V517.2H289.367V527.026H301.675V517.2H306.095ZM319 522.64C321.675 522.64 323.715 523.286 325.12 524.578C326.548 525.847 327.262 527.774 327.262 530.358V541H323.25V538.79C322.729 539.583 321.981 540.195 321.006 540.626C320.054 541.034 318.898 541.238 317.538 541.238C316.178 541.238 314.988 541.011 313.968 540.558C312.948 540.082 312.155 539.436 311.588 538.62C311.044 537.781 310.772 536.841 310.772 535.798C310.772 534.166 311.373 532.863 312.574 531.888C313.798 530.891 315.714 530.392 318.32 530.392H323.012V530.12C323.012 528.851 322.627 527.876 321.856 527.196C321.108 526.516 319.986 526.176 318.49 526.176C317.47 526.176 316.462 526.335 315.464 526.652C314.49 526.969 313.662 527.411 312.982 527.978L311.316 524.884C312.268 524.159 313.413 523.603 314.75 523.218C316.088 522.833 317.504 522.64 319 522.64ZM318.422 538.144C319.488 538.144 320.428 537.906 321.244 537.43C322.083 536.931 322.672 536.229 323.012 535.322V533.214H318.626C316.178 533.214 314.954 534.019 314.954 535.628C314.954 536.399 315.26 537.011 315.872 537.464C316.484 537.917 317.334 538.144 318.422 538.144ZM341.213 541.238C339.331 541.238 337.643 540.841 336.147 540.048C334.651 539.255 333.483 538.155 332.645 536.75C331.806 535.322 331.387 533.713 331.387 531.922C331.387 530.131 331.806 528.533 332.645 527.128C333.483 525.723 334.639 524.623 336.113 523.83C337.609 523.037 339.309 522.64 341.213 522.64C343.003 522.64 344.567 523.003 345.905 523.728C347.265 524.453 348.285 525.496 348.965 526.856L345.701 528.76C345.179 527.921 344.522 527.298 343.729 526.89C342.958 526.459 342.108 526.244 341.179 526.244C339.592 526.244 338.277 526.765 337.235 527.808C336.192 528.828 335.671 530.199 335.671 531.922C335.671 533.645 336.181 535.027 337.201 536.07C338.243 537.09 339.569 537.6 341.179 537.6C342.108 537.6 342.958 537.396 343.729 536.988C344.522 536.557 345.179 535.923 345.701 535.084L348.965 536.988C348.262 538.348 347.231 539.402 345.871 540.15C344.533 540.875 342.981 541.238 341.213 541.238ZM359.885 533.214L356.723 536.206V541H352.473V515.772H356.723V531.004L365.529 522.844H370.629L363.047 530.46L371.343 541H366.175L359.885 533.214ZM380.692 522.64C383.366 522.64 385.406 523.286 386.812 524.578C388.24 525.847 388.954 527.774 388.954 530.358V541H384.942V538.79C384.42 539.583 383.672 540.195 382.698 540.626C381.746 541.034 380.59 541.238 379.23 541.238C377.87 541.238 376.68 541.011 375.66 540.558C374.64 540.082 373.846 539.436 373.28 538.62C372.736 537.781 372.464 536.841 372.464 535.798C372.464 534.166 373.064 532.863 374.266 531.888C375.49 530.891 377.405 530.392 380.012 530.392H384.704V530.12C384.704 528.851 384.318 527.876 383.548 527.196C382.8 526.516 381.678 526.176 380.182 526.176C379.162 526.176 378.153 526.335 377.156 526.652C376.181 526.969 375.354 527.411 374.674 527.978L373.008 524.884C373.96 524.159 375.104 523.603 376.442 523.218C377.779 522.833 379.196 522.64 380.692 522.64ZM380.114 538.144C381.179 538.144 382.12 537.906 382.936 537.43C383.774 536.931 384.364 536.229 384.704 535.322V533.214H380.318C377.87 533.214 376.646 534.019 376.646 535.628C376.646 536.399 376.952 537.011 377.564 537.464C378.176 537.917 379.026 538.144 380.114 538.144ZM405.322 540.014C404.823 540.422 404.211 540.728 403.486 540.932C402.783 541.136 402.035 541.238 401.242 541.238C399.247 541.238 397.706 540.717 396.618 539.674C395.53 538.631 394.986 537.113 394.986 535.118V526.38H391.994V522.98H394.986V518.832H399.236V522.98H404.098V526.38H399.236V535.016C399.236 535.9 399.451 536.58 399.882 537.056C400.313 537.509 400.936 537.736 401.752 537.736C402.704 537.736 403.497 537.487 404.132 536.988L405.322 540.014ZM419.12 522.64C421.41 522.64 423.246 523.309 424.628 524.646C426.011 525.983 426.702 527.967 426.702 530.596V541H422.452V531.14C422.452 529.553 422.078 528.363 421.33 527.57C420.582 526.754 419.517 526.346 418.134 526.346C416.57 526.346 415.335 526.822 414.428 527.774C413.522 528.703 413.068 530.052 413.068 531.82V541H408.818V515.772H413.068V524.952C413.771 524.204 414.632 523.637 415.652 523.252C416.695 522.844 417.851 522.64 419.12 522.64ZM440.42 541.238C438.584 541.238 436.929 540.841 435.456 540.048C433.982 539.255 432.826 538.155 431.988 536.75C431.172 535.322 430.764 533.713 430.764 531.922C430.764 530.131 431.172 528.533 431.988 527.128C432.826 525.723 433.982 524.623 435.456 523.83C436.929 523.037 438.584 522.64 440.42 522.64C442.278 522.64 443.944 523.037 445.418 523.83C446.891 524.623 448.036 525.723 448.852 527.128C449.69 528.533 450.11 530.131 450.11 531.922C450.11 533.713 449.69 535.322 448.852 536.75C448.036 538.155 446.891 539.255 445.418 540.048C443.944 540.841 442.278 541.238 440.42 541.238ZM440.42 537.6C441.984 537.6 443.276 537.079 444.296 536.036C445.316 534.993 445.826 533.622 445.826 531.922C445.826 530.222 445.316 528.851 444.296 527.808C443.276 526.765 441.984 526.244 440.42 526.244C438.856 526.244 437.564 526.765 436.544 527.808C435.546 528.851 435.048 530.222 435.048 531.922C435.048 533.622 435.546 534.993 436.544 536.036C437.564 537.079 438.856 537.6 440.42 537.6ZM464.476 522.64C466.765 522.64 468.601 523.309 469.984 524.646C471.366 525.983 472.058 527.967 472.058 530.596V541H467.808V531.14C467.808 529.553 467.434 528.363 466.686 527.57C465.938 526.754 464.872 526.346 463.49 526.346C461.926 526.346 460.69 526.822 459.784 527.774C458.877 528.703 458.424 530.052 458.424 531.82V541H454.174V522.844H458.22V525.19C458.922 524.351 459.806 523.717 460.872 523.286C461.937 522.855 463.138 522.64 464.476 522.64ZM247.393 568.026C249.591 568.298 251.269 569.046 252.425 570.27C253.581 571.494 254.159 573.024 254.159 574.86C254.159 576.243 253.807 577.501 253.105 578.634C252.402 579.767 251.337 580.674 249.909 581.354C248.503 582.011 246.781 582.34 244.741 582.34C243.041 582.34 241.397 582.102 239.811 581.626C238.247 581.127 236.909 580.447 235.799 579.586L237.703 576.152C238.564 576.877 239.607 577.455 240.831 577.886C242.077 578.294 243.358 578.498 244.673 578.498C246.237 578.498 247.461 578.181 248.345 577.546C249.251 576.889 249.705 576.005 249.705 574.894C249.705 573.783 249.274 572.922 248.413 572.31C247.574 571.675 246.282 571.358 244.537 571.358H242.361V568.332L247.767 561.906H236.955V558.2H253.173V561.158L247.393 568.026ZM259.702 582.238C258.931 582.238 258.274 581.977 257.73 581.456C257.186 580.912 256.914 580.232 256.914 579.416C256.914 578.577 257.174 577.897 257.696 577.376C258.24 576.855 258.908 576.594 259.702 576.594C260.495 576.594 261.152 576.855 261.674 577.376C262.218 577.897 262.49 578.577 262.49 579.416C262.49 580.232 262.218 580.912 261.674 581.456C261.13 581.977 260.472 582.238 259.702 582.238ZM274.88 582.34C272.976 582.34 271.276 581.864 269.78 580.912C268.284 579.937 267.105 578.532 266.244 576.696C265.383 574.837 264.952 572.639 264.952 570.1C264.952 567.561 265.383 565.374 266.244 563.538C267.105 561.679 268.284 560.274 269.78 559.322C271.276 558.347 272.976 557.86 274.88 557.86C276.784 557.86 278.484 558.347 279.98 559.322C281.499 560.274 282.689 561.679 283.55 563.538C284.411 565.374 284.842 567.561 284.842 570.1C284.842 572.639 284.411 574.837 283.55 576.696C282.689 578.532 281.499 579.937 279.98 580.912C278.484 581.864 276.784 582.34 274.88 582.34ZM274.88 578.498C276.58 578.498 277.917 577.795 278.892 576.39C279.889 574.985 280.388 572.888 280.388 570.1C280.388 567.312 279.889 565.215 278.892 563.81C277.917 562.405 276.58 561.702 274.88 561.702C273.203 561.702 271.865 562.405 270.868 563.81C269.893 565.215 269.406 567.312 269.406 570.1C269.406 572.888 269.893 574.985 270.868 576.39C271.865 577.795 273.203 578.498 274.88 578.498ZM290.083 582.238C289.312 582.238 288.655 581.977 288.111 581.456C287.567 580.912 287.295 580.232 287.295 579.416C287.295 578.577 287.555 577.897 288.077 577.376C288.621 576.855 289.289 576.594 290.083 576.594C290.876 576.594 291.533 576.855 292.055 577.376C292.599 577.897 292.871 578.577 292.871 579.416C292.871 580.232 292.599 580.912 292.055 581.456C291.511 581.977 290.853 582.238 290.083 582.238Z" fill="#FFEFEF"/>
</g>
<defs>
<filter id="filter0_d" x="0" y="0" width="541" height="623" filterUnits="userSpaceOnUse" color-interpolation-filters="sRGB">
<feFlood flood-opacity="0" result="BackgroundImageFix"/>
<feColorMatrix in="SourceAlpha" type="matrix" values="0 0 0 0 0 0 0 0 0 0 0 0 0 0 0 0 0 0 127 0"/>
<feOffset dy="4"/>
<feGaussianBlur stdDeviation="2"/>
<feColorMatrix type="matrix" values="0 0 0 0 0 0 0 0 0 0 0 0 0 0 0 0 0 0 0.25 0"/>
<feBlend mode="normal" in2="BackgroundImageFix" result="effect1_dropShadow"/>
<feBlend mode="normal" in="SourceGraphic" in2="effect1_dropShadow" result="shape"/>
</filter>
<filter id="filter1_i" x="187" y="186" width="155" height="161" filterUnits="userSpaceOnUse" color-interpolation-filters="sRGB">
<feFlood flood-opacity="0" result="BackgroundImageFix"/>
<feBlend mode="normal" in="SourceGraphic" in2="BackgroundImageFix" result="shape"/>
<feColorMatrix in="SourceAlpha" type="matrix" values="0 0 0 0 0 0 0 0 0 0 0 0 0 0 0 0 0 0 127 0" result="hardAlpha"/>
<feOffset dy="4"/>
<feGaussianBlur stdDeviation="2"/>
<feComposite in2="hardAlpha" operator="arithmetic" k2="-1" k3="1"/>
<feColorMatrix type="matrix" values="0 0 0 0 0 0 0 0 0 0 0 0 0 0 0 0 0 0 0.25 0"/>
<feBlend mode="normal" in2="shape" result="effect1_innerShadow"/>
</filter>
<filter id="filter2_d" x="84.5908" y="46" width="362.134" height="103.384" filterUnits="userSpaceOnUse" color-interpolation-filters="sRGB">
<feFlood flood-opacity="0" result="BackgroundImageFix"/>
<feColorMatrix in="SourceAlpha" type="matrix" values="0 0 0 0 0 0 0 0 0 0 0 0 0 0 0 0 0 0 127 0"/>
<feOffset dy="4"/>
<feGaussianBlur stdDeviation="2"/>
<feColorMatrix type="matrix" values="0 0 0 0 0 0 0 0 0 0 0 0 0 0 0 0 0 0 0.25 0"/>
<feBlend mode="normal" in2="BackgroundImageFix" result="effect1_dropShadow"/>
<feBlend mode="normal" in="SourceGraphic" in2="effect1_dropShadow" result="shape"/>
</filter>
<filter id="filter3_d" x="36.1455" y="391.752" width="456.398" height="198.588" filterUnits="userSpaceOnUse" color-interpolation-filters="sRGB">
<feFlood flood-opacity="0" result="BackgroundImageFix"/>
<feColorMatrix in="SourceAlpha" type="matrix" values="0 0 0 0 0 0 0 0 0 0 0 0 0 0 0 0 0 0 127 0"/>
<feOffset dy="4"/>
<feGaussianBlur stdDeviation="2"/>
<feColorMatrix type="matrix" values="0 0 0 0 0 0 0 0 0 0 0 0 0 0 0 0 0 0 0.25 0"/>
<feBlend mode="normal" in2="BackgroundImageFix" result="effect1_dropShadow"/>
<feBlend mode="normal" in="SourceGraphic" in2="effect1_dropShadow" result="shape"/>
</filter>
</defs>
</svg>
