<svg width="554" height="172" viewBox="0 0 554 172" fill="none" xmlns="http://www.w3.org/2000/svg">
<rect y="31" width="520" height="120" rx="8" fill="#6944CC" fill-opacity="0.6"/>
<path d="M38.048 82.36C35.504 82.36 33.2 81.808 31.136 80.704C29.096 79.576 27.488 78.028 26.312 76.06C25.16 74.092 24.584 71.872 24.584 69.4C24.584 66.928 25.172 64.708 26.348 62.74C27.524 60.772 29.132 59.236 31.172 58.132C33.236 57.004 35.54 56.44 38.084 56.44C40.148 56.44 42.032 56.8 43.736 57.52C45.44 58.24 46.88 59.284 48.056 60.652L45.032 63.496C43.208 61.528 40.964 60.544 38.3 60.544C36.572 60.544 35.024 60.928 33.656 61.696C32.288 62.44 31.22 63.484 30.452 64.828C29.684 66.172 29.3 67.696 29.3 69.4C29.3 71.104 29.684 72.628 30.452 73.972C31.22 75.316 32.288 76.372 33.656 77.14C35.024 77.884 36.572 78.256 38.3 78.256C40.964 78.256 43.208 77.26 45.032 75.268L48.056 78.148C46.88 79.516 45.428 80.56 43.7 81.28C41.996 82 40.112 82.36 38.048 82.36ZM63.0163 62.56C65.4403 62.56 67.3843 63.268 68.8483 64.684C70.3123 66.1 71.0443 68.2 71.0443 70.984V82H66.5443V71.56C66.5443 69.88 66.1483 68.62 65.3563 67.78C64.5643 66.916 63.4363 66.484 61.9723 66.484C60.3163 66.484 59.0083 66.988 58.0483 67.996C57.0883 68.98 56.6083 70.408 56.6083 72.28V82H52.1083V55.288H56.6083V65.008C57.3523 64.216 58.2643 63.616 59.3443 63.208C60.4483 62.776 61.6723 62.56 63.0163 62.56ZM84.0968 62.56C86.9288 62.56 89.0888 63.244 90.5768 64.612C92.0888 65.956 92.8448 67.996 92.8448 70.732V82H88.5968V79.66C88.0448 80.5 87.2528 81.148 86.2208 81.604C85.2128 82.036 83.9888 82.252 82.5488 82.252C81.1088 82.252 79.8488 82.012 78.7688 81.532C77.6888 81.028 76.8488 80.344 76.2488 79.48C75.6728 78.592 75.3848 77.596 75.3848 76.492C75.3848 74.764 76.0208 73.384 77.2928 72.352C78.5888 71.296 80.6168 70.768 83.3768 70.768H88.3448V70.48C88.3448 69.136 87.9368 68.104 87.1208 67.384C86.3288 66.664 85.1408 66.304 83.5568 66.304C82.4768 66.304 81.4088 66.472 80.3528 66.808C79.3208 67.144 78.4448 67.612 77.7248 68.212L75.9608 64.936C76.9688 64.168 78.1808 63.58 79.5968 63.172C81.0128 62.764 82.5128 62.56 84.0968 62.56ZM83.4848 78.976C84.6128 78.976 85.6088 78.724 86.4728 78.22C87.3608 77.692 87.9848 76.948 88.3448 75.988V73.756H83.7008C81.1088 73.756 79.8128 74.608 79.8128 76.312C79.8128 77.128 80.1368 77.776 80.7848 78.256C81.4328 78.736 82.3328 78.976 83.4848 78.976ZM109.528 62.56C111.952 62.56 113.896 63.268 115.36 64.684C116.824 66.1 117.556 68.2 117.556 70.984V82H113.056V71.56C113.056 69.88 112.66 68.62 111.868 67.78C111.076 66.916 109.948 66.484 108.484 66.484C106.828 66.484 105.52 66.988 104.56 67.996C103.6 68.98 103.12 70.408 103.12 72.28V82H98.62V62.776H102.904V65.26C103.648 64.372 104.584 63.7 105.712 63.244C106.84 62.788 108.112 62.56 109.528 62.56ZM132.26 82.252C130.268 82.252 128.48 81.832 126.896 80.992C125.312 80.152 124.076 78.988 123.188 77.5C122.3 75.988 121.856 74.284 121.856 72.388C121.856 70.492 122.3 68.8 123.188 67.312C124.076 65.824 125.3 64.66 126.86 63.82C128.444 62.98 130.244 62.56 132.26 62.56C134.156 62.56 135.812 62.944 137.228 63.712C138.668 64.48 139.748 65.584 140.468 67.024L137.012 69.04C136.46 68.152 135.764 67.492 134.924 67.06C134.108 66.604 133.208 66.376 132.224 66.376C130.544 66.376 129.152 66.928 128.048 68.032C126.944 69.112 126.392 70.564 126.392 72.388C126.392 74.212 126.932 75.676 128.012 76.78C129.116 77.86 130.52 78.4 132.224 78.4C133.208 78.4 134.108 78.184 134.924 77.752C135.764 77.296 136.46 76.624 137.012 75.736L140.468 77.752C139.724 79.192 138.632 80.308 137.192 81.1C135.776 81.868 134.132 82.252 132.26 82.252ZM162.149 72.496C162.149 72.808 162.125 73.252 162.077 73.828H146.993C147.257 75.244 147.941 76.372 149.045 77.212C150.173 78.028 151.565 78.436 153.221 78.436C155.333 78.436 157.073 77.74 158.441 76.348L160.853 79.12C159.989 80.152 158.897 80.932 157.577 81.46C156.257 81.988 154.769 82.252 153.113 82.252C151.001 82.252 149.141 81.832 147.533 80.992C145.925 80.152 144.677 78.988 143.789 77.5C142.925 75.988 142.493 74.284 142.493 72.388C142.493 70.516 142.913 68.836 143.753 67.348C144.617 65.836 145.805 64.66 147.317 63.82C148.829 62.98 150.533 62.56 152.429 62.56C154.301 62.56 155.969 62.98 157.433 63.82C158.921 64.636 160.073 65.8 160.889 67.312C161.729 68.8 162.149 70.528 162.149 72.496ZM152.429 66.16C150.989 66.16 149.765 66.592 148.757 67.456C147.773 68.296 147.173 69.424 146.957 70.84H157.865C157.673 69.448 157.085 68.32 156.101 67.456C155.117 66.592 153.893 66.16 152.429 66.16ZM185.061 82.252C183.117 82.252 181.365 81.832 179.805 80.992C178.245 80.152 177.021 78.988 176.133 77.5C175.269 75.988 174.837 74.284 174.837 72.388C174.837 70.492 175.269 68.8 176.133 67.312C177.021 65.824 178.245 64.66 179.805 63.82C181.365 62.98 183.117 62.56 185.061 62.56C187.029 62.56 188.793 62.98 190.353 63.82C191.913 64.66 193.125 65.824 193.989 67.312C194.877 68.8 195.321 70.492 195.321 72.388C195.321 74.284 194.877 75.988 193.989 77.5C193.125 78.988 191.913 80.152 190.353 80.992C188.793 81.832 187.029 82.252 185.061 82.252ZM185.061 78.4C186.717 78.4 188.085 77.848 189.165 76.744C190.245 75.64 190.785 74.188 190.785 72.388C190.785 70.588 190.245 69.136 189.165 68.032C188.085 66.928 186.717 66.376 185.061 66.376C183.405 66.376 182.037 66.928 180.957 68.032C179.901 69.136 179.373 70.588 179.373 72.388C179.373 74.188 179.901 75.64 180.957 76.744C182.037 77.848 183.405 78.4 185.061 78.4ZM207.436 58.672C205.54 58.672 204.592 59.704 204.592 61.768V62.92H209.884V66.52H204.736V82H200.236V66.52H197.068V62.92H200.236V61.696C200.236 59.632 200.836 58.012 202.036 56.836C203.236 55.636 204.928 55.036 207.112 55.036C208.84 55.036 210.196 55.384 211.18 56.08L209.92 59.464C209.152 58.936 208.324 58.672 207.436 58.672ZM227.218 82.36C225.61 82.36 224.122 82.048 222.754 81.424C221.41 80.776 220.306 79.876 219.442 78.724L222.106 75.52C223.498 77.44 225.166 78.4 227.11 78.4C229.726 78.4 231.034 76.852 231.034 73.756V60.724H222.07V56.8H235.714V73.504C235.714 76.456 234.994 78.676 233.554 80.164C232.114 81.628 230.002 82.36 227.218 82.36ZM250.487 82.252C248.543 82.252 246.791 81.832 245.231 80.992C243.671 80.152 242.447 78.988 241.559 77.5C240.695 75.988 240.263 74.284 240.263 72.388C240.263 70.492 240.695 68.8 241.559 67.312C242.447 65.824 243.671 64.66 245.231 63.82C246.791 62.98 248.543 62.56 250.487 62.56C252.455 62.56 254.219 62.98 255.779 63.82C257.339 64.66 258.551 65.824 259.415 67.312C260.303 68.8 260.747 70.492 260.747 72.388C260.747 74.284 260.303 75.988 259.415 77.5C258.551 78.988 257.339 80.152 255.779 80.992C254.219 81.832 252.455 82.252 250.487 82.252ZM250.487 78.4C252.143 78.4 253.511 77.848 254.591 76.744C255.671 75.64 256.211 74.188 256.211 72.388C256.211 70.588 255.671 69.136 254.591 68.032C253.511 66.928 252.143 66.376 250.487 66.376C248.831 66.376 247.463 66.928 246.383 68.032C245.327 69.136 244.799 70.588 244.799 72.388C244.799 74.188 245.327 75.64 246.383 76.744C247.463 77.848 248.831 78.4 250.487 78.4ZM275.706 62.56C277.578 62.56 279.246 62.968 280.71 63.784C282.198 64.6 283.362 65.752 284.202 67.24C285.042 68.728 285.462 70.444 285.462 72.388C285.462 74.332 285.042 76.06 284.202 77.572C283.362 79.06 282.198 80.212 280.71 81.028C279.246 81.844 277.578 82.252 275.706 82.252C274.386 82.252 273.174 82.024 272.07 81.568C270.99 81.112 270.078 80.428 269.334 79.516V82H265.05V55.288H269.55V65.116C270.318 64.276 271.218 63.64 272.25 63.208C273.306 62.776 274.458 62.56 275.706 62.56ZM275.202 78.4C276.858 78.4 278.214 77.848 279.27 76.744C280.35 75.64 280.89 74.188 280.89 72.388C280.89 70.588 280.35 69.136 279.27 68.032C278.214 66.928 276.858 66.376 275.202 66.376C274.122 66.376 273.15 66.628 272.286 67.132C271.422 67.612 270.738 68.308 270.234 69.22C269.73 70.132 269.478 71.188 269.478 72.388C269.478 73.588 269.73 74.644 270.234 75.556C270.738 76.468 271.422 77.176 272.286 77.68C273.15 78.16 274.122 78.4 275.202 78.4ZM26.384 100.8H31.064V126H26.384V100.8ZM48.3561 106.56C50.7801 106.56 52.7241 107.268 54.1881 108.684C55.6521 110.1 56.3841 112.2 56.3841 114.984V126H51.8841V115.56C51.8841 113.88 51.4881 112.62 50.6961 111.78C49.9041 110.916 48.7761 110.484 47.3121 110.484C45.6561 110.484 44.3481 110.988 43.3881 111.996C42.4281 112.98 41.9481 114.408 41.9481 116.28V126H37.4481V106.776H41.7321V109.26C42.4761 108.372 43.4121 107.7 44.5401 107.244C45.6681 106.788 46.9401 106.56 48.3561 106.56ZM73.6486 124.956C73.1206 125.388 72.4726 125.712 71.7046 125.928C70.9606 126.144 70.1686 126.252 69.3286 126.252C67.2166 126.252 65.5846 125.7 64.4326 124.596C63.2806 123.492 62.7046 121.884 62.7046 119.772V110.52H59.5366V106.92H62.7046V102.528H67.2046V106.92H72.3526V110.52H67.2046V119.664C67.2046 120.6 67.4326 121.32 67.8886 121.824C68.3446 122.304 69.0046 122.544 69.8686 122.544C70.8766 122.544 71.7166 122.28 72.3886 121.752L73.6486 124.956ZM94.7896 116.496C94.7896 116.808 94.7656 117.252 94.7176 117.828H79.6336C79.8976 119.244 80.5816 120.372 81.6856 121.212C82.8136 122.028 84.2056 122.436 85.8616 122.436C87.9736 122.436 89.7136 121.74 91.0816 120.348L93.4936 123.12C92.6296 124.152 91.5376 124.932 90.2176 125.46C88.8976 125.988 87.4096 126.252 85.7536 126.252C83.6416 126.252 81.7816 125.832 80.1736 124.992C78.5656 124.152 77.3176 122.988 76.4296 121.5C75.5656 119.988 75.1336 118.284 75.1336 116.388C75.1336 114.516 75.5536 112.836 76.3936 111.348C77.2576 109.836 78.4456 108.66 79.9576 107.82C81.4696 106.98 83.1736 106.56 85.0696 106.56C86.9416 106.56 88.6096 106.98 90.0736 107.82C91.5616 108.636 92.7136 109.8 93.5296 111.312C94.3696 112.8 94.7896 114.528 94.7896 116.496ZM85.0696 110.16C83.6296 110.16 82.4056 110.592 81.3976 111.456C80.4136 112.296 79.8136 113.424 79.5976 114.84H90.5056C90.3136 113.448 89.7256 112.32 88.7416 111.456C87.7576 110.592 86.5336 110.16 85.0696 110.16ZM103.396 109.584C104.692 107.568 106.972 106.56 110.236 106.56V110.844C109.852 110.772 109.504 110.736 109.192 110.736C107.44 110.736 106.072 111.252 105.088 112.284C104.104 113.292 103.612 114.756 103.612 116.676V126H99.1122V106.776H103.396V109.584ZM132.757 106.776L124.513 126H119.869L111.625 106.776H116.305L122.281 121.032L128.437 106.776H132.757ZM135.569 106.776H140.069V126H135.569V106.776ZM137.837 103.608C137.021 103.608 136.337 103.356 135.785 102.852C135.233 102.324 134.957 101.676 134.957 100.908C134.957 100.14 135.233 99.504 135.785 99C136.337 98.472 137.021 98.208 137.837 98.208C138.653 98.208 139.337 98.46 139.889 98.964C140.441 99.444 140.717 100.056 140.717 100.8C140.717 101.592 140.441 102.264 139.889 102.816C139.361 103.344 138.677 103.608 137.837 103.608ZM164.047 116.496C164.047 116.808 164.023 117.252 163.975 117.828H148.891C149.155 119.244 149.839 120.372 150.943 121.212C152.071 122.028 153.463 122.436 155.119 122.436C157.231 122.436 158.971 121.74 160.339 120.348L162.751 123.12C161.887 124.152 160.795 124.932 159.475 125.46C158.155 125.988 156.667 126.252 155.011 126.252C152.899 126.252 151.039 125.832 149.431 124.992C147.823 124.152 146.575 122.988 145.687 121.5C144.823 119.988 144.391 118.284 144.391 116.388C144.391 114.516 144.811 112.836 145.651 111.348C146.515 109.836 147.703 108.66 149.215 107.82C150.727 106.98 152.431 106.56 154.327 106.56C156.199 106.56 157.867 106.98 159.331 107.82C160.819 108.636 161.971 109.8 162.787 111.312C163.627 112.8 164.047 114.528 164.047 116.496ZM154.327 110.16C152.887 110.16 151.663 110.592 150.655 111.456C149.671 112.296 149.071 113.424 148.855 114.84H159.763C159.571 113.448 158.983 112.32 157.999 111.456C157.015 110.592 155.791 110.16 154.327 110.16ZM198.006 106.776L190.914 126H186.594L181.626 112.752L176.586 126H172.266L165.21 106.776H169.458L174.534 120.96L179.826 106.776H183.606L188.79 121.032L194.01 106.776H198.006Z" fill="#FFEFEF"/>
<g filter="url(#filter0_i)">
<ellipse cx="466.5" cy="86" rx="87.5" ry="86" fill="#40A4FF"/>
</g>
<g filter="url(#filter1_i)">
<path fill-rule="evenodd" clip-rule="evenodd" d="M423.804 62.754C423.804 56.6312 429.214 51.6443 435.857 51.6443H500.183C506.8 51.6443 512.184 56.6312 512.184 62.754V77.4691C503.638 82.3837 493.785 85.8254 483.412 87.515C480.562 82.1864 474.632 78.6917 467.968 78.6917C461.362 78.6917 455.405 82.1719 452.471 87.4717C442.161 85.7917 432.345 82.3645 423.804 77.4691V62.754ZM461.277 39.2203H474.708C478.204 39.2203 481.133 41.4394 482.001 44.4238H453.979C454.852 41.4394 457.776 39.2203 461.277 39.2203ZM454.411 95.0624C456.388 95.3176 458.193 94.1912 458.713 92.4391C459.873 88.5304 463.592 85.9119 467.967 85.9119C472.295 85.9119 476.051 88.5882 477.102 92.4198C477.549 94.0372 479.12 95.1443 480.883 95.1443C481.06 95.1443 481.242 95.1346 481.419 95.1106C494.783 93.397 507.512 89.0214 518.238 82.4557C519.331 81.7818 519.986 80.6555 519.986 79.4424V62.7538C519.986 52.6454 511.101 44.4238 500.183 44.4238H489.898C488.926 37.4393 482.522 32 474.709 32H461.277C453.464 32 447.066 37.4345 446.088 44.4238H435.856C424.906 44.4238 416 52.6454 416 62.7538V79.4424C416 80.6555 416.655 81.7866 417.753 82.4557C428.464 88.9925 441.141 93.3488 454.411 95.0624ZM464.093 96.4253V102.654C464.093 104.647 465.841 106.264 467.994 106.264C470.148 106.264 471.896 104.647 471.896 102.654V96.4253C471.896 94.4325 470.148 92.8151 467.994 92.8151C465.841 92.8151 464.093 94.4325 464.093 96.4253ZM512.281 96.5831C512.437 94.7347 514.065 93.2617 516.109 93.2617C518.258 93.2617 520 94.8743 520 96.8623C520 96.8931 519.938 97.6343 519.846 98.7345C519.622 101.418 519.218 106.235 519.1 108.092C518.804 112.607 516.91 117.214 514.034 120.42C510.028 124.887 504.925 126.976 497.986 126.99C494.766 126.995 481.459 127 468.148 127C454.841 127 441.529 126.995 438.315 126.99C431.37 126.976 426.267 124.887 422.262 120.415C419.39 117.214 417.491 112.607 417.2 108.092C417.08 106.262 416.686 101.557 416.459 98.8528C416.361 97.6877 416.295 96.8941 416.295 96.8623C416.295 94.8743 418.038 93.2617 420.186 93.2617C422.23 93.2617 423.859 94.7347 424.015 96.5831C424.015 96.5831 424.816 105.002 424.987 107.659C425.18 110.6 426.47 113.801 428.27 115.804C430.819 118.648 433.638 119.76 438.325 119.77C444.755 119.78 491.535 119.78 497.97 119.77C502.662 119.76 505.482 118.648 508.026 115.808C509.831 113.801 511.121 110.6 511.313 107.659C511.48 105.002 512.281 96.5831 512.281 96.5831Z" fill="#FFEFEF"/>
</g>
<defs>
<filter id="filter0_i" x="379" y="0" width="175" height="176" filterUnits="userSpaceOnUse" color-interpolation-filters="sRGB">
<feFlood flood-opacity="0" result="BackgroundImageFix"/>
<feBlend mode="normal" in="SourceGraphic" in2="BackgroundImageFix" result="shape"/>
<feColorMatrix in="SourceAlpha" type="matrix" values="0 0 0 0 0 0 0 0 0 0 0 0 0 0 0 0 0 0 127 0" result="hardAlpha"/>
<feOffset dy="4"/>
<feGaussianBlur stdDeviation="2"/>
<feComposite in2="hardAlpha" operator="arithmetic" k2="-1" k3="1"/>
<feColorMatrix type="matrix" values="0 0 0 0 0 0 0 0 0 0 0 0 0 0 0 0 0 0 0.25 0"/>
<feBlend mode="normal" in2="shape" result="effect1_innerShadow"/>
</filter>
<filter id="filter1_i" x="416" y="32" width="104" height="98.9999" filterUnits="userSpaceOnUse" color-interpolation-filters="sRGB">
<feFlood flood-opacity="0" result="BackgroundImageFix"/>
<feBlend mode="normal" in="SourceGraphic" in2="BackgroundImageFix" result="shape"/>
<feColorMatrix in="SourceAlpha" type="matrix" values="0 0 0 0 0 0 0 0 0 0 0 0 0 0 0 0 0 0 127 0" result="hardAlpha"/>
<feOffset dy="4"/>
<feGaussianBlur stdDeviation="2"/>
<feComposite in2="hardAlpha" operator="arithmetic" k2="-1" k3="1"/>
<feColorMatrix type="matrix" values="0 0 0 0 0 0 0 0 0 0 0 0 0 0 0 0 0 0 0.25 0"/>
<feBlend mode="normal" in2="shape" result="effect1_innerShadow"/>
</filter>
</defs>
</svg>
