<svg width="52" height="52" viewBox="0 0 52 52" fill="none" xmlns="http://www.w3.org/2000/svg">
<circle cx="26.0002" cy="26.0002" r="21.6667" fill="#5A3BAC"/>
<path fill-rule="evenodd" clip-rule="evenodd" d="M20.3391 15.4742C20.3391 16.8231 19.3121 17.9147 17.706 17.9147C16.1625 17.9147 15.1354 16.8231 15.1672 15.4742C15.1354 14.0598 16.1624 13 17.7368 13C19.3121 13 20.3084 14.0598 20.3391 15.4742ZM15.2964 35.554V19.8426H20.1792V35.553H15.2964V35.554Z" fill="white"/>
<path fill-rule="evenodd" clip-rule="evenodd" d="M24.093 24.8568C24.093 22.8971 24.0284 21.2264 23.9639 19.8448H28.2051L28.4306 21.9972H28.5269C29.1696 21.001 30.7757 19.4922 33.378 19.4922C36.5902 19.4922 38.9999 21.6128 38.9999 26.2374V35.5562H34.117V26.8493C34.117 24.824 33.4108 23.4434 31.6438 23.4434C30.2939 23.4434 29.4914 24.3751 29.1706 25.274C29.0414 25.5958 28.9779 26.0447 28.9779 26.4957V35.5562H24.095V24.8568H24.093Z" fill="white"/>
</svg>
