<svg width="554" height="172" viewBox="0 0 554 172" fill="none" xmlns="http://www.w3.org/2000/svg">
<rect y="31" width="520" height="120" rx="8" fill="#6944CC" fill-opacity="0.6"/>
<path d="M49.532 82L49.496 65.296L41.216 79.12H39.128L30.848 65.512V82H26.384V56.8H30.236L40.244 73.504L50.072 56.8H53.924L53.96 82H49.532ZM78.4068 72.496C78.4068 72.808 78.3828 73.252 78.3348 73.828H63.2508C63.5148 75.244 64.1988 76.372 65.3028 77.212C66.4308 78.028 67.8228 78.436 69.4788 78.436C71.5908 78.436 73.3308 77.74 74.6988 76.348L77.1108 79.12C76.2468 80.152 75.1548 80.932 73.8348 81.46C72.5148 81.988 71.0268 82.252 69.3708 82.252C67.2588 82.252 65.3988 81.832 63.7908 80.992C62.1828 80.152 60.9348 78.988 60.0468 77.5C59.1828 75.988 58.7508 74.284 58.7508 72.388C58.7508 70.516 59.1708 68.836 60.0108 67.348C60.8748 65.836 62.0628 64.66 63.5748 63.82C65.0868 62.98 66.7908 62.56 68.6868 62.56C70.5588 62.56 72.2268 62.98 73.6908 63.82C75.1788 64.636 76.3308 65.8 77.1468 67.312C77.9868 68.8 78.4068 70.528 78.4068 72.496ZM68.6868 66.16C67.2468 66.16 66.0228 66.592 65.0148 67.456C64.0308 68.296 63.4308 69.424 63.2148 70.84H74.1228C73.9308 69.448 73.3428 68.32 72.3588 67.456C71.3748 66.592 70.1508 66.16 68.6868 66.16ZM93.6373 62.56C96.0613 62.56 98.0053 63.268 99.4693 64.684C100.933 66.1 101.665 68.2 101.665 70.984V82H97.1653V71.56C97.1653 69.88 96.7693 68.62 95.9773 67.78C95.1853 66.916 94.0573 66.484 92.5933 66.484C90.9373 66.484 89.6293 66.988 88.6693 67.996C87.7093 68.98 87.2293 70.408 87.2293 72.28V82H82.7293V62.776H87.0133V65.26C87.7573 64.372 88.6933 63.7 89.8213 63.244C90.9493 62.788 92.2213 62.56 93.6373 62.56ZM118.93 80.956C118.402 81.388 117.754 81.712 116.986 81.928C116.242 82.144 115.45 82.252 114.61 82.252C112.498 82.252 110.866 81.7 109.714 80.596C108.562 79.492 107.986 77.884 107.986 75.772V66.52H104.818V62.92H107.986V58.528H112.486V62.92H117.634V66.52H112.486V75.664C112.486 76.6 112.714 77.32 113.17 77.824C113.626 78.304 114.286 78.544 115.15 78.544C116.158 78.544 116.998 78.28 117.67 77.752L118.93 80.956ZM130.639 82.252C128.695 82.252 126.943 81.832 125.383 80.992C123.823 80.152 122.599 78.988 121.711 77.5C120.847 75.988 120.415 74.284 120.415 72.388C120.415 70.492 120.847 68.8 121.711 67.312C122.599 65.824 123.823 64.66 125.383 63.82C126.943 62.98 128.695 62.56 130.639 62.56C132.607 62.56 134.371 62.98 135.931 63.82C137.491 64.66 138.703 65.824 139.567 67.312C140.455 68.8 140.899 70.492 140.899 72.388C140.899 74.284 140.455 75.988 139.567 77.5C138.703 78.988 137.491 80.152 135.931 80.992C134.371 81.832 132.607 82.252 130.639 82.252ZM130.639 78.4C132.295 78.4 133.663 77.848 134.743 76.744C135.823 75.64 136.363 74.188 136.363 72.388C136.363 70.588 135.823 69.136 134.743 68.032C133.663 66.928 132.295 66.376 130.639 66.376C128.983 66.376 127.615 66.928 126.535 68.032C125.479 69.136 124.951 70.588 124.951 72.388C124.951 74.188 125.479 75.64 126.535 76.744C127.615 77.848 128.983 78.4 130.639 78.4ZM149.486 65.584C150.782 63.568 153.062 62.56 156.326 62.56V66.844C155.942 66.772 155.594 66.736 155.282 66.736C153.53 66.736 152.162 67.252 151.178 68.284C150.194 69.292 149.702 70.756 149.702 72.676V82H145.202V62.776H149.486V65.584ZM160.143 62.776H164.643V82H160.143V62.776ZM162.411 59.608C161.595 59.608 160.911 59.356 160.359 58.852C159.807 58.324 159.531 57.676 159.531 56.908C159.531 56.14 159.807 55.504 160.359 55C160.911 54.472 161.595 54.208 162.411 54.208C163.227 54.208 163.911 54.46 164.463 54.964C165.015 55.444 165.291 56.056 165.291 56.8C165.291 57.592 165.015 58.264 164.463 58.816C163.935 59.344 163.251 59.608 162.411 59.608ZM181.458 62.56C183.882 62.56 185.826 63.268 187.29 64.684C188.754 66.1 189.486 68.2 189.486 70.984V82H184.986V71.56C184.986 69.88 184.59 68.62 183.798 67.78C183.006 66.916 181.878 66.484 180.414 66.484C178.758 66.484 177.45 66.988 176.49 67.996C175.53 68.98 175.05 70.408 175.05 72.28V82H170.55V62.776H174.834V65.26C175.578 64.372 176.514 63.7 177.642 63.244C178.77 62.788 180.042 62.56 181.458 62.56ZM214.45 62.776V79.084C214.45 85.852 210.994 89.236 204.082 89.236C202.234 89.236 200.482 88.996 198.826 88.516C197.17 88.06 195.802 87.388 194.722 86.5L196.738 83.116C197.578 83.812 198.634 84.364 199.906 84.772C201.202 85.204 202.51 85.42 203.83 85.42C205.942 85.42 207.49 84.94 208.474 83.98C209.458 83.02 209.95 81.556 209.95 79.588V78.58C209.182 79.42 208.246 80.056 207.142 80.488C206.038 80.92 204.826 81.136 203.506 81.136C201.682 81.136 200.026 80.752 198.538 79.984C197.074 79.192 195.91 78.088 195.046 76.672C194.206 75.256 193.786 73.636 193.786 71.812C193.786 69.988 194.206 68.38 195.046 66.988C195.91 65.572 197.074 64.48 198.538 63.712C200.026 62.944 201.682 62.56 203.506 62.56C204.898 62.56 206.158 62.788 207.286 63.244C208.438 63.7 209.398 64.396 210.166 65.332V62.776H214.45ZM204.19 77.32C205.894 77.32 207.286 76.816 208.366 75.808C209.47 74.776 210.022 73.444 210.022 71.812C210.022 70.204 209.47 68.896 208.366 67.888C207.286 66.88 205.894 66.376 204.19 66.376C202.462 66.376 201.046 66.88 199.942 67.888C198.862 68.896 198.322 70.204 198.322 71.812C198.322 73.444 198.862 74.776 199.942 75.808C201.046 76.816 202.462 77.32 204.19 77.32ZM260.303 62.776L253.211 82H248.891L243.923 68.752L238.883 82H234.563L227.507 62.776H231.755L236.831 76.96L242.123 62.776H245.903L251.087 77.032L256.307 62.776H260.303ZM263.397 62.776H267.897V82H263.397V62.776ZM265.665 59.608C264.849 59.608 264.165 59.356 263.613 58.852C263.061 58.324 262.785 57.676 262.785 56.908C262.785 56.14 263.061 55.504 263.613 55C264.165 54.472 264.849 54.208 265.665 54.208C266.481 54.208 267.165 54.46 267.717 54.964C268.269 55.444 268.545 56.056 268.545 56.8C268.545 57.592 268.269 58.264 267.717 58.816C267.189 59.344 266.505 59.608 265.665 59.608ZM285.36 80.956C284.832 81.388 284.184 81.712 283.416 81.928C282.672 82.144 281.88 82.252 281.04 82.252C278.928 82.252 277.296 81.7 276.144 80.596C274.992 79.492 274.416 77.884 274.416 75.772V66.52H271.248V62.92H274.416V58.528H278.916V62.92H284.064V66.52H278.916V75.664C278.916 76.6 279.144 77.32 279.6 77.824C280.056 78.304 280.716 78.544 281.58 78.544C282.588 78.544 283.428 78.28 284.1 77.752L285.36 80.956ZM299.969 62.56C302.393 62.56 304.337 63.268 305.801 64.684C307.265 66.1 307.997 68.2 307.997 70.984V82H303.497V71.56C303.497 69.88 303.101 68.62 302.309 67.78C301.517 66.916 300.389 66.484 298.925 66.484C297.269 66.484 295.961 66.988 295.001 67.996C294.041 68.98 293.561 70.408 293.561 72.28V82H289.061V55.288H293.561V65.008C294.305 64.216 295.217 63.616 296.297 63.208C297.401 62.776 298.625 62.56 299.969 62.56ZM45.284 122.076V126H26.384V100.8H44.78V104.724H31.064V111.276H43.232V115.128H31.064V122.076H45.284ZM61.9576 126L57.0256 119.34L52.0576 126H47.0896L54.5776 116.244L47.4136 106.776H52.4176L57.1336 113.076L61.8496 106.776H66.7096L59.5096 116.172L67.0336 126H61.9576ZM81.0103 106.56C82.8823 106.56 84.5503 106.968 86.0143 107.784C87.5023 108.6 88.6663 109.752 89.5063 111.24C90.3463 112.728 90.7663 114.444 90.7663 116.388C90.7663 118.332 90.3463 120.06 89.5063 121.572C88.6663 123.06 87.5023 124.212 86.0143 125.028C84.5503 125.844 82.8823 126.252 81.0103 126.252C78.4183 126.252 76.3663 125.388 74.8543 123.66V132.984H70.3543V106.776H74.6383V109.296C75.3823 108.384 76.2943 107.7 77.3743 107.244C78.4783 106.788 79.6903 106.56 81.0103 106.56ZM80.5063 122.4C82.1623 122.4 83.5183 121.848 84.5743 120.744C85.6543 119.64 86.1943 118.188 86.1943 116.388C86.1943 114.588 85.6543 113.136 84.5743 112.032C83.5183 110.928 82.1623 110.376 80.5063 110.376C79.4263 110.376 78.4543 110.628 77.5903 111.132C76.7263 111.612 76.0423 112.308 75.5383 113.22C75.0343 114.132 74.7823 115.188 74.7823 116.388C74.7823 117.588 75.0343 118.644 75.5383 119.556C76.0423 120.468 76.7263 121.176 77.5903 121.68C78.4543 122.16 79.4263 122.4 80.5063 122.4ZM113.106 116.496C113.106 116.808 113.082 117.252 113.034 117.828H97.95C98.214 119.244 98.898 120.372 100.002 121.212C101.13 122.028 102.522 122.436 104.178 122.436C106.29 122.436 108.03 121.74 109.398 120.348L111.81 123.12C110.946 124.152 109.854 124.932 108.534 125.46C107.214 125.988 105.726 126.252 104.07 126.252C101.958 126.252 100.098 125.832 98.49 124.992C96.882 124.152 95.634 122.988 94.746 121.5C93.882 119.988 93.45 118.284 93.45 116.388C93.45 114.516 93.87 112.836 94.71 111.348C95.574 109.836 96.762 108.66 98.274 107.82C99.786 106.98 101.49 106.56 103.386 106.56C105.258 106.56 106.926 106.98 108.39 107.82C109.878 108.636 111.03 109.8 111.846 111.312C112.686 112.8 113.106 114.528 113.106 116.496ZM103.386 110.16C101.946 110.16 100.722 110.592 99.714 111.456C98.73 112.296 98.13 113.424 97.914 114.84H108.822C108.63 113.448 108.042 112.32 107.058 111.456C106.074 110.592 104.85 110.16 103.386 110.16ZM121.713 109.584C123.009 107.568 125.289 106.56 128.553 106.56V110.844C128.169 110.772 127.821 110.736 127.509 110.736C125.757 110.736 124.389 111.252 123.405 112.284C122.421 113.292 121.929 114.756 121.929 116.676V126H117.429V106.776H121.713V109.584ZM144.629 124.956C144.101 125.388 143.453 125.712 142.685 125.928C141.941 126.144 141.149 126.252 140.309 126.252C138.197 126.252 136.565 125.7 135.413 124.596C134.261 123.492 133.685 121.884 133.685 119.772V110.52H130.517V106.92H133.685V102.528H138.185V106.92H143.333V110.52H138.185V119.664C138.185 120.6 138.413 121.32 138.869 121.824C139.325 122.304 139.985 122.544 140.849 122.544C141.857 122.544 142.697 122.28 143.369 121.752L144.629 124.956Z" fill="#FFEFEF"/>
<g filter="url(#filter0_i)">
<g filter="url(#filter1_i)">
<ellipse cx="466.5" cy="86" rx="87.5" ry="86" fill="#40A4FF"/>
</g>
<g filter="url(#filter2_i)">
<path fill-rule="evenodd" clip-rule="evenodd" d="M467.538 45.9166H466.465C456.111 45.9166 447.715 53.76 447.715 63.4316V81.5045C447.715 91.1787 456.11 99.0195 466.465 99.0195H467.538C477.892 99.0195 486.287 91.1787 486.287 81.5045V63.4316C486.287 53.76 477.891 45.9166 467.538 45.9166ZM466.465 51.874H467.538C474.369 51.874 479.91 57.0501 479.91 63.4315V81.5044C479.91 87.8881 474.37 93.0619 467.538 93.0619H466.465C459.632 93.0619 454.092 87.8881 454.092 81.5044V63.4315C454.092 57.0501 459.633 51.874 466.465 51.874ZM498.478 78.556C500.239 78.556 501.666 79.8896 501.666 81.5347C501.666 98.4171 487.842 112.279 470.19 113.783V122.105C470.19 123.75 468.763 125.083 467.002 125.083C465.387 125.083 464.053 123.963 463.842 122.509L463.813 122.105V113.784C446.159 112.281 432.333 98.4183 432.333 81.5347C432.333 79.8896 433.761 78.556 435.522 78.556C437.283 78.556 438.71 79.8896 438.71 81.5347C438.71 96.1318 451.374 107.961 467 107.961C482.626 107.961 495.289 96.1318 495.289 81.5347C495.289 79.8896 496.717 78.556 498.478 78.556Z" fill="#FFEFEF"/>
</g>
</g>
<defs>
<filter id="filter0_i" x="379" y="0" width="175" height="176" filterUnits="userSpaceOnUse" color-interpolation-filters="sRGB">
<feFlood flood-opacity="0" result="BackgroundImageFix"/>
<feBlend mode="normal" in="SourceGraphic" in2="BackgroundImageFix" result="shape"/>
<feColorMatrix in="SourceAlpha" type="matrix" values="0 0 0 0 0 0 0 0 0 0 0 0 0 0 0 0 0 0 127 0" result="hardAlpha"/>
<feOffset dy="4"/>
<feGaussianBlur stdDeviation="2"/>
<feComposite in2="hardAlpha" operator="arithmetic" k2="-1" k3="1"/>
<feColorMatrix type="matrix" values="0 0 0 0 0 0 0 0 0 0 0 0 0 0 0 0 0 0 0.25 0"/>
<feBlend mode="normal" in2="shape" result="effect1_innerShadow"/>
</filter>
<filter id="filter1_i" x="379" y="0" width="175" height="176" filterUnits="userSpaceOnUse" color-interpolation-filters="sRGB">
<feFlood flood-opacity="0" result="BackgroundImageFix"/>
<feBlend mode="normal" in="SourceGraphic" in2="BackgroundImageFix" result="shape"/>
<feColorMatrix in="SourceAlpha" type="matrix" values="0 0 0 0 0 0 0 0 0 0 0 0 0 0 0 0 0 0 127 0" result="hardAlpha"/>
<feOffset dy="4"/>
<feGaussianBlur stdDeviation="2"/>
<feComposite in2="hardAlpha" operator="arithmetic" k2="-1" k3="1"/>
<feColorMatrix type="matrix" values="0 0 0 0 0 0 0 0 0 0 0 0 0 0 0 0 0 0 0.25 0"/>
<feBlend mode="normal" in2="shape" result="effect1_innerShadow"/>
</filter>
<filter id="filter2_i" x="432.333" y="45.9166" width="69.3333" height="83.1667" filterUnits="userSpaceOnUse" color-interpolation-filters="sRGB">
<feFlood flood-opacity="0" result="BackgroundImageFix"/>
<feBlend mode="normal" in="SourceGraphic" in2="BackgroundImageFix" result="shape"/>
<feColorMatrix in="SourceAlpha" type="matrix" values="0 0 0 0 0 0 0 0 0 0 0 0 0 0 0 0 0 0 127 0" result="hardAlpha"/>
<feOffset dy="4"/>
<feGaussianBlur stdDeviation="2"/>
<feComposite in2="hardAlpha" operator="arithmetic" k2="-1" k3="1"/>
<feColorMatrix type="matrix" values="0 0 0 0 0 0 0 0 0 0 0 0 0 0 0 0 0 0 0.25 0"/>
<feBlend mode="normal" in2="shape" result="effect1_innerShadow"/>
</filter>
</defs>
</svg>
