<svg width="80" height="80" viewBox="0 0 80 80" fill="none" xmlns="http://www.w3.org/2000/svg">
<path fill-rule="evenodd" clip-rule="evenodd" d="M11.6657 46.4963C11.6657 47.8422 10.5457 48.9347 9.16596 48.9347C7.78623 48.9347 6.66621 47.8422 6.66621 46.4963V22.3811C6.66621 14.6352 13.1266 8.33325 21.0706 8.33325H36.8904C44.8506 8.33325 51.3272 14.651 51.3272 22.416V25.3643C51.3272 26.707 50.2072 27.7995 48.8275 27.7995C47.4478 27.7995 46.3277 26.707 46.3277 25.3643V22.416C46.3277 17.3364 42.0944 13.2101 36.8904 13.2101H21.0706C15.8828 13.2101 11.6657 17.3269 11.6657 22.3811V46.4963ZM46.3275 54.6388C46.3275 53.293 47.4476 52.2004 48.8273 52.2004C50.207 52.2004 51.327 53.293 51.327 54.6388V57.6188C51.327 65.3648 44.8667 71.6667 36.9227 71.6667H21.0996C13.1426 71.6667 6.66602 65.3489 6.66602 57.584C6.66602 56.2381 7.78603 55.1487 9.16576 55.1487C10.5455 55.1487 11.6655 56.2381 11.6655 57.584C11.6655 62.6635 15.8988 66.7898 21.0996 66.7898H36.9227C42.1104 66.7898 46.3275 62.6762 46.3275 57.6188V54.6388ZM73.1427 39.0697C72.7563 38.1545 71.8441 37.5592 70.8312 37.5592H31.8287C30.449 37.5592 29.3257 38.6549 29.3257 40.0008C29.3257 41.3466 30.449 42.4392 31.8287 42.4392H64.7799L59.5824 47.4871C58.6019 48.4371 58.6019 49.9793 59.5759 50.9357C60.0628 51.4139 60.7056 51.6546 61.3452 51.6546C61.9847 51.6546 62.621 51.4139 63.1112 50.942L72.5973 41.7298C73.3115 41.0331 73.529 39.9818 73.1427 39.0697ZM63.7389 35.5357C63.1026 35.5357 62.4663 35.2982 61.9794 34.8295L59.5868 32.5209C58.6063 31.5741 58.5998 30.0287 59.5705 29.0755C60.5444 28.1127 62.1222 28.1064 63.1059 29.0565L65.4952 31.3619C66.4789 32.3119 66.4854 33.8541 65.5147 34.8105C65.0245 35.2919 64.3817 35.5357 63.7389 35.5357Z" fill="#FEFEFE"/>
</svg>
