<svg width="60" height="60" viewBox="0 0 60 60" fill="none" xmlns="http://www.w3.org/2000/svg">
<path fill-rule="evenodd" clip-rule="evenodd" d="M8.74981 34.8723C8.74981 35.8817 7.9098 36.7011 6.875 36.7011C5.84021 36.7011 5.00019 35.8817 5.00019 34.8723V16.7859C5.00019 10.9764 9.84548 6.25 15.8035 6.25H27.6683C33.6385 6.25 38.496 10.9883 38.496 16.812V19.0233C38.496 20.0303 37.656 20.8497 36.6212 20.8497C35.5864 20.8497 34.7463 20.0303 34.7463 19.0233V16.812C34.7463 13.0024 31.5713 9.90765 27.6683 9.90765H15.8035C11.9126 9.90765 8.74981 12.9953 8.74981 16.7859V34.8723ZM34.7462 40.9792C34.7462 39.9698 35.5862 39.1504 36.621 39.1504C37.6558 39.1504 38.4958 39.9698 38.4958 40.9792V43.2141C38.4958 49.0236 33.6505 53.7501 27.6925 53.7501H15.8252C9.85746 53.7501 5 49.0117 5 43.188C5 42.1786 5.84001 41.3616 6.87481 41.3616C7.90961 41.3616 8.74962 42.1786 8.74962 43.188C8.74962 46.9977 11.9246 50.0924 15.8252 50.0924H27.6925C31.5833 50.0924 34.7462 47.0072 34.7462 43.2141V40.9792ZM54.8574 29.3023C54.5676 28.6159 53.8834 28.1694 53.1238 28.1694H23.8719C22.8371 28.1694 21.9947 28.9912 21.9947 30.0006C21.9947 31.01 22.8371 31.8294 23.8719 31.8294H48.5853L44.6871 35.6153C43.9518 36.3279 43.9518 37.4845 44.6823 38.2018C45.0475 38.5605 45.5296 38.741 46.0093 38.741C46.4889 38.741 46.9661 38.5605 47.3338 38.2066L54.4483 31.2974C54.984 30.7749 55.1471 29.9864 54.8574 29.3023ZM47.8047 26.6518C47.3274 26.6518 46.8502 26.4737 46.485 26.1221L44.6905 24.3907C43.9552 23.6805 43.9504 22.5215 44.6784 21.8066C45.4088 21.0846 46.5921 21.0798 47.3299 21.7923L49.1219 23.5214C49.8597 24.2339 49.8645 25.3906 49.1365 26.1079C48.7689 26.4689 48.2868 26.6518 47.8047 26.6518Z" fill="#FEFEFE"/>
</svg>
