<svg width="51" height="60" viewBox="0 0 51 60" fill="none" xmlns="http://www.w3.org/2000/svg">
<path d="M19.8339 6.25L20.4701 6.25449C29.9713 6.38911 37.5799 9.5447 37.5799 15L37.5816 23.9577C43.5052 25.1488 48.0187 31.3183 48.0187 38.75C48.0187 47.0342 42.4103 53.75 35.4921 53.75C33.6108 53.75 31.7865 53.2511 30.1263 52.3074C27.198 53.2378 23.608 53.75 19.8339 53.75C10.2514 53.75 2.43444 50.713 2.0991 45.3603L2.08789 45V15L2.0991 14.6397C2.43444 9.28699 10.2514 6.25 19.8339 6.25ZM6.26261 40.9433L6.26342 45C6.26342 45.4055 6.83017 45.9133 7.83129 46.423L8.41964 46.7006C8.62958 46.7928 8.85309 46.8845 9.08937 46.975L9.8357 47.2426C9.96621 47.2864 10.0997 47.3298 10.2361 47.3726L11.0884 47.6231C11.8263 47.8257 12.6315 48.0117 13.4916 48.1717L14.5494 48.3507L15.6551 48.501C16.9712 48.6584 18.3755 48.75 19.8339 48.75C21.7075 48.75 23.5224 48.612 25.2004 48.354L25.8028 48.2525L25.5779 47.9196L25.3858 47.6141C25.3348 47.5308 25.2845 47.4469 25.2349 47.3623L25.5779 47.9196C25.3811 47.6149 25.1942 47.3011 25.0175 46.9791C24.9821 46.9145 24.9482 46.8517 24.9147 46.7885C24.8599 46.6853 24.8054 46.5798 24.752 46.4735C24.6995 46.369 24.6483 46.264 24.598 46.1583C24.5618 46.082 24.5267 46.0065 24.4921 45.9306C24.4379 45.8117 24.3848 45.6914 24.333 45.5703C24.2889 45.4668 24.2454 45.3619 24.2029 45.2563C24.1594 45.1484 24.1174 45.0408 24.0765 44.9325C24.0397 44.8351 24.0035 44.7366 23.9682 44.6376C23.9262 44.52 23.8858 44.4026 23.8466 44.2845C23.8155 44.1907 23.7848 44.0954 23.755 43.9997C23.7116 43.8608 23.67 43.7212 23.6301 43.5808C23.629 43.5769 23.6281 43.5735 23.6271 43.5702C22.398 43.6902 21.1256 43.75 19.8339 43.75C14.3916 43.75 9.51878 42.7704 6.26261 40.9433ZM35.4921 28.75C33.0881 28.75 30.8531 29.9697 29.2772 32.0704C27.9092 33.8941 27.1411 36.2472 27.1411 38.75C27.1411 39.3255 27.1815 39.8938 27.2611 40.4513C27.6839 43.4111 29.2088 45.9817 31.38 47.4561C32.6231 48.3003 34.0279 48.75 35.4921 48.75C40.1043 48.75 43.8432 44.2728 43.8432 38.75C43.8432 33.2272 40.1043 28.75 35.4921 28.75ZM37.6037 31.6009L37.8156 31.7743L38.0123 31.9822L42.1878 36.9822C42.2617 37.0707 42.3289 37.1642 42.3894 37.2617L42.539 37.5398L42.6506 37.8217L42.7245 38.085L42.7849 38.4548L42.7993 38.75L42.7935 38.9381L42.7571 39.2518L42.6955 39.5304L42.6038 39.8081L42.4945 40.0518L42.3407 40.3136L42.1878 40.5178L38.0123 45.5178C37.197 46.4941 35.8751 46.4941 35.0598 45.5178C34.3071 44.6166 34.2493 43.1985 34.8861 42.2177L35.0598 41.9822L35.6675 41.25H30.2727C29.1197 41.25 28.185 40.1307 28.185 38.75C28.185 37.4679 28.9909 36.4112 30.0293 36.2668L30.2727 36.25H35.6696L35.0598 35.5178C34.2444 34.5415 34.2444 32.9585 35.0598 31.9822C35.7496 31.1561 36.8022 31.029 37.6037 31.6009ZM6.26261 30.9433L6.26342 35C6.26342 35.4055 6.83017 35.9133 7.83129 36.423L8.41964 36.7006C8.62958 36.7928 8.85309 36.8845 9.08937 36.975L9.8357 37.2426C9.96621 37.2864 10.0997 37.3298 10.2361 37.3726L11.0884 37.6231C11.8263 37.8257 12.6315 38.0117 13.4916 38.1717L14.5494 38.3507L15.6551 38.501C16.9712 38.6584 18.3755 38.75 19.8339 38.75C20.8993 38.75 21.9483 38.7056 22.968 38.6188C22.9788 36.8627 23.2447 35.1554 23.737 33.5571C22.4746 33.6864 21.1651 33.75 19.8339 33.75C14.3916 33.75 9.51878 32.7704 6.26261 30.9433ZM33.4073 20.9421C30.1511 22.77 25.2774 23.75 19.8339 23.75C14.3916 23.75 9.51878 22.7704 6.26261 20.9433L6.26342 25C6.26342 25.4055 6.83017 25.9133 7.83129 26.423L8.41964 26.7006C8.62958 26.7928 8.85309 26.8845 9.08937 26.975L9.8357 27.2426C9.96621 27.2864 10.0997 27.3298 10.2361 27.3726L11.0884 27.6231C11.8263 27.8257 12.6315 28.0117 13.4916 28.1717L14.5494 28.3507L15.6551 28.501C16.9712 28.6584 18.3755 28.75 19.8339 28.75C22.2649 28.75 24.6046 28.5185 26.6896 28.0858C28.4506 25.9915 30.6902 24.5741 33.1352 24.0159L33.4044 23.9625L33.4073 20.9421ZM19.8339 11.25C18.3755 11.25 16.9712 11.3416 15.6551 11.499L14.5494 11.6493L13.4916 11.8283C12.6315 11.9883 11.8262 12.1743 11.0884 12.3769L10.2361 12.6274C10.0997 12.6702 9.9662 12.7136 9.83569 12.7574L9.08936 13.025C8.85308 13.1155 8.62958 13.2071 8.41963 13.2994L7.83129 13.577C6.83017 14.0867 6.26342 14.5945 6.26342 15C6.26342 15.4055 6.83017 15.9133 7.83129 16.423L8.41964 16.7006C8.62958 16.7928 8.85309 16.8845 9.08937 16.975L9.8357 17.2426C9.96621 17.2864 10.0997 17.3298 10.2361 17.3726L11.0884 17.6231C11.8263 17.8257 12.6315 18.0117 13.4916 18.1717L14.5494 18.3507L15.6551 18.501C16.9712 18.6584 18.3755 18.75 19.8339 18.75C21.2923 18.75 22.6966 18.6584 24.0127 18.501L25.1184 18.3507L26.1762 18.1717C27.0363 18.0117 27.8415 17.8257 28.5794 17.6231L29.4317 17.3726C29.5681 17.3298 29.7016 17.2864 29.8321 17.2426L30.5784 16.975C30.8147 16.8845 31.0382 16.7928 31.2482 16.7006L31.8365 16.423C32.8376 15.9133 33.4044 15.4055 33.4044 15C33.4044 14.5945 32.8376 14.0867 31.8365 13.577L31.2482 13.2994C31.0382 13.2071 30.8147 13.1155 30.5784 13.025L29.8321 12.7574C29.7016 12.7136 29.5681 12.6702 29.4317 12.6274L28.5794 12.3769C27.8416 12.1743 27.0363 11.9883 26.1762 11.8283L25.1184 11.6493L24.0127 11.499C22.6966 11.3416 21.2923 11.25 19.8339 11.25Z" fill="#FFEFEF"/>
</svg>
