<svg width="80" height="80" viewBox="0 0 80 80" fill="none" xmlns="http://www.w3.org/2000/svg">
<path fill-rule="evenodd" clip-rule="evenodd" d="M25.949 8.33325H54.0468C64.6808 8.33325 73.3327 17.1825 73.3327 28.063V51.9369C73.3327 62.8173 64.6808 71.6666 54.0468 71.6666C52.8201 71.6666 51.8245 70.648 51.8245 69.3929C51.8245 68.1378 52.8201 67.1192 54.0468 67.1192C62.2305 67.1192 68.8882 60.3102 68.8882 51.9369V32.8832H57.9431C54.349 32.8862 51.4186 35.8815 51.4156 39.5619C51.4186 43.2422 54.349 46.2374 57.9431 46.2405H62.4912C63.7179 46.2405 64.7134 47.2591 64.7134 48.5142C64.7134 49.7693 63.7179 50.7879 62.4912 50.7879H57.9431C51.8956 50.7849 46.9742 45.7494 46.9712 39.5619C46.9742 33.3743 51.8956 28.3388 57.9431 28.3358H68.8882V28.063C68.8882 19.6897 62.2305 12.8807 54.0468 12.8807H25.949C19.3534 12.8807 13.8186 17.3311 11.8897 23.4276H41.1816C42.4082 23.4276 43.4038 24.4463 43.4038 25.7013C43.4038 26.9595 42.4082 27.975 41.1816 27.975H11.1193C11.1193 27.9902 11.1171 28.0046 11.1149 28.019C11.1127 28.0334 11.1105 28.0478 11.1105 28.063V51.9369C11.1105 60.3102 17.7653 67.1192 25.949 67.1192H40.0853C41.3119 67.1192 42.3075 68.1378 42.3075 69.3929C42.3075 70.648 41.3119 71.6666 40.0853 71.6666H25.949C15.3149 71.6666 6.66602 62.8173 6.66602 51.9369V28.063C6.66602 17.1825 15.3149 8.33325 25.949 8.33325ZM56.2034 39.3569C56.2034 38.1019 57.199 37.0832 58.4256 37.0832H59.436C60.6627 37.0832 61.6582 38.1019 61.6582 39.3569C61.6582 40.612 60.6627 41.6306 59.436 41.6306H58.4256C57.199 41.6306 56.2034 40.612 56.2034 39.3569Z" fill="white"/>
</svg>
