<svg width="80" height="80" viewBox="0 0 80 80" fill="none" xmlns="http://www.w3.org/2000/svg">
<path fill-rule="evenodd" clip-rule="evenodd" d="M67.174 25.3041C69.5474 27.2129 70.9407 30.0846 70.9711 33.1302L70.9421 59.7099C70.9421 66.9296 65.0894 72.7823 57.8697 72.7823H52.0726C48.5781 72.7824 45.7407 69.958 45.7248 66.4635V54.4635C45.7248 53.535 44.9721 52.7823 44.0436 52.7823H35.3479C34.897 52.7823 34.4649 52.9634 34.1488 53.285C33.8327 53.6065 33.659 54.0416 33.6668 54.4925V59.0722C33.6668 60.5129 32.4988 61.6809 31.0581 61.6809C29.6173 61.6809 28.4494 60.5129 28.4494 59.0722V54.4925C28.4494 52.6552 29.1793 50.8932 30.4784 49.594C31.7776 48.2948 33.5396 47.565 35.3769 47.565H44.0726C47.8872 47.5809 50.9712 50.6778 50.9711 54.4925V66.4635C50.9711 67.0718 51.4643 67.565 52.0726 67.565H58.0146C62.3368 67.565 65.8407 64.0611 65.8407 59.7389V33.1882C65.8195 31.7173 65.1384 30.3338 63.9856 29.42L43.9566 13.449C41.431 11.3697 37.7866 11.3697 35.261 13.449L28.8262 18.2606C27.6336 19.1171 25.9725 18.8445 25.1161 17.6519C24.2596 16.4593 24.5321 14.7982 25.7248 13.9418L32.0726 9.33308C36.4739 5.79522 42.7437 5.79522 47.145 9.33308L67.174 25.3041ZM21.4064 67.5358H34.7398V67.5938C36.1805 67.5938 37.3485 68.7617 37.3485 70.2025C37.3485 71.6432 36.1805 72.8112 34.7398 72.8112H21.4064C14.1933 72.7952 8.34993 66.9518 8.33398 59.7387V33.188C8.3801 30.1199 9.82024 27.2397 12.247 25.3619L14.6528 23.5648C15.7857 23.0307 17.1383 23.3772 17.8749 24.3901C18.6116 25.403 18.5245 26.7965 17.6673 27.7097L15.3195 29.4489C14.207 30.3731 13.5599 31.7417 13.5514 33.188V59.7097C13.5831 64.0301 17.086 67.5201 21.4064 67.5358Z" fill="white"/>
</svg>
