<svg width="60" height="60" viewBox="0 0 60 60" fill="none" xmlns="http://www.w3.org/2000/svg">
<path d="M21.25 35C19.8693 35 18.75 36.1193 18.75 37.5C18.75 38.8807 19.8693 40 21.25 40H38.75C40.1307 40 41.25 38.8807 41.25 37.5C41.25 36.1193 40.1307 35 38.75 35H21.25Z" fill="#FFEFEF"/>
<path d="M18.75 45C18.75 43.6193 19.8693 42.5 21.25 42.5H30C31.3807 42.5 32.5 43.6193 32.5 45C32.5 46.3807 31.3807 47.5 30 47.5H21.25C19.8693 47.5 18.75 46.3807 18.75 45Z" fill="#FFEFEF"/>
<path fill-rule="evenodd" clip-rule="evenodd" d="M21.25 12.5C19.8693 12.5 18.75 13.6193 18.75 15V27.5C18.75 28.8807 19.8693 30 21.25 30H38.75C40.1307 30 41.25 28.8807 41.25 27.5V15C41.25 13.6193 40.1307 12.5 38.75 12.5H21.25ZM23.75 25V17.5H36.25V25H23.75Z" fill="#FFEFEF"/>
<path fill-rule="evenodd" clip-rule="evenodd" d="M13.75 2.5C10.9886 2.5 8.75 4.73858 8.75 7.5V52.5C8.75 55.2615 10.9886 57.5 13.75 57.5H48.75C51.5115 57.5 53.75 55.2615 53.75 52.5V7.5C53.75 4.7386 51.5115 2.5 48.75 2.5H13.75ZM13.75 7.5H48.75V52.5H13.75V7.5Z" fill="#FFEFEF"/>
</svg>
