<svg width="80" height="80" viewBox="0 0 80 80" fill="none" xmlns="http://www.w3.org/2000/svg">
<path fill-rule="evenodd" clip-rule="evenodd" d="M54.8406 9.117V12.5666C64.8696 13.5396 70 19.0826 70 29.0483V56.6159C70 67.702 63.6812 73.3334 51.2464 73.3334H28.7536C16.3188 73.3334 10 67.702 10 56.6159V29.0483C10 22.4143 12.2609 17.6674 16.8986 14.8959C17.6296 14.3969 18.5754 14.362 19.3401 14.806C20.1047 15.2499 20.5562 16.096 20.5056 16.99C20.4551 17.8841 19.9111 18.6719 19.1014 19.0237C16.029 20.8517 14.5797 24.036 14.5797 29.0483V29.9328H56.8696C58.1342 29.9328 59.1594 30.9756 59.1594 32.262C59.1594 33.5484 58.1342 34.5913 56.8696 34.5913H14.5797V56.6159C14.5797 65.0779 18.6957 68.5865 28.7536 68.6454H51.2464C61.1594 68.6454 65.3913 65.0484 65.3913 56.5864V29.0188C65.3913 21.6478 62.1739 18.0802 54.8406 17.2251V19.4659C54.6715 20.6603 53.6434 21.5322 52.458 21.4867C51.2725 21.4412 50.312 20.493 50.2319 19.289V8.91061C50.2544 8.28736 50.5216 7.69931 50.9738 7.27812C51.426 6.85694 52.0254 6.63782 52.6377 6.66982C53.9001 6.74878 54.8742 7.83085 54.8406 9.117ZM29.0294 20.976C28.5937 21.4137 28.0038 21.6556 27.3915 21.6477C26.1382 21.6156 25.1433 20.5642 25.1596 19.289V9.117C25.2914 7.9237 26.2835 7.02157 27.464 7.02157C28.6445 7.02157 29.6365 7.9237 29.7683 9.117V12.3308H42.8698C44.1344 12.3308 45.1596 13.3736 45.1596 14.66C45.1596 15.9464 44.1344 16.9893 42.8698 16.9893H29.7103V19.3185C29.7104 19.9414 29.4652 20.5384 29.0294 20.976ZM53.97 42.0509C52.3691 42.0509 51.0714 43.371 51.0714 44.9993C51.0714 46.6277 52.3691 47.9478 53.97 47.9478C55.5708 47.9478 56.8685 46.6277 56.8685 44.9993C56.8686 44.2122 56.5592 43.4578 56.0093 42.904C55.4595 42.3502 54.7147 42.0431 53.941 42.0509H53.97ZM37.1586 44.9992C37.1586 43.3709 38.4563 42.0508 40.0571 42.0508C41.6579 42.0508 42.9557 43.3709 42.9557 44.9992C42.9557 46.6276 41.6579 47.9477 40.0571 47.9477C38.4563 47.9477 37.1586 46.6276 37.1586 44.9992ZM26.1735 42.0509C24.5727 42.0509 23.2749 43.371 23.2749 44.9993C23.2749 46.6277 24.5727 47.9478 26.1735 47.9478C27.7743 47.9478 29.072 46.6277 29.072 44.9993C29.0721 44.2122 28.7627 43.4578 28.2128 42.904C27.663 42.3502 26.9182 42.0431 26.1445 42.0509H26.1735ZM51.0714 56.9397C51.0714 55.3114 52.3691 53.9913 53.97 53.9913H53.941C54.7147 53.9835 55.4595 54.2906 56.0093 54.8444C56.5592 55.3982 56.8686 56.1526 56.8685 56.9397C56.8685 58.5681 55.5708 59.8881 53.97 59.8881C52.3691 59.8881 51.0714 58.5681 51.0714 56.9397ZM40.0571 53.9924C38.4563 53.9924 37.1586 55.3124 37.1586 56.9408C37.1586 58.5691 38.4563 59.8892 40.0571 59.8892C41.6579 59.8892 42.9557 58.5691 42.9557 56.9408C42.9557 55.3124 41.6579 53.9924 40.0571 53.9924ZM23.2749 56.9397C23.2749 55.3114 24.5727 53.9913 26.1735 53.9913H26.1445C26.9182 53.9835 27.663 54.2906 28.2128 54.8444C28.7627 55.3982 29.0721 56.1526 29.072 56.9397C29.072 58.5681 27.7743 59.8881 26.1735 59.8881C24.5727 59.8881 23.2749 58.5681 23.2749 56.9397Z" fill="white"/>
</svg>
