<svg width="554" height="172" viewBox="0 0 554 172" fill="none" xmlns="http://www.w3.org/2000/svg">
<rect y="31" width="520" height="120" rx="8" fill="#6944CC" fill-opacity="0.6"/>
<path d="M48.776 74.8V100H44.924L31.028 82.936V100H26.384V74.8H30.236L44.132 91.864V74.8H48.776ZM73.1685 90.496C73.1685 90.808 73.1445 91.252 73.0965 91.828H58.0125C58.2765 93.244 58.9605 94.372 60.0645 95.212C61.1925 96.028 62.5845 96.436 64.2405 96.436C66.3525 96.436 68.0925 95.74 69.4605 94.348L71.8725 97.12C71.0085 98.152 69.9165 98.932 68.5965 99.46C67.2765 99.988 65.7885 100.252 64.1325 100.252C62.0205 100.252 60.1605 99.832 58.5525 98.992C56.9445 98.152 55.6965 96.988 54.8085 95.5C53.9445 93.988 53.5125 92.284 53.5125 90.388C53.5125 88.516 53.9325 86.836 54.7725 85.348C55.6365 83.836 56.8245 82.66 58.3365 81.82C59.8485 80.98 61.5525 80.56 63.4485 80.56C65.3205 80.56 66.9885 80.98 68.4525 81.82C69.9405 82.636 71.0925 83.8 71.9085 85.312C72.7485 86.8 73.1685 88.528 73.1685 90.496ZM63.4485 84.16C62.0085 84.16 60.7845 84.592 59.7765 85.456C58.7925 86.296 58.1925 87.424 57.9765 88.84H68.8845C68.6925 87.448 68.1045 86.32 67.1205 85.456C66.1365 84.592 64.9125 84.16 63.4485 84.16ZM89.0471 98.956C88.5191 99.388 87.8711 99.712 87.1031 99.928C86.3591 100.144 85.5671 100.252 84.7271 100.252C82.6151 100.252 80.9831 99.7 79.8311 98.596C78.6791 97.492 78.1031 95.884 78.1031 93.772V84.52H74.9351V80.92H78.1031V76.528H82.6031V80.92H87.7511V84.52H82.6031V93.664C82.6031 94.6 82.8311 95.32 83.2871 95.824C83.7431 96.304 84.4031 96.544 85.2671 96.544C86.2751 96.544 87.1151 96.28 87.7871 95.752L89.0471 98.956ZM122.385 80.776L115.293 100H110.973L106.005 86.752L100.965 100H96.6453L89.5893 80.776H93.8373L98.9133 94.96L104.205 80.776H107.985L113.169 95.032L118.389 80.776H122.385ZM133.592 100.252C131.648 100.252 129.896 99.832 128.336 98.992C126.776 98.152 125.552 96.988 124.664 95.5C123.8 93.988 123.368 92.284 123.368 90.388C123.368 88.492 123.8 86.8 124.664 85.312C125.552 83.824 126.776 82.66 128.336 81.82C129.896 80.98 131.648 80.56 133.592 80.56C135.56 80.56 137.324 80.98 138.884 81.82C140.444 82.66 141.656 83.824 142.52 85.312C143.408 86.8 143.852 88.492 143.852 90.388C143.852 92.284 143.408 93.988 142.52 95.5C141.656 96.988 140.444 98.152 138.884 98.992C137.324 99.832 135.56 100.252 133.592 100.252ZM133.592 96.4C135.248 96.4 136.616 95.848 137.696 94.744C138.776 93.64 139.316 92.188 139.316 90.388C139.316 88.588 138.776 87.136 137.696 86.032C136.616 84.928 135.248 84.376 133.592 84.376C131.936 84.376 130.568 84.928 129.488 86.032C128.432 87.136 127.904 88.588 127.904 90.388C127.904 92.188 128.432 93.64 129.488 94.744C130.568 95.848 131.936 96.4 133.592 96.4ZM152.439 83.584C153.735 81.568 156.015 80.56 159.279 80.56V84.844C158.895 84.772 158.547 84.736 158.235 84.736C156.483 84.736 155.115 85.252 154.131 86.284C153.147 87.292 152.655 88.756 152.655 90.676V100H148.155V80.776H152.439V83.584ZM170.945 91.756L167.597 94.924V100H163.097V73.288H167.597V89.416L176.921 80.776H182.321L174.293 88.84L183.077 100H177.605L170.945 91.756ZM185.807 80.776H190.307V100H185.807V80.776ZM188.075 77.608C187.259 77.608 186.575 77.356 186.023 76.852C185.471 76.324 185.195 75.676 185.195 74.908C185.195 74.14 185.471 73.504 186.023 73C186.575 72.472 187.259 72.208 188.075 72.208C188.891 72.208 189.575 72.46 190.127 72.964C190.679 73.444 190.955 74.056 190.955 74.8C190.955 75.592 190.679 76.264 190.127 76.816C189.599 77.344 188.915 77.608 188.075 77.608ZM207.122 80.56C209.546 80.56 211.49 81.268 212.954 82.684C214.418 84.1 215.15 86.2 215.15 88.984V100H210.65V89.56C210.65 87.88 210.254 86.62 209.462 85.78C208.67 84.916 207.542 84.484 206.078 84.484C204.422 84.484 203.114 84.988 202.154 85.996C201.194 86.98 200.714 88.408 200.714 90.28V100H196.214V80.776H200.498V83.26C201.242 82.372 202.178 81.7 203.306 81.244C204.434 80.788 205.706 80.56 207.122 80.56ZM240.114 80.776V97.084C240.114 103.852 236.658 107.236 229.746 107.236C227.898 107.236 226.146 106.996 224.49 106.516C222.834 106.06 221.466 105.388 220.386 104.5L222.402 101.116C223.242 101.812 224.298 102.364 225.57 102.772C226.866 103.204 228.174 103.42 229.494 103.42C231.606 103.42 233.154 102.94 234.138 101.98C235.122 101.02 235.614 99.556 235.614 97.588V96.58C234.846 97.42 233.91 98.056 232.806 98.488C231.702 98.92 230.49 99.136 229.17 99.136C227.346 99.136 225.69 98.752 224.202 97.984C222.738 97.192 221.574 96.088 220.71 94.672C219.87 93.256 219.45 91.636 219.45 89.812C219.45 87.988 219.87 86.38 220.71 84.988C221.574 83.572 222.738 82.48 224.202 81.712C225.69 80.944 227.346 80.56 229.17 80.56C230.562 80.56 231.822 80.788 232.95 81.244C234.102 81.7 235.062 82.396 235.83 83.332V80.776H240.114ZM229.854 95.32C231.558 95.32 232.95 94.816 234.03 93.808C235.134 92.776 235.686 91.444 235.686 89.812C235.686 88.204 235.134 86.896 234.03 85.888C232.95 84.88 231.558 84.376 229.854 84.376C228.126 84.376 226.71 84.88 225.606 85.888C224.526 86.896 223.986 88.204 223.986 89.812C223.986 91.444 224.526 92.776 225.606 93.808C226.71 94.816 228.126 95.32 229.854 95.32Z" fill="#FFEFEF"/>
<g filter="url(#filter0_i)">
<g filter="url(#filter1_i)">
<ellipse cx="466.5" cy="86" rx="87.5" ry="86" fill="#40A4FF"/>
</g>
<g filter="url(#filter2_i)">
<path fill-rule="evenodd" clip-rule="evenodd" d="M467.977 37C455.902 37 446.202 48.5017 446.202 62.8209C446.202 77.1443 455.901 88.647 467.977 88.647C480.053 88.647 489.752 77.1443 489.752 62.8209C489.752 48.5017 480.052 37 467.977 37ZM467.977 45.4048C476.138 45.4048 482.664 53.1435 482.664 62.8209C482.664 72.5028 476.139 80.2422 467.977 80.2422C459.816 80.2422 453.29 72.5028 453.29 62.8209C453.29 53.1435 459.816 45.4048 467.977 45.4048ZM441.291 42.2775C443.248 42.2775 444.835 44.159 444.835 46.4799C444.835 48.8008 443.248 50.6823 441.291 50.6823C435.676 50.6823 431.122 56.0803 431.122 62.7362C431.122 69.392 435.676 74.79 441.291 74.79C443.248 74.79 444.835 76.6715 444.835 78.9924C444.835 81.3134 443.248 83.1948 441.291 83.1948C431.762 83.1948 424.034 74.0347 424.034 62.7362C424.034 51.4376 431.762 42.2775 441.291 42.2775ZM511.965 62.7362C511.965 51.4376 504.237 42.2775 494.708 42.2775C492.751 42.2775 491.164 44.159 491.164 46.4799C491.164 48.8008 492.751 50.6823 494.708 50.6823C500.323 50.6823 504.877 56.0803 504.877 62.7362C504.877 69.392 500.323 74.79 494.708 74.79C492.751 74.79 491.164 76.6715 491.164 78.9924C491.164 81.3134 492.751 83.1948 494.708 83.1948C504.237 83.1948 511.965 74.0347 511.965 62.7362ZM508.416 93.6902C506.147 93.083 503.722 92.6678 501.257 92.4662C499.304 92.3065 497.612 94.0541 497.477 96.3695C497.343 98.6849 498.816 100.691 500.769 100.851C502.879 101.024 504.947 101.378 506.957 101.914C510.083 102.642 512.122 103.848 512.628 105.105C513.008 106.054 513.008 107.169 512.624 108.13C512.125 109.374 510.104 110.574 507.021 111.326C505.104 111.793 503.87 114.015 504.264 116.288C504.658 118.562 506.532 120.026 508.449 119.558C513.544 118.316 517.275 116.101 519.026 111.736C520.324 108.491 520.324 104.727 519.027 101.49C517.263 97.1087 513.467 94.8629 508.416 93.6902ZM438.522 96.3695C438.388 94.0541 436.695 92.3065 434.743 92.4662C432.277 92.6678 429.853 93.083 427.486 93.7145L426.511 93.9592C422.033 95.1724 418.617 97.4019 416.977 101.49C415.674 104.724 415.674 108.494 416.979 111.739C418.722 116.1 422.454 118.315 427.551 119.558C429.468 120.026 431.341 118.562 431.736 116.288C432.13 114.015 430.895 111.793 428.978 111.326C425.897 110.574 423.878 109.375 423.38 108.13C422.992 107.166 422.992 106.057 423.375 105.107C423.881 103.847 425.917 102.641 428.945 101.938L430.52 101.556C432.089 101.212 433.648 100.98 435.231 100.851C437.183 100.691 438.657 98.6849 438.522 96.3695ZM435.985 114.027C435.985 100.658 447.647 95.957 467.978 95.957L469.418 95.9649C488.9 96.1819 499.97 100.894 499.97 113.93C499.97 126.658 489.388 131.532 470.822 131.968L467.978 132C447.6 132 435.985 127.381 435.985 114.027ZM492.883 113.93C492.883 107.707 484.469 104.362 467.978 104.362C451.503 104.362 443.073 107.76 443.073 114.027C443.073 120.251 451.484 123.595 467.978 123.595C484.448 123.595 492.883 120.194 492.883 113.93Z" fill="#FFEFEF"/>
</g>
</g>
<defs>
<filter id="filter0_i" x="379" y="0" width="175" height="176" filterUnits="userSpaceOnUse" color-interpolation-filters="sRGB">
<feFlood flood-opacity="0" result="BackgroundImageFix"/>
<feBlend mode="normal" in="SourceGraphic" in2="BackgroundImageFix" result="shape"/>
<feColorMatrix in="SourceAlpha" type="matrix" values="0 0 0 0 0 0 0 0 0 0 0 0 0 0 0 0 0 0 127 0" result="hardAlpha"/>
<feOffset dy="4"/>
<feGaussianBlur stdDeviation="2"/>
<feComposite in2="hardAlpha" operator="arithmetic" k2="-1" k3="1"/>
<feColorMatrix type="matrix" values="0 0 0 0 0 0 0 0 0 0 0 0 0 0 0 0 0 0 0.25 0"/>
<feBlend mode="normal" in2="shape" result="effect1_innerShadow"/>
</filter>
<filter id="filter1_i" x="379" y="0" width="175" height="176" filterUnits="userSpaceOnUse" color-interpolation-filters="sRGB">
<feFlood flood-opacity="0" result="BackgroundImageFix"/>
<feBlend mode="normal" in="SourceGraphic" in2="BackgroundImageFix" result="shape"/>
<feColorMatrix in="SourceAlpha" type="matrix" values="0 0 0 0 0 0 0 0 0 0 0 0 0 0 0 0 0 0 127 0" result="hardAlpha"/>
<feOffset dy="4"/>
<feGaussianBlur stdDeviation="2"/>
<feComposite in2="hardAlpha" operator="arithmetic" k2="-1" k3="1"/>
<feColorMatrix type="matrix" values="0 0 0 0 0 0 0 0 0 0 0 0 0 0 0 0 0 0 0.25 0"/>
<feBlend mode="normal" in2="shape" result="effect1_innerShadow"/>
</filter>
<filter id="filter2_i" x="416" y="37" width="104" height="99" filterUnits="userSpaceOnUse" color-interpolation-filters="sRGB">
<feFlood flood-opacity="0" result="BackgroundImageFix"/>
<feBlend mode="normal" in="SourceGraphic" in2="BackgroundImageFix" result="shape"/>
<feColorMatrix in="SourceAlpha" type="matrix" values="0 0 0 0 0 0 0 0 0 0 0 0 0 0 0 0 0 0 127 0" result="hardAlpha"/>
<feOffset dy="4"/>
<feGaussianBlur stdDeviation="2"/>
<feComposite in2="hardAlpha" operator="arithmetic" k2="-1" k3="1"/>
<feColorMatrix type="matrix" values="0 0 0 0 0 0 0 0 0 0 0 0 0 0 0 0 0 0 0.25 0"/>
<feBlend mode="normal" in2="shape" result="effect1_innerShadow"/>
</filter>
</defs>
</svg>
