<svg width="541" height="615" viewBox="0 0 541 615" fill="none" xmlns="http://www.w3.org/2000/svg">
<g filter="url(#filter0_d)">
<rect x="4" width="533" height="602" rx="20" fill="#419EF9"/>
</g>
<g filter="url(#filter1_d)">
<g filter="url(#filter2_i)">
<path fill-rule="evenodd" clip-rule="evenodd" d="M266.432 115.554C233.226 115.554 206.554 139.93 206.554 170.277C206.554 200.633 233.224 225.011 266.432 225.011C299.641 225.011 326.311 200.633 326.311 170.277C326.311 139.93 299.638 115.554 266.432 115.554ZM266.432 133.367C288.874 133.367 306.82 149.767 306.82 170.277C306.82 190.796 288.876 207.198 266.432 207.198C243.989 207.198 226.045 190.796 226.045 170.277C226.045 149.767 243.991 133.367 266.432 133.367ZM193.048 126.739C198.43 126.739 202.793 130.726 202.793 135.645C202.793 140.564 198.43 144.551 193.048 144.551C177.607 144.551 165.083 155.992 165.083 170.098C165.083 184.203 177.607 195.644 193.048 195.644C198.43 195.644 202.793 199.631 202.793 204.55C202.793 209.469 198.43 213.456 193.048 213.456C166.844 213.456 145.593 194.043 145.593 170.098C145.593 146.152 166.844 126.739 193.048 126.739ZM387.396 170.098C387.396 146.152 366.145 126.739 339.941 126.739C334.559 126.739 330.196 130.726 330.196 135.645C330.196 140.564 334.559 144.551 339.941 144.551C355.382 144.551 367.906 155.992 367.906 170.098C367.906 184.203 355.382 195.644 339.941 195.644C334.559 195.644 330.196 199.631 330.196 204.55C330.196 209.469 334.559 213.456 339.941 213.456C366.145 213.456 387.396 194.043 387.396 170.098ZM377.634 235.699C371.395 234.412 364.727 233.532 357.947 233.105C352.577 232.767 347.924 236.47 347.554 241.377C347.184 246.285 351.236 250.537 356.606 250.875C362.408 251.241 368.094 251.991 373.622 253.128C382.22 254.67 387.825 257.226 389.216 259.89C390.263 261.901 390.263 264.266 389.206 266.301C387.834 268.939 382.275 271.482 373.799 273.074C368.527 274.065 365.132 278.774 366.216 283.592C367.3 288.41 372.453 291.513 377.725 290.522C391.735 287.889 401.997 283.194 406.812 273.944C410.382 267.066 410.382 259.089 406.812 252.23C401.964 242.944 391.524 238.184 377.634 235.699ZM185.434 241.377C185.063 236.47 180.41 232.767 175.041 233.105C168.261 233.532 161.593 234.412 155.086 235.75L152.404 236.269C140.091 238.84 130.697 243.565 126.188 252.229C122.603 259.082 122.603 267.073 126.192 273.951C130.985 283.192 141.247 287.888 155.263 290.522C160.535 291.513 165.687 288.41 166.771 283.592C167.855 278.774 164.461 274.065 159.189 273.074C150.716 271.482 145.163 268.941 143.794 266.303C142.728 264.259 142.728 261.908 143.781 259.895C145.171 257.224 150.771 254.67 159.098 253.18L163.428 252.37C167.744 251.64 172.031 251.15 176.382 250.875C181.751 250.537 185.804 246.285 185.434 241.377ZM178.456 278.8C178.456 250.467 210.524 240.503 266.432 240.503L270.393 240.52C323.965 240.98 354.408 250.967 354.408 278.593C354.408 305.57 325.308 315.899 274.254 316.821L266.432 316.89C210.395 316.89 178.456 307.102 178.456 278.8ZM334.917 278.593C334.917 265.406 311.781 258.316 266.432 258.316C221.126 258.316 197.946 265.518 197.946 278.8C197.946 291.989 221.075 299.078 266.432 299.078C311.723 299.078 334.917 291.869 334.917 278.593Z" fill="#FFEFEF"/>
</g>
</g>
<g filter="url(#filter3_d)">
<path d="M151.813 42.4V76H145.429L128.677 55.6V76H120.997V42.4H127.429L144.133 62.8V42.4H151.813ZM184.53 63.184C184.53 63.28 184.482 63.952 184.386 65.2H164.85C165.202 66.8 166.034 68.064 167.346 68.992C168.658 69.92 170.29 70.384 172.242 70.384C173.586 70.384 174.77 70.192 175.794 69.808C176.85 69.392 177.826 68.752 178.722 67.888L182.706 72.208C180.274 74.992 176.722 76.384 172.05 76.384C169.138 76.384 166.562 75.824 164.322 74.704C162.082 73.552 160.354 71.968 159.138 69.952C157.922 67.936 157.314 65.648 157.314 63.088C157.314 60.56 157.906 58.288 159.09 56.272C160.306 54.224 161.954 52.64 164.034 51.52C166.146 50.368 168.498 49.792 171.09 49.792C173.618 49.792 175.906 50.336 177.954 51.424C180.002 52.512 181.602 54.08 182.754 56.128C183.938 58.144 184.53 60.496 184.53 63.184ZM171.138 55.456C169.442 55.456 168.018 55.936 166.866 56.896C165.714 57.856 165.01 59.168 164.754 60.832H177.474C177.218 59.2 176.514 57.904 175.362 56.944C174.21 55.952 172.802 55.456 171.138 55.456ZM206.172 74.752C205.436 75.296 204.524 75.712 203.436 76C202.38 76.256 201.26 76.384 200.076 76.384C197.004 76.384 194.62 75.6 192.924 74.032C191.26 72.464 190.428 70.16 190.428 67.12V56.512H186.444V50.752H190.428V44.464H197.916V50.752H204.348V56.512H197.916V67.024C197.916 68.112 198.188 68.96 198.732 69.568C199.308 70.144 200.108 70.432 201.132 70.432C202.316 70.432 203.324 70.112 204.156 69.472L206.172 74.752ZM251.378 50.176L242.018 76H234.818L229.01 59.968L223.01 76H215.81L206.498 50.176H213.554L219.65 67.648L225.986 50.176H232.322L238.466 67.648L244.754 50.176H251.378ZM266.444 76.384C263.724 76.384 261.276 75.824 259.1 74.704C256.956 73.552 255.276 71.968 254.06 69.952C252.844 67.936 252.236 65.648 252.236 63.088C252.236 60.528 252.844 58.24 254.06 56.224C255.276 54.208 256.956 52.64 259.1 51.52C261.276 50.368 263.724 49.792 266.444 49.792C269.164 49.792 271.596 50.368 273.74 51.52C275.884 52.64 277.564 54.208 278.78 56.224C279.996 58.24 280.604 60.528 280.604 63.088C280.604 65.648 279.996 67.936 278.78 69.952C277.564 71.968 275.884 73.552 273.74 74.704C271.596 75.824 269.164 76.384 266.444 76.384ZM266.444 70.24C268.364 70.24 269.932 69.6 271.148 68.32C272.396 67.008 273.02 65.264 273.02 63.088C273.02 60.912 272.396 59.184 271.148 57.904C269.932 56.592 268.364 55.936 266.444 55.936C264.524 55.936 262.94 56.592 261.692 57.904C260.444 59.184 259.82 60.912 259.82 63.088C259.82 65.264 260.444 67.008 261.692 68.32C262.94 69.6 264.524 70.24 266.444 70.24ZM292.761 53.584C293.657 52.336 294.857 51.392 296.361 50.752C297.897 50.112 299.657 49.792 301.641 49.792V56.704C300.809 56.64 300.249 56.608 299.961 56.608C297.817 56.608 296.137 57.216 294.921 58.432C293.705 59.616 293.097 61.408 293.097 63.808V76H285.609V50.176H292.761V53.584ZM317.182 65.872L313.582 69.424V76H306.094V40.384H313.582V60.544L324.526 50.176H333.454L322.702 61.12L334.414 76H325.342L317.182 65.872ZM337.594 50.176H345.082V76H337.594V50.176ZM341.338 46.576C339.962 46.576 338.842 46.176 337.978 45.376C337.114 44.576 336.682 43.584 336.682 42.4C336.682 41.216 337.114 40.224 337.978 39.424C338.842 38.624 339.962 38.224 341.338 38.224C342.714 38.224 343.834 38.608 344.698 39.376C345.562 40.144 345.994 41.104 345.994 42.256C345.994 43.504 345.562 44.544 344.698 45.376C343.834 46.176 342.714 46.576 341.338 46.576ZM367.727 49.792C370.927 49.792 373.503 50.752 375.455 52.672C377.439 54.592 378.431 57.44 378.431 61.216V76H370.943V62.368C370.943 60.32 370.495 58.8 369.599 57.808C368.703 56.784 367.407 56.272 365.711 56.272C363.823 56.272 362.319 56.864 361.199 58.048C360.079 59.2 359.519 60.928 359.519 63.232V76H352.031V50.176H359.183V53.2C360.175 52.112 361.407 51.28 362.879 50.704C364.351 50.096 365.967 49.792 367.727 49.792ZM412.14 50.176V71.68C412.14 76.416 410.908 79.936 408.444 82.24C405.98 84.544 402.38 85.696 397.644 85.696C395.148 85.696 392.78 85.392 390.54 84.784C388.3 84.176 386.444 83.296 384.972 82.144L387.948 76.768C389.036 77.664 390.412 78.368 392.076 78.88C393.74 79.424 395.404 79.696 397.068 79.696C399.66 79.696 401.564 79.104 402.78 77.92C404.028 76.768 404.652 75.008 404.652 72.64V71.536C402.7 73.68 399.98 74.752 396.492 74.752C394.124 74.752 391.948 74.24 389.964 73.216C388.012 72.16 386.46 70.688 385.308 68.8C384.156 66.912 383.58 64.736 383.58 62.272C383.58 59.808 384.156 57.632 385.308 55.744C386.46 53.856 388.012 52.4 389.964 51.376C391.948 50.32 394.124 49.792 396.492 49.792C400.236 49.792 403.084 51.024 405.036 53.488V50.176H412.14ZM397.98 68.608C399.964 68.608 401.58 68.032 402.828 66.88C404.108 65.696 404.748 64.16 404.748 62.272C404.748 60.384 404.108 58.864 402.828 57.712C401.58 56.528 399.964 55.936 397.98 55.936C395.996 55.936 394.364 56.528 393.084 57.712C391.804 58.864 391.164 60.384 391.164 62.272C391.164 64.16 391.804 65.696 393.084 66.88C394.364 68.032 395.996 68.608 397.98 68.608Z" fill="#FFEFEF"/>
</g>
<g filter="url(#filter4_d)">
<path d="M40.2585 357.2C42.3212 357.2 44.1118 357.54 45.6305 358.22C47.1718 358.9 48.3505 359.875 49.1665 361.144C49.9825 362.413 50.3905 363.921 50.3905 365.666C50.3905 367.389 49.9825 368.896 49.1665 370.188C48.3505 371.457 47.1718 372.432 45.6305 373.112C44.1118 373.792 42.3212 374.132 40.2585 374.132H34.8865V381H30.4665V357.2H40.2585ZM40.0545 370.392C41.9812 370.392 43.4432 369.984 44.4405 369.168C45.4378 368.352 45.9365 367.185 45.9365 365.666C45.9365 364.147 45.4378 362.98 44.4405 362.164C43.4432 361.348 41.9812 360.94 40.0545 360.94H34.8865V370.392H40.0545ZM71.398 372.024C71.398 372.319 71.3753 372.738 71.33 373.282H57.084C57.3333 374.619 57.9793 375.685 59.022 376.478C60.0873 377.249 61.402 377.634 62.966 377.634C64.9607 377.634 66.604 376.977 67.896 375.662L70.174 378.28C69.358 379.255 68.3267 379.991 67.08 380.49C65.8333 380.989 64.428 381.238 62.864 381.238C60.8693 381.238 59.1127 380.841 57.594 380.048C56.0753 379.255 54.8967 378.155 54.058 376.75C53.242 375.322 52.834 373.713 52.834 371.922C52.834 370.154 53.2307 368.567 54.024 367.162C54.84 365.734 55.962 364.623 57.39 363.83C58.818 363.037 60.4273 362.64 62.218 362.64C63.986 362.64 65.5613 363.037 66.944 363.83C68.3493 364.601 69.4373 365.7 70.208 367.128C71.0013 368.533 71.398 370.165 71.398 372.024ZM62.218 366.04C60.858 366.04 59.702 366.448 58.75 367.264C57.8207 368.057 57.254 369.123 57.05 370.46H67.352C67.1707 369.145 66.6153 368.08 65.686 367.264C64.7567 366.448 63.6007 366.04 62.218 366.04ZM81.0904 381.238C79.617 381.238 78.1777 381.045 76.7724 380.66C75.367 380.275 74.245 379.787 73.4064 379.198L75.0384 375.968C75.8544 376.512 76.829 376.954 77.9624 377.294C79.1184 377.611 80.2517 377.77 81.3624 377.77C83.9011 377.77 85.1704 377.101 85.1704 375.764C85.1704 375.129 84.8417 374.687 84.1844 374.438C83.5497 374.189 82.5184 373.951 81.0904 373.724C79.5944 373.497 78.3704 373.237 77.4184 372.942C76.489 372.647 75.673 372.137 74.9704 371.412C74.2904 370.664 73.9504 369.633 73.9504 368.318C73.9504 366.595 74.6644 365.224 76.0924 364.204C77.543 363.161 79.4924 362.64 81.9404 362.64C83.1871 362.64 84.4337 362.787 85.6804 363.082C86.927 363.354 87.947 363.728 88.7404 364.204L87.1084 367.434C85.567 366.527 83.833 366.074 81.9064 366.074C80.6597 366.074 79.7077 366.267 79.0504 366.652C78.4157 367.015 78.0984 367.502 78.0984 368.114C78.0984 368.794 78.4384 369.281 79.1184 369.576C79.821 369.848 80.8977 370.109 82.3484 370.358C83.7991 370.585 84.9891 370.845 85.9184 371.14C86.8477 371.435 87.641 371.933 88.2984 372.636C88.9784 373.339 89.3184 374.336 89.3184 375.628C89.3184 377.328 88.5817 378.688 87.1084 379.708C85.6351 380.728 83.6291 381.238 81.0904 381.238ZM110.046 372.024C110.046 372.319 110.024 372.738 109.978 373.282H95.7324C95.9818 374.619 96.6278 375.685 97.6704 376.478C98.7358 377.249 100.05 377.634 101.614 377.634C103.609 377.634 105.252 376.977 106.544 375.662L108.822 378.28C108.006 379.255 106.975 379.991 105.728 380.49C104.482 380.989 103.076 381.238 101.512 381.238C99.5178 381.238 97.7611 380.841 96.2424 380.048C94.7238 379.255 93.5451 378.155 92.7064 376.75C91.8904 375.322 91.4824 373.713 91.4824 371.922C91.4824 370.154 91.8791 368.567 92.6724 367.162C93.4884 365.734 94.6104 364.623 96.0384 363.83C97.4664 363.037 99.0758 362.64 100.866 362.64C102.634 362.64 104.21 363.037 105.592 363.83C106.998 364.601 108.086 365.7 108.856 367.128C109.65 368.533 110.046 370.165 110.046 372.024ZM100.866 366.04C99.5064 366.04 98.3504 366.448 97.3984 367.264C96.4691 368.057 95.9024 369.123 95.6984 370.46H106C105.819 369.145 105.264 368.08 104.334 367.264C103.405 366.448 102.249 366.04 100.866 366.04ZM118.175 365.496C119.399 363.592 121.552 362.64 124.635 362.64V366.686C124.272 366.618 123.943 366.584 123.649 366.584C121.994 366.584 120.702 367.071 119.773 368.046C118.843 368.998 118.379 370.381 118.379 372.194V381H114.129V362.844H118.175V365.496ZM139.818 380.014C139.32 380.422 138.708 380.728 137.982 380.932C137.28 381.136 136.532 381.238 135.738 381.238C133.744 381.238 132.202 380.717 131.114 379.674C130.026 378.631 129.482 377.113 129.482 375.118V366.38H126.49V362.98H129.482V358.832H133.732V362.98H138.594V366.38H133.732V375.016C133.732 375.9 133.948 376.58 134.378 377.056C134.809 377.509 135.432 377.736 136.248 377.736C137.2 377.736 137.994 377.487 138.628 376.988L139.818 380.014ZM150.25 362.64C152.925 362.64 154.965 363.286 156.37 364.578C157.798 365.847 158.512 367.774 158.512 370.358V381H154.5V378.79C153.979 379.583 153.231 380.195 152.256 380.626C151.304 381.034 150.148 381.238 148.788 381.238C147.428 381.238 146.238 381.011 145.218 380.558C144.198 380.082 143.405 379.436 142.838 378.62C142.294 377.781 142.022 376.841 142.022 375.798C142.022 374.166 142.623 372.863 143.824 371.888C145.048 370.891 146.964 370.392 149.57 370.392H154.262V370.12C154.262 368.851 153.877 367.876 153.106 367.196C152.358 366.516 151.236 366.176 149.74 366.176C148.72 366.176 147.712 366.335 146.714 366.652C145.74 366.969 144.912 367.411 144.232 367.978L142.566 364.884C143.518 364.159 144.663 363.603 146 363.218C147.338 362.833 148.754 362.64 150.25 362.64ZM149.672 378.144C150.738 378.144 151.678 377.906 152.494 377.43C153.333 376.931 153.922 376.229 154.262 375.322V373.214H149.876C147.428 373.214 146.204 374.019 146.204 375.628C146.204 376.399 146.51 377.011 147.122 377.464C147.734 377.917 148.584 378.144 149.672 378.144ZM180.299 362.64C182.974 362.64 185.014 363.286 186.419 364.578C187.847 365.847 188.561 367.774 188.561 370.358V381H184.549V378.79C184.028 379.583 183.28 380.195 182.305 380.626C181.353 381.034 180.197 381.238 178.837 381.238C177.477 381.238 176.287 381.011 175.267 380.558C174.247 380.082 173.454 379.436 172.887 378.62C172.343 377.781 172.071 376.841 172.071 375.798C172.071 374.166 172.672 372.863 173.873 371.888C175.097 370.891 177.013 370.392 179.619 370.392H184.311V370.12C184.311 368.851 183.926 367.876 183.155 367.196C182.407 366.516 181.285 366.176 179.789 366.176C178.769 366.176 177.761 366.335 176.763 366.652C175.789 366.969 174.961 367.411 174.281 367.978L172.615 364.884C173.567 364.159 174.712 363.603 176.049 363.218C177.387 362.833 178.803 362.64 180.299 362.64ZM179.721 378.144C180.787 378.144 181.727 377.906 182.543 377.43C183.382 376.931 183.971 376.229 184.311 375.322V373.214H179.925C177.477 373.214 176.253 374.019 176.253 375.628C176.253 376.399 176.559 377.011 177.171 377.464C177.783 377.917 178.633 378.144 179.721 378.144ZM201.428 373.214L198.266 376.206V381H194.016V355.772H198.266V371.004L207.072 362.844H212.172L204.59 370.46L212.886 381H207.718L201.428 373.214ZM222.235 362.64C224.909 362.64 226.949 363.286 228.355 364.578C229.783 365.847 230.497 367.774 230.497 370.358V381H226.485V378.79C225.963 379.583 225.215 380.195 224.241 380.626C223.289 381.034 222.133 381.238 220.773 381.238C219.413 381.238 218.223 381.011 217.203 380.558C216.183 380.082 215.389 379.436 214.823 378.62C214.279 377.781 214.007 376.841 214.007 375.798C214.007 374.166 214.607 372.863 215.809 371.888C217.033 370.891 218.948 370.392 221.555 370.392H226.247V370.12C226.247 368.851 225.861 367.876 225.091 367.196C224.343 366.516 223.221 366.176 221.725 366.176C220.705 366.176 219.696 366.335 218.699 366.652C217.724 366.969 216.897 367.411 216.217 367.978L214.551 364.884C215.503 364.159 216.647 363.603 217.985 363.218C219.322 362.833 220.739 362.64 222.235 362.64ZM221.657 378.144C222.722 378.144 223.663 377.906 224.479 377.43C225.317 376.931 225.907 376.229 226.247 375.322V373.214H221.861C219.413 373.214 218.189 374.019 218.189 375.628C218.189 376.399 218.495 377.011 219.107 377.464C219.719 377.917 220.569 378.144 221.657 378.144ZM246.253 362.64C248.542 362.64 250.378 363.309 251.761 364.646C253.144 365.983 253.835 367.967 253.835 370.596V381H249.585V371.14C249.585 369.553 249.211 368.363 248.463 367.57C247.715 366.754 246.65 366.346 245.267 366.346C243.703 366.346 242.468 366.822 241.561 367.774C240.654 368.703 240.201 370.052 240.201 371.82V381H235.951V362.844H239.997V365.19C240.7 364.351 241.584 363.717 242.649 363.286C243.714 362.855 244.916 362.64 246.253 362.64ZM291.539 362.64C293.828 362.64 295.642 363.309 296.979 364.646C298.316 365.961 298.985 367.944 298.985 370.596V381H294.735V371.14C294.735 369.553 294.384 368.363 293.681 367.57C292.978 366.754 291.97 366.346 290.655 366.346C289.227 366.346 288.082 366.822 287.221 367.774C286.36 368.703 285.929 370.041 285.929 371.786V381H281.679V371.14C281.679 369.553 281.328 368.363 280.625 367.57C279.922 366.754 278.914 366.346 277.599 366.346C276.148 366.346 274.992 366.811 274.131 367.74C273.292 368.669 272.873 370.018 272.873 371.786V381H268.623V362.844H272.669V365.156C273.349 364.34 274.199 363.717 275.219 363.286C276.239 362.855 277.372 362.64 278.619 362.64C279.979 362.64 281.18 362.901 282.223 363.422C283.288 363.921 284.127 364.669 284.739 365.666C285.487 364.714 286.45 363.977 287.629 363.456C288.808 362.912 290.111 362.64 291.539 362.64ZM321.65 372.024C321.65 372.319 321.627 372.738 321.582 373.282H307.336C307.585 374.619 308.231 375.685 309.274 376.478C310.339 377.249 311.654 377.634 313.218 377.634C315.213 377.634 316.856 376.977 318.148 375.662L320.426 378.28C319.61 379.255 318.579 379.991 317.332 380.49C316.085 380.989 314.68 381.238 313.116 381.238C311.121 381.238 309.365 380.841 307.846 380.048C306.327 379.255 305.149 378.155 304.31 376.75C303.494 375.322 303.086 373.713 303.086 371.922C303.086 370.154 303.483 368.567 304.276 367.162C305.092 365.734 306.214 364.623 307.642 363.83C309.07 363.037 310.679 362.64 312.47 362.64C314.238 362.64 315.813 363.037 317.196 363.83C318.601 364.601 319.689 365.7 320.46 367.128C321.253 368.533 321.65 370.165 321.65 372.024ZM312.47 366.04C311.11 366.04 309.954 366.448 309.002 367.264C308.073 368.057 307.506 369.123 307.302 370.46H317.604C317.423 369.145 316.867 368.08 315.938 367.264C315.009 366.448 313.853 366.04 312.47 366.04ZM336.034 362.64C338.324 362.64 340.16 363.309 341.542 364.646C342.925 365.983 343.616 367.967 343.616 370.596V381H339.366V371.14C339.366 369.553 338.992 368.363 338.244 367.57C337.496 366.754 336.431 366.346 335.048 366.346C333.484 366.346 332.249 366.822 331.342 367.774C330.436 368.703 329.982 370.052 329.982 371.82V381H325.732V362.844H329.778V365.19C330.481 364.351 331.365 363.717 332.43 363.286C333.496 362.855 334.697 362.64 336.034 362.64ZM366.956 355.772V381H362.876V378.654C362.173 379.515 361.3 380.161 360.258 380.592C359.238 381.023 358.104 381.238 356.858 381.238C355.112 381.238 353.537 380.853 352.132 380.082C350.749 379.311 349.661 378.223 348.868 376.818C348.074 375.39 347.678 373.758 347.678 371.922C347.678 370.086 348.074 368.465 348.868 367.06C349.661 365.655 350.749 364.567 352.132 363.796C353.537 363.025 355.112 362.64 356.858 362.64C358.059 362.64 359.158 362.844 360.156 363.252C361.153 363.66 362.003 364.272 362.706 365.088V355.772H366.956ZM357.368 377.6C358.388 377.6 359.306 377.373 360.122 376.92C360.938 376.444 361.584 375.775 362.06 374.914C362.536 374.053 362.774 373.055 362.774 371.922C362.774 370.789 362.536 369.791 362.06 368.93C361.584 368.069 360.938 367.411 360.122 366.958C359.306 366.482 358.388 366.244 357.368 366.244C356.348 366.244 355.43 366.482 354.614 366.958C353.798 367.411 353.152 368.069 352.676 368.93C352.2 369.791 351.962 370.789 351.962 371.922C351.962 373.055 352.2 374.053 352.676 374.914C353.152 375.775 353.798 376.444 354.614 376.92C355.43 377.373 356.348 377.6 357.368 377.6ZM379.452 362.64C382.126 362.64 384.166 363.286 385.572 364.578C387 365.847 387.714 367.774 387.714 370.358V381H383.702V378.79C383.18 379.583 382.432 380.195 381.458 380.626C380.506 381.034 379.35 381.238 377.99 381.238C376.63 381.238 375.44 381.011 374.42 380.558C373.4 380.082 372.606 379.436 372.04 378.62C371.496 377.781 371.224 376.841 371.224 375.798C371.224 374.166 371.824 372.863 373.026 371.888C374.25 370.891 376.165 370.392 378.772 370.392H383.464V370.12C383.464 368.851 383.078 367.876 382.308 367.196C381.56 366.516 380.438 366.176 378.942 366.176C377.922 366.176 376.913 366.335 375.916 366.652C374.941 366.969 374.114 367.411 373.434 367.978L371.768 364.884C372.72 364.159 373.864 363.603 375.202 363.218C376.539 362.833 377.956 362.64 379.452 362.64ZM378.874 378.144C379.939 378.144 380.88 377.906 381.696 377.43C382.534 376.931 383.124 376.229 383.464 375.322V373.214H379.078C376.63 373.214 375.406 374.019 375.406 375.628C375.406 376.399 375.712 377.011 376.324 377.464C376.936 377.917 377.786 378.144 378.874 378.144ZM403.232 362.64C405 362.64 406.575 363.025 407.958 363.796C409.363 364.567 410.463 365.655 411.256 367.06C412.049 368.465 412.446 370.086 412.446 371.922C412.446 373.758 412.049 375.39 411.256 376.818C410.463 378.223 409.363 379.311 407.958 380.082C406.575 380.853 405 381.238 403.232 381.238C400.784 381.238 398.846 380.422 397.418 378.79V387.596H393.168V362.844H397.214V365.224C397.917 364.363 398.778 363.717 399.798 363.286C400.841 362.855 401.985 362.64 403.232 362.64ZM402.756 377.6C404.32 377.6 405.601 377.079 406.598 376.036C407.618 374.993 408.128 373.622 408.128 371.922C408.128 370.222 407.618 368.851 406.598 367.808C405.601 366.765 404.32 366.244 402.756 366.244C401.736 366.244 400.818 366.482 400.002 366.958C399.186 367.411 398.54 368.069 398.064 368.93C397.588 369.791 397.35 370.789 397.35 371.922C397.35 373.055 397.588 374.053 398.064 374.914C398.54 375.775 399.186 376.444 400.002 376.92C400.818 377.373 401.736 377.6 402.756 377.6ZM423.18 362.64C425.855 362.64 427.895 363.286 429.3 364.578C430.728 365.847 431.442 367.774 431.442 370.358V381H427.43V378.79C426.909 379.583 426.161 380.195 425.186 380.626C424.234 381.034 423.078 381.238 421.718 381.238C420.358 381.238 419.168 381.011 418.148 380.558C417.128 380.082 416.335 379.436 415.768 378.62C415.224 377.781 414.952 376.841 414.952 375.798C414.952 374.166 415.553 372.863 416.754 371.888C417.978 370.891 419.893 370.392 422.5 370.392H427.192V370.12C427.192 368.851 426.807 367.876 426.036 367.196C425.288 366.516 424.166 366.176 422.67 366.176C421.65 366.176 420.641 366.335 419.644 366.652C418.669 366.969 417.842 367.411 417.162 367.978L415.496 364.884C416.448 364.159 417.593 363.603 418.93 363.218C420.267 362.833 421.684 362.64 423.18 362.64ZM422.602 378.144C423.667 378.144 424.608 377.906 425.424 377.43C426.263 376.931 426.852 376.229 427.192 375.322V373.214H422.806C420.358 373.214 419.134 374.019 419.134 375.628C419.134 376.399 419.44 377.011 420.052 377.464C420.664 377.917 421.514 378.144 422.602 378.144ZM447.81 380.014C447.312 380.422 446.7 380.728 445.974 380.932C445.272 381.136 444.524 381.238 443.73 381.238C441.736 381.238 440.194 380.717 439.106 379.674C438.018 378.631 437.474 377.113 437.474 375.118V366.38H434.482V362.98H437.474V358.832H441.724V362.98H446.586V366.38H441.724V375.016C441.724 375.9 441.94 376.58 442.37 377.056C442.801 377.509 443.424 377.736 444.24 377.736C445.192 377.736 445.986 377.487 446.62 376.988L447.81 380.014ZM458.719 373.214L455.557 376.206V381H451.307V355.772H455.557V371.004L464.363 362.844H469.463L461.881 370.46L470.177 381H465.009L458.719 373.214ZM479.526 362.64C482.2 362.64 484.24 363.286 485.646 364.578C487.074 365.847 487.788 367.774 487.788 370.358V381H483.776V378.79C483.254 379.583 482.506 380.195 481.532 380.626C480.58 381.034 479.424 381.238 478.064 381.238C476.704 381.238 475.514 381.011 474.494 380.558C473.474 380.082 472.68 379.436 472.114 378.62C471.57 377.781 471.298 376.841 471.298 375.798C471.298 374.166 471.898 372.863 473.1 371.888C474.324 370.891 476.239 370.392 478.846 370.392H483.538V370.12C483.538 368.851 483.152 367.876 482.382 367.196C481.634 366.516 480.512 366.176 479.016 366.176C477.996 366.176 476.987 366.335 475.99 366.652C475.015 366.969 474.188 367.411 473.508 367.978L471.842 364.884C472.794 364.159 473.938 363.603 475.276 363.218C476.613 362.833 478.03 362.64 479.526 362.64ZM478.948 378.144C480.013 378.144 480.954 377.906 481.77 377.43C482.608 376.931 483.198 376.229 483.538 375.322V373.214H479.152C476.704 373.214 475.48 374.019 475.48 375.628C475.48 376.399 475.786 377.011 476.398 377.464C477.01 377.917 477.86 378.144 478.948 378.144ZM503.544 362.64C505.833 362.64 507.669 363.309 509.052 364.646C510.435 365.983 511.126 367.967 511.126 370.596V381H506.876V371.14C506.876 369.553 506.502 368.363 505.754 367.57C505.006 366.754 503.941 366.346 502.558 366.346C500.994 366.346 499.759 366.822 498.852 367.774C497.945 368.703 497.492 370.052 497.492 371.82V381H493.242V362.844H497.288V365.19C497.991 364.351 498.875 363.717 499.94 363.286C501.005 362.855 502.207 362.64 503.544 362.64ZM113.954 414.214L110.792 417.206V422H106.542V396.772H110.792V412.004L119.598 403.844H124.698L117.116 411.46L125.412 422H120.244L113.954 414.214ZM144.461 413.024C144.461 413.319 144.439 413.738 144.393 414.282H130.147C130.397 415.619 131.043 416.685 132.085 417.478C133.151 418.249 134.465 418.634 136.029 418.634C138.024 418.634 139.667 417.977 140.959 416.662L143.237 419.28C142.421 420.255 141.39 420.991 140.143 421.49C138.897 421.989 137.491 422.238 135.927 422.238C133.933 422.238 132.176 421.841 130.657 421.048C129.139 420.255 127.96 419.155 127.121 417.75C126.305 416.322 125.897 414.713 125.897 412.922C125.897 411.154 126.294 409.567 127.087 408.162C127.903 406.734 129.025 405.623 130.453 404.83C131.881 404.037 133.491 403.64 135.281 403.64C137.049 403.64 138.625 404.037 140.007 404.83C141.413 405.601 142.501 406.7 143.271 408.128C144.065 409.533 144.461 411.165 144.461 413.024ZM135.281 407.04C133.921 407.04 132.765 407.448 131.813 408.264C130.884 409.057 130.317 410.123 130.113 411.46H140.415C140.234 410.145 139.679 409.08 138.749 408.264C137.82 407.448 136.664 407.04 135.281 407.04ZM154.154 422.238C152.681 422.238 151.241 422.045 149.836 421.66C148.431 421.275 147.309 420.787 146.47 420.198L148.102 416.968C148.918 417.512 149.893 417.954 151.026 418.294C152.182 418.611 153.315 418.77 154.426 418.77C156.965 418.77 158.234 418.101 158.234 416.764C158.234 416.129 157.905 415.687 157.248 415.438C156.613 415.189 155.582 414.951 154.154 414.724C152.658 414.497 151.434 414.237 150.482 413.942C149.553 413.647 148.737 413.137 148.034 412.412C147.354 411.664 147.014 410.633 147.014 409.318C147.014 407.595 147.728 406.224 149.156 405.204C150.607 404.161 152.556 403.64 155.004 403.64C156.251 403.64 157.497 403.787 158.744 404.082C159.991 404.354 161.011 404.728 161.804 405.204L160.172 408.434C158.631 407.527 156.897 407.074 154.97 407.074C153.723 407.074 152.771 407.267 152.114 407.652C151.479 408.015 151.162 408.502 151.162 409.114C151.162 409.794 151.502 410.281 152.182 410.576C152.885 410.848 153.961 411.109 155.412 411.358C156.863 411.585 158.053 411.845 158.982 412.14C159.911 412.435 160.705 412.933 161.362 413.636C162.042 414.339 162.382 415.336 162.382 416.628C162.382 418.328 161.645 419.688 160.172 420.708C158.699 421.728 156.693 422.238 154.154 422.238ZM183.11 413.024C183.11 413.319 183.087 413.738 183.042 414.282H168.796C169.045 415.619 169.691 416.685 170.734 417.478C171.799 418.249 173.114 418.634 174.678 418.634C176.673 418.634 178.316 417.977 179.608 416.662L181.886 419.28C181.07 420.255 180.039 420.991 178.792 421.49C177.545 421.989 176.14 422.238 174.576 422.238C172.581 422.238 170.825 421.841 169.306 421.048C167.787 420.255 166.609 419.155 165.77 417.75C164.954 416.322 164.546 414.713 164.546 412.922C164.546 411.154 164.943 409.567 165.736 408.162C166.552 406.734 167.674 405.623 169.102 404.83C170.53 404.037 172.139 403.64 173.93 403.64C175.698 403.64 177.273 404.037 178.656 404.83C180.061 405.601 181.149 406.7 181.92 408.128C182.713 409.533 183.11 411.165 183.11 413.024ZM173.93 407.04C172.57 407.04 171.414 407.448 170.462 408.264C169.533 409.057 168.966 410.123 168.762 411.46H179.064C178.883 410.145 178.327 409.08 177.398 408.264C176.469 407.448 175.313 407.04 173.93 407.04ZM210.108 403.64C212.398 403.64 214.211 404.309 215.548 405.646C216.886 406.961 217.554 408.944 217.554 411.596V422H213.304V412.14C213.304 410.553 212.953 409.363 212.25 408.57C211.548 407.754 210.539 407.346 209.224 407.346C207.796 407.346 206.652 407.822 205.79 408.774C204.929 409.703 204.498 411.041 204.498 412.786V422H200.248V412.14C200.248 410.553 199.897 409.363 199.194 408.57C198.492 407.754 197.483 407.346 196.168 407.346C194.718 407.346 193.562 407.811 192.7 408.74C191.862 409.669 191.442 411.018 191.442 412.786V422H187.192V403.844H191.238V406.156C191.918 405.34 192.768 404.717 193.788 404.286C194.808 403.855 195.942 403.64 197.188 403.64C198.548 403.64 199.75 403.901 200.792 404.422C201.858 404.921 202.696 405.669 203.308 406.666C204.056 405.714 205.02 404.977 206.198 404.456C207.377 403.912 208.68 403.64 210.108 403.64ZM233.049 403.64C234.817 403.64 236.393 404.025 237.775 404.796C239.181 405.567 240.28 406.655 241.073 408.06C241.867 409.465 242.263 411.086 242.263 412.922C242.263 414.758 241.867 416.39 241.073 417.818C240.28 419.223 239.181 420.311 237.775 421.082C236.393 421.853 234.817 422.238 233.049 422.238C230.601 422.238 228.663 421.422 227.235 419.79V428.596H222.985V403.844H227.031V406.224C227.734 405.363 228.595 404.717 229.615 404.286C230.658 403.855 231.803 403.64 233.049 403.64ZM232.573 418.6C234.137 418.6 235.418 418.079 236.415 417.036C237.435 415.993 237.945 414.622 237.945 412.922C237.945 411.222 237.435 409.851 236.415 408.808C235.418 407.765 234.137 407.244 232.573 407.244C231.553 407.244 230.635 407.482 229.819 407.958C229.003 408.411 228.357 409.069 227.881 409.93C227.405 410.791 227.167 411.789 227.167 412.922C227.167 414.055 227.405 415.053 227.881 415.914C228.357 416.775 229.003 417.444 229.819 417.92C230.635 418.373 231.553 418.6 232.573 418.6ZM252.997 403.64C255.672 403.64 257.712 404.286 259.117 405.578C260.545 406.847 261.259 408.774 261.259 411.358V422H257.247V419.79C256.726 420.583 255.978 421.195 255.003 421.626C254.051 422.034 252.895 422.238 251.535 422.238C250.175 422.238 248.985 422.011 247.965 421.558C246.945 421.082 246.152 420.436 245.585 419.62C245.041 418.781 244.769 417.841 244.769 416.798C244.769 415.166 245.37 413.863 246.571 412.888C247.795 411.891 249.711 411.392 252.317 411.392H257.009V411.12C257.009 409.851 256.624 408.876 255.853 408.196C255.105 407.516 253.983 407.176 252.487 407.176C251.467 407.176 250.459 407.335 249.461 407.652C248.487 407.969 247.659 408.411 246.979 408.978L245.313 405.884C246.265 405.159 247.41 404.603 248.747 404.218C250.085 403.833 251.501 403.64 252.997 403.64ZM252.419 419.144C253.485 419.144 254.425 418.906 255.241 418.43C256.08 417.931 256.669 417.229 257.009 416.322V414.214H252.623C250.175 414.214 248.951 415.019 248.951 416.628C248.951 417.399 249.257 418.011 249.869 418.464C250.481 418.917 251.331 419.144 252.419 419.144ZM277.628 421.014C277.129 421.422 276.517 421.728 275.792 421.932C275.089 422.136 274.341 422.238 273.548 422.238C271.553 422.238 270.012 421.717 268.924 420.674C267.836 419.631 267.292 418.113 267.292 416.118V407.38H264.3V403.98H267.292V399.832H271.542V403.98H276.404V407.38H271.542V416.016C271.542 416.9 271.757 417.58 272.188 418.056C272.618 418.509 273.242 418.736 274.058 418.736C275.01 418.736 275.803 418.487 276.438 417.988L277.628 421.014ZM288.06 403.64C290.735 403.64 292.775 404.286 294.18 405.578C295.608 406.847 296.322 408.774 296.322 411.358V422H292.31V419.79C291.789 420.583 291.041 421.195 290.066 421.626C289.114 422.034 287.958 422.238 286.598 422.238C285.238 422.238 284.048 422.011 283.028 421.558C282.008 421.082 281.215 420.436 280.648 419.62C280.104 418.781 279.832 417.841 279.832 416.798C279.832 415.166 280.433 413.863 281.634 412.888C282.858 411.891 284.773 411.392 287.38 411.392H292.072V411.12C292.072 409.851 291.687 408.876 290.916 408.196C290.168 407.516 289.046 407.176 287.55 407.176C286.53 407.176 285.521 407.335 284.524 407.652C283.549 407.969 282.722 408.411 282.042 408.978L280.376 405.884C281.328 405.159 282.473 404.603 283.81 404.218C285.147 403.833 286.564 403.64 288.06 403.64ZM287.482 419.144C288.547 419.144 289.488 418.906 290.304 418.43C291.143 417.931 291.732 417.229 292.072 416.322V414.214H287.686C285.238 414.214 284.014 415.019 284.014 416.628C284.014 417.399 284.32 418.011 284.932 418.464C285.544 418.917 286.394 419.144 287.482 419.144ZM312.078 403.64C314.368 403.64 316.204 404.309 317.586 405.646C318.969 406.983 319.66 408.967 319.66 411.596V422H315.41V412.14C315.41 410.553 315.036 409.363 314.288 408.57C313.54 407.754 312.475 407.346 311.092 407.346C309.528 407.346 308.293 407.822 307.386 408.774C306.48 409.703 306.026 411.052 306.026 412.82V422H301.776V403.844H305.822V406.19C306.525 405.351 307.409 404.717 308.474 404.286C309.54 403.855 310.741 403.64 312.078 403.64ZM352.026 403.844V422H347.98V419.688C347.3 420.504 346.45 421.139 345.43 421.592C344.41 422.023 343.311 422.238 342.132 422.238C339.707 422.238 337.791 421.569 336.386 420.232C335.003 418.872 334.312 416.866 334.312 414.214V403.844H338.562V413.636C338.562 415.268 338.925 416.492 339.65 417.308C340.398 418.101 341.452 418.498 342.812 418.498C344.331 418.498 345.532 418.033 346.416 417.104C347.323 416.152 347.776 414.792 347.776 413.024V403.844H352.026ZM367.893 403.64C370.182 403.64 372.018 404.309 373.401 405.646C374.783 406.983 375.475 408.967 375.475 411.596V422H371.225V412.14C371.225 410.553 370.851 409.363 370.103 408.57C369.355 407.754 368.289 407.346 366.907 407.346C365.343 407.346 364.107 407.822 363.201 408.774C362.294 409.703 361.841 411.052 361.841 412.82V422H357.591V403.844H361.637V406.19C362.339 405.351 363.223 404.717 364.289 404.286C365.354 403.855 366.555 403.64 367.893 403.64ZM391.78 421.014C391.281 421.422 390.669 421.728 389.944 421.932C389.241 422.136 388.493 422.238 387.7 422.238C385.705 422.238 384.164 421.717 383.076 420.674C381.988 419.631 381.444 418.113 381.444 416.118V407.38H378.452V403.98H381.444V399.832H385.694V403.98H390.556V407.38H385.694V416.016C385.694 416.9 385.909 417.58 386.34 418.056C386.771 418.509 387.394 418.736 388.21 418.736C389.162 418.736 389.955 418.487 390.59 417.988L391.78 421.014ZM412.854 403.844V422H408.808V419.688C408.128 420.504 407.278 421.139 406.258 421.592C405.238 422.023 404.139 422.238 402.96 422.238C400.535 422.238 398.62 421.569 397.214 420.232C395.832 418.872 395.14 416.866 395.14 414.214V403.844H399.39V413.636C399.39 415.268 399.753 416.492 400.478 417.308C401.226 418.101 402.28 418.498 403.64 418.498C405.159 418.498 406.36 418.033 407.244 417.104C408.151 416.152 408.604 414.792 408.604 413.024V403.844H412.854ZM425.831 414.214L422.669 417.206V422H418.419V396.772H422.669V412.004L431.475 403.844H436.575L428.993 411.46L437.289 422H432.121L425.831 414.214ZM38.1027 444.64C40.392 444.64 42.228 445.309 43.6107 446.646C44.9934 447.983 45.6847 449.967 45.6847 452.596V463H41.4347V453.14C41.4347 451.553 41.0607 450.363 40.3127 449.57C39.5647 448.754 38.4994 448.346 37.1167 448.346C35.5527 448.346 34.3174 448.822 33.4107 449.774C32.504 450.703 32.0507 452.052 32.0507 453.82V463H27.8007V444.844H31.8467V447.19C32.5494 446.351 33.4334 445.717 34.4987 445.286C35.564 444.855 36.7654 444.64 38.1027 444.64ZM68.3101 454.024C68.3101 454.319 68.2874 454.738 68.2421 455.282H53.9961C54.2454 456.619 54.8914 457.685 55.9341 458.478C56.9994 459.249 58.3141 459.634 59.8781 459.634C61.8728 459.634 63.5161 458.977 64.8081 457.662L67.0861 460.28C66.2701 461.255 65.2388 461.991 63.9921 462.49C62.7454 462.989 61.3401 463.238 59.7761 463.238C57.7814 463.238 56.0248 462.841 54.5061 462.048C52.9874 461.255 51.8088 460.155 50.9701 458.75C50.1541 457.322 49.7461 455.713 49.7461 453.922C49.7461 452.154 50.1428 450.567 50.9361 449.162C51.7521 447.734 52.8741 446.623 54.3021 445.83C55.7301 445.037 57.3394 444.64 59.1301 444.64C60.8981 444.64 62.4734 445.037 63.8561 445.83C65.2614 446.601 66.3494 447.7 67.1201 449.128C67.9134 450.533 68.3101 452.165 68.3101 454.024ZM59.1301 448.04C57.7701 448.04 56.6141 448.448 55.6621 449.264C54.7328 450.057 54.1661 451.123 53.9621 452.46H64.2641C64.0828 451.145 63.5274 450.08 62.5981 449.264C61.6688 448.448 60.5128 448.04 59.1301 448.04ZM83.3065 462.014C82.8078 462.422 82.1958 462.728 81.4705 462.932C80.7678 463.136 80.0198 463.238 79.2265 463.238C77.2318 463.238 75.6905 462.717 74.6025 461.674C73.5145 460.631 72.9705 459.113 72.9705 457.118V448.38H69.9785V444.98H72.9705V440.832H77.2205V444.98H82.0825V448.38H77.2205V457.016C77.2205 457.9 77.4358 458.58 77.8665 459.056C78.2972 459.509 78.9205 459.736 79.7365 459.736C80.6885 459.736 81.4818 459.487 82.1165 458.988L83.3065 462.014ZM114.793 444.844L108.095 463H104.015L99.3226 450.488L94.5626 463H90.4826L83.8186 444.844H87.8306L92.6246 458.24L97.6226 444.844H101.193L106.089 458.308L111.019 444.844H114.793ZM125.377 463.238C123.541 463.238 121.886 462.841 120.413 462.048C118.939 461.255 117.783 460.155 116.945 458.75C116.129 457.322 115.721 455.713 115.721 453.922C115.721 452.131 116.129 450.533 116.945 449.128C117.783 447.723 118.939 446.623 120.413 445.83C121.886 445.037 123.541 444.64 125.377 444.64C127.235 444.64 128.901 445.037 130.375 445.83C131.848 446.623 132.993 447.723 133.809 449.128C134.647 450.533 135.067 452.131 135.067 453.922C135.067 455.713 134.647 457.322 133.809 458.75C132.993 460.155 131.848 461.255 130.375 462.048C128.901 462.841 127.235 463.238 125.377 463.238ZM125.377 459.6C126.941 459.6 128.233 459.079 129.253 458.036C130.273 456.993 130.783 455.622 130.783 453.922C130.783 452.222 130.273 450.851 129.253 449.808C128.233 448.765 126.941 448.244 125.377 448.244C123.813 448.244 122.521 448.765 121.501 449.808C120.503 450.851 120.005 452.222 120.005 453.922C120.005 455.622 120.503 456.993 121.501 458.036C122.521 459.079 123.813 459.6 125.377 459.6ZM143.177 447.496C144.401 445.592 146.554 444.64 149.637 444.64V448.686C149.274 448.618 148.945 448.584 148.651 448.584C146.996 448.584 145.704 449.071 144.775 450.046C143.845 450.998 143.381 452.381 143.381 454.194V463H139.131V444.844H143.177V447.496ZM160.654 455.214L157.492 458.206V463H153.242V437.772H157.492V453.004L166.298 444.844H171.398L163.816 452.46L172.112 463H166.944L160.654 455.214ZM174.691 444.844H178.941V463H174.691V444.844ZM176.833 441.852C176.063 441.852 175.417 441.614 174.895 441.138C174.374 440.639 174.113 440.027 174.113 439.302C174.113 438.577 174.374 437.976 174.895 437.5C175.417 437.001 176.063 436.752 176.833 436.752C177.604 436.752 178.25 436.99 178.771 437.466C179.293 437.919 179.553 438.497 179.553 439.2C179.553 439.948 179.293 440.583 178.771 441.104C178.273 441.603 177.627 441.852 176.833 441.852ZM194.821 444.64C197.111 444.64 198.947 445.309 200.329 446.646C201.712 447.983 202.403 449.967 202.403 452.596V463H198.153V453.14C198.153 451.553 197.779 450.363 197.031 449.57C196.283 448.754 195.218 448.346 193.835 448.346C192.271 448.346 191.036 448.822 190.129 449.774C189.223 450.703 188.769 452.052 188.769 453.82V463H184.519V444.844H188.565V447.19C189.268 446.351 190.152 445.717 191.217 445.286C192.283 444.855 193.484 444.64 194.821 444.64ZM225.981 444.844V460.246C225.981 466.638 222.717 469.834 216.189 469.834C214.444 469.834 212.789 469.607 211.225 469.154C209.661 468.723 208.369 468.089 207.349 467.25L209.253 464.054C210.046 464.711 211.044 465.233 212.245 465.618C213.469 466.026 214.704 466.23 215.951 466.23C217.946 466.23 219.408 465.777 220.337 464.87C221.266 463.963 221.731 462.581 221.731 460.722V459.77C221.006 460.563 220.122 461.164 219.079 461.572C218.036 461.98 216.892 462.184 215.645 462.184C213.922 462.184 212.358 461.821 210.953 461.096C209.57 460.348 208.471 459.305 207.655 457.968C206.862 456.631 206.465 455.101 206.465 453.378C206.465 451.655 206.862 450.137 207.655 448.822C208.471 447.485 209.57 446.453 210.953 445.728C212.358 445.003 213.922 444.64 215.645 444.64C216.96 444.64 218.15 444.855 219.215 445.286C220.303 445.717 221.21 446.374 221.935 447.258V444.844H225.981ZM216.291 458.58C217.9 458.58 219.215 458.104 220.235 457.152C221.278 456.177 221.799 454.919 221.799 453.378C221.799 451.859 221.278 450.624 220.235 449.672C219.215 448.72 217.9 448.244 216.291 448.244C214.659 448.244 213.322 448.72 212.279 449.672C211.259 450.624 210.749 451.859 210.749 453.378C210.749 454.919 211.259 456.177 212.279 457.152C213.322 458.104 214.659 458.58 216.291 458.58ZM258.747 437.772V463H254.667V460.654C253.964 461.515 253.091 462.161 252.049 462.592C251.029 463.023 249.895 463.238 248.649 463.238C246.903 463.238 245.328 462.853 243.923 462.082C242.54 461.311 241.452 460.223 240.659 458.818C239.865 457.39 239.469 455.758 239.469 453.922C239.469 452.086 239.865 450.465 240.659 449.06C241.452 447.655 242.54 446.567 243.923 445.796C245.328 445.025 246.903 444.64 248.649 444.64C249.85 444.64 250.949 444.844 251.947 445.252C252.944 445.66 253.794 446.272 254.497 447.088V437.772H258.747ZM249.159 459.6C250.179 459.6 251.097 459.373 251.913 458.92C252.729 458.444 253.375 457.775 253.851 456.914C254.327 456.053 254.565 455.055 254.565 453.922C254.565 452.789 254.327 451.791 253.851 450.93C253.375 450.069 252.729 449.411 251.913 448.958C251.097 448.482 250.179 448.244 249.159 448.244C248.139 448.244 247.221 448.482 246.405 448.958C245.589 449.411 244.943 450.069 244.467 450.93C243.991 451.791 243.753 452.789 243.753 453.922C243.753 455.055 243.991 456.053 244.467 456.914C244.943 457.775 245.589 458.444 246.405 458.92C247.221 459.373 248.139 459.6 249.159 459.6ZM281.375 454.024C281.375 454.319 281.352 454.738 281.307 455.282H267.061C267.31 456.619 267.956 457.685 268.999 458.478C270.064 459.249 271.379 459.634 272.943 459.634C274.937 459.634 276.581 458.977 277.873 457.662L280.151 460.28C279.335 461.255 278.303 461.991 277.057 462.49C275.81 462.989 274.405 463.238 272.841 463.238C270.846 463.238 269.089 462.841 267.571 462.048C266.052 461.255 264.873 460.155 264.035 458.75C263.219 457.322 262.811 455.713 262.811 453.922C262.811 452.154 263.207 450.567 264.001 449.162C264.817 447.734 265.939 446.623 267.367 445.83C268.795 445.037 270.404 444.64 272.195 444.64C273.963 444.64 275.538 445.037 276.921 445.83C278.326 446.601 279.414 447.7 280.185 449.128C280.978 450.533 281.375 452.165 281.375 454.024ZM272.195 448.04C270.835 448.04 269.679 448.448 268.727 449.264C267.797 450.057 267.231 451.123 267.027 452.46H277.329C277.147 451.145 276.592 450.08 275.663 449.264C274.733 448.448 273.577 448.04 272.195 448.04ZM295.759 444.64C298.048 444.64 299.884 445.309 301.267 446.646C302.65 447.983 303.341 449.967 303.341 452.596V463H299.091V453.14C299.091 451.553 298.717 450.363 297.969 449.57C297.221 448.754 296.156 448.346 294.773 448.346C293.209 448.346 291.974 448.822 291.067 449.774C290.16 450.703 289.707 452.052 289.707 453.82V463H285.457V444.844H289.503V447.19C290.206 446.351 291.09 445.717 292.155 445.286C293.22 444.855 294.422 444.64 295.759 444.64ZM326.918 444.844V460.246C326.918 466.638 323.654 469.834 317.126 469.834C315.381 469.834 313.726 469.607 312.162 469.154C310.598 468.723 309.306 468.089 308.286 467.25L310.19 464.054C310.984 464.711 311.981 465.233 313.182 465.618C314.406 466.026 315.642 466.23 316.888 466.23C318.883 466.23 320.345 465.777 321.274 464.87C322.204 463.963 322.668 462.581 322.668 460.722V459.77C321.943 460.563 321.059 461.164 320.016 461.572C318.974 461.98 317.829 462.184 316.582 462.184C314.86 462.184 313.296 461.821 311.89 461.096C310.508 460.348 309.408 459.305 308.592 457.968C307.799 456.631 307.402 455.101 307.402 453.378C307.402 451.655 307.799 450.137 308.592 448.822C309.408 447.485 310.508 446.453 311.89 445.728C313.296 445.003 314.86 444.64 316.582 444.64C317.897 444.64 319.087 444.855 320.152 445.286C321.24 445.717 322.147 446.374 322.872 447.258V444.844H326.918ZM317.228 458.58C318.838 458.58 320.152 458.104 321.172 457.152C322.215 456.177 322.736 454.919 322.736 453.378C322.736 451.859 322.215 450.624 321.172 449.672C320.152 448.72 318.838 448.244 317.228 448.244C315.596 448.244 314.259 448.72 313.216 449.672C312.196 450.624 311.686 451.859 311.686 453.378C311.686 454.919 312.196 456.177 313.216 457.152C314.259 458.104 315.596 458.58 317.228 458.58ZM339.442 444.64C342.116 444.64 344.156 445.286 345.562 446.578C346.99 447.847 347.704 449.774 347.704 452.358V463H343.692V460.79C343.17 461.583 342.422 462.195 341.448 462.626C340.496 463.034 339.34 463.238 337.98 463.238C336.62 463.238 335.43 463.011 334.41 462.558C333.39 462.082 332.596 461.436 332.03 460.62C331.486 459.781 331.214 458.841 331.214 457.798C331.214 456.166 331.814 454.863 333.016 453.888C334.24 452.891 336.155 452.392 338.762 452.392H343.454V452.12C343.454 450.851 343.068 449.876 342.298 449.196C341.55 448.516 340.428 448.176 338.932 448.176C337.912 448.176 336.903 448.335 335.906 448.652C334.931 448.969 334.104 449.411 333.424 449.978L331.758 446.884C332.71 446.159 333.854 445.603 335.192 445.218C336.529 444.833 337.946 444.64 339.442 444.64ZM338.864 460.144C339.929 460.144 340.87 459.906 341.686 459.43C342.524 458.931 343.114 458.229 343.454 457.322V455.214H339.068C336.62 455.214 335.396 456.019 335.396 457.628C335.396 458.399 335.702 459.011 336.314 459.464C336.926 459.917 337.776 460.144 338.864 460.144ZM363.46 444.64C365.749 444.64 367.585 445.309 368.968 446.646C370.351 447.983 371.042 449.967 371.042 452.596V463H366.792V453.14C366.792 451.553 366.418 450.363 365.67 449.57C364.922 448.754 363.857 448.346 362.474 448.346C360.91 448.346 359.675 448.822 358.768 449.774C357.861 450.703 357.408 452.052 357.408 453.82V463H353.158V444.844H357.204V447.19C357.907 446.351 358.791 445.717 359.856 445.286C360.921 444.855 362.123 444.64 363.46 444.64ZM395.894 444.64C397.662 444.64 399.237 445.025 400.62 445.796C402.025 446.567 403.125 447.655 403.918 449.06C404.711 450.465 405.108 452.086 405.108 453.922C405.108 455.758 404.711 457.39 403.918 458.818C403.125 460.223 402.025 461.311 400.62 462.082C399.237 462.853 397.662 463.238 395.894 463.238C393.446 463.238 391.508 462.422 390.08 460.79V469.596H385.83V444.844H389.876V447.224C390.579 446.363 391.44 445.717 392.46 445.286C393.503 444.855 394.647 444.64 395.894 444.64ZM395.418 459.6C396.982 459.6 398.263 459.079 399.26 458.036C400.28 456.993 400.79 455.622 400.79 453.922C400.79 452.222 400.28 450.851 399.26 449.808C398.263 448.765 396.982 448.244 395.418 448.244C394.398 448.244 393.48 448.482 392.664 448.958C391.848 449.411 391.202 450.069 390.726 450.93C390.25 451.791 390.012 452.789 390.012 453.922C390.012 455.055 390.25 456.053 390.726 456.914C391.202 457.775 391.848 458.444 392.664 458.92C393.48 459.373 394.398 459.6 395.418 459.6ZM426.207 454.024C426.207 454.319 426.184 454.738 426.139 455.282H411.893C412.142 456.619 412.788 457.685 413.831 458.478C414.896 459.249 416.211 459.634 417.775 459.634C419.769 459.634 421.413 458.977 422.705 457.662L424.983 460.28C424.167 461.255 423.135 461.991 421.889 462.49C420.642 462.989 419.237 463.238 417.673 463.238C415.678 463.238 413.921 462.841 412.403 462.048C410.884 461.255 409.705 460.155 408.867 458.75C408.051 457.322 407.643 455.713 407.643 453.922C407.643 452.154 408.039 450.567 408.833 449.162C409.649 447.734 410.771 446.623 412.199 445.83C413.627 445.037 415.236 444.64 417.027 444.64C418.795 444.64 420.37 445.037 421.753 445.83C423.158 446.601 424.246 447.7 425.017 449.128C425.81 450.533 426.207 452.165 426.207 454.024ZM417.027 448.04C415.667 448.04 414.511 448.448 413.559 449.264C412.629 450.057 412.063 451.123 411.859 452.46H422.161C421.979 451.145 421.424 450.08 420.495 449.264C419.565 448.448 418.409 448.04 417.027 448.04ZM435.899 463.238C434.426 463.238 432.986 463.045 431.581 462.66C430.176 462.275 429.054 461.787 428.215 461.198L429.847 457.968C430.663 458.512 431.638 458.954 432.771 459.294C433.927 459.611 435.06 459.77 436.171 459.77C438.71 459.77 439.979 459.101 439.979 457.764C439.979 457.129 439.65 456.687 438.993 456.438C438.358 456.189 437.327 455.951 435.899 455.724C434.403 455.497 433.179 455.237 432.227 454.942C431.298 454.647 430.482 454.137 429.779 453.412C429.099 452.664 428.759 451.633 428.759 450.318C428.759 448.595 429.473 447.224 430.901 446.204C432.352 445.161 434.301 444.64 436.749 444.64C437.996 444.64 439.242 444.787 440.489 445.082C441.736 445.354 442.756 445.728 443.549 446.204L441.917 449.434C440.376 448.527 438.642 448.074 436.715 448.074C435.468 448.074 434.516 448.267 433.859 448.652C433.224 449.015 432.907 449.502 432.907 450.114C432.907 450.794 433.247 451.281 433.927 451.576C434.63 451.848 435.706 452.109 437.157 452.358C438.608 452.585 439.798 452.845 440.727 453.14C441.656 453.435 442.45 453.933 443.107 454.636C443.787 455.339 444.127 456.336 444.127 457.628C444.127 459.328 443.39 460.688 441.917 461.708C440.444 462.728 438.438 463.238 435.899 463.238ZM464.855 454.024C464.855 454.319 464.832 454.738 464.787 455.282H450.541C450.79 456.619 451.436 457.685 452.479 458.478C453.544 459.249 454.859 459.634 456.423 459.634C458.418 459.634 460.061 458.977 461.353 457.662L463.631 460.28C462.815 461.255 461.784 461.991 460.537 462.49C459.29 462.989 457.885 463.238 456.321 463.238C454.326 463.238 452.57 462.841 451.051 462.048C449.532 461.255 448.354 460.155 447.515 458.75C446.699 457.322 446.291 455.713 446.291 453.922C446.291 452.154 446.688 450.567 447.481 449.162C448.297 447.734 449.419 446.623 450.847 445.83C452.275 445.037 453.884 444.64 455.675 444.64C457.443 444.64 459.018 445.037 460.401 445.83C461.806 446.601 462.894 447.7 463.665 449.128C464.458 450.533 464.855 452.165 464.855 454.024ZM455.675 448.04C454.315 448.04 453.159 448.448 452.207 449.264C451.278 450.057 450.711 451.123 450.507 452.46H460.809C460.628 451.145 460.072 450.08 459.143 449.264C458.214 448.448 457.058 448.04 455.675 448.04ZM472.983 447.496C474.207 445.592 476.361 444.64 479.443 444.64V448.686C479.081 448.618 478.752 448.584 478.457 448.584C476.803 448.584 475.511 449.071 474.581 450.046C473.652 450.998 473.187 452.381 473.187 454.194V463H468.937V444.844H472.983V447.496ZM494.627 462.014C494.128 462.422 493.516 462.728 492.791 462.932C492.088 463.136 491.34 463.238 490.547 463.238C488.552 463.238 487.011 462.717 485.923 461.674C484.835 460.631 484.291 459.113 484.291 457.118V448.38H481.299V444.98H484.291V440.832H488.541V444.98H493.403V448.38H488.541V457.016C488.541 457.9 488.756 458.58 489.187 459.056C489.617 459.509 490.241 459.736 491.057 459.736C492.009 459.736 492.802 459.487 493.437 458.988L494.627 462.014ZM505.059 444.64C507.734 444.64 509.774 445.286 511.179 446.578C512.607 447.847 513.321 449.774 513.321 452.358V463H509.309V460.79C508.788 461.583 508.04 462.195 507.065 462.626C506.113 463.034 504.957 463.238 503.597 463.238C502.237 463.238 501.047 463.011 500.027 462.558C499.007 462.082 498.214 461.436 497.647 460.62C497.103 459.781 496.831 458.841 496.831 457.798C496.831 456.166 497.432 454.863 498.633 453.888C499.857 452.891 501.772 452.392 504.379 452.392H509.071V452.12C509.071 450.851 508.686 449.876 507.915 449.196C507.167 448.516 506.045 448.176 504.549 448.176C503.529 448.176 502.52 448.335 501.523 448.652C500.548 448.969 499.721 449.411 499.041 449.978L497.375 446.884C498.327 446.159 499.472 445.603 500.809 445.218C502.146 444.833 503.563 444.64 505.059 444.64ZM504.481 460.144C505.546 460.144 506.487 459.906 507.303 459.43C508.142 458.931 508.731 458.229 509.071 457.322V455.214H504.685C502.237 455.214 501.013 456.019 501.013 457.628C501.013 458.399 501.319 459.011 501.931 459.464C502.543 459.917 503.393 460.144 504.481 460.144ZM91.8827 478.772H96.1327V504H91.8827V478.772ZM108.647 485.64C111.322 485.64 113.362 486.286 114.767 487.578C116.195 488.847 116.909 490.774 116.909 493.358V504H112.897V501.79C112.376 502.583 111.628 503.195 110.653 503.626C109.701 504.034 108.545 504.238 107.185 504.238C105.825 504.238 104.635 504.011 103.615 503.558C102.595 503.082 101.802 502.436 101.235 501.62C100.691 500.781 100.419 499.841 100.419 498.798C100.419 497.166 101.02 495.863 102.221 494.888C103.445 493.891 105.36 493.392 107.967 493.392H112.659V493.12C112.659 491.851 112.274 490.876 111.503 490.196C110.755 489.516 109.633 489.176 108.137 489.176C107.117 489.176 106.108 489.335 105.111 489.652C104.136 489.969 103.309 490.411 102.629 490.978L100.963 487.884C101.915 487.159 103.06 486.603 104.397 486.218C105.734 485.833 107.151 485.64 108.647 485.64ZM108.069 501.144C109.134 501.144 110.075 500.906 110.891 500.43C111.73 499.931 112.319 499.229 112.659 498.322V496.214H108.273C105.825 496.214 104.601 497.019 104.601 498.628C104.601 499.399 104.907 500.011 105.519 500.464C106.131 500.917 106.981 501.144 108.069 501.144ZM122.363 485.844H126.613V504H122.363V485.844ZM124.505 482.852C123.735 482.852 123.089 482.614 122.567 482.138C122.046 481.639 121.785 481.027 121.785 480.302C121.785 479.577 122.046 478.976 122.567 478.5C123.089 478.001 123.735 477.752 124.505 477.752C125.276 477.752 125.922 477.99 126.443 478.466C126.965 478.919 127.225 479.497 127.225 480.2C127.225 480.948 126.965 481.583 126.443 482.104C125.945 482.603 125.299 482.852 124.505 482.852ZM142.493 485.64C144.783 485.64 146.619 486.309 148.001 487.646C149.384 488.983 150.075 490.967 150.075 493.596V504H145.825V494.14C145.825 492.553 145.451 491.363 144.703 490.57C143.955 489.754 142.89 489.346 141.507 489.346C139.943 489.346 138.708 489.822 137.801 490.774C136.895 491.703 136.441 493.052 136.441 494.82V504H132.191V485.844H136.237V488.19C136.94 487.351 137.824 486.717 138.889 486.286C139.955 485.855 141.156 485.64 142.493 485.64ZM156.861 498.594C157.654 498.594 158.311 498.855 158.833 499.376C159.354 499.897 159.615 500.577 159.615 501.416C159.615 501.779 159.558 502.164 159.445 502.572C159.354 502.957 159.15 503.547 158.833 504.34L157.099 509.134H154.345L155.705 503.932C155.206 503.728 154.809 503.411 154.515 502.98C154.243 502.527 154.107 502.005 154.107 501.416C154.107 500.577 154.367 499.897 154.889 499.376C155.41 498.855 156.067 498.594 156.861 498.594ZM196.08 485.64C198.369 485.64 200.183 486.309 201.52 487.646C202.857 488.961 203.526 490.944 203.526 493.596V504H199.276V494.14C199.276 492.553 198.925 491.363 198.222 490.57C197.519 489.754 196.511 489.346 195.196 489.346C193.768 489.346 192.623 489.822 191.762 490.774C190.901 491.703 190.47 493.041 190.47 494.786V504H186.22V494.14C186.22 492.553 185.869 491.363 185.166 490.57C184.463 489.754 183.455 489.346 182.14 489.346C180.689 489.346 179.533 489.811 178.672 490.74C177.833 491.669 177.414 493.018 177.414 494.786V504H173.164V485.844H177.21V488.156C177.89 487.34 178.74 486.717 179.76 486.286C180.78 485.855 181.913 485.64 183.16 485.64C184.52 485.64 185.721 485.901 186.764 486.422C187.829 486.921 188.668 487.669 189.28 488.666C190.028 487.714 190.991 486.977 192.17 486.456C193.349 485.912 194.652 485.64 196.08 485.64ZM226.191 495.024C226.191 495.319 226.168 495.738 226.123 496.282H211.877C212.126 497.619 212.772 498.685 213.815 499.478C214.88 500.249 216.195 500.634 217.759 500.634C219.754 500.634 221.397 499.977 222.689 498.662L224.967 501.28C224.151 502.255 223.12 502.991 221.873 503.49C220.626 503.989 219.221 504.238 217.657 504.238C215.662 504.238 213.906 503.841 212.387 503.048C210.868 502.255 209.69 501.155 208.851 499.75C208.035 498.322 207.627 496.713 207.627 494.922C207.627 493.154 208.024 491.567 208.817 490.162C209.633 488.734 210.755 487.623 212.183 486.83C213.611 486.037 215.22 485.64 217.011 485.64C218.779 485.64 220.354 486.037 221.737 486.83C223.142 487.601 224.23 488.7 225.001 490.128C225.794 491.533 226.191 493.165 226.191 495.024ZM217.011 489.04C215.651 489.04 214.495 489.448 213.543 490.264C212.614 491.057 212.047 492.123 211.843 493.46H222.145C221.964 492.145 221.408 491.08 220.479 490.264C219.55 489.448 218.394 489.04 217.011 489.04ZM240.575 485.64C242.865 485.64 244.701 486.309 246.083 487.646C247.466 488.983 248.157 490.967 248.157 493.596V504H243.907V494.14C243.907 492.553 243.533 491.363 242.785 490.57C242.037 489.754 240.972 489.346 239.589 489.346C238.025 489.346 236.79 489.822 235.883 490.774C234.977 491.703 234.523 493.052 234.523 494.82V504H230.273V485.844H234.319V488.19C235.022 487.351 235.906 486.717 236.971 486.286C238.037 485.855 239.238 485.64 240.575 485.64ZM264.463 503.014C263.964 503.422 263.352 503.728 262.627 503.932C261.924 504.136 261.176 504.238 260.383 504.238C258.388 504.238 256.847 503.717 255.759 502.674C254.671 501.631 254.127 500.113 254.127 498.118V489.38H251.135V485.98H254.127V481.832H258.377V485.98H263.239V489.38H258.377V498.016C258.377 498.9 258.592 499.58 259.023 500.056C259.453 500.509 260.077 500.736 260.893 500.736C261.845 500.736 262.638 500.487 263.273 499.988L264.463 503.014ZM275.521 504.238C273.685 504.238 272.031 503.841 270.557 503.048C269.084 502.255 267.928 501.155 267.089 499.75C266.273 498.322 265.865 496.713 265.865 494.922C265.865 493.131 266.273 491.533 267.089 490.128C267.928 488.723 269.084 487.623 270.557 486.83C272.031 486.037 273.685 485.64 275.521 485.64C277.38 485.64 279.046 486.037 280.519 486.83C281.993 487.623 283.137 488.723 283.953 490.128C284.792 491.533 285.211 493.131 285.211 494.922C285.211 496.713 284.792 498.322 283.953 499.75C283.137 501.155 281.993 502.255 280.519 503.048C279.046 503.841 277.38 504.238 275.521 504.238ZM275.521 500.6C277.085 500.6 278.377 500.079 279.397 499.036C280.417 497.993 280.927 496.622 280.927 494.922C280.927 493.222 280.417 491.851 279.397 490.808C278.377 489.765 277.085 489.244 275.521 489.244C273.957 489.244 272.665 489.765 271.645 490.808C270.648 491.851 270.149 493.222 270.149 494.922C270.149 496.622 270.648 497.993 271.645 499.036C272.665 500.079 273.957 500.6 275.521 500.6ZM293.321 488.496C294.545 486.592 296.699 485.64 299.781 485.64V489.686C299.419 489.618 299.09 489.584 298.795 489.584C297.141 489.584 295.849 490.071 294.919 491.046C293.99 491.998 293.525 493.381 293.525 495.194V504H289.275V485.844H293.321V488.496ZM304.615 498.594C305.408 498.594 306.065 498.855 306.587 499.376C307.108 499.897 307.369 500.577 307.369 501.416C307.369 501.779 307.312 502.164 307.199 502.572C307.108 502.957 306.904 503.547 306.587 504.34L304.853 509.134H302.099L303.459 503.932C302.96 503.728 302.563 503.411 302.269 502.98C301.997 502.527 301.861 502.005 301.861 501.416C301.861 500.577 302.121 499.897 302.643 499.376C303.164 498.855 303.821 498.594 304.615 498.594ZM338.7 478.772V504H334.62V501.654C333.917 502.515 333.045 503.161 332.002 503.592C330.982 504.023 329.849 504.238 328.602 504.238C326.857 504.238 325.281 503.853 323.876 503.082C322.493 502.311 321.405 501.223 320.612 499.818C319.819 498.39 319.422 496.758 319.422 494.922C319.422 493.086 319.819 491.465 320.612 490.06C321.405 488.655 322.493 487.567 323.876 486.796C325.281 486.025 326.857 485.64 328.602 485.64C329.803 485.64 330.903 485.844 331.9 486.252C332.897 486.66 333.747 487.272 334.45 488.088V478.772H338.7ZM329.112 500.6C330.132 500.6 331.05 500.373 331.866 499.92C332.682 499.444 333.328 498.775 333.804 497.914C334.28 497.053 334.518 496.055 334.518 494.922C334.518 493.789 334.28 492.791 333.804 491.93C333.328 491.069 332.682 490.411 331.866 489.958C331.05 489.482 330.132 489.244 329.112 489.244C328.092 489.244 327.174 489.482 326.358 489.958C325.542 490.411 324.896 491.069 324.42 491.93C323.944 492.791 323.706 493.789 323.706 494.922C323.706 496.055 323.944 497.053 324.42 497.914C324.896 498.775 325.542 499.444 326.358 499.92C327.174 500.373 328.092 500.6 329.112 500.6ZM351.196 485.64C353.87 485.64 355.91 486.286 357.316 487.578C358.744 488.847 359.458 490.774 359.458 493.358V504H355.446V501.79C354.924 502.583 354.176 503.195 353.202 503.626C352.25 504.034 351.094 504.238 349.734 504.238C348.374 504.238 347.184 504.011 346.164 503.558C345.144 503.082 344.35 502.436 343.784 501.62C343.24 500.781 342.968 499.841 342.968 498.798C342.968 497.166 343.568 495.863 344.77 494.888C345.994 493.891 347.909 493.392 350.516 493.392H355.208V493.12C355.208 491.851 354.822 490.876 354.052 490.196C353.304 489.516 352.182 489.176 350.686 489.176C349.666 489.176 348.657 489.335 347.66 489.652C346.685 489.969 345.858 490.411 345.178 490.978L343.512 487.884C344.464 487.159 345.608 486.603 346.946 486.218C348.283 485.833 349.7 485.64 351.196 485.64ZM350.618 501.144C351.683 501.144 352.624 500.906 353.44 500.43C354.278 499.931 354.868 499.229 355.208 498.322V496.214H350.822C348.374 496.214 347.15 497.019 347.15 498.628C347.15 499.399 347.456 500.011 348.068 500.464C348.68 500.917 349.53 501.144 350.618 501.144ZM375.214 485.64C377.503 485.64 379.339 486.309 380.722 487.646C382.105 488.983 382.796 490.967 382.796 493.596V504H378.546V494.14C378.546 492.553 378.172 491.363 377.424 490.57C376.676 489.754 375.611 489.346 374.228 489.346C372.664 489.346 371.429 489.822 370.522 490.774C369.615 491.703 369.162 493.052 369.162 494.82V504H364.912V485.844H368.958V488.19C369.661 487.351 370.545 486.717 371.61 486.286C372.675 485.855 373.877 485.64 375.214 485.64ZM395.714 510.834C393.923 510.834 392.563 510.483 391.634 509.78L392.858 506.618C393.493 507.094 394.32 507.332 395.34 507.332C396.133 507.332 396.734 507.083 397.142 506.584C397.573 506.108 397.788 505.394 397.788 504.442V485.844H402.038V504.34C402.038 506.357 401.483 507.944 400.372 509.1C399.261 510.256 397.709 510.834 395.714 510.834ZM399.896 482.852C399.125 482.852 398.479 482.614 397.958 482.138C397.437 481.639 397.176 481.027 397.176 480.302C397.176 479.577 397.437 478.976 397.958 478.5C398.479 478.001 399.125 477.752 399.896 477.752C400.667 477.752 401.313 477.99 401.834 478.466C402.355 478.919 402.616 479.497 402.616 480.2C402.616 480.948 402.355 481.583 401.834 482.104C401.335 482.603 400.689 482.852 399.896 482.852ZM425.189 485.844V504H421.143V501.688C420.463 502.504 419.613 503.139 418.593 503.592C417.573 504.023 416.474 504.238 415.295 504.238C412.87 504.238 410.955 503.569 409.549 502.232C408.167 500.872 407.475 498.866 407.475 496.214V485.844H411.725V495.636C411.725 497.268 412.088 498.492 412.813 499.308C413.561 500.101 414.615 500.498 415.975 500.498C417.494 500.498 418.695 500.033 419.579 499.104C420.486 498.152 420.939 496.792 420.939 495.024V485.844H425.189ZM434.8 488.496C436.024 486.592 438.177 485.64 441.26 485.64V489.686C440.897 489.618 440.568 489.584 440.274 489.584C438.619 489.584 437.327 490.071 436.398 491.046C435.468 491.998 435.004 493.381 435.004 495.194V504H430.754V485.844H434.8V488.496ZM444.865 485.844H449.115V504H444.865V485.844ZM447.007 482.852C446.236 482.852 445.59 482.614 445.069 482.138C444.548 481.639 444.287 481.027 444.287 480.302C444.287 479.577 444.548 478.976 445.069 478.5C445.59 478.001 446.236 477.752 447.007 477.752C447.778 477.752 448.424 477.99 448.945 478.466C449.466 478.919 449.727 479.497 449.727 480.2C449.727 480.948 449.466 481.583 448.945 482.104C448.446 482.603 447.8 482.852 447.007 482.852ZM162.48 521.2V545H158.06V534.8H145.752V545H141.332V521.2H145.752V531.026H158.06V521.2H162.48ZM175.385 526.64C178.06 526.64 180.1 527.286 181.505 528.578C182.933 529.847 183.647 531.774 183.647 534.358V545H179.635V542.79C179.114 543.583 178.366 544.195 177.391 544.626C176.439 545.034 175.283 545.238 173.923 545.238C172.563 545.238 171.373 545.011 170.353 544.558C169.333 544.082 168.54 543.436 167.973 542.62C167.429 541.781 167.157 540.841 167.157 539.798C167.157 538.166 167.758 536.863 168.959 535.888C170.183 534.891 172.098 534.392 174.705 534.392H179.397V534.12C179.397 532.851 179.012 531.876 178.241 531.196C177.493 530.516 176.371 530.176 174.875 530.176C173.855 530.176 172.846 530.335 171.849 530.652C170.874 530.969 170.047 531.411 169.367 531.978L167.701 528.884C168.653 528.159 169.798 527.603 171.135 527.218C172.472 526.833 173.889 526.64 175.385 526.64ZM174.807 542.144C175.872 542.144 176.813 541.906 177.629 541.43C178.468 540.931 179.057 540.229 179.397 539.322V537.214H175.011C172.563 537.214 171.339 538.019 171.339 539.628C171.339 540.399 171.645 541.011 172.257 541.464C172.869 541.917 173.719 542.144 174.807 542.144ZM197.597 545.238C195.716 545.238 194.027 544.841 192.531 544.048C191.035 543.255 189.868 542.155 189.029 540.75C188.191 539.322 187.771 537.713 187.771 535.922C187.771 534.131 188.191 532.533 189.029 531.128C189.868 529.723 191.024 528.623 192.497 527.83C193.993 527.037 195.693 526.64 197.597 526.64C199.388 526.64 200.952 527.003 202.289 527.728C203.649 528.453 204.669 529.496 205.349 530.856L202.085 532.76C201.564 531.921 200.907 531.298 200.113 530.89C199.343 530.459 198.493 530.244 197.563 530.244C195.977 530.244 194.662 530.765 193.619 531.808C192.577 532.828 192.055 534.199 192.055 535.922C192.055 537.645 192.565 539.027 193.585 540.07C194.628 541.09 195.954 541.6 197.563 541.6C198.493 541.6 199.343 541.396 200.113 540.988C200.907 540.557 201.564 539.923 202.085 539.084L205.349 540.988C204.647 542.348 203.615 543.402 202.255 544.15C200.918 544.875 199.365 545.238 197.597 545.238ZM216.269 537.214L213.107 540.206V545H208.857V519.772H213.107V535.004L221.913 526.844H227.013L219.431 534.46L227.727 545H222.559L216.269 537.214ZM237.077 526.64C239.751 526.64 241.791 527.286 243.197 528.578C244.625 529.847 245.339 531.774 245.339 534.358V545H241.327V542.79C240.805 543.583 240.057 544.195 239.083 544.626C238.131 545.034 236.975 545.238 235.615 545.238C234.255 545.238 233.065 545.011 232.045 544.558C231.025 544.082 230.231 543.436 229.665 542.62C229.121 541.781 228.849 540.841 228.849 539.798C228.849 538.166 229.449 536.863 230.651 535.888C231.875 534.891 233.79 534.392 236.397 534.392H241.089V534.12C241.089 532.851 240.703 531.876 239.933 531.196C239.185 530.516 238.063 530.176 236.567 530.176C235.547 530.176 234.538 530.335 233.541 530.652C232.566 530.969 231.739 531.411 231.059 531.978L229.393 528.884C230.345 528.159 231.489 527.603 232.827 527.218C234.164 526.833 235.581 526.64 237.077 526.64ZM236.499 542.144C237.564 542.144 238.505 541.906 239.321 541.43C240.159 540.931 240.749 540.229 241.089 539.322V537.214H236.703C234.255 537.214 233.031 538.019 233.031 539.628C233.031 540.399 233.337 541.011 233.949 541.464C234.561 541.917 235.411 542.144 236.499 542.144ZM261.707 544.014C261.208 544.422 260.596 544.728 259.871 544.932C259.168 545.136 258.42 545.238 257.627 545.238C255.632 545.238 254.091 544.717 253.003 543.674C251.915 542.631 251.371 541.113 251.371 539.118V530.38H248.379V526.98H251.371V522.832H255.621V526.98H260.483V530.38H255.621V539.016C255.621 539.9 255.836 540.58 256.267 541.056C256.698 541.509 257.321 541.736 258.137 541.736C259.089 541.736 259.882 541.487 260.517 540.988L261.707 544.014ZM275.505 526.64C277.794 526.64 279.63 527.309 281.013 528.646C282.396 529.983 283.087 531.967 283.087 534.596V545H278.837V535.14C278.837 533.553 278.463 532.363 277.715 531.57C276.967 530.754 275.902 530.346 274.519 530.346C272.955 530.346 271.72 530.822 270.813 531.774C269.906 532.703 269.453 534.052 269.453 535.82V545H265.203V519.772H269.453V528.952C270.156 528.204 271.017 527.637 272.037 527.252C273.08 526.844 274.236 526.64 275.505 526.64ZM296.804 545.238C294.968 545.238 293.314 544.841 291.84 544.048C290.367 543.255 289.211 542.155 288.372 540.75C287.556 539.322 287.148 537.713 287.148 535.922C287.148 534.131 287.556 532.533 288.372 531.128C289.211 529.723 290.367 528.623 291.84 527.83C293.314 527.037 294.968 526.64 296.804 526.64C298.663 526.64 300.329 527.037 301.802 527.83C303.276 528.623 304.42 529.723 305.236 531.128C306.075 532.533 306.494 534.131 306.494 535.922C306.494 537.713 306.075 539.322 305.236 540.75C304.42 542.155 303.276 543.255 301.802 544.048C300.329 544.841 298.663 545.238 296.804 545.238ZM296.804 541.6C298.368 541.6 299.66 541.079 300.68 540.036C301.7 538.993 302.21 537.622 302.21 535.922C302.21 534.222 301.7 532.851 300.68 531.808C299.66 530.765 298.368 530.244 296.804 530.244C295.24 530.244 293.948 530.765 292.928 531.808C291.931 532.851 291.432 534.222 291.432 535.922C291.432 537.622 291.931 538.993 292.928 540.036C293.948 541.079 295.24 541.6 296.804 541.6ZM320.861 526.64C323.15 526.64 324.986 527.309 326.369 528.646C327.751 529.983 328.443 531.967 328.443 534.596V545H324.193V535.14C324.193 533.553 323.819 532.363 323.071 531.57C322.323 530.754 321.257 530.346 319.875 530.346C318.311 530.346 317.075 530.822 316.169 531.774C315.262 532.703 314.809 534.052 314.809 535.82V545H310.559V526.844H314.605V529.19C315.307 528.351 316.191 527.717 317.257 527.286C318.322 526.855 319.523 526.64 320.861 526.64ZM363.154 539.594H358.938V545H354.654V539.594H341.598V536.534L353.328 521.2H358.054L347.004 535.854H354.79V531.06H358.938V535.854H363.154V539.594ZM368.331 545.238C367.56 545.238 366.903 544.977 366.359 544.456C365.815 543.912 365.543 543.232 365.543 542.416C365.543 541.577 365.803 540.897 366.325 540.376C366.869 539.855 367.537 539.594 368.331 539.594C369.124 539.594 369.781 539.855 370.303 540.376C370.847 540.897 371.119 541.577 371.119 542.416C371.119 543.232 370.847 543.912 370.303 544.456C369.759 544.977 369.101 545.238 368.331 545.238ZM383.509 545.34C381.605 545.34 379.905 544.864 378.409 543.912C376.913 542.937 375.734 541.532 374.873 539.696C374.012 537.837 373.581 535.639 373.581 533.1C373.581 530.561 374.012 528.374 374.873 526.538C375.734 524.679 376.913 523.274 378.409 522.322C379.905 521.347 381.605 520.86 383.509 520.86C385.413 520.86 387.113 521.347 388.609 522.322C390.128 523.274 391.318 524.679 392.179 526.538C393.04 528.374 393.471 530.561 393.471 533.1C393.471 535.639 393.04 537.837 392.179 539.696C391.318 541.532 390.128 542.937 388.609 543.912C387.113 544.864 385.413 545.34 383.509 545.34ZM383.509 541.498C385.209 541.498 386.546 540.795 387.521 539.39C388.518 537.985 389.017 535.888 389.017 533.1C389.017 530.312 388.518 528.215 387.521 526.81C386.546 525.405 385.209 524.702 383.509 524.702C381.832 524.702 380.494 525.405 379.497 526.81C378.522 528.215 378.035 530.312 378.035 533.1C378.035 535.888 378.522 537.985 379.497 539.39C380.494 540.795 381.832 541.498 383.509 541.498ZM398.711 545.238C397.941 545.238 397.283 544.977 396.739 544.456C396.195 543.912 395.923 543.232 395.923 542.416C395.923 541.577 396.184 540.897 396.705 540.376C397.249 539.855 397.918 539.594 398.711 539.594C399.505 539.594 400.162 539.855 400.683 540.376C401.227 540.897 401.499 541.577 401.499 542.416C401.499 543.232 401.227 543.912 400.683 544.456C400.139 544.977 399.482 545.238 398.711 545.238Z" fill="#FFEFEF"/>
</g>
<defs>
<filter id="filter0_d" x="0" y="0" width="541" height="610" filterUnits="userSpaceOnUse" color-interpolation-filters="sRGB">
<feFlood flood-opacity="0" result="BackgroundImageFix"/>
<feColorMatrix in="SourceAlpha" type="matrix" values="0 0 0 0 0 0 0 0 0 0 0 0 0 0 0 0 0 0 127 0"/>
<feOffset dy="4"/>
<feGaussianBlur stdDeviation="2"/>
<feColorMatrix type="matrix" values="0 0 0 0 0 0 0 0 0 0 0 0 0 0 0 0 0 0 0.25 0"/>
<feBlend mode="normal" in2="BackgroundImageFix" result="effect1_dropShadow"/>
<feBlend mode="normal" in="SourceGraphic" in2="effect1_dropShadow" result="shape"/>
</filter>
<filter id="filter1_d" x="72" y="104" width="388" height="293" filterUnits="userSpaceOnUse" color-interpolation-filters="sRGB">
<feFlood flood-opacity="0" result="BackgroundImageFix"/>
<feColorMatrix in="SourceAlpha" type="matrix" values="0 0 0 0 0 0 0 0 0 0 0 0 0 0 0 0 0 0 127 0"/>
<feOffset dy="4"/>
<feGaussianBlur stdDeviation="2"/>
<feColorMatrix type="matrix" values="0 0 0 0 0 0 0 0 0 0 0 0 0 0 0 0 0 0 0.25 0"/>
<feBlend mode="normal" in2="BackgroundImageFix" result="effect1_dropShadow"/>
<feBlend mode="normal" in="SourceGraphic" in2="effect1_dropShadow" result="shape"/>
</filter>
<filter id="filter2_i" x="123.5" y="115.554" width="285.989" height="205.336" filterUnits="userSpaceOnUse" color-interpolation-filters="sRGB">
<feFlood flood-opacity="0" result="BackgroundImageFix"/>
<feBlend mode="normal" in="SourceGraphic" in2="BackgroundImageFix" result="shape"/>
<feColorMatrix in="SourceAlpha" type="matrix" values="0 0 0 0 0 0 0 0 0 0 0 0 0 0 0 0 0 0 127 0" result="hardAlpha"/>
<feOffset dy="4"/>
<feGaussianBlur stdDeviation="2"/>
<feComposite in2="hardAlpha" operator="arithmetic" k2="-1" k3="1"/>
<feColorMatrix type="matrix" values="0 0 0 0 0 0 0 0 0 0 0 0 0 0 0 0 0 0 0.25 0"/>
<feBlend mode="normal" in2="shape" result="effect1_innerShadow"/>
</filter>
<filter id="filter3_d" x="116.997" y="38.224" width="299.143" height="55.472" filterUnits="userSpaceOnUse" color-interpolation-filters="sRGB">
<feFlood flood-opacity="0" result="BackgroundImageFix"/>
<feColorMatrix in="SourceAlpha" type="matrix" values="0 0 0 0 0 0 0 0 0 0 0 0 0 0 0 0 0 0 127 0"/>
<feOffset dy="4"/>
<feGaussianBlur stdDeviation="2"/>
<feColorMatrix type="matrix" values="0 0 0 0 0 0 0 0 0 0 0 0 0 0 0 0 0 0 0.25 0"/>
<feBlend mode="normal" in2="BackgroundImageFix" result="effect1_dropShadow"/>
<feBlend mode="normal" in="SourceGraphic" in2="effect1_dropShadow" result="shape"/>
</filter>
<filter id="filter4_d" x="23.8008" y="355.772" width="493.52" height="197.568" filterUnits="userSpaceOnUse" color-interpolation-filters="sRGB">
<feFlood flood-opacity="0" result="BackgroundImageFix"/>
<feColorMatrix in="SourceAlpha" type="matrix" values="0 0 0 0 0 0 0 0 0 0 0 0 0 0 0 0 0 0 127 0"/>
<feOffset dy="4"/>
<feGaussianBlur stdDeviation="2"/>
<feColorMatrix type="matrix" values="0 0 0 0 0 0 0 0 0 0 0 0 0 0 0 0 0 0 0.25 0"/>
<feBlend mode="normal" in2="BackgroundImageFix" result="effect1_dropShadow"/>
<feBlend mode="normal" in="SourceGraphic" in2="effect1_dropShadow" result="shape"/>
</filter>
</defs>
</svg>
