<svg width="777" height="202" viewBox="0 0 777 202" fill="none" xmlns="http://www.w3.org/2000/svg">
<path d="M82.6243 202C36.9922 202 0 165.008 0 119.376C0 81.2118 26.182 47.8455 63.4637 39.6873C307.974 -13.8181 468.824 -12.712 713.286 39.9154C750.663 47.9619 777 81.3345 777 119.568C777 165.094 740.094 202 694.568 202L82.6243 202Z" fill="#412E77"/>
<g filter="url(#filter0_i)">
<g filter="url(#filter1_i)">
<circle cx="387.818" cy="64" r="56" transform="rotate(-90 387.818 64)" fill="#E0473F"/>
</g>
</g>
<g filter="url(#filter2_d)">
<path d="M58.9693 172.432C56.3533 172.432 53.9893 171.868 51.8773 170.74C49.7893 169.612 48.1453 168.064 46.9453 166.096C45.7693 164.104 45.1813 161.872 45.1813 159.4C45.1813 156.928 45.7693 154.708 46.9453 152.74C48.1453 150.748 49.7893 149.188 51.8773 148.06C53.9893 146.932 56.3533 146.368 58.9693 146.368C61.5853 146.368 63.9373 146.932 66.0253 148.06C68.1133 149.188 69.7573 150.748 70.9573 152.74C72.1573 154.708 72.7573 156.928 72.7573 159.4C72.7573 161.872 72.1573 164.104 70.9573 166.096C69.7573 168.064 68.1133 169.612 66.0253 170.74C63.9373 171.868 61.5853 172.432 58.9693 172.432ZM58.9693 167.464C60.4573 167.464 61.8013 167.128 63.0013 166.456C64.2013 165.76 65.1373 164.8 65.8093 163.576C66.5053 162.352 66.8533 160.96 66.8533 159.4C66.8533 157.84 66.5053 156.448 65.8093 155.224C65.1373 154 64.2013 153.052 63.0013 152.38C61.8013 151.684 60.4573 151.336 58.9693 151.336C57.4813 151.336 56.1373 151.684 54.9373 152.38C53.7373 153.052 52.7893 154 52.0933 155.224C51.4213 156.448 51.0853 157.84 51.0853 159.4C51.0853 160.96 51.4213 162.352 52.0933 163.576C52.7893 164.8 53.7373 165.76 54.9373 166.456C56.1373 167.128 57.4813 167.464 58.9693 167.464ZM88.1923 152.344C89.9923 152.344 91.6243 152.764 93.0883 153.604C94.5763 154.42 95.7403 155.584 96.5803 157.096C97.4203 158.584 97.8403 160.324 97.8403 162.316C97.8403 164.308 97.4203 166.06 96.5803 167.572C95.7403 169.06 94.5763 170.224 93.0883 171.064C91.6243 171.88 89.9923 172.288 88.1923 172.288C85.7203 172.288 83.7763 171.508 82.3603 169.948V178.984H76.7443V152.632H82.1083V154.864C83.5003 153.184 85.5283 152.344 88.1923 152.344ZM87.2203 167.68C88.6603 167.68 89.8363 167.2 90.7483 166.24C91.6843 165.256 92.1523 163.948 92.1523 162.316C92.1523 160.684 91.6843 159.388 90.7483 158.428C89.8363 157.444 88.6603 156.952 87.2203 156.952C85.7803 156.952 84.5923 157.444 83.6563 158.428C82.7443 159.388 82.2883 160.684 82.2883 162.316C82.2883 163.948 82.7443 165.256 83.6563 166.24C84.5923 167.2 85.7803 167.68 87.2203 167.68ZM120.572 162.388C120.572 162.46 120.536 162.964 120.464 163.9H105.812C106.076 165.1 106.7 166.048 107.684 166.744C108.668 167.44 109.892 167.788 111.356 167.788C112.364 167.788 113.252 167.644 114.02 167.356C114.812 167.044 115.544 166.564 116.216 165.916L119.204 169.156C117.38 171.244 114.716 172.288 111.212 172.288C109.028 172.288 107.096 171.868 105.416 171.028C103.736 170.164 102.44 168.976 101.528 167.464C100.616 165.952 100.16 164.236 100.16 162.316C100.16 160.42 100.604 158.716 101.492 157.204C102.404 155.668 103.64 154.48 105.2 153.64C106.784 152.776 108.548 152.344 110.492 152.344C112.388 152.344 114.104 152.752 115.64 153.568C117.176 154.384 118.376 155.56 119.24 157.096C120.128 158.608 120.572 160.372 120.572 162.388ZM110.528 156.592C109.256 156.592 108.188 156.952 107.324 157.672C106.46 158.392 105.932 159.376 105.74 160.624H115.28C115.088 159.4 114.56 158.428 113.696 157.708C112.832 156.964 111.776 156.592 110.528 156.592ZM136.083 152.344C138.483 152.344 140.415 153.064 141.879 154.504C143.367 155.944 144.111 158.08 144.111 160.912V172H138.495V161.776C138.495 160.24 138.159 159.1 137.487 158.356C136.815 157.588 135.843 157.204 134.571 157.204C133.155 157.204 132.027 157.648 131.187 158.536C130.347 159.4 129.927 160.696 129.927 162.424V172H124.311V152.632H129.675V154.9C130.419 154.084 131.343 153.46 132.447 153.028C133.551 152.572 134.763 152.344 136.083 152.344ZM175.849 172L170.989 164.98H170.701H165.625V172H159.793V146.8H170.701C172.933 146.8 174.865 147.172 176.497 147.916C178.153 148.66 179.425 149.716 180.313 151.084C181.201 152.452 181.645 154.072 181.645 155.944C181.645 157.816 181.189 159.436 180.277 160.804C179.389 162.148 178.117 163.18 176.461 163.9L182.113 172H175.849ZM175.741 155.944C175.741 154.528 175.285 153.448 174.373 152.704C173.461 151.936 172.129 151.552 170.377 151.552H165.625V160.336H170.377C172.129 160.336 173.461 159.952 174.373 159.184C175.285 158.416 175.741 157.336 175.741 155.944ZM204.841 162.388C204.841 162.46 204.805 162.964 204.733 163.9H190.081C190.345 165.1 190.969 166.048 191.953 166.744C192.937 167.44 194.161 167.788 195.625 167.788C196.633 167.788 197.521 167.644 198.289 167.356C199.081 167.044 199.813 166.564 200.485 165.916L203.473 169.156C201.649 171.244 198.985 172.288 195.481 172.288C193.297 172.288 191.365 171.868 189.685 171.028C188.005 170.164 186.709 168.976 185.797 167.464C184.885 165.952 184.429 164.236 184.429 162.316C184.429 160.42 184.873 158.716 185.761 157.204C186.673 155.668 187.909 154.48 189.469 153.64C191.053 152.776 192.817 152.344 194.761 152.344C196.657 152.344 198.373 152.752 199.909 153.568C201.445 154.384 202.645 155.56 203.509 157.096C204.397 158.608 204.841 160.372 204.841 162.388ZM194.797 156.592C193.525 156.592 192.457 156.952 191.593 157.672C190.729 158.392 190.201 159.376 190.009 160.624H199.549C199.357 159.4 198.829 158.428 197.965 157.708C197.101 156.964 196.045 156.592 194.797 156.592ZM228.56 152.632V168.76C228.56 172.312 227.636 174.952 225.788 176.68C223.94 178.408 221.24 179.272 217.688 179.272C215.816 179.272 214.04 179.044 212.36 178.588C210.68 178.132 209.288 177.472 208.184 176.608L210.416 172.576C211.232 173.248 212.264 173.776 213.512 174.16C214.76 174.568 216.008 174.772 217.256 174.772C219.2 174.772 220.628 174.328 221.54 173.44C222.476 172.576 222.944 171.256 222.944 169.48V168.652C221.48 170.26 219.44 171.064 216.824 171.064C215.048 171.064 213.416 170.68 211.928 169.912C210.464 169.12 209.3 168.016 208.436 166.6C207.572 165.184 207.14 163.552 207.14 161.704C207.14 159.856 207.572 158.224 208.436 156.808C209.3 155.392 210.464 154.3 211.928 153.532C213.416 152.74 215.048 152.344 216.824 152.344C219.632 152.344 221.768 153.268 223.232 155.116V152.632H228.56ZM217.94 166.456C219.428 166.456 220.64 166.024 221.576 165.16C222.536 164.272 223.016 163.12 223.016 161.704C223.016 160.288 222.536 159.148 221.576 158.284C220.64 157.396 219.428 156.952 217.94 156.952C216.452 156.952 215.228 157.396 214.268 158.284C213.308 159.148 212.828 160.288 212.828 161.704C212.828 163.12 213.308 164.272 214.268 165.16C215.228 166.024 216.452 166.456 217.94 166.456ZM233.787 152.632H239.403V172H233.787V152.632ZM236.595 149.932C235.563 149.932 234.723 149.632 234.075 149.032C233.427 148.432 233.103 147.688 233.103 146.8C233.103 145.912 233.427 145.168 234.075 144.568C234.723 143.968 235.563 143.668 236.595 143.668C237.627 143.668 238.467 143.956 239.115 144.532C239.763 145.108 240.087 145.828 240.087 146.692C240.087 147.628 239.763 148.408 239.115 149.032C238.467 149.632 237.627 149.932 236.595 149.932ZM251.131 172.288C249.523 172.288 247.951 172.096 246.415 171.712C244.879 171.304 243.655 170.8 242.743 170.2L244.615 166.168C245.479 166.72 246.523 167.176 247.747 167.536C248.971 167.872 250.171 168.04 251.347 168.04C253.723 168.04 254.911 167.452 254.911 166.276C254.911 165.724 254.587 165.328 253.939 165.088C253.291 164.848 252.295 164.644 250.951 164.476C249.367 164.236 248.059 163.96 247.027 163.648C245.995 163.336 245.095 162.784 244.327 161.992C243.583 161.2 243.211 160.072 243.211 158.608C243.211 157.384 243.559 156.304 244.255 155.368C244.975 154.408 246.007 153.664 247.351 153.136C248.719 152.608 250.327 152.344 252.175 152.344C253.543 152.344 254.899 152.5 256.243 152.812C257.611 153.1 258.739 153.508 259.627 154.036L257.755 158.032C256.051 157.072 254.191 156.592 252.175 156.592C250.975 156.592 250.075 156.76 249.475 157.096C248.875 157.432 248.575 157.864 248.575 158.392C248.575 158.992 248.899 159.412 249.547 159.652C250.195 159.892 251.227 160.12 252.643 160.336C254.227 160.6 255.523 160.888 256.531 161.2C257.539 161.488 258.415 162.028 259.159 162.82C259.903 163.612 260.275 164.716 260.275 166.132C260.275 167.332 259.915 168.4 259.195 169.336C258.475 170.272 257.419 171.004 256.027 171.532C254.659 172.036 253.027 172.288 251.131 172.288ZM276.232 171.064C275.68 171.472 274.996 171.784 274.18 172C273.388 172.192 272.548 172.288 271.66 172.288C269.356 172.288 267.568 171.7 266.296 170.524C265.048 169.348 264.424 167.62 264.424 165.34V157.384H261.436V153.064H264.424V148.348H270.04V153.064H274.864V157.384H270.04V165.268C270.04 166.084 270.244 166.72 270.652 167.176C271.084 167.608 271.684 167.824 272.452 167.824C273.34 167.824 274.096 167.584 274.72 167.104L276.232 171.064ZM284.749 155.188C285.421 154.252 286.321 153.544 287.449 153.064C288.601 152.584 289.921 152.344 291.409 152.344V157.528C290.785 157.48 290.365 157.456 290.149 157.456C288.541 157.456 287.281 157.912 286.369 158.824C285.457 159.712 285.001 161.056 285.001 162.856V172H279.385V152.632H284.749V155.188ZM302.455 152.344C305.455 152.344 307.759 153.064 309.367 154.504C310.975 155.92 311.779 158.068 311.779 160.948V172H306.523V169.588C305.467 171.388 303.499 172.288 300.619 172.288C299.131 172.288 297.835 172.036 296.731 171.532C295.651 171.028 294.823 170.332 294.247 169.444C293.671 168.556 293.383 167.548 293.383 166.42C293.383 164.62 294.055 163.204 295.399 162.172C296.767 161.14 298.867 160.624 301.699 160.624H306.163C306.163 159.4 305.791 158.464 305.047 157.816C304.303 157.144 303.187 156.808 301.699 156.808C300.667 156.808 299.647 156.976 298.639 157.312C297.655 157.624 296.815 158.056 296.119 158.608L294.103 154.684C295.159 153.94 296.419 153.364 297.883 152.956C299.371 152.548 300.895 152.344 302.455 152.344ZM302.023 168.508C302.983 168.508 303.835 168.292 304.579 167.86C305.323 167.404 305.851 166.744 306.163 165.88V163.9H302.311C300.007 163.9 298.855 164.656 298.855 166.168C298.855 166.888 299.131 167.464 299.683 167.896C300.259 168.304 301.039 168.508 302.023 168.508ZM329.354 171.064C328.802 171.472 328.118 171.784 327.302 172C326.51 172.192 325.67 172.288 324.782 172.288C322.478 172.288 320.69 171.7 319.418 170.524C318.17 169.348 317.546 167.62 317.546 165.34V157.384H314.558V153.064H317.546V148.348H323.162V153.064H327.986V157.384H323.162V165.268C323.162 166.084 323.366 166.72 323.774 167.176C324.206 167.608 324.806 167.824 325.574 167.824C326.462 167.824 327.218 167.584 327.842 167.104L329.354 171.064ZM332.506 152.632H338.122V172H332.506V152.632ZM335.314 149.932C334.282 149.932 333.442 149.632 332.794 149.032C332.146 148.432 331.822 147.688 331.822 146.8C331.822 145.912 332.146 145.168 332.794 144.568C333.442 143.968 334.282 143.668 335.314 143.668C336.346 143.668 337.186 143.956 337.834 144.532C338.482 145.108 338.806 145.828 338.806 146.692C338.806 147.628 338.482 148.408 337.834 149.032C337.186 149.632 336.346 149.932 335.314 149.932ZM352.55 172.288C350.51 172.288 348.674 171.868 347.042 171.028C345.434 170.164 344.174 168.976 343.262 167.464C342.35 165.952 341.894 164.236 341.894 162.316C341.894 160.396 342.35 158.68 343.262 157.168C344.174 155.656 345.434 154.48 347.042 153.64C348.674 152.776 350.51 152.344 352.55 152.344C354.59 152.344 356.414 152.776 358.022 153.64C359.63 154.48 360.89 155.656 361.802 157.168C362.714 158.68 363.17 160.396 363.17 162.316C363.17 164.236 362.714 165.952 361.802 167.464C360.89 168.976 359.63 170.164 358.022 171.028C356.414 171.868 354.59 172.288 352.55 172.288ZM352.55 167.68C353.99 167.68 355.166 167.2 356.078 166.24C357.014 165.256 357.482 163.948 357.482 162.316C357.482 160.684 357.014 159.388 356.078 158.428C355.166 157.444 353.99 156.952 352.55 156.952C351.11 156.952 349.922 157.444 348.986 158.428C348.05 159.388 347.582 160.684 347.582 162.316C347.582 163.948 348.05 165.256 348.986 166.24C349.922 167.2 351.11 167.68 352.55 167.68ZM378.696 152.344C381.096 152.344 383.028 153.064 384.492 154.504C385.98 155.944 386.724 158.08 386.724 160.912V172H381.108V161.776C381.108 160.24 380.772 159.1 380.1 158.356C379.428 157.588 378.456 157.204 377.184 157.204C375.768 157.204 374.64 157.648 373.8 158.536C372.96 159.4 372.54 160.696 372.54 162.424V172H366.924V152.632H372.288V154.9C373.032 154.084 373.956 153.46 375.06 153.028C376.164 152.572 377.376 152.344 378.696 152.344Z" fill="#FFEFEF"/>
</g>
<g filter="url(#filter3_i)">
<path d="M453.384 167.248V172H434.34V168.22L444.06 159.04C445.092 158.056 445.788 157.216 446.148 156.52C446.508 155.8 446.688 155.092 446.688 154.396C446.688 153.388 446.34 152.62 445.644 152.092C444.972 151.54 443.976 151.264 442.656 151.264C441.552 151.264 440.556 151.48 439.668 151.912C438.78 152.32 438.036 152.944 437.436 153.784L433.188 151.048C434.172 149.584 435.528 148.444 437.256 147.628C438.984 146.788 440.964 146.368 443.196 146.368C445.068 146.368 446.7 146.68 448.092 147.304C449.508 147.904 450.6 148.768 451.368 149.896C452.16 151 452.556 152.308 452.556 153.82C452.556 155.188 452.268 156.472 451.692 157.672C451.116 158.872 450 160.24 448.344 161.776L442.548 167.248H453.384ZM478.515 166.708H474.411V172H468.723V166.708H455.151V162.784L467.031 146.8H473.151L462.135 161.956H468.903V157.24H474.411V161.956H478.515V166.708ZM508.635 166.6H496.935L494.703 172H488.727L499.959 146.8H505.719L516.987 172H510.867L508.635 166.6ZM506.799 162.172L502.803 152.524L498.807 162.172H506.799ZM538.366 152.632V172H533.038V169.696C532.294 170.536 531.406 171.184 530.374 171.64C529.342 172.072 528.226 172.288 527.026 172.288C524.482 172.288 522.466 171.556 520.978 170.092C519.49 168.628 518.746 166.456 518.746 163.576V152.632H524.362V162.748C524.362 165.868 525.67 167.428 528.286 167.428C529.63 167.428 530.71 166.996 531.526 166.132C532.342 165.244 532.75 163.936 532.75 162.208V152.632H538.366ZM563.549 152.632V168.76C563.549 172.312 562.625 174.952 560.777 176.68C558.929 178.408 556.229 179.272 552.677 179.272C550.805 179.272 549.029 179.044 547.349 178.588C545.669 178.132 544.277 177.472 543.173 176.608L545.405 172.576C546.221 173.248 547.253 173.776 548.501 174.16C549.749 174.568 550.997 174.772 552.245 174.772C554.189 174.772 555.617 174.328 556.529 173.44C557.465 172.576 557.933 171.256 557.933 169.48V168.652C556.469 170.26 554.429 171.064 551.813 171.064C550.037 171.064 548.405 170.68 546.917 169.912C545.453 169.12 544.289 168.016 543.425 166.6C542.561 165.184 542.129 163.552 542.129 161.704C542.129 159.856 542.561 158.224 543.425 156.808C544.289 155.392 545.453 154.3 546.917 153.532C548.405 152.74 550.037 152.344 551.813 152.344C554.621 152.344 556.757 153.268 558.221 155.116V152.632H563.549ZM552.929 166.456C554.417 166.456 555.629 166.024 556.565 165.16C557.525 164.272 558.005 163.12 558.005 161.704C558.005 160.288 557.525 159.148 556.565 158.284C555.629 157.396 554.417 156.952 552.929 156.952C551.441 156.952 550.217 157.396 549.257 158.284C548.297 159.148 547.817 160.288 547.817 161.704C547.817 163.12 548.297 164.272 549.257 165.16C550.217 166.024 551.441 166.456 552.929 166.456ZM588.288 152.632V172H582.96V169.696C582.216 170.536 581.328 171.184 580.296 171.64C579.264 172.072 578.148 172.288 576.948 172.288C574.404 172.288 572.388 171.556 570.9 170.092C569.412 168.628 568.668 166.456 568.668 163.576V152.632H574.284V162.748C574.284 165.868 575.592 167.428 578.208 167.428C579.552 167.428 580.632 166.996 581.448 166.132C582.264 165.244 582.672 163.936 582.672 162.208V152.632H588.288ZM600.006 172.288C598.398 172.288 596.826 172.096 595.29 171.712C593.754 171.304 592.53 170.8 591.618 170.2L593.49 166.168C594.354 166.72 595.398 167.176 596.622 167.536C597.846 167.872 599.046 168.04 600.222 168.04C602.598 168.04 603.786 167.452 603.786 166.276C603.786 165.724 603.462 165.328 602.814 165.088C602.166 164.848 601.17 164.644 599.826 164.476C598.242 164.236 596.934 163.96 595.902 163.648C594.87 163.336 593.97 162.784 593.202 161.992C592.458 161.2 592.086 160.072 592.086 158.608C592.086 157.384 592.434 156.304 593.13 155.368C593.85 154.408 594.882 153.664 596.226 153.136C597.594 152.608 599.202 152.344 601.05 152.344C602.418 152.344 603.774 152.5 605.118 152.812C606.486 153.1 607.614 153.508 608.502 154.036L606.63 158.032C604.926 157.072 603.066 156.592 601.05 156.592C599.85 156.592 598.95 156.76 598.35 157.096C597.75 157.432 597.45 157.864 597.45 158.392C597.45 158.992 597.774 159.412 598.422 159.652C599.07 159.892 600.102 160.12 601.518 160.336C603.102 160.6 604.398 160.888 605.406 161.2C606.414 161.488 607.29 162.028 608.034 162.82C608.778 163.612 609.15 164.716 609.15 166.132C609.15 167.332 608.79 168.4 608.07 169.336C607.35 170.272 606.294 171.004 604.902 171.532C603.534 172.036 601.902 172.288 600.006 172.288ZM625.107 171.064C624.555 171.472 623.871 171.784 623.055 172C622.263 172.192 621.423 172.288 620.535 172.288C618.231 172.288 616.443 171.7 615.171 170.524C613.923 169.348 613.299 167.62 613.299 165.34V157.384H610.311V153.064H613.299V148.348H618.915V153.064H623.739V157.384H618.915V165.268C618.915 166.084 619.119 166.72 619.527 167.176C619.959 167.608 620.559 167.824 621.327 167.824C622.215 167.824 622.971 167.584 623.595 167.104L625.107 171.064ZM656.095 167.248V172H637.051V168.22L646.771 159.04C647.803 158.056 648.499 157.216 648.859 156.52C649.219 155.8 649.399 155.092 649.399 154.396C649.399 153.388 649.051 152.62 648.355 152.092C647.683 151.54 646.687 151.264 645.367 151.264C644.263 151.264 643.267 151.48 642.379 151.912C641.491 152.32 640.747 152.944 640.147 153.784L635.899 151.048C636.883 149.584 638.239 148.444 639.967 147.628C641.695 146.788 643.675 146.368 645.907 146.368C647.779 146.368 649.411 146.68 650.803 147.304C652.219 147.904 653.311 148.768 654.079 149.896C654.871 151 655.267 152.308 655.267 153.82C655.267 155.188 654.979 156.472 654.403 157.672C653.827 158.872 652.711 160.24 651.055 161.776L645.259 167.248H656.095ZM669.231 172.432C667.143 172.432 665.283 171.916 663.651 170.884C662.019 169.852 660.735 168.364 659.799 166.42C658.887 164.452 658.431 162.112 658.431 159.4C658.431 156.688 658.887 154.36 659.799 152.416C660.735 150.448 662.019 148.948 663.651 147.916C665.283 146.884 667.143 146.368 669.231 146.368C671.319 146.368 673.179 146.884 674.811 147.916C676.443 148.948 677.715 150.448 678.627 152.416C679.563 154.36 680.031 156.688 680.031 159.4C680.031 162.112 679.563 164.452 678.627 166.42C677.715 168.364 676.443 169.852 674.811 170.884C673.179 171.916 671.319 172.432 669.231 172.432ZM669.231 167.5C670.767 167.5 671.967 166.84 672.831 165.52C673.719 164.2 674.163 162.16 674.163 159.4C674.163 156.64 673.719 154.6 672.831 153.28C671.967 151.96 670.767 151.3 669.231 151.3C667.719 151.3 666.519 151.96 665.631 153.28C664.767 154.6 664.335 156.64 664.335 159.4C664.335 162.16 664.767 164.2 665.631 165.52C666.519 166.84 667.719 167.5 669.231 167.5ZM701.482 167.248V172H682.438V168.22L692.158 159.04C693.19 158.056 693.886 157.216 694.246 156.52C694.606 155.8 694.786 155.092 694.786 154.396C694.786 153.388 694.438 152.62 693.742 152.092C693.07 151.54 692.074 151.264 690.754 151.264C689.65 151.264 688.654 151.48 687.766 151.912C686.878 152.32 686.134 152.944 685.534 153.784L681.286 151.048C682.27 149.584 683.626 148.444 685.354 147.628C687.082 146.788 689.062 146.368 691.294 146.368C693.166 146.368 694.798 146.68 696.19 147.304C697.606 147.904 698.698 148.768 699.466 149.896C700.258 151 700.654 152.308 700.654 153.82C700.654 155.188 700.366 156.472 699.79 157.672C699.214 158.872 698.098 160.24 696.442 161.776L690.646 167.248H701.482ZM714.618 172.432C712.53 172.432 710.67 171.916 709.038 170.884C707.406 169.852 706.122 168.364 705.186 166.42C704.274 164.452 703.818 162.112 703.818 159.4C703.818 156.688 704.274 154.36 705.186 152.416C706.122 150.448 707.406 148.948 709.038 147.916C710.67 146.884 712.53 146.368 714.618 146.368C716.706 146.368 718.566 146.884 720.198 147.916C721.83 148.948 723.102 150.448 724.014 152.416C724.95 154.36 725.418 156.688 725.418 159.4C725.418 162.112 724.95 164.452 724.014 166.42C723.102 168.364 721.83 169.852 720.198 170.884C718.566 171.916 716.706 172.432 714.618 172.432ZM714.618 167.5C716.154 167.5 717.354 166.84 718.218 165.52C719.106 164.2 719.55 162.16 719.55 159.4C719.55 156.64 719.106 154.6 718.218 153.28C717.354 151.96 716.154 151.3 714.618 151.3C713.106 151.3 711.906 151.96 711.018 153.28C710.154 154.6 709.722 156.64 709.722 159.4C709.722 162.16 710.154 164.2 711.018 165.52C711.906 166.84 713.106 167.5 714.618 167.5Z" fill="#FFEFEF"/>
</g>
<path fill-rule="evenodd" clip-rule="evenodd" d="M401.202 32.7951L420.216 50.0577C420.719 50.5158 421 51.1244 421 51.7591V82.1913C421 90.3547 413.46 97 404.186 97H374.205C364.394 97 357 90.6328 357 82.1913V73.9918C357 72.6373 358.261 71.5379 359.815 71.5379C361.369 71.5379 362.63 72.6373 362.63 73.9918V82.1913C362.63 87.927 367.498 92.0921 374.205 92.0921H404.186C410.356 92.0921 415.37 87.6488 415.37 82.1913V52.744L400.999 39.6988V43.9785C400.999 47.2635 404.065 49.9399 407.834 49.9465C409.388 49.9498 410.645 51.0491 410.641 52.407C410.637 53.7583 409.38 54.8544 407.826 54.8544H407.822C400.958 54.8413 395.369 49.9629 395.369 43.9785V36.9471H374.205C367.929 36.9471 362.63 41.41 362.63 46.6942V60.6522C362.63 62.0068 361.369 63.1062 359.815 63.1062C358.261 63.1062 357 62.0068 357 60.6522V46.6942C357 38.75 364.878 32.0393 374.205 32.0393H397.966C398.003 32.0363 398.035 32.0278 398.068 32.0195C398.106 32.0096 398.143 32 398.184 32C398.228 32 398.267 32.0102 398.306 32.0203C398.338 32.0283 398.369 32.0364 398.402 32.0393H399.171C399.937 32.0393 400.669 32.3108 401.202 32.7951ZM385.496 59.6946C385.496 58.3401 386.757 57.2407 388.311 57.2407C389.865 57.2407 391.126 58.3401 391.126 59.6946V65.2602H397.51C399.064 65.2602 400.325 66.3595 400.325 67.7141C400.325 69.0687 399.064 70.168 397.51 70.168H391.126V75.7303C391.126 77.0849 389.865 78.1843 388.311 78.1843C386.757 78.1843 385.496 77.0849 385.496 75.7303V70.168H379.116C377.562 70.168 376.301 69.0687 376.301 67.7141C376.301 66.3595 377.562 65.2602 379.116 65.2602H385.496V59.6946Z" fill="#FFEFEF"/>
<defs>
<filter id="filter0_i" x="331.818" y="8" width="112" height="116" filterUnits="userSpaceOnUse" color-interpolation-filters="sRGB">
<feFlood flood-opacity="0" result="BackgroundImageFix"/>
<feBlend mode="normal" in="SourceGraphic" in2="BackgroundImageFix" result="shape"/>
<feColorMatrix in="SourceAlpha" type="matrix" values="0 0 0 0 0 0 0 0 0 0 0 0 0 0 0 0 0 0 127 0" result="hardAlpha"/>
<feOffset dy="4"/>
<feGaussianBlur stdDeviation="2"/>
<feComposite in2="hardAlpha" operator="arithmetic" k2="-1" k3="1"/>
<feColorMatrix type="matrix" values="0 0 0 0 0 0 0 0 0 0 0 0 0 0 0 0 0 0 0.25 0"/>
<feBlend mode="normal" in2="shape" result="effect1_innerShadow"/>
</filter>
<filter id="filter1_i" x="331.818" y="8" width="112" height="116" filterUnits="userSpaceOnUse" color-interpolation-filters="sRGB">
<feFlood flood-opacity="0" result="BackgroundImageFix"/>
<feBlend mode="normal" in="SourceGraphic" in2="BackgroundImageFix" result="shape"/>
<feColorMatrix in="SourceAlpha" type="matrix" values="0 0 0 0 0 0 0 0 0 0 0 0 0 0 0 0 0 0 127 0" result="hardAlpha"/>
<feOffset dy="4"/>
<feGaussianBlur stdDeviation="2"/>
<feComposite in2="hardAlpha" operator="arithmetic" k2="-1" k3="1"/>
<feColorMatrix type="matrix" values="0 0 0 0 0 0 0 0 0 0 0 0 0 0 0 0 0 0 0.25 0"/>
<feBlend mode="normal" in2="shape" result="effect1_innerShadow"/>
</filter>
<filter id="filter2_d" x="41.1816" y="143.668" width="349.543" height="43.604" filterUnits="userSpaceOnUse" color-interpolation-filters="sRGB">
<feFlood flood-opacity="0" result="BackgroundImageFix"/>
<feColorMatrix in="SourceAlpha" type="matrix" values="0 0 0 0 0 0 0 0 0 0 0 0 0 0 0 0 0 0 127 0"/>
<feOffset dy="4"/>
<feGaussianBlur stdDeviation="2"/>
<feColorMatrix type="matrix" values="0 0 0 0 0 0 0 0 0 0 0 0 0 0 0 0 0 0 0.25 0"/>
<feBlend mode="normal" in2="BackgroundImageFix" result="effect1_dropShadow"/>
<feBlend mode="normal" in="SourceGraphic" in2="effect1_dropShadow" result="shape"/>
</filter>
<filter id="filter3_i" x="433.188" y="146.368" width="292.23" height="36.904" filterUnits="userSpaceOnUse" color-interpolation-filters="sRGB">
<feFlood flood-opacity="0" result="BackgroundImageFix"/>
<feBlend mode="normal" in="SourceGraphic" in2="BackgroundImageFix" result="shape"/>
<feColorMatrix in="SourceAlpha" type="matrix" values="0 0 0 0 0 0 0 0 0 0 0 0 0 0 0 0 0 0 127 0" result="hardAlpha"/>
<feOffset dy="4"/>
<feGaussianBlur stdDeviation="2"/>
<feComposite in2="hardAlpha" operator="arithmetic" k2="-1" k3="1"/>
<feColorMatrix type="matrix" values="0 0 0 0 0 0 0 0 0 0 0 0 0 0 0 0 0 0 0.25 0"/>
<feBlend mode="normal" in2="shape" result="effect1_innerShadow"/>
</filter>
</defs>
</svg>
