<svg width="1128" height="181" viewBox="0 0 1128 181" fill="none" xmlns="http://www.w3.org/2000/svg">
<path d="M1128 93.9017C1128 141.082 1088.1 178.444 1041.01 175.461C682.218 152.736 450.047 140.86 90.5496 172.406C42.114 176.657 0 138.759 0 90.1377V90.1377C0 41.7768 41.6433 3.9272 89.8096 8.26092C469.366 42.4112 702.84 51.9559 1034.78 12.1172C1084.05 6.20436 1128 44.2816 1128 93.9017V93.9017Z" fill="#65789D"/>
<path d="M73.012 76.6V106H67.552V81.178H61.336V76.6H73.012ZM82.1201 106.294C81.1681 106.294 80.3561 105.972 79.6841 105.328C79.0121 104.656 78.6761 103.816 78.6761 102.808C78.6761 101.772 78.9981 100.932 79.6421 100.288C80.3141 99.644 81.1401 99.322 82.1201 99.322C83.1001 99.322 83.9121 99.644 84.5561 100.288C85.2281 100.932 85.5641 101.772 85.5641 102.808C85.5641 103.816 85.2281 104.656 84.5561 105.328C83.8841 105.972 83.0721 106.294 82.1201 106.294ZM114.901 76.6C117.449 76.6 119.661 77.02 121.537 77.86C123.441 78.7 124.897 79.904 125.905 81.472C126.913 83.04 127.417 84.902 127.417 87.058C127.417 89.186 126.913 91.048 125.905 92.644C124.897 94.212 123.441 95.416 121.537 96.256C119.661 97.096 117.449 97.516 114.901 97.516H108.265V106H102.805V76.6H114.901ZM114.649 92.896C117.029 92.896 118.835 92.392 120.067 91.384C121.299 90.376 121.915 88.934 121.915 87.058C121.915 85.182 121.299 83.74 120.067 82.732C118.835 81.724 117.029 81.22 114.649 81.22H108.265V92.896H114.649ZM153.368 94.912C153.368 95.276 153.34 95.794 153.284 96.466H135.686C135.994 98.118 136.792 99.434 138.08 100.414C139.396 101.366 141.02 101.842 142.952 101.842C145.416 101.842 147.446 101.03 149.042 99.406L151.856 102.64C150.848 103.844 149.574 104.754 148.034 105.37C146.494 105.986 144.758 106.294 142.826 106.294C140.362 106.294 138.192 105.804 136.316 104.824C134.44 103.844 132.984 102.486 131.948 100.75C130.94 98.986 130.436 96.998 130.436 94.786C130.436 92.602 130.926 90.642 131.906 88.906C132.914 87.142 134.3 85.77 136.064 84.79C137.828 83.81 139.816 83.32 142.028 83.32C144.212 83.32 146.158 83.81 147.866 84.79C149.602 85.742 150.946 87.1 151.898 88.864C152.878 90.6 153.368 92.616 153.368 94.912ZM142.028 87.52C140.348 87.52 138.92 88.024 137.744 89.032C136.596 90.012 135.896 91.328 135.644 92.98H148.37C148.146 91.356 147.46 90.04 146.312 89.032C145.164 88.024 143.736 87.52 142.028 87.52ZM163.409 86.848C164.921 84.496 167.581 83.32 171.389 83.32V88.318C170.941 88.234 170.535 88.192 170.171 88.192C168.127 88.192 166.531 88.794 165.383 89.998C164.235 91.174 163.661 92.882 163.661 95.122V106H158.411V83.572H163.409V86.848ZM175.842 83.572H181.092V106H175.842V83.572ZM178.488 79.876C177.536 79.876 176.738 79.582 176.094 78.994C175.45 78.378 175.128 77.622 175.128 76.726C175.128 75.83 175.45 75.088 176.094 74.5C176.738 73.884 177.536 73.576 178.488 73.576C179.44 73.576 180.238 73.87 180.882 74.458C181.526 75.018 181.848 75.732 181.848 76.6C181.848 77.524 181.526 78.308 180.882 78.952C180.266 79.568 179.468 79.876 178.488 79.876ZM198.063 106.294C195.795 106.294 193.751 105.804 191.931 104.824C190.111 103.844 188.683 102.486 187.647 100.75C186.639 98.986 186.135 96.998 186.135 94.786C186.135 92.574 186.639 90.6 187.647 88.864C188.683 87.128 190.111 85.77 191.931 84.79C193.751 83.81 195.795 83.32 198.063 83.32C200.359 83.32 202.417 83.81 204.237 84.79C206.057 85.77 207.471 87.128 208.479 88.864C209.515 90.6 210.033 92.574 210.033 94.786C210.033 96.998 209.515 98.986 208.479 100.75C207.471 102.486 206.057 103.844 204.237 104.824C202.417 105.804 200.359 106.294 198.063 106.294ZM198.063 101.8C199.995 101.8 201.591 101.156 202.851 99.868C204.111 98.58 204.741 96.886 204.741 94.786C204.741 92.686 204.111 90.992 202.851 89.704C201.591 88.416 199.995 87.772 198.063 87.772C196.131 87.772 194.535 88.416 193.275 89.704C192.043 90.992 191.427 92.686 191.427 94.786C191.427 96.886 192.043 98.58 193.275 99.868C194.535 101.156 196.131 101.8 198.063 101.8ZM237.019 74.836V106H231.979V103.102C231.111 104.166 230.033 104.964 228.745 105.496C227.485 106.028 226.085 106.294 224.545 106.294C222.389 106.294 220.443 105.818 218.707 104.866C216.999 103.914 215.655 102.57 214.675 100.834C213.695 99.07 213.205 97.054 213.205 94.786C213.205 92.518 213.695 90.516 214.675 88.78C215.655 87.044 216.999 85.7 218.707 84.748C220.443 83.796 222.389 83.32 224.545 83.32C226.029 83.32 227.387 83.572 228.619 84.076C229.851 84.58 230.901 85.336 231.769 86.344V74.836H237.019ZM225.175 101.8C226.435 101.8 227.569 101.52 228.577 100.96C229.585 100.372 230.383 99.546 230.971 98.482C231.559 97.418 231.853 96.186 231.853 94.786C231.853 93.386 231.559 92.154 230.971 91.09C230.383 90.026 229.585 89.214 228.577 88.654C227.569 88.066 226.435 87.772 225.175 87.772C223.915 87.772 222.781 88.066 221.773 88.654C220.765 89.214 219.967 90.026 219.379 91.09C218.791 92.154 218.497 93.386 218.497 94.786C218.497 96.186 218.791 97.418 219.379 98.482C219.967 99.546 220.765 100.372 221.773 100.96C222.781 101.52 223.915 101.8 225.175 101.8ZM264.971 94.912C264.971 95.276 264.943 95.794 264.887 96.466H247.289C247.597 98.118 248.395 99.434 249.683 100.414C250.999 101.366 252.623 101.842 254.555 101.842C257.019 101.842 259.049 101.03 260.645 99.406L263.459 102.64C262.451 103.844 261.177 104.754 259.637 105.37C258.097 105.986 256.361 106.294 254.429 106.294C251.965 106.294 249.795 105.804 247.919 104.824C246.043 103.844 244.587 102.486 243.551 100.75C242.543 98.986 242.039 96.998 242.039 94.786C242.039 92.602 242.529 90.642 243.509 88.906C244.517 87.142 245.903 85.77 247.667 84.79C249.431 83.81 251.419 83.32 253.631 83.32C255.815 83.32 257.761 83.81 259.469 84.79C261.205 85.742 262.549 87.1 263.501 88.864C264.481 90.6 264.971 92.616 264.971 94.912ZM253.631 87.52C251.951 87.52 250.523 88.024 249.347 89.032C248.199 90.012 247.499 91.328 247.247 92.98H259.973C259.749 91.356 259.063 90.04 257.915 89.032C256.767 88.024 255.339 87.52 253.631 87.52ZM301.362 106L295.356 97.39C295.104 97.418 294.726 97.432 294.222 97.432H287.586V106H282.126V76.6H294.222C296.77 76.6 298.982 77.02 300.858 77.86C302.762 78.7 304.218 79.904 305.226 81.472C306.234 83.04 306.738 84.902 306.738 87.058C306.738 89.27 306.192 91.174 305.1 92.77C304.036 94.366 302.496 95.556 300.48 96.34L307.242 106H301.362ZM301.236 87.058C301.236 85.182 300.62 83.74 299.388 82.732C298.156 81.724 296.35 81.22 293.97 81.22H287.586V92.938H293.97C296.35 92.938 298.156 92.434 299.388 91.426C300.62 90.39 301.236 88.934 301.236 87.058ZM333.426 94.912C333.426 95.276 333.398 95.794 333.342 96.466H315.744C316.052 98.118 316.85 99.434 318.138 100.414C319.454 101.366 321.078 101.842 323.01 101.842C325.474 101.842 327.504 101.03 329.1 99.406L331.914 102.64C330.906 103.844 329.632 104.754 328.092 105.37C326.552 105.986 324.816 106.294 322.884 106.294C320.42 106.294 318.25 105.804 316.374 104.824C314.498 103.844 313.042 102.486 312.006 100.75C310.998 98.986 310.494 96.998 310.494 94.786C310.494 92.602 310.984 90.642 311.964 88.906C312.972 87.142 314.358 85.77 316.122 84.79C317.886 83.81 319.874 83.32 322.086 83.32C324.27 83.32 326.216 83.81 327.924 84.79C329.66 85.742 331.004 87.1 331.956 88.864C332.936 90.6 333.426 92.616 333.426 94.912ZM322.086 87.52C320.406 87.52 318.978 88.024 317.802 89.032C316.654 90.012 315.954 91.328 315.702 92.98H328.428C328.204 91.356 327.518 90.04 326.37 89.032C325.222 88.024 323.794 87.52 322.086 87.52ZM360.729 83.572V102.598C360.729 110.494 356.697 114.442 348.633 114.442C346.477 114.442 344.433 114.162 342.501 113.602C340.569 113.07 338.973 112.286 337.713 111.25L340.065 107.302C341.045 108.114 342.277 108.758 343.761 109.234C345.273 109.738 346.799 109.99 348.339 109.99C350.803 109.99 352.609 109.43 353.757 108.31C354.905 107.19 355.479 105.482 355.479 103.186V102.01C354.583 102.99 353.491 103.732 352.203 104.236C350.915 104.74 349.501 104.992 347.961 104.992C345.833 104.992 343.901 104.544 342.165 103.648C340.457 102.724 339.099 101.436 338.091 99.784C337.111 98.132 336.621 96.242 336.621 94.114C336.621 91.986 337.111 90.11 338.091 88.486C339.099 86.834 340.457 85.56 342.165 84.664C343.901 83.768 345.833 83.32 347.961 83.32C349.585 83.32 351.055 83.586 352.371 84.118C353.715 84.65 354.835 85.462 355.731 86.554V83.572H360.729ZM348.759 100.54C350.747 100.54 352.371 99.952 353.631 98.776C354.919 97.572 355.563 96.018 355.563 94.114C355.563 92.238 354.919 90.712 353.631 89.536C352.371 88.36 350.747 87.772 348.759 87.772C346.743 87.772 345.091 88.36 343.803 89.536C342.543 90.712 341.913 92.238 341.913 94.114C341.913 96.018 342.543 97.572 343.803 98.776C345.091 99.952 346.743 100.54 348.759 100.54ZM367.632 83.572H372.882V106H367.632V83.572ZM370.278 79.876C369.326 79.876 368.528 79.582 367.884 78.994C367.24 78.378 366.918 77.622 366.918 76.726C366.918 75.83 367.24 75.088 367.884 74.5C368.528 73.884 369.326 73.576 370.278 73.576C371.23 73.576 372.028 73.87 372.672 74.458C373.316 75.018 373.638 75.732 373.638 76.6C373.638 77.524 373.316 78.308 372.672 78.952C372.056 79.568 371.258 79.876 370.278 79.876ZM386.702 106.294C384.882 106.294 383.104 106.056 381.368 105.58C379.632 105.104 378.246 104.502 377.21 103.774L379.226 99.784C380.234 100.456 381.438 101.002 382.838 101.422C384.266 101.814 385.666 102.01 387.038 102.01C390.174 102.01 391.742 101.184 391.742 99.532C391.742 98.748 391.336 98.202 390.524 97.894C389.74 97.586 388.466 97.292 386.702 97.012C384.854 96.732 383.342 96.41 382.166 96.046C381.018 95.682 380.01 95.052 379.142 94.156C378.302 93.232 377.882 91.958 377.882 90.334C377.882 88.206 378.764 86.512 380.528 85.252C382.32 83.964 384.728 83.32 387.752 83.32C389.292 83.32 390.832 83.502 392.372 83.866C393.912 84.202 395.172 84.664 396.152 85.252L394.136 89.242C392.232 88.122 390.09 87.562 387.71 87.562C386.17 87.562 384.994 87.8 384.182 88.276C383.398 88.724 383.006 89.326 383.006 90.082C383.006 90.922 383.426 91.524 384.266 91.888C385.134 92.224 386.464 92.546 388.256 92.854C390.048 93.134 391.518 93.456 392.666 93.82C393.814 94.184 394.794 94.8 395.606 95.668C396.446 96.536 396.866 97.768 396.866 99.364C396.866 101.464 395.956 103.144 394.136 104.404C392.316 105.664 389.838 106.294 386.702 106.294ZM414.869 104.782C414.253 105.286 413.497 105.664 412.601 105.916C411.733 106.168 410.809 106.294 409.829 106.294C407.365 106.294 405.461 105.65 404.117 104.362C402.773 103.074 402.101 101.198 402.101 98.734V87.94H398.405V83.74H402.101V78.616H407.351V83.74H413.357V87.94H407.351V98.608C407.351 99.7 407.617 100.54 408.149 101.128C408.681 101.688 409.451 101.968 410.459 101.968C411.635 101.968 412.615 101.66 413.399 101.044L414.869 104.782ZM424.186 86.848C425.698 84.496 428.358 83.32 432.166 83.32V88.318C431.718 88.234 431.312 88.192 430.948 88.192C428.904 88.192 427.308 88.794 426.16 89.998C425.012 91.174 424.438 92.882 424.438 95.122V106H419.188V83.572H424.186V86.848ZM445.065 83.32C448.369 83.32 450.889 84.118 452.625 85.714C454.389 87.282 455.271 89.662 455.271 92.854V106H450.315V103.27C449.671 104.25 448.747 105.006 447.543 105.538C446.367 106.042 444.939 106.294 443.259 106.294C441.579 106.294 440.109 106.014 438.849 105.454C437.589 104.866 436.609 104.068 435.909 103.06C435.237 102.024 434.901 100.862 434.901 99.574C434.901 97.558 435.643 95.948 437.127 94.744C438.639 93.512 441.005 92.896 444.225 92.896H450.021V92.56C450.021 90.992 449.545 89.788 448.593 88.948C447.669 88.108 446.283 87.688 444.435 87.688C443.175 87.688 441.929 87.884 440.697 88.276C439.493 88.668 438.471 89.214 437.631 89.914L435.573 86.092C436.749 85.196 438.163 84.51 439.815 84.034C441.467 83.558 443.217 83.32 445.065 83.32ZM444.351 102.472C445.667 102.472 446.829 102.178 447.837 101.59C448.873 100.974 449.601 100.106 450.021 98.986V96.382H444.603C441.579 96.382 440.067 97.376 440.067 99.364C440.067 100.316 440.445 101.072 441.201 101.632C441.957 102.192 443.007 102.472 444.351 102.472ZM468.938 106.294C467.118 106.294 465.34 106.056 463.604 105.58C461.868 105.104 460.482 104.502 459.446 103.774L461.462 99.784C462.47 100.456 463.674 101.002 465.074 101.422C466.502 101.814 467.902 102.01 469.274 102.01C472.41 102.01 473.978 101.184 473.978 99.532C473.978 98.748 473.572 98.202 472.76 97.894C471.976 97.586 470.702 97.292 468.938 97.012C467.09 96.732 465.578 96.41 464.402 96.046C463.254 95.682 462.246 95.052 461.378 94.156C460.538 93.232 460.118 91.958 460.118 90.334C460.118 88.206 461 86.512 462.764 85.252C464.556 83.964 466.964 83.32 469.988 83.32C471.528 83.32 473.068 83.502 474.608 83.866C476.148 84.202 477.408 84.664 478.388 85.252L476.372 89.242C474.468 88.122 472.326 87.562 469.946 87.562C468.406 87.562 467.23 87.8 466.418 88.276C465.634 88.724 465.242 89.326 465.242 90.082C465.242 90.922 465.662 91.524 466.502 91.888C467.37 92.224 468.7 92.546 470.492 92.854C472.284 93.134 473.754 93.456 474.902 93.82C476.05 94.184 477.03 94.8 477.842 95.668C478.682 96.536 479.102 97.768 479.102 99.364C479.102 101.464 478.192 103.144 476.372 104.404C474.552 105.664 472.074 106.294 468.938 106.294ZM483.624 83.572H488.874V106H483.624V83.572ZM486.27 79.876C485.318 79.876 484.52 79.582 483.876 78.994C483.232 78.378 482.91 77.622 482.91 76.726C482.91 75.83 483.232 75.088 483.876 74.5C484.52 73.884 485.318 73.576 486.27 73.576C487.222 73.576 488.02 73.87 488.664 74.458C489.308 75.018 489.63 75.732 489.63 76.6C489.63 77.524 489.308 78.308 488.664 78.952C488.048 79.568 487.25 79.876 486.27 79.876Z" fill="#FFEFEF"/>
</svg>
