<svg width="1128" height="181" viewBox="0 0 1128 181" fill="none" xmlns="http://www.w3.org/2000/svg">
<path d="M1128 93.9017C1128 141.082 1088.1 178.444 1041.01 175.461C682.218 152.736 450.047 140.86 90.5496 172.406C42.114 176.657 0 138.759 0 90.1377C0 41.7768 41.6433 3.9272 89.8096 8.26093C469.366 42.4112 702.84 51.9559 1034.78 12.1172C1084.05 6.20436 1128 44.2816 1128 93.9017Z" fill="#65789D"/>
<path d="M75.364 88.738C78.08 89.074 80.152 89.998 81.58 91.51C83.008 93.022 83.722 94.912 83.722 97.18C83.722 98.888 83.288 100.442 82.42 101.842C81.552 103.242 80.236 104.362 78.472 105.202C76.736 106.014 74.608 106.42 72.088 106.42C69.988 106.42 67.958 106.126 65.998 105.538C64.066 104.922 62.414 104.082 61.042 103.018L63.394 98.776C64.458 99.672 65.746 100.386 67.258 100.918C68.798 101.422 70.38 101.674 72.004 101.674C73.936 101.674 75.448 101.282 76.54 100.498C77.66 99.686 78.22 98.594 78.22 97.222C78.22 95.85 77.688 94.786 76.624 94.03C75.588 93.246 73.992 92.854 71.836 92.854H69.148V89.116L75.826 81.178H62.47V76.6H82.504V80.254L75.364 88.738ZM90.5693 106.294C89.6173 106.294 88.8053 105.972 88.1333 105.328C87.4613 104.656 87.1253 103.816 87.1253 102.808C87.1253 101.772 87.4473 100.932 88.0913 100.288C88.7633 99.644 89.5893 99.322 90.5693 99.322C91.5493 99.322 92.3613 99.644 93.0053 100.288C93.6773 100.932 94.0133 101.772 94.0133 102.808C94.0133 103.816 93.6773 104.656 93.0053 105.328C92.3333 105.972 91.5213 106.294 90.5693 106.294ZM123.897 106.42C119.837 106.42 116.673 105.286 114.405 103.018C112.137 100.722 111.003 97.446 111.003 93.19V76.6H116.463V92.98C116.463 98.748 118.955 101.632 123.939 101.632C128.895 101.632 131.373 98.748 131.373 92.98V76.6H136.749V93.19C136.749 97.446 135.615 100.722 133.347 103.018C131.107 105.286 127.957 106.42 123.897 106.42ZM156.323 83.32C158.507 83.32 160.453 83.796 162.161 84.748C163.897 85.7 165.255 87.044 166.235 88.78C167.215 90.516 167.705 92.518 167.705 94.786C167.705 97.054 167.215 99.07 166.235 100.834C165.255 102.57 163.897 103.914 162.161 104.866C160.453 105.818 158.507 106.294 156.323 106.294C153.299 106.294 150.905 105.286 149.141 103.27V114.148H143.891V83.572H148.889V86.512C149.757 85.448 150.821 84.65 152.081 84.118C153.369 83.586 154.783 83.32 156.323 83.32ZM155.735 101.8C157.667 101.8 159.249 101.156 160.481 99.868C161.741 98.58 162.371 96.886 162.371 94.786C162.371 92.686 161.741 90.992 160.481 89.704C159.249 88.416 157.667 87.772 155.735 87.772C154.475 87.772 153.341 88.066 152.333 88.654C151.325 89.214 150.527 90.026 149.939 91.09C149.351 92.154 149.057 93.386 149.057 94.786C149.057 96.186 149.351 97.418 149.939 98.482C150.527 99.546 151.325 100.372 152.333 100.96C153.341 101.52 154.475 101.8 155.735 101.8ZM172.684 74.836H177.934V106H172.684V74.836ZM194.905 106.294C192.637 106.294 190.593 105.804 188.773 104.824C186.953 103.844 185.525 102.486 184.489 100.75C183.481 98.986 182.977 96.998 182.977 94.786C182.977 92.574 183.481 90.6 184.489 88.864C185.525 87.128 186.953 85.77 188.773 84.79C190.593 83.81 192.637 83.32 194.905 83.32C197.201 83.32 199.259 83.81 201.079 84.79C202.899 85.77 204.313 87.128 205.321 88.864C206.357 90.6 206.875 92.574 206.875 94.786C206.875 96.998 206.357 98.986 205.321 100.75C204.313 102.486 202.899 103.844 201.079 104.824C199.259 105.804 197.201 106.294 194.905 106.294ZM194.905 101.8C196.837 101.8 198.433 101.156 199.693 99.868C200.953 98.58 201.583 96.886 201.583 94.786C201.583 92.686 200.953 90.992 199.693 89.704C198.433 88.416 196.837 87.772 194.905 87.772C192.973 87.772 191.377 88.416 190.117 89.704C188.885 90.992 188.269 92.686 188.269 94.786C188.269 96.886 188.885 98.58 190.117 99.868C191.377 101.156 192.973 101.8 194.905 101.8ZM220.176 83.32C223.48 83.32 226 84.118 227.736 85.714C229.5 87.282 230.382 89.662 230.382 92.854V106H225.426V103.27C224.782 104.25 223.858 105.006 222.654 105.538C221.478 106.042 220.05 106.294 218.37 106.294C216.69 106.294 215.22 106.014 213.96 105.454C212.7 104.866 211.72 104.068 211.02 103.06C210.348 102.024 210.012 100.862 210.012 99.574C210.012 97.558 210.754 95.948 212.238 94.744C213.75 93.512 216.116 92.896 219.336 92.896H225.132V92.56C225.132 90.992 224.656 89.788 223.704 88.948C222.78 88.108 221.394 87.688 219.546 87.688C218.286 87.688 217.04 87.884 215.808 88.276C214.604 88.668 213.582 89.214 212.742 89.914L210.684 86.092C211.86 85.196 213.274 84.51 214.926 84.034C216.578 83.558 218.328 83.32 220.176 83.32ZM219.462 102.472C220.778 102.472 221.94 102.178 222.948 101.59C223.984 100.974 224.712 100.106 225.132 98.986V96.382H219.714C216.69 96.382 215.178 97.376 215.178 99.364C215.178 100.316 215.556 101.072 216.312 101.632C217.068 102.192 218.118 102.472 219.462 102.472ZM259.291 74.836V106H254.251V103.102C253.383 104.166 252.305 104.964 251.017 105.496C249.757 106.028 248.357 106.294 246.817 106.294C244.661 106.294 242.715 105.818 240.979 104.866C239.271 103.914 237.927 102.57 236.947 100.834C235.967 99.07 235.477 97.054 235.477 94.786C235.477 92.518 235.967 90.516 236.947 88.78C237.927 87.044 239.271 85.7 240.979 84.748C242.715 83.796 244.661 83.32 246.817 83.32C248.301 83.32 249.659 83.572 250.891 84.076C252.123 84.58 253.173 85.336 254.041 86.344V74.836H259.291ZM247.447 101.8C248.707 101.8 249.841 101.52 250.849 100.96C251.857 100.372 252.655 99.546 253.243 98.482C253.831 97.418 254.125 96.186 254.125 94.786C254.125 93.386 253.831 92.154 253.243 91.09C252.655 90.026 251.857 89.214 250.849 88.654C249.841 88.066 248.707 87.772 247.447 87.772C246.187 87.772 245.053 88.066 244.045 88.654C243.037 89.214 242.239 90.026 241.651 91.09C241.063 92.154 240.769 93.386 240.769 94.786C240.769 96.186 241.063 97.418 241.651 98.482C242.239 99.546 243.037 100.372 244.045 100.96C245.053 101.52 246.187 101.8 247.447 101.8ZM299.102 90.712C300.726 91.244 302.014 92.14 302.966 93.4C303.918 94.632 304.394 96.172 304.394 98.02C304.394 100.568 303.414 102.542 301.454 103.942C299.494 105.314 296.638 106 292.886 106H278.27V76.6H292.046C295.518 76.6 298.192 77.286 300.068 78.658C301.944 80.002 302.882 81.864 302.882 84.244C302.882 85.7 302.546 86.988 301.874 88.108C301.202 89.228 300.278 90.096 299.102 90.712ZM283.73 80.884V88.99H291.458C293.362 88.99 294.818 88.654 295.826 87.982C296.862 87.282 297.38 86.274 297.38 84.958C297.38 83.614 296.862 82.606 295.826 81.934C294.818 81.234 293.362 80.884 291.458 80.884H283.73ZM292.55 101.716C296.778 101.716 298.892 100.302 298.892 97.474C298.892 94.646 296.778 93.232 292.55 93.232H283.73V101.716H292.55ZM331.431 83.572V106H326.433V103.144C325.593 104.152 324.543 104.936 323.283 105.496C322.023 106.028 320.665 106.294 319.209 106.294C316.213 106.294 313.847 105.468 312.111 103.816C310.403 102.136 309.549 99.658 309.549 96.382V83.572H314.799V95.668C314.799 97.684 315.247 99.196 316.143 100.204C317.067 101.184 318.369 101.674 320.049 101.674C321.925 101.674 323.409 101.1 324.501 99.952C325.621 98.776 326.181 97.096 326.181 94.912V83.572H331.431ZM347.461 96.382L343.555 100.078V106H338.305V74.836H343.555V93.652L354.433 83.572H360.733L351.367 92.98L361.615 106H355.231L347.461 96.382ZM378.489 104.782C377.873 105.286 377.117 105.664 376.221 105.916C375.353 106.168 374.429 106.294 373.449 106.294C370.985 106.294 369.081 105.65 367.736 104.362C366.393 103.074 365.721 101.198 365.721 98.734V87.94H362.025V83.74H365.721V78.616H370.971V83.74H376.977V87.94H370.971V98.608C370.971 99.7 371.237 100.54 371.769 101.128C372.301 101.688 373.071 101.968 374.079 101.968C375.255 101.968 376.235 101.66 377.019 101.044L378.489 104.782ZM382.807 83.572H388.057V106H382.807V83.572ZM385.453 79.876C384.501 79.876 383.703 79.582 383.059 78.994C382.415 78.378 382.093 77.622 382.093 76.726C382.093 75.83 382.415 75.088 383.059 74.5C383.703 73.884 384.501 73.576 385.453 73.576C386.405 73.576 387.203 73.87 387.847 74.458C388.491 75.018 388.813 75.732 388.813 76.6C388.813 77.524 388.491 78.308 387.847 78.952C387.231 79.568 386.433 79.876 385.453 79.876ZM419.155 76.6C421.703 76.6 423.915 77.02 425.791 77.86C427.695 78.7 429.151 79.904 430.159 81.472C431.167 83.04 431.671 84.902 431.671 87.058C431.671 89.186 431.167 91.048 430.159 92.644C429.151 94.212 427.695 95.416 425.791 96.256C423.915 97.096 421.703 97.516 419.155 97.516H412.519V106H407.059V76.6H419.155ZM418.903 92.896C421.283 92.896 423.089 92.392 424.321 91.384C425.553 90.376 426.169 88.934 426.169 87.058C426.169 85.182 425.553 83.74 424.321 82.732C423.089 81.724 421.283 81.22 418.903 81.22H412.519V92.896H418.903ZM457.622 94.912C457.622 95.276 457.594 95.794 457.538 96.466H439.94C440.248 98.118 441.046 99.434 442.334 100.414C443.65 101.366 445.274 101.842 447.206 101.842C449.67 101.842 451.7 101.03 453.296 99.406L456.11 102.64C455.102 103.844 453.828 104.754 452.288 105.37C450.748 105.986 449.012 106.294 447.08 106.294C444.616 106.294 442.446 105.804 440.57 104.824C438.694 103.844 437.238 102.486 436.202 100.75C435.194 98.986 434.69 96.998 434.69 94.786C434.69 92.602 435.18 90.642 436.16 88.906C437.168 87.142 438.554 85.77 440.318 84.79C442.082 83.81 444.07 83.32 446.282 83.32C448.466 83.32 450.412 83.81 452.12 84.79C453.856 85.742 455.2 87.1 456.152 88.864C457.132 90.6 457.622 92.616 457.622 94.912ZM446.282 87.52C444.602 87.52 443.174 88.024 441.998 89.032C440.85 90.012 440.15 91.328 439.898 92.98H452.624C452.4 91.356 451.714 90.04 450.566 89.032C449.418 88.024 447.99 87.52 446.282 87.52ZM490.973 83.32C493.801 83.32 496.041 84.146 497.693 85.798C499.345 87.422 500.171 89.872 500.171 93.148V106H494.921V93.82C494.921 91.86 494.487 90.39 493.619 89.41C492.751 88.402 491.505 87.898 489.881 87.898C488.117 87.898 486.703 88.486 485.639 89.662C484.575 90.81 484.043 92.462 484.043 94.618V106H478.793V93.82C478.793 91.86 478.359 90.39 477.491 89.41C476.623 88.402 475.377 87.898 473.753 87.898C471.961 87.898 470.533 88.472 469.469 89.62C468.433 90.768 467.915 92.434 467.915 94.618V106H462.665V83.572H467.663V86.428C468.503 85.42 469.553 84.65 470.813 84.118C472.073 83.586 473.473 83.32 475.013 83.32C476.693 83.32 478.177 83.642 479.465 84.286C480.781 84.902 481.817 85.826 482.573 87.058C483.497 85.882 484.687 84.972 486.143 84.328C487.599 83.656 489.209 83.32 490.973 83.32ZM519.312 83.32C521.496 83.32 523.442 83.796 525.15 84.748C526.886 85.7 528.244 87.044 529.224 88.78C530.204 90.516 530.694 92.518 530.694 94.786C530.694 97.054 530.204 99.07 529.224 100.834C528.244 102.57 526.886 103.914 525.15 104.866C523.442 105.818 521.496 106.294 519.312 106.294C517.772 106.294 516.358 106.028 515.07 105.496C513.81 104.964 512.746 104.166 511.878 103.102V106H506.88V74.836H512.13V86.302C513.026 85.322 514.076 84.58 515.28 84.076C516.512 83.572 517.856 83.32 519.312 83.32ZM518.724 101.8C520.656 101.8 522.238 101.156 523.47 99.868C524.73 98.58 525.36 96.886 525.36 94.786C525.36 92.686 524.73 90.992 523.47 89.704C522.238 88.416 520.656 87.772 518.724 87.772C517.464 87.772 516.33 88.066 515.322 88.654C514.314 89.214 513.516 90.026 512.928 91.09C512.34 92.154 512.046 93.386 512.046 94.786C512.046 96.186 512.34 97.418 512.928 98.482C513.516 99.546 514.314 100.372 515.322 100.96C516.33 101.52 517.464 101.8 518.724 101.8ZM543.953 83.32C547.257 83.32 549.777 84.118 551.513 85.714C553.277 87.282 554.159 89.662 554.159 92.854V106H549.203V103.27C548.559 104.25 547.635 105.006 546.431 105.538C545.255 106.042 543.827 106.294 542.147 106.294C540.467 106.294 538.997 106.014 537.737 105.454C536.477 104.866 535.497 104.068 534.797 103.06C534.125 102.024 533.789 100.862 533.789 99.574C533.789 97.558 534.531 95.948 536.015 94.744C537.527 93.512 539.893 92.896 543.113 92.896H548.909V92.56C548.909 90.992 548.433 89.788 547.481 88.948C546.557 88.108 545.171 87.688 543.323 87.688C542.063 87.688 540.817 87.884 539.585 88.276C538.381 88.668 537.359 89.214 536.519 89.914L534.461 86.092C535.637 85.196 537.051 84.51 538.703 84.034C540.355 83.558 542.105 83.32 543.953 83.32ZM543.239 102.472C544.555 102.472 545.717 102.178 546.725 101.59C547.761 100.974 548.489 100.106 548.909 98.986V96.382H543.491C540.467 96.382 538.955 97.376 538.955 99.364C538.955 100.316 539.333 101.072 540.089 101.632C540.845 102.192 541.895 102.472 543.239 102.472ZM581.487 83.572L570.987 107.806C570.007 110.242 568.817 111.95 567.417 112.93C566.017 113.938 564.323 114.442 562.335 114.442C561.215 114.442 560.109 114.26 559.017 113.896C557.925 113.532 557.029 113.028 556.329 112.384L558.429 108.52C558.933 108.996 559.521 109.374 560.193 109.654C560.893 109.934 561.593 110.074 562.293 110.074C563.217 110.074 563.973 109.836 564.561 109.36C565.177 108.884 565.737 108.086 566.241 106.966L566.619 106.084L556.833 83.572H562.293L569.349 100.162L576.447 83.572H581.487ZM592.639 83.32C595.943 83.32 598.463 84.118 600.199 85.714C601.963 87.282 602.845 89.662 602.845 92.854V106H597.889V103.27C597.245 104.25 596.321 105.006 595.117 105.538C593.941 106.042 592.513 106.294 590.833 106.294C589.153 106.294 587.683 106.014 586.423 105.454C585.163 104.866 584.183 104.068 583.483 103.06C582.811 102.024 582.475 100.862 582.475 99.574C582.475 97.558 583.217 95.948 584.701 94.744C586.213 93.512 588.579 92.896 591.799 92.896H597.595V92.56C597.595 90.992 597.119 89.788 596.167 88.948C595.243 88.108 593.857 87.688 592.009 87.688C590.749 87.688 589.503 87.884 588.271 88.276C587.067 88.668 586.045 89.214 585.205 89.914L583.147 86.092C584.323 85.196 585.737 84.51 587.389 84.034C589.041 83.558 590.791 83.32 592.639 83.32ZM591.925 102.472C593.241 102.472 594.403 102.178 595.411 101.59C596.447 100.974 597.175 100.106 597.595 98.986V96.382H592.177C589.153 96.382 587.641 97.376 587.641 99.364C587.641 100.316 588.019 101.072 588.775 101.632C589.531 102.192 590.581 102.472 591.925 102.472ZM614.581 86.848C616.093 84.496 618.753 83.32 622.561 83.32V88.318C622.113 88.234 621.707 88.192 621.343 88.192C619.299 88.192 617.703 88.794 616.555 89.998C615.407 91.174 614.833 92.882 614.833 95.122V106H609.583V83.572H614.581V86.848ZM635.459 83.32C638.763 83.32 641.283 84.118 643.019 85.714C644.783 87.282 645.665 89.662 645.665 92.854V106H640.709V103.27C640.065 104.25 639.141 105.006 637.937 105.538C636.761 106.042 635.333 106.294 633.653 106.294C631.973 106.294 630.503 106.014 629.243 105.454C627.983 104.866 627.003 104.068 626.303 103.06C625.631 102.024 625.295 100.862 625.295 99.574C625.295 97.558 626.037 95.948 627.521 94.744C629.033 93.512 631.399 92.896 634.619 92.896H640.415V92.56C640.415 90.992 639.939 89.788 638.987 88.948C638.063 88.108 636.677 87.688 634.829 87.688C633.569 87.688 632.323 87.884 631.091 88.276C629.887 88.668 628.865 89.214 628.025 89.914L625.967 86.092C627.143 85.196 628.557 84.51 630.209 84.034C631.861 83.558 633.611 83.32 635.459 83.32ZM634.745 102.472C636.061 102.472 637.223 102.178 638.231 101.59C639.267 100.974 639.995 100.106 640.415 98.986V96.382H634.997C631.973 96.382 630.461 97.376 630.461 99.364C630.461 100.316 630.839 101.072 631.595 101.632C632.351 102.192 633.401 102.472 634.745 102.472ZM665.129 83.32C667.957 83.32 670.225 84.146 671.933 85.798C673.641 87.45 674.495 89.9 674.495 93.148V106H669.245V93.82C669.245 91.86 668.783 90.39 667.859 89.41C666.935 88.402 665.619 87.898 663.911 87.898C661.979 87.898 660.453 88.486 659.333 89.662C658.213 90.81 657.653 92.476 657.653 94.66V106H652.403V83.572H657.401V86.47C658.269 85.434 659.361 84.65 660.677 84.118C661.993 83.586 663.477 83.32 665.129 83.32Z" fill="#FFEFEF"/>
</svg>
