<svg width="1128" height="181" viewBox="0 0 1128 181" fill="none" xmlns="http://www.w3.org/2000/svg">
<path d="M1128 93.9017C1128 141.082 1088.1 178.444 1041.01 175.461C682.218 152.736 450.047 140.86 90.5496 172.406C42.114 176.657 0 138.759 0 90.1377V90.1377C0 41.7768 41.6433 3.9272 89.8096 8.26092C469.366 42.4112 702.84 51.9559 1034.78 12.1172C1084.05 6.20436 1128 44.2816 1128 93.9017V93.9017Z" fill="#65789D"/>
<path d="M84.142 101.38V106H62.47V102.346L74.146 91.258C75.462 89.998 76.344 88.906 76.792 87.982C77.268 87.03 77.506 86.092 77.506 85.168C77.506 83.796 77.044 82.746 76.12 82.018C75.196 81.29 73.838 80.926 72.046 80.926C69.05 80.926 66.754 81.948 65.158 83.992L61.336 81.052C62.484 79.512 64.024 78.322 65.956 77.482C67.916 76.614 70.1 76.18 72.508 76.18C75.7 76.18 78.248 76.936 80.152 78.448C82.056 79.96 83.008 82.018 83.008 84.622C83.008 86.218 82.672 87.716 82 89.116C81.328 90.516 80.04 92.112 78.136 93.904L70.282 101.38H84.142ZM90.9795 106.294C90.0275 106.294 89.2155 105.972 88.5435 105.328C87.8715 104.656 87.5355 103.816 87.5355 102.808C87.5355 101.772 87.8575 100.932 88.5015 100.288C89.1735 99.644 89.9995 99.322 90.9795 99.322C91.9595 99.322 92.7715 99.644 93.4155 100.288C94.0875 100.932 94.4235 101.772 94.4235 102.808C94.4235 103.816 94.0875 104.656 93.4155 105.328C92.7435 105.972 91.9315 106.294 90.9795 106.294ZM123.761 76.6C126.309 76.6 128.521 77.02 130.397 77.86C132.301 78.7 133.757 79.904 134.765 81.472C135.773 83.04 136.277 84.902 136.277 87.058C136.277 89.186 135.773 91.048 134.765 92.644C133.757 94.212 132.301 95.416 130.397 96.256C128.521 97.096 126.309 97.516 123.761 97.516H117.125V106H111.665V76.6H123.761ZM123.509 92.896C125.889 92.896 127.695 92.392 128.927 91.384C130.159 90.376 130.775 88.934 130.775 87.058C130.775 85.182 130.159 83.74 128.927 82.732C127.695 81.724 125.889 81.22 123.509 81.22H117.125V92.896H123.509ZM162.227 94.912C162.227 95.276 162.199 95.794 162.143 96.466H144.545C144.853 98.118 145.651 99.434 146.939 100.414C148.255 101.366 149.879 101.842 151.811 101.842C154.275 101.842 156.305 101.03 157.901 99.406L160.715 102.64C159.707 103.844 158.433 104.754 156.893 105.37C155.353 105.986 153.617 106.294 151.685 106.294C149.221 106.294 147.051 105.804 145.175 104.824C143.299 103.844 141.843 102.486 140.807 100.75C139.799 98.986 139.295 96.998 139.295 94.786C139.295 92.602 139.785 90.642 140.765 88.906C141.773 87.142 143.159 85.77 144.923 84.79C146.687 83.81 148.675 83.32 150.887 83.32C153.071 83.32 155.017 83.81 156.725 84.79C158.461 85.742 159.805 87.1 160.757 88.864C161.737 90.6 162.227 92.616 162.227 94.912ZM150.887 87.52C149.207 87.52 147.779 88.024 146.603 89.032C145.455 90.012 144.755 91.328 144.503 92.98H157.229C157.005 91.356 156.319 90.04 155.171 89.032C154.023 88.024 152.595 87.52 150.887 87.52ZM195.578 83.32C198.406 83.32 200.646 84.146 202.298 85.798C203.95 87.422 204.776 89.872 204.776 93.148V106H199.526V93.82C199.526 91.86 199.092 90.39 198.224 89.41C197.356 88.402 196.11 87.898 194.486 87.898C192.722 87.898 191.308 88.486 190.244 89.662C189.18 90.81 188.648 92.462 188.648 94.618V106H183.398V93.82C183.398 91.86 182.964 90.39 182.096 89.41C181.228 88.402 179.982 87.898 178.358 87.898C176.566 87.898 175.138 88.472 174.074 89.62C173.038 90.768 172.52 92.434 172.52 94.618V106H167.27V83.572H172.268V86.428C173.108 85.42 174.158 84.65 175.418 84.118C176.678 83.586 178.078 83.32 179.618 83.32C181.298 83.32 182.782 83.642 184.07 84.286C185.386 84.902 186.422 85.826 187.178 87.058C188.102 85.882 189.292 84.972 190.748 84.328C192.204 83.656 193.814 83.32 195.578 83.32ZM223.917 83.32C226.101 83.32 228.047 83.796 229.755 84.748C231.491 85.7 232.849 87.044 233.829 88.78C234.809 90.516 235.299 92.518 235.299 94.786C235.299 97.054 234.809 99.07 233.829 100.834C232.849 102.57 231.491 103.914 229.755 104.866C228.047 105.818 226.101 106.294 223.917 106.294C222.377 106.294 220.963 106.028 219.675 105.496C218.415 104.964 217.351 104.166 216.483 103.102V106H211.485V74.836H216.735V86.302C217.631 85.322 218.681 84.58 219.885 84.076C221.117 83.572 222.461 83.32 223.917 83.32ZM223.329 101.8C225.261 101.8 226.843 101.156 228.075 99.868C229.335 98.58 229.965 96.886 229.965 94.786C229.965 92.686 229.335 90.992 228.075 89.704C226.843 88.416 225.261 87.772 223.329 87.772C222.069 87.772 220.935 88.066 219.927 88.654C218.919 89.214 218.121 90.026 217.533 91.09C216.945 92.154 216.651 93.386 216.651 94.786C216.651 96.186 216.945 97.418 217.533 98.482C218.121 99.546 218.919 100.372 219.927 100.96C220.935 101.52 222.069 101.8 223.329 101.8ZM248.559 83.32C251.863 83.32 254.383 84.118 256.119 85.714C257.883 87.282 258.765 89.662 258.765 92.854V106H253.809V103.27C253.165 104.25 252.241 105.006 251.037 105.538C249.861 106.042 248.433 106.294 246.753 106.294C245.073 106.294 243.603 106.014 242.343 105.454C241.083 104.866 240.103 104.068 239.403 103.06C238.731 102.024 238.395 100.862 238.395 99.574C238.395 97.558 239.137 95.948 240.621 94.744C242.133 93.512 244.499 92.896 247.719 92.896H253.515V92.56C253.515 90.992 253.039 89.788 252.087 88.948C251.163 88.108 249.777 87.688 247.929 87.688C246.669 87.688 245.423 87.884 244.191 88.276C242.987 88.668 241.965 89.214 241.125 89.914L239.067 86.092C240.243 85.196 241.657 84.51 243.309 84.034C244.961 83.558 246.711 83.32 248.559 83.32ZM247.845 102.472C249.161 102.472 250.323 102.178 251.331 101.59C252.367 100.974 253.095 100.106 253.515 98.986V96.382H248.097C245.073 96.382 243.561 97.376 243.561 99.364C243.561 100.316 243.939 101.072 244.695 101.632C245.451 102.192 246.501 102.472 247.845 102.472ZM286.092 83.572L275.592 107.806C274.612 110.242 273.422 111.95 272.022 112.93C270.622 113.938 268.928 114.442 266.94 114.442C265.82 114.442 264.714 114.26 263.622 113.896C262.53 113.532 261.634 113.028 260.934 112.384L263.034 108.52C263.538 108.996 264.126 109.374 264.798 109.654C265.498 109.934 266.198 110.074 266.898 110.074C267.822 110.074 268.578 109.836 269.166 109.36C269.782 108.884 270.342 108.086 270.846 106.966L271.224 106.084L261.438 83.572H266.898L273.954 100.162L281.052 83.572H286.092ZM297.244 83.32C300.548 83.32 303.068 84.118 304.804 85.714C306.568 87.282 307.45 89.662 307.45 92.854V106H302.494V103.27C301.85 104.25 300.926 105.006 299.722 105.538C298.546 106.042 297.118 106.294 295.438 106.294C293.758 106.294 292.288 106.014 291.028 105.454C289.768 104.866 288.788 104.068 288.088 103.06C287.416 102.024 287.08 100.862 287.08 99.574C287.08 97.558 287.822 95.948 289.306 94.744C290.818 93.512 293.184 92.896 296.404 92.896H302.2V92.56C302.2 90.992 301.724 89.788 300.772 88.948C299.848 88.108 298.462 87.688 296.614 87.688C295.354 87.688 294.108 87.884 292.876 88.276C291.672 88.668 290.65 89.214 289.81 89.914L287.752 86.092C288.928 85.196 290.342 84.51 291.994 84.034C293.646 83.558 295.396 83.32 297.244 83.32ZM296.53 102.472C297.846 102.472 299.008 102.178 300.016 101.59C301.052 100.974 301.78 100.106 302.2 98.986V96.382H296.782C293.758 96.382 292.246 97.376 292.246 99.364C292.246 100.316 292.624 101.072 293.38 101.632C294.136 102.192 295.186 102.472 296.53 102.472ZM319.186 86.848C320.698 84.496 323.358 83.32 327.166 83.32V88.318C326.718 88.234 326.312 88.192 325.948 88.192C323.904 88.192 322.308 88.794 321.16 89.998C320.012 91.174 319.438 92.882 319.438 95.122V106H314.188V83.572H319.186V86.848ZM340.065 83.32C343.369 83.32 345.889 84.118 347.625 85.714C349.389 87.282 350.271 89.662 350.271 92.854V106H345.315V103.27C344.671 104.25 343.747 105.006 342.543 105.538C341.367 106.042 339.939 106.294 338.259 106.294C336.579 106.294 335.109 106.014 333.849 105.454C332.589 104.866 331.609 104.068 330.909 103.06C330.237 102.024 329.901 100.862 329.901 99.574C329.901 97.558 330.643 95.948 332.127 94.744C333.639 93.512 336.005 92.896 339.225 92.896H345.021V92.56C345.021 90.992 344.545 89.788 343.593 88.948C342.669 88.108 341.283 87.688 339.435 87.688C338.175 87.688 336.929 87.884 335.697 88.276C334.493 88.668 333.471 89.214 332.631 89.914L330.573 86.092C331.749 85.196 333.163 84.51 334.815 84.034C336.467 83.558 338.217 83.32 340.065 83.32ZM339.351 102.472C340.667 102.472 341.829 102.178 342.837 101.59C343.873 100.974 344.601 100.106 345.021 98.986V96.382H339.603C336.579 96.382 335.067 97.376 335.067 99.364C335.067 100.316 335.445 101.072 336.201 101.632C336.957 102.192 338.007 102.472 339.351 102.472ZM369.734 83.32C372.562 83.32 374.83 84.146 376.538 85.798C378.246 87.45 379.1 89.9 379.1 93.148V106H373.85V93.82C373.85 91.86 373.388 90.39 372.464 89.41C371.54 88.402 370.224 87.898 368.516 87.898C366.584 87.898 365.058 88.486 363.938 89.662C362.818 90.81 362.258 92.476 362.258 94.66V106H357.008V83.572H362.006V86.47C362.874 85.434 363.966 84.65 365.282 84.118C366.598 83.586 368.082 83.32 369.734 83.32ZM418.704 90.712C420.328 91.244 421.616 92.14 422.568 93.4C423.52 94.632 423.996 96.172 423.996 98.02C423.996 100.568 423.016 102.542 421.056 103.942C419.096 105.314 416.24 106 412.488 106H397.872V76.6H411.648C415.12 76.6 417.794 77.286 419.67 78.658C421.546 80.002 422.484 81.864 422.484 84.244C422.484 85.7 422.148 86.988 421.476 88.108C420.804 89.228 419.88 90.096 418.704 90.712ZM403.332 80.884V88.99H411.06C412.964 88.99 414.42 88.654 415.428 87.982C416.464 87.282 416.982 86.274 416.982 84.958C416.982 83.614 416.464 82.606 415.428 81.934C414.42 81.234 412.964 80.884 411.06 80.884H403.332ZM412.152 101.716C416.38 101.716 418.494 100.302 418.494 97.474C418.494 94.646 416.38 93.232 412.152 93.232H403.332V101.716H412.152ZM429.319 83.572H434.569V106H429.319V83.572ZM431.965 79.876C431.013 79.876 430.215 79.582 429.571 78.994C428.927 78.378 428.605 77.622 428.605 76.726C428.605 75.83 428.927 75.088 429.571 74.5C430.215 73.884 431.013 73.576 431.965 73.576C432.917 73.576 433.715 73.87 434.359 74.458C435.003 75.018 435.325 75.732 435.325 76.6C435.325 77.524 435.003 78.308 434.359 78.952C433.743 79.568 432.945 79.876 431.965 79.876ZM450.028 83.32C453.332 83.32 455.852 84.118 457.588 85.714C459.352 87.282 460.234 89.662 460.234 92.854V106H455.278V103.27C454.634 104.25 453.71 105.006 452.506 105.538C451.33 106.042 449.902 106.294 448.222 106.294C446.542 106.294 445.072 106.014 443.812 105.454C442.552 104.866 441.572 104.068 440.872 103.06C440.2 102.024 439.864 100.862 439.864 99.574C439.864 97.558 440.606 95.948 442.09 94.744C443.602 93.512 445.968 92.896 449.188 92.896H454.984V92.56C454.984 90.992 454.508 89.788 453.556 88.948C452.632 88.108 451.246 87.688 449.398 87.688C448.138 87.688 446.892 87.884 445.66 88.276C444.456 88.668 443.434 89.214 442.594 89.914L440.536 86.092C441.712 85.196 443.126 84.51 444.778 84.034C446.43 83.558 448.18 83.32 450.028 83.32ZM449.314 102.472C450.63 102.472 451.792 102.178 452.8 101.59C453.836 100.974 454.564 100.106 454.984 98.986V96.382H449.566C446.542 96.382 445.03 97.376 445.03 99.364C445.03 100.316 445.408 101.072 446.164 101.632C446.92 102.192 447.97 102.472 449.314 102.472ZM487.561 83.572L477.061 107.806C476.081 110.242 474.891 111.95 473.491 112.93C472.091 113.938 470.397 114.442 468.409 114.442C467.289 114.442 466.183 114.26 465.091 113.896C463.999 113.532 463.103 113.028 462.403 112.384L464.503 108.52C465.007 108.996 465.595 109.374 466.267 109.654C466.967 109.934 467.667 110.074 468.367 110.074C469.291 110.074 470.047 109.836 470.635 109.36C471.251 108.884 471.811 108.086 472.315 106.966L472.693 106.084L462.907 83.572H468.367L475.423 100.162L482.521 83.572H487.561ZM498.713 83.32C502.017 83.32 504.537 84.118 506.273 85.714C508.037 87.282 508.919 89.662 508.919 92.854V106H503.963V103.27C503.319 104.25 502.395 105.006 501.191 105.538C500.015 106.042 498.587 106.294 496.907 106.294C495.227 106.294 493.757 106.014 492.497 105.454C491.237 104.866 490.257 104.068 489.557 103.06C488.885 102.024 488.549 100.862 488.549 99.574C488.549 97.558 489.291 95.948 490.775 94.744C492.287 93.512 494.653 92.896 497.873 92.896H503.669V92.56C503.669 90.992 503.193 89.788 502.241 88.948C501.317 88.108 499.931 87.688 498.083 87.688C496.823 87.688 495.577 87.884 494.345 88.276C493.141 88.668 492.119 89.214 491.279 89.914L489.221 86.092C490.397 85.196 491.811 84.51 493.463 84.034C495.115 83.558 496.865 83.32 498.713 83.32ZM497.999 102.472C499.315 102.472 500.477 102.178 501.485 101.59C502.521 100.974 503.249 100.106 503.669 98.986V96.382H498.251C495.227 96.382 493.715 97.376 493.715 99.364C493.715 100.316 494.093 101.072 494.849 101.632C495.605 102.192 496.655 102.472 497.999 102.472ZM539.864 76.6C542.412 76.6 544.624 77.02 546.5 77.86C548.404 78.7 549.86 79.904 550.868 81.472C551.876 83.04 552.38 84.902 552.38 87.058C552.38 89.186 551.876 91.048 550.868 92.644C549.86 94.212 548.404 95.416 546.5 96.256C544.624 97.096 542.412 97.516 539.864 97.516H533.228V106H527.768V76.6H539.864ZM539.612 92.896C541.992 92.896 543.798 92.392 545.03 91.384C546.262 90.376 546.878 88.934 546.878 87.058C546.878 85.182 546.262 83.74 545.03 82.732C543.798 81.724 541.992 81.22 539.612 81.22H533.228V92.896H539.612ZM578.331 94.912C578.331 95.276 578.303 95.794 578.247 96.466H560.649C560.957 98.118 561.755 99.434 563.043 100.414C564.359 101.366 565.983 101.842 567.915 101.842C570.379 101.842 572.409 101.03 574.005 99.406L576.819 102.64C575.811 103.844 574.537 104.754 572.997 105.37C571.457 105.986 569.721 106.294 567.789 106.294C565.325 106.294 563.155 105.804 561.279 104.824C559.403 103.844 557.947 102.486 556.911 100.75C555.903 98.986 555.399 96.998 555.399 94.786C555.399 92.602 555.889 90.642 556.869 88.906C557.877 87.142 559.263 85.77 561.027 84.79C562.791 83.81 564.779 83.32 566.991 83.32C569.175 83.32 571.121 83.81 572.829 84.79C574.565 85.742 575.909 87.1 576.861 88.864C577.841 90.6 578.331 92.616 578.331 94.912ZM566.991 87.52C565.311 87.52 563.883 88.024 562.707 89.032C561.559 90.012 560.859 91.328 560.607 92.98H573.333C573.109 91.356 572.423 90.04 571.275 89.032C570.127 88.024 568.699 87.52 566.991 87.52ZM596.1 83.32C598.928 83.32 601.196 84.146 602.904 85.798C604.612 87.45 605.466 89.9 605.466 93.148V106H600.216V93.82C600.216 91.86 599.754 90.39 598.83 89.41C597.906 88.402 596.59 87.898 594.882 87.898C592.95 87.898 591.424 88.486 590.304 89.662C589.184 90.81 588.624 92.476 588.624 94.66V106H583.374V83.572H588.372V86.47C589.24 85.434 590.332 84.65 591.648 84.118C592.964 83.586 594.448 83.32 596.1 83.32ZM634.297 74.836V106H629.257V103.102C628.389 104.166 627.311 104.964 626.023 105.496C624.763 106.028 623.363 106.294 621.823 106.294C619.667 106.294 617.721 105.818 615.985 104.866C614.277 103.914 612.933 102.57 611.953 100.834C610.973 99.07 610.483 97.054 610.483 94.786C610.483 92.518 610.973 90.516 611.953 88.78C612.933 87.044 614.277 85.7 615.985 84.748C617.721 83.796 619.667 83.32 621.823 83.32C623.307 83.32 624.665 83.572 625.897 84.076C627.129 84.58 628.179 85.336 629.047 86.344V74.836H634.297ZM622.453 101.8C623.713 101.8 624.847 101.52 625.855 100.96C626.863 100.372 627.661 99.546 628.249 98.482C628.837 97.418 629.131 96.186 629.131 94.786C629.131 93.386 628.837 92.154 628.249 91.09C627.661 90.026 626.863 89.214 625.855 88.654C624.847 88.066 623.713 87.772 622.453 87.772C621.193 87.772 620.059 88.066 619.051 88.654C618.043 89.214 617.245 90.026 616.657 91.09C616.069 92.154 615.775 93.386 615.775 94.786C615.775 96.186 616.069 97.418 616.657 98.482C617.245 99.546 618.043 100.372 619.051 100.96C620.059 101.52 621.193 101.8 622.453 101.8ZM649.733 83.32C653.037 83.32 655.557 84.118 657.293 85.714C659.057 87.282 659.939 89.662 659.939 92.854V106H654.983V103.27C654.339 104.25 653.415 105.006 652.211 105.538C651.035 106.042 649.607 106.294 647.927 106.294C646.247 106.294 644.777 106.014 643.517 105.454C642.257 104.866 641.277 104.068 640.577 103.06C639.905 102.024 639.569 100.862 639.569 99.574C639.569 97.558 640.311 95.948 641.795 94.744C643.307 93.512 645.673 92.896 648.893 92.896H654.689V92.56C654.689 90.992 654.213 89.788 653.261 88.948C652.337 88.108 650.951 87.688 649.103 87.688C647.843 87.688 646.597 87.884 645.365 88.276C644.161 88.668 643.139 89.214 642.299 89.914L640.241 86.092C641.417 85.196 642.831 84.51 644.483 84.034C646.135 83.558 647.885 83.32 649.733 83.32ZM649.019 102.472C650.335 102.472 651.497 102.178 652.505 101.59C653.541 100.974 654.269 100.106 654.689 98.986V96.382H649.271C646.247 96.382 644.735 97.376 644.735 99.364C644.735 100.316 645.113 101.072 645.869 101.632C646.625 102.192 647.675 102.472 649.019 102.472ZM675.79 78.784C673.578 78.784 672.472 79.988 672.472 82.396V83.74H678.646V87.94H672.64V106H667.39V87.94H663.694V83.74H667.39V82.312C667.39 79.904 668.09 78.014 669.49 76.642C670.89 75.242 672.864 74.542 675.412 74.542C677.428 74.542 679.01 74.948 680.158 75.76L678.688 79.708C677.792 79.092 676.826 78.784 675.79 78.784ZM695.662 104.782C695.046 105.286 694.29 105.664 693.394 105.916C692.526 106.168 691.602 106.294 690.622 106.294C688.158 106.294 686.254 105.65 684.91 104.362C683.566 103.074 682.894 101.198 682.894 98.734V87.94H679.198V83.74H682.894V78.616H688.144V83.74H694.15V87.94H688.144V98.608C688.144 99.7 688.41 100.54 688.942 101.128C689.474 101.688 690.244 101.968 691.252 101.968C692.428 101.968 693.408 101.66 694.192 101.044L695.662 104.782ZM708.549 83.32C711.853 83.32 714.373 84.118 716.109 85.714C717.873 87.282 718.755 89.662 718.755 92.854V106H713.799V103.27C713.155 104.25 712.231 105.006 711.027 105.538C709.851 106.042 708.423 106.294 706.743 106.294C705.063 106.294 703.593 106.014 702.333 105.454C701.073 104.866 700.093 104.068 699.393 103.06C698.721 102.024 698.385 100.862 698.385 99.574C698.385 97.558 699.127 95.948 700.611 94.744C702.123 93.512 704.489 92.896 707.709 92.896H713.505V92.56C713.505 90.992 713.029 89.788 712.077 88.948C711.153 88.108 709.767 87.688 707.919 87.688C706.659 87.688 705.413 87.884 704.181 88.276C702.977 88.668 701.955 89.214 701.115 89.914L699.057 86.092C700.233 85.196 701.647 84.51 703.299 84.034C704.951 83.558 706.701 83.32 708.549 83.32ZM707.835 102.472C709.151 102.472 710.313 102.178 711.321 101.59C712.357 100.974 713.085 100.106 713.505 98.986V96.382H708.087C705.063 96.382 703.551 97.376 703.551 99.364C703.551 100.316 703.929 101.072 704.685 101.632C705.441 102.192 706.491 102.472 707.835 102.472ZM730.491 86.848C732.003 84.496 734.663 83.32 738.471 83.32V88.318C738.023 88.234 737.617 88.192 737.253 88.192C735.209 88.192 733.613 88.794 732.465 89.998C731.317 91.174 730.743 92.882 730.743 95.122V106H725.493V83.572H730.491V86.848ZM751.369 83.32C754.673 83.32 757.193 84.118 758.929 85.714C760.693 87.282 761.575 89.662 761.575 92.854V106H756.619V103.27C755.975 104.25 755.051 105.006 753.847 105.538C752.671 106.042 751.243 106.294 749.563 106.294C747.883 106.294 746.413 106.014 745.153 105.454C743.893 104.866 742.913 104.068 742.213 103.06C741.541 102.024 741.205 100.862 741.205 99.574C741.205 97.558 741.947 95.948 743.431 94.744C744.943 93.512 747.309 92.896 750.529 92.896H756.325V92.56C756.325 90.992 755.849 89.788 754.897 88.948C753.973 88.108 752.587 87.688 750.739 87.688C749.479 87.688 748.233 87.884 747.001 88.276C745.797 88.668 744.775 89.214 743.935 89.914L741.877 86.092C743.053 85.196 744.467 84.51 746.119 84.034C747.771 83.558 749.521 83.32 751.369 83.32ZM750.655 102.472C751.971 102.472 753.133 102.178 754.141 101.59C755.177 100.974 755.905 100.106 756.325 98.986V96.382H750.907C747.883 96.382 746.371 97.376 746.371 99.364C746.371 100.316 746.749 101.072 747.505 101.632C748.261 102.192 749.311 102.472 750.655 102.472ZM781.039 83.32C783.867 83.32 786.135 84.146 787.843 85.798C789.551 87.45 790.405 89.9 790.405 93.148V106H785.155V93.82C785.155 91.86 784.693 90.39 783.769 89.41C782.845 88.402 781.529 87.898 779.821 87.898C777.889 87.898 776.363 88.486 775.243 89.662C774.123 90.81 773.563 92.476 773.563 94.66V106H768.313V83.572H773.311V86.47C774.179 85.434 775.271 84.65 776.587 84.118C777.903 83.586 779.387 83.32 781.039 83.32Z" fill="#FFEFEF"/>
</svg>
