<svg width="771" height="202" viewBox="0 0 771 202" fill="none" xmlns="http://www.w3.org/2000/svg">
<path d="M94.8267 202C49.0828 202 12 164.917 12 119.173C12 81.083 38.0243 47.7263 75.1975 39.4179C312.963 -13.7236 469.831 -12.6274 707.547 39.6478C744.818 47.844 771 81.2078 771 119.37C771 165.005 734.005 202 688.37 202L94.8267 202Z" fill="#412E77"/>
<g filter="url(#filter0_i)">
<g filter="url(#filter1_i)">
<g filter="url(#filter2_i)">
<circle cx="392.132" cy="64" r="56" transform="rotate(-90 392.132 64)" fill="#E0473F"/>
</g>
</g>
</g>
<g filter="url(#filter3_d)">
<path d="M59.292 152.552H51.228V147.8H73.188V152.552H65.124V173H59.292V152.552ZM92.9331 163.388C92.9331 163.46 92.8971 163.964 92.8251 164.9H78.1731C78.4371 166.1 79.0611 167.048 80.0451 167.744C81.0291 168.44 82.2531 168.788 83.7171 168.788C84.7251 168.788 85.6131 168.644 86.3811 168.356C87.1731 168.044 87.9051 167.564 88.5771 166.916L91.5651 170.156C89.7411 172.244 87.0771 173.288 83.5731 173.288C81.3891 173.288 79.4571 172.868 77.7771 172.028C76.0971 171.164 74.8011 169.976 73.8891 168.464C72.9771 166.952 72.5211 165.236 72.5211 163.316C72.5211 161.42 72.9651 159.716 73.8531 158.204C74.7651 156.668 76.0011 155.48 77.5611 154.64C79.1451 153.776 80.9091 153.344 82.8531 153.344C84.7491 153.344 86.4651 153.752 88.0011 154.568C89.5371 155.384 90.7371 156.56 91.6011 158.096C92.4891 159.608 92.9331 161.372 92.9331 163.388ZM82.8891 157.592C81.6171 157.592 80.5491 157.952 79.6851 158.672C78.8211 159.392 78.2931 160.376 78.1011 161.624H87.6411C87.4491 160.4 86.9211 159.428 86.0571 158.708C85.1931 157.964 84.1371 157.592 82.8891 157.592ZM106.032 173.288C103.968 173.288 102.108 172.868 100.452 172.028C98.8201 171.164 97.5361 169.976 96.6001 168.464C95.6881 166.952 95.2321 165.236 95.2321 163.316C95.2321 161.396 95.6881 159.68 96.6001 158.168C97.5361 156.656 98.8201 155.48 100.452 154.64C102.108 153.776 103.968 153.344 106.032 153.344C108.072 153.344 109.848 153.776 111.36 154.64C112.896 155.48 114.012 156.692 114.708 158.276L110.352 160.616C109.344 158.84 107.892 157.952 105.996 157.952C104.532 157.952 103.32 158.432 102.36 159.392C101.4 160.352 100.92 161.66 100.92 163.316C100.92 164.972 101.4 166.28 102.36 167.24C103.32 168.2 104.532 168.68 105.996 168.68C107.916 168.68 109.368 167.792 110.352 166.016L114.708 168.392C114.012 169.928 112.896 171.128 111.36 171.992C109.848 172.856 108.072 173.288 106.032 173.288ZM129.573 153.344C131.973 153.344 133.905 154.064 135.369 155.504C136.857 156.944 137.601 159.08 137.601 161.912V173H131.985V162.776C131.985 161.24 131.649 160.1 130.977 159.356C130.305 158.588 129.333 158.204 128.061 158.204C126.645 158.204 125.517 158.648 124.677 159.536C123.837 160.4 123.417 161.696 123.417 163.424V173H117.801V146.288H123.417V155.648C124.161 154.904 125.061 154.34 126.117 153.956C127.173 153.548 128.325 153.344 129.573 153.344ZM154.464 153.344C156.864 153.344 158.796 154.064 160.26 155.504C161.748 156.944 162.492 159.08 162.492 161.912V173H156.876V162.776C156.876 161.24 156.54 160.1 155.868 159.356C155.196 158.588 154.224 158.204 152.952 158.204C151.536 158.204 150.408 158.648 149.568 159.536C148.728 160.4 148.308 161.696 148.308 163.424V173H142.692V153.632H148.056V155.9C148.8 155.084 149.724 154.46 150.828 154.028C151.932 153.572 153.144 153.344 154.464 153.344ZM167.582 153.632H173.198V173H167.582V153.632ZM170.39 150.932C169.358 150.932 168.518 150.632 167.87 150.032C167.222 149.432 166.898 148.688 166.898 147.8C166.898 146.912 167.222 146.168 167.87 145.568C168.518 144.968 169.358 144.668 170.39 144.668C171.422 144.668 172.262 144.956 172.91 145.532C173.558 146.108 173.882 146.828 173.882 147.692C173.882 148.628 173.558 149.408 172.91 150.032C172.262 150.632 171.422 150.932 170.39 150.932ZM187.77 173.288C185.706 173.288 183.846 172.868 182.19 172.028C180.558 171.164 179.274 169.976 178.338 168.464C177.426 166.952 176.97 165.236 176.97 163.316C176.97 161.396 177.426 159.68 178.338 158.168C179.274 156.656 180.558 155.48 182.19 154.64C183.846 153.776 185.706 153.344 187.77 153.344C189.81 153.344 191.586 153.776 193.098 154.64C194.634 155.48 195.75 156.692 196.446 158.276L192.09 160.616C191.082 158.84 189.63 157.952 187.734 157.952C186.27 157.952 185.058 158.432 184.098 159.392C183.138 160.352 182.658 161.66 182.658 163.316C182.658 164.972 183.138 166.28 184.098 167.24C185.058 168.2 186.27 168.68 187.734 168.68C189.654 168.68 191.106 167.792 192.09 166.016L196.446 168.392C195.75 169.928 194.634 171.128 193.098 171.992C191.586 172.856 189.81 173.288 187.77 173.288ZM207.492 153.344C210.492 153.344 212.796 154.064 214.404 155.504C216.012 156.92 216.816 159.068 216.816 161.948V173H211.56V170.588C210.504 172.388 208.536 173.288 205.656 173.288C204.168 173.288 202.872 173.036 201.768 172.532C200.688 172.028 199.86 171.332 199.284 170.444C198.708 169.556 198.42 168.548 198.42 167.42C198.42 165.62 199.092 164.204 200.436 163.172C201.804 162.14 203.904 161.624 206.736 161.624H211.2C211.2 160.4 210.828 159.464 210.084 158.816C209.34 158.144 208.224 157.808 206.736 157.808C205.704 157.808 204.684 157.976 203.676 158.312C202.692 158.624 201.852 159.056 201.156 159.608L199.14 155.684C200.196 154.94 201.456 154.364 202.92 153.956C204.408 153.548 205.932 153.344 207.492 153.344ZM207.06 169.508C208.02 169.508 208.872 169.292 209.616 168.86C210.36 168.404 210.888 167.744 211.2 166.88V164.9H207.348C205.044 164.9 203.892 165.656 203.892 167.168C203.892 167.888 204.168 168.464 204.72 168.896C205.296 169.304 206.076 169.508 207.06 169.508ZM221.899 146.288H227.515V173H221.899V146.288ZM266.25 173L266.214 157.88L258.798 170.336H256.17L248.79 158.204V173H243.318V147.8H248.142L257.574 163.46L266.862 147.8H271.65L271.722 173H266.25ZM296.277 163.388C296.277 163.46 296.241 163.964 296.169 164.9H281.517C281.781 166.1 282.405 167.048 283.389 167.744C284.373 168.44 285.597 168.788 287.061 168.788C288.069 168.788 288.957 168.644 289.725 168.356C290.517 168.044 291.249 167.564 291.921 166.916L294.909 170.156C293.085 172.244 290.421 173.288 286.917 173.288C284.733 173.288 282.801 172.868 281.121 172.028C279.441 171.164 278.145 169.976 277.233 168.464C276.321 166.952 275.865 165.236 275.865 163.316C275.865 161.42 276.309 159.716 277.197 158.204C278.109 156.668 279.345 155.48 280.905 154.64C282.489 153.776 284.253 153.344 286.197 153.344C288.093 153.344 289.809 153.752 291.345 154.568C292.881 155.384 294.081 156.56 294.945 158.096C295.833 159.608 296.277 161.372 296.277 163.388ZM286.233 157.592C284.961 157.592 283.893 157.952 283.029 158.672C282.165 159.392 281.637 160.376 281.445 161.624H290.985C290.793 160.4 290.265 159.428 289.401 158.708C288.537 157.964 287.481 157.592 286.233 157.592ZM318.988 163.388C318.988 163.46 318.952 163.964 318.88 164.9H304.228C304.492 166.1 305.116 167.048 306.1 167.744C307.084 168.44 308.308 168.788 309.772 168.788C310.78 168.788 311.668 168.644 312.436 168.356C313.228 168.044 313.96 167.564 314.632 166.916L317.62 170.156C315.796 172.244 313.132 173.288 309.628 173.288C307.444 173.288 305.512 172.868 303.832 172.028C302.152 171.164 300.856 169.976 299.944 168.464C299.032 166.952 298.576 165.236 298.576 163.316C298.576 161.42 299.02 159.716 299.908 158.204C300.82 156.668 302.056 155.48 303.616 154.64C305.2 153.776 306.964 153.344 308.908 153.344C310.804 153.344 312.52 153.752 314.056 154.568C315.592 155.384 316.792 156.56 317.656 158.096C318.544 159.608 318.988 161.372 318.988 163.388ZM308.944 157.592C307.672 157.592 306.604 157.952 305.74 158.672C304.876 159.392 304.348 160.376 304.156 161.624H313.696C313.504 160.4 312.976 159.428 312.112 158.708C311.248 157.964 310.192 157.592 308.944 157.592ZM335.219 172.064C334.667 172.472 333.983 172.784 333.167 173C332.375 173.192 331.535 173.288 330.647 173.288C328.343 173.288 326.555 172.7 325.283 171.524C324.035 170.348 323.411 168.62 323.411 166.34V158.384H320.423V154.064H323.411V149.348H329.027V154.064H333.851V158.384H329.027V166.268C329.027 167.084 329.231 167.72 329.639 168.176C330.071 168.608 330.671 168.824 331.439 168.824C332.327 168.824 333.083 168.584 333.707 168.104L335.219 172.064ZM338.371 153.632H343.987V173H338.371V153.632ZM341.179 150.932C340.147 150.932 339.307 150.632 338.659 150.032C338.011 149.432 337.687 148.688 337.687 147.8C337.687 146.912 338.011 146.168 338.659 145.568C339.307 144.968 340.147 144.668 341.179 144.668C342.211 144.668 343.051 144.956 343.699 145.532C344.347 146.108 344.671 146.828 344.671 147.692C344.671 148.628 344.347 149.408 343.699 150.032C343.051 150.632 342.211 150.932 341.179 150.932ZM360.971 153.344C363.371 153.344 365.303 154.064 366.767 155.504C368.255 156.944 368.999 159.08 368.999 161.912V173H363.383V162.776C363.383 161.24 363.047 160.1 362.375 159.356C361.703 158.588 360.731 158.204 359.459 158.204C358.043 158.204 356.915 158.648 356.075 159.536C355.235 160.4 354.815 161.696 354.815 163.424V173H349.199V153.632H354.563V155.9C355.307 155.084 356.231 154.46 357.335 154.028C358.439 153.572 359.651 153.344 360.971 153.344ZM394.281 153.632V169.76C394.281 173.312 393.357 175.952 391.509 177.68C389.661 179.408 386.961 180.272 383.409 180.272C381.537 180.272 379.761 180.044 378.081 179.588C376.401 179.132 375.009 178.472 373.905 177.608L376.137 173.576C376.953 174.248 377.985 174.776 379.233 175.16C380.481 175.568 381.729 175.772 382.977 175.772C384.921 175.772 386.349 175.328 387.261 174.44C388.197 173.576 388.665 172.256 388.665 170.48V169.652C387.201 171.26 385.161 172.064 382.545 172.064C380.769 172.064 379.137 171.68 377.649 170.912C376.185 170.12 375.021 169.016 374.157 167.6C373.293 166.184 372.861 164.552 372.861 162.704C372.861 160.856 373.293 159.224 374.157 157.808C375.021 156.392 376.185 155.3 377.649 154.532C379.137 153.74 380.769 153.344 382.545 153.344C385.353 153.344 387.489 154.268 388.953 156.116V153.632H394.281ZM383.661 167.456C385.149 167.456 386.361 167.024 387.297 166.16C388.257 165.272 388.737 164.12 388.737 162.704C388.737 161.288 388.257 160.148 387.297 159.284C386.361 158.396 385.149 157.952 383.661 157.952C382.173 157.952 380.949 158.396 379.989 159.284C379.029 160.148 378.549 161.288 378.549 162.704C378.549 164.12 379.029 165.272 379.989 166.16C380.949 167.024 382.173 167.456 383.661 167.456Z" fill="#FFEFEF"/>
</g>
<g filter="url(#filter4_i)">
<path d="M448.466 147.8V151.58L439.106 173H432.77L441.806 152.552H433.454V156.656H428.27V147.8H448.466ZM475.046 173.432C472.43 173.432 470.066 172.868 467.954 171.74C465.866 170.612 464.222 169.064 463.022 167.096C461.846 165.104 461.258 162.872 461.258 160.4C461.258 157.928 461.846 155.708 463.022 153.74C464.222 151.748 465.866 150.188 467.954 149.06C470.066 147.932 472.43 147.368 475.046 147.368C477.662 147.368 480.014 147.932 482.102 149.06C484.19 150.188 485.834 151.748 487.034 153.74C488.234 155.708 488.834 157.928 488.834 160.4C488.834 162.872 488.234 165.104 487.034 167.096C485.834 169.064 484.19 170.612 482.102 171.74C480.014 172.868 477.662 173.432 475.046 173.432ZM475.046 168.464C476.534 168.464 477.878 168.128 479.078 167.456C480.278 166.76 481.214 165.8 481.886 164.576C482.582 163.352 482.93 161.96 482.93 160.4C482.93 158.84 482.582 157.448 481.886 156.224C481.214 155 480.278 154.052 479.078 153.38C477.878 152.684 476.534 152.336 475.046 152.336C473.558 152.336 472.214 152.684 471.014 153.38C469.814 154.052 468.866 155 468.17 156.224C467.498 157.448 467.162 158.84 467.162 160.4C467.162 161.96 467.498 163.352 468.17 164.576C468.866 165.8 469.814 166.76 471.014 167.456C472.214 168.128 473.558 168.464 475.046 168.464ZM502.181 173.288C500.117 173.288 498.257 172.868 496.601 172.028C494.969 171.164 493.685 169.976 492.749 168.464C491.837 166.952 491.381 165.236 491.381 163.316C491.381 161.396 491.837 159.68 492.749 158.168C493.685 156.656 494.969 155.48 496.601 154.64C498.257 153.776 500.117 153.344 502.181 153.344C504.221 153.344 505.997 153.776 507.509 154.64C509.045 155.48 510.161 156.692 510.857 158.276L506.501 160.616C505.493 158.84 504.041 157.952 502.145 157.952C500.681 157.952 499.469 158.432 498.509 159.392C497.549 160.352 497.069 161.66 497.069 163.316C497.069 164.972 497.549 166.28 498.509 167.24C499.469 168.2 500.681 168.68 502.145 168.68C504.065 168.68 505.517 167.792 506.501 166.016L510.857 168.392C510.161 169.928 509.045 171.128 507.509 171.992C505.997 172.856 504.221 173.288 502.181 173.288ZM526.863 172.064C526.311 172.472 525.627 172.784 524.811 173C524.019 173.192 523.179 173.288 522.291 173.288C519.987 173.288 518.199 172.7 516.927 171.524C515.679 170.348 515.055 168.62 515.055 166.34V158.384H512.067V154.064H515.055V149.348H520.671V154.064H525.495V158.384H520.671V166.268C520.671 167.084 520.875 167.72 521.283 168.176C521.715 168.608 522.315 168.824 523.083 168.824C523.971 168.824 524.727 168.584 525.351 168.104L526.863 172.064ZM538.634 173.288C536.594 173.288 534.758 172.868 533.126 172.028C531.518 171.164 530.258 169.976 529.346 168.464C528.434 166.952 527.978 165.236 527.978 163.316C527.978 161.396 528.434 159.68 529.346 158.168C530.258 156.656 531.518 155.48 533.126 154.64C534.758 153.776 536.594 153.344 538.634 153.344C540.674 153.344 542.498 153.776 544.106 154.64C545.714 155.48 546.974 156.656 547.886 158.168C548.798 159.68 549.254 161.396 549.254 163.316C549.254 165.236 548.798 166.952 547.886 168.464C546.974 169.976 545.714 171.164 544.106 172.028C542.498 172.868 540.674 173.288 538.634 173.288ZM538.634 168.68C540.074 168.68 541.25 168.2 542.162 167.24C543.098 166.256 543.566 164.948 543.566 163.316C543.566 161.684 543.098 160.388 542.162 159.428C541.25 158.444 540.074 157.952 538.634 157.952C537.194 157.952 536.006 158.444 535.07 159.428C534.134 160.388 533.666 161.684 533.666 163.316C533.666 164.948 534.134 166.256 535.07 167.24C536.006 168.2 537.194 168.68 538.634 168.68ZM564.456 153.344C566.256 153.344 567.888 153.764 569.352 154.604C570.84 155.42 572.004 156.584 572.844 158.096C573.684 159.584 574.104 161.324 574.104 163.316C574.104 165.308 573.684 167.06 572.844 168.572C572.004 170.06 570.84 171.224 569.352 172.064C567.888 172.88 566.256 173.288 564.456 173.288C561.792 173.288 559.764 172.448 558.372 170.768V173H553.008V146.288H558.624V155.684C560.04 154.124 561.984 153.344 564.456 153.344ZM563.484 168.68C564.924 168.68 566.1 168.2 567.012 167.24C567.948 166.256 568.416 164.948 568.416 163.316C568.416 161.684 567.948 160.388 567.012 159.428C566.1 158.444 564.924 157.952 563.484 157.952C562.044 157.952 560.856 158.444 559.92 159.428C559.008 160.388 558.552 161.684 558.552 163.316C558.552 164.948 559.008 166.256 559.92 167.24C560.856 168.2 562.044 168.68 563.484 168.68ZM596.835 163.388C596.835 163.46 596.799 163.964 596.727 164.9H582.075C582.339 166.1 582.963 167.048 583.947 167.744C584.931 168.44 586.155 168.788 587.619 168.788C588.627 168.788 589.515 168.644 590.283 168.356C591.075 168.044 591.807 167.564 592.479 166.916L595.467 170.156C593.643 172.244 590.979 173.288 587.475 173.288C585.291 173.288 583.359 172.868 581.679 172.028C579.999 171.164 578.703 169.976 577.791 168.464C576.879 166.952 576.423 165.236 576.423 163.316C576.423 161.42 576.867 159.716 577.755 158.204C578.667 156.668 579.903 155.48 581.463 154.64C583.047 153.776 584.811 153.344 586.755 153.344C588.651 153.344 590.367 153.752 591.903 154.568C593.439 155.384 594.639 156.56 595.503 158.096C596.391 159.608 596.835 161.372 596.835 163.388ZM586.791 157.592C585.519 157.592 584.451 157.952 583.587 158.672C582.723 159.392 582.195 160.376 582.003 161.624H591.543C591.351 160.4 590.823 159.428 589.959 158.708C589.095 157.964 588.039 157.592 586.791 157.592ZM605.938 156.188C606.61 155.252 607.51 154.544 608.638 154.064C609.79 153.584 611.11 153.344 612.598 153.344V158.528C611.974 158.48 611.554 158.456 611.338 158.456C609.73 158.456 608.47 158.912 607.558 159.824C606.646 160.712 606.19 162.056 606.19 163.856V173H600.574V153.632H605.938V156.188ZM643.914 168.248V173H624.87V169.22L634.59 160.04C635.622 159.056 636.318 158.216 636.678 157.52C637.038 156.8 637.218 156.092 637.218 155.396C637.218 154.388 636.87 153.62 636.174 153.092C635.502 152.54 634.506 152.264 633.186 152.264C632.082 152.264 631.086 152.48 630.198 152.912C629.31 153.32 628.566 153.944 627.966 154.784L623.718 152.048C624.702 150.584 626.058 149.444 627.786 148.628C629.514 147.788 631.494 147.368 633.726 147.368C635.598 147.368 637.23 147.68 638.622 148.304C640.038 148.904 641.13 149.768 641.898 150.896C642.69 152 643.086 153.308 643.086 154.82C643.086 156.188 642.798 157.472 642.222 158.672C641.646 159.872 640.53 161.24 638.874 162.776L633.078 168.248H643.914ZM657.05 173.432C654.962 173.432 653.102 172.916 651.47 171.884C649.838 170.852 648.554 169.364 647.618 167.42C646.706 165.452 646.25 163.112 646.25 160.4C646.25 157.688 646.706 155.36 647.618 153.416C648.554 151.448 649.838 149.948 651.47 148.916C653.102 147.884 654.962 147.368 657.05 147.368C659.138 147.368 660.998 147.884 662.63 148.916C664.262 149.948 665.534 151.448 666.446 153.416C667.382 155.36 667.85 157.688 667.85 160.4C667.85 163.112 667.382 165.452 666.446 167.42C665.534 169.364 664.262 170.852 662.63 171.884C660.998 172.916 659.138 173.432 657.05 173.432ZM657.05 168.5C658.586 168.5 659.786 167.84 660.65 166.52C661.538 165.2 661.982 163.16 661.982 160.4C661.982 157.64 661.538 155.6 660.65 154.28C659.786 152.96 658.586 152.3 657.05 152.3C655.538 152.3 654.338 152.96 653.45 154.28C652.586 155.6 652.154 157.64 652.154 160.4C652.154 163.16 652.586 165.2 653.45 166.52C654.338 167.84 655.538 168.5 657.05 168.5ZM689.3 168.248V173H670.256V169.22L679.976 160.04C681.008 159.056 681.704 158.216 682.064 157.52C682.424 156.8 682.604 156.092 682.604 155.396C682.604 154.388 682.256 153.62 681.56 153.092C680.888 152.54 679.892 152.264 678.572 152.264C677.468 152.264 676.472 152.48 675.584 152.912C674.696 153.32 673.952 153.944 673.352 154.784L669.104 152.048C670.088 150.584 671.444 149.444 673.172 148.628C674.9 147.788 676.88 147.368 679.112 147.368C680.984 147.368 682.616 147.68 684.008 148.304C685.424 148.904 686.516 149.768 687.284 150.896C688.076 152 688.472 153.308 688.472 154.82C688.472 156.188 688.184 157.472 687.608 158.672C687.032 159.872 685.916 161.24 684.26 162.776L678.464 168.248H689.3ZM702.436 173.432C700.348 173.432 698.488 172.916 696.856 171.884C695.224 170.852 693.94 169.364 693.004 167.42C692.092 165.452 691.636 163.112 691.636 160.4C691.636 157.688 692.092 155.36 693.004 153.416C693.94 151.448 695.224 149.948 696.856 148.916C698.488 147.884 700.348 147.368 702.436 147.368C704.524 147.368 706.384 147.884 708.016 148.916C709.648 149.948 710.92 151.448 711.832 153.416C712.768 155.36 713.236 157.688 713.236 160.4C713.236 163.112 712.768 165.452 711.832 167.42C710.92 169.364 709.648 170.852 708.016 171.884C706.384 172.916 704.524 173.432 702.436 173.432ZM702.436 168.5C703.972 168.5 705.172 167.84 706.036 166.52C706.924 165.2 707.368 163.16 707.368 160.4C707.368 157.64 706.924 155.6 706.036 154.28C705.172 152.96 703.972 152.3 702.436 152.3C700.924 152.3 699.724 152.96 698.836 154.28C697.972 155.6 697.54 157.64 697.54 160.4C697.54 163.16 697.972 165.2 698.836 166.52C699.724 167.84 700.924 168.5 702.436 168.5Z" fill="#FFEFEF"/>
</g>
<g filter="url(#filter5_i)">
<path d="M373.959 44.8H377.132C377.863 44.8 378.455 45.4512 378.455 46.2546V49.7454C378.455 50.5488 377.863 51.2 377.132 51.2H373.959C373.228 51.2 372.636 50.5488 372.636 49.7454V46.2546C372.636 45.4512 373.228 44.8 373.959 44.8Z" fill="#FFEFEF"/>
<path d="M373.959 56H377.132C377.863 56 378.455 56.6512 378.455 57.4546V60.9454C378.455 61.7488 377.863 62.4 377.132 62.4H373.959C373.228 62.4 372.636 61.7488 372.636 60.9454V57.4546C372.636 56.6512 373.228 56 373.959 56Z" fill="#FFEFEF"/>
<path d="M388.769 56H385.595C384.865 56 384.273 56.6512 384.273 57.4546V60.9454C384.273 61.7488 384.865 62.4 385.595 62.4H388.769C389.499 62.4 390.091 61.7488 390.091 60.9454V57.4546C390.091 56.6512 389.499 56 388.769 56Z" fill="#FFEFEF"/>
<path d="M385.595 44.8H388.769C389.499 44.8 390.091 45.4512 390.091 46.2546V49.7454C390.091 50.5488 389.499 51.2 388.769 51.2H385.595C384.865 51.2 384.273 50.5488 384.273 49.7454V46.2546C384.273 45.4512 384.865 44.8 385.595 44.8Z" fill="#FFEFEF"/>
<path d="M400.405 56H397.231C396.501 56 395.909 56.6512 395.909 57.4546V60.9454C395.909 61.7488 396.501 62.4 397.231 62.4H400.405C401.135 62.4 401.727 61.7488 401.727 60.9454V57.4546C401.727 56.6512 401.135 56 400.405 56Z" fill="#FFEFEF"/>
<path d="M397.231 44.8H400.405C401.135 44.8 401.727 45.4512 401.727 46.2546V49.7454C401.727 50.5488 401.135 51.2 400.405 51.2H397.231C396.501 51.2 395.909 50.5488 395.909 49.7454V46.2546C395.909 45.4512 396.501 44.8 397.231 44.8Z" fill="#FFEFEF"/>
<path d="M412.041 44.8H408.868C408.137 44.8 407.545 45.4512 407.545 46.2546V49.7454C407.545 50.5488 408.137 51.2 408.868 51.2H412.041C412.772 51.2 413.364 50.5488 413.364 49.7454V46.2546C413.364 45.4512 412.772 44.8 412.041 44.8Z" fill="#FFEFEF"/>
<path fill-rule="evenodd" clip-rule="evenodd" d="M363.909 32C362.302 32 361 33.4327 361 35.2V83.2C361 84.9673 362.302 86.4 363.909 86.4H382.323L379.101 90.7893C378.396 91.7484 378.256 93.0671 378.739 94.1795C379.222 95.2918 380.243 96 381.364 96H404.636C405.757 96 406.778 95.2918 407.261 94.1795C407.744 93.0671 407.604 91.7484 406.899 90.7893L403.677 86.4H422.091C423.698 86.4 425 84.9673 425 83.2V35.2C425 33.4327 423.698 32 422.091 32H363.909ZM397.61 80C397.594 79.9999 397.578 79.9999 397.562 80H388.438C388.422 79.9999 388.406 79.9999 388.39 80H366.818V76.8H419.182V80H397.61ZM389.802 86.4H396.198L398.547 89.6H387.453L389.802 86.4ZM366.818 70.4V38.4H419.182V70.4H366.818Z" fill="#FFEFEF"/>
</g>
<defs>
<filter id="filter0_i" x="336.132" y="8" width="112" height="116" filterUnits="userSpaceOnUse" color-interpolation-filters="sRGB">
<feFlood flood-opacity="0" result="BackgroundImageFix"/>
<feBlend mode="normal" in="SourceGraphic" in2="BackgroundImageFix" result="shape"/>
<feColorMatrix in="SourceAlpha" type="matrix" values="0 0 0 0 0 0 0 0 0 0 0 0 0 0 0 0 0 0 127 0" result="hardAlpha"/>
<feOffset dy="4"/>
<feGaussianBlur stdDeviation="2"/>
<feComposite in2="hardAlpha" operator="arithmetic" k2="-1" k3="1"/>
<feColorMatrix type="matrix" values="0 0 0 0 0 0 0 0 0 0 0 0 0 0 0 0 0 0 0.25 0"/>
<feBlend mode="normal" in2="shape" result="effect1_innerShadow"/>
</filter>
<filter id="filter1_i" x="336.132" y="8" width="112" height="116" filterUnits="userSpaceOnUse" color-interpolation-filters="sRGB">
<feFlood flood-opacity="0" result="BackgroundImageFix"/>
<feBlend mode="normal" in="SourceGraphic" in2="BackgroundImageFix" result="shape"/>
<feColorMatrix in="SourceAlpha" type="matrix" values="0 0 0 0 0 0 0 0 0 0 0 0 0 0 0 0 0 0 127 0" result="hardAlpha"/>
<feOffset dy="4"/>
<feGaussianBlur stdDeviation="2"/>
<feComposite in2="hardAlpha" operator="arithmetic" k2="-1" k3="1"/>
<feColorMatrix type="matrix" values="0 0 0 0 0 0 0 0 0 0 0 0 0 0 0 0 0 0 0.25 0"/>
<feBlend mode="normal" in2="shape" result="effect1_innerShadow"/>
</filter>
<filter id="filter2_i" x="336.132" y="8" width="112" height="116" filterUnits="userSpaceOnUse" color-interpolation-filters="sRGB">
<feFlood flood-opacity="0" result="BackgroundImageFix"/>
<feBlend mode="normal" in="SourceGraphic" in2="BackgroundImageFix" result="shape"/>
<feColorMatrix in="SourceAlpha" type="matrix" values="0 0 0 0 0 0 0 0 0 0 0 0 0 0 0 0 0 0 127 0" result="hardAlpha"/>
<feOffset dy="4"/>
<feGaussianBlur stdDeviation="2"/>
<feComposite in2="hardAlpha" operator="arithmetic" k2="-1" k3="1"/>
<feColorMatrix type="matrix" values="0 0 0 0 0 0 0 0 0 0 0 0 0 0 0 0 0 0 0.25 0"/>
<feBlend mode="normal" in2="shape" result="effect1_innerShadow"/>
</filter>
<filter id="filter3_d" x="47.2275" y="144.668" width="351.053" height="43.604" filterUnits="userSpaceOnUse" color-interpolation-filters="sRGB">
<feFlood flood-opacity="0" result="BackgroundImageFix"/>
<feColorMatrix in="SourceAlpha" type="matrix" values="0 0 0 0 0 0 0 0 0 0 0 0 0 0 0 0 0 0 127 0"/>
<feOffset dy="4"/>
<feGaussianBlur stdDeviation="2"/>
<feColorMatrix type="matrix" values="0 0 0 0 0 0 0 0 0 0 0 0 0 0 0 0 0 0 0.25 0"/>
<feBlend mode="normal" in2="BackgroundImageFix" result="effect1_dropShadow"/>
<feBlend mode="normal" in="SourceGraphic" in2="effect1_dropShadow" result="shape"/>
</filter>
<filter id="filter4_i" x="428.27" y="146.288" width="284.966" height="31.144" filterUnits="userSpaceOnUse" color-interpolation-filters="sRGB">
<feFlood flood-opacity="0" result="BackgroundImageFix"/>
<feBlend mode="normal" in="SourceGraphic" in2="BackgroundImageFix" result="shape"/>
<feColorMatrix in="SourceAlpha" type="matrix" values="0 0 0 0 0 0 0 0 0 0 0 0 0 0 0 0 0 0 127 0" result="hardAlpha"/>
<feOffset dy="4"/>
<feGaussianBlur stdDeviation="2"/>
<feComposite in2="hardAlpha" operator="arithmetic" k2="-1" k3="1"/>
<feColorMatrix type="matrix" values="0 0 0 0 0 0 0 0 0 0 0 0 0 0 0 0 0 0 0.25 0"/>
<feBlend mode="normal" in2="shape" result="effect1_innerShadow"/>
</filter>
<filter id="filter5_i" x="361" y="32" width="64" height="68" filterUnits="userSpaceOnUse" color-interpolation-filters="sRGB">
<feFlood flood-opacity="0" result="BackgroundImageFix"/>
<feBlend mode="normal" in="SourceGraphic" in2="BackgroundImageFix" result="shape"/>
<feColorMatrix in="SourceAlpha" type="matrix" values="0 0 0 0 0 0 0 0 0 0 0 0 0 0 0 0 0 0 127 0" result="hardAlpha"/>
<feOffset dy="4"/>
<feGaussianBlur stdDeviation="2"/>
<feComposite in2="hardAlpha" operator="arithmetic" k2="-1" k3="1"/>
<feColorMatrix type="matrix" values="0 0 0 0 0 0 0 0 0 0 0 0 0 0 0 0 0 0 0.25 0"/>
<feBlend mode="normal" in2="shape" result="effect1_innerShadow"/>
</filter>
</defs>
</svg>
