<svg width="1159" height="644" viewBox="0 0 1159 644" fill="none" xmlns="http://www.w3.org/2000/svg">
<g filter="url(#filter0_d)">
<path d="M1114 509.733C1114 550.18 1085.47 585.154 1045.69 592.445C704.998 654.875 463.689 646.712 76.2384 590.1C34.7208 584.034 4.00003 548.282 4.00003 506.324V117.421C4.00003 74.7507 35.8388 38.6113 78.1889 33.3927C486.173 -16.881 642.693 -5.44727 1037.55 34.9827C1080.9 39.4209 1114 75.967 1114 119.54V509.733Z" fill="#65789D"/>
<path d="M221.76 184.64V189H200.76V161H221.2V165.36H205.96V172.64H219.48V176.92H205.96V184.64H221.76ZM235.042 167.4C238.188 167.4 240.588 168.16 242.242 169.68C243.922 171.173 244.762 173.44 244.762 176.48V189H240.042V186.4C239.428 187.333 238.548 188.053 237.402 188.56C236.282 189.04 234.922 189.28 233.322 189.28C231.722 189.28 230.322 189.013 229.122 188.48C227.922 187.92 226.988 187.16 226.322 186.2C225.682 185.213 225.362 184.107 225.362 182.88C225.362 180.96 226.068 179.427 227.482 178.28C228.922 177.107 231.175 176.52 234.242 176.52H239.762V176.2C239.762 174.707 239.308 173.56 238.402 172.76C237.522 171.96 236.202 171.56 234.442 171.56C233.242 171.56 232.055 171.747 230.882 172.12C229.735 172.493 228.762 173.013 227.962 173.68L226.002 170.04C227.122 169.187 228.468 168.533 230.042 168.08C231.615 167.627 233.282 167.4 235.042 167.4ZM234.362 185.64C235.615 185.64 236.722 185.36 237.682 184.8C238.668 184.213 239.362 183.387 239.762 182.32V179.84H234.602C231.722 179.84 230.282 180.787 230.282 182.68C230.282 183.587 230.642 184.307 231.362 184.84C232.082 185.373 233.082 185.64 234.362 185.64ZM255.938 170.76C257.378 168.52 259.912 167.4 263.538 167.4V172.16C263.112 172.08 262.725 172.04 262.378 172.04C260.432 172.04 258.912 172.613 257.818 173.76C256.725 174.88 256.178 176.507 256.178 178.64V189H251.178V167.64H255.938V170.76ZM267.78 159.32H272.78V189H267.78V159.32ZM299.343 167.64L289.343 190.72C288.409 193.04 287.276 194.667 285.943 195.6C284.609 196.56 282.996 197.04 281.103 197.04C280.036 197.04 278.983 196.867 277.943 196.52C276.903 196.173 276.049 195.693 275.382 195.08L277.382 191.4C277.863 191.853 278.423 192.213 279.063 192.48C279.729 192.747 280.396 192.88 281.062 192.88C281.943 192.88 282.663 192.653 283.223 192.2C283.809 191.747 284.343 190.987 284.823 189.92L285.183 189.08L275.862 167.64H281.062L287.783 183.44L294.543 167.64H299.343ZM333.842 174.44C335.389 174.947 336.616 175.8 337.522 177C338.429 178.173 338.882 179.64 338.882 181.4C338.882 183.827 337.949 185.707 336.082 187.04C334.216 188.347 331.496 189 327.922 189H314.002V161H327.122C330.429 161 332.976 161.653 334.762 162.96C336.549 164.24 337.442 166.013 337.442 168.28C337.442 169.667 337.122 170.893 336.482 171.96C335.842 173.027 334.962 173.853 333.842 174.44ZM319.202 165.08V172.8H326.562C328.376 172.8 329.762 172.48 330.722 171.84C331.709 171.173 332.202 170.213 332.202 168.96C332.202 167.68 331.709 166.72 330.722 166.08C329.762 165.413 328.376 165.08 326.562 165.08H319.202ZM327.602 184.92C331.629 184.92 333.642 183.573 333.642 180.88C333.642 178.187 331.629 176.84 327.602 176.84H319.202V184.92H327.602ZM343.952 167.64H348.952V189H343.952V167.64ZM346.472 164.12C345.565 164.12 344.805 163.84 344.192 163.28C343.579 162.693 343.272 161.973 343.272 161.12C343.272 160.267 343.579 159.56 344.192 159C344.805 158.413 345.565 158.12 346.472 158.12C347.379 158.12 348.139 158.4 348.752 158.96C349.365 159.493 349.672 160.173 349.672 161C349.672 161.88 349.365 162.627 348.752 163.24C348.165 163.827 347.405 164.12 346.472 164.12ZM360.274 170.76C361.714 168.52 364.248 167.4 367.874 167.4V172.16C367.448 172.08 367.061 172.04 366.714 172.04C364.768 172.04 363.248 172.613 362.154 173.76C361.061 174.88 360.514 176.507 360.514 178.64V189H355.514V167.64H360.274V170.76ZM392.841 159.32V189H388.041V186.24C387.214 187.253 386.187 188.013 384.961 188.52C383.761 189.027 382.427 189.28 380.961 189.28C378.907 189.28 377.054 188.827 375.401 187.92C373.774 187.013 372.494 185.733 371.561 184.08C370.627 182.4 370.161 180.48 370.161 178.32C370.161 176.16 370.627 174.253 371.561 172.6C372.494 170.947 373.774 169.667 375.401 168.76C377.054 167.853 378.907 167.4 380.961 167.4C382.374 167.4 383.667 167.64 384.841 168.12C386.014 168.6 387.014 169.32 387.841 170.28V159.32H392.841ZM381.561 185C382.761 185 383.841 184.733 384.801 184.2C385.761 183.64 386.521 182.853 387.081 181.84C387.641 180.827 387.921 179.653 387.921 178.32C387.921 176.987 387.641 175.813 387.081 174.8C386.521 173.787 385.761 173.013 384.801 172.48C383.841 171.92 382.761 171.64 381.561 171.64C380.361 171.64 379.281 171.92 378.321 172.48C377.361 173.013 376.601 173.787 376.041 174.8C375.481 175.813 375.201 176.987 375.201 178.32C375.201 179.653 375.481 180.827 376.041 181.84C376.601 182.853 377.361 183.64 378.321 184.2C379.281 184.733 380.361 185 381.561 185ZM415.396 196.76C413.823 194.333 412.61 191.52 411.756 188.32C410.93 185.12 410.516 181.693 410.516 178.04C410.516 174.387 410.93 170.96 411.756 167.76C412.61 164.533 413.823 161.72 415.396 159.32H420.156C418.53 162.2 417.33 165.173 416.556 168.24C415.81 171.28 415.436 174.547 415.436 178.04C415.436 181.533 415.81 184.813 416.556 187.88C417.33 190.92 418.53 193.88 420.156 196.76H415.396ZM443.063 184.6V189H422.423V185.52L433.543 174.96C434.797 173.76 435.637 172.72 436.063 171.84C436.517 170.933 436.743 170.04 436.743 169.16C436.743 167.853 436.303 166.853 435.423 166.16C434.543 165.467 433.25 165.12 431.543 165.12C428.69 165.12 426.503 166.093 424.983 168.04L421.343 165.24C422.437 163.773 423.903 162.64 425.743 161.84C427.61 161.013 429.69 160.6 431.983 160.6C435.023 160.6 437.45 161.32 439.263 162.76C441.077 164.2 441.983 166.16 441.983 168.64C441.983 170.16 441.663 171.587 441.023 172.92C440.383 174.253 439.157 175.773 437.343 177.48L429.863 184.6H443.063ZM470.439 182.64H465.479V189H460.439V182.64H445.079V179.04L458.879 161H464.439L451.439 178.24H460.599V172.6H465.479V178.24H470.439V182.64ZM503.842 182.52H489.842L487.082 189H481.722L494.322 161H499.442L512.082 189H506.642L503.842 182.52ZM502.122 178.44L496.842 166.2L491.602 178.44H502.122ZM536.168 167.64V185.76C536.168 193.28 532.328 197.04 524.648 197.04C522.594 197.04 520.648 196.773 518.808 196.24C516.968 195.733 515.448 194.987 514.248 194L516.488 190.24C517.421 191.013 518.594 191.627 520.008 192.08C521.448 192.56 522.901 192.8 524.368 192.8C526.714 192.8 528.434 192.267 529.528 191.2C530.621 190.133 531.168 188.507 531.168 186.32V185.2C530.314 186.133 529.274 186.84 528.048 187.32C526.821 187.8 525.474 188.04 524.008 188.04C521.981 188.04 520.141 187.613 518.488 186.76C516.861 185.88 515.568 184.653 514.608 183.08C513.674 181.507 513.208 179.707 513.208 177.68C513.208 175.653 513.674 173.867 514.608 172.32C515.568 170.747 516.861 169.533 518.488 168.68C520.141 167.827 521.981 167.4 524.008 167.4C525.554 167.4 526.954 167.653 528.208 168.16C529.488 168.667 530.554 169.44 531.408 170.48V167.64H536.168ZM524.768 183.8C526.661 183.8 528.208 183.24 529.408 182.12C530.634 180.973 531.248 179.493 531.248 177.68C531.248 175.893 530.634 174.44 529.408 173.32C528.208 172.2 526.661 171.64 524.768 171.64C522.848 171.64 521.274 172.2 520.048 173.32C518.848 174.44 518.248 175.893 518.248 177.68C518.248 179.493 518.848 180.973 520.048 182.12C521.274 183.24 522.848 183.8 524.768 183.8ZM563.421 167.64V189H558.661V186.28C557.861 187.24 556.861 187.987 555.661 188.52C554.461 189.027 553.168 189.28 551.781 189.28C548.928 189.28 546.674 188.493 545.021 186.92C543.394 185.32 542.581 182.96 542.581 179.84V167.64H547.581V179.16C547.581 181.08 548.008 182.52 548.861 183.48C549.741 184.413 550.981 184.88 552.581 184.88C554.368 184.88 555.781 184.333 556.821 183.24C557.888 182.12 558.421 180.52 558.421 178.44V167.64H563.421ZM576.568 189.28C574.834 189.28 573.141 189.053 571.488 188.6C569.834 188.147 568.514 187.573 567.528 186.88L569.448 183.08C570.408 183.72 571.554 184.24 572.888 184.64C574.248 185.013 575.581 185.2 576.888 185.2C579.874 185.2 581.368 184.413 581.368 182.84C581.368 182.093 580.981 181.573 580.208 181.28C579.461 180.987 578.248 180.707 576.568 180.44C574.808 180.173 573.368 179.867 572.248 179.52C571.154 179.173 570.194 178.573 569.368 177.72C568.568 176.84 568.168 175.627 568.168 174.08C568.168 172.053 569.008 170.44 570.688 169.24C572.394 168.013 574.688 167.4 577.568 167.4C579.034 167.4 580.501 167.573 581.968 167.92C583.434 168.24 584.634 168.68 585.568 169.24L583.648 173.04C581.834 171.973 579.794 171.44 577.528 171.44C576.061 171.44 574.941 171.667 574.168 172.12C573.421 172.547 573.048 173.12 573.048 173.84C573.048 174.64 573.448 175.213 574.248 175.56C575.074 175.88 576.341 176.187 578.048 176.48C579.754 176.747 581.154 177.053 582.248 177.4C583.341 177.747 584.274 178.333 585.048 179.16C585.848 179.987 586.248 181.16 586.248 182.68C586.248 184.68 585.381 186.28 583.648 187.48C581.914 188.68 579.554 189.28 576.568 189.28ZM603.393 187.84C602.807 188.32 602.087 188.68 601.233 188.92C600.407 189.16 599.527 189.28 598.593 189.28C596.247 189.28 594.433 188.667 593.153 187.44C591.873 186.213 591.233 184.427 591.233 182.08V171.8H587.713V167.8H591.233V162.92H596.233V167.8H601.953V171.8H596.233V181.96C596.233 183 596.487 183.8 596.993 184.36C597.5 184.893 598.233 185.16 599.193 185.16C600.313 185.16 601.247 184.867 601.993 184.28L603.393 187.84ZM628.187 167.64V189H623.427V186.28C622.627 187.24 621.627 187.987 620.427 188.52C619.227 189.027 617.933 189.28 616.547 189.28C613.693 189.28 611.44 188.493 609.787 186.92C608.16 185.32 607.347 182.96 607.347 179.84V167.64H612.347V179.16C612.347 181.08 612.773 182.52 613.627 183.48C614.507 184.413 615.747 184.88 617.347 184.88C619.133 184.88 620.547 184.333 621.587 183.24C622.653 182.12 623.187 180.52 623.187 178.44V167.64H628.187ZM641.333 189.28C639.6 189.28 637.906 189.053 636.253 188.6C634.6 188.147 633.28 187.573 632.293 186.88L634.213 183.08C635.173 183.72 636.32 184.24 637.653 184.64C639.013 185.013 640.346 185.2 641.653 185.2C644.64 185.2 646.133 184.413 646.133 182.84C646.133 182.093 645.746 181.573 644.973 181.28C644.226 180.987 643.013 180.707 641.333 180.44C639.573 180.173 638.133 179.867 637.013 179.52C635.92 179.173 634.96 178.573 634.133 177.72C633.333 176.84 632.933 175.627 632.933 174.08C632.933 172.053 633.773 170.44 635.453 169.24C637.16 168.013 639.453 167.4 642.333 167.4C643.8 167.4 645.266 167.573 646.733 167.92C648.2 168.24 649.4 168.68 650.333 169.24L648.413 173.04C646.6 171.973 644.56 171.44 642.293 171.44C640.826 171.44 639.706 171.667 638.933 172.12C638.186 172.547 637.813 173.12 637.813 173.84C637.813 174.64 638.213 175.213 639.013 175.56C639.84 175.88 641.106 176.187 642.813 176.48C644.52 176.747 645.92 177.053 647.013 177.4C648.106 177.747 649.04 178.333 649.813 179.16C650.613 179.987 651.013 181.16 651.013 182.68C651.013 184.68 650.146 186.28 648.413 187.48C646.68 188.68 644.32 189.28 641.333 189.28ZM685.134 184.6V189H664.494V185.52L675.614 174.96C676.867 173.76 677.707 172.72 678.134 171.84C678.587 170.933 678.814 170.04 678.814 169.16C678.814 167.853 678.374 166.853 677.494 166.16C676.614 165.467 675.32 165.12 673.614 165.12C670.76 165.12 668.574 166.093 667.054 168.04L663.414 165.24C664.507 163.773 665.974 162.64 667.814 161.84C669.68 161.013 671.76 160.6 674.054 160.6C677.094 160.6 679.52 161.32 681.334 162.76C683.147 164.2 684.054 166.16 684.054 168.64C684.054 170.16 683.734 171.587 683.094 172.92C682.454 174.253 681.227 175.773 679.414 177.48L671.934 184.6H685.134ZM699.698 189.4C697.458 189.4 695.458 188.84 693.698 187.72C691.938 186.573 690.551 184.92 689.538 182.76C688.524 180.573 688.018 177.987 688.018 175C688.018 172.013 688.524 169.44 689.538 167.28C690.551 165.093 691.938 163.44 693.698 162.32C695.458 161.173 697.458 160.6 699.698 160.6C701.938 160.6 703.938 161.173 705.698 162.32C707.484 163.44 708.884 165.093 709.898 167.28C710.911 169.44 711.418 172.013 711.418 175C711.418 177.987 710.911 180.573 709.898 182.76C708.884 184.92 707.484 186.573 705.698 187.72C703.938 188.84 701.938 189.4 699.698 189.4ZM699.698 184.88C701.698 184.88 703.271 184.053 704.418 182.4C705.591 180.747 706.178 178.28 706.178 175C706.178 171.72 705.591 169.253 704.418 167.6C703.271 165.947 701.698 165.12 699.698 165.12C697.724 165.12 696.151 165.947 694.978 167.6C693.831 169.253 693.258 171.72 693.258 175C693.258 178.28 693.831 180.747 694.978 182.4C696.151 184.053 697.724 184.88 699.698 184.88ZM735.017 184.6V189H714.377V185.52L725.497 174.96C726.75 173.76 727.59 172.72 728.017 171.84C728.47 170.933 728.697 170.04 728.697 169.16C728.697 167.853 728.257 166.853 727.377 166.16C726.497 165.467 725.203 165.12 723.497 165.12C720.643 165.12 718.457 166.093 716.937 168.04L713.297 165.24C714.39 163.773 715.857 162.64 717.697 161.84C719.563 161.013 721.643 160.6 723.937 160.6C726.977 160.6 729.403 161.32 731.217 162.76C733.03 164.2 733.937 166.16 733.937 168.64C733.937 170.16 733.617 171.587 732.977 172.92C732.337 174.253 731.11 175.773 729.297 177.48L721.817 184.6H735.017ZM749.581 189.4C747.341 189.4 745.341 188.84 743.581 187.72C741.821 186.573 740.434 184.92 739.421 182.76C738.407 180.573 737.901 177.987 737.901 175C737.901 172.013 738.407 169.44 739.421 167.28C740.434 165.093 741.821 163.44 743.581 162.32C745.341 161.173 747.341 160.6 749.581 160.6C751.821 160.6 753.821 161.173 755.581 162.32C757.367 163.44 758.767 165.093 759.781 167.28C760.794 169.44 761.301 172.013 761.301 175C761.301 177.987 760.794 180.573 759.781 182.76C758.767 184.92 757.367 186.573 755.581 187.72C753.821 188.84 751.821 189.4 749.581 189.4ZM749.581 184.88C751.581 184.88 753.154 184.053 754.301 182.4C755.474 180.747 756.061 178.28 756.061 175C756.061 171.72 755.474 169.253 754.301 167.6C753.154 165.947 751.581 165.12 749.581 165.12C747.607 165.12 746.034 165.947 744.861 167.6C743.714 169.253 743.141 171.72 743.141 175C743.141 178.28 743.714 180.747 744.861 182.4C746.034 184.053 747.607 184.88 749.581 184.88ZM789.509 167.4C792.203 167.4 794.363 168.187 795.989 169.76C797.616 171.333 798.429 173.667 798.429 176.76V189H793.429V177.4C793.429 175.533 792.989 174.133 792.109 173.2C791.229 172.24 789.976 171.76 788.349 171.76C786.509 171.76 785.056 172.32 783.989 173.44C782.923 174.533 782.389 176.12 782.389 178.2V189H777.389V159.32H782.389V170.12C783.216 169.24 784.229 168.573 785.429 168.12C786.656 167.64 788.016 167.4 789.509 167.4ZM804.772 167.64H809.772V189H804.772V167.64ZM807.292 164.12C806.386 164.12 805.626 163.84 805.012 163.28C804.399 162.693 804.092 161.973 804.092 161.12C804.092 160.267 804.399 159.56 805.012 159C805.626 158.413 806.386 158.12 807.292 158.12C808.199 158.12 808.959 158.4 809.572 158.96C810.186 159.493 810.492 160.173 810.492 161C810.492 161.88 810.186 162.627 809.572 163.24C808.986 163.827 808.226 164.12 807.292 164.12ZM828.455 167.4C831.148 167.4 833.308 168.187 834.935 169.76C836.561 171.333 837.375 173.667 837.375 176.76V189H832.375V177.4C832.375 175.533 831.935 174.133 831.055 173.2C830.175 172.24 828.921 171.76 827.295 171.76C825.455 171.76 824.001 172.32 822.935 173.44C821.868 174.533 821.335 176.12 821.335 178.2V189H816.335V167.64H821.095V170.4C821.921 169.413 822.961 168.667 824.215 168.16C825.468 167.653 826.881 167.4 828.455 167.4ZM865.113 167.64V185.76C865.113 193.28 861.273 197.04 853.593 197.04C851.539 197.04 849.593 196.773 847.753 196.24C845.913 195.733 844.393 194.987 843.193 194L845.433 190.24C846.366 191.013 847.539 191.627 848.953 192.08C850.393 192.56 851.846 192.8 853.313 192.8C855.659 192.8 857.379 192.267 858.473 191.2C859.566 190.133 860.113 188.507 860.113 186.32V185.2C859.259 186.133 858.219 186.84 856.993 187.32C855.766 187.8 854.419 188.04 852.953 188.04C850.926 188.04 849.086 187.613 847.433 186.76C845.806 185.88 844.513 184.653 843.553 183.08C842.619 181.507 842.153 179.707 842.153 177.68C842.153 175.653 842.619 173.867 843.553 172.32C844.513 170.747 845.806 169.533 847.433 168.68C849.086 167.827 850.926 167.4 852.953 167.4C854.499 167.4 855.899 167.653 857.153 168.16C858.433 168.667 859.499 169.44 860.353 170.48V167.64H865.113ZM853.713 183.8C855.606 183.8 857.153 183.24 858.353 182.12C859.579 180.973 860.193 179.493 860.193 177.68C860.193 175.893 859.579 174.44 858.353 173.32C857.153 172.2 855.606 171.64 853.713 171.64C851.793 171.64 850.219 172.2 848.993 173.32C847.793 174.44 847.193 175.893 847.193 177.68C847.193 179.493 847.793 180.973 848.993 182.12C850.219 183.24 851.793 183.8 853.713 183.8ZM892.886 167.64V185.76C892.886 193.28 889.046 197.04 881.366 197.04C879.313 197.04 877.366 196.773 875.526 196.24C873.686 195.733 872.166 194.987 870.966 194L873.206 190.24C874.14 191.013 875.313 191.627 876.726 192.08C878.166 192.56 879.62 192.8 881.086 192.8C883.433 192.8 885.153 192.267 886.246 191.2C887.34 190.133 887.886 188.507 887.886 186.32V185.2C887.033 186.133 885.993 186.84 884.766 187.32C883.54 187.8 882.193 188.04 880.726 188.04C878.7 188.04 876.86 187.613 875.206 186.76C873.58 185.88 872.286 184.653 871.326 183.08C870.393 181.507 869.926 179.707 869.926 177.68C869.926 175.653 870.393 173.867 871.326 172.32C872.286 170.747 873.58 169.533 875.206 168.68C876.86 167.827 878.7 167.4 880.726 167.4C882.273 167.4 883.673 167.653 884.926 168.16C886.206 168.667 887.273 169.44 888.126 170.48V167.64H892.886ZM881.486 183.8C883.38 183.8 884.926 183.24 886.126 182.12C887.353 180.973 887.966 179.493 887.966 177.68C887.966 175.893 887.353 174.44 886.126 173.32C884.926 172.2 883.38 171.64 881.486 171.64C879.566 171.64 877.993 172.2 876.766 173.32C875.566 174.44 874.966 175.893 874.966 177.68C874.966 179.493 875.566 180.973 876.766 182.12C877.993 183.24 879.566 183.8 881.486 183.8ZM907.62 167.4C910.766 167.4 913.166 168.16 914.82 169.68C916.5 171.173 917.34 173.44 917.34 176.48V189H912.62V186.4C912.006 187.333 911.126 188.053 909.98 188.56C908.86 189.04 907.5 189.28 905.9 189.28C904.3 189.28 902.9 189.013 901.7 188.48C900.5 187.92 899.566 187.16 898.9 186.2C898.26 185.213 897.94 184.107 897.94 182.88C897.94 180.96 898.646 179.427 900.06 178.28C901.5 177.107 903.753 176.52 906.82 176.52H912.34V176.2C912.34 174.707 911.886 173.56 910.98 172.76C910.1 171.96 908.78 171.56 907.02 171.56C905.82 171.56 904.633 171.747 903.46 172.12C902.313 172.493 901.34 173.013 900.54 173.68L898.58 170.04C899.7 169.187 901.046 168.533 902.62 168.08C904.193 167.627 905.86 167.4 907.62 167.4ZM906.94 185.64C908.193 185.64 909.3 185.36 910.26 184.8C911.246 184.213 911.94 183.387 912.34 182.32V179.84H907.18C904.3 179.84 902.86 180.787 902.86 182.68C902.86 183.587 903.22 184.307 903.94 184.84C904.66 185.373 905.66 185.64 906.94 185.64ZM942.971 161V189H937.771V165.36H931.851V161H942.971ZM957.286 171.84C961.232 171.84 964.152 172.613 966.046 174.16C967.939 175.68 968.886 177.76 968.886 180.4C968.886 182.08 968.472 183.6 967.646 184.96C966.819 186.32 965.579 187.4 963.926 188.2C962.272 189 960.232 189.4 957.806 189.4C955.806 189.4 953.872 189.12 952.006 188.56C950.139 187.973 948.566 187.173 947.286 186.16L949.486 182.12C950.526 182.973 951.766 183.653 953.206 184.16C954.672 184.64 956.179 184.88 957.726 184.88C959.566 184.88 961.006 184.507 962.046 183.76C963.112 182.987 963.646 181.933 963.646 180.6C963.646 179.16 963.072 178.08 961.926 177.36C960.806 176.613 958.872 176.24 956.126 176.24H949.366L950.806 161H967.246V165.36H955.206L954.606 171.84H957.286ZM209.44 238.4C207.28 238.4 205.187 238.093 203.16 237.48C201.16 236.867 199.573 236.053 198.4 235.04L200.2 231C201.347 231.907 202.747 232.653 204.4 233.24C206.08 233.8 207.76 234.08 209.44 234.08C211.52 234.08 213.067 233.747 214.08 233.08C215.12 232.413 215.64 231.533 215.64 230.44C215.64 229.64 215.347 228.987 214.76 228.48C214.2 227.947 213.48 227.533 212.6 227.24C211.72 226.947 210.52 226.613 209 226.24C206.867 225.733 205.133 225.227 203.8 224.72C202.493 224.213 201.36 223.427 200.4 222.36C199.467 221.267 199 219.8 199 217.96C199 216.413 199.413 215.013 200.24 213.76C201.093 212.48 202.36 211.467 204.04 210.72C205.747 209.973 207.827 209.6 210.28 209.6C211.987 209.6 213.667 209.813 215.32 210.24C216.973 210.667 218.4 211.28 219.6 212.08L217.96 216.12C216.733 215.4 215.453 214.853 214.12 214.48C212.787 214.107 211.493 213.92 210.24 213.92C208.187 213.92 206.653 214.267 205.64 214.96C204.653 215.653 204.16 216.573 204.16 217.72C204.16 218.52 204.44 219.173 205 219.68C205.587 220.187 206.32 220.587 207.2 220.88C208.08 221.173 209.28 221.507 210.8 221.88C212.88 222.36 214.587 222.867 215.92 223.4C217.253 223.907 218.387 224.693 219.32 225.76C220.28 226.827 220.76 228.267 220.76 230.08C220.76 231.627 220.333 233.027 219.48 234.28C218.653 235.533 217.387 236.533 215.68 237.28C213.973 238.027 211.893 238.4 209.44 238.4ZM245.516 227.44C245.516 227.787 245.49 228.28 245.436 228.92H228.676C228.97 230.493 229.73 231.747 230.956 232.68C232.21 233.587 233.756 234.04 235.596 234.04C237.943 234.04 239.876 233.267 241.396 231.72L244.076 234.8C243.116 235.947 241.903 236.813 240.436 237.4C238.97 237.987 237.316 238.28 235.476 238.28C233.13 238.28 231.063 237.813 229.276 236.88C227.49 235.947 226.103 234.653 225.116 233C224.156 231.32 223.676 229.427 223.676 227.32C223.676 225.24 224.143 223.373 225.076 221.72C226.036 220.04 227.356 218.733 229.036 217.8C230.716 216.867 232.61 216.4 234.716 216.4C236.796 216.4 238.65 216.867 240.276 217.8C241.93 218.707 243.21 220 244.116 221.68C245.05 223.333 245.516 225.253 245.516 227.44ZM234.716 220.4C233.116 220.4 231.756 220.88 230.636 221.84C229.543 222.773 228.876 224.027 228.636 225.6H240.756C240.543 224.053 239.89 222.8 238.796 221.84C237.703 220.88 236.343 220.4 234.716 220.4ZM262.159 216.4C264.239 216.4 266.092 216.853 267.719 217.76C269.372 218.667 270.666 219.947 271.599 221.6C272.532 223.253 272.999 225.16 272.999 227.32C272.999 229.48 272.532 231.4 271.599 233.08C270.666 234.733 269.372 236.013 267.719 236.92C266.092 237.827 264.239 238.28 262.159 238.28C259.279 238.28 256.999 237.32 255.319 235.4V245.76H250.319V216.64H255.079V219.44C255.906 218.427 256.919 217.667 258.119 217.16C259.346 216.653 260.692 216.4 262.159 216.4ZM261.599 234C263.439 234 264.946 233.387 266.119 232.16C267.319 230.933 267.919 229.32 267.919 227.32C267.919 225.32 267.319 223.707 266.119 222.48C264.946 221.253 263.439 220.64 261.599 220.64C260.399 220.64 259.319 220.92 258.359 221.48C257.399 222.013 256.639 222.787 256.079 223.8C255.519 224.813 255.239 225.987 255.239 227.32C255.239 228.653 255.519 229.827 256.079 230.84C256.639 231.853 257.399 232.64 258.359 233.2C259.319 233.733 260.399 234 261.599 234ZM290.581 236.84C289.994 237.32 289.274 237.68 288.421 237.92C287.594 238.16 286.714 238.28 285.781 238.28C283.434 238.28 281.621 237.667 280.341 236.44C279.061 235.213 278.421 233.427 278.421 231.08V220.8H274.901V216.8H278.421V211.92H283.421V216.8H289.141V220.8H283.421V230.96C283.421 232 283.674 232.8 284.181 233.36C284.688 233.893 285.421 234.16 286.381 234.16C287.501 234.16 288.434 233.867 289.181 233.28L290.581 236.84ZM314.071 227.44C314.071 227.787 314.044 228.28 313.991 228.92H297.231C297.524 230.493 298.284 231.747 299.511 232.68C300.764 233.587 302.311 234.04 304.151 234.04C306.498 234.04 308.431 233.267 309.951 231.72L312.631 234.8C311.671 235.947 310.458 236.813 308.991 237.4C307.524 237.987 305.871 238.28 304.031 238.28C301.684 238.28 299.618 237.813 297.831 236.88C296.044 235.947 294.658 234.653 293.671 233C292.711 231.32 292.231 229.427 292.231 227.32C292.231 225.24 292.698 223.373 293.631 221.72C294.591 220.04 295.911 218.733 297.591 217.8C299.271 216.867 301.164 216.4 303.271 216.4C305.351 216.4 307.204 216.867 308.831 217.8C310.484 218.707 311.764 220 312.671 221.68C313.604 223.333 314.071 225.253 314.071 227.44ZM303.271 220.4C301.671 220.4 300.311 220.88 299.191 221.84C298.098 222.773 297.431 224.027 297.191 225.6H309.311C309.098 224.053 308.444 222.8 307.351 221.84C306.258 220.88 304.898 220.4 303.271 220.4ZM345.834 216.4C348.527 216.4 350.66 217.187 352.234 218.76C353.807 220.307 354.594 222.64 354.594 225.76V238H349.594V226.4C349.594 224.533 349.18 223.133 348.354 222.2C347.527 221.24 346.34 220.76 344.794 220.76C343.114 220.76 341.767 221.32 340.754 222.44C339.74 223.533 339.234 225.107 339.234 227.16V238H334.234V226.4C334.234 224.533 333.82 223.133 332.994 222.2C332.167 221.24 330.98 220.76 329.434 220.76C327.727 220.76 326.367 221.307 325.354 222.4C324.367 223.493 323.874 225.08 323.874 227.16V238H318.874V216.64H323.634V219.36C324.434 218.4 325.434 217.667 326.634 217.16C327.834 216.653 329.167 216.4 330.634 216.4C332.234 216.4 333.647 216.707 334.874 217.32C336.127 217.907 337.114 218.787 337.834 219.96C338.714 218.84 339.847 217.973 341.234 217.36C342.62 216.72 344.154 216.4 345.834 216.4ZM372.823 216.4C374.903 216.4 376.756 216.853 378.383 217.76C380.036 218.667 381.33 219.947 382.263 221.6C383.196 223.253 383.663 225.16 383.663 227.32C383.663 229.48 383.196 231.4 382.263 233.08C381.33 234.733 380.036 236.013 378.383 236.92C376.756 237.827 374.903 238.28 372.823 238.28C371.356 238.28 370.01 238.027 368.783 237.52C367.583 237.013 366.57 236.253 365.743 235.24V238H360.983V208.32H365.983V219.24C366.836 218.307 367.836 217.6 368.983 217.12C370.156 216.64 371.436 216.4 372.823 216.4ZM372.263 234C374.103 234 375.61 233.387 376.783 232.16C377.983 230.933 378.583 229.32 378.583 227.32C378.583 225.32 377.983 223.707 376.783 222.48C375.61 221.253 374.103 220.64 372.263 220.64C371.063 220.64 369.983 220.92 369.023 221.48C368.063 222.013 367.303 222.787 366.743 223.8C366.183 224.813 365.903 225.987 365.903 227.32C365.903 228.653 366.183 229.827 366.743 230.84C367.303 231.853 368.063 232.64 369.023 233.2C369.983 233.733 371.063 234 372.263 234ZM408.485 227.44C408.485 227.787 408.458 228.28 408.405 228.92H391.645C391.938 230.493 392.698 231.747 393.925 232.68C395.178 233.587 396.725 234.04 398.565 234.04C400.912 234.04 402.845 233.267 404.365 231.72L407.045 234.8C406.085 235.947 404.872 236.813 403.405 237.4C401.938 237.987 400.285 238.28 398.445 238.28C396.098 238.28 394.032 237.813 392.245 236.88C390.458 235.947 389.072 234.653 388.085 233C387.125 231.32 386.645 229.427 386.645 227.32C386.645 225.24 387.112 223.373 388.045 221.72C389.005 220.04 390.325 218.733 392.005 217.8C393.685 216.867 395.578 216.4 397.685 216.4C399.765 216.4 401.618 216.867 403.245 217.8C404.898 218.707 406.178 220 407.085 221.68C408.018 223.333 408.485 225.253 408.485 227.44ZM397.685 220.4C396.085 220.4 394.725 220.88 393.605 221.84C392.512 222.773 391.845 224.027 391.605 225.6H403.725C403.512 224.053 402.858 222.8 401.765 221.84C400.672 220.88 399.312 220.4 397.685 220.4ZM418.048 219.76C419.488 217.52 422.021 216.4 425.648 216.4V221.16C425.221 221.08 424.834 221.04 424.488 221.04C422.541 221.04 421.021 221.613 419.928 222.76C418.834 223.88 418.288 225.507 418.288 227.64V238H413.288V216.64H418.048V219.76ZM459.899 233.6V238H439.259V234.52L450.379 223.96C451.633 222.76 452.473 221.72 452.899 220.84C453.353 219.933 453.579 219.04 453.579 218.16C453.579 216.853 453.139 215.853 452.259 215.16C451.379 214.467 450.086 214.12 448.379 214.12C445.526 214.12 443.339 215.093 441.819 217.04L438.179 214.24C439.273 212.773 440.739 211.64 442.579 210.84C444.446 210.013 446.526 209.6 448.819 209.6C451.859 209.6 454.286 210.32 456.099 211.76C457.913 213.2 458.819 215.16 458.819 217.64C458.819 219.16 458.499 220.587 457.859 221.92C457.219 223.253 455.993 224.773 454.179 226.48L446.699 233.6H459.899ZM474.463 238.4C472.223 238.4 470.223 237.84 468.463 236.72C466.703 235.573 465.317 233.92 464.303 231.76C463.29 229.573 462.783 226.987 462.783 224C462.783 221.013 463.29 218.44 464.303 216.28C465.317 214.093 466.703 212.44 468.463 211.32C470.223 210.173 472.223 209.6 474.463 209.6C476.703 209.6 478.703 210.173 480.463 211.32C482.25 212.44 483.65 214.093 484.663 216.28C485.677 218.44 486.183 221.013 486.183 224C486.183 226.987 485.677 229.573 484.663 231.76C483.65 233.92 482.25 235.573 480.463 236.72C478.703 237.84 476.703 238.4 474.463 238.4ZM474.463 233.88C476.463 233.88 478.037 233.053 479.183 231.4C480.357 229.747 480.943 227.28 480.943 224C480.943 220.72 480.357 218.253 479.183 216.6C478.037 214.947 476.463 214.12 474.463 214.12C472.49 214.12 470.917 214.947 469.743 216.6C468.597 218.253 468.023 220.72 468.023 224C468.023 227.28 468.597 229.747 469.743 231.4C470.917 233.053 472.49 233.88 474.463 233.88ZM509.782 233.6V238H489.142V234.52L500.262 223.96C501.516 222.76 502.356 221.72 502.782 220.84C503.236 219.933 503.462 219.04 503.462 218.16C503.462 216.853 503.022 215.853 502.142 215.16C501.262 214.467 499.969 214.12 498.262 214.12C495.409 214.12 493.222 215.093 491.702 217.04L488.062 214.24C489.156 212.773 490.622 211.64 492.462 210.84C494.329 210.013 496.409 209.6 498.702 209.6C501.742 209.6 504.169 210.32 505.982 211.76C507.796 213.2 508.702 215.16 508.702 217.64C508.702 219.16 508.382 220.587 507.742 221.92C507.102 223.253 505.876 224.773 504.062 226.48L496.582 233.6H509.782ZM524.346 238.4C522.106 238.4 520.106 237.84 518.346 236.72C516.586 235.573 515.2 233.92 514.186 231.76C513.173 229.573 512.666 226.987 512.666 224C512.666 221.013 513.173 218.44 514.186 216.28C515.2 214.093 516.586 212.44 518.346 211.32C520.106 210.173 522.106 209.6 524.346 209.6C526.586 209.6 528.586 210.173 530.346 211.32C532.133 212.44 533.533 214.093 534.546 216.28C535.56 218.44 536.066 221.013 536.066 224C536.066 226.987 535.56 229.573 534.546 231.76C533.533 233.92 532.133 235.573 530.346 236.72C528.586 237.84 526.586 238.4 524.346 238.4ZM524.346 233.88C526.346 233.88 527.92 233.053 529.066 231.4C530.24 229.747 530.826 227.28 530.826 224C530.826 220.72 530.24 218.253 529.066 216.6C527.92 214.947 526.346 214.12 524.346 214.12C522.373 214.12 520.8 214.947 519.626 216.6C518.48 218.253 517.906 220.72 517.906 224C517.906 227.28 518.48 229.747 519.626 231.4C520.8 233.053 522.373 233.88 524.346 233.88ZM538.7 245.76C540.327 242.88 541.527 239.907 542.3 236.84C543.074 233.773 543.46 230.507 543.46 227.04C543.46 223.573 543.074 220.307 542.3 217.24C541.527 214.173 540.327 211.2 538.7 208.32H543.46C545.034 210.693 546.234 213.493 547.06 216.72C547.914 219.92 548.34 223.36 548.34 227.04C548.34 230.72 547.914 234.16 547.06 237.36C546.234 240.533 545.034 243.333 543.46 245.76H538.7ZM556.607 223.04C555.7 223.04 554.927 222.733 554.287 222.12C553.647 221.48 553.327 220.68 553.327 219.72C553.327 218.733 553.633 217.933 554.247 217.32C554.887 216.707 555.673 216.4 556.607 216.4C557.54 216.4 558.313 216.707 558.927 217.32C559.567 217.933 559.887 218.733 559.887 219.72C559.887 220.68 559.567 221.48 558.927 222.12C558.287 222.733 557.513 223.04 556.607 223.04ZM556.607 238.28C555.7 238.28 554.927 237.973 554.287 237.36C553.647 236.72 553.327 235.92 553.327 234.96C553.327 233.973 553.633 233.173 554.247 232.56C554.887 231.947 555.673 231.64 556.607 231.64C557.54 231.64 558.313 231.947 558.927 232.56C559.567 233.173 559.887 233.973 559.887 234.96C559.887 235.92 559.567 236.72 558.927 237.36C558.287 237.973 557.513 238.28 556.607 238.28ZM594.627 238L588.907 229.8C588.667 229.827 588.307 229.84 587.827 229.84H581.507V238H576.307V210H587.827C590.254 210 592.36 210.4 594.147 211.2C595.96 212 597.347 213.147 598.307 214.64C599.267 216.133 599.747 217.907 599.747 219.96C599.747 222.067 599.227 223.88 598.187 225.4C597.174 226.92 595.707 228.053 593.787 228.8L600.227 238H594.627ZM594.507 219.96C594.507 218.173 593.92 216.8 592.747 215.84C591.574 214.88 589.854 214.4 587.587 214.4H581.507V225.56H587.587C589.854 225.56 591.574 225.08 592.747 224.12C593.92 223.133 594.507 221.747 594.507 219.96ZM616.925 216.4C619.005 216.4 620.858 216.853 622.485 217.76C624.138 218.667 625.431 219.947 626.365 221.6C627.298 223.253 627.765 225.16 627.765 227.32C627.765 229.48 627.298 231.4 626.365 233.08C625.431 234.733 624.138 236.013 622.485 236.92C620.858 237.827 619.005 238.28 616.925 238.28C614.045 238.28 611.765 237.32 610.085 235.4V245.76H605.085V216.64H609.845V219.44C610.671 218.427 611.685 217.667 612.885 217.16C614.111 216.653 615.458 216.4 616.925 216.4ZM616.365 234C618.205 234 619.711 233.387 620.885 232.16C622.085 230.933 622.685 229.32 622.685 227.32C622.685 225.32 622.085 223.707 620.885 222.48C619.711 221.253 618.205 220.64 616.365 220.64C615.165 220.64 614.085 220.92 613.125 221.48C612.165 222.013 611.405 222.787 610.845 223.8C610.285 224.813 610.005 225.987 610.005 227.32C610.005 228.653 610.285 229.827 610.845 230.84C611.405 231.853 612.165 232.64 613.125 233.2C614.085 233.733 615.165 234 616.365 234ZM654.761 220.72C656.601 220.72 658.255 221.08 659.721 221.8C661.188 222.493 662.335 223.493 663.161 224.8C663.988 226.107 664.401 227.613 664.401 229.32C664.401 231.133 663.948 232.733 663.041 234.12C662.135 235.48 660.908 236.533 659.361 237.28C657.815 238.027 656.081 238.4 654.161 238.4C650.321 238.4 647.335 237.2 645.201 234.8C643.095 232.4 642.041 228.96 642.041 224.48C642.041 221.333 642.615 218.653 643.761 216.44C644.908 214.2 646.508 212.507 648.561 211.36C650.641 210.187 653.041 209.6 655.761 209.6C657.201 209.6 658.548 209.76 659.801 210.08C661.081 210.373 662.188 210.813 663.121 211.4L661.201 215.32C659.815 214.413 658.041 213.96 655.881 213.96C653.188 213.96 651.081 214.787 649.561 216.44C648.041 218.093 647.281 220.48 647.281 223.6V223.64C648.108 222.68 649.161 221.96 650.441 221.48C651.721 220.973 653.161 220.72 654.761 220.72ZM653.881 234.32C655.508 234.32 656.828 233.893 657.841 233.04C658.855 232.16 659.361 231 659.361 229.56C659.361 228.093 658.855 226.933 657.841 226.08C656.828 225.227 655.468 224.8 653.761 224.8C652.081 224.8 650.708 225.253 649.641 226.16C648.601 227.067 648.081 228.213 648.081 229.6C648.081 230.96 648.588 232.093 649.601 233C650.641 233.88 652.068 234.32 653.881 234.32ZM678.799 238.4C676.559 238.4 674.559 237.84 672.799 236.72C671.039 235.573 669.653 233.92 668.639 231.76C667.626 229.573 667.119 226.987 667.119 224C667.119 221.013 667.626 218.44 668.639 216.28C669.653 214.093 671.039 212.44 672.799 211.32C674.559 210.173 676.559 209.6 678.799 209.6C681.039 209.6 683.039 210.173 684.799 211.32C686.586 212.44 687.986 214.093 688.999 216.28C690.013 218.44 690.519 221.013 690.519 224C690.519 226.987 690.013 229.573 688.999 231.76C687.986 233.92 686.586 235.573 684.799 236.72C683.039 237.84 681.039 238.4 678.799 238.4ZM678.799 233.88C680.799 233.88 682.373 233.053 683.519 231.4C684.693 229.747 685.279 227.28 685.279 224C685.279 220.72 684.693 218.253 683.519 216.6C682.373 214.947 680.799 214.12 678.799 214.12C676.826 214.12 675.253 214.947 674.079 216.6C672.933 218.253 672.359 220.72 672.359 224C672.359 227.28 672.933 229.747 674.079 231.4C675.253 233.053 676.826 233.88 678.799 233.88ZM696.685 238.28C695.778 238.28 695.005 237.973 694.365 237.36C693.725 236.72 693.405 235.92 693.405 234.96C693.405 233.973 693.711 233.173 694.325 232.56C694.965 231.947 695.751 231.64 696.685 231.64C697.618 231.64 698.391 231.947 699.005 232.56C699.645 233.173 699.965 233.973 699.965 234.96C699.965 235.92 699.645 236.72 699.005 237.36C698.365 237.973 697.591 238.28 696.685 238.28ZM714.542 238.4C712.302 238.4 710.302 237.84 708.542 236.72C706.782 235.573 705.395 233.92 704.382 231.76C703.368 229.573 702.862 226.987 702.862 224C702.862 221.013 703.368 218.44 704.382 216.28C705.395 214.093 706.782 212.44 708.542 211.32C710.302 210.173 712.302 209.6 714.542 209.6C716.782 209.6 718.782 210.173 720.542 211.32C722.328 212.44 723.728 214.093 724.742 216.28C725.755 218.44 726.262 221.013 726.262 224C726.262 226.987 725.755 229.573 724.742 231.76C723.728 233.92 722.328 235.573 720.542 236.72C718.782 237.84 716.782 238.4 714.542 238.4ZM714.542 233.88C716.542 233.88 718.115 233.053 719.262 231.4C720.435 229.747 721.022 227.28 721.022 224C721.022 220.72 720.435 218.253 719.262 216.6C718.115 214.947 716.542 214.12 714.542 214.12C712.568 214.12 710.995 214.947 709.822 216.6C708.675 218.253 708.102 220.72 708.102 224C708.102 227.28 708.675 229.747 709.822 231.4C710.995 233.053 712.568 233.88 714.542 233.88ZM741.456 238.4C739.216 238.4 737.216 237.84 735.456 236.72C733.696 235.573 732.309 233.92 731.296 231.76C730.282 229.573 729.776 226.987 729.776 224C729.776 221.013 730.282 218.44 731.296 216.28C732.309 214.093 733.696 212.44 735.456 211.32C737.216 210.173 739.216 209.6 741.456 209.6C743.696 209.6 745.696 210.173 747.456 211.32C749.242 212.44 750.642 214.093 751.656 216.28C752.669 218.44 753.176 221.013 753.176 224C753.176 226.987 752.669 229.573 751.656 231.76C750.642 233.92 749.242 235.573 747.456 236.72C745.696 237.84 743.696 238.4 741.456 238.4ZM741.456 233.88C743.456 233.88 745.029 233.053 746.176 231.4C747.349 229.747 747.936 227.28 747.936 224C747.936 220.72 747.349 218.253 746.176 216.6C745.029 214.947 743.456 214.12 741.456 214.12C739.482 214.12 737.909 214.947 736.736 216.6C735.589 218.253 735.016 220.72 735.016 224C735.016 227.28 735.589 229.747 736.736 231.4C737.909 233.053 739.482 233.88 741.456 233.88ZM768.37 238.4C766.13 238.4 764.13 237.84 762.37 236.72C760.61 235.573 759.223 233.92 758.21 231.76C757.196 229.573 756.69 226.987 756.69 224C756.69 221.013 757.196 218.44 758.21 216.28C759.223 214.093 760.61 212.44 762.37 211.32C764.13 210.173 766.13 209.6 768.37 209.6C770.61 209.6 772.61 210.173 774.37 211.32C776.156 212.44 777.556 214.093 778.57 216.28C779.583 218.44 780.09 221.013 780.09 224C780.09 226.987 779.583 229.573 778.57 231.76C777.556 233.92 776.156 235.573 774.37 236.72C772.61 237.84 770.61 238.4 768.37 238.4ZM768.37 233.88C770.37 233.88 771.943 233.053 773.09 231.4C774.263 229.747 774.85 227.28 774.85 224C774.85 220.72 774.263 218.253 773.09 216.6C771.943 214.947 770.37 214.12 768.37 214.12C766.396 214.12 764.823 214.947 763.65 216.6C762.503 218.253 761.93 220.72 761.93 224C761.93 227.28 762.503 229.747 763.65 231.4C764.823 233.053 766.396 233.88 768.37 233.88Z" fill="#FFEFEF"/>
<path d="M219.88 307.347H224.8V318.507C223.36 319.653 221.68 320.533 219.76 321.147C217.84 321.76 215.867 322.067 213.84 322.067C210.987 322.067 208.413 321.453 206.12 320.227C203.827 318.973 202.027 317.253 200.72 315.067C199.413 312.88 198.76 310.413 198.76 307.667C198.76 304.92 199.413 302.453 200.72 300.267C202.027 298.08 203.827 296.373 206.12 295.147C208.44 293.893 211.04 293.267 213.92 293.267C216.267 293.267 218.4 293.653 220.32 294.427C222.24 295.2 223.853 296.333 225.16 297.827L221.88 301.027C219.747 298.893 217.173 297.827 214.16 297.827C212.187 297.827 210.427 298.24 208.88 299.067C207.36 299.893 206.16 301.053 205.28 302.547C204.427 304.04 204 305.747 204 307.667C204 309.533 204.427 311.213 205.28 312.707C206.16 314.2 207.36 315.373 208.88 316.227C210.427 317.08 212.173 317.507 214.12 317.507C216.307 317.507 218.227 317.027 219.88 316.067V307.347ZM251.258 311.107C251.258 311.453 251.232 311.947 251.178 312.587H234.418C234.712 314.16 235.472 315.413 236.698 316.347C237.952 317.253 239.498 317.707 241.338 317.707C243.685 317.707 245.618 316.933 247.138 315.387L249.818 318.467C248.858 319.613 247.645 320.48 246.178 321.067C244.712 321.653 243.058 321.947 241.218 321.947C238.872 321.947 236.805 321.48 235.018 320.547C233.232 319.613 231.845 318.32 230.858 316.667C229.898 314.987 229.418 313.093 229.418 310.987C229.418 308.907 229.885 307.04 230.818 305.387C231.778 303.707 233.098 302.4 234.778 301.467C236.458 300.533 238.352 300.067 240.458 300.067C242.538 300.067 244.392 300.533 246.018 301.467C247.672 302.373 248.952 303.667 249.858 305.347C250.792 307 251.258 308.92 251.258 311.107ZM240.458 304.067C238.858 304.067 237.498 304.547 236.378 305.507C235.285 306.44 234.618 307.693 234.378 309.267H246.498C246.285 307.72 245.632 306.467 244.538 305.507C243.445 304.547 242.085 304.067 240.458 304.067ZM268.181 300.067C270.875 300.067 273.035 300.853 274.661 302.427C276.288 304 277.101 306.333 277.101 309.427V321.667H272.101V310.067C272.101 308.2 271.661 306.8 270.781 305.867C269.901 304.907 268.648 304.427 267.021 304.427C265.181 304.427 263.728 304.987 262.661 306.107C261.595 307.2 261.061 308.787 261.061 310.867V321.667H256.061V300.307H260.821V303.067C261.648 302.08 262.688 301.333 263.941 300.827C265.195 300.32 266.608 300.067 268.181 300.067ZM303.719 311.107C303.719 311.453 303.693 311.947 303.639 312.587H286.879C287.173 314.16 287.933 315.413 289.159 316.347C290.413 317.253 291.959 317.707 293.799 317.707C296.146 317.707 298.079 316.933 299.599 315.387L302.279 318.467C301.319 319.613 300.106 320.48 298.639 321.067C297.173 321.653 295.519 321.947 293.679 321.947C291.333 321.947 289.266 321.48 287.479 320.547C285.693 319.613 284.306 318.32 283.319 316.667C282.359 314.987 281.879 313.093 281.879 310.987C281.879 308.907 282.346 307.04 283.279 305.387C284.239 303.707 285.559 302.4 287.239 301.467C288.919 300.533 290.813 300.067 292.919 300.067C294.999 300.067 296.853 300.533 298.479 301.467C300.133 302.373 301.413 303.667 302.319 305.347C303.253 307 303.719 308.92 303.719 311.107ZM292.919 304.067C291.319 304.067 289.959 304.547 288.839 305.507C287.746 306.44 287.079 307.693 286.839 309.267H298.959C298.746 307.72 298.093 306.467 296.999 305.507C295.906 304.547 294.546 304.067 292.919 304.067ZM313.282 303.427C314.722 301.187 317.256 300.067 320.882 300.067V304.827C320.456 304.747 320.069 304.707 319.722 304.707C317.776 304.707 316.256 305.28 315.162 306.427C314.069 307.547 313.522 309.173 313.522 311.307V321.667H308.522V300.307H313.282V303.427ZM333.167 300.067C336.313 300.067 338.713 300.827 340.367 302.347C342.047 303.84 342.887 306.107 342.887 309.147V321.667H338.167V319.067C337.553 320 336.673 320.72 335.527 321.227C334.407 321.707 333.047 321.947 331.447 321.947C329.847 321.947 328.447 321.68 327.247 321.147C326.047 320.587 325.113 319.827 324.447 318.867C323.807 317.88 323.487 316.773 323.487 315.547C323.487 313.627 324.193 312.093 325.607 310.947C327.047 309.773 329.3 309.187 332.367 309.187H337.887V308.867C337.887 307.373 337.433 306.227 336.527 305.427C335.647 304.627 334.327 304.227 332.567 304.227C331.367 304.227 330.18 304.413 329.007 304.787C327.86 305.16 326.887 305.68 326.087 306.347L324.127 302.707C325.247 301.853 326.593 301.2 328.167 300.747C329.74 300.293 331.407 300.067 333.167 300.067ZM332.487 318.307C333.74 318.307 334.847 318.027 335.807 317.467C336.793 316.88 337.487 316.053 337.887 314.987V312.507H332.727C329.847 312.507 328.407 313.453 328.407 315.347C328.407 316.253 328.767 316.973 329.487 317.507C330.207 318.04 331.207 318.307 332.487 318.307ZM349.303 291.987H354.303V321.667H349.303V291.987ZM376.881 329.427C375.307 327 374.094 324.187 373.241 320.987C372.414 317.787 372.001 314.36 372.001 310.707C372.001 307.053 372.414 303.627 373.241 300.427C374.094 297.2 375.307 294.387 376.881 291.987H381.641C380.014 294.867 378.814 297.84 378.041 300.907C377.294 303.947 376.921 307.213 376.921 310.707C376.921 314.2 377.294 317.48 378.041 320.547C378.814 323.587 380.014 326.547 381.641 329.427H376.881ZM394.338 293.667V321.667H389.138V298.027H383.218V293.667H394.338ZM412.613 304.387C414.453 304.387 416.106 304.747 417.573 305.467C419.039 306.16 420.186 307.16 421.013 308.467C421.839 309.773 422.253 311.28 422.253 312.987C422.253 314.8 421.799 316.4 420.893 317.787C419.986 319.147 418.759 320.2 417.213 320.947C415.666 321.693 413.933 322.067 412.013 322.067C408.173 322.067 405.186 320.867 403.053 318.467C400.946 316.067 399.893 312.627 399.893 308.147C399.893 305 400.466 302.32 401.613 300.107C402.759 297.867 404.359 296.173 406.413 295.027C408.493 293.853 410.893 293.267 413.613 293.267C415.053 293.267 416.399 293.427 417.653 293.747C418.933 294.04 420.039 294.48 420.973 295.067L419.053 298.987C417.666 298.08 415.893 297.627 413.733 297.627C411.039 297.627 408.933 298.453 407.413 300.107C405.893 301.76 405.133 304.147 405.133 307.267V307.307C405.959 306.347 407.013 305.627 408.293 305.147C409.573 304.64 411.013 304.387 412.613 304.387ZM411.733 317.987C413.359 317.987 414.679 317.56 415.693 316.707C416.706 315.827 417.213 314.667 417.213 313.227C417.213 311.76 416.706 310.6 415.693 309.747C414.679 308.893 413.319 308.467 411.613 308.467C409.933 308.467 408.559 308.92 407.493 309.827C406.453 310.733 405.933 311.88 405.933 313.267C405.933 314.627 406.439 315.76 407.453 316.667C408.493 317.547 409.919 317.987 411.733 317.987ZM446.706 322.067C444.546 322.067 442.452 321.76 440.426 321.147C438.426 320.533 436.839 319.72 435.666 318.707L437.466 314.667C438.612 315.573 440.012 316.32 441.666 316.907C443.346 317.467 445.026 317.747 446.706 317.747C448.786 317.747 450.332 317.413 451.346 316.747C452.386 316.08 452.906 315.2 452.906 314.107C452.906 313.307 452.612 312.653 452.026 312.147C451.466 311.613 450.746 311.2 449.866 310.907C448.986 310.613 447.786 310.28 446.266 309.907C444.132 309.4 442.399 308.893 441.066 308.387C439.759 307.88 438.626 307.093 437.666 306.027C436.732 304.933 436.266 303.467 436.266 301.627C436.266 300.08 436.679 298.68 437.506 297.427C438.359 296.147 439.626 295.133 441.306 294.387C443.012 293.64 445.092 293.267 447.546 293.267C449.252 293.267 450.932 293.48 452.586 293.907C454.239 294.333 455.666 294.947 456.866 295.747L455.226 299.787C453.999 299.067 452.719 298.52 451.386 298.147C450.052 297.773 448.759 297.587 447.506 297.587C445.452 297.587 443.919 297.933 442.906 298.627C441.919 299.32 441.426 300.24 441.426 301.387C441.426 302.187 441.706 302.84 442.266 303.347C442.852 303.853 443.586 304.253 444.466 304.547C445.346 304.84 446.546 305.173 448.066 305.547C450.146 306.027 451.852 306.533 453.186 307.067C454.519 307.573 455.652 308.36 456.586 309.427C457.546 310.493 458.026 311.933 458.026 313.747C458.026 315.293 457.599 316.693 456.746 317.947C455.919 319.2 454.652 320.2 452.946 320.947C451.239 321.693 449.159 322.067 446.706 322.067ZM482.782 311.107C482.782 311.453 482.755 311.947 482.702 312.587H465.942C466.235 314.16 466.995 315.413 468.222 316.347C469.475 317.253 471.022 317.707 472.862 317.707C475.209 317.707 477.142 316.933 478.662 315.387L481.342 318.467C480.382 319.613 479.169 320.48 477.702 321.067C476.235 321.653 474.582 321.947 472.742 321.947C470.395 321.947 468.329 321.48 466.542 320.547C464.755 319.613 463.369 318.32 462.382 316.667C461.422 314.987 460.942 313.093 460.942 310.987C460.942 308.907 461.409 307.04 462.342 305.387C463.302 303.707 464.622 302.4 466.302 301.467C467.982 300.533 469.875 300.067 471.982 300.067C474.062 300.067 475.915 300.533 477.542 301.467C479.195 302.373 480.475 303.667 481.382 305.347C482.315 307 482.782 308.92 482.782 311.107ZM471.982 304.067C470.382 304.067 469.022 304.547 467.902 305.507C466.809 306.44 466.142 307.693 465.902 309.267H478.022C477.809 307.72 477.155 306.467 476.062 305.507C474.969 304.547 473.609 304.067 471.982 304.067ZM499.425 300.067C501.505 300.067 503.358 300.52 504.985 301.427C506.638 302.333 507.931 303.613 508.865 305.267C509.798 306.92 510.265 308.827 510.265 310.987C510.265 313.147 509.798 315.067 508.865 316.747C507.931 318.4 506.638 319.68 504.985 320.587C503.358 321.493 501.505 321.947 499.425 321.947C496.545 321.947 494.265 320.987 492.585 319.067V329.427H487.585V300.307H492.345V303.107C493.171 302.093 494.185 301.333 495.385 300.827C496.611 300.32 497.958 300.067 499.425 300.067ZM498.865 317.667C500.705 317.667 502.211 317.053 503.385 315.827C504.585 314.6 505.185 312.987 505.185 310.987C505.185 308.987 504.585 307.373 503.385 306.147C502.211 304.92 500.705 304.307 498.865 304.307C497.665 304.307 496.585 304.587 495.625 305.147C494.665 305.68 493.905 306.453 493.345 307.467C492.785 308.48 492.505 309.653 492.505 310.987C492.505 312.32 492.785 313.493 493.345 314.507C493.905 315.52 494.665 316.307 495.625 316.867C496.585 317.4 497.665 317.667 498.865 317.667ZM527.847 320.507C527.26 320.987 526.54 321.347 525.687 321.587C524.86 321.827 523.98 321.947 523.047 321.947C520.7 321.947 518.887 321.333 517.607 320.107C516.327 318.88 515.687 317.093 515.687 314.747V304.467H512.167V300.467H515.687V295.587H520.687V300.467H526.407V304.467H520.687V314.627C520.687 315.667 520.94 316.467 521.447 317.027C521.953 317.56 522.687 317.827 523.647 317.827C524.767 317.827 525.7 317.533 526.447 316.947L527.847 320.507ZM551.337 311.107C551.337 311.453 551.31 311.947 551.257 312.587H534.497C534.79 314.16 535.55 315.413 536.777 316.347C538.03 317.253 539.577 317.707 541.417 317.707C543.763 317.707 545.697 316.933 547.217 315.387L549.897 318.467C548.937 319.613 547.723 320.48 546.257 321.067C544.79 321.653 543.137 321.947 541.297 321.947C538.95 321.947 536.883 321.48 535.097 320.547C533.31 319.613 531.923 318.32 530.937 316.667C529.977 314.987 529.497 313.093 529.497 310.987C529.497 308.907 529.963 307.04 530.897 305.387C531.857 303.707 533.177 302.4 534.857 301.467C536.537 300.533 538.43 300.067 540.537 300.067C542.617 300.067 544.47 300.533 546.097 301.467C547.75 302.373 549.03 303.667 549.937 305.347C550.87 307 551.337 308.92 551.337 311.107ZM540.537 304.067C538.937 304.067 537.577 304.547 536.457 305.507C535.363 306.44 534.697 307.693 534.457 309.267H546.577C546.363 307.72 545.71 306.467 544.617 305.507C543.523 304.547 542.163 304.067 540.537 304.067ZM583.099 300.067C585.793 300.067 587.926 300.853 589.499 302.427C591.073 303.973 591.859 306.307 591.859 309.427V321.667H586.859V310.067C586.859 308.2 586.446 306.8 585.619 305.867C584.793 304.907 583.606 304.427 582.059 304.427C580.379 304.427 579.033 304.987 578.019 306.107C577.006 307.2 576.499 308.773 576.499 310.827V321.667H571.499V310.067C571.499 308.2 571.086 306.8 570.259 305.867C569.433 304.907 568.246 304.427 566.699 304.427C564.993 304.427 563.633 304.973 562.619 306.067C561.633 307.16 561.139 308.747 561.139 310.827V321.667H556.139V300.307H560.899V303.027C561.699 302.067 562.699 301.333 563.899 300.827C565.099 300.32 566.433 300.067 567.899 300.067C569.499 300.067 570.913 300.373 572.139 300.987C573.393 301.573 574.379 302.453 575.099 303.627C575.979 302.507 577.113 301.64 578.499 301.027C579.886 300.387 581.419 300.067 583.099 300.067ZM610.089 300.067C612.169 300.067 614.022 300.52 615.649 301.427C617.302 302.333 618.595 303.613 619.529 305.267C620.462 306.92 620.929 308.827 620.929 310.987C620.929 313.147 620.462 315.067 619.529 316.747C618.595 318.4 617.302 319.68 615.649 320.587C614.022 321.493 612.169 321.947 610.089 321.947C608.622 321.947 607.275 321.693 606.049 321.187C604.849 320.68 603.835 319.92 603.009 318.907V321.667H598.249V291.987H603.249V302.907C604.102 301.973 605.102 301.267 606.249 300.787C607.422 300.307 608.702 300.067 610.089 300.067ZM609.529 317.667C611.369 317.667 612.875 317.053 614.049 315.827C615.249 314.6 615.849 312.987 615.849 310.987C615.849 308.987 615.249 307.373 614.049 306.147C612.875 304.92 611.369 304.307 609.529 304.307C608.329 304.307 607.249 304.587 606.289 305.147C605.329 305.68 604.569 306.453 604.009 307.467C603.449 308.48 603.169 309.653 603.169 310.987C603.169 312.32 603.449 313.493 604.009 314.507C604.569 315.52 605.329 316.307 606.289 316.867C607.249 317.4 608.329 317.667 609.529 317.667ZM645.751 311.107C645.751 311.453 645.724 311.947 645.671 312.587H628.911C629.204 314.16 629.964 315.413 631.191 316.347C632.444 317.253 633.991 317.707 635.831 317.707C638.177 317.707 640.111 316.933 641.631 315.387L644.311 318.467C643.351 319.613 642.137 320.48 640.671 321.067C639.204 321.653 637.551 321.947 635.711 321.947C633.364 321.947 631.297 321.48 629.511 320.547C627.724 319.613 626.337 318.32 625.351 316.667C624.391 314.987 623.911 313.093 623.911 310.987C623.911 308.907 624.377 307.04 625.311 305.387C626.271 303.707 627.591 302.4 629.271 301.467C630.951 300.533 632.844 300.067 634.951 300.067C637.031 300.067 638.884 300.533 640.511 301.467C642.164 302.373 643.444 303.667 644.351 305.347C645.284 307 645.751 308.92 645.751 311.107ZM634.951 304.067C633.351 304.067 631.991 304.547 630.871 305.507C629.777 306.44 629.111 307.693 628.871 309.267H640.991C640.777 307.72 640.124 306.467 639.031 305.507C637.937 304.547 636.577 304.067 634.951 304.067ZM655.313 303.427C656.753 301.187 659.287 300.067 662.913 300.067V304.827C662.487 304.747 662.1 304.707 661.753 304.707C659.807 304.707 658.287 305.28 657.193 306.427C656.1 307.547 655.553 309.173 655.553 311.307V321.667H650.553V300.307H655.313V303.427ZM697.165 317.267V321.667H676.525V318.187L687.645 307.627C688.898 306.427 689.738 305.387 690.165 304.507C690.618 303.6 690.845 302.707 690.845 301.827C690.845 300.52 690.405 299.52 689.525 298.827C688.645 298.133 687.352 297.787 685.645 297.787C682.792 297.787 680.605 298.76 679.085 300.707L675.445 297.907C676.538 296.44 678.005 295.307 679.845 294.507C681.712 293.68 683.792 293.267 686.085 293.267C689.125 293.267 691.552 293.987 693.365 295.427C695.178 296.867 696.085 298.827 696.085 301.307C696.085 302.827 695.765 304.253 695.125 305.587C694.485 306.92 693.258 308.44 691.445 310.147L683.965 317.267H697.165ZM711.729 322.067C709.489 322.067 707.489 321.507 705.729 320.387C703.969 319.24 702.582 317.587 701.569 315.427C700.556 313.24 700.049 310.653 700.049 307.667C700.049 304.68 700.556 302.107 701.569 299.947C702.582 297.76 703.969 296.107 705.729 294.987C707.489 293.84 709.489 293.267 711.729 293.267C713.969 293.267 715.969 293.84 717.729 294.987C719.516 296.107 720.916 297.76 721.929 299.947C722.942 302.107 723.449 304.68 723.449 307.667C723.449 310.653 722.942 313.24 721.929 315.427C720.916 317.587 719.516 319.24 717.729 320.387C715.969 321.507 713.969 322.067 711.729 322.067ZM711.729 317.547C713.729 317.547 715.302 316.72 716.449 315.067C717.622 313.413 718.209 310.947 718.209 307.667C718.209 304.387 717.622 301.92 716.449 300.267C715.302 298.613 713.729 297.787 711.729 297.787C709.756 297.787 708.182 298.613 707.009 300.267C705.862 301.92 705.289 304.387 705.289 307.667C705.289 310.947 705.862 313.413 707.009 315.067C708.182 316.72 709.756 317.547 711.729 317.547ZM747.048 317.267V321.667H726.408V318.187L737.528 307.627C738.781 306.427 739.621 305.387 740.048 304.507C740.501 303.6 740.728 302.707 740.728 301.827C740.728 300.52 740.288 299.52 739.408 298.827C738.528 298.133 737.234 297.787 735.528 297.787C732.674 297.787 730.488 298.76 728.968 300.707L725.328 297.907C726.421 296.44 727.888 295.307 729.728 294.507C731.594 293.68 733.674 293.267 735.968 293.267C739.008 293.267 741.434 293.987 743.248 295.427C745.061 296.867 745.968 298.827 745.968 301.307C745.968 302.827 745.648 304.253 745.008 305.587C744.368 306.92 743.141 308.44 741.328 310.147L733.848 317.267H747.048ZM761.612 322.067C759.372 322.067 757.372 321.507 755.612 320.387C753.852 319.24 752.465 317.587 751.452 315.427C750.439 313.24 749.932 310.653 749.932 307.667C749.932 304.68 750.439 302.107 751.452 299.947C752.465 297.76 753.852 296.107 755.612 294.987C757.372 293.84 759.372 293.267 761.612 293.267C763.852 293.267 765.852 293.84 767.612 294.987C769.399 296.107 770.799 297.76 771.812 299.947C772.825 302.107 773.332 304.68 773.332 307.667C773.332 310.653 772.825 313.24 771.812 315.427C770.799 317.587 769.399 319.24 767.612 320.387C765.852 321.507 763.852 322.067 761.612 322.067ZM761.612 317.547C763.612 317.547 765.185 316.72 766.332 315.067C767.505 313.413 768.092 310.947 768.092 307.667C768.092 304.387 767.505 301.92 766.332 300.267C765.185 298.613 763.612 297.787 761.612 297.787C759.639 297.787 758.065 298.613 756.892 300.267C755.745 301.92 755.172 304.387 755.172 307.667C755.172 310.947 755.745 313.413 756.892 315.067C758.065 316.72 759.639 317.547 761.612 317.547ZM801.541 300.067C804.234 300.067 806.394 300.853 808.021 302.427C809.647 304 810.461 306.333 810.461 309.427V321.667H805.461V310.067C805.461 308.2 805.021 306.8 804.141 305.867C803.261 304.907 802.007 304.427 800.381 304.427C798.541 304.427 797.087 304.987 796.021 306.107C794.954 307.2 794.421 308.787 794.421 310.867V321.667H789.421V291.987H794.421V302.787C795.247 301.907 796.261 301.24 797.461 300.787C798.687 300.307 800.047 300.067 801.541 300.067ZM816.803 300.307H821.803V321.667H816.803V300.307ZM819.323 296.787C818.417 296.787 817.657 296.507 817.043 295.947C816.43 295.36 816.123 294.64 816.123 293.787C816.123 292.933 816.43 292.227 817.043 291.667C817.657 291.08 818.417 290.787 819.323 290.787C820.23 290.787 820.99 291.067 821.603 291.627C822.217 292.16 822.523 292.84 822.523 293.667C822.523 294.547 822.217 295.293 821.603 295.907C821.017 296.493 820.257 296.787 819.323 296.787ZM840.486 300.067C843.179 300.067 845.339 300.853 846.966 302.427C848.593 304 849.406 306.333 849.406 309.427V321.667H844.406V310.067C844.406 308.2 843.966 306.8 843.086 305.867C842.206 304.907 840.953 304.427 839.326 304.427C837.486 304.427 836.033 304.987 834.966 306.107C833.899 307.2 833.366 308.787 833.366 310.867V321.667H828.366V300.307H833.126V303.067C833.953 302.08 834.993 301.333 836.246 300.827C837.499 300.32 838.913 300.067 840.486 300.067ZM877.144 300.307V318.427C877.144 325.947 873.304 329.707 865.624 329.707C863.571 329.707 861.624 329.44 859.784 328.907C857.944 328.4 856.424 327.653 855.224 326.667L857.464 322.907C858.397 323.68 859.571 324.293 860.984 324.747C862.424 325.227 863.877 325.467 865.344 325.467C867.691 325.467 869.411 324.933 870.504 323.867C871.597 322.8 872.144 321.173 872.144 318.987V317.867C871.291 318.8 870.251 319.507 869.024 319.987C867.797 320.467 866.451 320.707 864.984 320.707C862.957 320.707 861.117 320.28 859.464 319.427C857.837 318.547 856.544 317.32 855.584 315.747C854.651 314.173 854.184 312.373 854.184 310.347C854.184 308.32 854.651 306.533 855.584 304.987C856.544 303.413 857.837 302.2 859.464 301.347C861.117 300.493 862.957 300.067 864.984 300.067C866.531 300.067 867.931 300.32 869.184 300.827C870.464 301.333 871.531 302.107 872.384 303.147V300.307H877.144ZM865.744 316.467C867.637 316.467 869.184 315.907 870.384 314.787C871.611 313.64 872.224 312.16 872.224 310.347C872.224 308.56 871.611 307.107 870.384 305.987C869.184 304.867 867.637 304.307 865.744 304.307C863.824 304.307 862.251 304.867 861.024 305.987C859.824 307.107 859.224 308.56 859.224 310.347C859.224 312.16 859.824 313.64 861.024 314.787C862.251 315.907 863.824 316.467 865.744 316.467ZM904.918 300.307V318.427C904.918 325.947 901.078 329.707 893.398 329.707C891.344 329.707 889.398 329.44 887.558 328.907C885.718 328.4 884.198 327.653 882.998 326.667L885.238 322.907C886.171 323.68 887.344 324.293 888.758 324.747C890.198 325.227 891.651 325.467 893.118 325.467C895.464 325.467 897.184 324.933 898.278 323.867C899.371 322.8 899.918 321.173 899.918 318.987V317.867C899.064 318.8 898.024 319.507 896.798 319.987C895.571 320.467 894.224 320.707 892.758 320.707C890.731 320.707 888.891 320.28 887.238 319.427C885.611 318.547 884.318 317.32 883.358 315.747C882.424 314.173 881.958 312.373 881.958 310.347C881.958 308.32 882.424 306.533 883.358 304.987C884.318 303.413 885.611 302.2 887.238 301.347C888.891 300.493 890.731 300.067 892.758 300.067C894.304 300.067 895.704 300.32 896.958 300.827C898.238 301.333 899.304 302.107 900.158 303.147V300.307H904.918ZM893.518 316.467C895.411 316.467 896.958 315.907 898.158 314.787C899.384 313.64 899.998 312.16 899.998 310.347C899.998 308.56 899.384 307.107 898.158 305.987C896.958 304.867 895.411 304.307 893.518 304.307C891.598 304.307 890.024 304.867 888.798 305.987C887.598 307.107 886.998 308.56 886.998 310.347C886.998 312.16 887.598 313.64 888.798 314.787C890.024 315.907 891.598 316.467 893.518 316.467ZM919.651 300.067C922.798 300.067 925.198 300.827 926.851 302.347C928.531 303.84 929.371 306.107 929.371 309.147V321.667H924.651V319.067C924.038 320 923.158 320.72 922.011 321.227C920.891 321.707 919.531 321.947 917.931 321.947C916.331 321.947 914.931 321.68 913.731 321.147C912.531 320.587 911.598 319.827 910.931 318.867C910.291 317.88 909.971 316.773 909.971 315.547C909.971 313.627 910.678 312.093 912.091 310.947C913.531 309.773 915.784 309.187 918.851 309.187H924.371V308.867C924.371 307.373 923.918 306.227 923.011 305.427C922.131 304.627 920.811 304.227 919.051 304.227C917.851 304.227 916.664 304.413 915.491 304.787C914.344 305.16 913.371 305.68 912.571 306.347L910.611 302.707C911.731 301.853 913.078 301.2 914.651 300.747C916.224 300.293 917.891 300.067 919.651 300.067ZM918.971 318.307C920.224 318.307 921.331 318.027 922.291 317.467C923.278 316.88 923.971 316.053 924.371 314.987V312.507H919.211C916.331 312.507 914.891 313.453 914.891 315.347C914.891 316.253 915.251 316.973 915.971 317.507C916.691 318.04 917.691 318.307 918.971 318.307ZM957.243 305.227C959.829 305.547 961.803 306.427 963.163 307.867C964.523 309.307 965.203 311.107 965.203 313.267C965.203 314.893 964.789 316.373 963.963 317.707C963.136 319.04 961.883 320.107 960.203 320.907C958.549 321.68 956.523 322.067 954.122 322.067C952.123 322.067 950.189 321.787 948.323 321.227C946.483 320.64 944.909 319.84 943.603 318.827L945.843 314.787C946.856 315.64 948.083 316.32 949.523 316.827C950.989 317.307 952.496 317.547 954.043 317.547C955.883 317.547 957.323 317.173 958.363 316.427C959.429 315.653 959.963 314.613 959.963 313.307C959.963 312 959.456 310.987 958.443 310.267C957.456 309.52 955.936 309.147 953.883 309.147H951.323V305.587L957.683 298.027H944.963V293.667H964.043V297.147L957.243 305.227ZM213.84 371.067C210.987 371.067 208.413 370.453 206.12 369.227C203.827 367.973 202.027 366.253 200.72 364.067C199.413 361.853 198.76 359.387 198.76 356.667C198.76 353.947 199.413 351.493 200.72 349.307C202.027 347.093 203.827 345.373 206.12 344.147C208.413 342.893 210.987 342.267 213.84 342.267C216.693 342.267 219.267 342.893 221.56 344.147C223.853 345.373 225.653 347.08 226.96 349.267C228.267 351.453 228.92 353.92 228.92 356.667C228.92 359.413 228.267 361.88 226.96 364.067C225.653 366.253 223.853 367.973 221.56 369.227C219.267 370.453 216.693 371.067 213.84 371.067ZM213.84 366.507C215.707 366.507 217.387 366.093 218.88 365.267C220.373 364.413 221.547 363.24 222.4 361.747C223.253 360.227 223.68 358.533 223.68 356.667C223.68 354.8 223.253 353.12 222.4 351.627C221.547 350.107 220.373 348.933 218.88 348.107C217.387 347.253 215.707 346.827 213.84 346.827C211.973 346.827 210.293 347.253 208.8 348.107C207.307 348.933 206.133 350.107 205.28 351.627C204.427 353.12 204 354.8 204 356.667C204 358.533 204.427 360.227 205.28 361.747C206.133 363.24 207.307 364.413 208.8 365.267C210.293 366.093 211.973 366.507 213.84 366.507ZM242.672 361.507L238.952 365.027V370.667H233.952V340.987H238.952V358.907L249.312 349.307H255.312L246.392 358.267L256.152 370.667H250.072L242.672 361.507ZM272.222 369.507C271.635 369.987 270.915 370.347 270.062 370.587C269.235 370.827 268.355 370.947 267.422 370.947C265.075 370.947 263.262 370.333 261.982 369.107C260.702 367.88 260.062 366.093 260.062 363.747V353.467H256.542V349.467H260.062V344.587H265.062V349.467H270.782V353.467H265.062V363.627C265.062 364.667 265.315 365.467 265.822 366.027C266.328 366.56 267.062 366.827 268.022 366.827C269.142 366.827 270.075 366.533 270.822 365.947L272.222 369.507ZM285.232 370.947C283.072 370.947 281.125 370.48 279.392 369.547C277.658 368.613 276.298 367.32 275.312 365.667C274.352 363.987 273.872 362.093 273.872 359.987C273.872 357.88 274.352 356 275.312 354.347C276.298 352.693 277.658 351.4 279.392 350.467C281.125 349.533 283.072 349.067 285.232 349.067C287.418 349.067 289.378 349.533 291.112 350.467C292.845 351.4 294.192 352.693 295.152 354.347C296.138 356 296.632 357.88 296.632 359.987C296.632 362.093 296.138 363.987 295.152 365.667C294.192 367.32 292.845 368.613 291.112 369.547C289.378 370.48 287.418 370.947 285.232 370.947ZM285.232 366.667C287.072 366.667 288.592 366.053 289.792 364.827C290.992 363.6 291.592 361.987 291.592 359.987C291.592 357.987 290.992 356.373 289.792 355.147C288.592 353.92 287.072 353.307 285.232 353.307C283.392 353.307 281.872 353.92 280.672 355.147C279.498 356.373 278.912 357.987 278.912 359.987C278.912 361.987 279.498 363.6 280.672 364.827C281.872 366.053 283.392 366.667 285.232 366.667ZM313.253 349.067C315.333 349.067 317.186 349.52 318.813 350.427C320.466 351.333 321.759 352.613 322.693 354.267C323.626 355.92 324.093 357.827 324.093 359.987C324.093 362.147 323.626 364.067 322.693 365.747C321.759 367.4 320.466 368.68 318.813 369.587C317.186 370.493 315.333 370.947 313.253 370.947C311.786 370.947 310.439 370.693 309.213 370.187C308.013 369.68 306.999 368.92 306.173 367.907V370.667H301.413V340.987H306.413V351.907C307.266 350.973 308.266 350.267 309.413 349.787C310.586 349.307 311.866 349.067 313.253 349.067ZM312.693 366.667C314.533 366.667 316.039 366.053 317.213 364.827C318.413 363.6 319.013 361.987 319.013 359.987C319.013 357.987 318.413 356.373 317.213 355.147C316.039 353.92 314.533 353.307 312.693 353.307C311.493 353.307 310.413 353.587 309.453 354.147C308.493 354.68 307.733 355.453 307.173 356.467C306.613 357.48 306.333 358.653 306.333 359.987C306.333 361.32 306.613 362.493 307.173 363.507C307.733 364.52 308.493 365.307 309.453 365.867C310.413 366.4 311.493 366.667 312.693 366.667ZM348.915 360.107C348.915 360.453 348.888 360.947 348.835 361.587H332.075C332.368 363.16 333.128 364.413 334.355 365.347C335.608 366.253 337.155 366.707 338.995 366.707C341.341 366.707 343.275 365.933 344.795 364.387L347.475 367.467C346.515 368.613 345.301 369.48 343.835 370.067C342.368 370.653 340.715 370.947 338.875 370.947C336.528 370.947 334.461 370.48 332.675 369.547C330.888 368.613 329.501 367.32 328.515 365.667C327.555 363.987 327.075 362.093 327.075 359.987C327.075 357.907 327.541 356.04 328.475 354.387C329.435 352.707 330.755 351.4 332.435 350.467C334.115 349.533 336.008 349.067 338.115 349.067C340.195 349.067 342.048 349.533 343.675 350.467C345.328 351.373 346.608 352.667 347.515 354.347C348.448 356 348.915 357.92 348.915 360.107ZM338.115 353.067C336.515 353.067 335.155 353.547 334.035 354.507C332.941 355.44 332.275 356.693 332.035 358.267H344.155C343.941 356.72 343.288 355.467 342.195 354.507C341.101 353.547 339.741 353.067 338.115 353.067ZM358.478 352.427C359.918 350.187 362.451 349.067 366.078 349.067V353.827C365.651 353.747 365.264 353.707 364.918 353.707C362.971 353.707 361.451 354.28 360.358 355.427C359.264 356.547 358.718 358.173 358.718 360.307V370.667H353.718V349.307H358.478V352.427ZM400.329 366.267V370.667H379.689V367.187L390.809 356.627C392.062 355.427 392.902 354.387 393.329 353.507C393.782 352.6 394.009 351.707 394.009 350.827C394.009 349.52 393.569 348.52 392.689 347.827C391.809 347.133 390.516 346.787 388.809 346.787C385.956 346.787 383.769 347.76 382.249 349.707L378.609 346.907C379.702 345.44 381.169 344.307 383.009 343.507C384.876 342.68 386.956 342.267 389.249 342.267C392.289 342.267 394.716 342.987 396.529 344.427C398.342 345.867 399.249 347.827 399.249 350.307C399.249 351.827 398.929 353.253 398.289 354.587C397.649 355.92 396.422 357.44 394.609 359.147L387.129 366.267H400.329ZM414.893 371.067C412.653 371.067 410.653 370.507 408.893 369.387C407.133 368.24 405.746 366.587 404.733 364.427C403.72 362.24 403.213 359.653 403.213 356.667C403.213 353.68 403.72 351.107 404.733 348.947C405.746 346.76 407.133 345.107 408.893 343.987C410.653 342.84 412.653 342.267 414.893 342.267C417.133 342.267 419.133 342.84 420.893 343.987C422.68 345.107 424.08 346.76 425.093 348.947C426.106 351.107 426.613 353.68 426.613 356.667C426.613 359.653 426.106 362.24 425.093 364.427C424.08 366.587 422.68 368.24 420.893 369.387C419.133 370.507 417.133 371.067 414.893 371.067ZM414.893 366.547C416.893 366.547 418.466 365.72 419.613 364.067C420.786 362.413 421.373 359.947 421.373 356.667C421.373 353.387 420.786 350.92 419.613 349.267C418.466 347.613 416.893 346.787 414.893 346.787C412.92 346.787 411.346 347.613 410.173 349.267C409.026 350.92 408.453 353.387 408.453 356.667C408.453 359.947 409.026 362.413 410.173 364.067C411.346 365.72 412.92 366.547 414.893 366.547ZM450.212 366.267V370.667H429.572V367.187L440.692 356.627C441.945 355.427 442.785 354.387 443.212 353.507C443.665 352.6 443.892 351.707 443.892 350.827C443.892 349.52 443.452 348.52 442.572 347.827C441.692 347.133 440.399 346.787 438.692 346.787C435.839 346.787 433.652 347.76 432.132 349.707L428.492 346.907C429.585 345.44 431.052 344.307 432.892 343.507C434.759 342.68 436.839 342.267 439.132 342.267C442.172 342.267 444.599 342.987 446.412 344.427C448.225 345.867 449.132 347.827 449.132 350.307C449.132 351.827 448.812 353.253 448.172 354.587C447.532 355.92 446.305 357.44 444.492 359.147L437.012 366.267H450.212ZM464.776 371.067C462.536 371.067 460.536 370.507 458.776 369.387C457.016 368.24 455.629 366.587 454.616 364.427C453.603 362.24 453.096 359.653 453.096 356.667C453.096 353.68 453.603 351.107 454.616 348.947C455.629 346.76 457.016 345.107 458.776 343.987C460.536 342.84 462.536 342.267 464.776 342.267C467.016 342.267 469.016 342.84 470.776 343.987C472.563 345.107 473.963 346.76 474.976 348.947C475.989 351.107 476.496 353.68 476.496 356.667C476.496 359.653 475.989 362.24 474.976 364.427C473.963 366.587 472.563 368.24 470.776 369.387C469.016 370.507 467.016 371.067 464.776 371.067ZM464.776 366.547C466.776 366.547 468.349 365.72 469.496 364.067C470.669 362.413 471.256 359.947 471.256 356.667C471.256 353.387 470.669 350.92 469.496 349.267C468.349 347.613 466.776 346.787 464.776 346.787C462.803 346.787 461.229 347.613 460.056 349.267C458.909 350.92 458.336 353.387 458.336 356.667C458.336 359.947 458.909 362.413 460.056 364.067C461.229 365.72 462.803 366.547 464.776 366.547ZM479.13 378.427C480.757 375.547 481.957 372.573 482.73 369.507C483.503 366.44 483.89 363.173 483.89 359.707C483.89 356.24 483.503 352.973 482.73 349.907C481.957 346.84 480.757 343.867 479.13 340.987H483.89C485.463 343.36 486.663 346.16 487.49 349.387C488.343 352.587 488.77 356.027 488.77 359.707C488.77 363.387 488.343 366.827 487.49 370.027C486.663 373.2 485.463 376 483.89 378.427H479.13Z" fill="#FFEFEF"/>
<path d="M311.2 425.913H322.2V430.073H311.2V425.913ZM359.045 424.553C360.592 425.059 361.819 425.913 362.725 427.113C363.632 428.286 364.085 429.753 364.085 431.513C364.085 433.939 363.152 435.819 361.285 437.153C359.419 438.459 356.699 439.113 353.125 439.113H339.205V411.113H352.325C355.632 411.113 358.179 411.766 359.965 413.073C361.752 414.353 362.645 416.126 362.645 418.393C362.645 419.779 362.325 421.006 361.685 422.073C361.045 423.139 360.165 423.966 359.045 424.553ZM344.405 415.193V422.913H351.765C353.579 422.913 354.965 422.593 355.925 421.953C356.912 421.286 357.405 420.326 357.405 419.073C357.405 417.793 356.912 416.833 355.925 416.193C354.965 415.526 353.579 415.193 351.765 415.193H344.405ZM352.805 435.033C356.832 435.033 358.845 433.686 358.845 430.993C358.845 428.299 356.832 426.953 352.805 426.953H344.405V435.033H352.805ZM369.155 417.753H374.155V439.113H369.155V417.753ZM371.675 414.233C370.768 414.233 370.008 413.953 369.395 413.393C368.782 412.806 368.475 412.086 368.475 411.233C368.475 410.379 368.782 409.673 369.395 409.113C370.008 408.526 370.768 408.233 371.675 408.233C372.582 408.233 373.342 408.513 373.955 409.073C374.568 409.606 374.875 410.286 374.875 411.113C374.875 411.993 374.568 412.739 373.955 413.353C373.368 413.939 372.608 414.233 371.675 414.233ZM392.838 417.513C395.531 417.513 397.691 418.299 399.318 419.873C400.944 421.446 401.758 423.779 401.758 426.873V439.113H396.758V427.513C396.758 425.646 396.318 424.246 395.438 423.313C394.558 422.353 393.304 421.873 391.678 421.873C389.838 421.873 388.384 422.433 387.318 423.553C386.251 424.646 385.718 426.233 385.718 428.313V439.113H380.718V417.753H385.478V420.513C386.304 419.526 387.344 418.779 388.598 418.273C389.851 417.766 391.264 417.513 392.838 417.513ZM428.78 417.753V439.113H424.02V436.393C423.22 437.353 422.22 438.099 421.02 438.633C419.82 439.139 418.527 439.393 417.14 439.393C414.287 439.393 412.034 438.606 410.38 437.033C408.754 435.433 407.94 433.073 407.94 429.953V417.753H412.94V429.273C412.94 431.193 413.367 432.633 414.22 433.593C415.1 434.526 416.34 434.993 417.94 434.993C419.727 434.993 421.14 434.446 422.18 433.353C423.247 432.233 423.78 430.633 423.78 428.553V417.753H428.78ZM441.927 439.393C440.194 439.393 438.5 439.166 436.847 438.713C435.194 438.259 433.874 437.686 432.887 436.993L434.807 433.193C435.767 433.833 436.914 434.353 438.247 434.753C439.607 435.126 440.94 435.313 442.247 435.313C445.234 435.313 446.727 434.526 446.727 432.953C446.727 432.206 446.34 431.686 445.567 431.393C444.82 431.099 443.607 430.819 441.927 430.553C440.167 430.286 438.727 429.979 437.607 429.633C436.514 429.286 435.554 428.686 434.727 427.833C433.927 426.953 433.527 425.739 433.527 424.193C433.527 422.166 434.367 420.553 436.047 419.353C437.754 418.126 440.047 417.513 442.927 417.513C444.394 417.513 445.86 417.686 447.327 418.033C448.794 418.353 449.994 418.793 450.927 419.353L449.007 423.153C447.194 422.086 445.154 421.553 442.887 421.553C441.42 421.553 440.3 421.779 439.527 422.233C438.78 422.659 438.407 423.233 438.407 423.953C438.407 424.753 438.807 425.326 439.607 425.673C440.434 425.993 441.7 426.299 443.407 426.593C445.114 426.859 446.514 427.166 447.607 427.513C448.7 427.859 449.634 428.446 450.407 429.273C451.207 430.099 451.607 431.273 451.607 432.793C451.607 434.793 450.74 436.393 449.007 437.593C447.274 438.793 444.914 439.393 441.927 439.393ZM455.913 417.753H460.913V439.113H455.913V417.753ZM458.433 414.233C457.526 414.233 456.766 413.953 456.153 413.393C455.539 412.806 455.233 412.086 455.233 411.233C455.233 410.379 455.539 409.673 456.153 409.113C456.766 408.526 457.526 408.233 458.433 408.233C459.339 408.233 460.099 408.513 460.713 409.073C461.326 409.606 461.633 410.286 461.633 411.113C461.633 411.993 461.326 412.739 460.713 413.353C460.126 413.939 459.366 414.233 458.433 414.233ZM475.635 417.513C478.782 417.513 481.182 418.273 482.835 419.793C484.515 421.286 485.355 423.553 485.355 426.593V439.113H480.635V436.513C480.022 437.446 479.142 438.166 477.995 438.673C476.875 439.153 475.515 439.393 473.915 439.393C472.315 439.393 470.915 439.126 469.715 438.593C468.515 438.033 467.582 437.273 466.915 436.313C466.275 435.326 465.955 434.219 465.955 432.993C465.955 431.073 466.662 429.539 468.075 428.393C469.515 427.219 471.769 426.633 474.835 426.633H480.355V426.313C480.355 424.819 479.902 423.673 478.995 422.873C478.115 422.073 476.795 421.673 475.035 421.673C473.835 421.673 472.649 421.859 471.475 422.233C470.329 422.606 469.355 423.126 468.555 423.793L466.595 420.153C467.715 419.299 469.062 418.646 470.635 418.193C472.209 417.739 473.875 417.513 475.635 417.513ZM474.955 435.753C476.209 435.753 477.315 435.473 478.275 434.913C479.262 434.326 479.955 433.499 480.355 432.433V429.953H475.195C472.315 429.953 470.875 430.899 470.875 432.793C470.875 433.699 471.235 434.419 471.955 434.953C472.675 435.486 473.675 435.753 474.955 435.753ZM503.892 417.513C506.586 417.513 508.746 418.299 510.372 419.873C511.999 421.446 512.812 423.779 512.812 426.873V439.113H507.812V427.513C507.812 425.646 507.372 424.246 506.492 423.313C505.612 422.353 504.359 421.873 502.732 421.873C500.892 421.873 499.439 422.433 498.372 423.553C497.306 424.646 496.772 426.233 496.772 428.313V439.113H491.772V417.753H496.532V420.513C497.359 419.526 498.399 418.779 499.652 418.273C500.906 417.766 502.319 417.513 503.892 417.513ZM520.755 424.153C519.848 424.153 519.075 423.846 518.435 423.233C517.795 422.593 517.475 421.793 517.475 420.833C517.475 419.846 517.782 419.046 518.395 418.433C519.035 417.819 519.822 417.513 520.755 417.513C521.688 417.513 522.462 417.819 523.075 418.433C523.715 419.046 524.035 419.846 524.035 420.833C524.035 421.793 523.715 422.593 523.075 423.233C522.435 423.846 521.662 424.153 520.755 424.153ZM520.755 439.393C519.848 439.393 519.075 439.086 518.435 438.473C517.795 437.833 517.475 437.033 517.475 436.073C517.475 435.086 517.782 434.286 518.395 433.673C519.035 433.059 519.822 432.753 520.755 432.753C521.688 432.753 522.462 433.059 523.075 433.673C523.715 434.286 524.035 435.086 524.035 436.073C524.035 437.033 523.715 437.833 523.075 438.473C522.435 439.086 521.662 439.393 520.755 439.393ZM558.775 439.113L553.055 430.913C552.815 430.939 552.455 430.953 551.975 430.953H545.655V439.113H540.455V411.113H551.975C554.402 411.113 556.509 411.513 558.295 412.313C560.109 413.113 561.495 414.259 562.455 415.753C563.415 417.246 563.895 419.019 563.895 421.073C563.895 423.179 563.375 424.993 562.335 426.513C561.322 428.033 559.855 429.166 557.935 429.913L564.375 439.113H558.775ZM558.655 421.073C558.655 419.286 558.069 417.913 556.895 416.953C555.722 415.993 554.002 415.513 551.735 415.513H545.655V426.673H551.735C554.002 426.673 555.722 426.193 556.895 425.233C558.069 424.246 558.655 422.859 558.655 421.073ZM581.073 417.513C583.153 417.513 585.006 417.966 586.633 418.873C588.286 419.779 589.58 421.059 590.513 422.713C591.446 424.366 591.913 426.273 591.913 428.433C591.913 430.593 591.446 432.513 590.513 434.193C589.58 435.846 588.286 437.126 586.633 438.033C585.006 438.939 583.153 439.393 581.073 439.393C578.193 439.393 575.913 438.433 574.233 436.513V446.873H569.233V417.753H573.993V420.553C574.82 419.539 575.833 418.779 577.033 418.273C578.26 417.766 579.606 417.513 581.073 417.513ZM580.513 435.113C582.353 435.113 583.86 434.499 585.033 433.273C586.233 432.046 586.833 430.433 586.833 428.433C586.833 426.433 586.233 424.819 585.033 423.593C583.86 422.366 582.353 421.753 580.513 421.753C579.313 421.753 578.233 422.033 577.273 422.593C576.313 423.126 575.553 423.899 574.993 424.913C574.433 425.926 574.153 427.099 574.153 428.433C574.153 429.766 574.433 430.939 574.993 431.953C575.553 432.966 576.313 433.753 577.273 434.313C578.233 434.846 579.313 435.113 580.513 435.113ZM624.35 424.393C625.816 425.059 626.936 425.966 627.71 427.113C628.51 428.233 628.91 429.553 628.91 431.073C628.91 432.779 628.43 434.273 627.47 435.553C626.536 436.833 625.203 437.819 623.47 438.513C621.736 439.179 619.723 439.513 617.43 439.513C615.136 439.513 613.123 439.179 611.39 438.513C609.683 437.819 608.363 436.833 607.43 435.553C606.496 434.273 606.03 432.779 606.03 431.073C606.03 429.553 606.416 428.233 607.19 427.113C607.963 425.966 609.07 425.059 610.51 424.393C609.39 423.779 608.523 422.979 607.91 421.993C607.323 420.979 607.03 419.819 607.03 418.513C607.03 416.939 607.456 415.566 608.31 414.393C609.19 413.219 610.416 412.313 611.99 411.673C613.563 411.033 615.376 410.713 617.43 410.713C619.51 410.713 621.336 411.033 622.91 411.673C624.483 412.313 625.71 413.219 626.59 414.393C627.47 415.566 627.91 416.939 627.91 418.513C627.91 419.819 627.603 420.966 626.99 421.953C626.376 422.939 625.496 423.753 624.35 424.393ZM617.43 414.793C615.803 414.793 614.51 415.139 613.55 415.833C612.616 416.526 612.15 417.499 612.15 418.753C612.15 419.953 612.616 420.913 613.55 421.633C614.51 422.326 615.803 422.673 617.43 422.673C619.083 422.673 620.39 422.326 621.35 421.633C622.31 420.913 622.79 419.953 622.79 418.753C622.79 417.499 622.296 416.526 621.31 415.833C620.35 415.139 619.056 414.793 617.43 414.793ZM617.43 435.433C619.35 435.433 620.87 435.033 621.99 434.233C623.11 433.433 623.67 432.326 623.67 430.913C623.67 429.526 623.11 428.433 621.99 427.633C620.87 426.833 619.35 426.433 617.43 426.433C615.51 426.433 614.003 426.833 612.91 427.633C611.816 428.433 611.27 429.526 611.27 430.913C611.27 432.326 611.816 433.433 612.91 434.233C614.003 435.033 615.51 435.433 617.43 435.433ZM643.963 439.513C641.723 439.513 639.723 438.953 637.963 437.833C636.203 436.686 634.817 435.033 633.803 432.873C632.79 430.686 632.283 428.099 632.283 425.113C632.283 422.126 632.79 419.553 633.803 417.393C634.817 415.206 636.203 413.553 637.963 412.433C639.723 411.286 641.723 410.713 643.963 410.713C646.203 410.713 648.203 411.286 649.963 412.433C651.75 413.553 653.15 415.206 654.163 417.393C655.177 419.553 655.683 422.126 655.683 425.113C655.683 428.099 655.177 430.686 654.163 432.873C653.15 435.033 651.75 436.686 649.963 437.833C648.203 438.953 646.203 439.513 643.963 439.513ZM643.963 434.993C645.963 434.993 647.537 434.166 648.683 432.513C649.857 430.859 650.443 428.393 650.443 425.113C650.443 421.833 649.857 419.366 648.683 417.713C647.537 416.059 645.963 415.233 643.963 415.233C641.99 415.233 640.417 416.059 639.243 417.713C638.097 419.366 637.523 421.833 637.523 425.113C637.523 428.393 638.097 430.859 639.243 432.513C640.417 434.166 641.99 434.993 643.963 434.993ZM661.849 439.393C660.942 439.393 660.169 439.086 659.529 438.473C658.889 437.833 658.569 437.033 658.569 436.073C658.569 435.086 658.875 434.286 659.489 433.673C660.129 433.059 660.915 432.753 661.849 432.753C662.782 432.753 663.555 433.059 664.169 433.673C664.809 434.286 665.129 435.086 665.129 436.073C665.129 437.033 664.809 437.833 664.169 438.473C663.529 439.086 662.755 439.393 661.849 439.393ZM679.706 439.513C677.466 439.513 675.466 438.953 673.706 437.833C671.946 436.686 670.559 435.033 669.546 432.873C668.532 430.686 668.026 428.099 668.026 425.113C668.026 422.126 668.532 419.553 669.546 417.393C670.559 415.206 671.946 413.553 673.706 412.433C675.466 411.286 677.466 410.713 679.706 410.713C681.946 410.713 683.946 411.286 685.706 412.433C687.492 413.553 688.892 415.206 689.906 417.393C690.919 419.553 691.426 422.126 691.426 425.113C691.426 428.099 690.919 430.686 689.906 432.873C688.892 435.033 687.492 436.686 685.706 437.833C683.946 438.953 681.946 439.513 679.706 439.513ZM679.706 434.993C681.706 434.993 683.279 434.166 684.426 432.513C685.599 430.859 686.186 428.393 686.186 425.113C686.186 421.833 685.599 419.366 684.426 417.713C683.279 416.059 681.706 415.233 679.706 415.233C677.732 415.233 676.159 416.059 674.986 417.713C673.839 419.366 673.266 421.833 673.266 425.113C673.266 428.393 673.839 430.859 674.986 432.513C676.159 434.166 677.732 434.993 679.706 434.993ZM706.62 439.513C704.38 439.513 702.38 438.953 700.62 437.833C698.86 436.686 697.473 435.033 696.46 432.873C695.446 430.686 694.94 428.099 694.94 425.113C694.94 422.126 695.446 419.553 696.46 417.393C697.473 415.206 698.86 413.553 700.62 412.433C702.38 411.286 704.38 410.713 706.62 410.713C708.86 410.713 710.86 411.286 712.62 412.433C714.406 413.553 715.806 415.206 716.82 417.393C717.833 419.553 718.34 422.126 718.34 425.113C718.34 428.099 717.833 430.686 716.82 432.873C715.806 435.033 714.406 436.686 712.62 437.833C710.86 438.953 708.86 439.513 706.62 439.513ZM706.62 434.993C708.62 434.993 710.193 434.166 711.34 432.513C712.513 430.859 713.1 428.393 713.1 425.113C713.1 421.833 712.513 419.366 711.34 417.713C710.193 416.059 708.62 415.233 706.62 415.233C704.646 415.233 703.073 416.059 701.9 417.713C700.753 419.366 700.18 421.833 700.18 425.113C700.18 428.393 700.753 430.859 701.9 432.513C703.073 434.166 704.646 434.993 706.62 434.993ZM733.534 439.513C731.294 439.513 729.294 438.953 727.534 437.833C725.774 436.686 724.387 435.033 723.374 432.873C722.36 430.686 721.854 428.099 721.854 425.113C721.854 422.126 722.36 419.553 723.374 417.393C724.387 415.206 725.774 413.553 727.534 412.433C729.294 411.286 731.294 410.713 733.534 410.713C735.774 410.713 737.774 411.286 739.534 412.433C741.32 413.553 742.72 415.206 743.734 417.393C744.747 419.553 745.254 422.126 745.254 425.113C745.254 428.099 744.747 430.686 743.734 432.873C742.72 435.033 741.32 436.686 739.534 437.833C737.774 438.953 735.774 439.513 733.534 439.513ZM733.534 434.993C735.534 434.993 737.107 434.166 738.254 432.513C739.427 430.859 740.014 428.393 740.014 425.113C740.014 421.833 739.427 419.366 738.254 417.713C737.107 416.059 735.534 415.233 733.534 415.233C731.56 415.233 729.987 416.059 728.814 417.713C727.667 419.366 727.094 421.833 727.094 425.113C727.094 428.393 727.667 430.859 728.814 432.513C729.987 434.166 731.56 434.993 733.534 434.993ZM311.2 474.913H322.2V479.073H311.2V474.913ZM375.14 460.113V488.113H370.86L355.42 469.153V488.113H350.26V460.113H354.54L369.98 479.073V460.113H375.14ZM391.763 488.393C389.603 488.393 387.656 487.926 385.923 486.993C384.189 486.059 382.829 484.766 381.843 483.113C380.883 481.433 380.403 479.539 380.403 477.433C380.403 475.326 380.883 473.446 381.843 471.793C382.829 470.139 384.189 468.846 385.923 467.913C387.656 466.979 389.603 466.513 391.763 466.513C393.949 466.513 395.909 466.979 397.643 467.913C399.376 468.846 400.723 470.139 401.683 471.793C402.669 473.446 403.163 475.326 403.163 477.433C403.163 479.539 402.669 481.433 401.683 483.113C400.723 484.766 399.376 486.059 397.643 486.993C395.909 487.926 393.949 488.393 391.763 488.393ZM391.763 484.113C393.603 484.113 395.123 483.499 396.323 482.273C397.523 481.046 398.123 479.433 398.123 477.433C398.123 475.433 397.523 473.819 396.323 472.593C395.123 471.366 393.603 470.753 391.763 470.753C389.923 470.753 388.403 471.366 387.203 472.593C386.029 473.819 385.443 475.433 385.443 477.433C385.443 479.433 386.029 481.046 387.203 482.273C388.403 483.499 389.923 484.113 391.763 484.113ZM420.064 466.513C422.757 466.513 424.917 467.299 426.544 468.873C428.171 470.446 428.984 472.779 428.984 475.873V488.113H423.984V476.513C423.984 474.646 423.544 473.246 422.664 472.313C421.784 471.353 420.531 470.873 418.904 470.873C417.064 470.873 415.611 471.433 414.544 472.553C413.477 473.646 412.944 475.233 412.944 477.313V488.113H407.944V466.753H412.704V469.513C413.531 468.526 414.571 467.779 415.824 467.273C417.077 466.766 418.491 466.513 420.064 466.513ZM434.247 474.913H445.247V479.073H434.247V474.913ZM471.038 473.553C472.584 474.059 473.811 474.913 474.718 476.113C475.624 477.286 476.078 478.753 476.078 480.513C476.078 482.939 475.144 484.819 473.278 486.153C471.411 487.459 468.691 488.113 465.118 488.113H451.198V460.113H464.318C467.624 460.113 470.171 460.766 471.958 462.073C473.744 463.353 474.638 465.126 474.638 467.393C474.638 468.779 474.318 470.006 473.678 471.073C473.038 472.139 472.158 472.966 471.038 473.553ZM456.398 464.193V471.913H463.758C465.571 471.913 466.958 471.593 467.918 470.953C468.904 470.286 469.398 469.326 469.398 468.073C469.398 466.793 468.904 465.833 467.918 465.193C466.958 464.526 465.571 464.193 463.758 464.193H456.398ZM464.798 484.033C468.824 484.033 470.838 482.686 470.838 479.993C470.838 477.299 468.824 475.953 464.798 475.953H456.398V484.033H464.798ZM481.147 466.753H486.147V488.113H481.147V466.753ZM483.667 463.233C482.761 463.233 482.001 462.953 481.387 462.393C480.774 461.806 480.467 461.086 480.467 460.233C480.467 459.379 480.774 458.673 481.387 458.113C482.001 457.526 482.761 457.233 483.667 457.233C484.574 457.233 485.334 457.513 485.947 458.073C486.561 458.606 486.867 459.286 486.867 460.113C486.867 460.993 486.561 461.739 485.947 462.353C485.361 462.939 484.601 463.233 483.667 463.233ZM504.83 466.513C507.523 466.513 509.683 467.299 511.31 468.873C512.936 470.446 513.75 472.779 513.75 475.873V488.113H508.75V476.513C508.75 474.646 508.31 473.246 507.43 472.313C506.55 471.353 505.296 470.873 503.67 470.873C501.83 470.873 500.376 471.433 499.31 472.553C498.243 473.646 497.71 475.233 497.71 477.313V488.113H492.71V466.753H497.47V469.513C498.296 468.526 499.336 467.779 500.59 467.273C501.843 466.766 503.256 466.513 504.83 466.513ZM540.773 466.753V488.113H536.013V485.393C535.213 486.353 534.213 487.099 533.013 487.633C531.813 488.139 530.519 488.393 529.133 488.393C526.279 488.393 524.026 487.606 522.373 486.033C520.746 484.433 519.933 482.073 519.933 478.953V466.753H524.933V478.273C524.933 480.193 525.359 481.633 526.213 482.593C527.093 483.526 528.333 483.993 529.933 483.993C531.719 483.993 533.133 483.446 534.173 482.353C535.239 481.233 535.773 479.633 535.773 477.553V466.753H540.773ZM553.919 488.393C552.186 488.393 550.492 488.166 548.839 487.713C547.186 487.259 545.866 486.686 544.879 485.993L546.799 482.193C547.759 482.833 548.906 483.353 550.239 483.753C551.599 484.126 552.932 484.313 554.239 484.313C557.226 484.313 558.719 483.526 558.719 481.953C558.719 481.206 558.332 480.686 557.559 480.393C556.812 480.099 555.599 479.819 553.919 479.553C552.159 479.286 550.719 478.979 549.599 478.633C548.506 478.286 547.546 477.686 546.719 476.833C545.919 475.953 545.519 474.739 545.519 473.193C545.519 471.166 546.359 469.553 548.039 468.353C549.746 467.126 552.039 466.513 554.919 466.513C556.386 466.513 557.852 466.686 559.319 467.033C560.786 467.353 561.986 467.793 562.919 468.353L560.999 472.153C559.186 471.086 557.146 470.553 554.879 470.553C553.412 470.553 552.292 470.779 551.519 471.233C550.772 471.659 550.399 472.233 550.399 472.953C550.399 473.753 550.799 474.326 551.599 474.673C552.426 474.993 553.692 475.299 555.399 475.593C557.106 475.859 558.506 476.166 559.599 476.513C560.692 476.859 561.626 477.446 562.399 478.273C563.199 479.099 563.599 480.273 563.599 481.793C563.599 483.793 562.732 485.393 560.999 486.593C559.266 487.793 556.906 488.393 553.919 488.393ZM567.905 466.753H572.905V488.113H567.905V466.753ZM570.425 463.233C569.518 463.233 568.758 462.953 568.145 462.393C567.532 461.806 567.225 461.086 567.225 460.233C567.225 459.379 567.532 458.673 568.145 458.113C568.758 457.526 569.518 457.233 570.425 457.233C571.332 457.233 572.092 457.513 572.705 458.073C573.318 458.606 573.625 459.286 573.625 460.113C573.625 460.993 573.318 461.739 572.705 462.353C572.118 462.939 571.358 463.233 570.425 463.233ZM587.628 466.513C590.774 466.513 593.174 467.273 594.828 468.793C596.508 470.286 597.348 472.553 597.348 475.593V488.113H592.628V485.513C592.014 486.446 591.134 487.166 589.988 487.673C588.868 488.153 587.508 488.393 585.908 488.393C584.308 488.393 582.908 488.126 581.708 487.593C580.508 487.033 579.574 486.273 578.908 485.313C578.268 484.326 577.948 483.219 577.948 481.993C577.948 480.073 578.654 478.539 580.068 477.393C581.508 476.219 583.761 475.633 586.828 475.633H592.348V475.313C592.348 473.819 591.894 472.673 590.988 471.873C590.108 471.073 588.788 470.673 587.028 470.673C585.828 470.673 584.641 470.859 583.468 471.233C582.321 471.606 581.348 472.126 580.548 472.793L578.588 469.153C579.708 468.299 581.054 467.646 582.628 467.193C584.201 466.739 585.868 466.513 587.628 466.513ZM586.948 484.753C588.201 484.753 589.308 484.473 590.268 483.913C591.254 483.326 591.948 482.499 592.348 481.433V478.953H587.188C584.308 478.953 582.868 479.899 582.868 481.793C582.868 482.699 583.228 483.419 583.948 483.953C584.668 484.486 585.668 484.753 586.948 484.753ZM615.884 466.513C618.578 466.513 620.738 467.299 622.364 468.873C623.991 470.446 624.804 472.779 624.804 475.873V488.113H619.804V476.513C619.804 474.646 619.364 473.246 618.484 472.313C617.604 471.353 616.351 470.873 614.724 470.873C612.884 470.873 611.431 471.433 610.364 472.553C609.298 473.646 608.764 475.233 608.764 477.313V488.113H603.764V466.753H608.524V469.513C609.351 468.526 610.391 467.779 611.644 467.273C612.898 466.766 614.311 466.513 615.884 466.513ZM632.747 473.153C631.841 473.153 631.067 472.846 630.427 472.233C629.787 471.593 629.467 470.793 629.467 469.833C629.467 468.846 629.774 468.046 630.387 467.433C631.027 466.819 631.814 466.513 632.747 466.513C633.681 466.513 634.454 466.819 635.067 467.433C635.707 468.046 636.027 468.846 636.027 469.833C636.027 470.793 635.707 471.593 635.067 472.233C634.427 472.846 633.654 473.153 632.747 473.153ZM632.747 488.393C631.841 488.393 631.067 488.086 630.427 487.473C629.787 486.833 629.467 486.033 629.467 485.073C629.467 484.086 629.774 483.286 630.387 482.673C631.027 482.059 631.814 481.753 632.747 481.753C633.681 481.753 634.454 482.059 635.067 482.673C635.707 483.286 636.027 484.086 636.027 485.073C636.027 486.033 635.707 486.833 635.067 487.473C634.427 488.086 633.654 488.393 632.747 488.393ZM670.768 488.113L665.048 479.913C664.808 479.939 664.448 479.953 663.968 479.953H657.648V488.113H652.448V460.113H663.968C666.394 460.113 668.501 460.513 670.288 461.313C672.101 462.113 673.488 463.259 674.448 464.753C675.408 466.246 675.888 468.019 675.888 470.073C675.888 472.179 675.368 473.993 674.328 475.513C673.314 477.033 671.848 478.166 669.928 478.913L676.368 488.113H670.768ZM670.648 470.073C670.648 468.286 670.061 466.913 668.887 465.953C667.714 464.993 665.994 464.513 663.728 464.513H657.648V475.673H663.728C665.994 475.673 667.714 475.193 668.887 474.233C670.061 473.246 670.648 471.859 670.648 470.073ZM693.065 466.513C695.145 466.513 696.999 466.966 698.625 467.873C700.279 468.779 701.572 470.059 702.505 471.713C703.439 473.366 703.905 475.273 703.905 477.433C703.905 479.593 703.439 481.513 702.505 483.193C701.572 484.846 700.279 486.126 698.625 487.033C696.999 487.939 695.145 488.393 693.065 488.393C690.185 488.393 687.905 487.433 686.225 485.513V495.873H681.225V466.753H685.985V469.553C686.812 468.539 687.825 467.779 689.025 467.273C690.252 466.766 691.599 466.513 693.065 466.513ZM692.505 484.113C694.345 484.113 695.852 483.499 697.025 482.273C698.225 481.046 698.825 479.433 698.825 477.433C698.825 475.433 698.225 473.819 697.025 472.593C695.852 471.366 694.345 470.753 692.505 470.753C691.305 470.753 690.225 471.033 689.265 471.593C688.305 472.126 687.545 472.899 686.985 473.913C686.425 474.926 686.145 476.099 686.145 477.433C686.145 478.766 686.425 479.939 686.985 480.953C687.545 481.966 688.305 482.753 689.265 483.313C690.225 483.846 691.305 484.113 692.505 484.113ZM727.862 460.113V488.113H722.662V464.473H716.742V460.113H727.862ZM745.096 488.513C742.856 488.513 740.856 487.953 739.096 486.833C737.336 485.686 735.95 484.033 734.936 481.873C733.923 479.686 733.416 477.099 733.416 474.113C733.416 471.126 733.923 468.553 734.936 466.393C735.95 464.206 737.336 462.553 739.096 461.433C740.856 460.286 742.856 459.713 745.096 459.713C747.336 459.713 749.336 460.286 751.096 461.433C752.883 462.553 754.283 464.206 755.296 466.393C756.31 468.553 756.816 471.126 756.816 474.113C756.816 477.099 756.31 479.686 755.296 481.873C754.283 484.033 752.883 485.686 751.096 486.833C749.336 487.953 747.336 488.513 745.096 488.513ZM745.096 483.993C747.096 483.993 748.67 483.166 749.816 481.513C750.99 479.859 751.576 477.393 751.576 474.113C751.576 470.833 750.99 468.366 749.816 466.713C748.67 465.059 747.096 464.233 745.096 464.233C743.123 464.233 741.55 465.059 740.376 466.713C739.23 468.366 738.656 470.833 738.656 474.113C738.656 477.393 739.23 479.859 740.376 481.513C741.55 483.166 743.123 483.993 745.096 483.993ZM772.01 488.513C769.77 488.513 767.77 487.953 766.01 486.833C764.25 485.686 762.864 484.033 761.85 481.873C760.837 479.686 760.33 477.099 760.33 474.113C760.33 471.126 760.837 468.553 761.85 466.393C762.864 464.206 764.25 462.553 766.01 461.433C767.77 460.286 769.77 459.713 772.01 459.713C774.25 459.713 776.25 460.286 778.01 461.433C779.797 462.553 781.197 464.206 782.21 466.393C783.224 468.553 783.73 471.126 783.73 474.113C783.73 477.099 783.224 479.686 782.21 481.873C781.197 484.033 779.797 485.686 778.01 486.833C776.25 487.953 774.25 488.513 772.01 488.513ZM772.01 483.993C774.01 483.993 775.584 483.166 776.73 481.513C777.904 479.859 778.49 477.393 778.49 474.113C778.49 470.833 777.904 468.366 776.73 466.713C775.584 465.059 774.01 464.233 772.01 464.233C770.037 464.233 768.464 465.059 767.29 466.713C766.144 468.366 765.57 470.833 765.57 474.113C765.57 477.393 766.144 479.859 767.29 481.513C768.464 483.166 770.037 483.993 772.01 483.993ZM789.896 488.393C788.989 488.393 788.216 488.086 787.576 487.473C786.936 486.833 786.616 486.033 786.616 485.073C786.616 484.086 786.922 483.286 787.536 482.673C788.176 482.059 788.962 481.753 789.896 481.753C790.829 481.753 791.602 482.059 792.216 482.673C792.856 483.286 793.176 484.086 793.176 485.073C793.176 486.033 792.856 486.833 792.216 487.473C791.576 488.086 790.802 488.393 789.896 488.393ZM807.753 488.513C805.513 488.513 803.513 487.953 801.753 486.833C799.993 485.686 798.606 484.033 797.593 481.873C796.579 479.686 796.073 477.099 796.073 474.113C796.073 471.126 796.579 468.553 797.593 466.393C798.606 464.206 799.993 462.553 801.753 461.433C803.513 460.286 805.513 459.713 807.753 459.713C809.993 459.713 811.993 460.286 813.753 461.433C815.539 462.553 816.939 464.206 817.953 466.393C818.966 468.553 819.473 471.126 819.473 474.113C819.473 477.099 818.966 479.686 817.953 481.873C816.939 484.033 815.539 485.686 813.753 486.833C811.993 487.953 809.993 488.513 807.753 488.513ZM807.753 483.993C809.753 483.993 811.326 483.166 812.473 481.513C813.646 479.859 814.233 477.393 814.233 474.113C814.233 470.833 813.646 468.366 812.473 466.713C811.326 465.059 809.753 464.233 807.753 464.233C805.779 464.233 804.206 465.059 803.033 466.713C801.886 468.366 801.313 470.833 801.313 474.113C801.313 477.393 801.886 479.859 803.033 481.513C804.206 483.166 805.779 483.993 807.753 483.993ZM834.667 488.513C832.427 488.513 830.427 487.953 828.667 486.833C826.907 485.686 825.52 484.033 824.507 481.873C823.493 479.686 822.987 477.099 822.987 474.113C822.987 471.126 823.493 468.553 824.507 466.393C825.52 464.206 826.907 462.553 828.667 461.433C830.427 460.286 832.427 459.713 834.667 459.713C836.907 459.713 838.907 460.286 840.667 461.433C842.453 462.553 843.853 464.206 844.867 466.393C845.88 468.553 846.387 471.126 846.387 474.113C846.387 477.099 845.88 479.686 844.867 481.873C843.853 484.033 842.453 485.686 840.667 486.833C838.907 487.953 836.907 488.513 834.667 488.513ZM834.667 483.993C836.667 483.993 838.24 483.166 839.387 481.513C840.56 479.859 841.147 477.393 841.147 474.113C841.147 470.833 840.56 468.366 839.387 466.713C838.24 465.059 836.667 464.233 834.667 464.233C832.693 464.233 831.12 465.059 829.947 466.713C828.8 468.366 828.227 470.833 828.227 474.113C828.227 477.393 828.8 479.859 829.947 481.513C831.12 483.166 832.693 483.993 834.667 483.993ZM861.581 488.513C859.341 488.513 857.341 487.953 855.581 486.833C853.821 485.686 852.434 484.033 851.421 481.873C850.407 479.686 849.901 477.099 849.901 474.113C849.901 471.126 850.407 468.553 851.421 466.393C852.434 464.206 853.821 462.553 855.581 461.433C857.341 460.286 859.341 459.713 861.581 459.713C863.821 459.713 865.821 460.286 867.581 461.433C869.367 462.553 870.767 464.206 871.781 466.393C872.794 468.553 873.301 471.126 873.301 474.113C873.301 477.099 872.794 479.686 871.781 481.873C870.767 484.033 869.367 485.686 867.581 486.833C865.821 487.953 863.821 488.513 861.581 488.513ZM861.581 483.993C863.581 483.993 865.154 483.166 866.301 481.513C867.474 479.859 868.061 477.393 868.061 474.113C868.061 470.833 867.474 468.366 866.301 466.713C865.154 465.059 863.581 464.233 861.581 464.233C859.607 464.233 858.034 465.059 856.861 466.713C855.714 468.366 855.141 470.833 855.141 474.113C855.141 477.393 855.714 479.859 856.861 481.513C858.034 483.166 859.607 483.993 861.581 483.993Z" fill="#E5E5E5"/>
<g filter="url(#filter1_i)">
<ellipse cx="101" cy="200.056" rx="15" ry="14.9296" fill="#C4C4C4"/>
</g>
<g filter="url(#filter2_i)">
<ellipse cx="101" cy="332.432" rx="15" ry="14.9296" fill="#C4C4C4"/>
</g>
</g>
<defs>
<filter id="filter0_d" x="0" y="0" width="1118" height="644" filterUnits="userSpaceOnUse" color-interpolation-filters="sRGB">
<feFlood flood-opacity="0" result="BackgroundImageFix"/>
<feColorMatrix in="SourceAlpha" type="matrix" values="0 0 0 0 0 0 0 0 0 0 0 0 0 0 0 0 0 0 127 0"/>
<feOffset dy="4"/>
<feGaussianBlur stdDeviation="2"/>
<feColorMatrix type="matrix" values="0 0 0 0 0 0 0 0 0 0 0 0 0 0 0 0 0 0 0.25 0"/>
<feBlend mode="normal" in2="BackgroundImageFix" result="effect1_dropShadow"/>
<feBlend mode="normal" in="SourceGraphic" in2="effect1_dropShadow" result="shape"/>
</filter>
<filter id="filter1_i" x="86" y="185.127" width="30" height="33.8592" filterUnits="userSpaceOnUse" color-interpolation-filters="sRGB">
<feFlood flood-opacity="0" result="BackgroundImageFix"/>
<feBlend mode="normal" in="SourceGraphic" in2="BackgroundImageFix" result="shape"/>
<feColorMatrix in="SourceAlpha" type="matrix" values="0 0 0 0 0 0 0 0 0 0 0 0 0 0 0 0 0 0 127 0" result="hardAlpha"/>
<feOffset dy="4"/>
<feGaussianBlur stdDeviation="2"/>
<feComposite in2="hardAlpha" operator="arithmetic" k2="-1" k3="1"/>
<feColorMatrix type="matrix" values="0 0 0 0 0 0 0 0 0 0 0 0 0 0 0 0 0 0 0.25 0"/>
<feBlend mode="normal" in2="shape" result="effect1_innerShadow"/>
</filter>
<filter id="filter2_i" x="86" y="317.502" width="30" height="33.8592" filterUnits="userSpaceOnUse" color-interpolation-filters="sRGB">
<feFlood flood-opacity="0" result="BackgroundImageFix"/>
<feBlend mode="normal" in="SourceGraphic" in2="BackgroundImageFix" result="shape"/>
<feColorMatrix in="SourceAlpha" type="matrix" values="0 0 0 0 0 0 0 0 0 0 0 0 0 0 0 0 0 0 127 0" result="hardAlpha"/>
<feOffset dy="4"/>
<feGaussianBlur stdDeviation="2"/>
<feComposite in2="hardAlpha" operator="arithmetic" k2="-1" k3="1"/>
<feColorMatrix type="matrix" values="0 0 0 0 0 0 0 0 0 0 0 0 0 0 0 0 0 0 0.25 0"/>
<feBlend mode="normal" in2="shape" result="effect1_innerShadow"/>
</filter>
</defs>
</svg>
