<svg width="1118" height="1198" viewBox="0 0 1118 1198" fill="none" xmlns="http://www.w3.org/2000/svg">
<g filter="url(#filter0_d)">
<path d="M1114 1025.12C1114 1060.46 1092.07 1092.31 1058.72 1103.99C708.019 1226.77 464.313 1211.12 65.7497 1101.24C29.2158 1091.17 4.00003 1057.73 4.00003 1019.83L4.00003 146.823C4.00003 107.683 30.9505 73.4596 69.0719 64.5916C486.397 -32.4888 641.66 -10.4905 1044.86 66.8571C1084.88 74.533 1114 109.606 1114 150.349L1114 1025.12Z" fill="#65789D"/>
<rect x="182" y="429" width="474" height="647" fill="#C4C4C4"/>
<path d="M185.76 161H190.96V184.6H205.6V189H185.76V161ZM217.581 167.4C220.727 167.4 223.127 168.16 224.781 169.68C226.461 171.173 227.301 173.44 227.301 176.48V189H222.581V186.4C221.967 187.333 221.087 188.053 219.941 188.56C218.821 189.04 217.461 189.28 215.861 189.28C214.261 189.28 212.861 189.013 211.661 188.48C210.461 187.92 209.527 187.16 208.861 186.2C208.221 185.213 207.901 184.107 207.901 182.88C207.901 180.96 208.607 179.427 210.021 178.28C211.461 177.107 213.714 176.52 216.781 176.52H222.301V176.2C222.301 174.707 221.847 173.56 220.941 172.76C220.061 171.96 218.741 171.56 216.981 171.56C215.781 171.56 214.594 171.747 213.421 172.12C212.274 172.493 211.301 173.013 210.501 173.68L208.541 170.04C209.661 169.187 211.007 168.533 212.581 168.08C214.154 167.627 215.821 167.4 217.581 167.4ZM216.901 185.64C218.154 185.64 219.261 185.36 220.221 184.8C221.207 184.213 221.901 183.387 222.301 182.32V179.84H217.141C214.261 179.84 212.821 180.787 212.821 182.68C212.821 183.587 213.181 184.307 213.901 184.84C214.621 185.373 215.621 185.64 216.901 185.64ZM242.438 179.84L238.718 183.36V189H233.718V159.32H238.718V177.24L249.078 167.64H255.078L246.158 176.6L255.918 189H249.838L242.438 179.84ZM279.437 167.64V189H274.677V186.28C273.877 187.24 272.877 187.987 271.677 188.52C270.477 189.027 269.183 189.28 267.797 189.28C264.943 189.28 262.69 188.493 261.037 186.92C259.41 185.32 258.597 182.96 258.597 179.84V167.64H263.597V179.16C263.597 181.08 264.023 182.52 264.877 183.48C265.757 184.413 266.997 184.88 268.597 184.88C270.383 184.88 271.797 184.333 272.837 183.24C273.903 182.12 274.437 180.52 274.437 178.44V167.64H279.437ZM294.703 179.84L290.983 183.36V189H285.983V159.32H290.983V177.24L301.343 167.64H307.343L298.423 176.6L308.183 189H302.103L294.703 179.84ZM319.182 167.4C322.329 167.4 324.729 168.16 326.382 169.68C328.062 171.173 328.902 173.44 328.902 176.48V189H324.182V186.4C323.569 187.333 322.689 188.053 321.542 188.56C320.422 189.04 319.062 189.28 317.462 189.28C315.862 189.28 314.462 189.013 313.262 188.48C312.062 187.92 311.129 187.16 310.462 186.2C309.822 185.213 309.502 184.107 309.502 182.88C309.502 180.96 310.209 179.427 311.622 178.28C313.062 177.107 315.316 176.52 318.382 176.52H323.902V176.2C323.902 174.707 323.449 173.56 322.542 172.76C321.662 171.96 320.342 171.56 318.582 171.56C317.382 171.56 316.196 171.747 315.022 172.12C313.876 172.493 312.902 173.013 312.102 173.68L310.142 170.04C311.262 169.187 312.609 168.533 314.182 168.08C315.756 167.627 317.422 167.4 319.182 167.4ZM318.502 185.64C319.756 185.64 320.862 185.36 321.822 184.8C322.809 184.213 323.502 183.387 323.902 182.32V179.84H318.742C315.862 179.84 314.422 180.787 314.422 182.68C314.422 183.587 314.782 184.307 315.502 184.84C316.222 185.373 317.222 185.64 318.502 185.64ZM347.439 167.4C350.132 167.4 352.292 168.187 353.919 169.76C355.546 171.333 356.359 173.667 356.359 176.76V189H351.359V177.4C351.359 175.533 350.919 174.133 350.039 173.2C349.159 172.24 347.906 171.76 346.279 171.76C344.439 171.76 342.986 172.32 341.919 173.44C340.852 174.533 340.319 176.12 340.319 178.2V189H335.319V167.64H340.079V170.4C340.906 169.413 341.946 168.667 343.199 168.16C344.452 167.653 345.866 167.4 347.439 167.4ZM385.597 167.4C387.677 167.4 389.53 167.853 391.157 168.76C392.81 169.667 394.103 170.947 395.037 172.6C395.97 174.253 396.437 176.16 396.437 178.32C396.437 180.48 395.97 182.4 395.037 184.08C394.103 185.733 392.81 187.013 391.157 187.92C389.53 188.827 387.677 189.28 385.597 189.28C382.717 189.28 380.437 188.32 378.757 186.4V196.76H373.757V167.64H378.517V170.44C379.343 169.427 380.357 168.667 381.557 168.16C382.783 167.653 384.13 167.4 385.597 167.4ZM385.037 185C386.877 185 388.383 184.387 389.557 183.16C390.757 181.933 391.357 180.32 391.357 178.32C391.357 176.32 390.757 174.707 389.557 173.48C388.383 172.253 386.877 171.64 385.037 171.64C383.837 171.64 382.757 171.92 381.797 172.48C380.837 173.013 380.077 173.787 379.517 174.8C378.957 175.813 378.677 176.987 378.677 178.32C378.677 179.653 378.957 180.827 379.517 181.84C380.077 182.853 380.837 183.64 381.797 184.2C382.757 184.733 383.837 185 385.037 185ZM421.258 178.44C421.258 178.787 421.232 179.28 421.178 179.92H404.418C404.712 181.493 405.472 182.747 406.698 183.68C407.952 184.587 409.498 185.04 411.338 185.04C413.685 185.04 415.618 184.267 417.138 182.72L419.818 185.8C418.858 186.947 417.645 187.813 416.178 188.4C414.712 188.987 413.058 189.28 411.218 189.28C408.872 189.28 406.805 188.813 405.018 187.88C403.232 186.947 401.845 185.653 400.858 184C399.898 182.32 399.418 180.427 399.418 178.32C399.418 176.24 399.885 174.373 400.818 172.72C401.778 171.04 403.098 169.733 404.778 168.8C406.458 167.867 408.352 167.4 410.458 167.4C412.538 167.4 414.392 167.867 416.018 168.8C417.672 169.707 418.952 171 419.858 172.68C420.792 174.333 421.258 176.253 421.258 178.44ZM410.458 171.4C408.858 171.4 407.498 171.88 406.378 172.84C405.285 173.773 404.618 175.027 404.378 176.6H416.498C416.285 175.053 415.632 173.8 414.538 172.84C413.445 171.88 412.085 171.4 410.458 171.4ZM453.021 167.4C455.715 167.4 457.848 168.187 459.421 169.76C460.995 171.307 461.781 173.64 461.781 176.76V189H456.781V177.4C456.781 175.533 456.368 174.133 455.541 173.2C454.715 172.24 453.528 171.76 451.981 171.76C450.301 171.76 448.955 172.32 447.941 173.44C446.928 174.533 446.421 176.107 446.421 178.16V189H441.421V177.4C441.421 175.533 441.008 174.133 440.181 173.2C439.355 172.24 438.168 171.76 436.621 171.76C434.915 171.76 433.555 172.307 432.541 173.4C431.555 174.493 431.061 176.08 431.061 178.16V189H426.061V167.64H430.821V170.36C431.621 169.4 432.621 168.667 433.821 168.16C435.021 167.653 436.355 167.4 437.821 167.4C439.421 167.4 440.835 167.707 442.061 168.32C443.315 168.907 444.301 169.787 445.021 170.96C445.901 169.84 447.035 168.973 448.421 168.36C449.808 167.72 451.341 167.4 453.021 167.4ZM480.011 167.4C482.091 167.4 483.944 167.853 485.571 168.76C487.224 169.667 488.517 170.947 489.451 172.6C490.384 174.253 490.851 176.16 490.851 178.32C490.851 180.48 490.384 182.4 489.451 184.08C488.517 185.733 487.224 187.013 485.571 187.92C483.944 188.827 482.091 189.28 480.011 189.28C478.544 189.28 477.197 189.027 475.971 188.52C474.771 188.013 473.757 187.253 472.931 186.24V189H468.171V159.32H473.171V170.24C474.024 169.307 475.024 168.6 476.171 168.12C477.344 167.64 478.624 167.4 480.011 167.4ZM479.451 185C481.291 185 482.797 184.387 483.971 183.16C485.171 181.933 485.771 180.32 485.771 178.32C485.771 176.32 485.171 174.707 483.971 173.48C482.797 172.253 481.291 171.64 479.451 171.64C478.251 171.64 477.171 171.92 476.211 172.48C475.251 173.013 474.491 173.787 473.931 174.8C473.371 175.813 473.091 176.987 473.091 178.32C473.091 179.653 473.371 180.827 473.931 181.84C474.491 182.853 475.251 183.64 476.211 184.2C477.171 184.733 478.251 185 479.451 185ZM503.479 167.4C506.626 167.4 509.026 168.16 510.679 169.68C512.359 171.173 513.199 173.44 513.199 176.48V189H508.479V186.4C507.866 187.333 506.986 188.053 505.839 188.56C504.719 189.04 503.359 189.28 501.759 189.28C500.159 189.28 498.759 189.013 497.559 188.48C496.359 187.92 495.426 187.16 494.759 186.2C494.119 185.213 493.799 184.107 493.799 182.88C493.799 180.96 494.506 179.427 495.919 178.28C497.359 177.107 499.612 176.52 502.679 176.52H508.199V176.2C508.199 174.707 507.746 173.56 506.839 172.76C505.959 171.96 504.639 171.56 502.879 171.56C501.679 171.56 500.492 171.747 499.319 172.12C498.172 172.493 497.199 173.013 496.399 173.68L494.439 170.04C495.559 169.187 496.906 168.533 498.479 168.08C500.052 167.627 501.719 167.4 503.479 167.4ZM502.799 185.64C504.052 185.64 505.159 185.36 506.119 184.8C507.106 184.213 507.799 183.387 508.199 182.32V179.84H503.039C500.159 179.84 498.719 180.787 498.719 182.68C498.719 183.587 499.079 184.307 499.799 184.84C500.519 185.373 501.519 185.64 502.799 185.64ZM539.225 167.64L529.225 190.72C528.292 193.04 527.159 194.667 525.825 195.6C524.492 196.56 522.879 197.04 520.985 197.04C519.919 197.04 518.865 196.867 517.825 196.52C516.785 196.173 515.932 195.693 515.265 195.08L517.265 191.4C517.745 191.853 518.305 192.213 518.945 192.48C519.612 192.747 520.279 192.88 520.945 192.88C521.825 192.88 522.545 192.653 523.105 192.2C523.692 191.747 524.225 190.987 524.705 189.92L525.065 189.08L515.745 167.64H520.945L527.665 183.44L534.425 167.64H539.225ZM549.846 167.4C552.993 167.4 555.393 168.16 557.046 169.68C558.726 171.173 559.566 173.44 559.566 176.48V189H554.846V186.4C554.233 187.333 553.353 188.053 552.206 188.56C551.086 189.04 549.726 189.28 548.126 189.28C546.526 189.28 545.126 189.013 543.926 188.48C542.726 187.92 541.793 187.16 541.126 186.2C540.486 185.213 540.166 184.107 540.166 182.88C540.166 180.96 540.873 179.427 542.286 178.28C543.726 177.107 545.98 176.52 549.046 176.52H554.566V176.2C554.566 174.707 554.113 173.56 553.206 172.76C552.326 171.96 551.006 171.56 549.246 171.56C548.046 171.56 546.86 171.747 545.686 172.12C544.54 172.493 543.566 173.013 542.766 173.68L540.806 170.04C541.926 169.187 543.273 168.533 544.846 168.08C546.42 167.627 548.086 167.4 549.846 167.4ZM549.166 185.64C550.42 185.64 551.526 185.36 552.486 184.8C553.473 184.213 554.166 183.387 554.566 182.32V179.84H549.406C546.526 179.84 545.086 180.787 545.086 182.68C545.086 183.587 545.446 184.307 546.166 184.84C546.886 185.373 547.886 185.64 549.166 185.64ZM570.743 170.76C572.183 168.52 574.716 167.4 578.343 167.4V172.16C577.916 172.08 577.53 172.04 577.183 172.04C575.236 172.04 573.716 172.613 572.623 173.76C571.53 174.88 570.983 176.507 570.983 178.64V189H565.983V167.64H570.743V170.76ZM590.628 167.4C593.774 167.4 596.174 168.16 597.828 169.68C599.508 171.173 600.348 173.44 600.348 176.48V189H595.628V186.4C595.014 187.333 594.134 188.053 592.988 188.56C591.868 189.04 590.508 189.28 588.908 189.28C587.308 189.28 585.908 189.013 584.708 188.48C583.508 187.92 582.574 187.16 581.908 186.2C581.268 185.213 580.948 184.107 580.948 182.88C580.948 180.96 581.654 179.427 583.068 178.28C584.508 177.107 586.761 176.52 589.828 176.52H595.348V176.2C595.348 174.707 594.894 173.56 593.988 172.76C593.108 171.96 591.788 171.56 590.028 171.56C588.828 171.56 587.641 171.747 586.468 172.12C585.321 172.493 584.348 173.013 583.548 173.68L581.588 170.04C582.708 169.187 584.054 168.533 585.628 168.08C587.201 167.627 588.868 167.4 590.628 167.4ZM589.948 185.64C591.201 185.64 592.308 185.36 593.268 184.8C594.254 184.213 594.948 183.387 595.348 182.32V179.84H590.188C587.308 179.84 585.868 180.787 585.868 182.68C585.868 183.587 586.228 184.307 586.948 184.84C587.668 185.373 588.668 185.64 589.948 185.64ZM618.884 167.4C621.578 167.4 623.738 168.187 625.364 169.76C626.991 171.333 627.804 173.667 627.804 176.76V189H622.804V177.4C622.804 175.533 622.364 174.133 621.484 173.2C620.604 172.24 619.351 171.76 617.724 171.76C615.884 171.76 614.431 172.32 613.364 173.44C612.298 174.533 611.764 176.12 611.764 178.2V189H606.764V167.64H611.524V170.4C612.351 169.413 613.391 168.667 614.644 168.16C615.898 167.653 617.311 167.4 618.884 167.4ZM657.042 167.4C659.122 167.4 660.975 167.853 662.602 168.76C664.255 169.667 665.549 170.947 666.482 172.6C667.415 174.253 667.882 176.16 667.882 178.32C667.882 180.48 667.415 182.4 666.482 184.08C665.549 185.733 664.255 187.013 662.602 187.92C660.975 188.827 659.122 189.28 657.042 189.28C655.575 189.28 654.229 189.027 653.002 188.52C651.802 188.013 650.789 187.253 649.962 186.24V189H645.202V159.32H650.202V170.24C651.055 169.307 652.055 168.6 653.202 168.12C654.375 167.64 655.655 167.4 657.042 167.4ZM656.482 185C658.322 185 659.829 184.387 661.002 183.16C662.202 181.933 662.802 180.32 662.802 178.32C662.802 176.32 662.202 174.707 661.002 173.48C659.829 172.253 658.322 171.64 656.482 171.64C655.282 171.64 654.202 171.92 653.242 172.48C652.282 173.013 651.522 173.787 650.962 174.8C650.402 175.813 650.122 176.987 650.122 178.32C650.122 179.653 650.402 180.827 650.962 181.84C651.522 182.853 652.282 183.64 653.242 184.2C654.202 184.733 655.282 185 656.482 185ZM672.624 167.64H677.624V189H672.624V167.64ZM675.144 164.12C674.237 164.12 673.477 163.84 672.864 163.28C672.25 162.693 671.944 161.973 671.944 161.12C671.944 160.267 672.25 159.56 672.864 159C673.477 158.413 674.237 158.12 675.144 158.12C676.05 158.12 676.81 158.4 677.424 158.96C678.037 159.493 678.344 160.173 678.344 161C678.344 161.88 678.037 162.627 677.424 163.24C676.837 163.827 676.077 164.12 675.144 164.12ZM692.346 167.4C695.493 167.4 697.893 168.16 699.546 169.68C701.226 171.173 702.066 173.44 702.066 176.48V189H697.346V186.4C696.733 187.333 695.853 188.053 694.706 188.56C693.586 189.04 692.226 189.28 690.626 189.28C689.026 189.28 687.626 189.013 686.426 188.48C685.226 187.92 684.293 187.16 683.626 186.2C682.986 185.213 682.666 184.107 682.666 182.88C682.666 180.96 683.373 179.427 684.786 178.28C686.226 177.107 688.48 176.52 691.546 176.52H697.066V176.2C697.066 174.707 696.613 173.56 695.706 172.76C694.826 171.96 693.506 171.56 691.746 171.56C690.546 171.56 689.36 171.747 688.186 172.12C687.04 172.493 686.066 173.013 685.266 173.68L683.306 170.04C684.426 169.187 685.773 168.533 687.346 168.08C688.92 167.627 690.586 167.4 692.346 167.4ZM691.666 185.64C692.92 185.64 694.026 185.36 694.986 184.8C695.973 184.213 696.666 183.387 697.066 182.32V179.84H691.906C689.026 179.84 687.586 180.787 687.586 182.68C687.586 183.587 687.946 184.307 688.666 184.84C689.386 185.373 690.386 185.64 691.666 185.64ZM728.093 167.64L718.093 190.72C717.159 193.04 716.026 194.667 714.693 195.6C713.359 196.56 711.746 197.04 709.853 197.04C708.786 197.04 707.733 196.867 706.693 196.52C705.653 196.173 704.799 195.693 704.132 195.08L706.132 191.4C706.613 191.853 707.173 192.213 707.813 192.48C708.479 192.747 709.146 192.88 709.812 192.88C710.693 192.88 711.413 192.653 711.973 192.2C712.559 191.747 713.093 190.987 713.573 189.92L713.933 189.08L704.612 167.64H709.812L716.533 183.44L723.293 167.64H728.093ZM738.713 167.4C741.86 167.4 744.26 168.16 745.913 169.68C747.593 171.173 748.433 173.44 748.433 176.48V189H743.713V186.4C743.1 187.333 742.22 188.053 741.073 188.56C739.953 189.04 738.593 189.28 736.993 189.28C735.393 189.28 733.993 189.013 732.793 188.48C731.593 187.92 730.66 187.16 729.993 186.2C729.353 185.213 729.033 184.107 729.033 182.88C729.033 180.96 729.74 179.427 731.153 178.28C732.593 177.107 734.847 176.52 737.913 176.52H743.433V176.2C743.433 174.707 742.98 173.56 742.073 172.76C741.193 171.96 739.873 171.56 738.113 171.56C736.913 171.56 735.727 171.747 734.553 172.12C733.407 172.493 732.433 173.013 731.633 173.68L729.673 170.04C730.793 169.187 732.14 168.533 733.713 168.08C735.287 167.627 736.953 167.4 738.713 167.4ZM738.033 185.64C739.287 185.64 740.393 185.36 741.353 184.8C742.34 184.213 743.033 183.387 743.433 182.32V179.84H738.273C735.393 179.84 733.953 180.787 733.953 182.68C733.953 183.587 734.313 184.307 735.033 184.84C735.753 185.373 736.753 185.64 738.033 185.64ZM777.745 167.4C779.825 167.4 781.678 167.853 783.305 168.76C784.958 169.667 786.252 170.947 787.185 172.6C788.118 174.253 788.585 176.16 788.585 178.32C788.585 180.48 788.118 182.4 787.185 184.08C786.252 185.733 784.958 187.013 783.305 187.92C781.678 188.827 779.825 189.28 777.745 189.28C774.865 189.28 772.585 188.32 770.905 186.4V196.76H765.905V167.64H770.665V170.44C771.492 169.427 772.505 168.667 773.705 168.16C774.932 167.653 776.278 167.4 777.745 167.4ZM777.185 185C779.025 185 780.532 184.387 781.705 183.16C782.905 181.933 783.505 180.32 783.505 178.32C783.505 176.32 782.905 174.707 781.705 173.48C780.532 172.253 779.025 171.64 777.185 171.64C775.985 171.64 774.905 171.92 773.945 172.48C772.985 173.013 772.225 173.787 771.665 174.8C771.105 175.813 770.825 176.987 770.825 178.32C770.825 179.653 771.105 180.827 771.665 181.84C772.225 182.853 772.985 183.64 773.945 184.2C774.905 184.733 775.985 185 777.185 185ZM813.407 178.44C813.407 178.787 813.38 179.28 813.327 179.92H796.567C796.86 181.493 797.62 182.747 798.847 183.68C800.1 184.587 801.647 185.04 803.487 185.04C805.834 185.04 807.767 184.267 809.287 182.72L811.967 185.8C811.007 186.947 809.794 187.813 808.327 188.4C806.86 188.987 805.207 189.28 803.367 189.28C801.02 189.28 798.954 188.813 797.167 187.88C795.38 186.947 793.994 185.653 793.007 184C792.047 182.32 791.567 180.427 791.567 178.32C791.567 176.24 792.034 174.373 792.967 172.72C793.927 171.04 795.247 169.733 796.927 168.8C798.607 167.867 800.5 167.4 802.607 167.4C804.687 167.4 806.54 167.867 808.167 168.8C809.82 169.707 811.1 171 812.007 172.68C812.94 174.333 813.407 176.253 813.407 178.44ZM802.607 171.4C801.007 171.4 799.647 171.88 798.527 172.84C797.434 173.773 796.767 175.027 796.527 176.6H808.647C808.434 175.053 807.78 173.8 806.687 172.84C805.594 171.88 804.234 171.4 802.607 171.4ZM830.33 167.4C833.023 167.4 835.183 168.187 836.81 169.76C838.436 171.333 839.25 173.667 839.25 176.76V189H834.25V177.4C834.25 175.533 833.81 174.133 832.93 173.2C832.05 172.24 830.796 171.76 829.17 171.76C827.33 171.76 825.876 172.32 824.81 173.44C823.743 174.533 823.21 176.12 823.21 178.2V189H818.21V167.64H822.97V170.4C823.796 169.413 824.836 168.667 826.09 168.16C827.343 167.653 828.756 167.4 830.33 167.4ZM866.708 159.32V189H861.908V186.24C861.081 187.253 860.054 188.013 858.828 188.52C857.628 189.027 856.294 189.28 854.828 189.28C852.774 189.28 850.921 188.827 849.268 187.92C847.641 187.013 846.361 185.733 845.428 184.08C844.494 182.4 844.028 180.48 844.028 178.32C844.028 176.16 844.494 174.253 845.428 172.6C846.361 170.947 847.641 169.667 849.268 168.76C850.921 167.853 852.774 167.4 854.828 167.4C856.241 167.4 857.534 167.64 858.708 168.12C859.881 168.6 860.881 169.32 861.708 170.28V159.32H866.708ZM855.428 185C856.628 185 857.708 184.733 858.668 184.2C859.628 183.64 860.388 182.853 860.948 181.84C861.508 180.827 861.788 179.653 861.788 178.32C861.788 176.987 861.508 175.813 860.948 174.8C860.388 173.787 859.628 173.013 858.668 172.48C857.708 171.92 856.628 171.64 855.428 171.64C854.228 171.64 853.148 171.92 852.188 172.48C851.228 173.013 850.468 173.787 849.908 174.8C849.348 175.813 849.068 176.987 849.068 178.32C849.068 179.653 849.348 180.827 849.908 181.84C850.468 182.853 851.228 183.64 852.188 184.2C853.148 184.733 854.228 185 855.428 185ZM881.409 167.4C884.555 167.4 886.955 168.16 888.609 169.68C890.289 171.173 891.129 173.44 891.129 176.48V189H886.409V186.4C885.795 187.333 884.915 188.053 883.769 188.56C882.649 189.04 881.289 189.28 879.689 189.28C878.089 189.28 876.689 189.013 875.489 188.48C874.289 187.92 873.355 187.16 872.689 186.2C872.049 185.213 871.729 184.107 871.729 182.88C871.729 180.96 872.435 179.427 873.849 178.28C875.289 177.107 877.542 176.52 880.609 176.52H886.129V176.2C886.129 174.707 885.675 173.56 884.769 172.76C883.889 171.96 882.569 171.56 880.809 171.56C879.609 171.56 878.422 171.747 877.249 172.12C876.102 172.493 875.129 173.013 874.329 173.68L872.369 170.04C873.489 169.187 874.835 168.533 876.409 168.08C877.982 167.627 879.649 167.4 881.409 167.4ZM880.729 185.64C881.982 185.64 883.089 185.36 884.049 184.8C885.035 184.213 885.729 183.387 886.129 182.32V179.84H880.969C878.089 179.84 876.649 180.787 876.649 182.68C876.649 183.587 877.009 184.307 877.729 184.84C878.449 185.373 879.449 185.64 880.729 185.64ZM906.226 163.08C904.119 163.08 903.066 164.227 903.066 166.52V167.8H908.946V171.8H903.226V189H898.226V171.8H894.706V167.8H898.226V166.44C898.226 164.147 898.892 162.347 900.226 161.04C901.559 159.707 903.439 159.04 905.866 159.04C907.786 159.04 909.292 159.427 910.386 160.2L908.986 163.96C908.132 163.373 907.212 163.08 906.226 163.08ZM925.151 187.84C924.565 188.32 923.845 188.68 922.991 188.92C922.165 189.16 921.285 189.28 920.351 189.28C918.005 189.28 916.191 188.667 914.911 187.44C913.631 186.213 912.991 184.427 912.991 182.08V171.8H909.471V167.8H912.991V162.92H917.991V167.8H923.711V171.8H917.991V181.96C917.991 183 918.245 183.8 918.751 184.36C919.258 184.893 919.991 185.16 920.951 185.16C922.071 185.16 923.005 184.867 923.751 184.28L925.151 187.84ZM937.424 167.4C940.571 167.4 942.971 168.16 944.624 169.68C946.304 171.173 947.144 173.44 947.144 176.48V189H942.424V186.4C941.811 187.333 940.931 188.053 939.784 188.56C938.664 189.04 937.304 189.28 935.704 189.28C934.104 189.28 932.704 189.013 931.504 188.48C930.304 187.92 929.371 187.16 928.704 186.2C928.064 185.213 927.744 184.107 927.744 182.88C927.744 180.96 928.451 179.427 929.864 178.28C931.304 177.107 933.558 176.52 936.624 176.52H942.144V176.2C942.144 174.707 941.691 173.56 940.784 172.76C939.904 171.96 938.584 171.56 936.824 171.56C935.624 171.56 934.438 171.747 933.264 172.12C932.118 172.493 931.144 173.013 930.344 173.68L928.384 170.04C929.504 169.187 930.851 168.533 932.424 168.08C933.998 167.627 935.664 167.4 937.424 167.4ZM936.744 185.64C937.998 185.64 939.104 185.36 940.064 184.8C941.051 184.213 941.744 183.387 942.144 182.32V179.84H936.984C934.104 179.84 932.664 180.787 932.664 182.68C932.664 183.587 933.024 184.307 933.744 184.84C934.464 185.373 935.464 185.64 936.744 185.64ZM958.321 170.76C959.761 168.52 962.295 167.4 965.921 167.4V172.16C965.495 172.08 965.108 172.04 964.761 172.04C962.815 172.04 961.295 172.613 960.201 173.76C959.108 174.88 958.561 176.507 958.561 178.64V189H953.561V167.64H958.321V170.76ZM978.206 167.4C981.352 167.4 983.752 168.16 985.406 169.68C987.086 171.173 987.926 173.44 987.926 176.48V189H983.206V186.4C982.592 187.333 981.712 188.053 980.566 188.56C979.446 189.04 978.086 189.28 976.486 189.28C974.886 189.28 973.486 189.013 972.286 188.48C971.086 187.92 970.152 187.16 969.486 186.2C968.846 185.213 968.526 184.107 968.526 182.88C968.526 180.96 969.232 179.427 970.646 178.28C972.086 177.107 974.339 176.52 977.406 176.52H982.926V176.2C982.926 174.707 982.472 173.56 981.566 172.76C980.686 171.96 979.366 171.56 977.606 171.56C976.406 171.56 975.219 171.747 974.046 172.12C972.899 172.493 971.926 173.013 971.126 173.68L969.166 170.04C970.286 169.187 971.632 168.533 973.206 168.08C974.779 167.627 976.446 167.4 978.206 167.4ZM977.526 185.64C978.779 185.64 979.886 185.36 980.846 184.8C981.832 184.213 982.526 183.387 982.926 182.32V179.84H977.766C974.886 179.84 973.446 180.787 973.446 182.68C973.446 183.587 973.806 184.307 974.526 184.84C975.246 185.373 976.246 185.64 977.526 185.64ZM1006.46 167.4C1009.16 167.4 1011.32 168.187 1012.94 169.76C1014.57 171.333 1015.38 173.667 1015.38 176.76V189H1010.38V177.4C1010.38 175.533 1009.94 174.133 1009.06 173.2C1008.18 172.24 1006.93 171.76 1005.3 171.76C1003.46 171.76 1002.01 172.32 1000.94 173.44C999.876 174.533 999.343 176.12 999.343 178.2V189H994.343V167.64H999.103V170.4C999.929 169.413 1000.97 168.667 1002.22 168.16C1003.48 167.653 1004.89 167.4 1006.46 167.4ZM197.12 216.4C199.2 216.4 201.053 216.853 202.68 217.76C204.333 218.667 205.627 219.947 206.56 221.6C207.493 223.253 207.96 225.16 207.96 227.32C207.96 229.48 207.493 231.4 206.56 233.08C205.627 234.733 204.333 236.013 202.68 236.92C201.053 237.827 199.2 238.28 197.12 238.28C194.24 238.28 191.96 237.32 190.28 235.4V245.76H185.28V216.64H190.04V219.44C190.867 218.427 191.88 217.667 193.08 217.16C194.307 216.653 195.653 216.4 197.12 216.4ZM196.56 234C198.4 234 199.907 233.387 201.08 232.16C202.28 230.933 202.88 229.32 202.88 227.32C202.88 225.32 202.28 223.707 201.08 222.48C199.907 221.253 198.4 220.64 196.56 220.64C195.36 220.64 194.28 220.92 193.32 221.48C192.36 222.013 191.6 222.787 191.04 223.8C190.48 224.813 190.2 225.987 190.2 227.32C190.2 228.653 190.48 229.827 191.04 230.84C191.6 231.853 192.36 232.64 193.32 233.2C194.28 233.733 195.36 234 196.56 234ZM232.782 227.44C232.782 227.787 232.755 228.28 232.702 228.92H215.942C216.235 230.493 216.995 231.747 218.222 232.68C219.475 233.587 221.022 234.04 222.862 234.04C225.209 234.04 227.142 233.267 228.662 231.72L231.342 234.8C230.382 235.947 229.169 236.813 227.702 237.4C226.235 237.987 224.582 238.28 222.742 238.28C220.395 238.28 218.329 237.813 216.542 236.88C214.755 235.947 213.369 234.653 212.382 233C211.422 231.32 210.942 229.427 210.942 227.32C210.942 225.24 211.409 223.373 212.342 221.72C213.302 220.04 214.622 218.733 216.302 217.8C217.982 216.867 219.875 216.4 221.982 216.4C224.062 216.4 225.915 216.867 227.542 217.8C229.195 218.707 230.475 220 231.382 221.68C232.315 223.333 232.782 225.253 232.782 227.44ZM221.982 220.4C220.382 220.4 219.022 220.88 217.902 221.84C216.809 222.773 216.142 224.027 215.902 225.6H228.022C227.809 224.053 227.155 222.8 226.062 221.84C224.969 220.88 223.609 220.4 221.982 220.4ZM242.345 219.76C243.785 217.52 246.318 216.4 249.945 216.4V221.16C249.518 221.08 249.131 221.04 248.785 221.04C246.838 221.04 245.318 221.613 244.225 222.76C243.131 223.88 242.585 225.507 242.585 227.64V238H237.585V216.64H242.345V219.76ZM278.276 236.84C277.69 237.32 276.97 237.68 276.116 237.92C275.29 238.16 274.41 238.28 273.476 238.28C271.13 238.28 269.316 237.667 268.036 236.44C266.756 235.213 266.116 233.427 266.116 231.08V220.8H262.596V216.8H266.116V211.92H271.116V216.8H276.836V220.8H271.116V230.96C271.116 232 271.37 232.8 271.876 233.36C272.383 233.893 273.116 234.16 274.076 234.16C275.196 234.16 276.13 233.867 276.876 233.28L278.276 236.84ZM282.389 216.64H287.389V238H282.389V216.64ZM284.909 213.12C284.003 213.12 283.243 212.84 282.629 212.28C282.016 211.693 281.709 210.973 281.709 210.12C281.709 209.267 282.016 208.56 282.629 208C283.243 207.413 284.003 207.12 284.909 207.12C285.816 207.12 286.576 207.4 287.189 207.96C287.803 208.493 288.109 209.173 288.109 210C288.109 210.88 287.803 211.627 287.189 212.24C286.603 212.827 285.843 213.12 284.909 213.12ZM320.912 216.4C323.605 216.4 325.739 217.187 327.312 218.76C328.885 220.307 329.672 222.64 329.672 225.76V238H324.672V226.4C324.672 224.533 324.259 223.133 323.432 222.2C322.605 221.24 321.419 220.76 319.872 220.76C318.192 220.76 316.845 221.32 315.832 222.44C314.819 223.533 314.312 225.107 314.312 227.16V238H309.312V226.4C309.312 224.533 308.899 223.133 308.072 222.2C307.245 221.24 306.059 220.76 304.512 220.76C302.805 220.76 301.445 221.307 300.432 222.4C299.445 223.493 298.952 225.08 298.952 227.16V238H293.952V216.64H298.712V219.36C299.512 218.4 300.512 217.667 301.712 217.16C302.912 216.653 304.245 216.4 305.712 216.4C307.312 216.4 308.725 216.707 309.952 217.32C311.205 217.907 312.192 218.787 312.912 219.96C313.792 218.84 314.925 217.973 316.312 217.36C317.699 216.72 319.232 216.4 320.912 216.4ZM355.836 228.84L352.116 232.36V238H347.116V208.32H352.116V226.24L362.476 216.64H368.476L359.556 225.6L369.316 238H363.236L355.836 228.84ZM391.727 227.44C391.727 227.787 391.701 228.28 391.647 228.92H374.887C375.181 230.493 375.941 231.747 377.167 232.68C378.421 233.587 379.967 234.04 381.807 234.04C384.154 234.04 386.087 233.267 387.607 231.72L390.287 234.8C389.327 235.947 388.114 236.813 386.647 237.4C385.181 237.987 383.527 238.28 381.687 238.28C379.341 238.28 377.274 237.813 375.487 236.88C373.701 235.947 372.314 234.653 371.327 233C370.367 231.32 369.887 229.427 369.887 227.32C369.887 225.24 370.354 223.373 371.287 221.72C372.247 220.04 373.567 218.733 375.247 217.8C376.927 216.867 378.821 216.4 380.927 216.4C383.007 216.4 384.861 216.867 386.487 217.8C388.141 218.707 389.421 220 390.327 221.68C391.261 223.333 391.727 225.253 391.727 227.44ZM380.927 220.4C379.327 220.4 377.967 220.88 376.847 221.84C375.754 222.773 375.087 224.027 374.847 225.6H386.967C386.754 224.053 386.101 222.8 385.007 221.84C383.914 220.88 382.554 220.4 380.927 220.4ZM419.705 216.4C422.398 216.4 424.558 217.187 426.185 218.76C427.811 220.333 428.625 222.667 428.625 225.76V238H423.625V226.4C423.625 224.533 423.185 223.133 422.305 222.2C421.425 221.24 420.171 220.76 418.545 220.76C416.705 220.76 415.251 221.32 414.185 222.44C413.118 223.533 412.585 225.12 412.585 227.2V238H407.585V216.64H412.345V219.4C413.171 218.413 414.211 217.667 415.465 217.16C416.718 216.653 418.131 216.4 419.705 216.4ZM444.763 238.28C442.603 238.28 440.656 237.813 438.923 236.88C437.189 235.947 435.829 234.653 434.843 233C433.883 231.32 433.403 229.427 433.403 227.32C433.403 225.213 433.883 223.333 434.843 221.68C435.829 220.027 437.189 218.733 438.923 217.8C440.656 216.867 442.603 216.4 444.763 216.4C446.949 216.4 448.909 216.867 450.643 217.8C452.376 218.733 453.723 220.027 454.683 221.68C455.669 223.333 456.163 225.213 456.163 227.32C456.163 229.427 455.669 231.32 454.683 233C453.723 234.653 452.376 235.947 450.643 236.88C448.909 237.813 446.949 238.28 444.763 238.28ZM444.763 234C446.603 234 448.123 233.387 449.323 232.16C450.523 230.933 451.123 229.32 451.123 227.32C451.123 225.32 450.523 223.707 449.323 222.48C448.123 221.253 446.603 220.64 444.763 220.64C442.923 220.64 441.403 221.253 440.203 222.48C439.029 223.707 438.443 225.32 438.443 227.32C438.443 229.32 439.029 230.933 440.203 232.16C441.403 233.387 442.923 234 444.763 234ZM487.904 216.4C490.597 216.4 492.731 217.187 494.304 218.76C495.877 220.307 496.664 222.64 496.664 225.76V238H491.664V226.4C491.664 224.533 491.251 223.133 490.424 222.2C489.597 221.24 488.411 220.76 486.864 220.76C485.184 220.76 483.837 221.32 482.824 222.44C481.811 223.533 481.304 225.107 481.304 227.16V238H476.304V226.4C476.304 224.533 475.891 223.133 475.064 222.2C474.237 221.24 473.051 220.76 471.504 220.76C469.797 220.76 468.437 221.307 467.424 222.4C466.437 223.493 465.944 225.08 465.944 227.16V238H460.944V216.64H465.704V219.36C466.504 218.4 467.504 217.667 468.704 217.16C469.904 216.653 471.237 216.4 472.704 216.4C474.304 216.4 475.717 216.707 476.944 217.32C478.197 217.907 479.184 218.787 479.904 219.96C480.784 218.84 481.917 217.973 483.304 217.36C484.691 216.72 486.224 216.4 487.904 216.4ZM512.849 238.28C510.689 238.28 508.742 237.813 507.009 236.88C505.275 235.947 503.915 234.653 502.929 233C501.969 231.32 501.489 229.427 501.489 227.32C501.489 225.213 501.969 223.333 502.929 221.68C503.915 220.027 505.275 218.733 507.009 217.8C508.742 216.867 510.689 216.4 512.849 216.4C515.035 216.4 516.995 216.867 518.729 217.8C520.462 218.733 521.809 220.027 522.769 221.68C523.755 223.333 524.249 225.213 524.249 227.32C524.249 229.427 523.755 231.32 522.769 233C521.809 234.653 520.462 235.947 518.729 236.88C516.995 237.813 515.035 238.28 512.849 238.28ZM512.849 234C514.689 234 516.209 233.387 517.409 232.16C518.609 230.933 519.209 229.32 519.209 227.32C519.209 225.32 518.609 223.707 517.409 222.48C516.209 221.253 514.689 220.64 512.849 220.64C511.009 220.64 509.489 221.253 508.289 222.48C507.115 223.707 506.529 225.32 506.529 227.32C506.529 229.32 507.115 230.933 508.289 232.16C509.489 233.387 511.009 234 512.849 234ZM533.79 219.76C535.23 217.52 537.763 216.4 541.39 216.4V221.16C540.963 221.08 540.577 221.04 540.23 221.04C538.283 221.04 536.763 221.613 535.67 222.76C534.577 223.88 534.03 225.507 534.03 227.64V238H529.03V216.64H533.79V219.76ZM561.642 219.76C563.082 217.52 565.615 216.4 569.242 216.4V221.16C568.815 221.08 568.428 221.04 568.082 221.04C566.135 221.04 564.615 221.613 563.522 222.76C562.428 223.88 561.882 225.507 561.882 227.64V238H556.882V216.64H561.642V219.76ZM593.368 227.44C593.368 227.787 593.341 228.28 593.288 228.92H576.528C576.821 230.493 577.581 231.747 578.808 232.68C580.061 233.587 581.608 234.04 583.448 234.04C585.794 234.04 587.728 233.267 589.248 231.72L591.928 234.8C590.968 235.947 589.754 236.813 588.288 237.4C586.821 237.987 585.168 238.28 583.328 238.28C580.981 238.28 578.914 237.813 577.128 236.88C575.341 235.947 573.954 234.653 572.968 233C572.008 231.32 571.528 229.427 571.528 227.32C571.528 225.24 571.994 223.373 572.928 221.72C573.888 220.04 575.208 218.733 576.888 217.8C578.568 216.867 580.461 216.4 582.568 216.4C584.648 216.4 586.501 216.867 588.128 217.8C589.781 218.707 591.061 220 591.968 221.68C592.901 223.333 593.368 225.253 593.368 227.44ZM582.568 220.4C580.968 220.4 579.608 220.88 578.488 221.84C577.394 222.773 576.728 224.027 576.488 225.6H588.608C588.394 224.053 587.741 222.8 586.648 221.84C585.554 220.88 584.194 220.4 582.568 220.4ZM606.891 228.84L603.171 232.36V238H598.171V208.32H603.171V226.24L613.531 216.64H619.531L610.611 225.6L620.371 238H614.291L606.891 228.84ZM642.782 227.44C642.782 227.787 642.755 228.28 642.702 228.92H625.942C626.235 230.493 626.995 231.747 628.222 232.68C629.475 233.587 631.022 234.04 632.862 234.04C635.209 234.04 637.142 233.267 638.662 231.72L641.342 234.8C640.382 235.947 639.169 236.813 637.702 237.4C636.235 237.987 634.582 238.28 632.742 238.28C630.395 238.28 628.329 237.813 626.542 236.88C624.755 235.947 623.369 234.653 622.382 233C621.422 231.32 620.942 229.427 620.942 227.32C620.942 225.24 621.409 223.373 622.342 221.72C623.302 220.04 624.622 218.733 626.302 217.8C627.982 216.867 629.875 216.4 631.982 216.4C634.062 216.4 635.915 216.867 637.542 217.8C639.195 218.707 640.475 220 641.382 221.68C642.315 223.333 642.782 225.253 642.782 227.44ZM631.982 220.4C630.382 220.4 629.022 220.88 627.902 221.84C626.809 222.773 626.142 224.027 625.902 225.6H638.022C637.809 224.053 637.155 222.8 636.062 221.84C634.969 220.88 633.609 220.4 631.982 220.4ZM659.705 216.4C662.398 216.4 664.558 217.187 666.185 218.76C667.811 220.333 668.625 222.667 668.625 225.76V238H663.625V226.4C663.625 224.533 663.185 223.133 662.305 222.2C661.425 221.24 660.171 220.76 658.545 220.76C656.705 220.76 655.251 221.32 654.185 222.44C653.118 223.533 652.585 225.12 652.585 227.2V238H647.585V216.64H652.345V219.4C653.171 218.413 654.211 217.667 655.465 217.16C656.718 216.653 658.131 216.4 659.705 216.4ZM674.968 216.64H679.968V238H674.968V216.64ZM677.488 213.12C676.581 213.12 675.821 212.84 675.208 212.28C674.594 211.693 674.288 210.973 674.288 210.12C674.288 209.267 674.594 208.56 675.208 208C675.821 207.413 676.581 207.12 677.488 207.12C678.394 207.12 679.154 207.4 679.768 207.96C680.381 208.493 680.688 209.173 680.688 210C680.688 210.88 680.381 211.627 679.768 212.24C679.181 212.827 678.421 213.12 677.488 213.12ZM698.65 216.4C701.343 216.4 703.503 217.187 705.13 218.76C706.757 220.333 707.57 222.667 707.57 225.76V238H702.57V226.4C702.57 224.533 702.13 223.133 701.25 222.2C700.37 221.24 699.117 220.76 697.49 220.76C695.65 220.76 694.197 221.32 693.13 222.44C692.063 223.533 691.53 225.12 691.53 227.2V238H686.53V216.64H691.29V219.4C692.117 218.413 693.157 217.667 694.41 217.16C695.663 216.653 697.077 216.4 698.65 216.4ZM735.308 216.64V234.76C735.308 242.28 731.468 246.04 723.788 246.04C721.735 246.04 719.788 245.773 717.948 245.24C716.108 244.733 714.588 243.987 713.388 243L715.628 239.24C716.561 240.013 717.735 240.627 719.148 241.08C720.588 241.56 722.041 241.8 723.508 241.8C725.855 241.8 727.575 241.267 728.668 240.2C729.761 239.133 730.308 237.507 730.308 235.32V234.2C729.455 235.133 728.415 235.84 727.188 236.32C725.961 236.8 724.615 237.04 723.148 237.04C721.121 237.04 719.281 236.613 717.628 235.76C716.001 234.88 714.708 233.653 713.748 232.08C712.815 230.507 712.348 228.707 712.348 226.68C712.348 224.653 712.815 222.867 713.748 221.32C714.708 219.747 716.001 218.533 717.628 217.68C719.281 216.827 721.121 216.4 723.148 216.4C724.695 216.4 726.095 216.653 727.348 217.16C728.628 217.667 729.695 218.44 730.548 219.48V216.64H735.308ZM723.908 232.8C725.801 232.8 727.348 232.24 728.548 231.12C729.775 229.973 730.388 228.493 730.388 226.68C730.388 224.893 729.775 223.44 728.548 222.32C727.348 221.2 725.801 220.64 723.908 220.64C721.988 220.64 720.415 221.2 719.188 222.32C717.988 223.44 717.388 224.893 717.388 226.68C717.388 228.493 717.988 229.973 719.188 231.12C720.415 232.24 721.988 232.8 723.908 232.8ZM764.776 216.4C766.856 216.4 768.71 216.853 770.336 217.76C771.99 218.667 773.283 219.947 774.216 221.6C775.15 223.253 775.616 225.16 775.616 227.32C775.616 229.48 775.15 231.4 774.216 233.08C773.283 234.733 771.99 236.013 770.336 236.92C768.71 237.827 766.856 238.28 764.776 238.28C763.31 238.28 761.963 238.027 760.736 237.52C759.536 237.013 758.523 236.253 757.696 235.24V238H752.936V208.32H757.936V219.24C758.79 218.307 759.79 217.6 760.936 217.12C762.11 216.64 763.39 216.4 764.776 216.4ZM764.216 234C766.056 234 767.563 233.387 768.736 232.16C769.936 230.933 770.536 229.32 770.536 227.32C770.536 225.32 769.936 223.707 768.736 222.48C767.563 221.253 766.056 220.64 764.216 220.64C763.016 220.64 761.936 220.92 760.976 221.48C760.016 222.013 759.256 222.787 758.696 223.8C758.136 224.813 757.856 225.987 757.856 227.32C757.856 228.653 758.136 229.827 758.696 230.84C759.256 231.853 760.016 232.64 760.976 233.2C761.936 233.733 763.016 234 764.216 234ZM800.438 227.44C800.438 227.787 800.411 228.28 800.358 228.92H783.598C783.891 230.493 784.651 231.747 785.878 232.68C787.131 233.587 788.678 234.04 790.518 234.04C792.865 234.04 794.798 233.267 796.318 231.72L798.998 234.8C798.038 235.947 796.825 236.813 795.358 237.4C793.891 237.987 792.238 238.28 790.398 238.28C788.051 238.28 785.985 237.813 784.198 236.88C782.411 235.947 781.025 234.653 780.038 233C779.078 231.32 778.598 229.427 778.598 227.32C778.598 225.24 779.065 223.373 779.998 221.72C780.958 220.04 782.278 218.733 783.958 217.8C785.638 216.867 787.531 216.4 789.638 216.4C791.718 216.4 793.571 216.867 795.198 217.8C796.851 218.707 798.131 220 799.038 221.68C799.971 223.333 800.438 225.253 800.438 227.44ZM789.638 220.4C788.038 220.4 786.678 220.88 785.558 221.84C784.465 222.773 783.798 224.027 783.558 225.6H795.678C795.465 224.053 794.811 222.8 793.718 221.84C792.625 220.88 791.265 220.4 789.638 220.4ZM810.001 219.76C811.441 217.52 813.974 216.4 817.601 216.4V221.16C817.174 221.08 816.788 221.04 816.441 221.04C814.494 221.04 812.974 221.613 811.881 222.76C810.788 223.88 810.241 225.507 810.241 227.64V238H805.241V216.64H810.001V219.76ZM821.843 216.64H826.843V238H821.843V216.64ZM824.363 213.12C823.456 213.12 822.696 212.84 822.083 212.28C821.469 211.693 821.163 210.973 821.163 210.12C821.163 209.267 821.469 208.56 822.083 208C822.696 207.413 823.456 207.12 824.363 207.12C825.269 207.12 826.029 207.4 826.643 207.96C827.256 208.493 827.563 209.173 827.563 210C827.563 210.88 827.256 211.627 826.643 212.24C826.056 212.827 825.296 213.12 824.363 213.12ZM842.125 228.84L838.405 232.36V238H833.405V208.32H838.405V226.24L848.765 216.64H854.765L845.845 225.6L855.605 238H849.525L842.125 228.84ZM879.124 216.64V238H874.364V235.28C873.564 236.24 872.564 236.987 871.364 237.52C870.164 238.027 868.871 238.28 867.484 238.28C864.631 238.28 862.377 237.493 860.724 235.92C859.097 234.32 858.284 231.96 858.284 228.84V216.64H863.284V228.16C863.284 230.08 863.711 231.52 864.564 232.48C865.444 233.413 866.684 233.88 868.284 233.88C870.071 233.88 871.484 233.333 872.524 232.24C873.591 231.12 874.124 229.52 874.124 227.44V216.64H879.124ZM898.511 236.84C897.924 237.32 897.204 237.68 896.351 237.92C895.524 238.16 894.644 238.28 893.711 238.28C891.364 238.28 889.551 237.667 888.271 236.44C886.991 235.213 886.351 233.427 886.351 231.08V220.8H882.831V216.8H886.351V211.92H891.351V216.8H897.071V220.8H891.351V230.96C891.351 232 891.604 232.8 892.111 233.36C892.617 233.893 893.351 234.16 894.311 234.16C895.431 234.16 896.364 233.867 897.111 233.28L898.511 236.84ZM904.224 223.04C903.317 223.04 902.544 222.733 901.904 222.12C901.264 221.48 900.944 220.68 900.944 219.72C900.944 218.733 901.25 217.933 901.864 217.32C902.504 216.707 903.29 216.4 904.224 216.4C905.157 216.4 905.93 216.707 906.544 217.32C907.184 217.933 907.504 218.733 907.504 219.72C907.504 220.68 907.184 221.48 906.544 222.12C905.904 222.733 905.13 223.04 904.224 223.04ZM904.224 238.28C903.317 238.28 902.544 237.973 901.904 237.36C901.264 236.72 900.944 235.92 900.944 234.96C900.944 233.973 901.25 233.173 901.864 232.56C902.504 231.947 903.29 231.64 904.224 231.64C905.157 231.64 905.93 231.947 906.544 232.56C907.184 233.173 907.504 233.973 907.504 234.96C907.504 235.92 907.184 236.72 906.544 237.36C905.904 237.973 905.13 238.28 904.224 238.28ZM210.64 259V287H206.36L190.92 268.04V287H185.76V259H190.04L205.48 277.96V259H210.64ZM227.263 287.28C225.103 287.28 223.156 286.813 221.423 285.88C219.689 284.947 218.329 283.653 217.343 282C216.383 280.32 215.903 278.427 215.903 276.32C215.903 274.213 216.383 272.333 217.343 270.68C218.329 269.027 219.689 267.733 221.423 266.8C223.156 265.867 225.103 265.4 227.263 265.4C229.449 265.4 231.409 265.867 233.143 266.8C234.876 267.733 236.223 269.027 237.183 270.68C238.169 272.333 238.663 274.213 238.663 276.32C238.663 278.427 238.169 280.32 237.183 282C236.223 283.653 234.876 284.947 233.143 285.88C231.409 286.813 229.449 287.28 227.263 287.28ZM227.263 283C229.103 283 230.623 282.387 231.823 281.16C233.023 279.933 233.623 278.32 233.623 276.32C233.623 274.32 233.023 272.707 231.823 271.48C230.623 270.253 229.103 269.64 227.263 269.64C225.423 269.64 223.903 270.253 222.703 271.48C221.529 272.707 220.943 274.32 220.943 276.32C220.943 278.32 221.529 279.933 222.703 281.16C223.903 282.387 225.423 283 227.263 283ZM270.404 265.4C273.097 265.4 275.231 266.187 276.804 267.76C278.377 269.307 279.164 271.64 279.164 274.76V287H274.164V275.4C274.164 273.533 273.751 272.133 272.924 271.2C272.097 270.24 270.911 269.76 269.364 269.76C267.684 269.76 266.337 270.32 265.324 271.44C264.311 272.533 263.804 274.107 263.804 276.16V287H258.804V275.4C258.804 273.533 258.391 272.133 257.564 271.2C256.737 270.24 255.551 269.76 254.004 269.76C252.297 269.76 250.937 270.307 249.924 271.4C248.937 272.493 248.444 274.08 248.444 276.16V287H243.444V265.64H248.204V268.36C249.004 267.4 250.004 266.667 251.204 266.16C252.404 265.653 253.737 265.4 255.204 265.4C256.804 265.4 258.217 265.707 259.444 266.32C260.697 266.907 261.684 267.787 262.404 268.96C263.284 267.84 264.417 266.973 265.804 266.36C267.191 265.72 268.724 265.4 270.404 265.4ZM295.349 287.28C293.189 287.28 291.242 286.813 289.509 285.88C287.775 284.947 286.415 283.653 285.429 282C284.469 280.32 283.989 278.427 283.989 276.32C283.989 274.213 284.469 272.333 285.429 270.68C286.415 269.027 287.775 267.733 289.509 266.8C291.242 265.867 293.189 265.4 295.349 265.4C297.535 265.4 299.495 265.867 301.229 266.8C302.962 267.733 304.309 269.027 305.269 270.68C306.255 272.333 306.749 274.213 306.749 276.32C306.749 278.427 306.255 280.32 305.269 282C304.309 283.653 302.962 284.947 301.229 285.88C299.495 286.813 297.535 287.28 295.349 287.28ZM295.349 283C297.189 283 298.709 282.387 299.909 281.16C301.109 279.933 301.709 278.32 301.709 276.32C301.709 274.32 301.109 272.707 299.909 271.48C298.709 270.253 297.189 269.64 295.349 269.64C293.509 269.64 291.989 270.253 290.789 271.48C289.615 272.707 289.029 274.32 289.029 276.32C289.029 278.32 289.615 279.933 290.789 281.16C291.989 282.387 293.509 283 295.349 283ZM316.29 268.76C317.73 266.52 320.263 265.4 323.89 265.4V270.16C323.463 270.08 323.077 270.04 322.73 270.04C320.783 270.04 319.263 270.613 318.17 271.76C317.077 272.88 316.53 274.507 316.53 276.64V287H311.53V265.64H316.29V268.76ZM358.182 287L352.462 278.8C352.222 278.827 351.862 278.84 351.382 278.84H345.062V287H339.862V259H351.382C353.808 259 355.915 259.4 357.702 260.2C359.515 261 360.902 262.147 361.862 263.64C362.822 265.133 363.302 266.907 363.302 268.96C363.302 271.067 362.782 272.88 361.742 274.4C360.728 275.92 359.262 277.053 357.342 277.8L363.782 287H358.182ZM358.062 268.96C358.062 267.173 357.475 265.8 356.302 264.84C355.128 263.88 353.408 263.4 351.142 263.4H345.062V274.56H351.142C353.408 274.56 355.128 274.08 356.302 273.12C357.475 272.133 358.062 270.747 358.062 268.96ZM388.719 276.44C388.719 276.787 388.693 277.28 388.639 277.92H371.879C372.173 279.493 372.933 280.747 374.159 281.68C375.413 282.587 376.959 283.04 378.799 283.04C381.146 283.04 383.079 282.267 384.599 280.72L387.279 283.8C386.319 284.947 385.106 285.813 383.639 286.4C382.173 286.987 380.519 287.28 378.679 287.28C376.333 287.28 374.266 286.813 372.479 285.88C370.693 284.947 369.306 283.653 368.319 282C367.359 280.32 366.879 278.427 366.879 276.32C366.879 274.24 367.346 272.373 368.279 270.72C369.239 269.04 370.559 267.733 372.239 266.8C373.919 265.867 375.813 265.4 377.919 265.4C379.999 265.4 381.853 265.867 383.479 266.8C385.133 267.707 386.413 269 387.319 270.68C388.253 272.333 388.719 274.253 388.719 276.44ZM377.919 269.4C376.319 269.4 374.959 269.88 373.839 270.84C372.746 271.773 372.079 273.027 371.839 274.6H383.959C383.746 273.053 383.093 271.8 381.999 270.84C380.906 269.88 379.546 269.4 377.919 269.4ZM402.242 277.84L398.522 281.36V287H393.522V257.32H398.522V275.24L408.882 265.64H414.882L405.962 274.6L415.722 287H409.642L402.242 277.84ZM438.133 276.44C438.133 276.787 438.107 277.28 438.053 277.92H421.293C421.587 279.493 422.347 280.747 423.573 281.68C424.827 282.587 426.373 283.04 428.213 283.04C430.56 283.04 432.493 282.267 434.013 280.72L436.693 283.8C435.733 284.947 434.52 285.813 433.053 286.4C431.587 286.987 429.933 287.28 428.093 287.28C425.747 287.28 423.68 286.813 421.893 285.88C420.107 284.947 418.72 283.653 417.733 282C416.773 280.32 416.293 278.427 416.293 276.32C416.293 274.24 416.76 272.373 417.693 270.72C418.653 269.04 419.973 267.733 421.653 266.8C423.333 265.867 425.227 265.4 427.333 265.4C429.413 265.4 431.267 265.867 432.893 266.8C434.547 267.707 435.827 269 436.733 270.68C437.667 272.333 438.133 274.253 438.133 276.44ZM427.333 269.4C425.733 269.4 424.373 269.88 423.253 270.84C422.16 271.773 421.493 273.027 421.253 274.6H433.373C433.16 273.053 432.507 271.8 431.413 270.84C430.32 269.88 428.96 269.4 427.333 269.4ZM455.056 265.4C457.75 265.4 459.91 266.187 461.536 267.76C463.163 269.333 463.976 271.667 463.976 274.76V287H458.976V275.4C458.976 273.533 458.536 272.133 457.656 271.2C456.776 270.24 455.523 269.76 453.896 269.76C452.056 269.76 450.603 270.32 449.536 271.44C448.47 272.533 447.936 274.12 447.936 276.2V287H442.936V265.64H447.696V268.4C448.523 267.413 449.563 266.667 450.816 266.16C452.07 265.653 453.483 265.4 455.056 265.4ZM470.319 265.64H475.319V287H470.319V265.64ZM472.839 262.12C471.932 262.12 471.172 261.84 470.559 261.28C469.946 260.693 469.639 259.973 469.639 259.12C469.639 258.267 469.946 257.56 470.559 257C471.172 256.413 471.932 256.12 472.839 256.12C473.746 256.12 474.506 256.4 475.119 256.96C475.732 257.493 476.039 258.173 476.039 259C476.039 259.88 475.732 260.627 475.119 261.24C474.532 261.827 473.772 262.12 472.839 262.12ZM494.002 265.4C496.695 265.4 498.855 266.187 500.482 267.76C502.108 269.333 502.922 271.667 502.922 274.76V287H497.922V275.4C497.922 273.533 497.482 272.133 496.602 271.2C495.722 270.24 494.468 269.76 492.842 269.76C491.002 269.76 489.548 270.32 488.482 271.44C487.415 272.533 486.882 274.12 486.882 276.2V287H481.882V265.64H486.642V268.4C487.468 267.413 488.508 266.667 489.762 266.16C491.015 265.653 492.428 265.4 494.002 265.4ZM530.66 265.64V283.76C530.66 291.28 526.82 295.04 519.14 295.04C517.086 295.04 515.14 294.773 513.3 294.24C511.46 293.733 509.94 292.987 508.74 292L510.98 288.24C511.913 289.013 513.086 289.627 514.5 290.08C515.94 290.56 517.393 290.8 518.86 290.8C521.206 290.8 522.926 290.267 524.02 289.2C525.113 288.133 525.66 286.507 525.66 284.32V283.2C524.806 284.133 523.766 284.84 522.54 285.32C521.313 285.8 519.966 286.04 518.5 286.04C516.473 286.04 514.633 285.613 512.98 284.76C511.353 283.88 510.06 282.653 509.1 281.08C508.166 279.507 507.7 277.707 507.7 275.68C507.7 273.653 508.166 271.867 509.1 270.32C510.06 268.747 511.353 267.533 512.98 266.68C514.633 265.827 516.473 265.4 518.5 265.4C520.046 265.4 521.446 265.653 522.7 266.16C523.98 266.667 525.046 267.44 525.9 268.48V265.64H530.66ZM519.26 281.8C521.153 281.8 522.7 281.24 523.9 280.12C525.126 278.973 525.74 277.493 525.74 275.68C525.74 273.893 525.126 272.44 523.9 271.32C522.7 270.2 521.153 269.64 519.26 269.64C517.34 269.64 515.766 270.2 514.54 271.32C513.34 272.44 512.74 273.893 512.74 275.68C512.74 277.493 513.34 278.973 514.54 280.12C515.766 281.24 517.34 281.8 519.26 281.8ZM549.888 272.04C548.981 272.04 548.208 271.733 547.568 271.12C546.928 270.48 546.608 269.68 546.608 268.72C546.608 267.733 546.914 266.933 547.528 266.32C548.168 265.707 548.954 265.4 549.888 265.4C550.821 265.4 551.594 265.707 552.208 266.32C552.848 266.933 553.168 267.733 553.168 268.72C553.168 269.68 552.848 270.48 552.208 271.12C551.568 271.733 550.794 272.04 549.888 272.04ZM549.888 287.28C548.981 287.28 548.208 286.973 547.568 286.36C546.928 285.72 546.608 284.92 546.608 283.96C546.608 282.973 546.914 282.173 547.528 281.56C548.168 280.947 548.954 280.64 549.888 280.64C550.821 280.64 551.594 280.947 552.208 281.56C552.848 282.173 553.168 282.973 553.168 283.96C553.168 284.92 552.848 285.72 552.208 286.36C551.568 286.973 550.794 287.28 549.888 287.28ZM576.348 269.84C580.295 269.84 583.215 270.613 585.108 272.16C587.001 273.68 587.948 275.76 587.948 278.4C587.948 280.08 587.535 281.6 586.708 282.96C585.881 284.32 584.641 285.4 582.988 286.2C581.335 287 579.295 287.4 576.868 287.4C574.868 287.4 572.935 287.12 571.068 286.56C569.201 285.973 567.628 285.173 566.348 284.16L568.548 280.12C569.588 280.973 570.828 281.653 572.268 282.16C573.735 282.64 575.241 282.88 576.788 282.88C578.628 282.88 580.068 282.507 581.108 281.76C582.175 280.987 582.708 279.933 582.708 278.6C582.708 277.16 582.135 276.08 580.988 275.36C579.868 274.613 577.935 274.24 575.188 274.24H568.428L569.868 259H586.308V263.36H574.268L573.668 269.84H576.348ZM611.032 282.6V287H590.392V283.52L601.512 272.96C602.766 271.76 603.606 270.72 604.032 269.84C604.486 268.933 604.712 268.04 604.712 267.16C604.712 265.853 604.272 264.853 603.392 264.16C602.512 263.467 601.219 263.12 599.512 263.12C596.659 263.12 594.472 264.093 592.952 266.04L589.312 263.24C590.406 261.773 591.872 260.64 593.712 259.84C595.579 259.013 597.659 258.6 599.952 258.6C602.992 258.6 605.419 259.32 607.232 260.76C609.046 262.2 609.952 264.16 609.952 266.64C609.952 268.16 609.632 269.587 608.992 270.92C608.352 272.253 607.126 273.773 605.312 275.48L597.832 282.6H611.032ZM635.036 259V262.48L624.156 287H618.596L629.116 263.4H618.116V268.16H613.276V259H635.036ZM648.323 259V287H643.123V263.36H637.203V259H648.323ZM666.597 269.72C668.437 269.72 670.091 270.08 671.557 270.8C673.024 271.493 674.171 272.493 674.997 273.8C675.824 275.107 676.237 276.613 676.237 278.32C676.237 280.133 675.784 281.733 674.877 283.12C673.971 284.48 672.744 285.533 671.197 286.28C669.651 287.027 667.917 287.4 665.997 287.4C662.157 287.4 659.171 286.2 657.037 283.8C654.931 281.4 653.877 277.96 653.877 273.48C653.877 270.333 654.451 267.653 655.597 265.44C656.744 263.2 658.344 261.507 660.397 260.36C662.477 259.187 664.877 258.6 667.597 258.6C669.037 258.6 670.384 258.76 671.637 259.08C672.917 259.373 674.024 259.813 674.957 260.4L673.037 264.32C671.651 263.413 669.877 262.96 667.717 262.96C665.024 262.96 662.917 263.787 661.397 265.44C659.877 267.093 659.117 269.48 659.117 272.6V272.64C659.944 271.68 660.997 270.96 662.277 270.48C663.557 269.973 664.997 269.72 666.597 269.72ZM665.717 283.32C667.344 283.32 668.664 282.893 669.677 282.04C670.691 281.16 671.197 280 671.197 278.56C671.197 277.093 670.691 275.933 669.677 275.08C668.664 274.227 667.304 273.8 665.597 273.8C663.917 273.8 662.544 274.253 661.477 275.16C660.437 276.067 659.917 277.213 659.917 278.6C659.917 279.96 660.424 281.093 661.437 282C662.477 282.88 663.904 283.32 665.717 283.32ZM699.88 259V262.48L689 287H683.44L693.96 263.4H682.96V268.16H678.12V259H699.88ZM711.153 269.84C715.099 269.84 718.019 270.613 719.913 272.16C721.806 273.68 722.753 275.76 722.753 278.4C722.753 280.08 722.339 281.6 721.513 282.96C720.686 284.32 719.446 285.4 717.793 286.2C716.139 287 714.099 287.4 711.673 287.4C709.673 287.4 707.739 287.12 705.873 286.56C704.006 285.973 702.433 285.173 701.153 284.16L703.353 280.12C704.393 280.973 705.633 281.653 707.073 282.16C708.539 282.64 710.046 282.88 711.593 282.88C713.433 282.88 714.873 282.507 715.913 281.76C716.979 280.987 717.513 279.933 717.513 278.6C717.513 277.16 716.939 276.08 715.793 275.36C714.673 274.613 712.739 274.24 709.993 274.24H703.233L704.673 259H721.113V263.36H709.073L708.473 269.84H711.153ZM737.432 287.4C735.192 287.4 733.192 286.84 731.432 285.72C729.672 284.573 728.286 282.92 727.272 280.76C726.259 278.573 725.752 275.987 725.752 273C725.752 270.013 726.259 267.44 727.272 265.28C728.286 263.093 729.672 261.44 731.432 260.32C733.192 259.173 735.192 258.6 737.432 258.6C739.672 258.6 741.672 259.173 743.432 260.32C745.219 261.44 746.619 263.093 747.632 265.28C748.646 267.44 749.152 270.013 749.152 273C749.152 275.987 748.646 278.573 747.632 280.76C746.619 282.92 745.219 284.573 743.432 285.72C741.672 286.84 739.672 287.4 737.432 287.4ZM737.432 282.88C739.432 282.88 741.006 282.053 742.152 280.4C743.326 278.747 743.912 276.28 743.912 273C743.912 269.72 743.326 267.253 742.152 265.6C741.006 263.947 739.432 263.12 737.432 263.12C735.459 263.12 733.886 263.947 732.712 265.6C731.566 267.253 730.992 269.72 730.992 273C730.992 276.28 731.566 278.747 732.712 280.4C733.886 282.053 735.459 282.88 737.432 282.88ZM773.591 259V262.48L762.711 287H757.151L767.671 263.4H756.671V268.16H751.831V259H773.591ZM786.878 259V287H781.678V263.36H775.758V259H786.878ZM205.6 321.44C207.147 321.947 208.373 322.8 209.28 324C210.187 325.173 210.64 326.64 210.64 328.4C210.64 330.827 209.707 332.707 207.84 334.04C205.973 335.347 203.253 336 199.68 336H185.76V308H198.88C202.187 308 204.733 308.653 206.52 309.96C208.307 311.24 209.2 313.013 209.2 315.28C209.2 316.667 208.88 317.893 208.24 318.96C207.6 320.027 206.72 320.853 205.6 321.44ZM190.96 312.08V319.8H198.32C200.133 319.8 201.52 319.48 202.48 318.84C203.467 318.173 203.96 317.213 203.96 315.96C203.96 314.68 203.467 313.72 202.48 313.08C201.52 312.413 200.133 312.08 198.32 312.08H190.96ZM199.36 331.92C203.387 331.92 205.4 330.573 205.4 327.88C205.4 325.187 203.387 323.84 199.36 323.84H190.96V331.92H199.36ZM223.87 314.4C227.016 314.4 229.416 315.16 231.07 316.68C232.75 318.173 233.59 320.44 233.59 323.48V336H228.87V333.4C228.256 334.333 227.376 335.053 226.23 335.56C225.11 336.04 223.75 336.28 222.15 336.28C220.55 336.28 219.15 336.013 217.95 335.48C216.75 334.92 215.816 334.16 215.15 333.2C214.51 332.213 214.19 331.107 214.19 329.88C214.19 327.96 214.896 326.427 216.31 325.28C217.75 324.107 220.003 323.52 223.07 323.52H228.59V323.2C228.59 321.707 228.136 320.56 227.23 319.76C226.35 318.96 225.03 318.56 223.27 318.56C222.07 318.56 220.883 318.747 219.71 319.12C218.563 319.493 217.59 320.013 216.79 320.68L214.83 317.04C215.95 316.187 217.296 315.533 218.87 315.08C220.443 314.627 222.11 314.4 223.87 314.4ZM223.19 332.64C224.443 332.64 225.55 332.36 226.51 331.8C227.496 331.213 228.19 330.387 228.59 329.32V326.84H223.43C220.55 326.84 219.11 327.787 219.11 329.68C219.11 330.587 219.47 331.307 220.19 331.84C220.91 332.373 221.91 332.64 223.19 332.64ZM252.127 314.4C254.82 314.4 256.98 315.187 258.607 316.76C260.233 318.333 261.047 320.667 261.047 323.76V336H256.047V324.4C256.047 322.533 255.607 321.133 254.727 320.2C253.847 319.24 252.593 318.76 250.967 318.76C249.127 318.76 247.673 319.32 246.607 320.44C245.54 321.533 245.007 323.12 245.007 325.2V336H240.007V314.64H244.767V317.4C245.593 316.413 246.633 315.667 247.887 315.16C249.14 314.653 250.553 314.4 252.127 314.4ZM276.109 326.84L272.389 330.36V336H267.389V306.32H272.389V324.24L282.749 314.64H288.749L279.829 323.6L289.589 336H283.509L276.109 326.84ZM305.474 321.04C304.567 321.04 303.794 320.733 303.154 320.12C302.514 319.48 302.194 318.68 302.194 317.72C302.194 316.733 302.5 315.933 303.114 315.32C303.754 314.707 304.54 314.4 305.474 314.4C306.407 314.4 307.18 314.707 307.794 315.32C308.434 315.933 308.754 316.733 308.754 317.72C308.754 318.68 308.434 319.48 307.794 320.12C307.154 320.733 306.38 321.04 305.474 321.04ZM305.474 336.28C304.567 336.28 303.794 335.973 303.154 335.36C302.514 334.72 302.194 333.92 302.194 332.96C302.194 331.973 302.5 331.173 303.114 330.56C303.754 329.947 304.54 329.64 305.474 329.64C306.407 329.64 307.18 329.947 307.794 330.56C308.434 331.173 308.754 331.973 308.754 332.96C308.754 333.92 308.434 334.72 307.794 335.36C307.154 335.973 306.38 336.28 305.474 336.28ZM345.014 321.44C346.561 321.947 347.787 322.8 348.694 324C349.601 325.173 350.054 326.64 350.054 328.4C350.054 330.827 349.121 332.707 347.254 334.04C345.387 335.347 342.667 336 339.094 336H325.174V308H338.294C341.601 308 344.147 308.653 345.934 309.96C347.721 311.24 348.614 313.013 348.614 315.28C348.614 316.667 348.294 317.893 347.654 318.96C347.014 320.027 346.134 320.853 345.014 321.44ZM330.374 312.08V319.8H337.734C339.547 319.8 340.934 319.48 341.894 318.84C342.881 318.173 343.374 317.213 343.374 315.96C343.374 314.68 342.881 313.72 341.894 313.08C340.934 312.413 339.547 312.08 337.734 312.08H330.374ZM338.774 331.92C342.801 331.92 344.814 330.573 344.814 327.88C344.814 325.187 342.801 323.84 338.774 323.84H330.374V331.92H338.774ZM368.564 336.4C365.737 336.4 363.177 335.787 360.884 334.56C358.617 333.307 356.83 331.587 355.524 329.4C354.244 327.213 353.604 324.747 353.604 322C353.604 319.253 354.257 316.787 355.564 314.6C356.87 312.413 358.657 310.707 360.924 309.48C363.217 308.227 365.777 307.6 368.604 307.6C370.897 307.6 372.99 308 374.884 308.8C376.777 309.6 378.377 310.76 379.684 312.28L376.324 315.44C374.297 313.253 371.804 312.16 368.844 312.16C366.924 312.16 365.204 312.587 363.684 313.44C362.164 314.267 360.977 315.427 360.124 316.92C359.27 318.413 358.844 320.107 358.844 322C358.844 323.893 359.27 325.587 360.124 327.08C360.977 328.573 362.164 329.747 363.684 330.6C365.204 331.427 366.924 331.84 368.844 331.84C371.804 331.84 374.297 330.733 376.324 328.52L379.684 331.72C378.377 333.24 376.764 334.4 374.844 335.2C372.95 336 370.857 336.4 368.564 336.4ZM402.24 329.52H388.24L385.48 336H380.12L392.72 308H397.84L410.48 336H405.04L402.24 329.52ZM400.52 325.44L395.24 313.2L390 325.44H400.52ZM203.92 378.52H189.92L187.16 385H181.8L194.4 357H199.52L212.16 385H206.72L203.92 378.52ZM202.2 374.44L196.92 362.2L191.68 374.44H202.2ZM227.886 383.84C227.299 384.32 226.579 384.68 225.726 384.92C224.899 385.16 224.019 385.28 223.086 385.28C220.739 385.28 218.926 384.667 217.646 383.44C216.366 382.213 215.726 380.427 215.726 378.08V367.8H212.206V363.8H215.726V358.92H220.726V363.8H226.446V367.8H220.726V377.96C220.726 379 220.979 379.8 221.486 380.36C221.992 380.893 222.726 381.16 223.686 381.16C224.806 381.16 225.739 380.867 226.486 380.28L227.886 383.84ZM240.159 363.4C243.305 363.4 245.705 364.16 247.359 365.68C249.039 367.173 249.879 369.44 249.879 372.48V385H245.159V382.4C244.545 383.333 243.665 384.053 242.519 384.56C241.399 385.04 240.039 385.28 238.439 385.28C236.839 385.28 235.439 385.013 234.239 384.48C233.039 383.92 232.105 383.16 231.439 382.2C230.799 381.213 230.479 380.107 230.479 378.88C230.479 376.96 231.185 375.427 232.599 374.28C234.039 373.107 236.292 372.52 239.359 372.52H244.879V372.2C244.879 370.707 244.425 369.56 243.519 368.76C242.639 367.96 241.319 367.56 239.559 367.56C238.359 367.56 237.172 367.747 235.999 368.12C234.852 368.493 233.879 369.013 233.079 369.68L231.119 366.04C232.239 365.187 233.585 364.533 235.159 364.08C236.732 363.627 238.399 363.4 240.159 363.4ZM239.479 381.64C240.732 381.64 241.839 381.36 242.799 380.8C243.785 380.213 244.479 379.387 244.879 378.32V375.84H239.719C236.839 375.84 235.399 376.787 235.399 378.68C235.399 379.587 235.759 380.307 236.479 380.84C237.199 381.373 238.199 381.64 239.479 381.64ZM262.896 385.28C261.162 385.28 259.469 385.053 257.816 384.6C256.162 384.147 254.842 383.573 253.856 382.88L255.776 379.08C256.736 379.72 257.882 380.24 259.216 380.64C260.576 381.013 261.909 381.2 263.216 381.2C266.202 381.2 267.696 380.413 267.696 378.84C267.696 378.093 267.309 377.573 266.536 377.28C265.789 376.987 264.576 376.707 262.896 376.44C261.136 376.173 259.696 375.867 258.576 375.52C257.482 375.173 256.522 374.573 255.696 373.72C254.896 372.84 254.496 371.627 254.496 370.08C254.496 368.053 255.336 366.44 257.016 365.24C258.722 364.013 261.016 363.4 263.896 363.4C265.362 363.4 266.829 363.573 268.296 363.92C269.762 364.24 270.962 364.68 271.896 365.24L269.976 369.04C268.162 367.973 266.122 367.44 263.856 367.44C262.389 367.44 261.269 367.667 260.496 368.12C259.749 368.547 259.376 369.12 259.376 369.84C259.376 370.64 259.776 371.213 260.576 371.56C261.402 371.88 262.669 372.187 264.376 372.48C266.082 372.747 267.482 373.053 268.576 373.4C269.669 373.747 270.602 374.333 271.376 375.16C272.176 375.987 272.576 377.16 272.576 378.68C272.576 380.68 271.709 382.28 269.976 383.48C268.242 384.68 265.882 385.28 262.896 385.28ZM313.296 357V385H309.016L293.576 366.04V385H288.416V357H292.696L308.136 375.96V357H313.296ZM328.479 363.4C331.626 363.4 334.026 364.16 335.679 365.68C337.359 367.173 338.199 369.44 338.199 372.48V385H333.479V382.4C332.866 383.333 331.986 384.053 330.839 384.56C329.719 385.04 328.359 385.28 326.759 385.28C325.159 385.28 323.759 385.013 322.559 384.48C321.359 383.92 320.426 383.16 319.759 382.2C319.119 381.213 318.799 380.107 318.799 378.88C318.799 376.96 319.506 375.427 320.919 374.28C322.359 373.107 324.612 372.52 327.679 372.52H333.199V372.2C333.199 370.707 332.746 369.56 331.839 368.76C330.959 367.96 329.639 367.56 327.879 367.56C326.679 367.56 325.492 367.747 324.319 368.12C323.172 368.493 322.199 369.013 321.399 369.68L319.439 366.04C320.559 365.187 321.906 364.533 323.479 364.08C325.052 363.627 326.719 363.4 328.479 363.4ZM327.799 381.64C329.052 381.64 330.159 381.36 331.119 380.8C332.106 380.213 332.799 379.387 333.199 378.32V375.84H328.039C325.159 375.84 323.719 376.787 323.719 378.68C323.719 379.587 324.079 380.307 324.799 380.84C325.519 381.373 326.519 381.64 327.799 381.64ZM371.576 363.4C374.269 363.4 376.403 364.187 377.976 365.76C379.549 367.307 380.336 369.64 380.336 372.76V385H375.336V373.4C375.336 371.533 374.923 370.133 374.096 369.2C373.269 368.24 372.083 367.76 370.536 367.76C368.856 367.76 367.509 368.32 366.496 369.44C365.483 370.533 364.976 372.107 364.976 374.16V385H359.976V373.4C359.976 371.533 359.563 370.133 358.736 369.2C357.909 368.24 356.723 367.76 355.176 367.76C353.469 367.76 352.109 368.307 351.096 369.4C350.109 370.493 349.616 372.08 349.616 374.16V385H344.616V363.64H349.376V366.36C350.176 365.4 351.176 364.667 352.376 364.16C353.576 363.653 354.909 363.4 356.376 363.4C357.976 363.4 359.389 363.707 360.616 364.32C361.869 364.907 362.856 365.787 363.576 366.96C364.456 365.84 365.589 364.973 366.976 364.36C368.363 363.72 369.896 363.4 371.576 363.4ZM394.885 363.4C398.032 363.4 400.432 364.16 402.085 365.68C403.765 367.173 404.605 369.44 404.605 372.48V385H399.885V382.4C399.272 383.333 398.392 384.053 397.245 384.56C396.125 385.04 394.765 385.28 393.165 385.28C391.565 385.28 390.165 385.013 388.965 384.48C387.765 383.92 386.832 383.16 386.165 382.2C385.525 381.213 385.205 380.107 385.205 378.88C385.205 376.96 385.912 375.427 387.325 374.28C388.765 373.107 391.019 372.52 394.085 372.52H399.605V372.2C399.605 370.707 399.152 369.56 398.245 368.76C397.365 367.96 396.045 367.56 394.285 367.56C393.085 367.56 391.899 367.747 390.725 368.12C389.579 368.493 388.605 369.013 387.805 369.68L385.845 366.04C386.965 365.187 388.312 364.533 389.885 364.08C391.459 363.627 393.125 363.4 394.885 363.4ZM394.205 381.64C395.459 381.64 396.565 381.36 397.525 380.8C398.512 380.213 399.205 379.387 399.605 378.32V375.84H394.445C391.565 375.84 390.125 376.787 390.125 378.68C390.125 379.587 390.485 380.307 391.205 380.84C391.925 381.373 392.925 381.64 394.205 381.64ZM423.677 370.04C422.77 370.04 421.997 369.733 421.357 369.12C420.717 368.48 420.397 367.68 420.397 366.72C420.397 365.733 420.704 364.933 421.317 364.32C421.957 363.707 422.744 363.4 423.677 363.4C424.61 363.4 425.384 363.707 425.997 364.32C426.637 364.933 426.957 365.733 426.957 366.72C426.957 367.68 426.637 368.48 425.997 369.12C425.357 369.733 424.584 370.04 423.677 370.04ZM423.677 385.28C422.77 385.28 421.997 384.973 421.357 384.36C420.717 383.72 420.397 382.92 420.397 381.96C420.397 380.973 420.704 380.173 421.317 379.56C421.957 378.947 422.744 378.64 423.677 378.64C424.61 378.64 425.384 378.947 425.997 379.56C426.637 380.173 426.957 380.973 426.957 381.96C426.957 382.92 426.637 383.72 425.997 384.36C425.357 384.973 424.584 385.28 423.677 385.28ZM461.537 378.52H447.537L444.777 385H439.417L452.017 357H457.137L469.777 385H464.337L461.537 378.52ZM459.817 374.44L454.537 362.2L449.297 374.44H459.817ZM498.218 357V385H493.938L478.498 366.04V385H473.338V357H477.618L493.058 375.96V357H498.218ZM530.601 357V385H526.321L510.881 366.04V385H505.721V357H510.001L525.441 375.96V357H530.601ZM538.104 357H543.304V385H538.104V357ZM559.557 385.4C557.397 385.4 555.304 385.093 553.277 384.48C551.277 383.867 549.691 383.053 548.517 382.04L550.317 378C551.464 378.907 552.864 379.653 554.517 380.24C556.197 380.8 557.877 381.08 559.557 381.08C561.637 381.08 563.184 380.747 564.197 380.08C565.237 379.413 565.757 378.533 565.757 377.44C565.757 376.64 565.464 375.987 564.877 375.48C564.317 374.947 563.597 374.533 562.717 374.24C561.837 373.947 560.637 373.613 559.117 373.24C556.984 372.733 555.251 372.227 553.917 371.72C552.611 371.213 551.477 370.427 550.517 369.36C549.584 368.267 549.117 366.8 549.117 364.96C549.117 363.413 549.531 362.013 550.357 360.76C551.211 359.48 552.477 358.467 554.157 357.72C555.864 356.973 557.944 356.6 560.397 356.6C562.104 356.6 563.784 356.813 565.437 357.24C567.091 357.667 568.517 358.28 569.717 359.08L568.077 363.12C566.851 362.4 565.571 361.853 564.237 361.48C562.904 361.107 561.611 360.92 560.357 360.92C558.304 360.92 556.771 361.267 555.757 361.96C554.771 362.653 554.277 363.573 554.277 364.72C554.277 365.52 554.557 366.173 555.117 366.68C555.704 367.187 556.437 367.587 557.317 367.88C558.197 368.173 559.397 368.507 560.917 368.88C562.997 369.36 564.704 369.867 566.037 370.4C567.371 370.907 568.504 371.693 569.437 372.76C570.397 373.827 570.877 375.267 570.877 377.08C570.877 378.627 570.451 380.027 569.597 381.28C568.771 382.533 567.504 383.533 565.797 384.28C564.091 385.027 562.011 385.4 559.557 385.4ZM594.193 378.52H580.193L577.433 385H572.073L584.673 357H589.793L602.433 385H596.993L594.193 378.52ZM592.473 374.44L587.193 362.2L581.953 374.44H592.473ZM642.649 357L630.449 385H625.329L613.089 357H618.729L628.049 378.6L637.449 357H642.649ZM645.604 357H650.804V385H645.604V357ZM683.257 357V385H678.977L663.537 366.04V385H658.377V357H662.657L678.097 375.96V357H683.257ZM690.76 357H695.96V385H690.76V357ZM703.533 357H715.773C718.76 357 721.413 357.587 723.733 358.76C726.053 359.907 727.853 361.547 729.133 363.68C730.413 365.787 731.053 368.227 731.053 371C731.053 373.773 730.413 376.227 729.133 378.36C727.853 380.467 726.053 382.107 723.733 383.28C721.413 384.427 718.76 385 715.773 385H703.533V357ZM715.533 380.6C717.587 380.6 719.387 380.213 720.933 379.44C722.507 378.64 723.707 377.52 724.533 376.08C725.387 374.613 725.813 372.92 725.813 371C725.813 369.08 725.387 367.4 724.533 365.96C723.707 364.493 722.507 363.373 720.933 362.6C719.387 361.8 717.587 361.4 715.533 361.4H708.733V380.6H715.533ZM747.449 375.12V385H742.249V375.2L731.249 357H736.809L745.009 370.64L753.289 357H758.409L747.449 375.12ZM778.295 378.52H764.295L761.535 385H756.175L768.775 357H773.895L786.535 385H781.095L778.295 378.52ZM776.575 374.44L771.295 362.2L766.055 374.44H776.575ZM801.151 357H806.351V380.6H820.991V385H801.151V357ZM843.451 378.52H829.451L826.691 385H821.331L833.931 357H839.051L851.691 385H846.251L843.451 378.52ZM841.731 374.44L836.451 362.2L831.211 374.44H841.731ZM873.572 385L867.852 376.8C867.612 376.827 867.252 376.84 866.772 376.84H860.452V385H855.252V357H866.772C869.199 357 871.306 357.4 873.092 358.2C874.906 359 876.292 360.147 877.252 361.64C878.212 363.133 878.692 364.907 878.692 366.96C878.692 369.067 878.172 370.88 877.132 372.4C876.119 373.92 874.652 375.053 872.732 375.8L879.172 385H873.572ZM873.452 366.96C873.452 365.173 872.866 363.8 871.692 362.84C870.519 361.88 868.799 361.4 866.532 361.4H860.452V372.56H866.532C868.799 372.56 870.519 372.08 871.692 371.12C872.866 370.133 873.452 368.747 873.452 366.96ZM902.67 378.52H888.67L885.91 385H880.55L893.15 357H898.27L910.91 385H905.47L902.67 378.52ZM900.95 374.44L895.67 362.2L890.43 374.44H900.95ZM923.151 385.4C920.991 385.4 918.898 385.093 916.871 384.48C914.871 383.867 913.284 383.053 912.111 382.04L913.911 378C915.058 378.907 916.458 379.653 918.111 380.24C919.791 380.8 921.471 381.08 923.151 381.08C925.231 381.08 926.778 380.747 927.791 380.08C928.831 379.413 929.351 378.533 929.351 377.44C929.351 376.64 929.058 375.987 928.471 375.48C927.911 374.947 927.191 374.533 926.311 374.24C925.431 373.947 924.231 373.613 922.711 373.24C920.578 372.733 918.844 372.227 917.511 371.72C916.204 371.213 915.071 370.427 914.111 369.36C913.178 368.267 912.711 366.8 912.711 364.96C912.711 363.413 913.124 362.013 913.951 360.76C914.804 359.48 916.071 358.467 917.751 357.72C919.458 356.973 921.538 356.6 923.991 356.6C925.698 356.6 927.378 356.813 929.031 357.24C930.684 357.667 932.111 358.28 933.311 359.08L931.671 363.12C930.444 362.4 929.164 361.853 927.831 361.48C926.498 361.107 925.204 360.92 923.951 360.92C921.898 360.92 920.364 361.267 919.351 361.96C918.364 362.653 917.871 363.573 917.871 364.72C917.871 365.52 918.151 366.173 918.711 366.68C919.298 367.187 920.031 367.587 920.911 367.88C921.791 368.173 922.991 368.507 924.511 368.88C926.591 369.36 928.298 369.867 929.631 370.4C930.964 370.907 932.098 371.693 933.031 372.76C933.991 373.827 934.471 375.267 934.471 377.08C934.471 378.627 934.044 380.027 933.191 381.28C932.364 382.533 931.098 383.533 929.391 384.28C927.684 385.027 925.604 385.4 923.151 385.4ZM957.787 378.52H943.787L941.027 385H935.667L948.267 357H953.387L966.027 385H960.587L957.787 378.52ZM956.067 374.44L950.787 362.2L945.547 374.44H956.067ZM973.862 361.4H964.582V357H988.342V361.4H979.062V385H973.862V361.4ZM992.244 357H997.444V385H992.244V357Z" fill="#FFEFEF"/>
<g filter="url(#filter1_i)">
<ellipse cx="101" cy="173.93" rx="15" ry="14.9296" fill="#C4C4C4"/>
</g>
<g filter="url(#filter2_i)">
<ellipse cx="101" cy="459.93" rx="15" ry="14.9296" fill="#C4C4C4"/>
</g>
</g>
<defs>
<filter id="filter0_d" x="0" y="0" width="1118" height="1198" filterUnits="userSpaceOnUse" color-interpolation-filters="sRGB">
<feFlood flood-opacity="0" result="BackgroundImageFix"/>
<feColorMatrix in="SourceAlpha" type="matrix" values="0 0 0 0 0 0 0 0 0 0 0 0 0 0 0 0 0 0 127 0"/>
<feOffset dy="4"/>
<feGaussianBlur stdDeviation="2"/>
<feColorMatrix type="matrix" values="0 0 0 0 0 0 0 0 0 0 0 0 0 0 0 0 0 0 0.25 0"/>
<feBlend mode="normal" in2="BackgroundImageFix" result="effect1_dropShadow"/>
<feBlend mode="normal" in="SourceGraphic" in2="effect1_dropShadow" result="shape"/>
</filter>
<filter id="filter1_i" x="86" y="159" width="30" height="33.8592" filterUnits="userSpaceOnUse" color-interpolation-filters="sRGB">
<feFlood flood-opacity="0" result="BackgroundImageFix"/>
<feBlend mode="normal" in="SourceGraphic" in2="BackgroundImageFix" result="shape"/>
<feColorMatrix in="SourceAlpha" type="matrix" values="0 0 0 0 0 0 0 0 0 0 0 0 0 0 0 0 0 0 127 0" result="hardAlpha"/>
<feOffset dy="4"/>
<feGaussianBlur stdDeviation="2"/>
<feComposite in2="hardAlpha" operator="arithmetic" k2="-1" k3="1"/>
<feColorMatrix type="matrix" values="0 0 0 0 0 0 0 0 0 0 0 0 0 0 0 0 0 0 0.25 0"/>
<feBlend mode="normal" in2="shape" result="effect1_innerShadow"/>
</filter>
<filter id="filter2_i" x="86" y="445" width="30" height="33.8592" filterUnits="userSpaceOnUse" color-interpolation-filters="sRGB">
<feFlood flood-opacity="0" result="BackgroundImageFix"/>
<feBlend mode="normal" in="SourceGraphic" in2="BackgroundImageFix" result="shape"/>
<feColorMatrix in="SourceAlpha" type="matrix" values="0 0 0 0 0 0 0 0 0 0 0 0 0 0 0 0 0 0 127 0" result="hardAlpha"/>
<feOffset dy="4"/>
<feGaussianBlur stdDeviation="2"/>
<feComposite in2="hardAlpha" operator="arithmetic" k2="-1" k3="1"/>
<feColorMatrix type="matrix" values="0 0 0 0 0 0 0 0 0 0 0 0 0 0 0 0 0 0 0.25 0"/>
<feBlend mode="normal" in2="shape" result="effect1_innerShadow"/>
</filter>
</defs>
</svg>
