<svg width="52" height="52" viewBox="0 0 52 52" fill="none" xmlns="http://www.w3.org/2000/svg">
<ellipse cx="26.0002" cy="26.0002" rx="21.6667" ry="21.6667" fill="#5A3BAC"/>
<path fill-rule="evenodd" clip-rule="evenodd" d="M39 17.6675C38.0441 18.0922 37.0155 18.3782 35.9365 18.5073C37.038 17.8469 37.8838 16.8018 38.2816 15.5565C37.252 16.1683 36.109 16.6111 34.8949 16.8512C33.9217 15.8147 32.5342 15.1665 31.0012 15.1665C28.0556 15.1665 25.6672 17.5549 25.6672 20.5005C25.6672 20.9182 25.7149 21.3255 25.8059 21.7163C21.3723 21.4945 17.4422 19.3704 14.8112 16.1432C14.3519 16.9309 14.0893 17.8469 14.0893 18.8245C14.0893 20.6747 15.0296 22.3074 16.4621 23.2641C15.5868 23.2364 14.7653 22.9963 14.0451 22.5968V22.6635C14.0451 25.2486 15.8849 27.4039 18.3236 27.8953C17.8764 28.0166 17.405 28.0824 16.9188 28.0824C16.5748 28.0824 16.2403 28.0486 15.9144 27.9862C16.593 30.1051 18.5636 31.6477 20.8974 31.691C19.0723 33.1209 16.7723 33.9745 14.273 33.9745C13.8415 33.9745 13.4168 33.9494 13 33.8991C15.3606 35.4122 18.1641 36.2962 21.1765 36.2962C30.9873 36.2962 36.3525 28.1682 36.3525 21.1201C36.3525 20.8887 36.3482 20.6582 36.3369 20.4303C37.3803 19.6763 38.285 18.7369 39 17.6675Z" fill="white"/>
</svg>
