<svg width="324" height="429" viewBox="0 0 324 429" fill="none" xmlns="http://www.w3.org/2000/svg">
<rect y="429" width="313" height="324" rx="85" transform="rotate(-90 0 429)" fill="#65789D"/>
<g filter="url(#filter0_i)">
<g filter="url(#filter1_i)">
<g filter="url(#filter2_i)">
<circle cx="161.5" cy="87.5" r="87.5" transform="rotate(-90 161.5 87.5)" fill="#583AA7"/>
</g>
</g>
</g>
<g filter="url(#filter3_i)">
<path d="M79.6826 207.552H71.6186V202.8H93.5786V207.552H85.5146V228H79.6826V207.552ZM113.324 218.388C113.324 218.46 113.288 218.964 113.216 219.9H98.5638C98.8278 221.1 99.4518 222.048 100.436 222.744C101.42 223.44 102.644 223.788 104.108 223.788C105.116 223.788 106.004 223.644 106.772 223.356C107.564 223.044 108.296 222.564 108.968 221.916L111.956 225.156C110.132 227.244 107.468 228.288 103.964 228.288C101.78 228.288 99.8478 227.868 98.1678 227.028C96.4878 226.164 95.1918 224.976 94.2798 223.464C93.3678 221.952 92.9118 220.236 92.9118 218.316C92.9118 216.42 93.3558 214.716 94.2438 213.204C95.1558 211.668 96.3918 210.48 97.9518 209.64C99.5358 208.776 101.3 208.344 103.244 208.344C105.14 208.344 106.856 208.752 108.392 209.568C109.928 210.384 111.128 211.56 111.992 213.096C112.88 214.608 113.324 216.372 113.324 218.388ZM103.28 212.592C102.008 212.592 100.94 212.952 100.076 213.672C99.2118 214.392 98.6838 215.376 98.4918 216.624H108.032C107.84 215.4 107.312 214.428 106.448 213.708C105.584 212.964 104.528 212.592 103.28 212.592ZM126.423 228.288C124.359 228.288 122.499 227.868 120.843 227.028C119.211 226.164 117.927 224.976 116.991 223.464C116.079 221.952 115.623 220.236 115.623 218.316C115.623 216.396 116.079 214.68 116.991 213.168C117.927 211.656 119.211 210.48 120.843 209.64C122.499 208.776 124.359 208.344 126.423 208.344C128.463 208.344 130.239 208.776 131.751 209.64C133.287 210.48 134.403 211.692 135.099 213.276L130.743 215.616C129.735 213.84 128.283 212.952 126.387 212.952C124.923 212.952 123.711 213.432 122.751 214.392C121.791 215.352 121.311 216.66 121.311 218.316C121.311 219.972 121.791 221.28 122.751 222.24C123.711 223.2 124.923 223.68 126.387 223.68C128.307 223.68 129.759 222.792 130.743 221.016L135.099 223.392C134.403 224.928 133.287 226.128 131.751 226.992C130.239 227.856 128.463 228.288 126.423 228.288ZM149.964 208.344C152.364 208.344 154.296 209.064 155.76 210.504C157.248 211.944 157.992 214.08 157.992 216.912V228H152.376V217.776C152.376 216.24 152.04 215.1 151.368 214.356C150.696 213.588 149.724 213.204 148.452 213.204C147.036 213.204 145.908 213.648 145.068 214.536C144.228 215.4 143.808 216.696 143.808 218.424V228H138.192V201.288H143.808V210.648C144.552 209.904 145.452 209.34 146.508 208.956C147.564 208.548 148.716 208.344 149.964 208.344ZM174.854 208.344C177.254 208.344 179.186 209.064 180.65 210.504C182.138 211.944 182.882 214.08 182.882 216.912V228H177.266V217.776C177.266 216.24 176.93 215.1 176.258 214.356C175.586 213.588 174.614 213.204 173.342 213.204C171.926 213.204 170.798 213.648 169.958 214.536C169.118 215.4 168.698 216.696 168.698 218.424V228H163.082V208.632H168.446V210.9C169.19 210.084 170.114 209.46 171.218 209.028C172.322 208.572 173.534 208.344 174.854 208.344ZM187.973 208.632H193.589V228H187.973V208.632ZM190.781 205.932C189.749 205.932 188.909 205.632 188.261 205.032C187.613 204.432 187.289 203.688 187.289 202.8C187.289 201.912 187.613 201.168 188.261 200.568C188.909 199.968 189.749 199.668 190.781 199.668C191.813 199.668 192.653 199.956 193.301 200.532C193.949 201.108 194.273 201.828 194.273 202.692C194.273 203.628 193.949 204.408 193.301 205.032C192.653 205.632 191.813 205.932 190.781 205.932ZM208.161 228.288C206.097 228.288 204.237 227.868 202.581 227.028C200.949 226.164 199.665 224.976 198.729 223.464C197.817 221.952 197.361 220.236 197.361 218.316C197.361 216.396 197.817 214.68 198.729 213.168C199.665 211.656 200.949 210.48 202.581 209.64C204.237 208.776 206.097 208.344 208.161 208.344C210.201 208.344 211.977 208.776 213.489 209.64C215.025 210.48 216.141 211.692 216.837 213.276L212.481 215.616C211.473 213.84 210.021 212.952 208.125 212.952C206.661 212.952 205.449 213.432 204.489 214.392C203.529 215.352 203.049 216.66 203.049 218.316C203.049 219.972 203.529 221.28 204.489 222.24C205.449 223.2 206.661 223.68 208.125 223.68C210.045 223.68 211.497 222.792 212.481 221.016L216.837 223.392C216.141 224.928 215.025 226.128 213.489 226.992C211.977 227.856 210.201 228.288 208.161 228.288ZM227.883 208.344C230.883 208.344 233.187 209.064 234.795 210.504C236.403 211.92 237.207 214.068 237.207 216.948V228H231.951V225.588C230.895 227.388 228.927 228.288 226.047 228.288C224.559 228.288 223.263 228.036 222.159 227.532C221.079 227.028 220.251 226.332 219.675 225.444C219.099 224.556 218.811 223.548 218.811 222.42C218.811 220.62 219.483 219.204 220.827 218.172C222.195 217.14 224.295 216.624 227.127 216.624H231.591C231.591 215.4 231.219 214.464 230.475 213.816C229.731 213.144 228.615 212.808 227.127 212.808C226.095 212.808 225.075 212.976 224.067 213.312C223.083 213.624 222.243 214.056 221.547 214.608L219.531 210.684C220.587 209.94 221.847 209.364 223.311 208.956C224.799 208.548 226.323 208.344 227.883 208.344ZM227.451 224.508C228.411 224.508 229.263 224.292 230.007 223.86C230.751 223.404 231.279 222.744 231.591 221.88V219.9H227.739C225.435 219.9 224.283 220.656 224.283 222.168C224.283 222.888 224.559 223.464 225.111 223.896C225.687 224.304 226.467 224.508 227.451 224.508ZM242.289 201.288H247.905V228H242.289V201.288ZM108.627 272L108.591 256.88L101.175 269.336H98.547L91.167 257.204V272H85.695V246.8H90.519L99.951 262.46L109.239 246.8H114.027L114.099 272H108.627ZM138.654 262.388C138.654 262.46 138.618 262.964 138.546 263.9H123.894C124.158 265.1 124.782 266.048 125.766 266.744C126.75 267.44 127.974 267.788 129.438 267.788C130.446 267.788 131.334 267.644 132.102 267.356C132.894 267.044 133.626 266.564 134.298 265.916L137.286 269.156C135.462 271.244 132.798 272.288 129.294 272.288C127.11 272.288 125.178 271.868 123.498 271.028C121.818 270.164 120.522 268.976 119.61 267.464C118.698 265.952 118.242 264.236 118.242 262.316C118.242 260.42 118.686 258.716 119.574 257.204C120.486 255.668 121.722 254.48 123.282 253.64C124.866 252.776 126.63 252.344 128.574 252.344C130.47 252.344 132.186 252.752 133.722 253.568C135.258 254.384 136.458 255.56 137.322 257.096C138.21 258.608 138.654 260.372 138.654 262.388ZM128.61 256.592C127.338 256.592 126.27 256.952 125.406 257.672C124.542 258.392 124.014 259.376 123.822 260.624H133.362C133.17 259.4 132.642 258.428 131.778 257.708C130.914 256.964 129.858 256.592 128.61 256.592ZM161.365 262.388C161.365 262.46 161.329 262.964 161.257 263.9H146.605C146.869 265.1 147.493 266.048 148.477 266.744C149.461 267.44 150.685 267.788 152.149 267.788C153.157 267.788 154.045 267.644 154.813 267.356C155.605 267.044 156.337 266.564 157.009 265.916L159.997 269.156C158.173 271.244 155.509 272.288 152.005 272.288C149.821 272.288 147.889 271.868 146.209 271.028C144.529 270.164 143.233 268.976 142.321 267.464C141.409 265.952 140.953 264.236 140.953 262.316C140.953 260.42 141.397 258.716 142.285 257.204C143.197 255.668 144.433 254.48 145.993 253.64C147.577 252.776 149.341 252.344 151.285 252.344C153.181 252.344 154.897 252.752 156.433 253.568C157.969 254.384 159.169 255.56 160.033 257.096C160.921 258.608 161.365 260.372 161.365 262.388ZM151.321 256.592C150.049 256.592 148.981 256.952 148.117 257.672C147.253 258.392 146.725 259.376 146.533 260.624H156.073C155.881 259.4 155.353 258.428 154.489 257.708C153.625 256.964 152.569 256.592 151.321 256.592ZM177.596 271.064C177.044 271.472 176.36 271.784 175.544 272C174.752 272.192 173.912 272.288 173.024 272.288C170.72 272.288 168.932 271.7 167.66 270.524C166.412 269.348 165.788 267.62 165.788 265.34V257.384H162.8V253.064H165.788V248.348H171.404V253.064H176.228V257.384H171.404V265.268C171.404 266.084 171.608 266.72 172.016 267.176C172.448 267.608 173.048 267.824 173.816 267.824C174.704 267.824 175.46 267.584 176.084 267.104L177.596 271.064ZM180.748 252.632H186.364V272H180.748V252.632ZM183.556 249.932C182.524 249.932 181.684 249.632 181.036 249.032C180.388 248.432 180.064 247.688 180.064 246.8C180.064 245.912 180.388 245.168 181.036 244.568C181.684 243.968 182.524 243.668 183.556 243.668C184.588 243.668 185.428 243.956 186.076 244.532C186.724 245.108 187.048 245.828 187.048 246.692C187.048 247.628 186.724 248.408 186.076 249.032C185.428 249.632 184.588 249.932 183.556 249.932ZM203.348 252.344C205.748 252.344 207.68 253.064 209.144 254.504C210.632 255.944 211.376 258.08 211.376 260.912V272H205.76V261.776C205.76 260.24 205.424 259.1 204.752 258.356C204.08 257.588 203.108 257.204 201.836 257.204C200.42 257.204 199.292 257.648 198.452 258.536C197.612 259.4 197.192 260.696 197.192 262.424V272H191.576V252.632H196.94V254.9C197.684 254.084 198.608 253.46 199.712 253.028C200.816 252.572 202.028 252.344 203.348 252.344ZM236.658 252.632V268.76C236.658 272.312 235.734 274.952 233.886 276.68C232.038 278.408 229.338 279.272 225.786 279.272C223.914 279.272 222.138 279.044 220.458 278.588C218.778 278.132 217.386 277.472 216.282 276.608L218.514 272.576C219.33 273.248 220.362 273.776 221.61 274.16C222.858 274.568 224.106 274.772 225.354 274.772C227.298 274.772 228.726 274.328 229.638 273.44C230.574 272.576 231.042 271.256 231.042 269.48V268.652C229.578 270.26 227.538 271.064 224.922 271.064C223.146 271.064 221.514 270.68 220.026 269.912C218.562 269.12 217.398 268.016 216.534 266.6C215.67 265.184 215.238 263.552 215.238 261.704C215.238 259.856 215.67 258.224 216.534 256.808C217.398 255.392 218.562 254.3 220.026 253.532C221.514 252.74 223.146 252.344 224.922 252.344C227.73 252.344 229.866 253.268 231.33 255.116V252.632H236.658ZM226.038 266.456C227.526 266.456 228.738 266.024 229.674 265.16C230.634 264.272 231.114 263.12 231.114 261.704C231.114 260.288 230.634 259.148 229.674 258.284C228.738 257.396 227.526 256.952 226.038 256.952C224.55 256.952 223.326 257.396 222.366 258.284C221.406 259.148 220.926 260.288 220.926 261.704C220.926 263.12 221.406 264.272 222.366 265.16C223.326 266.024 224.55 266.456 226.038 266.456Z" fill="#FFEFEF"/>
</g>
<g filter="url(#filter4_i)">
<path d="M42.466 332.8V336.58L33.106 358H26.77L35.806 337.552H27.454V341.656H22.27V332.8H42.466ZM69.0455 358.432C66.4295 358.432 64.0655 357.868 61.9535 356.74C59.8655 355.612 58.2215 354.064 57.0215 352.096C55.8455 350.104 55.2575 347.872 55.2575 345.4C55.2575 342.928 55.8455 340.708 57.0215 338.74C58.2215 336.748 59.8655 335.188 61.9535 334.06C64.0655 332.932 66.4295 332.368 69.0455 332.368C71.6615 332.368 74.0135 332.932 76.1015 334.06C78.1895 335.188 79.8335 336.748 81.0335 338.74C82.2335 340.708 82.8335 342.928 82.8335 345.4C82.8335 347.872 82.2335 350.104 81.0335 352.096C79.8335 354.064 78.1895 355.612 76.1015 356.74C74.0135 357.868 71.6615 358.432 69.0455 358.432ZM69.0455 353.464C70.5335 353.464 71.8775 353.128 73.0775 352.456C74.2775 351.76 75.2135 350.8 75.8855 349.576C76.5815 348.352 76.9295 346.96 76.9295 345.4C76.9295 343.84 76.5815 342.448 75.8855 341.224C75.2135 340 74.2775 339.052 73.0775 338.38C71.8775 337.684 70.5335 337.336 69.0455 337.336C67.5575 337.336 66.2135 337.684 65.0135 338.38C63.8135 339.052 62.8655 340 62.1695 341.224C61.4975 342.448 61.1615 343.84 61.1615 345.4C61.1615 346.96 61.4975 348.352 62.1695 349.576C62.8655 350.8 63.8135 351.76 65.0135 352.456C66.2135 353.128 67.5575 353.464 69.0455 353.464ZM96.1805 358.288C94.1165 358.288 92.2565 357.868 90.6005 357.028C88.9685 356.164 87.6845 354.976 86.7485 353.464C85.8365 351.952 85.3805 350.236 85.3805 348.316C85.3805 346.396 85.8365 344.68 86.7485 343.168C87.6845 341.656 88.9685 340.48 90.6005 339.64C92.2565 338.776 94.1165 338.344 96.1805 338.344C98.2205 338.344 99.9965 338.776 101.509 339.64C103.045 340.48 104.161 341.692 104.857 343.276L100.501 345.616C99.4925 343.84 98.0405 342.952 96.1445 342.952C94.6805 342.952 93.4685 343.432 92.5085 344.392C91.5485 345.352 91.0685 346.66 91.0685 348.316C91.0685 349.972 91.5485 351.28 92.5085 352.24C93.4685 353.2 94.6805 353.68 96.1445 353.68C98.0645 353.68 99.5165 352.792 100.501 351.016L104.857 353.392C104.161 354.928 103.045 356.128 101.509 356.992C99.9965 357.856 98.2205 358.288 96.1805 358.288ZM120.863 357.064C120.311 357.472 119.627 357.784 118.811 358C118.019 358.192 117.179 358.288 116.291 358.288C113.987 358.288 112.199 357.7 110.927 356.524C109.679 355.348 109.055 353.62 109.055 351.34V343.384H106.067V339.064H109.055V334.348H114.671V339.064H119.495V343.384H114.671V351.268C114.671 352.084 114.875 352.72 115.283 353.176C115.715 353.608 116.315 353.824 117.083 353.824C117.971 353.824 118.727 353.584 119.351 353.104L120.863 357.064ZM132.634 358.288C130.594 358.288 128.758 357.868 127.126 357.028C125.518 356.164 124.258 354.976 123.346 353.464C122.434 351.952 121.978 350.236 121.978 348.316C121.978 346.396 122.434 344.68 123.346 343.168C124.258 341.656 125.518 340.48 127.126 339.64C128.758 338.776 130.594 338.344 132.634 338.344C134.674 338.344 136.498 338.776 138.106 339.64C139.714 340.48 140.974 341.656 141.886 343.168C142.798 344.68 143.254 346.396 143.254 348.316C143.254 350.236 142.798 351.952 141.886 353.464C140.974 354.976 139.714 356.164 138.106 357.028C136.498 357.868 134.674 358.288 132.634 358.288ZM132.634 353.68C134.074 353.68 135.25 353.2 136.162 352.24C137.098 351.256 137.566 349.948 137.566 348.316C137.566 346.684 137.098 345.388 136.162 344.428C135.25 343.444 134.074 342.952 132.634 342.952C131.194 342.952 130.006 343.444 129.07 344.428C128.134 345.388 127.666 346.684 127.666 348.316C127.666 349.948 128.134 351.256 129.07 352.24C130.006 353.2 131.194 353.68 132.634 353.68ZM158.456 338.344C160.256 338.344 161.888 338.764 163.352 339.604C164.84 340.42 166.004 341.584 166.844 343.096C167.684 344.584 168.104 346.324 168.104 348.316C168.104 350.308 167.684 352.06 166.844 353.572C166.004 355.06 164.84 356.224 163.352 357.064C161.888 357.88 160.256 358.288 158.456 358.288C155.792 358.288 153.764 357.448 152.372 355.768V358H147.008V331.288H152.624V340.684C154.04 339.124 155.984 338.344 158.456 338.344ZM157.484 353.68C158.924 353.68 160.1 353.2 161.012 352.24C161.948 351.256 162.416 349.948 162.416 348.316C162.416 346.684 161.948 345.388 161.012 344.428C160.1 343.444 158.924 342.952 157.484 342.952C156.044 342.952 154.856 343.444 153.92 344.428C153.008 345.388 152.552 346.684 152.552 348.316C152.552 349.948 153.008 351.256 153.92 352.24C154.856 353.2 156.044 353.68 157.484 353.68ZM190.835 348.388C190.835 348.46 190.799 348.964 190.727 349.9H176.075C176.339 351.1 176.963 352.048 177.947 352.744C178.931 353.44 180.155 353.788 181.619 353.788C182.627 353.788 183.515 353.644 184.283 353.356C185.075 353.044 185.807 352.564 186.479 351.916L189.467 355.156C187.643 357.244 184.979 358.288 181.475 358.288C179.291 358.288 177.359 357.868 175.679 357.028C173.999 356.164 172.703 354.976 171.791 353.464C170.879 351.952 170.423 350.236 170.423 348.316C170.423 346.42 170.867 344.716 171.755 343.204C172.667 341.668 173.903 340.48 175.463 339.64C177.047 338.776 178.811 338.344 180.755 338.344C182.651 338.344 184.367 338.752 185.903 339.568C187.439 340.384 188.639 341.56 189.503 343.096C190.391 344.608 190.835 346.372 190.835 348.388ZM180.791 342.592C179.519 342.592 178.451 342.952 177.587 343.672C176.723 344.392 176.195 345.376 176.003 346.624H185.543C185.351 345.4 184.823 344.428 183.959 343.708C183.095 342.964 182.039 342.592 180.791 342.592ZM199.938 341.188C200.61 340.252 201.51 339.544 202.638 339.064C203.79 338.584 205.11 338.344 206.598 338.344V343.528C205.974 343.48 205.554 343.456 205.338 343.456C203.73 343.456 202.47 343.912 201.558 344.824C200.646 345.712 200.19 347.056 200.19 348.856V358H194.574V338.632H199.938V341.188ZM237.914 353.248V358H218.87V354.22L228.59 345.04C229.622 344.056 230.318 343.216 230.678 342.52C231.038 341.8 231.218 341.092 231.218 340.396C231.218 339.388 230.87 338.62 230.174 338.092C229.502 337.54 228.506 337.264 227.186 337.264C226.082 337.264 225.086 337.48 224.198 337.912C223.31 338.32 222.566 338.944 221.966 339.784L217.718 337.048C218.702 335.584 220.058 334.444 221.786 333.628C223.514 332.788 225.494 332.368 227.726 332.368C229.598 332.368 231.23 332.68 232.622 333.304C234.038 333.904 235.13 334.768 235.898 335.896C236.69 337 237.086 338.308 237.086 339.82C237.086 341.188 236.798 342.472 236.222 343.672C235.646 344.872 234.53 346.24 232.874 347.776L227.078 353.248H237.914ZM251.05 358.432C248.962 358.432 247.102 357.916 245.47 356.884C243.838 355.852 242.554 354.364 241.618 352.42C240.706 350.452 240.25 348.112 240.25 345.4C240.25 342.688 240.706 340.36 241.618 338.416C242.554 336.448 243.838 334.948 245.47 333.916C247.102 332.884 248.962 332.368 251.05 332.368C253.138 332.368 254.998 332.884 256.63 333.916C258.262 334.948 259.534 336.448 260.446 338.416C261.382 340.36 261.85 342.688 261.85 345.4C261.85 348.112 261.382 350.452 260.446 352.42C259.534 354.364 258.262 355.852 256.63 356.884C254.998 357.916 253.138 358.432 251.05 358.432ZM251.05 353.5C252.586 353.5 253.786 352.84 254.65 351.52C255.538 350.2 255.982 348.16 255.982 345.4C255.982 342.64 255.538 340.6 254.65 339.28C253.786 337.96 252.586 337.3 251.05 337.3C249.538 337.3 248.338 337.96 247.45 339.28C246.586 340.6 246.154 342.64 246.154 345.4C246.154 348.16 246.586 350.2 247.45 351.52C248.338 352.84 249.538 353.5 251.05 353.5ZM283.3 353.248V358H264.256V354.22L273.976 345.04C275.008 344.056 275.704 343.216 276.064 342.52C276.424 341.8 276.604 341.092 276.604 340.396C276.604 339.388 276.256 338.62 275.56 338.092C274.888 337.54 273.892 337.264 272.572 337.264C271.468 337.264 270.472 337.48 269.584 337.912C268.696 338.32 267.952 338.944 267.352 339.784L263.104 337.048C264.088 335.584 265.444 334.444 267.172 333.628C268.9 332.788 270.88 332.368 273.112 332.368C274.984 332.368 276.616 332.68 278.008 333.304C279.424 333.904 280.516 334.768 281.284 335.896C282.076 337 282.472 338.308 282.472 339.82C282.472 341.188 282.184 342.472 281.608 343.672C281.032 344.872 279.916 346.24 278.26 347.776L272.464 353.248H283.3ZM296.436 358.432C294.348 358.432 292.488 357.916 290.856 356.884C289.224 355.852 287.94 354.364 287.004 352.42C286.092 350.452 285.636 348.112 285.636 345.4C285.636 342.688 286.092 340.36 287.004 338.416C287.94 336.448 289.224 334.948 290.856 333.916C292.488 332.884 294.348 332.368 296.436 332.368C298.524 332.368 300.384 332.884 302.016 333.916C303.648 334.948 304.92 336.448 305.832 338.416C306.768 340.36 307.236 342.688 307.236 345.4C307.236 348.112 306.768 350.452 305.832 352.42C304.92 354.364 303.648 355.852 302.016 356.884C300.384 357.916 298.524 358.432 296.436 358.432ZM296.436 353.5C297.972 353.5 299.172 352.84 300.036 351.52C300.924 350.2 301.368 348.16 301.368 345.4C301.368 342.64 300.924 340.6 300.036 339.28C299.172 337.96 297.972 337.3 296.436 337.3C294.924 337.3 293.724 337.96 292.836 339.28C291.972 340.6 291.54 342.64 291.54 345.4C291.54 348.16 291.972 350.2 292.836 351.52C293.724 352.84 294.924 353.5 296.436 353.5Z" fill="#FFEFEF"/>
</g>
<g filter="url(#filter5_i)">
<path d="M130.653 57.2H135.711C136.875 57.2 137.818 58.2277 137.818 59.4955V65.0045C137.818 66.2723 136.875 67.3 135.711 67.3H130.653C129.489 67.3 128.545 66.2723 128.545 65.0045V59.4955C128.545 58.2277 129.489 57.2 130.653 57.2Z" fill="#FFEFEF"/>
<path d="M130.653 74.875H135.711C136.875 74.875 137.818 75.9027 137.818 77.1705V82.6795C137.818 83.9473 136.875 84.975 135.711 84.975H130.653C129.489 84.975 128.545 83.9473 128.545 82.6795V77.1705C128.545 75.9027 129.489 74.875 130.653 74.875Z" fill="#FFEFEF"/>
<path d="M154.256 74.875H149.198C148.034 74.875 147.091 75.9027 147.091 77.1705V82.6795C147.091 83.9473 148.034 84.975 149.198 84.975H154.256C155.42 84.975 156.364 83.9473 156.364 82.6795V77.1705C156.364 75.9027 155.42 74.875 154.256 74.875Z" fill="#FFEFEF"/>
<path d="M149.198 57.2H154.256C155.42 57.2 156.364 58.2277 156.364 59.4955V65.0045C156.364 66.2723 155.42 67.3 154.256 67.3H149.198C148.034 67.3 147.091 66.2723 147.091 65.0045V59.4955C147.091 58.2277 148.034 57.2 149.198 57.2Z" fill="#FFEFEF"/>
<path d="M172.802 74.875H167.744C166.58 74.875 165.636 75.9027 165.636 77.1705V82.6795C165.636 83.9473 166.58 84.975 167.744 84.975H172.802C173.966 84.975 174.909 83.9473 174.909 82.6795V77.1705C174.909 75.9027 173.966 74.875 172.802 74.875Z" fill="#FFEFEF"/>
<path d="M167.744 57.2H172.802C173.966 57.2 174.909 58.2277 174.909 59.4955V65.0045C174.909 66.2723 173.966 67.3 172.802 67.3H167.744C166.58 67.3 165.636 66.2723 165.636 65.0045V59.4955C165.636 58.2277 166.58 57.2 167.744 57.2Z" fill="#FFEFEF"/>
<path d="M191.347 57.2H186.289C185.125 57.2 184.182 58.2277 184.182 59.4955V65.0045C184.182 66.2723 185.125 67.3 186.289 67.3H191.347C192.511 67.3 193.455 66.2723 193.455 65.0045V59.4955C193.455 58.2277 192.511 57.2 191.347 57.2Z" fill="#FFEFEF"/>
<path fill-rule="evenodd" clip-rule="evenodd" d="M114.636 37C112.076 37 110 39.261 110 42.05V117.8C110 120.589 112.076 122.85 114.636 122.85H143.984L138.848 129.777C137.725 131.29 137.501 133.371 138.271 135.127C139.041 136.882 140.668 138 142.455 138H179.545C181.332 138 182.959 136.882 183.729 135.127C184.499 133.371 184.275 131.29 183.152 129.777L178.016 122.85H207.364C209.924 122.85 212 120.589 212 117.8V42.05C212 39.261 209.924 37 207.364 37H114.636ZM168.346 112.75C168.321 112.75 168.296 112.75 168.27 112.75H153.73C153.704 112.75 153.679 112.75 153.654 112.75H119.273V107.7H202.727V112.75H168.346ZM155.904 122.85H166.096L169.841 127.9H152.159L155.904 122.85ZM119.273 97.6V47.1H202.727V97.6H119.273Z" fill="#FFEFEF"/>
</g>
<defs>
<filter id="filter0_i" x="74" y="0" width="175" height="179" filterUnits="userSpaceOnUse" color-interpolation-filters="sRGB">
<feFlood flood-opacity="0" result="BackgroundImageFix"/>
<feBlend mode="normal" in="SourceGraphic" in2="BackgroundImageFix" result="shape"/>
<feColorMatrix in="SourceAlpha" type="matrix" values="0 0 0 0 0 0 0 0 0 0 0 0 0 0 0 0 0 0 127 0" result="hardAlpha"/>
<feOffset dy="4"/>
<feGaussianBlur stdDeviation="2"/>
<feComposite in2="hardAlpha" operator="arithmetic" k2="-1" k3="1"/>
<feColorMatrix type="matrix" values="0 0 0 0 0 0 0 0 0 0 0 0 0 0 0 0 0 0 0.25 0"/>
<feBlend mode="normal" in2="shape" result="effect1_innerShadow"/>
</filter>
<filter id="filter1_i" x="74" y="0" width="175" height="179" filterUnits="userSpaceOnUse" color-interpolation-filters="sRGB">
<feFlood flood-opacity="0" result="BackgroundImageFix"/>
<feBlend mode="normal" in="SourceGraphic" in2="BackgroundImageFix" result="shape"/>
<feColorMatrix in="SourceAlpha" type="matrix" values="0 0 0 0 0 0 0 0 0 0 0 0 0 0 0 0 0 0 127 0" result="hardAlpha"/>
<feOffset dy="4"/>
<feGaussianBlur stdDeviation="2"/>
<feComposite in2="hardAlpha" operator="arithmetic" k2="-1" k3="1"/>
<feColorMatrix type="matrix" values="0 0 0 0 0 0 0 0 0 0 0 0 0 0 0 0 0 0 0.25 0"/>
<feBlend mode="normal" in2="shape" result="effect1_innerShadow"/>
</filter>
<filter id="filter2_i" x="74" y="0" width="175" height="179" filterUnits="userSpaceOnUse" color-interpolation-filters="sRGB">
<feFlood flood-opacity="0" result="BackgroundImageFix"/>
<feBlend mode="normal" in="SourceGraphic" in2="BackgroundImageFix" result="shape"/>
<feColorMatrix in="SourceAlpha" type="matrix" values="0 0 0 0 0 0 0 0 0 0 0 0 0 0 0 0 0 0 127 0" result="hardAlpha"/>
<feOffset dy="4"/>
<feGaussianBlur stdDeviation="2"/>
<feComposite in2="hardAlpha" operator="arithmetic" k2="-1" k3="1"/>
<feColorMatrix type="matrix" values="0 0 0 0 0 0 0 0 0 0 0 0 0 0 0 0 0 0 0.25 0"/>
<feBlend mode="normal" in2="shape" result="effect1_innerShadow"/>
</filter>
<filter id="filter3_i" x="71.6191" y="199.668" width="176.287" height="83.604" filterUnits="userSpaceOnUse" color-interpolation-filters="sRGB">
<feFlood flood-opacity="0" result="BackgroundImageFix"/>
<feBlend mode="normal" in="SourceGraphic" in2="BackgroundImageFix" result="shape"/>
<feColorMatrix in="SourceAlpha" type="matrix" values="0 0 0 0 0 0 0 0 0 0 0 0 0 0 0 0 0 0 127 0" result="hardAlpha"/>
<feOffset dy="4"/>
<feGaussianBlur stdDeviation="2"/>
<feComposite in2="hardAlpha" operator="arithmetic" k2="-1" k3="1"/>
<feColorMatrix type="matrix" values="0 0 0 0 0 0 0 0 0 0 0 0 0 0 0 0 0 0 0.25 0"/>
<feBlend mode="normal" in2="shape" result="effect1_innerShadow"/>
</filter>
<filter id="filter4_i" x="22.2695" y="331.288" width="284.966" height="31.144" filterUnits="userSpaceOnUse" color-interpolation-filters="sRGB">
<feFlood flood-opacity="0" result="BackgroundImageFix"/>
<feBlend mode="normal" in="SourceGraphic" in2="BackgroundImageFix" result="shape"/>
<feColorMatrix in="SourceAlpha" type="matrix" values="0 0 0 0 0 0 0 0 0 0 0 0 0 0 0 0 0 0 127 0" result="hardAlpha"/>
<feOffset dy="4"/>
<feGaussianBlur stdDeviation="2"/>
<feComposite in2="hardAlpha" operator="arithmetic" k2="-1" k3="1"/>
<feColorMatrix type="matrix" values="0 0 0 0 0 0 0 0 0 0 0 0 0 0 0 0 0 0 0.25 0"/>
<feBlend mode="normal" in2="shape" result="effect1_innerShadow"/>
</filter>
<filter id="filter5_i" x="110" y="37" width="102" height="105" filterUnits="userSpaceOnUse" color-interpolation-filters="sRGB">
<feFlood flood-opacity="0" result="BackgroundImageFix"/>
<feBlend mode="normal" in="SourceGraphic" in2="BackgroundImageFix" result="shape"/>
<feColorMatrix in="SourceAlpha" type="matrix" values="0 0 0 0 0 0 0 0 0 0 0 0 0 0 0 0 0 0 127 0" result="hardAlpha"/>
<feOffset dy="4"/>
<feGaussianBlur stdDeviation="2"/>
<feComposite in2="hardAlpha" operator="arithmetic" k2="-1" k3="1"/>
<feColorMatrix type="matrix" values="0 0 0 0 0 0 0 0 0 0 0 0 0 0 0 0 0 0 0.25 0"/>
<feBlend mode="normal" in2="shape" result="effect1_innerShadow"/>
</filter>
</defs>
</svg>
