<svg width="324" height="429" viewBox="0 0 324 429" fill="none" xmlns="http://www.w3.org/2000/svg">
<rect y="429" width="313" height="324" rx="85" transform="rotate(-90 0 429)" fill="#65789D"/>
<g filter="url(#filter0_i)">
<g filter="url(#filter1_i)">
<g filter="url(#filter2_i)">
<circle cx="161.5" cy="87.5" r="87.5" transform="rotate(-90 161.5 87.5)" fill="#583AA7"/>
</g>
</g>
</g>
<g filter="url(#filter3_i)">
<path d="M124.776 228.432C122.16 228.432 119.796 227.868 117.684 226.74C115.596 225.612 113.952 224.064 112.752 222.096C111.576 220.104 110.988 217.872 110.988 215.4C110.988 212.928 111.576 210.708 112.752 208.74C113.952 206.748 115.596 205.188 117.684 204.06C119.796 202.932 122.16 202.368 124.776 202.368C127.392 202.368 129.744 202.932 131.832 204.06C133.92 205.188 135.564 206.748 136.764 208.74C137.964 210.708 138.564 212.928 138.564 215.4C138.564 217.872 137.964 220.104 136.764 222.096C135.564 224.064 133.92 225.612 131.832 226.74C129.744 227.868 127.392 228.432 124.776 228.432ZM124.776 223.464C126.264 223.464 127.608 223.128 128.808 222.456C130.008 221.76 130.944 220.8 131.616 219.576C132.312 218.352 132.66 216.96 132.66 215.4C132.66 213.84 132.312 212.448 131.616 211.224C130.944 210 130.008 209.052 128.808 208.38C127.608 207.684 126.264 207.336 124.776 207.336C123.288 207.336 121.944 207.684 120.744 208.38C119.544 209.052 118.596 210 117.9 211.224C117.228 212.448 116.892 213.84 116.892 215.4C116.892 216.96 117.228 218.352 117.9 219.576C118.596 220.8 119.544 221.76 120.744 222.456C121.944 223.128 123.288 223.464 124.776 223.464ZM153.999 208.344C155.799 208.344 157.431 208.764 158.895 209.604C160.383 210.42 161.547 211.584 162.387 213.096C163.227 214.584 163.647 216.324 163.647 218.316C163.647 220.308 163.227 222.06 162.387 223.572C161.547 225.06 160.383 226.224 158.895 227.064C157.431 227.88 155.799 228.288 153.999 228.288C151.527 228.288 149.583 227.508 148.167 225.948V234.984H142.551V208.632H147.915V210.864C149.307 209.184 151.335 208.344 153.999 208.344ZM153.027 223.68C154.467 223.68 155.643 223.2 156.555 222.24C157.491 221.256 157.959 219.948 157.959 218.316C157.959 216.684 157.491 215.388 156.555 214.428C155.643 213.444 154.467 212.952 153.027 212.952C151.587 212.952 150.399 213.444 149.463 214.428C148.551 215.388 148.095 216.684 148.095 218.316C148.095 219.948 148.551 221.256 149.463 222.24C150.399 223.2 151.587 223.68 153.027 223.68ZM186.378 218.388C186.378 218.46 186.342 218.964 186.27 219.9H171.618C171.882 221.1 172.506 222.048 173.49 222.744C174.474 223.44 175.698 223.788 177.162 223.788C178.17 223.788 179.058 223.644 179.826 223.356C180.618 223.044 181.35 222.564 182.022 221.916L185.01 225.156C183.186 227.244 180.522 228.288 177.018 228.288C174.834 228.288 172.902 227.868 171.222 227.028C169.542 226.164 168.246 224.976 167.334 223.464C166.422 221.952 165.966 220.236 165.966 218.316C165.966 216.42 166.41 214.716 167.298 213.204C168.21 211.668 169.446 210.48 171.006 209.64C172.59 208.776 174.354 208.344 176.298 208.344C178.194 208.344 179.91 208.752 181.446 209.568C182.982 210.384 184.182 211.56 185.046 213.096C185.934 214.608 186.378 216.372 186.378 218.388ZM176.334 212.592C175.062 212.592 173.994 212.952 173.13 213.672C172.266 214.392 171.738 215.376 171.546 216.624H181.086C180.894 215.4 180.366 214.428 179.502 213.708C178.638 212.964 177.582 212.592 176.334 212.592ZM201.889 208.344C204.289 208.344 206.221 209.064 207.685 210.504C209.173 211.944 209.917 214.08 209.917 216.912V228H204.301V217.776C204.301 216.24 203.965 215.1 203.293 214.356C202.621 213.588 201.649 213.204 200.377 213.204C198.961 213.204 197.833 213.648 196.993 214.536C196.153 215.4 195.733 216.696 195.733 218.424V228H190.117V208.632H195.481V210.9C196.225 210.084 197.149 209.46 198.253 209.028C199.357 208.572 200.569 208.344 201.889 208.344ZM63.835 272L58.975 264.98H58.687H53.611V272H47.779V246.8H58.687C60.919 246.8 62.851 247.172 64.483 247.916C66.139 248.66 67.411 249.716 68.299 251.084C69.187 252.452 69.631 254.072 69.631 255.944C69.631 257.816 69.175 259.436 68.263 260.804C67.375 262.148 66.103 263.18 64.447 263.9L70.099 272H63.835ZM63.727 255.944C63.727 254.528 63.271 253.448 62.359 252.704C61.447 251.936 60.115 251.552 58.363 251.552H53.611V260.336H58.363C60.115 260.336 61.447 259.952 62.359 259.184C63.271 258.416 63.727 257.336 63.727 255.944ZM92.8277 262.388C92.8277 262.46 92.7917 262.964 92.7197 263.9H78.0677C78.3317 265.1 78.9557 266.048 79.9397 266.744C80.9237 267.44 82.1477 267.788 83.6117 267.788C84.6197 267.788 85.5077 267.644 86.2757 267.356C87.0677 267.044 87.7997 266.564 88.4717 265.916L91.4597 269.156C89.6357 271.244 86.9717 272.288 83.4677 272.288C81.2837 272.288 79.3517 271.868 77.6717 271.028C75.9917 270.164 74.6957 268.976 73.7837 267.464C72.8717 265.952 72.4157 264.236 72.4157 262.316C72.4157 260.42 72.8597 258.716 73.7477 257.204C74.6597 255.668 75.8957 254.48 77.4557 253.64C79.0397 252.776 80.8037 252.344 82.7477 252.344C84.6437 252.344 86.3597 252.752 87.8957 253.568C89.4317 254.384 90.6317 255.56 91.4957 257.096C92.3837 258.608 92.8277 260.372 92.8277 262.388ZM82.7837 256.592C81.5117 256.592 80.4437 256.952 79.5797 257.672C78.7157 258.392 78.1877 259.376 77.9957 260.624H87.5357C87.3437 259.4 86.8157 258.428 85.9517 257.708C85.0877 256.964 84.0317 256.592 82.7837 256.592ZM116.547 252.632V268.76C116.547 272.312 115.623 274.952 113.775 276.68C111.927 278.408 109.227 279.272 105.675 279.272C103.803 279.272 102.027 279.044 100.347 278.588C98.6666 278.132 97.2746 277.472 96.1706 276.608L98.4026 272.576C99.2186 273.248 100.251 273.776 101.499 274.16C102.747 274.568 103.995 274.772 105.243 274.772C107.187 274.772 108.615 274.328 109.527 273.44C110.463 272.576 110.931 271.256 110.931 269.48V268.652C109.467 270.26 107.427 271.064 104.811 271.064C103.035 271.064 101.403 270.68 99.9146 269.912C98.4506 269.12 97.2866 268.016 96.4226 266.6C95.5586 265.184 95.1266 263.552 95.1266 261.704C95.1266 259.856 95.5586 258.224 96.4226 256.808C97.2866 255.392 98.4506 254.3 99.9146 253.532C101.403 252.74 103.035 252.344 104.811 252.344C107.619 252.344 109.755 253.268 111.219 255.116V252.632H116.547ZM105.927 266.456C107.415 266.456 108.627 266.024 109.563 265.16C110.523 264.272 111.003 263.12 111.003 261.704C111.003 260.288 110.523 259.148 109.563 258.284C108.627 257.396 107.415 256.952 105.927 256.952C104.439 256.952 103.215 257.396 102.255 258.284C101.295 259.148 100.815 260.288 100.815 261.704C100.815 263.12 101.295 264.272 102.255 265.16C103.215 266.024 104.439 266.456 105.927 266.456ZM121.774 252.632H127.39V272H121.774V252.632ZM124.582 249.932C123.55 249.932 122.71 249.632 122.062 249.032C121.414 248.432 121.09 247.688 121.09 246.8C121.09 245.912 121.414 245.168 122.062 244.568C122.71 243.968 123.55 243.668 124.582 243.668C125.614 243.668 126.454 243.956 127.102 244.532C127.75 245.108 128.074 245.828 128.074 246.692C128.074 247.628 127.75 248.408 127.102 249.032C126.454 249.632 125.614 249.932 124.582 249.932ZM139.118 272.288C137.51 272.288 135.938 272.096 134.402 271.712C132.866 271.304 131.642 270.8 130.73 270.2L132.602 266.168C133.466 266.72 134.51 267.176 135.734 267.536C136.958 267.872 138.158 268.04 139.334 268.04C141.71 268.04 142.898 267.452 142.898 266.276C142.898 265.724 142.574 265.328 141.926 265.088C141.278 264.848 140.282 264.644 138.938 264.476C137.354 264.236 136.046 263.96 135.014 263.648C133.982 263.336 133.082 262.784 132.314 261.992C131.57 261.2 131.198 260.072 131.198 258.608C131.198 257.384 131.546 256.304 132.242 255.368C132.962 254.408 133.994 253.664 135.338 253.136C136.706 252.608 138.314 252.344 140.162 252.344C141.53 252.344 142.886 252.5 144.23 252.812C145.598 253.1 146.726 253.508 147.614 254.036L145.742 258.032C144.038 257.072 142.178 256.592 140.162 256.592C138.962 256.592 138.062 256.76 137.462 257.096C136.862 257.432 136.562 257.864 136.562 258.392C136.562 258.992 136.886 259.412 137.534 259.652C138.182 259.892 139.214 260.12 140.63 260.336C142.214 260.6 143.51 260.888 144.518 261.2C145.526 261.488 146.402 262.028 147.146 262.82C147.89 263.612 148.262 264.716 148.262 266.132C148.262 267.332 147.902 268.4 147.182 269.336C146.462 270.272 145.406 271.004 144.014 271.532C142.646 272.036 141.014 272.288 139.118 272.288ZM164.219 271.064C163.667 271.472 162.983 271.784 162.167 272C161.375 272.192 160.535 272.288 159.647 272.288C157.343 272.288 155.555 271.7 154.283 270.524C153.035 269.348 152.411 267.62 152.411 265.34V257.384H149.423V253.064H152.411V248.348H158.027V253.064H162.851V257.384H158.027V265.268C158.027 266.084 158.231 266.72 158.639 267.176C159.071 267.608 159.671 267.824 160.439 267.824C161.327 267.824 162.083 267.584 162.707 267.104L164.219 271.064ZM172.735 255.188C173.407 254.252 174.307 253.544 175.435 253.064C176.587 252.584 177.907 252.344 179.395 252.344V257.528C178.771 257.48 178.351 257.456 178.135 257.456C176.527 257.456 175.267 257.912 174.355 258.824C173.443 259.712 172.987 261.056 172.987 262.856V272H167.371V252.632H172.735V255.188ZM190.441 252.344C193.441 252.344 195.745 253.064 197.353 254.504C198.961 255.92 199.765 258.068 199.765 260.948V272H194.509V269.588C193.453 271.388 191.485 272.288 188.605 272.288C187.117 272.288 185.821 272.036 184.717 271.532C183.637 271.028 182.809 270.332 182.233 269.444C181.657 268.556 181.369 267.548 181.369 266.42C181.369 264.62 182.041 263.204 183.385 262.172C184.753 261.14 186.853 260.624 189.685 260.624H194.149C194.149 259.4 193.777 258.464 193.033 257.816C192.289 257.144 191.173 256.808 189.685 256.808C188.653 256.808 187.633 256.976 186.625 257.312C185.641 257.624 184.801 258.056 184.105 258.608L182.089 254.684C183.145 253.94 184.405 253.364 185.869 252.956C187.357 252.548 188.881 252.344 190.441 252.344ZM190.009 268.508C190.969 268.508 191.821 268.292 192.565 267.86C193.309 267.404 193.837 266.744 194.149 265.88V263.9H190.297C187.993 263.9 186.841 264.656 186.841 266.168C186.841 266.888 187.117 267.464 187.669 267.896C188.245 268.304 189.025 268.508 190.009 268.508ZM217.34 271.064C216.788 271.472 216.104 271.784 215.288 272C214.496 272.192 213.656 272.288 212.768 272.288C210.464 272.288 208.676 271.7 207.404 270.524C206.156 269.348 205.532 267.62 205.532 265.34V257.384H202.544V253.064H205.532V248.348H211.148V253.064H215.972V257.384H211.148V265.268C211.148 266.084 211.352 266.72 211.76 267.176C212.192 267.608 212.792 267.824 213.56 267.824C214.448 267.824 215.204 267.584 215.828 267.104L217.34 271.064ZM220.492 252.632H226.108V272H220.492V252.632ZM223.3 249.932C222.268 249.932 221.428 249.632 220.78 249.032C220.132 248.432 219.808 247.688 219.808 246.8C219.808 245.912 220.132 245.168 220.78 244.568C221.428 243.968 222.268 243.668 223.3 243.668C224.332 243.668 225.172 243.956 225.82 244.532C226.468 245.108 226.792 245.828 226.792 246.692C226.792 247.628 226.468 248.408 225.82 249.032C225.172 249.632 224.332 249.932 223.3 249.932ZM240.537 272.288C238.497 272.288 236.661 271.868 235.029 271.028C233.421 270.164 232.161 268.976 231.249 267.464C230.337 265.952 229.881 264.236 229.881 262.316C229.881 260.396 230.337 258.68 231.249 257.168C232.161 255.656 233.421 254.48 235.029 253.64C236.661 252.776 238.497 252.344 240.537 252.344C242.577 252.344 244.401 252.776 246.009 253.64C247.617 254.48 248.877 255.656 249.789 257.168C250.701 258.68 251.157 260.396 251.157 262.316C251.157 264.236 250.701 265.952 249.789 267.464C248.877 268.976 247.617 270.164 246.009 271.028C244.401 271.868 242.577 272.288 240.537 272.288ZM240.537 267.68C241.977 267.68 243.153 267.2 244.065 266.24C245.001 265.256 245.469 263.948 245.469 262.316C245.469 260.684 245.001 259.388 244.065 258.428C243.153 257.444 241.977 256.952 240.537 256.952C239.097 256.952 237.909 257.444 236.973 258.428C236.037 259.388 235.569 260.684 235.569 262.316C235.569 263.948 236.037 265.256 236.973 266.24C237.909 267.2 239.097 267.68 240.537 267.68ZM266.682 252.344C269.082 252.344 271.014 253.064 272.478 254.504C273.966 255.944 274.71 258.08 274.71 260.912V272H269.094V261.776C269.094 260.24 268.758 259.1 268.086 258.356C267.414 257.588 266.442 257.204 265.17 257.204C263.754 257.204 262.626 257.648 261.786 258.536C260.946 259.4 260.526 260.696 260.526 262.424V272H254.91V252.632H260.274V254.9C261.018 254.084 261.942 253.46 263.046 253.028C264.15 252.572 265.362 252.344 266.682 252.344Z" fill="#FFEFEF"/>
</g>
<g filter="url(#filter4_i)">
<path d="M50.6539 353.248V358H31.6099V354.22L41.3299 345.04C42.3619 344.056 43.0579 343.216 43.4179 342.52C43.7779 341.8 43.9579 341.092 43.9579 340.396C43.9579 339.388 43.6099 338.62 42.9139 338.092C42.2419 337.54 41.2459 337.264 39.9259 337.264C38.8219 337.264 37.8259 337.48 36.9379 337.912C36.0499 338.32 35.3059 338.944 34.7059 339.784L30.4579 337.048C31.4419 335.584 32.7979 334.444 34.5259 333.628C36.2539 332.788 38.2339 332.368 40.4659 332.368C42.3379 332.368 43.9699 332.68 45.3619 333.304C46.7779 333.904 47.8699 334.768 48.6379 335.896C49.4299 337 49.8259 338.308 49.8259 339.82C49.8259 341.188 49.5379 342.472 48.9619 343.672C48.3859 344.872 47.2699 346.24 45.6139 347.776L39.8179 353.248H50.6539ZM75.7847 352.708H71.6807V358H65.9927V352.708H52.4207V348.784L64.3007 332.8H70.4207L59.4047 347.956H66.1727V343.24H71.6807V347.956H75.7847V352.708ZM105.904 352.6H94.2043L91.9723 358H85.9963L97.2283 332.8H102.988L114.256 358H108.136L105.904 352.6ZM104.068 348.172L100.072 338.524L96.0763 348.172H104.068ZM136.279 338.632V354.76C136.279 358.312 135.355 360.952 133.507 362.68C131.659 364.408 128.959 365.272 125.407 365.272C123.535 365.272 121.759 365.044 120.079 364.588C118.399 364.132 117.007 363.472 115.903 362.608L118.135 358.576C118.951 359.248 119.983 359.776 121.231 360.16C122.479 360.568 123.727 360.772 124.975 360.772C126.919 360.772 128.347 360.328 129.259 359.44C130.195 358.576 130.663 357.256 130.663 355.48V354.652C129.199 356.26 127.159 357.064 124.543 357.064C122.767 357.064 121.135 356.68 119.647 355.912C118.183 355.12 117.019 354.016 116.155 352.6C115.291 351.184 114.859 349.552 114.859 347.704C114.859 345.856 115.291 344.224 116.155 342.808C117.019 341.392 118.183 340.3 119.647 339.532C121.135 338.74 122.767 338.344 124.543 338.344C127.351 338.344 129.487 339.268 130.951 341.116V338.632H136.279ZM125.659 352.456C127.147 352.456 128.359 352.024 129.295 351.16C130.255 350.272 130.735 349.12 130.735 347.704C130.735 346.288 130.255 345.148 129.295 344.284C128.359 343.396 127.147 342.952 125.659 342.952C124.171 342.952 122.947 343.396 121.987 344.284C121.027 345.148 120.547 346.288 120.547 347.704C120.547 349.12 121.027 350.272 121.987 351.16C122.947 352.024 124.171 352.456 125.659 352.456ZM161.018 338.632V358H155.69V355.696C154.946 356.536 154.058 357.184 153.026 357.64C151.994 358.072 150.878 358.288 149.678 358.288C147.134 358.288 145.118 357.556 143.63 356.092C142.142 354.628 141.398 352.456 141.398 349.576V338.632H147.014V348.748C147.014 351.868 148.322 353.428 150.938 353.428C152.282 353.428 153.362 352.996 154.178 352.132C154.994 351.244 155.402 349.936 155.402 348.208V338.632H161.018ZM172.737 358.288C171.129 358.288 169.557 358.096 168.021 357.712C166.485 357.304 165.261 356.8 164.349 356.2L166.221 352.168C167.085 352.72 168.129 353.176 169.353 353.536C170.577 353.872 171.777 354.04 172.953 354.04C175.329 354.04 176.517 353.452 176.517 352.276C176.517 351.724 176.193 351.328 175.545 351.088C174.897 350.848 173.901 350.644 172.557 350.476C170.973 350.236 169.665 349.96 168.633 349.648C167.601 349.336 166.701 348.784 165.933 347.992C165.189 347.2 164.817 346.072 164.817 344.608C164.817 343.384 165.165 342.304 165.861 341.368C166.581 340.408 167.613 339.664 168.957 339.136C170.325 338.608 171.933 338.344 173.781 338.344C175.149 338.344 176.505 338.5 177.849 338.812C179.217 339.1 180.345 339.508 181.233 340.036L179.361 344.032C177.657 343.072 175.797 342.592 173.781 342.592C172.581 342.592 171.681 342.76 171.081 343.096C170.481 343.432 170.181 343.864 170.181 344.392C170.181 344.992 170.505 345.412 171.153 345.652C171.801 345.892 172.833 346.12 174.249 346.336C175.833 346.6 177.129 346.888 178.137 347.2C179.145 347.488 180.021 348.028 180.765 348.82C181.509 349.612 181.881 350.716 181.881 352.132C181.881 353.332 181.521 354.4 180.801 355.336C180.081 356.272 179.025 357.004 177.633 357.532C176.265 358.036 174.633 358.288 172.737 358.288ZM197.838 357.064C197.286 357.472 196.602 357.784 195.786 358C194.994 358.192 194.154 358.288 193.266 358.288C190.962 358.288 189.174 357.7 187.902 356.524C186.654 355.348 186.03 353.62 186.03 351.34V343.384H183.042V339.064H186.03V334.348H191.646V339.064H196.47V343.384H191.646V351.268C191.646 352.084 191.85 352.72 192.258 353.176C192.69 353.608 193.29 353.824 194.058 353.824C194.946 353.824 195.702 353.584 196.326 353.104L197.838 357.064ZM228.826 353.248V358H209.782V354.22L219.502 345.04C220.534 344.056 221.23 343.216 221.59 342.52C221.95 341.8 222.13 341.092 222.13 340.396C222.13 339.388 221.782 338.62 221.086 338.092C220.414 337.54 219.418 337.264 218.098 337.264C216.994 337.264 215.998 337.48 215.11 337.912C214.222 338.32 213.478 338.944 212.878 339.784L208.63 337.048C209.614 335.584 210.97 334.444 212.698 333.628C214.426 332.788 216.406 332.368 218.638 332.368C220.51 332.368 222.142 332.68 223.534 333.304C224.95 333.904 226.042 334.768 226.81 335.896C227.602 337 227.998 338.308 227.998 339.82C227.998 341.188 227.71 342.472 227.134 343.672C226.558 344.872 225.442 346.24 223.786 347.776L217.99 353.248H228.826ZM241.962 358.432C239.874 358.432 238.014 357.916 236.382 356.884C234.75 355.852 233.466 354.364 232.53 352.42C231.618 350.452 231.162 348.112 231.162 345.4C231.162 342.688 231.618 340.36 232.53 338.416C233.466 336.448 234.75 334.948 236.382 333.916C238.014 332.884 239.874 332.368 241.962 332.368C244.05 332.368 245.91 332.884 247.542 333.916C249.174 334.948 250.446 336.448 251.358 338.416C252.294 340.36 252.762 342.688 252.762 345.4C252.762 348.112 252.294 350.452 251.358 352.42C250.446 354.364 249.174 355.852 247.542 356.884C245.91 357.916 244.05 358.432 241.962 358.432ZM241.962 353.5C243.498 353.5 244.698 352.84 245.562 351.52C246.45 350.2 246.894 348.16 246.894 345.4C246.894 342.64 246.45 340.6 245.562 339.28C244.698 337.96 243.498 337.3 241.962 337.3C240.45 337.3 239.25 337.96 238.362 339.28C237.498 340.6 237.066 342.64 237.066 345.4C237.066 348.16 237.498 350.2 238.362 351.52C239.25 352.84 240.45 353.5 241.962 353.5ZM274.212 353.248V358H255.168V354.22L264.888 345.04C265.92 344.056 266.616 343.216 266.976 342.52C267.336 341.8 267.516 341.092 267.516 340.396C267.516 339.388 267.168 338.62 266.472 338.092C265.8 337.54 264.804 337.264 263.484 337.264C262.38 337.264 261.384 337.48 260.496 337.912C259.608 338.32 258.864 338.944 258.264 339.784L254.016 337.048C255 335.584 256.356 334.444 258.084 333.628C259.812 332.788 261.792 332.368 264.024 332.368C265.896 332.368 267.528 332.68 268.92 333.304C270.336 333.904 271.428 334.768 272.196 335.896C272.988 337 273.384 338.308 273.384 339.82C273.384 341.188 273.096 342.472 272.52 343.672C271.944 344.872 270.828 346.24 269.172 347.776L263.376 353.248H274.212ZM287.349 358.432C285.261 358.432 283.401 357.916 281.769 356.884C280.137 355.852 278.853 354.364 277.917 352.42C277.005 350.452 276.549 348.112 276.549 345.4C276.549 342.688 277.005 340.36 277.917 338.416C278.853 336.448 280.137 334.948 281.769 333.916C283.401 332.884 285.261 332.368 287.349 332.368C289.437 332.368 291.297 332.884 292.929 333.916C294.561 334.948 295.833 336.448 296.745 338.416C297.681 340.36 298.149 342.688 298.149 345.4C298.149 348.112 297.681 350.452 296.745 352.42C295.833 354.364 294.561 355.852 292.929 356.884C291.297 357.916 289.437 358.432 287.349 358.432ZM287.349 353.5C288.885 353.5 290.085 352.84 290.949 351.52C291.837 350.2 292.281 348.16 292.281 345.4C292.281 342.64 291.837 340.6 290.949 339.28C290.085 337.96 288.885 337.3 287.349 337.3C285.837 337.3 284.637 337.96 283.749 339.28C282.885 340.6 282.453 342.64 282.453 345.4C282.453 348.16 282.885 350.2 283.749 351.52C284.637 352.84 285.837 353.5 287.349 353.5Z" fill="#FFEFEF"/>
</g>
<path fill-rule="evenodd" clip-rule="evenodd" d="M181.828 30.4311L212.725 61.5039C213.543 62.3284 214 63.4239 214 64.5664V119.344C214 134.039 201.747 146 186.677 146H137.958C122.015 146 110 134.539 110 119.344V104.585C110 102.147 112.049 100.168 114.574 100.168C117.099 100.168 119.148 102.147 119.148 104.585V119.344C119.148 129.669 127.059 137.166 137.958 137.166H186.677C196.703 137.166 204.852 129.168 204.852 119.344V66.3392L181.498 42.8579V50.5613C181.498 56.4743 186.481 61.2919 192.605 61.3037C195.13 61.3096 197.173 63.2884 197.167 65.7326C197.161 68.1649 195.118 70.1379 192.593 70.1379H192.586C181.431 70.1143 172.35 61.3331 172.35 50.5613V37.9049H137.958C127.76 37.9049 119.148 45.9381 119.148 55.4496V80.574C119.148 83.0122 117.099 84.9911 114.574 84.9911C112.049 84.9911 110 83.0122 110 80.574V55.4496C110 41.15 122.802 29.0707 137.958 29.0707H176.57C176.629 29.0653 176.683 29.05 176.735 29.0351C176.797 29.0173 176.858 29 176.924 29C176.996 29 177.059 29.0183 177.123 29.0365C177.174 29.051 177.224 29.0655 177.278 29.0707H178.528C179.772 29.0707 180.962 29.5595 181.828 30.4311ZM156.308 78.8503C156.308 76.4121 158.357 74.4332 160.882 74.4332C163.407 74.4332 165.456 76.4121 165.456 78.8503V88.8683H175.831C178.356 88.8683 180.405 90.8472 180.405 93.2854C180.405 95.7236 178.356 97.7025 175.831 97.7025H165.456V107.715C165.456 110.153 163.407 112.132 160.882 112.132C158.357 112.132 156.308 110.153 156.308 107.715V97.7025H145.939C143.414 97.7025 141.365 95.7236 141.365 93.2854C141.365 90.8472 143.414 88.8683 145.939 88.8683H156.308V78.8503Z" fill="white"/>
<defs>
<filter id="filter0_i" x="74" y="0" width="175" height="179" filterUnits="userSpaceOnUse" color-interpolation-filters="sRGB">
<feFlood flood-opacity="0" result="BackgroundImageFix"/>
<feBlend mode="normal" in="SourceGraphic" in2="BackgroundImageFix" result="shape"/>
<feColorMatrix in="SourceAlpha" type="matrix" values="0 0 0 0 0 0 0 0 0 0 0 0 0 0 0 0 0 0 127 0" result="hardAlpha"/>
<feOffset dy="4"/>
<feGaussianBlur stdDeviation="2"/>
<feComposite in2="hardAlpha" operator="arithmetic" k2="-1" k3="1"/>
<feColorMatrix type="matrix" values="0 0 0 0 0 0 0 0 0 0 0 0 0 0 0 0 0 0 0.25 0"/>
<feBlend mode="normal" in2="shape" result="effect1_innerShadow"/>
</filter>
<filter id="filter1_i" x="74" y="0" width="175" height="179" filterUnits="userSpaceOnUse" color-interpolation-filters="sRGB">
<feFlood flood-opacity="0" result="BackgroundImageFix"/>
<feBlend mode="normal" in="SourceGraphic" in2="BackgroundImageFix" result="shape"/>
<feColorMatrix in="SourceAlpha" type="matrix" values="0 0 0 0 0 0 0 0 0 0 0 0 0 0 0 0 0 0 127 0" result="hardAlpha"/>
<feOffset dy="4"/>
<feGaussianBlur stdDeviation="2"/>
<feComposite in2="hardAlpha" operator="arithmetic" k2="-1" k3="1"/>
<feColorMatrix type="matrix" values="0 0 0 0 0 0 0 0 0 0 0 0 0 0 0 0 0 0 0.25 0"/>
<feBlend mode="normal" in2="shape" result="effect1_innerShadow"/>
</filter>
<filter id="filter2_i" x="74" y="0" width="175" height="179" filterUnits="userSpaceOnUse" color-interpolation-filters="sRGB">
<feFlood flood-opacity="0" result="BackgroundImageFix"/>
<feBlend mode="normal" in="SourceGraphic" in2="BackgroundImageFix" result="shape"/>
<feColorMatrix in="SourceAlpha" type="matrix" values="0 0 0 0 0 0 0 0 0 0 0 0 0 0 0 0 0 0 127 0" result="hardAlpha"/>
<feOffset dy="4"/>
<feGaussianBlur stdDeviation="2"/>
<feComposite in2="hardAlpha" operator="arithmetic" k2="-1" k3="1"/>
<feColorMatrix type="matrix" values="0 0 0 0 0 0 0 0 0 0 0 0 0 0 0 0 0 0 0.25 0"/>
<feBlend mode="normal" in2="shape" result="effect1_innerShadow"/>
</filter>
<filter id="filter3_i" x="47.7793" y="202.368" width="226.931" height="80.904" filterUnits="userSpaceOnUse" color-interpolation-filters="sRGB">
<feFlood flood-opacity="0" result="BackgroundImageFix"/>
<feBlend mode="normal" in="SourceGraphic" in2="BackgroundImageFix" result="shape"/>
<feColorMatrix in="SourceAlpha" type="matrix" values="0 0 0 0 0 0 0 0 0 0 0 0 0 0 0 0 0 0 127 0" result="hardAlpha"/>
<feOffset dy="4"/>
<feGaussianBlur stdDeviation="2"/>
<feComposite in2="hardAlpha" operator="arithmetic" k2="-1" k3="1"/>
<feColorMatrix type="matrix" values="0 0 0 0 0 0 0 0 0 0 0 0 0 0 0 0 0 0 0.25 0"/>
<feBlend mode="normal" in2="shape" result="effect1_innerShadow"/>
</filter>
<filter id="filter4_i" x="30.457" y="332.368" width="267.691" height="36.904" filterUnits="userSpaceOnUse" color-interpolation-filters="sRGB">
<feFlood flood-opacity="0" result="BackgroundImageFix"/>
<feBlend mode="normal" in="SourceGraphic" in2="BackgroundImageFix" result="shape"/>
<feColorMatrix in="SourceAlpha" type="matrix" values="0 0 0 0 0 0 0 0 0 0 0 0 0 0 0 0 0 0 127 0" result="hardAlpha"/>
<feOffset dy="4"/>
<feGaussianBlur stdDeviation="2"/>
<feComposite in2="hardAlpha" operator="arithmetic" k2="-1" k3="1"/>
<feColorMatrix type="matrix" values="0 0 0 0 0 0 0 0 0 0 0 0 0 0 0 0 0 0 0.25 0"/>
<feBlend mode="normal" in2="shape" result="effect1_innerShadow"/>
</filter>
</defs>
</svg>
