<svg width="1128" height="181" viewBox="0 0 1128 181" fill="none" xmlns="http://www.w3.org/2000/svg">
<path d="M1128 93.9017C1128 141.082 1088.1 178.444 1041.01 175.461C682.218 152.736 450.047 140.86 90.5496 172.406C42.114 176.657 0 138.759 0 90.1377V90.1377C0 41.7768 41.6433 3.9272 89.8096 8.26092C469.366 42.4112 702.84 51.9559 1034.78 12.1172C1084.05 6.20436 1128 44.2816 1128 93.9017V93.9017Z" fill="#65789D"/>
<path d="M89.056 99.322H83.848V106H78.556V99.322H62.428V95.542L76.918 76.6H82.756L69.106 94.702H78.724V88.78H83.848V94.702H89.056V99.322ZM95.4502 106.294C94.4982 106.294 93.6862 105.972 93.0142 105.328C92.3422 104.656 92.0062 103.816 92.0062 102.808C92.0062 101.772 92.3282 100.932 92.9722 100.288C93.6442 99.644 94.4702 99.322 95.4502 99.322C96.4302 99.322 97.2422 99.644 97.8862 100.288C98.5582 100.932 98.8942 101.772 98.8942 102.808C98.8942 103.816 98.5582 104.656 97.8862 105.328C97.2142 105.972 96.4022 106.294 95.4502 106.294ZM143.016 76.6L130.206 106H124.83L111.977 76.6H117.9L127.686 99.28L137.556 76.6H143.016ZM165.016 94.912C165.016 95.276 164.988 95.794 164.932 96.466H147.334C147.642 98.118 148.44 99.434 149.728 100.414C151.044 101.366 152.668 101.842 154.6 101.842C157.064 101.842 159.094 101.03 160.69 99.406L163.504 102.64C162.496 103.844 161.222 104.754 159.682 105.37C158.142 105.986 156.406 106.294 154.474 106.294C152.01 106.294 149.84 105.804 147.964 104.824C146.088 103.844 144.632 102.486 143.596 100.75C142.588 98.986 142.084 96.998 142.084 94.786C142.084 92.602 142.574 90.642 143.554 88.906C144.562 87.142 145.948 85.77 147.712 84.79C149.476 83.81 151.464 83.32 153.676 83.32C155.86 83.32 157.806 83.81 159.514 84.79C161.25 85.742 162.594 87.1 163.546 88.864C164.526 90.6 165.016 92.616 165.016 94.912ZM153.676 87.52C151.996 87.52 150.568 88.024 149.392 89.032C148.244 90.012 147.544 91.328 147.292 92.98H160.018C159.794 91.356 159.108 90.04 157.96 89.032C156.812 88.024 155.384 87.52 153.676 87.52ZM175.057 86.848C176.569 84.496 179.229 83.32 183.037 83.32V88.318C182.589 88.234 182.183 88.192 181.819 88.192C179.775 88.192 178.179 88.794 177.031 89.998C175.883 91.174 175.309 92.882 175.309 95.122V106H170.059V83.572H175.057V86.848ZM187.491 83.572H192.741V106H187.491V83.572ZM190.137 79.876C189.185 79.876 188.387 79.582 187.743 78.994C187.099 78.378 186.777 77.622 186.777 76.726C186.777 75.83 187.099 75.088 187.743 74.5C188.387 73.884 189.185 73.576 190.137 73.576C191.089 73.576 191.887 73.87 192.531 74.458C193.175 75.018 193.497 75.732 193.497 76.6C193.497 77.524 193.175 78.308 192.531 78.952C191.915 79.568 191.117 79.876 190.137 79.876ZM208.746 78.784C206.534 78.784 205.428 79.988 205.428 82.396V83.74H211.602V87.94H205.596V106H200.346V87.94H196.65V83.74H200.346V82.312C200.346 79.904 201.046 78.014 202.446 76.642C203.846 75.242 205.82 74.542 208.368 74.542C210.384 74.542 211.966 74.948 213.114 75.76L211.644 79.708C210.748 79.092 209.782 78.784 208.746 78.784ZM218.49 83.572H223.74V106H218.49V83.572ZM221.136 79.876C220.184 79.876 219.386 79.582 218.742 78.994C218.097 78.378 217.775 77.622 217.775 76.726C217.775 75.83 218.097 75.088 218.742 74.5C219.386 73.884 220.184 73.576 221.136 73.576C222.088 73.576 222.886 73.87 223.53 74.458C224.174 75.018 224.496 75.732 224.496 76.6C224.496 77.524 224.174 78.308 223.53 78.952C222.914 79.568 222.116 79.876 221.136 79.876ZM239.795 96.382L235.889 100.078V106H230.639V74.836H235.889V93.652L246.767 83.572H253.067L243.701 92.98L253.949 106H247.565L239.795 96.382ZM265.498 83.32C268.802 83.32 271.322 84.118 273.058 85.714C274.822 87.282 275.704 89.662 275.704 92.854V106H270.748V103.27C270.104 104.25 269.18 105.006 267.976 105.538C266.8 106.042 265.372 106.294 263.692 106.294C262.012 106.294 260.542 106.014 259.282 105.454C258.022 104.866 257.042 104.068 256.342 103.06C255.67 102.024 255.334 100.862 255.334 99.574C255.334 97.558 256.076 95.948 257.56 94.744C259.072 93.512 261.438 92.896 264.658 92.896H270.454V92.56C270.454 90.992 269.978 89.788 269.026 88.948C268.102 88.108 266.716 87.688 264.868 87.688C263.608 87.688 262.362 87.884 261.13 88.276C259.926 88.668 258.904 89.214 258.064 89.914L256.006 86.092C257.182 85.196 258.596 84.51 260.248 84.034C261.9 83.558 263.65 83.32 265.498 83.32ZM264.784 102.472C266.1 102.472 267.262 102.178 268.27 101.59C269.306 100.974 270.034 100.106 270.454 98.986V96.382H265.036C262.012 96.382 260.5 97.376 260.5 99.364C260.5 100.316 260.878 101.072 261.634 101.632C262.39 102.192 263.44 102.472 264.784 102.472ZM289.372 106.294C287.552 106.294 285.774 106.056 284.038 105.58C282.302 105.104 280.916 104.502 279.88 103.774L281.896 99.784C282.904 100.456 284.108 101.002 285.508 101.422C286.936 101.814 288.336 102.01 289.708 102.01C292.844 102.01 294.412 101.184 294.412 99.532C294.412 98.748 294.006 98.202 293.194 97.894C292.41 97.586 291.136 97.292 289.372 97.012C287.524 96.732 286.012 96.41 284.836 96.046C283.688 95.682 282.68 95.052 281.812 94.156C280.972 93.232 280.552 91.958 280.552 90.334C280.552 88.206 281.434 86.512 283.198 85.252C284.99 83.964 287.398 83.32 290.422 83.32C291.962 83.32 293.502 83.502 295.042 83.866C296.582 84.202 297.842 84.664 298.822 85.252L296.806 89.242C294.902 88.122 292.76 87.562 290.38 87.562C288.84 87.562 287.664 87.8 286.852 88.276C286.068 88.724 285.676 89.326 285.676 90.082C285.676 90.922 286.096 91.524 286.936 91.888C287.804 92.224 289.134 92.546 290.926 92.854C292.718 93.134 294.188 93.456 295.336 93.82C296.484 94.184 297.464 94.8 298.276 95.668C299.116 96.536 299.536 97.768 299.536 99.364C299.536 101.464 298.626 103.144 296.806 104.404C294.986 105.664 292.508 106.294 289.372 106.294ZM304.057 83.572H309.307V106H304.057V83.572ZM306.703 79.876C305.751 79.876 304.953 79.582 304.309 78.994C303.665 78.378 303.343 77.622 303.343 76.726C303.343 75.83 303.665 75.088 304.309 74.5C304.953 73.884 305.751 73.576 306.703 73.576C307.655 73.576 308.453 73.87 309.097 74.458C309.741 75.018 310.063 75.732 310.063 76.6C310.063 77.524 309.741 78.308 309.097 78.952C308.481 79.568 307.683 79.876 306.703 79.876ZM340.405 76.6C342.953 76.6 345.165 77.02 347.041 77.86C348.945 78.7 350.401 79.904 351.409 81.472C352.417 83.04 352.921 84.902 352.921 87.058C352.921 89.186 352.417 91.048 351.409 92.644C350.401 94.212 348.945 95.416 347.041 96.256C345.165 97.096 342.953 97.516 340.405 97.516H333.769V106H328.309V76.6H340.405ZM340.153 92.896C342.533 92.896 344.339 92.392 345.571 91.384C346.803 90.376 347.419 88.934 347.419 87.058C347.419 85.182 346.803 83.74 345.571 82.732C344.339 81.724 342.533 81.22 340.153 81.22H333.769V92.896H340.153ZM378.872 94.912C378.872 95.276 378.844 95.794 378.788 96.466H361.19C361.498 98.118 362.296 99.434 363.584 100.414C364.9 101.366 366.524 101.842 368.456 101.842C370.92 101.842 372.95 101.03 374.546 99.406L377.36 102.64C376.352 103.844 375.078 104.754 373.538 105.37C371.998 105.986 370.262 106.294 368.33 106.294C365.866 106.294 363.696 105.804 361.82 104.824C359.944 103.844 358.488 102.486 357.452 100.75C356.444 98.986 355.94 96.998 355.94 94.786C355.94 92.602 356.43 90.642 357.41 88.906C358.418 87.142 359.804 85.77 361.568 84.79C363.332 83.81 365.32 83.32 367.532 83.32C369.716 83.32 371.662 83.81 373.37 84.79C375.106 85.742 376.45 87.1 377.402 88.864C378.382 90.6 378.872 92.616 378.872 94.912ZM367.532 87.52C365.852 87.52 364.424 88.024 363.248 89.032C362.1 90.012 361.4 91.328 361.148 92.98H373.874C373.65 91.356 372.964 90.04 371.816 89.032C370.668 88.024 369.24 87.52 367.532 87.52ZM412.223 83.32C415.051 83.32 417.291 84.146 418.943 85.798C420.595 87.422 421.421 89.872 421.421 93.148V106H416.171V93.82C416.171 91.86 415.737 90.39 414.869 89.41C414.001 88.402 412.755 87.898 411.131 87.898C409.367 87.898 407.953 88.486 406.889 89.662C405.825 90.81 405.293 92.462 405.293 94.618V106H400.043V93.82C400.043 91.86 399.609 90.39 398.741 89.41C397.873 88.402 396.627 87.898 395.003 87.898C393.211 87.898 391.783 88.472 390.719 89.62C389.683 90.768 389.165 92.434 389.165 94.618V106H383.915V83.572H388.913V86.428C389.753 85.42 390.803 84.65 392.063 84.118C393.323 83.586 394.723 83.32 396.263 83.32C397.943 83.32 399.427 83.642 400.715 84.286C402.031 84.902 403.067 85.826 403.823 87.058C404.747 85.882 405.937 84.972 407.393 84.328C408.849 83.656 410.459 83.32 412.223 83.32ZM440.562 83.32C442.746 83.32 444.692 83.796 446.4 84.748C448.136 85.7 449.494 87.044 450.474 88.78C451.454 90.516 451.944 92.518 451.944 94.786C451.944 97.054 451.454 99.07 450.474 100.834C449.494 102.57 448.136 103.914 446.4 104.866C444.692 105.818 442.746 106.294 440.562 106.294C439.022 106.294 437.608 106.028 436.32 105.496C435.06 104.964 433.996 104.166 433.128 103.102V106H428.13V74.836H433.38V86.302C434.276 85.322 435.326 84.58 436.53 84.076C437.762 83.572 439.106 83.32 440.562 83.32ZM439.974 101.8C441.906 101.8 443.488 101.156 444.72 99.868C445.98 98.58 446.61 96.886 446.61 94.786C446.61 92.686 445.98 90.992 444.72 89.704C443.488 88.416 441.906 87.772 439.974 87.772C438.714 87.772 437.58 88.066 436.572 88.654C435.564 89.214 434.766 90.026 434.178 91.09C433.59 92.154 433.296 93.386 433.296 94.786C433.296 96.186 433.59 97.418 434.178 98.482C434.766 99.546 435.564 100.372 436.572 100.96C437.58 101.52 438.714 101.8 439.974 101.8ZM465.203 83.32C468.507 83.32 471.027 84.118 472.763 85.714C474.527 87.282 475.409 89.662 475.409 92.854V106H470.453V103.27C469.809 104.25 468.885 105.006 467.681 105.538C466.505 106.042 465.077 106.294 463.397 106.294C461.717 106.294 460.247 106.014 458.987 105.454C457.727 104.866 456.747 104.068 456.047 103.06C455.375 102.024 455.039 100.862 455.039 99.574C455.039 97.558 455.781 95.948 457.265 94.744C458.777 93.512 461.143 92.896 464.363 92.896H470.159V92.56C470.159 90.992 469.683 89.788 468.731 88.948C467.807 88.108 466.421 87.688 464.573 87.688C463.313 87.688 462.067 87.884 460.835 88.276C459.631 88.668 458.609 89.214 457.769 89.914L455.711 86.092C456.887 85.196 458.301 84.51 459.953 84.034C461.605 83.558 463.355 83.32 465.203 83.32ZM464.489 102.472C465.805 102.472 466.967 102.178 467.975 101.59C469.011 100.974 469.739 100.106 470.159 98.986V96.382H464.741C461.717 96.382 460.205 97.376 460.205 99.364C460.205 100.316 460.583 101.072 461.339 101.632C462.095 102.192 463.145 102.472 464.489 102.472ZM502.737 83.572L492.237 107.806C491.257 110.242 490.067 111.95 488.667 112.93C487.267 113.938 485.573 114.442 483.585 114.442C482.465 114.442 481.359 114.26 480.267 113.896C479.175 113.532 478.279 113.028 477.579 112.384L479.679 108.52C480.183 108.996 480.771 109.374 481.443 109.654C482.143 109.934 482.843 110.074 483.543 110.074C484.467 110.074 485.223 109.836 485.811 109.36C486.427 108.884 486.987 108.086 487.491 106.966L487.869 106.084L478.083 83.572H483.543L490.599 100.162L497.697 83.572H502.737ZM513.889 83.32C517.193 83.32 519.713 84.118 521.449 85.714C523.213 87.282 524.095 89.662 524.095 92.854V106H519.139V103.27C518.495 104.25 517.571 105.006 516.367 105.538C515.191 106.042 513.763 106.294 512.083 106.294C510.403 106.294 508.933 106.014 507.673 105.454C506.413 104.866 505.433 104.068 504.733 103.06C504.061 102.024 503.725 100.862 503.725 99.574C503.725 97.558 504.467 95.948 505.951 94.744C507.463 93.512 509.829 92.896 513.049 92.896H518.845V92.56C518.845 90.992 518.369 89.788 517.417 88.948C516.493 88.108 515.107 87.688 513.259 87.688C511.999 87.688 510.753 87.884 509.521 88.276C508.317 88.668 507.295 89.214 506.455 89.914L504.397 86.092C505.573 85.196 506.987 84.51 508.639 84.034C510.291 83.558 512.041 83.32 513.889 83.32ZM513.175 102.472C514.491 102.472 515.653 102.178 516.661 101.59C517.697 100.974 518.425 100.106 518.845 98.986V96.382H513.427C510.403 96.382 508.891 97.376 508.891 99.364C508.891 100.316 509.269 101.072 510.025 101.632C510.781 102.192 511.831 102.472 513.175 102.472ZM535.831 86.848C537.343 84.496 540.003 83.32 543.811 83.32V88.318C543.363 88.234 542.957 88.192 542.593 88.192C540.549 88.192 538.953 88.794 537.805 89.998C536.657 91.174 536.083 92.882 536.083 95.122V106H530.833V83.572H535.831V86.848ZM556.709 83.32C560.013 83.32 562.533 84.118 564.269 85.714C566.033 87.282 566.915 89.662 566.915 92.854V106H561.959V103.27C561.315 104.25 560.391 105.006 559.187 105.538C558.011 106.042 556.583 106.294 554.903 106.294C553.223 106.294 551.753 106.014 550.493 105.454C549.233 104.866 548.253 104.068 547.553 103.06C546.881 102.024 546.545 100.862 546.545 99.574C546.545 97.558 547.287 95.948 548.771 94.744C550.283 93.512 552.649 92.896 555.869 92.896H561.665V92.56C561.665 90.992 561.189 89.788 560.237 88.948C559.313 88.108 557.927 87.688 556.079 87.688C554.819 87.688 553.573 87.884 552.341 88.276C551.137 88.668 550.115 89.214 549.275 89.914L547.217 86.092C548.393 85.196 549.807 84.51 551.459 84.034C553.111 83.558 554.861 83.32 556.709 83.32ZM555.995 102.472C557.311 102.472 558.473 102.178 559.481 101.59C560.517 100.974 561.245 100.106 561.665 98.986V96.382H556.247C553.223 96.382 551.711 97.376 551.711 99.364C551.711 100.316 552.089 101.072 552.845 101.632C553.601 102.192 554.651 102.472 555.995 102.472ZM586.379 83.32C589.207 83.32 591.475 84.146 593.183 85.798C594.891 87.45 595.745 89.9 595.745 93.148V106H590.495V93.82C590.495 91.86 590.033 90.39 589.109 89.41C588.185 88.402 586.869 87.898 585.161 87.898C583.229 87.898 581.703 88.486 580.583 89.662C579.463 90.81 578.903 92.476 578.903 94.66V106H573.653V83.572H578.651V86.47C579.519 85.434 580.611 84.65 581.927 84.118C583.243 83.586 584.727 83.32 586.379 83.32Z" fill="#FFEFEF"/>
</svg>
