<svg width="56" height="38" viewBox="0 0 56 38" fill="none" xmlns="http://www.w3.org/2000/svg">
<g filter="url(#filter0_i)">
<path fill-rule="evenodd" clip-rule="evenodd" d="M36.6068 18.9777C36.6068 23.0372 32.6586 26.3271 27.7903 26.3271C22.922 26.3271 18.9766 23.0372 18.9766 18.9777C18.9766 14.9159 22.922 11.626 27.7903 11.626C32.6586 11.626 36.6068 14.9159 36.6068 18.9777Z" stroke="white" stroke-width="4" stroke-linecap="round" stroke-linejoin="round"/>
<path fill-rule="evenodd" clip-rule="evenodd" d="M27.7859 35.9546C38.4037 35.9546 48.1152 29.5887 53.583 18.9773C48.1152 8.36591 38.4037 2 27.7859 2H27.7971C17.1793 2 7.4678 8.36591 2 18.9773C7.4678 29.5887 17.1793 35.9546 27.7971 35.9546H27.7859Z" stroke="white" stroke-width="4" stroke-linecap="round" stroke-linejoin="round"/>
</g>
<defs>
<filter id="filter0_i" x="0" y="0" width="55.583" height="41.9546" filterUnits="userSpaceOnUse" color-interpolation-filters="sRGB">
<feFlood flood-opacity="0" result="BackgroundImageFix"/>
<feBlend mode="normal" in="SourceGraphic" in2="BackgroundImageFix" result="shape"/>
<feColorMatrix in="SourceAlpha" type="matrix" values="0 0 0 0 0 0 0 0 0 0 0 0 0 0 0 0 0 0 127 0" result="hardAlpha"/>
<feOffset dy="4"/>
<feGaussianBlur stdDeviation="2"/>
<feComposite in2="hardAlpha" operator="arithmetic" k2="-1" k3="1"/>
<feColorMatrix type="matrix" values="0 0 0 0 0 0 0 0 0 0 0 0 0 0 0 0 0 0 0.25 0"/>
<feBlend mode="normal" in2="shape" result="effect1_innerShadow"/>
</filter>
</defs>
</svg>
